<svg width="800" height="800" fill="none" xmlns="http://www.w3.org/2000/svg"><path d="M463.93 541.54s-24.706-12.387-29.627-3.194c-7.137 13.337-10.598 26.837-17.872 40.808-3.526 6.768-8.532 13.264-16.804 16.745-9.986 4.231-21.265 1.234-32.29 6.768-11.961 6.03-23.308 15.852-33.352 26.657-10.058 10.829-17.927 25.14-22.913 39.711-.532 1.495-.823 4.161-.982 5.788a2.865 2.865 0 0 0-.008.096c-4.775 2.048-3.16 1.354-7.935 3.403-18.552-16.037-35.255-30.941-52.955-48.744a5.137 5.137 0 0 1-1.303-2.326c-.366-1.383-1.267-3.495-1.011-4.006 1.172-2.435 2.213-4.708 2.901-6.353 4.454-10.6 18.6-36.053 22.626-41.662 12.024-16.715 24.347-30.176 37.688-41.392 25.252-21.241 57.556-31.452 90.107-29.112 14.92 1.072 31.347 2.681 44.07 5.061 0 0 39.32 0 42.129-8.661" fill="#fff"/><path d="M463.93 541.54s-24.706-12.387-29.627-3.194c-7.137 13.337-10.598 26.837-17.872 40.808-3.526 6.768-8.532 13.264-16.804 16.745-9.986 4.231-21.265 1.234-32.29 6.768-11.961 6.03-23.308 15.852-33.352 26.657-10.058 10.829-17.927 25.14-22.913 39.711-.532 1.495-.823 4.161-.982 5.788a2.865 2.865 0 0 0-.008.096c-4.775 2.048-3.16 1.354-7.935 3.403-18.552-16.037-35.255-30.941-52.955-48.744a5.137 5.137 0 0 1-1.303-2.326c-.366-1.383-1.267-3.495-1.011-4.006 1.172-2.435 2.213-4.708 2.901-6.353 4.454-10.6 18.6-36.053 22.626-41.662 12.024-16.715 24.347-30.176 37.688-41.392 25.252-21.241 57.556-31.452 90.107-29.112 14.92 1.072 31.347 2.681 44.07 5.061 0 0 39.32 0 42.129-8.661" stroke="#000" stroke-width="5" stroke-miterlimit="10"/><path d="M463.93 541.54s-24.706-12.387-29.627-3.194c-7.137 13.337-10.598 26.837-17.872 40.808-3.526 6.768-8.532 13.264-16.804 16.745-9.986 4.231-21.265 1.234-32.29 6.768-11.961 6.03-23.308 15.852-33.352 26.657-10.058 10.829-17.927 25.14-22.913 39.711-.532 1.495-.823 4.161-.982 5.788a2.865 2.865 0 0 0-.008.096c-4.775 2.048-3.16 1.354-7.935 3.403-18.552-16.037-35.255-30.941-52.955-48.744a5.137 5.137 0 0 1-1.303-2.326c-.366-1.383-1.267-3.495-1.011-4.006 1.172-2.435 2.213-4.708 2.901-6.353 4.454-10.6 18.6-36.053 22.626-41.662 12.024-16.715 24.347-30.176 37.688-41.392 25.252-21.241 57.556-31.452 90.107-29.112 14.92 1.072 31.347 2.681 44.07 5.061 0 0 39.32 0 42.129-8.661" stroke="#000" stroke-width="5" stroke-miterlimit="10"/><path d="M440.282 509.087s-13.255 20.74-10.25 38.138Z" fill="#fff"/><path d="M440.282 509.087s-13.255 20.74-10.25 38.138" stroke="#000" stroke-width="5" stroke-miterlimit="10"/><path d="M440.282 509.087s-13.255 20.74-10.25 38.138" stroke="#000" stroke-width="5" stroke-miterlimit="10"/><path d="M377.467 538.906c-.252 4.601-.995 10.061-2.186 15.034-.753 3.146-1.093 5.181-1.637 7.296-3.48 13.575-16.358 76.338-28.804 103.064-26.618 57.141-38.195 99.51-42.035 118.899-1.086 5.48 4.295 11.373 10.527 10.947l71.958-1.467c2.162-.149 2.975-5.207 1.264-6.354-11.286-7.569-44.896-8.079-54.904-7.85-2.441.053-4.292-3.614-3.304-5.616l52.677-103.345c.466-.917.878-1.852 1.229-2.808l46.755-125.672c1.388-3.726 2.044-7.673 1.456-11.533l-3.044-16.829" fill="#fff"/><path d="M377.467 538.906c-.252 4.601-.995 10.061-2.186 15.034-.753 3.146-1.093 5.181-1.637 7.296-3.48 13.575-16.358 76.338-28.804 103.064-26.618 57.141-38.195 99.51-42.035 118.899-1.086 5.48 4.295 11.373 10.527 10.947l71.958-1.467c2.162-.149 2.975-5.207 1.264-6.354-11.286-7.569-44.896-8.079-54.904-7.85-2.441.053-4.292-3.614-3.304-5.616l52.677-103.345c.466-.917.878-1.852 1.229-2.808l46.755-125.672c1.388-3.726 2.044-7.673 1.456-11.533l-3.044-16.829" stroke="#000" stroke-width="5" stroke-miterlimit="10"/><path d="M377.467 538.906c-.252 4.601-.995 10.061-2.186 15.034-.753 3.146-1.093 5.181-1.637 7.296-3.48 13.575-16.358 76.338-28.804 103.064-26.618 57.141-38.195 99.51-42.035 118.899-1.086 5.48 4.295 11.373 10.527 10.947l71.958-1.467c2.162-.149 2.975-5.207 1.264-6.354-11.286-7.569-44.896-8.079-54.904-7.85-2.441.053-4.292-3.614-3.304-5.616l52.677-103.345c.466-.917.878-1.852 1.229-2.808l46.755-125.672c1.388-3.726 2.044-7.673 1.456-11.533l-3.044-16.829" stroke="#000" stroke-width="5" stroke-miterlimit="10"/><path d="M481.308 506.2c7.619-7.563 17.512-5.528 28.215-10.258 17.001-7.516 40.03 9.999 44.061 30.852 5.318 27.53-88.645 53.926-94.229 38.646-3.31-9.049.055-28.044 11.978-44.374 3.831-5.252 9.975-14.866 9.975-14.866Z" fill="#fff" stroke="#000" stroke-width="5" stroke-miterlimit="10"/><path d="M481.308 506.2c7.619-7.563 17.512-5.528 28.215-10.258 17.001-7.516 40.03 9.999 44.061 30.852 5.318 27.53-88.645 53.926-94.229 38.646-3.31-9.049.055-28.044 11.978-44.374 3.831-5.252 9.975-14.866 9.975-14.866Z" stroke="#000" stroke-width="5" stroke-miterlimit="10"/><path d="M545.439 541.068c-16.635 4.043-49.718-.524-49.647-23.313.074-25.614-11.432-12.122-15.357-9.075-3.925 3.048-9.306 16.92-11.157 14.854-1.849-2.058 1.771-38.333 24.813-47.918 23.042-9.584 36.969-6.907 47.512 3.868 10.543 10.772 18.44 36.85 13.999 51.554-4.439 14.707-10.163 10.03-10.163 10.03Z" fill="#100200" stroke="#000" stroke-width="5" stroke-miterlimit="10"/><path d="M530.035 481.525c11.783.705 39.379-6.309 23.467-34.631-13.077-23.272-1.682-24.467-3.737-46.875-1.65-18.011-25.855-25.238-50.23 2.038-22.185 24.825-4.034 34.071 12.79 47.855 16.821 13.785 17.71 31.613 17.71 31.613Z" fill="#100200" stroke="#000" stroke-width="5" stroke-miterlimit="10"/><path d="M252.575 610.815s-32.989 66.399 17.564 86.605c50.554 20.208 132.002-86.6 132.002-86.6s15.464 26.488 56.264 64.238c3.258 3.018 4.844 7.56 4.074 12.001-1.311 7.591-2.496 19.383 1.45 24.795 8.426 11.547 16.852 14.435 33.704 14.435 16.851 0 42.128 34.639 42.128 34.639s16.852 11.547 14.043-8.659c-1.824-13.123-28.527-44.513-47.021-64.908a142.533 142.533 0 0 1-26.345-41.704c-8.853-21.594-24.138-55.259-44.593-86.795-4.109-6.334-19.603-11.057-22.469-11.547-16.852-2.887-117.959 69.28-117.959 69.28s-26.704-11.56-42.842-5.78Z" fill="#fff" stroke="#000" stroke-width="5" stroke-miterlimit="10"/><path d="M252.575 610.815s-32.989 66.399 17.564 86.605c50.554 20.208 132.002-86.6 132.002-86.6s15.464 26.488 56.264 64.238c3.258 3.018 4.844 7.56 4.074 12.001-1.311 7.591-2.496 19.383 1.45 24.795 8.426 11.547 16.852 14.435 33.704 14.435 16.851 0 42.128 34.639 42.128 34.639s16.852 11.547 14.043-8.659c-1.824-13.123-28.527-44.513-47.021-64.908a142.533 142.533 0 0 1-26.345-41.704c-8.853-21.594-24.138-55.259-44.593-86.795-4.109-6.334-19.603-11.057-22.469-11.547-16.852-2.887-117.959 69.28-117.959 69.28s-26.704-11.56-42.842-5.78ZM295.416 616.593l-19.66 14.434M295.416 616.593l-19.66 14.434" stroke="#000" stroke-width="5" stroke-miterlimit="10"/><path d="M455.098 671.97s22.979-3.104 29.951-16.249Z" fill="#fff"/><path d="M455.098 671.97s22.979-3.104 29.951-16.249" stroke="#000" stroke-width="5" stroke-miterlimit="10"/><path d="M455.098 671.97s22.979-3.104 29.951-16.249" stroke="#000" stroke-width="5" stroke-miterlimit="10"/><path d="M310.156 754.209s10.329 11.691 24.476 6.315Z" fill="#fff"/><path d="M310.156 754.209s10.329 11.691 24.476 6.315" stroke="#000" stroke-width="5" stroke-miterlimit="10"/><path d="M310.156 754.209s10.329 11.691 24.476 6.315" stroke="#000" stroke-width="5" stroke-miterlimit="10"/></svg>