<svg width="800" height="800" viewBox="0 0 800 800" fill="none" xmlns="http://www.w3.org/2000/svg">
<path d="M463.93 541.54C463.93 541.54 439.224 529.153 434.303 538.346C427.166 551.683 423.705 565.183 416.431 579.154C412.905 585.922 407.899 592.418 399.627 595.899C389.641 600.13 378.362 597.133 367.337 602.667C355.376 608.697 344.029 618.519 333.985 629.324C323.927 640.153 316.058 654.464 311.072 669.035C310.54 670.53 310.249 673.196 310.09 674.823C310.087 674.854 310.084 674.887 310.082 674.919C305.307 676.967 306.922 676.273 302.147 678.322C283.595 662.285 266.892 647.381 249.192 629.578C248.557 628.938 248.12 628.131 247.889 627.252C247.523 625.869 246.622 623.757 246.878 623.246C248.05 620.811 249.091 618.538 249.779 616.893C254.233 606.293 268.379 580.84 272.405 575.231C284.429 558.516 296.752 545.055 310.093 533.839C335.345 512.598 367.649 502.387 400.2 504.727C415.12 505.799 431.547 507.408 444.27 509.788C444.27 509.788 483.59 509.788 486.399 501.127" fill="white"/>
<path d="M463.93 541.54C463.93 541.54 439.224 529.153 434.303 538.346C427.166 551.683 423.705 565.183 416.431 579.154C412.905 585.922 407.899 592.418 399.627 595.899C389.641 600.13 378.362 597.133 367.337 602.667C355.376 608.697 344.029 618.519 333.985 629.324C323.927 640.153 316.058 654.464 311.072 669.035C310.54 670.53 310.249 673.196 310.09 674.823C310.087 674.854 310.084 674.887 310.082 674.919C305.307 676.967 306.922 676.273 302.147 678.322C283.595 662.285 266.892 647.381 249.192 629.578C248.557 628.938 248.12 628.131 247.889 627.252C247.523 625.869 246.622 623.757 246.878 623.246C248.05 620.811 249.091 618.538 249.779 616.893C254.233 606.293 268.379 580.84 272.405 575.231C284.429 558.516 296.752 545.055 310.093 533.839C335.345 512.598 367.649 502.387 400.2 504.727C415.12 505.799 431.547 507.408 444.27 509.788C444.27 509.788 483.59 509.788 486.399 501.127" stroke="black" stroke-width="5" stroke-miterlimit="10"/>
<path d="M463.93 541.54C463.93 541.54 439.224 529.153 434.303 538.346C427.166 551.683 423.705 565.183 416.431 579.154C412.905 585.922 407.899 592.418 399.627 595.899C389.641 600.13 378.362 597.133 367.337 602.667C355.376 608.697 344.029 618.519 333.985 629.324C323.927 640.153 316.058 654.464 311.072 669.035C310.54 670.53 310.249 673.196 310.09 674.823C310.087 674.854 310.084 674.887 310.082 674.919C305.307 676.967 306.922 676.273 302.147 678.322C283.595 662.285 266.892 647.381 249.192 629.578C248.557 628.938 248.12 628.131 247.889 627.252C247.523 625.869 246.622 623.757 246.878 623.246C248.05 620.811 249.091 618.538 249.779 616.893C254.233 606.293 268.379 580.84 272.405 575.231C284.429 558.516 296.752 545.055 310.093 533.839C335.345 512.598 367.649 502.387 400.2 504.727C415.12 505.799 431.547 507.408 444.27 509.788C444.27 509.788 483.59 509.788 486.399 501.127" stroke="black" stroke-width="5" stroke-miterlimit="10"/>
<path d="M440.282 509.087C440.282 509.087 427.027 529.827 430.032 547.225Z" fill="white"/>
<path d="M440.282 509.087C440.282 509.087 427.027 529.827 430.032 547.225" stroke="black" stroke-width="5" stroke-miterlimit="10"/>
<path d="M440.282 509.087C440.282 509.087 427.027 529.827 430.032 547.225" stroke="black" stroke-width="5" stroke-miterlimit="10"/>
<path d="M377.467 538.906C377.215 543.507 376.472 548.967 375.281 553.94C374.528 557.086 374.188 559.121 373.644 561.236C370.164 574.811 357.286 637.574 344.84 664.3C318.222 721.441 306.645 763.81 302.805 783.199C301.719 788.679 307.1 794.572 313.332 794.146L385.29 792.679C387.452 792.53 388.265 787.472 386.554 786.325C375.268 778.756 341.658 778.246 331.65 778.475C329.209 778.528 327.358 774.861 328.346 772.859L381.023 669.514C381.489 668.597 381.901 667.662 382.252 666.706L429.007 541.034C430.395 537.308 431.051 533.361 430.463 529.501L427.419 512.672" fill="white"/>
<path d="M377.467 538.906C377.215 543.507 376.472 548.967 375.281 553.94C374.528 557.086 374.188 559.121 373.644 561.236C370.164 574.811 357.286 637.574 344.84 664.3C318.222 721.441 306.645 763.81 302.805 783.199C301.719 788.679 307.1 794.572 313.332 794.146L385.29 792.679C387.452 792.53 388.265 787.472 386.554 786.325C375.268 778.756 341.658 778.246 331.65 778.475C329.209 778.528 327.358 774.861 328.346 772.859L381.023 669.514C381.489 668.597 381.901 667.662 382.252 666.706L429.007 541.034C430.395 537.308 431.051 533.361 430.463 529.501L427.419 512.672" stroke="black" stroke-width="5" stroke-miterlimit="10"/>
<path d="M377.467 538.906C377.215 543.507 376.472 548.967 375.281 553.94C374.528 557.086 374.188 559.121 373.644 561.236C370.164 574.811 357.286 637.574 344.84 664.3C318.222 721.441 306.645 763.81 302.805 783.199C301.719 788.679 307.1 794.572 313.332 794.146L385.29 792.679C387.452 792.53 388.265 787.472 386.554 786.325C375.268 778.756 341.658 778.246 331.65 778.475C329.209 778.528 327.358 774.861 328.346 772.859L381.023 669.514C381.489 668.597 381.901 667.662 382.252 666.706L429.007 541.034C430.395 537.308 431.051 533.361 430.463 529.501L427.419 512.672" stroke="black" stroke-width="5" stroke-miterlimit="10"/>
<path d="M481.308 506.2C488.927 498.637 498.82 500.672 509.523 495.942C526.524 488.426 549.553 505.941 553.584 526.794C558.902 554.324 464.939 580.72 459.355 565.44C456.045 556.391 459.41 537.396 471.333 521.066C475.164 515.814 481.308 506.2 481.308 506.2Z" fill="white" stroke="black" stroke-width="5" stroke-miterlimit="10"/>
<path d="M481.308 506.2C488.927 498.637 498.82 500.672 509.523 495.942C526.524 488.426 549.553 505.941 553.584 526.794C558.902 554.324 464.939 580.72 459.355 565.44C456.045 556.391 459.41 537.396 471.333 521.066C475.164 515.814 481.308 506.2 481.308 506.2Z" stroke="black" stroke-width="5" stroke-miterlimit="10"/>
<path d="M545.439 541.068C528.804 545.111 495.721 540.544 495.792 517.755C495.866 492.141 484.36 505.633 480.435 508.68C476.51 511.728 471.129 525.6 469.278 523.534C467.429 521.476 471.049 485.201 494.091 475.616C517.133 466.032 531.06 468.709 541.603 479.484C552.146 490.256 560.043 516.334 555.602 531.038C551.163 545.745 545.439 541.068 545.439 541.068Z" fill="#100200" stroke="black" stroke-width="5" stroke-miterlimit="10"/>
<path d="M530.035 481.525C541.818 482.23 569.414 475.216 553.502 446.894C540.425 423.622 551.82 422.427 549.765 400.019C548.115 382.008 523.91 374.781 499.535 402.057C477.35 426.882 495.501 436.128 512.325 449.912C529.146 463.697 530.035 481.525 530.035 481.525Z" fill="#100200" stroke="black" stroke-width="5" stroke-miterlimit="10"/>
<path d="M252.575 610.815C252.575 610.815 219.586 677.214 270.139 697.42C320.693 717.628 402.141 610.82 402.141 610.82C402.141 610.82 417.605 637.308 458.405 675.058C461.663 678.076 463.249 682.618 462.479 687.059C461.168 694.65 459.983 706.442 463.929 711.854C472.355 723.401 480.781 726.289 497.633 726.289C514.484 726.289 539.761 760.928 539.761 760.928C539.761 760.928 556.613 772.475 553.804 752.269C551.98 739.146 525.277 707.756 506.783 687.361C495.694 675.138 486.75 661.054 480.438 645.657C471.585 624.063 456.3 590.398 435.845 558.862C431.736 552.528 416.242 547.805 413.376 547.315C396.524 544.428 295.417 616.595 295.417 616.595C295.417 616.595 268.713 605.035 252.575 610.815Z" fill="white" stroke="black" stroke-width="5" stroke-miterlimit="10"/>
<path d="M252.575 610.815C252.575 610.815 219.586 677.214 270.139 697.42C320.693 717.628 402.141 610.82 402.141 610.82C402.141 610.82 417.605 637.308 458.405 675.058C461.663 678.076 463.249 682.618 462.479 687.059C461.168 694.65 459.983 706.442 463.929 711.854C472.355 723.401 480.781 726.289 497.633 726.289C514.484 726.289 539.761 760.928 539.761 760.928C539.761 760.928 556.613 772.475 553.804 752.269C551.98 739.146 525.277 707.756 506.783 687.361C495.694 675.138 486.75 661.054 480.438 645.657C471.585 624.063 456.3 590.398 435.845 558.862C431.736 552.528 416.242 547.805 413.376 547.315C396.524 544.428 295.417 616.595 295.417 616.595C295.417 616.595 268.713 605.035 252.575 610.815Z" stroke="black" stroke-width="5" stroke-miterlimit="10"/>
<path d="M295.416 616.593L275.756 631.027" stroke="black" stroke-width="5" stroke-miterlimit="10"/>
<path d="M295.416 616.593L275.756 631.027" stroke="black" stroke-width="5" stroke-miterlimit="10"/>
<path d="M455.098 671.97C455.098 671.97 478.077 668.866 485.049 655.721Z" fill="white"/>
<path d="M455.098 671.97C455.098 671.97 478.077 668.866 485.049 655.721" stroke="black" stroke-width="5" stroke-miterlimit="10"/>
<path d="M455.098 671.97C455.098 671.97 478.077 668.866 485.049 655.721" stroke="black" stroke-width="5" stroke-miterlimit="10"/>
<path d="M310.156 754.209C310.156 754.209 320.485 765.9 334.632 760.524Z" fill="white"/>
<path d="M310.156 754.209C310.156 754.209 320.485 765.9 334.632 760.524" stroke="black" stroke-width="5" stroke-miterlimit="10"/>
<path d="M310.156 754.209C310.156 754.209 320.485 765.9 334.632 760.524" stroke="black" stroke-width="5" stroke-miterlimit="10"/>
</svg>
