<svg width="800" height="800" fill="none" xmlns="http://www.w3.org/2000/svg"><path d="m513.717 604.06 5.031 91.198c.002.042.002.086.002.131l-.125 9.515-.472 35.526c-.076 5.789-.155 11.576-.233 17.362-.067 5.142-1.331 10.944.981 15.802.756 1.591 2.272 2.558 3.869 3.306 4.058 1.895 15.998 2.331 23.65 3.931 5.073 1.066 17.786 3.865 22.42 6.766 1.621 1.011.83 3.533-1.079 3.509l-54.272-.615c-.246-.002-.887.142-1.132.142-6.161.029-9.169-3.008-10.103-7.583-3.398-16.641-9.965-43.739-11.302-80.916-.749-20.952-8.091-58.71-11.711-76.28" fill="#fff"/><path d="m513.717 604.06 5.031 91.198c.002.042.002.086.002.131l-.125 9.515-.472 35.526c-.076 5.789-.155 11.576-.233 17.362-.067 5.142-1.331 10.944.981 15.802.756 1.591 2.272 2.558 3.869 3.306 4.058 1.895 15.998 2.331 23.65 3.931 5.073 1.066 17.786 3.865 22.42 6.766 1.621 1.011.83 3.533-1.079 3.509l-54.272-.615c-.246-.002-.887.142-1.132.142-6.161.029-9.169-3.008-10.103-7.583-3.398-16.641-9.965-43.739-11.302-80.916-.749-20.952-8.091-58.71-11.711-76.28" stroke="#000" stroke-width="5" stroke-miterlimit="10"/><path d="m513.717 604.06 5.031 91.198c.002.042.002.086.002.131l-.125 9.515-.472 35.526c-.076 5.789-.155 11.576-.233 17.362-.067 5.142-1.331 10.944.981 15.802.756 1.591 2.272 2.558 3.869 3.306 4.058 1.895 15.998 2.331 23.65 3.931 5.073 1.066 17.786 3.865 22.42 6.766 1.621 1.011.83 3.533-1.079 3.509l-54.272-.615c-.246-.002-.887.142-1.132.142-6.161.029-9.169-3.008-10.103-7.583-3.398-16.641-9.965-43.739-11.302-80.916-.749-20.952-8.091-58.71-11.711-76.28" stroke="#000" stroke-width="5" stroke-miterlimit="10"/><path d="M414.483 559.52c24.371-8.114 60.502-19.145 74.81-11.987 14.308 7.152 25.865 10.689 31.439 31.55 1.067 4.004-10.04 1.668-10.836 4.949-.483 1.989 5.18.213 4.181 1.976-1.108 1.954-.506 17.53-.506 17.53-6.835 7.41-16.101 10.163-22.626 14.71-11.609 8.09-12.818 12.271-29.193 12.541-16.375.269-30.222-6.42-48.384-6.672-18.164-.253-31.625 2.998-31.625 2.998s-12.064-10.181-12.686-25.746c-.623-15.567-.528-27.671 3.819-37.204.001-.004 27.71-.019 41.607-4.645Z" fill="#fff" stroke="#000" stroke-width="5" stroke-miterlimit="10"/><path d="M414.483 559.52c24.371-8.114 60.502-19.145 74.81-11.987 14.308 7.152 25.865 10.689 31.439 31.55 1.067 4.004-10.04 1.668-10.836 4.949-.483 1.989 5.18.213 4.181 1.976-1.108 1.954-.506 17.53-.506 17.53-6.835 7.41-16.101 10.163-22.626 14.71-11.609 8.09-12.818 12.271-29.193 12.541-16.375.269-30.222-6.42-48.384-6.672-18.164-.253-31.625 2.998-31.625 2.998s-12.064-10.181-12.686-25.746c-.623-15.567-.528-27.671 3.819-37.204.001-.004 27.71-.019 41.607-4.645Z" stroke="#000" stroke-width="5" stroke-miterlimit="10"/><path d="M328.305 569.195c-18.331-3.706-54.132.185-82.367 3.958-28.234 3.772-54.443-5.815-96.724-1.699-42.283 4.113-117.43 9.445-127.833 11.415-10.403 1.973-10.768 8.175-10.23 18.426.54 10.246 4.212 33.555 6.2 43.012 1.99 9.455 10.489 12.006 16.556 12.752 6.072.75 8.258-2.357 5.117-6.85-3.137-4.499-5.183-2.521-5.734-8.727-.55-6.198-.91-30.032 4.934-33.176 5.846-3.146 14.706-4.894 31.699-3.258 16.995 1.639 40.063 1.695 78.367 9.44 38.302 7.75 161.133 20.524 166.529 18.185 5.394-2.336 13.486-63.478 13.486-63.478Z" fill="#fff" stroke="#000" stroke-width="5" stroke-miterlimit="10"/><path d="M328.305 569.195c-18.331-3.706-54.132.185-82.367 3.958-28.234 3.772-54.443-5.815-96.724-1.699-42.283 4.113-117.43 9.445-127.833 11.415-10.403 1.973-10.768 8.175-10.23 18.426.54 10.246 4.212 33.555 6.2 43.012 1.99 9.455 10.489 12.006 16.556 12.752 6.072.75 8.258-2.357 5.117-6.85-3.137-4.499-5.183-2.521-5.734-8.727-.55-6.198-.91-30.032 4.934-33.176 5.846-3.146 14.706-4.894 31.699-3.258 16.995 1.639 40.063 1.695 78.367 9.44 38.302 7.75 161.133 20.524 166.529 18.185 5.394-2.336 13.486-63.478 13.486-63.478Z" stroke="#000" stroke-width="5" stroke-miterlimit="10"/><path d="M304.261 582.821c9.386-14.976 24.135-22.091 46.373-20.374l22.24 1.714s-5.682 19.84-4.609 29.311c1.072 9.472 2 20.337 13.479 33.64 0 0-16.166 1.328-18.977 16.303-2.812 14.979-3.801 103.008-8.927 122.434-5.126 19.422-13.851 22.887-25.809 25.334-11.958 2.451-77.014-23.074-104.982-33.03-27.968-9.959-59.919-26.153-69.369-14.829-4.541 5.44-5.318 30.914-.906 37.733 4.413 6.821 7.639 3.338 7.958 8.316.322 4.982-13.876 4.857-18.272.212-4.308-4.55-5.039-8.343-8.07-18.611-4.607-15.611-8.571-19.787-10.266-35.172-.274-2.489-.265-5.027.24-7.48.389-1.905 1.09-4.044 2.339-5.77 4.586-6.34 12.94-4.392 23.736-4.064 10.794.332 56.834.332 80.392.332 23.559 0 59.009-.407 71.037 6.113 0 0-6.422-62.678-6.089-95.856.335-33.177 8.482-46.256 8.482-46.256Z" fill="#fff" stroke="#000" stroke-width="5" stroke-miterlimit="10"/><path d="M304.261 582.821c9.386-14.976 24.135-22.091 46.373-20.374l22.24 1.714s-5.682 19.84-4.609 29.311c1.072 9.472 2 20.337 13.479 33.64 0 0-16.166 1.328-18.977 16.303-2.812 14.979-3.801 103.008-8.927 122.434-5.126 19.422-13.851 22.887-25.809 25.334-11.958 2.451-77.014-23.074-104.982-33.03-27.968-9.959-59.919-26.153-69.369-14.829-4.541 5.44-5.318 30.914-.906 37.733 4.413 6.821 7.639 3.338 7.958 8.316.322 4.982-13.876 4.857-18.272.212-4.308-4.55-5.039-8.343-8.07-18.611-4.607-15.611-8.571-19.787-10.266-35.172-.274-2.489-.265-5.027.24-7.48.389-1.905 1.09-4.044 2.339-5.77 4.586-6.34 12.94-4.392 23.736-4.064 10.794.332 56.834.332 80.392.332 23.559 0 59.009-.407 71.037 6.113 0 0-6.422-62.678-6.089-95.856.335-33.177 8.482-46.256 8.482-46.256ZM513.717 604.06l-.666-12.087M513.717 604.06l-.666-12.087M83.521 577.759s-3.395 14.812 0 27.794" stroke="#000" stroke-width="5" stroke-miterlimit="10"/><path d="M190.907 718.789s-5.16 10.197-3.892 25.791" stroke="#000" stroke-width="5" stroke-miterlimit="10"/><path d="M558.656 530.365c6.397-6.427 16.532-25.783-7.426-30.662-19.684-4.014-14.551-11.164-28.135-21.086-10.928-7.978-27.302 2.365-24.45 29.907 2.594 25.066 17.015 19.206 33.299 16.361 16.283-2.845 26.712 5.48 26.712 5.48Z" fill="#000" stroke="#000" stroke-width="5" stroke-miterlimit="10"/><path d="M530.742 562.606c2.932-7.241 10.193-8.868 16.027-15.174 9.273-10.02 29.894-5.429 38.686 7.04 11.606 16.459-44.038 61.9-52.253 53.555-4.868-4.95-8.132-18.407-4.852-32.687 1.053-4.59 2.392-12.734 2.392-12.734Z" fill="#fff" stroke="#000" stroke-width="5" stroke-miterlimit="10"/><path d="M530.742 562.606c2.932-7.241 10.193-8.868 16.027-15.174 9.273-10.02 29.894-5.429 38.686 7.04 11.606 16.459-44.038 61.9-52.253 53.555-4.868-4.95-8.132-18.407-4.852-32.687 1.053-4.59 2.392-12.734 2.392-12.734Z" stroke="#000" stroke-width="5" stroke-miterlimit="10"/><path d="M584.123 566.271c-10.032 7.629-33.661 14.541-40.255-.424-7.409-16.818-11.232-4.529-12.991-1.353-1.755 3.174-1.346 13.879-3.193 13.08-1.847-.797-9.972-25.667 2.766-38.851 12.739-13.187 22.906-15.6 33.15-11.691 10.242 3.905 23.16 18.643 24.452 29.617 1.292 10.972-3.929 9.622-3.929 9.622Z" fill="#000" stroke="#000" stroke-width="5" stroke-miterlimit="10"/><path d="M495.008 591.154s108.541 12.573 131.852 10.781c23.31-1.792 102.916-21.738 102.916-21.738 15.016-2.71 27.257.763 44.374-6.908 17.109-7.671 15.106-9.616 12.972-11.444-2.135-1.824-45.008-7.506-58.032 2.112-4.288 3.166-5.131 3.148-7.812 4.071l-98.588 8.894-119.885-22.506" fill="#fff"/><path d="M495.008 591.154s108.541 12.573 131.852 10.781c23.31-1.792 102.916-21.738 102.916-21.738 15.016-2.71 27.257.763 44.374-6.908 17.109-7.671 15.106-9.616 12.972-11.444-2.135-1.824-45.008-7.506-58.032 2.112-4.288 3.166-5.131 3.148-7.812 4.071l-98.588 8.894-119.885-22.506" stroke="#000" stroke-width="5" stroke-miterlimit="10"/><path d="M495.008 591.154s108.541 12.573 131.852 10.781c23.31-1.792 102.916-21.738 102.916-21.738 15.016-2.71 27.257.763 44.374-6.908 17.109-7.671 15.106-9.616 12.972-11.444-2.135-1.824-45.008-7.506-58.032 2.112-4.288 3.166-5.131 3.148-7.812 4.071l-98.588 8.894-119.885-22.506" stroke="#000" stroke-width="5" stroke-miterlimit="10"/><path d="M464.949 546.155c8.261 18.991 38.867 18.929 56.41 11.745" stroke="#000" stroke-width="5" stroke-miterlimit="10"/></svg>