<svg width="800" height="800" fill="none" xmlns="http://www.w3.org/2000/svg"><path d="M423.014 458.461c-1.147 36.165-2.954 39.376-2.954 39.376.547 1.93.821 7.571.986 9.828 1.356 18.33-3.292 40.17-5.169 55.244-3.455 27.745-4.817 46.524-10.397 72.055-8.559 39.153-16.211 75.974-13.138 115.796.447 5.767-.284 11.965 5.74 19.375 6.004 7.384 34.786 10.518 49.878 15.94 3.548 1.276 1.93 6.893-1.838 6.967l-67.38.956c-5.779.112-10.548-4.454-10.715-10.231-.958-33.003.51-44.379-3.32-98.588-1.789-25.316-1.373-27.743-.738-50.215.524-18.522.069-41.881.87-60.272.817-18.749-8.594-71.976-1.773-98.761" fill="#fff"/><path d="M423.014 458.461c-1.147 36.165-2.954 39.376-2.954 39.376.547 1.93.821 7.571.986 9.828 1.356 18.33-3.292 40.17-5.169 55.244-3.455 27.745-4.817 46.524-10.397 72.055-8.559 39.153-16.211 75.974-13.138 115.796.447 5.767-.284 11.965 5.74 19.375 6.004 7.384 34.786 10.518 49.878 15.94 3.548 1.276 1.93 6.893-1.838 6.967l-67.38.956c-5.779.112-10.548-4.454-10.715-10.231-.958-33.003.51-44.379-3.32-98.588-1.789-25.316-1.373-27.743-.738-50.215.524-18.522.069-41.881.87-60.272.817-18.749-8.594-71.976-1.773-98.761" stroke="#000" stroke-width="5" stroke-miterlimit="10"/><path d="M423.014 458.461c-1.147 36.165-2.954 39.376-2.954 39.376.547 1.93.821 7.571.986 9.828 1.356 18.33-3.292 40.17-5.169 55.244-3.455 27.745-4.817 46.524-10.397 72.055-8.559 39.153-16.211 75.974-13.138 115.796.447 5.767-.284 11.965 5.74 19.375 6.004 7.384 34.786 10.518 49.878 15.94 3.548 1.276 1.93 6.893-1.838 6.967l-67.38.956c-5.779.112-10.548-4.454-10.715-10.231-.958-33.003.51-44.379-3.32-98.588-1.789-25.316-1.373-27.743-.738-50.215.524-18.522.069-41.881.87-60.272.817-18.749-8.594-71.976-1.773-98.761" stroke="#000" stroke-width="5" stroke-miterlimit="10"/><path d="m591.428 463.051 32.008 10.036-17.364 18.201c-12.937-3.701-29.055-2.783-41.63-.263-12.573 2.523-28.778 14.357-38.371 22.567-9.595 8.211-25.65 10.203-32.946 5.52-7.3-4.686-9.409-8.976-25.978-10.417-16.572-1.44-47.133-1.378-47.133-1.378-2.41-7.302-.861-22.332.151-32.882.96-9.98 4.097-23.139 4.097-23.139 19.963 2.555 56.185 3.817 80.787 4.211 17.094.273 36.341-3 49.831-.984 6.302.94 19.319 1.847 26.225 4.913a68.557 68.557 0 0 0 10.323 3.615Z" fill="#fff" stroke="#000" stroke-width="5" stroke-miterlimit="10"/><path d="m591.428 463.051 32.008 10.036-17.364 18.201c-12.937-3.701-29.055-2.783-41.63-.263-12.573 2.523-28.778 14.357-38.371 22.567-9.595 8.211-25.65 10.203-32.946 5.52-7.3-4.686-9.409-8.976-25.978-10.417-16.572-1.44-47.133-1.378-47.133-1.378-2.41-7.302-.861-22.332.151-32.882.96-9.98 4.097-23.139 4.097-23.139 19.963 2.555 56.185 3.817 80.787 4.211 17.094.273 36.341-3 49.831-.984 6.302.94 19.319 1.847 26.225 4.913a68.557 68.557 0 0 0 10.323 3.615Z" stroke="#000" stroke-width="5" stroke-miterlimit="10"/><path d="M77.686 507.719c4.842-2.021 38.221-3.885 63.129-2.344 24.906 1.542 109.662 8.6 130.821 9.149 21.158.549 78.712 1.592 106.388-1.133 27.678-2.721 41.989-6.075 41.989-6.075-3.165-15.198.922-42.622 4.248-56.019 0 0-6.771-.872-12.489-2.233-5.718-1.36-23.225-10.259-39.25-11.833-16.023-1.574-34.117 3.432-44.842 7.717-10.724 4.284-35.615 16.298-57.342 19.212-21.727 2.912-52.951 2.925-67.728 3.836-14.779.911-43.263 6.308-61.047 9.162-15.919 2.555-56.22 8.435-69.343 10.35-2.002.294-4.017-.052-5.856-.899-2.81-1.29-7.531-2.484-11.39 1.374-5.903 5.904-13.776 13.776-19.68 15.745-5.905 1.969-19.682 3.936-23.618 11.809-1.762 3.521-3.936 7.872 3.936 11.808 7.873 3.937 62.074-19.626 62.074-19.626Z" fill="#fff" stroke="#000" stroke-width="5" stroke-miterlimit="10"/><path d="M77.686 507.719c4.842-2.021 38.221-3.885 63.129-2.344 24.906 1.542 109.662 8.6 130.821 9.149 21.158.549 78.712 1.592 106.388-1.133 27.678-2.721 41.989-6.075 41.989-6.075-3.165-15.198.922-42.622 4.248-56.019 0 0-6.771-.872-12.489-2.233-5.718-1.36-23.225-10.259-39.25-11.833-16.023-1.574-34.117 3.432-44.842 7.717-10.724 4.284-35.615 16.298-57.342 19.212-21.727 2.912-52.951 2.925-67.728 3.836-14.779.911-43.263 6.308-61.047 9.162-15.919 2.555-56.22 8.435-69.343 10.35-2.002.294-4.017-.052-5.856-.899-2.81-1.29-7.531-2.484-11.39 1.374-5.903 5.904-13.776 13.776-19.68 15.745-5.905 1.969-19.682 3.936-23.618 11.809-1.762 3.521-3.936 7.872 3.936 11.808 7.873 3.937 62.074-19.626 62.074-19.626Z" stroke="#000" stroke-width="5" stroke-miterlimit="10"/><path d="M91.627 484.67c-.172 8.193 2.71 21.027 2.71 21.027M548.48 497.574c-5.505-10.803-.409-34.445 2.687-43.459" stroke="#000" stroke-width="5" stroke-miterlimit="10"/><path d="M618.623 465.169c5.839-4.038 12.163-1.651 19.743-3.53 12.036-2.987 25.409 10.79 25.866 24.64.605 18.29-64.321 25.047-66.395 14.608-1.228-6.182 3.006-18.033 12.62-27.241 3.087-2.963 8.166-8.477 8.166-8.477Z" fill="#fff" stroke="#000" stroke-width="5" stroke-miterlimit="10"/><path d="M618.623 465.169c5.839-4.038 12.163-1.651 19.743-3.53 12.036-2.987 25.409 10.79 25.866 24.64.605 18.29-64.321 25.047-66.395 14.608-1.228-6.182 3.006-18.033 12.62-27.241 3.087-2.963 8.166-8.477 8.166-8.477Z" stroke="#000" stroke-width="5" stroke-miterlimit="10"/><path d="M657.336 494.578c-11.427.789-32.815-5.747-30.359-20.4 2.763-16.468-6.273-9.043-9.192-7.509-2.92 1.535-7.943 9.87-8.948 8.345-1.007-1.53 5.226-24.469 21.48-28.129 16.25-3.659 25.177-.419 31.005 7.657 5.828 8.077 8.29 25.713 3.797 34.689-4.493 8.977-7.783 5.347-7.783 5.347Z" fill="#100200" stroke="#000" stroke-width="5" stroke-miterlimit="10"/><path d="M640.829 452.312c-4.223-6.685-9.176-25.084 12.148-24.688 17.513.323 14.5-6.737 27.95-12.605 10.813-4.714 22.786 7.195 15.134 30.099-6.969 20.841-18.131 13.115-31.45 7.601-13.322-5.513-23.782-.407-23.782-.407Z" fill="#100200" stroke="#000" stroke-width="5" stroke-miterlimit="10"/><path d="M533.23 484.048s87.177 10.18 108.437 8.546c21.256-1.634 93.856-19.823 93.856-19.823 13.697-2.472 24.858.697 40.465-6.301 15.605-6.996 13.777-8.771 11.831-10.436-1.944-1.665-41.046-6.846-52.925 1.926-3.91 2.886-4.68 2.872-7.123 3.715l-89.909 8.109c-44.398-11.01-88.844-18.14-116.443-11.322" fill="#fff"/><path d="M533.23 484.048s87.177 10.18 108.437 8.546c21.256-1.634 93.856-19.823 93.856-19.823 13.697-2.472 24.858.697 40.465-6.301 15.605-6.996 13.777-8.771 11.831-10.436-1.944-1.665-41.046-6.846-52.925 1.926-3.91 2.886-4.68 2.872-7.123 3.715l-89.909 8.109c-44.398-11.01-88.844-18.14-116.443-11.322" stroke="#000" stroke-width="5" stroke-miterlimit="10"/><path d="M533.23 484.048s87.177 10.18 108.437 8.546c21.256-1.634 93.856-19.823 93.856-19.823 13.697-2.472 24.858.697 40.465-6.301 15.605-6.996 13.777-8.771 11.831-10.436-1.944-1.665-41.046-6.846-52.925 1.926-3.91 2.886-4.68 2.872-7.123 3.715l-89.909 8.109c-44.398-11.01-88.844-18.14-116.443-11.322" stroke="#000" stroke-width="5" stroke-miterlimit="10"/><path d="M367.363 738.281s10.723 5.575 24.331-1.32Z" fill="#fff"/><path d="M367.363 738.281s10.723 5.575 24.331-1.32" stroke="#000" stroke-width="5" stroke-miterlimit="10"/><path d="M367.363 738.281s10.723 5.575 24.331-1.32" stroke="#000" stroke-width="5" stroke-miterlimit="10"/></svg>