<svg width="800" height="800" viewBox="0 0 800 800" fill="none" xmlns="http://www.w3.org/2000/svg">
<g clip-path="url(#clip0_298_12125)">
<path d="M366.687 697.98C357.034 683.806 340.819 646.114 341.804 626.846C342.79 607.577 342.927 599.978 338.136 591.631C333.343 583.279 286.508 571.178 271.084 563.139C255.66 555.106 247.178 529.063 247.178 529.063L218.593 534.258C218.593 534.258 240.593 555.709 234.052 586.993C227.231 619.625 253.162 654.686 274.961 686.087C295.475 715.633 299.768 736.354 299.768 736.354L353.04 762.866L366.687 697.98Z" fill="white" stroke="black" stroke-width="5" stroke-miterlimit="10"/>
<path d="M366.687 697.98C357.034 683.806 340.819 646.114 341.804 626.846C342.79 607.577 342.927 599.978 338.136 591.631C333.343 583.279 286.508 571.178 271.084 563.139C255.66 555.106 247.178 529.063 247.178 529.063L218.593 534.258C218.593 534.258 240.593 555.709 234.052 586.993C227.231 619.625 253.162 654.686 274.961 686.087C295.475 715.633 299.768 736.354 299.768 736.354L353.04 762.866L366.687 697.98Z" stroke="black" stroke-width="5" stroke-miterlimit="10"/>
<path d="M299.768 736.353C311.275 757.56 319.702 782.017 345.336 789.69C367 796.17 389.789 785.949 407.685 774.234C415.017 769.435 421.963 764.062 428.597 758.337C443.731 745.281 491.6 694.547 518.347 679.15C554.732 658.207 657.383 560.226 708.882 518.153C715.531 512.712 716.803 500.583 710.268 494.988C680.046 469.109 678.206 441.44 653.315 441.897C648.843 441.981 643.213 445.973 645.167 449.998C647.762 455.245 654.981 458.394 663.298 469.052C668.113 475.224 667.828 485.686 669.517 497.356C667.719 513.618 644.422 533.609 638.645 537.79C617.516 553.131 593.826 570.761 573.731 581.193C517.51 610.332 498.865 624.183 443.353 653.926C399.742 677.286 387.255 682.081 366.686 697.978C363.567 700.391 361.174 704.738 358.33 707.574C348.709 717.17 335.837 721.218 323.584 726.353C321.905 727.056 299.617 735.333 299.768 736.353Z" fill="white" stroke="black" stroke-width="5" stroke-miterlimit="10"/>
<path d="M299.768 736.353C311.275 757.56 319.702 782.017 345.336 789.69C367 796.17 389.789 785.949 407.685 774.234C415.017 769.435 421.963 764.062 428.597 758.337C443.731 745.281 491.6 694.547 518.347 679.15C554.732 658.207 657.383 560.226 708.882 518.153C715.531 512.712 716.803 500.583 710.268 494.988C680.046 469.109 678.206 441.44 653.315 441.897C648.843 441.981 643.213 445.973 645.167 449.998C647.762 455.245 654.981 458.394 663.298 469.052C668.113 475.224 667.828 485.686 669.517 497.356C667.719 513.618 644.422 533.609 638.645 537.79C617.516 553.131 593.826 570.761 573.731 581.193C517.51 610.332 498.865 624.183 443.353 653.926C399.742 677.286 387.255 682.081 366.686 697.978C363.567 700.391 361.174 704.738 358.33 707.574C348.709 717.17 335.837 721.218 323.584 726.353C321.905 727.056 299.617 735.333 299.768 736.353Z" stroke="black" stroke-width="5" stroke-miterlimit="10"/>
<path d="M274.481 564.76C274.481 564.76 254.334 571.687 255.684 596.071C257.375 626.56 310.69 640.187 318.87 591.893" stroke="black" stroke-width="5" stroke-miterlimit="10"/>
<path d="M283.594 617.578C283.594 617.578 417.15 630.204 441.617 627.565C466.085 624.927 549.331 600.617 549.331 600.617C565.058 597.196 578.009 600.695 595.825 591.726C613.645 582.753 611.493 580.662 609.212 578.703C606.924 576.744 561.725 571.67 548.248 582.675C543.807 586.298 542.92 586.302 540.122 587.401L436.672 600.024L287.246 569.754" fill="white"/>
<path d="M283.594 617.578C283.594 617.578 417.15 630.204 441.617 627.565C466.085 624.927 549.331 600.617 549.331 600.617C565.058 597.196 578.009 600.695 595.825 591.726C613.645 582.753 611.493 580.662 609.212 578.703C606.924 576.744 561.725 571.67 548.248 582.675C543.807 586.298 542.92 586.302 540.122 587.401L436.672 600.024L287.246 569.754" stroke="black" stroke-width="5" stroke-miterlimit="10"/>
<path d="M283.594 617.578C283.594 617.578 417.15 630.204 441.617 627.565C466.085 624.927 549.331 600.617 549.331 600.617C565.058 597.196 578.009 600.695 595.825 591.726C613.645 582.753 611.493 580.662 609.212 578.703C606.924 576.744 561.725 571.67 548.248 582.675C543.807 586.298 542.92 586.302 540.122 587.401L436.672 600.024L287.246 569.754" stroke="black" stroke-width="5" stroke-miterlimit="10"/>
<path d="M208.234 487.965C197.684 475.405 165.175 451.425 145.161 491.849C132.456 517.509 110.148 553.777 84.1007 556.638C58.0564 559.494 96.685 607.196 130.096 597.985C163.506 588.774 186.588 557.994 185.559 528.149C184.532 498.302 208.234 487.965 208.234 487.965Z" fill="#100200" stroke="black" stroke-width="5" stroke-miterlimit="10"/>
<path d="M227.564 529.894C220.684 524.111 221.49 515.591 216.667 506.963C209.006 493.258 221.365 472.332 238.123 467.148C260.248 460.305 290.16 537.344 278.111 543.361C270.973 546.926 255.088 545.71 240.639 537.045C235.994 534.258 227.564 529.894 227.564 529.894Z" fill="white" stroke="black" stroke-width="5" stroke-miterlimit="10"/>
<path d="M227.564 529.894C220.684 524.111 221.49 515.591 216.667 506.963C209.006 493.258 221.365 472.332 238.123 467.148C260.248 460.305 290.16 537.344 278.111 543.361C270.973 546.926 255.088 545.71 240.639 537.045C235.994 534.258 227.564 529.894 227.564 529.894Z" stroke="black" stroke-width="5" stroke-miterlimit="10"/>
<path d="M250.554 472.802C255.33 486.493 254.489 514.799 235.781 516.688C214.749 518.811 226.829 527.367 229.676 530.42C232.524 533.472 244.378 536.829 242.849 538.566C241.32 540.304 211.23 540.347 201.342 521.719C191.451 503.095 192.428 491.114 200.346 481.298C208.259 471.482 228.97 462.59 241.429 465.081C253.889 467.571 250.554 472.802 250.554 472.802Z" fill="#100200" stroke="black" stroke-width="5" stroke-miterlimit="10"/>
<path d="M233.396 590.883C244.41 589.724 249.256 585.889 252.833 579.333C256.412 572.78 263.057 563.208 269.866 562.453" stroke="black" stroke-width="5" stroke-miterlimit="10"/>
<path d="M659.753 517.122L682.386 540.646" stroke="black" stroke-width="5" stroke-miterlimit="10"/>
</g>
<defs>
<clipPath id="clip0_298_12125">
<rect width="800" height="800" fill="white"/>
</clipPath>
</defs>
</svg>
