<svg width="800" height="800" fill="none" xmlns="http://www.w3.org/2000/svg"><g clip-path="url(#a)"><path d="M366.687 697.98c-9.653-14.174-25.868-51.866-24.883-71.134.986-19.269 1.123-26.868-3.668-35.215-4.793-8.352-51.628-20.453-67.052-28.492-15.424-8.033-23.906-34.076-23.906-34.076l-28.585 5.195s22 21.451 15.459 52.735c-6.821 32.632 19.11 67.693 40.909 99.094 20.514 29.546 24.807 50.267 24.807 50.267l53.272 26.512 13.647-64.886Z" fill="#fff" stroke="#000" stroke-width="5" stroke-miterlimit="10"/><path d="M366.687 697.98c-9.653-14.174-25.868-51.866-24.883-71.134.986-19.269 1.123-26.868-3.668-35.215-4.793-8.352-51.628-20.453-67.052-28.492-15.424-8.033-23.906-34.076-23.906-34.076l-28.585 5.195s22 21.451 15.459 52.735c-6.821 32.632 19.11 67.693 40.909 99.094 20.514 29.546 24.807 50.267 24.807 50.267l53.272 26.512 13.647-64.886Z" stroke="#000" stroke-width="5" stroke-miterlimit="10"/><path d="M299.768 736.353c11.507 21.207 19.934 45.664 45.568 53.337 21.664 6.48 44.453-3.741 62.349-15.456 7.332-4.799 14.278-10.172 20.912-15.897 15.134-13.056 63.003-63.79 89.75-79.187 36.385-20.943 139.036-118.924 190.535-160.997 6.649-5.441 7.921-17.57 1.386-23.165-30.222-25.879-32.062-53.548-56.953-53.091-4.472.084-10.102 4.076-8.148 8.101 2.595 5.247 9.814 8.396 18.131 19.054 4.815 6.172 4.53 16.634 6.219 28.304-1.798 16.262-25.095 36.253-30.872 40.434-21.129 15.341-44.819 32.971-64.914 43.403-56.221 29.139-74.866 42.99-130.378 72.733-43.611 23.36-56.098 28.155-76.667 44.052-3.119 2.413-5.512 6.76-8.356 9.596-9.621 9.596-22.493 13.644-34.746 18.779-1.679.703-23.967 8.98-23.816 10Z" fill="#fff" stroke="#000" stroke-width="5" stroke-miterlimit="10"/><path d="M299.768 736.353c11.507 21.207 19.934 45.664 45.568 53.337 21.664 6.48 44.453-3.741 62.349-15.456 7.332-4.799 14.278-10.172 20.912-15.897 15.134-13.056 63.003-63.79 89.75-79.187 36.385-20.943 139.036-118.924 190.535-160.997 6.649-5.441 7.921-17.57 1.386-23.165-30.222-25.879-32.062-53.548-56.953-53.091-4.472.084-10.102 4.076-8.148 8.101 2.595 5.247 9.814 8.396 18.131 19.054 4.815 6.172 4.53 16.634 6.219 28.304-1.798 16.262-25.095 36.253-30.872 40.434-21.129 15.341-44.819 32.971-64.914 43.403-56.221 29.139-74.866 42.99-130.378 72.733-43.611 23.36-56.098 28.155-76.667 44.052-3.119 2.413-5.512 6.76-8.356 9.596-9.621 9.596-22.493 13.644-34.746 18.779-1.679.703-23.967 8.98-23.816 10ZM274.481 564.76s-20.147 6.927-18.797 31.311c1.691 30.489 55.006 44.116 63.186-4.178" stroke="#000" stroke-width="5" stroke-miterlimit="10"/><path d="M283.594 617.578s133.556 12.626 158.023 9.987c24.468-2.638 107.714-26.948 107.714-26.948 15.727-3.421 28.678.078 46.494-8.891 17.82-8.973 15.668-11.064 13.387-13.023-2.288-1.959-47.487-7.033-60.964 3.972-4.441 3.623-5.328 3.627-8.126 4.726l-103.45 12.623-149.426-30.27" fill="#fff"/><path d="M283.594 617.578s133.556 12.626 158.023 9.987c24.468-2.638 107.714-26.948 107.714-26.948 15.727-3.421 28.678.078 46.494-8.891 17.82-8.973 15.668-11.064 13.387-13.023-2.288-1.959-47.487-7.033-60.964 3.972-4.441 3.623-5.328 3.627-8.126 4.726l-103.45 12.623-149.426-30.27" stroke="#000" stroke-width="5" stroke-miterlimit="10"/><path d="M283.594 617.578s133.556 12.626 158.023 9.987c24.468-2.638 107.714-26.948 107.714-26.948 15.727-3.421 28.678.078 46.494-8.891 17.82-8.973 15.668-11.064 13.387-13.023-2.288-1.959-47.487-7.033-60.964 3.972-4.441 3.623-5.328 3.627-8.126 4.726l-103.45 12.623-149.426-30.27" stroke="#000" stroke-width="5" stroke-miterlimit="10"/><path d="M208.234 487.965c-10.55-12.56-43.059-36.54-63.073 3.884-12.705 25.66-35.013 61.928-61.06 64.789-26.045 2.856 12.584 50.558 45.995 41.347 33.41-9.211 56.492-39.991 55.463-69.836-1.027-29.847 22.675-40.184 22.675-40.184Z" fill="#100200" stroke="#000" stroke-width="5" stroke-miterlimit="10"/><path d="M227.564 529.894c-6.88-5.783-6.074-14.303-10.897-22.931-7.661-13.705 4.698-34.631 21.456-39.815 22.125-6.843 52.037 70.196 39.988 76.213-7.138 3.565-23.023 2.349-37.472-6.316-4.645-2.787-13.075-7.151-13.075-7.151Z" fill="#fff" stroke="#000" stroke-width="5" stroke-miterlimit="10"/><path d="M227.564 529.894c-6.88-5.783-6.074-14.303-10.897-22.931-7.661-13.705 4.698-34.631 21.456-39.815 22.125-6.843 52.037 70.196 39.988 76.213-7.138 3.565-23.023 2.349-37.472-6.316-4.645-2.787-13.075-7.151-13.075-7.151Z" stroke="#000" stroke-width="5" stroke-miterlimit="10"/><path d="M250.554 472.802c4.776 13.691 3.935 41.997-14.773 43.886-21.032 2.123-8.952 10.679-6.105 13.732 2.848 3.052 14.702 6.409 13.173 8.146-1.529 1.738-31.619 1.781-41.507-16.847-9.891-18.624-8.914-30.605-.996-40.421 7.913-9.816 28.624-18.708 41.083-16.217 12.46 2.49 9.125 7.721 9.125 7.721Z" fill="#100200" stroke="#000" stroke-width="5" stroke-miterlimit="10"/><path d="M233.396 590.883c11.014-1.159 15.86-4.994 19.437-11.55 3.579-6.553 10.224-16.125 17.033-16.88M659.753 517.122l22.633 23.524" stroke="#000" stroke-width="5" stroke-miterlimit="10"/></g><defs><clipPath id="a"><path fill="#fff" d="M0 0h800v800H0z"/></clipPath></defs></svg>