<svg width="800" height="800" fill="none" xmlns="http://www.w3.org/2000/svg"><path d="M409.474 791.028s-48.107 4.544-67.475-2.499C314.51 778.533 214.547 651.08 217.046 628.59c2.499-22.491 19.992-27.49 19.992-27.49l109.959-64.975s79.97-67.475 92.465-62.477c12.496 4.998-24.99 27.49-22.491 37.486 2.499 9.997-9.996 19.993-14.994 19.993-4.999 0-17.494 2.499-24.99 12.495-7.498 9.997-57.479 72.474-97.464 84.969 0 0 49.981 42.483 59.977 52.479 0 0 42.484-7.497 74.972 32.488 32.488 39.984-4.998 77.47-4.998 77.47Z" fill="#fff" stroke="#000" stroke-width="5" stroke-miterlimit="10"/><path d="M409.474 791.028s-48.107 4.544-67.475-2.499C314.51 778.533 214.547 651.08 217.046 628.59c2.499-22.491 19.992-27.49 19.992-27.49l109.959-64.975s79.97-67.475 92.465-62.477c12.496 4.998-24.99 27.49-22.491 37.486 2.499 9.997-9.996 19.993-14.994 19.993-4.999 0-17.494 2.499-24.99 12.495-7.498 9.997-57.479 72.474-97.464 84.969 0 0 49.981 42.483 59.977 52.479 0 0 42.484-7.497 74.972 32.488 32.488 39.984-4.998 77.47-4.998 77.47Z" stroke="#000" stroke-width="5" stroke-miterlimit="10"/><path d="M535.286 624.786c-7.512-3.184-9.228-11.475-15.786-18.012-10.411-10.39-5.749-34.175 7.12-44.578 16.99-13.736 64.283 48.987 55.678 58.627-5.102 5.709-19.019 9.794-33.821 6.392-4.756-1.093-13.191-2.429-13.191-2.429Z" fill="#fff" stroke="#000" stroke-width="5" stroke-miterlimit="10"/><path d="M535.286 624.786c-7.512-3.184-9.228-11.475-15.786-18.012-10.411-10.39-5.749-34.175 7.12-44.578 16.99-13.736 64.283 48.987 55.678 58.627-5.102 5.709-19.019 9.794-33.821 6.392-4.756-1.093-13.191-2.429-13.191-2.429Z" stroke="#000" stroke-width="5" stroke-miterlimit="10"/><path d="M535.965 563.931c8.603 8.783 6.378 27.756.063 31.868-6.311 4.117-10.201 7.729-9.137 10.233 1.062 2.506 4.099 5.366 5.867 4.044 1.769-1.32 4.5-5.675 7.421-2.492 2.919 3.185 5.195 16.39.939 24.959-4.259 8.565-17.178 11.246-28.742 3.609-11.558-7.627-15.39-30.269-12.188-47.503 1.546-8.31 5.765-16.105 10.96-20.903 8.573-7.913 16.375-12.435 24.817-3.815Z" fill="#100200" stroke="#000" stroke-width="5" stroke-miterlimit="10"/><path d="M507.208 606.403c-1.434 8.427-.81 18.055-10.435 25.376-9.627 7.318-16.436 1.602-21.642 7.771-5.205 6.167-9.815 29.047-20.095 35.369-10.283 6.323-13.064-3.204-24.452 3.521-9.745 5.749.046 25.335-22.662 35.546-10.891 4.896-44.769-69.298-30.167-76.027 14.603-6.727 25.288 2.292 33.002-2.565 7.717-4.852 5.706-18.466 16.445-24.264 15.057-8.129 24.089 8.427 35.297 2.262 9.218-5.068 7.963-12.539 18.99-18.14 11.027-5.606 25.719 11.151 25.719 11.151Z" fill="#100200" stroke="#000" stroke-width="5" stroke-miterlimit="10"/><path d="M538.774 612.884c-1.418 8.808-5.504 17.025-11.793 23.35-4.583 4.61-10.236 9.079-16.298 11.097-14.994 4.998-39.985 42.483-44.983 49.98-4.998 7.497-32.487 24.991-49.98 17.494 0 0 16.244 36.236-8.748 76.221l74.794-1.186a20.905 20.905 0 0 0 7.841-1.663c14.155-6.004 62.178-28.222 68.559-55.878 7.496-32.488-4.999-49.981 9.995-89.966 14.995-39.984 17.494-97.463 14.995-104.96-2.499-7.498-89.967-54.979-89.967-54.979S465.7 464.9 453.205 469.898c-12.496 4.998-19.993 7.497-9.996 14.995 9.996 7.497 44.983 14.994 44.983 14.994l60.749 46.728a8.088 8.088 0 0 1 2.914 8.396c-3.051 12.036-10.558 42.225-13.081 57.873Z" fill="#fff" stroke="#000" stroke-width="5" stroke-miterlimit="10"/><path d="M538.774 612.884c-1.418 8.808-5.504 17.025-11.793 23.35-4.583 4.61-10.236 9.079-16.298 11.097-14.994 4.998-39.985 42.483-44.983 49.98-4.998 7.497-32.487 24.991-49.98 17.494 0 0 16.244 36.236-8.748 76.221l74.794-1.186a20.905 20.905 0 0 0 7.841-1.663c14.155-6.004 62.178-28.222 68.559-55.878 7.496-32.488-4.999-49.981 9.995-89.966 14.995-39.984 17.494-97.463 14.995-104.96-2.499-7.498-89.967-54.979-89.967-54.979S465.7 464.9 453.205 469.898c-12.496 4.998-19.993 7.497-9.996 14.995 9.996 7.497 44.983 14.994 44.983 14.994l60.749 46.728a8.088 8.088 0 0 1 2.914 8.396c-3.051 12.036-10.558 42.225-13.081 57.873Z" stroke="#000" stroke-width="5" stroke-miterlimit="10"/><path d="M349.655 533.9s.307 18.582 18.816 20.398Z" fill="#fff"/><path d="M349.655 533.9s.307 18.582 18.816 20.398" stroke="#000" stroke-width="5" stroke-miterlimit="10"/><path d="M349.655 533.9s.307 18.582 18.816 20.398" stroke="#000" stroke-width="5" stroke-miterlimit="10"/><path d="M499.106 508.283s13.057-2.729 11.692-16.183Z" fill="#fff"/><path d="M499.106 508.283s13.057-2.729 11.692-16.183" stroke="#000" stroke-width="5" stroke-miterlimit="10"/><path d="M499.106 508.283s13.057-2.729 11.692-16.183" stroke="#000" stroke-width="5" stroke-miterlimit="10"/></svg>