<svg width="800" height="800" fill="none" xmlns="http://www.w3.org/2000/svg"><g clip-path="url(#a)"><g clip-path="url(#b)"><path d="M634.199 558.319c.636 49.903 21.033 117.195 28.566 172.881 2.227 16.47-4.114 20.238-.118 31.468 2.424 6.816 8.906 11.318 16.139 11.291 17.203-.06 62.503.994 91.28.302 5.218-.126 14.035-8.114 9.154-9.95-28.259-10.626-43.492-14.115-54.636-16.99-16.344-4.214-29.864-21.546-30.015-38.41-.541-59.973 2.65-144.313-19.483-191.743-3.315-7.102-10.543-11.454-18.383-11.153-13.304.506-26.547 2.38-39.512 5.443-31.368 7.412-60.595 21.608-88.123 38.092-11.964 7.164-23.642 14.784-35.349 22.36-8.455 5.469-16.522 12.024-25.674 16.274-8.439 3.922-17.478 6.554-25.521 11.303-25.394 14.986-52.939 25.825-81.866 31.88-24.963 5.224-51.271 4.555-75.583 11.972-28.866 8.802-37.937 39.93-56.82 60.374-11.616 12.575-27.174 22.547-43.467 28.991-2.332.923-4.515 2.249-6.234 4.076-6.314 6.701-13.995 4.502-19.527 13.725-2.826-9.403-1.74.536-.871 7.253.49 3.816-2.93 1.099-4.711 4.508-.943 1.806-.898-.698 5.025-1.473 41.17-5.389 41.17 11.489 93.358 19.711 22.377 3.948 49.644-27.991 70.995-33.221 2.854-.681 5.789-1.563 8.871-2.667 33.343-11.768 70.588-27.534 105.307-43.534 3.747-1.723 14.431-6.021 23.625-9.09a22.561 22.561 0 0 1 1.86-.526c14.182-3.291 28.708-5.217 42.508-10.084 17.173-6.057 29.758-16.422 41.32-30.211 10.659-12.717 20.702-26.437 34.99-35.377 18.017-11.274 36.743-21.477 53.912-34.06" fill="#fff"/><path d="M634.199 558.319c.636 49.903 21.033 117.195 28.566 172.881 2.227 16.47-4.114 20.238-.118 31.468 2.424 6.816 8.906 11.318 16.139 11.291 17.203-.06 62.503.994 91.28.302 5.218-.126 14.035-8.114 9.154-9.95-28.259-10.626-43.492-14.115-54.636-16.99-16.344-4.214-29.864-21.546-30.015-38.41-.541-59.973 2.65-144.313-19.483-191.743-3.315-7.102-10.543-11.454-18.383-11.153-13.304.506-26.547 2.38-39.512 5.443-31.368 7.412-60.595 21.608-88.123 38.092-11.964 7.164-23.642 14.784-35.349 22.36-8.455 5.469-16.522 12.024-25.674 16.274-8.439 3.922-17.478 6.554-25.521 11.303-25.394 14.986-52.939 25.825-81.866 31.88-24.963 5.224-51.271 4.555-75.583 11.972-28.866 8.802-37.937 39.93-56.82 60.374-11.616 12.575-27.174 22.547-43.467 28.991-2.332.923-4.515 2.249-6.234 4.076-6.314 6.701-13.995 4.502-19.527 13.725-2.826-9.403-1.74.536-.871 7.253.49 3.816-2.93 1.099-4.711 4.508-.943 1.806-.898-.698 5.025-1.473 41.17-5.389 41.17 11.489 93.358 19.711 22.377 3.948 49.644-27.991 70.995-33.221 2.854-.681 5.789-1.563 8.871-2.667 33.343-11.768 70.588-27.534 105.307-43.534 3.747-1.723 14.431-6.021 23.625-9.09a22.561 22.561 0 0 1 1.86-.526c14.182-3.291 28.708-5.217 42.508-10.084 17.173-6.057 29.758-16.422 41.32-30.211 10.659-12.717 20.702-26.437 34.99-35.377 18.017-11.274 36.743-21.477 53.912-34.06" stroke="#000" stroke-width="5" stroke-miterlimit="10"/><path d="M634.199 558.319c.636 49.903 21.033 117.195 28.566 172.881 2.227 16.47-4.114 20.238-.118 31.468 2.424 6.816 8.906 11.318 16.139 11.291 17.203-.06 62.503.994 91.28.302 5.218-.126 14.035-8.114 9.154-9.95-28.259-10.626-43.492-14.115-54.636-16.99-16.344-4.214-29.864-21.546-30.015-38.41-.541-59.973 2.65-144.313-19.483-191.743-3.315-7.102-10.543-11.454-18.383-11.153-13.304.506-26.547 2.38-39.512 5.443-31.368 7.412-60.595 21.608-88.123 38.092-11.964 7.164-23.642 14.784-35.349 22.36-8.455 5.469-16.522 12.024-25.674 16.274-8.439 3.922-17.478 6.554-25.521 11.303-25.394 14.986-52.939 25.825-81.866 31.88-24.963 5.224-51.271 4.555-75.583 11.972-28.866 8.802-37.937 39.93-56.82 60.374-11.616 12.575-27.174 22.547-43.467 28.991-2.332.923-4.515 2.249-6.234 4.076-6.314 6.701-13.995 4.502-19.527 13.725-2.826-9.403-1.74.536-.871 7.253.49 3.816-2.93 1.099-4.711 4.508-.943 1.806-.898-.698 5.025-1.473 41.17-5.389 41.17 11.489 93.358 19.711 22.377 3.948 49.644-27.991 70.995-33.221 2.854-.681 5.789-1.563 8.871-2.667 33.343-11.768 70.588-27.534 105.307-43.534 3.747-1.723 14.431-6.021 23.625-9.09a22.561 22.561 0 0 1 1.86-.526c14.182-3.291 28.708-5.217 42.508-10.084 17.173-6.057 29.758-16.422 41.32-30.211 10.659-12.717 20.702-26.437 34.99-35.377 18.017-11.274 36.743-21.477 53.912-34.06" stroke="#000" stroke-width="5" stroke-miterlimit="10"/><path d="M436.518 602.933c26.057 23.422 21.654 62.101 20.144 90.43Z" fill="#fff"/><path d="M436.518 602.933c26.057 23.422 21.654 62.101 20.144 90.43" stroke="#000" stroke-width="5" stroke-miterlimit="10"/><path d="M436.518 602.933c26.057 23.422 21.654 62.101 20.144 90.43" stroke="#000" stroke-width="5" stroke-miterlimit="10"/><path d="M655.845 690.89s28.313-.948 38.637-9.645Z" fill="#fff"/><path d="M655.845 690.89s28.313-.948 38.637-9.645" stroke="#000" stroke-width="5" stroke-miterlimit="10"/><path d="M655.845 690.89s28.313-.948 38.637-9.645" stroke="#000" stroke-width="5" stroke-miterlimit="10"/><path d="M223.718 757.591c16.03-30.668 63.645-44.031 102.465-22.933 22.924 11.756 64.275 5.687 111.528 9.493 24.426 1.969 48.269 4.555 72.475 8.321 30.143 4.689 34.918-4.299 56.53-4.102 29.023.176 56.249 13.657 50.817 18.959-6.797 6.631-25.76 10.247-35.612 10.005-8.117-.198-41.172-3.983-48.308-3.764l-86.533 2.945s-164.126 4.511-212.14 3.959c-11.163-.13-14.516-12.805-11.478-22.216l.256-.667Z" fill="#fff" stroke="#000" stroke-width="5" stroke-miterlimit="10"/><path d="M223.718 757.591c16.03-30.668 63.645-44.031 102.465-22.933 22.924 11.756 64.275 5.687 111.528 9.493 24.426 1.969 48.269 4.555 72.475 8.321 30.143 4.689 34.918-4.299 56.53-4.102 29.023.176 56.249 13.657 50.817 18.959-6.797 6.631-25.76 10.247-35.612 10.005-8.117-.198-41.172-3.983-48.308-3.764l-86.533 2.945s-164.126 4.511-212.14 3.959c-11.163-.13-14.516-12.805-11.478-22.216l.256-.667ZM6 683.783v-.029" stroke="#000" stroke-width="5" stroke-miterlimit="10"/><path d="M174.987 760.674c-8.278 5.832-16.063 4.874-26.851 7.648-17.131 4.406-36.376-15.06-37.204-34.8-1.092-26.066 91.431-36.518 94.522-21.665 1.63 7.826-4.374 20.506-15.684 32.103-3.575 3.668-7.072 7.417-10.34 11.362l-4.443 5.352Z" fill="#fff" stroke="#000" stroke-width="5" stroke-miterlimit="10"/><path d="M174.987 760.674c-8.278 5.832-16.063 4.874-26.851 7.648-17.131 4.406-36.376-15.06-37.204-34.8-1.092-26.066 91.431-36.518 94.522-21.665 1.63 7.826-4.374 20.506-15.684 32.103-3.575 3.668-7.072 7.417-10.34 11.362l-4.443 5.352Z" stroke="#000" stroke-width="5" stroke-miterlimit="10"/><path d="M122.182 717.682c14.569-1.021 28.201 15.655 26.162 24.562-2.037 8.91-2.412 15.227.55 16.204 2.96.969 7.905.418 8.342-2.203.434-2.627-.794-8.47 4.318-8.662 5.108-.193 17.878 7.945 21.251 18.428 3.365 10.482-5.512 24.279-21.671 28.878-16.158 4.596-37.99-9.418-49.361-25.635-5.485-7.825-8.253-17.676-7.73-26.099.863-13.895 3.841-24.469 18.139-25.473Z" fill="#000" stroke="#000" stroke-width="5" stroke-miterlimit="10"/><path d="M241.21 686.638s13.908 2.648 8.782 18.207c-3.037 9.216-43.723 32.626-33.885 67.01" stroke="#000" stroke-width="5" stroke-miterlimit="10"/><path d="M21.724 771.133c-.42 10.719 3.042 23.612 20.882 24.457 13.506.64 34.819-13.54 43.584-13.78 8.76-.244 9.89 10.004 23.03 12.688 13.14 2.686 19.861-5.236 27.319-10.459 0 0 .873-25.506-12.09-30.715-12.969-5.204-17.569 1.603-28.697-2.453-13.533-4.932-8.303-25.407-26.37-32.152-12.884-4.807-24.219-2.95-31.259 4.434-11.736 12.313-15.65 28.808-16.399 47.98Z" fill="#000" stroke="#000" stroke-width="5" stroke-miterlimit="10"/></g></g><defs><clipPath id="a"><path fill="#fff" d="M0 0h800v800H0z"/></clipPath><clipPath id="b"><path fill="#fff" transform="translate(6 276)" d="M0 0h788v886H0z"/></clipPath></defs></svg>