<svg width="800" height="800" fill="none" xmlns="http://www.w3.org/2000/svg"><path d="M456.174 535.214c-5.376-1.697-11.626-3.042-18.442-4.127 0 0-32.152-5.582-30.595-35.226.283-5.661 0-7.696 3.207-15.219M387.389 760.419s-5.167 10.958-2.887 20.692M346.273 724.68c-1.42-14.298-3.594-39.005-6.266-50.733 0 0-1.29-4.062-2.241-8.401-3.148-13.991-6.578-49.475-5.269-68.463M408.741 761.02s5.167 10.953 2.887 20.691" stroke="#000" stroke-width="5" stroke-miterlimit="10"/><path d="M607.253 741.8c-4.716-11.792-33.017-18.866-58.959-21.224-25.942-2.359-66.034 0-80.185-9.434-14.151-9.432-16.509-42.451-16.509-42.451l-51.884-9.433-51.884 9.432s-2.358 33.018-16.508 42.451c-14.151 9.433-54.243 7.075-80.185 9.433-25.942 2.359-54.243 9.433-58.96 21.225-4.716 11.792 4.717 25.942 28.301 33.018 23.583 7.075 99.052 11.793 117.919 11.793 35.376 0 61.317-7.075 61.317-7.075s25.942 7.075 61.319 7.075c18.866 0 94.335-4.717 117.919-11.793 23.583-7.073 33.016-21.224 28.299-33.017Z" fill="#fff" stroke="#000" stroke-width="5" stroke-miterlimit="10"/><path d="M607.253 741.8c-4.716-11.792-33.017-18.866-58.959-21.224-25.942-2.359-66.034 0-80.185-9.434-14.151-9.432-16.509-42.451-16.509-42.451l-51.884-9.433-51.884 9.432s-2.358 33.018-16.508 42.451c-14.151 9.433-54.243 7.075-80.185 9.433-25.942 2.359-54.243 9.433-58.96 21.225-4.716 11.792 4.717 25.942 28.301 33.018 23.583 7.075 99.052 11.793 117.919 11.793 35.376 0 61.317-7.075 61.317-7.075s25.942 7.075 61.319 7.075c18.866 0 94.335-4.717 117.919-11.793 23.583-7.073 33.016-21.224 28.299-33.017Z" stroke="#000" stroke-width="5" stroke-miterlimit="10"/><path d="M543.577 734.727c-42.45-2.358-66.034 11.792-84.901 18.866-18.867 7.076-24.212 9.186-35.375 4.717-23.584-9.433-25.943 0-23.584 9.433 2.358 9.433 11.595 14.151 25.941 14.151h35.377c28.3 0 44.808 2.358 66.034 0" fill="#fff"/><path d="M543.577 734.727c-42.45-2.358-66.034 11.792-84.901 18.866-18.867 7.076-24.212 9.186-35.375 4.717-23.584-9.433-25.943 0-23.584 9.433 2.358 9.433 11.595 14.151 25.941 14.151h35.377c28.3 0 44.808 2.358 66.034 0" stroke="#000" stroke-width="5" stroke-miterlimit="10"/><path d="M543.577 734.727c-42.45-2.358-66.034 11.792-84.901 18.866-18.867 7.076-24.212 9.186-35.375 4.717-23.584-9.433-25.943 0-23.584 9.433 2.358 9.433 11.595 14.151 25.941 14.151h35.377c28.3 0 44.808 2.358 66.034 0" stroke="#000" stroke-width="5" stroke-miterlimit="10"/><path d="M255.595 734.727c42.452-2.358 66.035 11.792 84.902 18.866 18.867 7.076 25.141 11.028 35.376 4.717 19.127-11.792 25.942 0 23.583 9.433-2.357 9.433-11.596 14.151-25.942 14.151h-35.375c-28.301 0-44.809 2.358-66.035 0" fill="#fff"/><path d="M255.595 734.727c42.452-2.358 66.035 11.792 84.902 18.866 18.867 7.076 25.141 11.028 35.376 4.717 19.127-11.792 25.942 0 23.583 9.433-2.357 9.433-11.596 14.151-25.942 14.151h-35.375c-28.301 0-44.809 2.358-66.035 0" stroke="#000" stroke-width="5" stroke-miterlimit="10"/><path d="M255.595 734.727c42.452-2.358 66.035 11.792 84.902 18.866 18.867 7.076 25.141 11.028 35.376 4.717 19.127-11.792 25.942 0 23.583 9.433-2.357 9.433-11.596 14.151-25.942 14.151h-35.375c-28.301 0-44.809 2.358-66.035 0" stroke="#000" stroke-width="5" stroke-miterlimit="10"/><path d="M449.092 569.157c-8.707-25.394-4.379-47.297-4.379-47.297s-10.035-2.659-21.646-11.728c-11.607-9.07-8.709-39.665-8.709-39.665s-.602.122-14.749.122c-14.148 0-14.892-.122-14.892-.122s3.04 30.595-8.568 39.665c-11.611 9.068-21.643 11.728-21.643 11.728s4.327 21.903-4.379 47.297c0 0 8.127 53.797-2.757 99.505 0 0 22.855 9.069 52.24 9.069s52.238-9.069 52.238-9.069c-10.882-45.71-2.756-99.505-2.756-99.505Z" fill="#fff" stroke="#000" stroke-width="5" stroke-miterlimit="10"/><path d="M449.092 569.157c-8.707-25.394-4.379-47.297-4.379-47.297s-10.035-2.659-21.646-11.728c-11.607-9.07-8.709-39.665-8.709-39.665s-.602.122-14.749.122c-14.148 0-14.892-.122-14.892-.122s3.04 30.595-8.568 39.665c-11.611 9.068-21.643 11.728-21.643 11.728s4.327 21.903-4.379 47.297c0 0 8.127 53.797-2.757 99.505 0 0 22.855 9.069 52.24 9.069s52.238-9.069 52.238-9.069c-10.882-45.71-2.756-99.505-2.756-99.505Z" stroke="#000" stroke-width="5" stroke-miterlimit="10"/><path d="M317.486 664.072c2.743 19.038 23.433 83.294 23.433 83.294 3.04 12.183.849 22.418 8.077 36.048 7.229 13.63 8.717 11.879 10.099 10.026 1.382-1.851 3.72-37.349-4.883-47.517-2.83-3.349-2.865-4.045-3.769-6.195l-12.654-80.44 17.343-101.924c4.491-23.1 4.491-37.25 4.491-37.25-28.3 7.074-32.015 40.295-37.734 66.033-4.716 21.227-4.403 77.925-4.403 77.925Z" fill="#fff" stroke="#000" stroke-width="5" stroke-miterlimit="10"/><path d="M317.486 664.072c2.743 19.038 23.433 83.294 23.433 83.294 3.04 12.183.849 22.418 8.077 36.048 7.229 13.63 8.717 11.879 10.099 10.026 1.382-1.851 3.72-37.349-4.883-47.517-2.83-3.349-2.865-4.045-3.769-6.195l-12.654-80.44 17.343-101.924c4.491-23.1 4.491-37.25 4.491-37.25-28.3 7.074-32.015 40.295-37.734 66.033-4.716 21.227-4.403 77.925-4.403 77.925Z" stroke="#000" stroke-width="5" stroke-miterlimit="10"/><path d="M483.094 664.072c-2.742 19.038-23.432 83.294-23.432 83.294-3.04 12.183-.85 22.418-8.078 36.048-7.228 13.63-8.718 11.879-10.101 10.026-1.382-1.851-3.716-37.349 4.884-47.517 2.833-3.349 2.866-4.045 3.768-6.195l12.656-80.44-17.344-101.924c-4.489-23.1-4.489-37.25-4.489-37.25 28.299 7.074 32.013 40.295 37.734 66.033 4.716 21.227 4.402 77.925 4.402 77.925Z" fill="#fff" stroke="#000" stroke-width="5" stroke-miterlimit="10"/><path d="M483.094 664.072c-2.742 19.038-23.432 83.294-23.432 83.294-3.04 12.183-.85 22.418-8.078 36.048-7.228 13.63-8.718 11.879-10.101 10.026-1.382-1.851-3.716-37.349 4.884-47.517 2.833-3.349 2.866-4.045 3.768-6.195l12.656-80.44-17.344-101.924c-4.489-23.1-4.489-37.25-4.489-37.25 28.299 7.074 32.013 40.295 37.734 66.033 4.716 21.227 4.402 77.925 4.402 77.925Z" stroke="#000" stroke-width="5" stroke-miterlimit="10"/><path d="M380.996 404.773c-3.103-16.37-19.985-53.773-57.812-27.925-24.009 16.407-61.804 37.437-86.299 27.018-24.498-10.422-13.986 51.033 20.194 59.49 34.176 8.455 69.924-7.325 83.853-34.271 13.926-26.944 40.064-24.312 40.064-24.312Z" fill="#000" stroke="#000" stroke-width="5" stroke-miterlimit="10"/><path d="M384.147 461.818c-4.848-7.735-1.416-15.72-3.388-25.564-3.136-15.636 15.332-32.012 33.154-31.796 23.527.285 28.44 84.076 14.911 86.137-8.014 1.22-22.992-4.907-34.262-17.789-3.625-4.143-10.415-10.988-10.415-10.988Z" fill="#fff" stroke="#000" stroke-width="5" stroke-miterlimit="10"/><path d="M384.147 461.818c-4.848-7.735-1.416-15.72-3.388-25.564-3.136-15.636 15.332-32.012 33.154-31.796 23.527.285 28.44 84.076 14.911 86.137-8.014 1.22-22.992-4.907-34.262-17.789-3.625-4.143-10.415-10.988-10.415-10.988Z" stroke="#000" stroke-width="5" stroke-miterlimit="10"/><path d="M424.171 413.799c.353 14.723-9.286 41.822-27.963 37.814-20.998-4.505-11.983 7.532-10.181 11.37 1.8 3.84 12.217 10.78 10.196 11.982-2.023 1.204-31.127-8.138-34.883-29.224-3.758-21.087.921-32.363 11.634-39.385 10.712-7.019 33.509-9.157 44.779-2.865 11.274 6.292 6.418 10.308 6.418 10.308Z" fill="#000" stroke="#000" stroke-width="5" stroke-miterlimit="10"/><path d="M366.24 516.727c9.893 12.822 21.685 15.181 33.476 15.181 11.792 0 26.429-4.419 33.262-15.181M463.1 751.852c-2.032 13.636-.257 25.262 2.392 30.06M336.072 751.852c2.359 11.277-2.358 30.143-2.358 30.143" stroke="#000" stroke-width="5" stroke-miterlimit="10"/></svg>