<svg width="800" height="800" fill="none" xmlns="http://www.w3.org/2000/svg"><path d="m505.07 525.084 23.047-30.728s-15.365-25.607-43.532-46.093c-28.168-20.485-56.336-40.971-81.943-48.654-25.607-7.682-35.85-2.56-53.775 10.243-17.925 12.804-58.896 25.608-74.261 30.729-15.364 5.121 5.122 33.289 5.122 33.289s15.364-12.803 30.728-10.243c15.364 2.56 38.411 25.607 53.776 30.729 15.364 5.121 23.045 5.121 48.654 7.682 25.607 2.56 43.531 15.364 48.652 25.607l43.532-2.561Z" fill="#fff" stroke="#000" stroke-width="5" stroke-miterlimit="10"/><path d="m505.07 525.084 23.047-30.728s-15.365-25.607-43.532-46.093c-28.168-20.485-56.336-40.971-81.943-48.654-25.607-7.682-35.85-2.56-53.775 10.243-17.925 12.804-58.896 25.608-74.261 30.729-15.364 5.121 5.122 33.289 5.122 33.289s15.364-12.803 30.728-10.243c15.364 2.56 38.411 25.607 53.776 30.729 15.364 5.121 23.045 5.121 48.654 7.682 25.607 2.56 43.531 15.364 48.652 25.607l43.532-2.561Z" stroke="#000" stroke-width="5" stroke-miterlimit="10"/><path d="M289.435 458.046c4.746 9.043.235 17.661 1.591 28.808 2.163 17.713-19.846 34.4-39.706 32.634-26.223-2.335-24.527-96.227-9.263-97.369 9.047-.673 25.232 7.442 36.7 22.779 3.691 4.931 10.678 13.148 10.678 13.148Z" fill="#fff" stroke="#000" stroke-width="5" stroke-miterlimit="10"/><path d="M289.435 458.046c4.746 9.043.235 17.661 1.591 28.808 2.163 17.713-19.846 34.4-39.706 32.634-26.223-2.335-24.527-96.227-9.263-97.369 9.047-.673 25.232 7.442 36.7 22.779 3.691 4.931 10.678 13.148 10.678 13.148Z" stroke="#000" stroke-width="5" stroke-miterlimit="10"/><path d="M240.676 508.187c.868-16.455 13.94-45.861 34.43-39.789 23.042 6.82 14.016-7.38 12.333-11.813-1.68-4.439-12.706-13.071-10.35-14.239 2.358-1.17 31.821 13.039 34.202 36.885 2.388 23.847-7.01 34.772-19.563 41.687-12.551 6.912-32.742 7.302-44.78-.683-12.031-7.984-6.272-12.048-6.272-12.048Z" fill="#000" stroke="#000" stroke-width="5" stroke-miterlimit="10"/><path d="M489.706 507.16c12.423-8.28 38.411-12.804 38.411-12.804s15.364 33.289 28.168 81.942c12.803 48.654 15.363 84.505 10.242 120.355-5.122 35.85-10.242 74.26-28.167 84.503-17.926 10.243-61.458 10.243-81.943 10.243s-97.307-5.121-112.672-5.121c-15.365 0-64.018 5.121-76.821 5.121-12.804 0-10.243-10.243 5.121-15.364s20.486-2.56 30.729-7.682c10.242-5.121 23.046-10.243 30.728-10.243 7.683 0 15.365 7.682 25.607 7.682 10.244 0 74.261-15.364 94.747-20.486 20.486-5.121 56.335-2.56 56.335-2.56s-5.121-64.018-10.242-89.626c-5.122-25.607-17.925-33.289-28.168-58.896-10.243-25.607-2.56-33.29-5.121-48.654-2.56-15.364-2.56-12.803-5.122-17.925 0 0 12.804-10.243 28.168-20.485Z" fill="#fff" stroke="#000" stroke-width="5" stroke-miterlimit="10"/><path d="M489.706 507.16c12.423-8.28 38.411-12.804 38.411-12.804s15.364 33.289 28.168 81.942c12.803 48.654 15.363 84.505 10.242 120.355-5.122 35.85-10.242 74.26-28.167 84.503-17.926 10.243-61.458 10.243-81.943 10.243s-97.307-5.121-112.672-5.121c-15.365 0-64.018 5.121-76.821 5.121-12.804 0-10.243-10.243 5.121-15.364s20.486-2.56 30.729-7.682c10.242-5.121 23.046-10.243 30.728-10.243 7.683 0 15.365 7.682 25.607 7.682 10.244 0 74.261-15.364 94.747-20.486 20.486-5.121 56.335-2.56 56.335-2.56s-5.121-64.018-10.242-89.626c-5.122-25.607-17.925-33.289-28.168-58.896-10.243-25.607-2.56-33.29-5.121-48.654-2.56-15.364-2.56-12.803-5.122-17.925 0 0 12.804-10.243 28.168-20.485Z" stroke="#000" stroke-width="5" stroke-miterlimit="10"/><path d="M381.106 455.645s11.573 135.195 8.78 159.647c-2.796 24.452-28.746 107.766-28.746 107.766-3.646 15.731.126 28.63-9.467 46.495s-13.504 6.189-15.61 3.92c-2.106-2.26-5.944-37.805 5.837-51.354 3.881-4.462 3.881-5.346 5.057-8.15l13.386-103.393-31.126-128.739c-2.035-7.952-2.718-13.806-3.396-20.77-.573-5.887-.12-11.478.345-17.385" fill="#fff"/><path d="M381.106 455.645s11.573 135.195 8.78 159.647c-2.796 24.452-28.746 107.766-28.746 107.766-3.646 15.731.126 28.63-9.467 46.495s-13.504 6.189-15.61 3.92c-2.106-2.26-5.944-37.805 5.837-51.354 3.881-4.462 3.881-5.346 5.057-8.15l13.386-103.393-31.126-128.739c-2.035-7.952-2.718-13.806-3.396-20.77-.573-5.887-.12-11.478.345-17.385" stroke="#000" stroke-width="5" stroke-miterlimit="10"/><path d="M381.106 455.645s11.573 135.195 8.78 159.647c-2.796 24.452-28.746 107.766-28.746 107.766-3.646 15.731.126 28.63-9.467 46.495s-13.504 6.189-15.61 3.92c-2.106-2.26-5.944-37.805 5.837-51.354 3.881-4.462 3.881-5.346 5.057-8.15l13.386-103.393-31.126-128.739c-2.035-7.952-2.718-13.806-3.396-20.77-.573-5.887-.12-11.478.345-17.385" stroke="#000" stroke-width="5" stroke-miterlimit="10"/><path d="M317.18 465.748c-1.603-14.924 6.079-27.728 16.322-35.41 10.243-7.682 21.236-11.823 18.3-22.553M347.849 707.09c6.139 2.368 17.605 1.86 17.605 1.86M369.828 764.356c-3.036 4-5.167 18.608-2.822 22.827" stroke="#000" stroke-width="5" stroke-miterlimit="10"/></svg>