<svg width="800" height="800" fill="none" xmlns="http://www.w3.org/2000/svg"><g clip-path="url(#a)"><path d="M539.918 478.169c-24.547-7.321-50.708-5.94-75.583-1.072-45.856 8.97-109.142 29.558-130.457 76.066-10.824 23.612-12.693 50.714-11.93 76.34.669 22.586 5.902 80.67 9.303 98.673.26 1.382-.827 2.638-2.23 2.54-8.805-.642-34.178 2.491-37.43 2.918-13.338 1.755-26.51 4.566-39.536 7.896-32.727 8.36-67.892 28.818-101.253 13.592-8.16-3.724-16.762 1.625-23.843 5.241-25.076 12.799-70.43 2.068-84.496 31.807-.669 1.419.362 3.065 1.928 3.071 21.804.124 73.868 1.18 106.162-5.979.206-.047.404-.063.616-.042 61.676 5.32 170.895 17.702 227.518-7.796a2.215 2.215 0 0 0 1.067-1.03c14.82-29.424 21.542-62.067 25.1-94.602 2.694-24.63 2.664-49.484 5.299-74.084 2.405-22.463 12.578-45.116 35.334-53.159 12.832-4.536 26.248-7.602 38.523-6.355 11.298 1.144 17.079 10.69 26.135 13.997 7.493 2.736 13.965 3.173 20.535 2.077 13.565-2.27 23.352-4.792 36.494-3.214 2.128.256 3.008 2.73 4.465 2.696 16.645-.364 14.144 3.34 24.498-26.526 11.062-31.92-31.573-55.705-56.219-63.055Z" fill="#fff" stroke="#000" stroke-width="5" stroke-miterlimit="10"/><path d="M539.918 478.169c-24.547-7.321-50.708-5.94-75.583-1.072-45.856 8.97-109.142 29.558-130.457 76.066-10.824 23.612-12.693 50.714-11.93 76.34.669 22.586 5.902 80.67 9.303 98.673.26 1.382-.827 2.638-2.23 2.54-8.805-.642-34.178 2.491-37.43 2.918-13.338 1.755-26.51 4.566-39.536 7.896-32.727 8.36-67.892 28.818-101.253 13.592-8.16-3.724-16.762 1.625-23.843 5.241-25.076 12.799-70.43 2.068-84.496 31.807-.669 1.419.362 3.065 1.928 3.071 21.804.124 73.868 1.18 106.162-5.979.206-.047.404-.063.616-.042 61.676 5.32 170.895 17.702 227.518-7.796a2.215 2.215 0 0 0 1.067-1.03c14.82-29.424 21.542-62.067 25.1-94.602 2.694-24.63 2.664-49.484 5.299-74.084 2.405-22.463 12.578-45.116 35.334-53.159 12.832-4.536 26.248-7.602 38.523-6.355 11.298 1.144 17.079 10.69 26.135 13.997 7.493 2.736 13.965 3.173 20.535 2.077 13.565-2.27 23.352-4.792 36.494-3.214 2.128.256 3.008 2.73 4.465 2.696 16.645-.364 14.144 3.34 24.498-26.526 11.062-31.92-31.573-55.705-56.219-63.055Z" stroke="#000" stroke-width="5" stroke-miterlimit="10"/><path d="M629.235 552.061c-22.51 6.308-32.321-22.873-32.321-22.873l-18.958 12.31-.143 27.665s13.936-.754 18.386 6.383" fill="#fff"/><path d="M629.235 552.061c-22.51 6.308-32.321-22.873-32.321-22.873l-18.958 12.31-.143 27.665s13.936-.754 18.386 6.383" stroke="#000" stroke-width="5" stroke-miterlimit="10"/><path d="M629.235 552.061c-22.51 6.308-32.321-22.873-32.321-22.873l-18.958 12.31-.143 27.665s13.936-.754 18.386 6.383M360.687 519.604s21.924 45.524 62.274 55.941M213.913 753.678s-4.35 27.593 0 40.82" stroke="#000" stroke-width="5" stroke-miterlimit="10"/><path d="M634.705 553.151c9.853 2.211 13.457 11.12 22.735 17.227 14.728 9.702 13.221 36.952-.819 50.784-18.538 18.259-88.222-43.071-79.31-55.302 5.279-7.239 21.754-14.243 40.652-13.075 6.076.373 16.742.366 16.742.366Z" fill="#fff" stroke="#000" stroke-width="5" stroke-miterlimit="10"/><path d="M634.705 553.151c9.853 2.211 13.457 11.12 22.735 17.227 14.728 9.702 13.221 36.952-.819 50.784-18.538 18.259-88.222-43.071-79.31-55.302 5.279-7.239 21.754-14.243 40.652-13.075 6.076.373 16.742.366 16.742.366Z" stroke="#000" stroke-width="5" stroke-miterlimit="10"/><path d="M641.294 621.952c-11.847-11.178-25.645-39.832-7.953-51.385 19.883-12.992 3.402-15.276-1.015-16.843-4.419-1.573-17.98 1.213-17.357-1.312.629-2.524 30.627-18.122 50.124-4.669 19.499 13.457 24.72 25.902 21.902 39.781-2.823 13.88-18.886 33.447-32.607 37.407-13.716 3.96-13.094-2.979-13.094-2.979Z" fill="#000" stroke="#000" stroke-width="5" stroke-miterlimit="10"/><path d="M679.316 586.635c5.927-9.555 26.379-27.326 39.141.183 10.481 22.596 17.635 14.351 33.506 27.901 12.757 10.89 4.971 33.607-29.087 38.055-30.998 4.048-28.057-15.02-29.291-35.486-1.231-20.455-14.269-30.653-14.269-30.653Z" fill="#000" stroke="#000" stroke-width="5" stroke-miterlimit="10"/><path d="M541.187 578.531s15.765 71.674 17.01 106.315c1.66 46.089 9.302 81.865 14.407 101.514 1.28 4.937 5.956 5.806 10.559 7.227 3.66 1.134 6.722 1.333 8.793 1.358l68.151.265c1.155.014 1.56-1.531.543-2.074-9.228-4.923-26.561-8.076-33.871-10.798-5.809-2.166-10.554-3.549-16.675-4.552-1.417-.235-4.099-.612-5.527-.684l-.053-.005c-4.559-.246-9.819-3.868-11.655-8.047-2.462-5.623-1.302-9.066-1.223-15.195.102-7.172.193-14.35.288-21.525.195-14.682.392-29.366.586-44.046.054-3.96.104-7.921.158-11.881l-8.096-146.665c-3.524-14.906-15.246-21.224-26.198-19.544-10.953 1.688-39.717 3.585-31.254 37.841 6.666 26.986 14.057 30.496 14.057 30.496Z" fill="#fff" stroke="#000" stroke-width="5" stroke-miterlimit="10"/><path d="M541.187 578.531s15.765 71.674 17.01 106.315c1.66 46.089 9.302 81.865 14.407 101.514 1.28 4.937 5.956 5.806 10.559 7.227 3.66 1.134 6.722 1.333 8.793 1.358l68.151.265c1.155.014 1.56-1.531.543-2.074-9.228-4.923-26.561-8.076-33.871-10.798-5.809-2.166-10.554-3.549-16.675-4.552-1.417-.235-4.099-.612-5.527-.684l-.053-.005c-4.559-.246-9.819-3.868-11.655-8.047-2.462-5.623-1.302-9.066-1.223-15.195.102-7.172.193-14.35.288-21.525.195-14.682.392-29.366.586-44.046.054-3.96.104-7.921.158-11.881l-8.096-146.665c-3.524-14.906-15.246-21.224-26.198-19.544-10.953 1.688-39.717 3.585-31.254 37.841 6.666 26.986 14.057 30.496 14.057 30.496Z" stroke="#000" stroke-width="5" stroke-miterlimit="10"/></g><defs><clipPath id="a"><path fill="#fff" d="M0 0h800v800H0z"/></clipPath></defs></svg>