<svg width="800" height="800" fill="none" xmlns="http://www.w3.org/2000/svg"><g clip-path="url(#a)"><path d="M320.366 478.329c16.631 8.134 33.595 15.789 33.595 15.789s22.862-40.264 31.666-49.81c8.802-9.54 10.399-9.015 19.165-12.921 8.768-3.907 15.005-13.438 15.71-26.971.708-13.534-6.55-53.218-2.42-65.127 4.131-11.909 7.061-21.982 26.246-36.512l-5.157-27.682s-68.355 46.316-80.313 66.024c-11.954 19.706-34.31 69.394-42.563 83.275-8.25 13.88-24.293 36.813-24.293 36.813s18.551 12.326 28.364 17.122Z" fill="#fff" stroke="#000" stroke-width="5" stroke-miterlimit="10"/><path d="M320.366 478.329c16.631 8.134 33.595 15.789 33.595 15.789s22.862-40.264 31.666-49.81c8.802-9.54 10.399-9.015 19.165-12.921 8.768-3.907 15.005-13.438 15.71-26.971.708-13.534-6.55-53.218-2.42-65.127 4.131-11.909 7.061-21.982 26.246-36.512l-5.157-27.682s-68.355 46.316-80.313 66.024c-11.954 19.706-34.31 69.394-42.563 83.275-8.25 13.88-24.293 36.813-24.293 36.813s18.551 12.326 28.364 17.122Z" stroke="#000" stroke-width="5" stroke-miterlimit="10"/><path d="M436.75 281.922c-.674-6.417 2.272-10.452 4.081-17.316 2.86-10.902 20.074-13.225 32.098-9.457 12.017 3.768-9.224 61.782-18.456 58.888-5.467-1.713-15.101-10.488-16.924-22.449-1.05-6.878-.799-9.666-.799-9.666Z" fill="#fff" stroke="#000" stroke-width="5" stroke-miterlimit="10"/><path d="M436.75 281.922c-.674-6.417 2.272-10.452 4.081-17.316 2.86-10.902 20.074-13.225 32.098-9.457 12.017 3.768-9.224 61.782-18.456 58.888-5.467-1.713-15.101-10.488-16.924-22.449-1.05-6.878-.799-9.666-.799-9.666ZM404.572 315.874s3.983 32.89 13.005 32.89" stroke="#000" stroke-width="5" stroke-miterlimit="10"/><path d="M320.366 478.329c8.291 3.941 26.276 13.199 33.596 15.789 0 0-6.118 8.281-4.968 14.293 0 0 30.8 12.956 69.395 25.15 38.596 12.194 80.547 37.004 86.067 46.693 5.518 9.684-5.321 52.685-14.655 74.554-9.333 21.869-33.7 71.851-39.352 83.849-5.65 11.994-7.539 19.139-.754 25.735 6.788 6.592 48.534 14.091 52.899 15.19 4.365 1.099 12.125 2.807 11.675 6.537-.449 3.73-4.813 7.848-47.72 6.642-42.904-1.204-38.371 1.32-45.984-2.595-7.613-3.908-6.614-13.566-2.633-36.885 3.98-23.319 18.537-89.334 27.491-112.783 8.96-23.45 12.697-32.016 12.697-32.016s-65.165-5.48-109.801-19.095c-44.635-13.619-65.297-30.34-76.021-53.865-10.723-23.524-2.252-43.476 19.705-74.317.001 0 13.972 10.28 28.363 17.124Z" fill="#fff" stroke="#000" stroke-width="5" stroke-miterlimit="10"/><path d="M320.366 478.329c8.291 3.941 26.276 13.199 33.596 15.789 0 0-6.118 8.281-4.968 14.293 0 0 30.8 12.956 69.395 25.15 38.596 12.194 80.547 37.004 86.067 46.693 5.518 9.684-5.321 52.685-14.655 74.554-9.333 21.869-33.7 71.851-39.352 83.849-5.65 11.994-7.539 19.139-.754 25.735 6.788 6.592 48.534 14.091 52.899 15.19 4.365 1.099 12.125 2.807 11.675 6.537-.449 3.73-4.813 7.848-47.72 6.642-42.904-1.204-38.371 1.32-45.984-2.595-7.613-3.908-6.614-13.566-2.633-36.885 3.98-23.319 18.537-89.334 27.491-112.783 8.96-23.45 12.697-32.016 12.697-32.016s-65.165-5.48-109.801-19.095c-44.635-13.619-65.297-30.34-76.021-53.865-10.723-23.524-2.252-43.476 19.705-74.317.001 0 13.972 10.28 28.363 17.124Z" stroke="#000" stroke-width="5" stroke-miterlimit="10"/><path d="M423.219 723.251s22.02 6.041 33.282 3.029Z" fill="#fff"/><path d="M423.219 723.251s22.02 6.041 33.282 3.029" stroke="#000" stroke-width="5" stroke-miterlimit="10"/><path d="M423.219 723.251s22.02 6.041 33.282 3.029" stroke="#000" stroke-width="5" stroke-miterlimit="10"/><path d="M437.091 288.197c-.272-8.269 2.027-13.045 5.875-13.103 3.844-.056 9.108 2.373 14.272.957 5.161-1.416 3.896-13.562 7.64-17.412 3.747-3.846 11.197-1.313 11.191 2.733-.005 4.05 3.083.229 3.492-4.252.379-4.106 2.222-24.042-22.975-30.366-20.353-5.105-33.477-2.224-45.515 15.791-12.038 18.018-4.756 32.54-23.442 38.63-23.115 7.527-30.099-14.64-60.464-3.708-11.602 4.179-22.216 25.151-23.079 40.387-.926 16.37 7.564 35.726 14.879 41.906 17.612 14.88 24.99 9.407 24.99 9.407l14.905-28.635s52.109-42.376 64.415-50.156c12.308-7.782 13.816-2.179 13.816-2.179Z" fill="#000" stroke="#000" stroke-width="5" stroke-miterlimit="10"/><path d="M358.86 340.531c-1.821 3.529-7.217 12.129-8.189 15.776-.971 3.646-1.404 20.249 8.802 27.743 10.209 7.495 27.874-.653 33.383-11.943 5.504-11.285 5.009-15.096 7.06-20.096 2.054-5.001 22.661-41.913 35.666-69.416 13.003-27.503 25.29-69.803 28.585-96.526 3.295-26.722 7.138-55.472 8.761-66.404 1.617-10.931 7.667-44.433 2.847-56.43-4.823-11.993-14.509-11.376-17.788 5.092-3.28 16.469-1.153 34.992-3.435 52.151-2.273 17.155-13.007 64.779-20.293 85.427-7.288 20.65-3.844 20.083-28.341 66.199-24.496 46.116-47.058 68.427-47.058 68.427Z" fill="#fff" stroke="#000" stroke-width="5" stroke-miterlimit="10"/><path d="M358.86 340.531c-1.821 3.529-7.217 12.129-8.189 15.776-.971 3.646-1.404 20.249 8.802 27.743 10.209 7.495 27.874-.653 33.383-11.943 5.504-11.285 5.009-15.096 7.06-20.096 2.054-5.001 22.661-41.913 35.666-69.416 13.003-27.503 25.29-69.803 28.585-96.526 3.295-26.722 7.138-55.472 8.761-66.404 1.617-10.931 7.667-44.433 2.847-56.43-4.823-11.993-14.509-11.376-17.788 5.092-3.28 16.469-1.153 34.992-3.435 52.151-2.273 17.155-13.007 64.779-20.293 85.427-7.288 20.65-3.844 20.083-28.341 66.199-24.496 46.116-47.058 68.427-47.058 68.427Z" stroke="#000" stroke-width="5" stroke-miterlimit="10"/></g><defs><clipPath id="a"><path fill="#fff" d="M0 0h800v800H0z"/></clipPath></defs></svg>