<svg width="800" height="800" viewBox="0 0 800 800" fill="none" xmlns="http://www.w3.org/2000/svg">
<g clip-path="url(#clip0_298_12113)">
<path d="M324.22 458.315C342.068 467.044 360.273 475.259 360.273 475.259C360.273 475.259 384.807 432.05 394.255 421.806C403.701 411.568 405.414 412.131 414.821 407.94C424.231 403.747 430.924 393.519 431.681 378.996C432.44 364.472 424.651 321.886 429.084 309.106C433.517 296.326 436.661 285.516 457.249 269.923L451.715 240.216C451.715 240.216 378.36 289.92 365.528 311.069C352.699 332.217 328.708 385.539 319.852 400.435C310.998 415.331 293.782 439.941 293.782 439.941C293.782 439.941 313.69 453.168 324.22 458.315Z" fill="white" stroke="black" stroke-width="5" stroke-miterlimit="10"/>
<path d="M324.22 458.315C342.068 467.044 360.273 475.259 360.273 475.259C360.273 475.259 384.807 432.05 394.255 421.806C403.701 411.568 405.414 412.131 414.821 407.94C424.231 403.747 430.924 393.519 431.681 378.996C432.44 364.472 424.651 321.886 429.084 309.106C433.517 296.326 436.661 285.516 457.249 269.923L451.715 240.216C451.715 240.216 378.36 289.92 365.528 311.069C352.699 332.217 328.708 385.539 319.852 400.435C310.998 415.331 293.782 439.941 293.782 439.941C293.782 439.941 313.69 453.168 324.22 458.315Z" stroke="black" stroke-width="5" stroke-miterlimit="10"/>
<path d="M449.117 247.543C448.394 240.656 451.555 236.326 453.496 228.96C456.566 217.261 475.039 214.768 487.942 218.811C500.838 222.855 478.044 285.112 468.136 282.006C462.269 280.168 451.931 270.751 449.974 257.916C448.848 250.535 449.117 247.543 449.117 247.543Z" fill="white" stroke="black" stroke-width="5" stroke-miterlimit="10"/>
<path d="M449.117 247.543C448.394 240.656 451.555 236.326 453.496 228.96C456.566 217.261 475.039 214.768 487.942 218.811C500.838 222.855 478.044 285.112 468.136 282.006C462.269 280.168 451.931 270.751 449.974 257.916C448.848 250.535 449.117 247.543 449.117 247.543Z" stroke="black" stroke-width="5" stroke-miterlimit="10"/>
<path d="M414.585 283.978C414.585 283.978 418.859 319.274 428.541 319.274" stroke="black" stroke-width="5" stroke-miterlimit="10"/>
<path d="M324.22 458.315C333.118 462.545 352.418 472.48 360.273 475.259C360.273 475.259 353.708 484.146 354.942 490.598C354.942 490.598 387.995 504.501 429.413 517.587C470.832 530.673 515.851 557.298 521.775 567.695C527.697 578.088 516.065 624.234 506.048 647.702C496.032 671.171 469.883 724.809 463.818 737.684C457.754 750.555 455.727 758.223 463.009 765.301C470.293 772.376 515.093 780.423 519.777 781.603C524.461 782.782 532.789 784.615 532.306 788.618C531.824 792.62 527.141 797.04 481.095 795.746C435.053 794.453 439.918 797.162 431.748 792.961C423.578 788.767 424.65 778.403 428.922 753.378C433.193 728.353 448.815 657.51 458.424 632.346C468.04 607.18 472.05 597.988 472.05 597.988C472.05 597.988 402.119 592.107 354.218 577.496C306.318 562.881 284.145 544.937 272.637 519.692C261.129 494.447 270.22 473.036 293.783 439.939C293.784 439.939 308.777 450.971 324.22 458.315Z" fill="white" stroke="black" stroke-width="5" stroke-miterlimit="10"/>
<path d="M324.22 458.315C333.118 462.545 352.418 472.48 360.273 475.259C360.273 475.259 353.708 484.146 354.942 490.598C354.942 490.598 387.995 504.501 429.413 517.587C470.832 530.673 515.851 557.298 521.775 567.695C527.697 578.088 516.065 624.234 506.048 647.702C496.032 671.171 469.883 724.809 463.818 737.684C457.754 750.555 455.727 758.223 463.009 765.301C470.293 772.376 515.093 780.423 519.777 781.603C524.461 782.782 532.789 784.615 532.306 788.618C531.824 792.62 527.141 797.04 481.095 795.746C435.053 794.453 439.918 797.162 431.748 792.961C423.578 788.767 424.65 778.403 428.922 753.378C433.193 728.353 448.815 657.51 458.424 632.346C468.04 607.18 472.05 597.988 472.05 597.988C472.05 597.988 402.119 592.107 354.218 577.496C306.318 562.881 284.145 544.937 272.637 519.692C261.129 494.447 270.22 473.036 293.783 439.939C293.784 439.939 308.777 450.971 324.22 458.315Z" stroke="black" stroke-width="5" stroke-miterlimit="10"/>
<path d="M434.596 721.151C434.596 721.151 458.227 727.634 470.313 724.402Z" fill="white"/>
<path d="M434.596 721.151C434.596 721.151 458.227 727.634 470.313 724.402" stroke="black" stroke-width="5" stroke-miterlimit="10"/>
<path d="M434.596 721.151C434.596 721.151 458.227 727.634 470.313 724.402" stroke="black" stroke-width="5" stroke-miterlimit="10"/>
<path d="M449.483 254.277C449.191 245.403 451.658 240.278 455.787 240.216C459.912 240.155 465.562 242.762 471.103 241.242C476.642 239.723 475.284 226.688 479.302 222.557C483.323 218.43 491.318 221.148 491.312 225.49C491.306 229.836 494.62 225.736 495.059 220.927C495.466 216.521 497.443 195.126 470.403 188.34C448.562 182.861 434.478 185.953 421.559 205.286C408.641 224.622 416.456 240.206 396.403 246.741C371.597 254.819 364.102 231.03 331.516 242.762C319.066 247.247 307.675 269.753 306.749 286.103C305.756 303.67 314.867 324.442 322.717 331.074C341.617 347.042 349.534 341.169 349.534 341.169L365.53 310.44C365.53 310.44 421.45 264.964 434.656 256.615C447.864 248.264 449.483 254.277 449.483 254.277Z" fill="black" stroke="black" stroke-width="5" stroke-miterlimit="10"/>
<path d="M365.53 310.438C363.575 314.226 357.785 323.455 356.742 327.368C355.7 331.281 355.235 349.098 366.187 357.141C377.143 365.184 396.1 356.44 402.012 344.324C407.919 332.213 407.387 328.124 409.589 322.758C411.793 317.391 433.907 277.779 447.863 248.265C461.817 218.75 475.003 173.356 478.539 144.679C482.075 116.002 486.199 85.15 487.941 73.418C489.676 61.687 496.169 25.735 490.996 12.86C485.82 -0.0100098 475.426 0.651986 471.907 18.325C468.387 35.998 470.67 55.876 468.221 74.29C465.781 92.7 454.262 143.807 446.443 165.966C438.622 188.126 442.318 187.518 416.029 237.007C389.742 286.496 365.53 310.438 365.53 310.438Z" fill="white" stroke="black" stroke-width="5" stroke-miterlimit="10"/>
<path d="M365.53 310.438C363.575 314.226 357.785 323.455 356.742 327.368C355.7 331.281 355.235 349.098 366.187 357.141C377.143 365.184 396.1 356.44 402.012 344.324C407.919 332.213 407.387 328.124 409.589 322.758C411.793 317.391 433.907 277.779 447.863 248.265C461.817 218.75 475.003 173.356 478.539 144.679C482.075 116.002 486.199 85.15 487.941 73.418C489.676 61.687 496.169 25.735 490.996 12.86C485.82 -0.0100098 475.426 0.651986 471.907 18.325C468.387 35.998 470.67 55.876 468.221 74.29C465.781 92.7 454.262 143.807 446.443 165.966C438.622 188.126 442.318 187.518 416.029 237.007C389.742 286.496 365.53 310.438 365.53 310.438Z" stroke="black" stroke-width="5" stroke-miterlimit="10"/>
</g>
<defs>
<clipPath id="clip0_298_12113">
<rect width="800" height="800" fill="white"/>
</clipPath>
</defs>
</svg>
