<svg width="800" height="800" fill="none" xmlns="http://www.w3.org/2000/svg"><g clip-path="url(#a)"><path d="m653.607 662.84 37.869 10.667-19.732 21.94c-15.295-3.898-34.165-2.267-48.815 1.125-14.652 3.385-33.249 17.819-44.213 27.774-10.965 9.955-29.72 12.841-38.439 7.602-8.72-5.242-11.339-10.201-30.817-11.317-19.479-1.121-55.307 0-55.307 0-3.078-8.476-1.775-26.151-.951-38.559.784-11.732 4.006-27.269 4.006-27.269 23.496 2.311 66.009 2.548 94.864 2.164 20.055-.266 42.654-10.028 58.542-8.129 7.414.888 22.561 6.768 30.769 10.121a79.993 79.993 0 0 0 12.224 3.881Z" fill="#fff" stroke="#000" stroke-width="5" stroke-miterlimit="10"/><path d="m653.607 662.84 37.869 10.667-19.732 21.94c-15.295-3.898-34.165-2.267-48.815 1.125-14.652 3.385-33.249 17.819-44.213 27.774-10.965 9.955-29.72 12.841-38.439 7.602-8.72-5.242-11.339-10.201-30.817-11.317-19.479-1.121-55.307 0-55.307 0-3.078-8.476-1.775-26.151-.951-38.559.784-11.732 4.006-27.269 4.006-27.269 23.496 2.311 66.009 2.548 94.864 2.164 20.055-.266 42.654-10.028 58.542-8.129 7.414.888 22.561 6.768 30.769 10.121a79.993 79.993 0 0 0 12.224 3.881Z" stroke="#000" stroke-width="5" stroke-miterlimit="10"/><path d="M615.066 649.702s-80.165-8.531-108.012-1.586c-12.107 7.04-4.333 100.822 5.909 137.321 1.539 5.492 6.52 9.297 12.225 9.297h48.583c5.228-1.282 5.627-6.764 1.862-8.016-8.562-2.837-22.252-4.824-39.167-5.766-2.555-.147-5.088-2.314-5.615-4.822-5.478-25.978-4.496-80.46-4.101-95.578a3.886 3.886 0 0 1 4.085-3.775l66.086 2.214" fill="#fff"/><path d="M615.066 649.702s-80.165-8.531-108.012-1.586c-12.107 7.04-4.333 100.822 5.909 137.321 1.539 5.492 6.52 9.297 12.225 9.297h48.583c5.228-1.282 5.627-6.764 1.862-8.016-8.562-2.837-22.252-4.824-39.167-5.766-2.555-.147-5.088-2.314-5.615-4.822-5.478-25.978-4.496-80.46-4.101-95.578a3.886 3.886 0 0 1 4.085-3.775l66.086 2.214" stroke="#000" stroke-width="5" stroke-miterlimit="10"/><path d="M615.066 649.702s-80.165-8.531-108.012-1.586c-12.107 7.04-4.333 100.822 5.909 137.321 1.539 5.492 6.52 9.297 12.225 9.297h48.583c5.228-1.282 5.627-6.764 1.862-8.016-8.562-2.837-22.252-4.824-39.167-5.766-2.555-.147-5.088-2.314-5.615-4.822-5.478-25.978-4.496-80.46-4.101-95.578a3.886 3.886 0 0 1 4.085-3.775l66.086 2.214" stroke="#000" stroke-width="5" stroke-miterlimit="10"/><path d="M457.209 654.801c-3.439 15.82-7.284 48.117-3.053 65.828 0 0-16.664 4.423-49.019 8.566-32.353 4.143-99.867 4.895-124.692 4.978-24.826.085-124.438-5.279-153.691-6.231-29.256-.95-69.607-.424-73.936 4.917-4.328 5.338-3.766 27.749-2.868 39.413.896 11.662 8.304 13.319 9.458 16.673 1.154 3.359-.77 4.58-7.791 4.786-7.023.207-17.505-3.102-21.161-20.091-3.654-16.985-7.728-46.178-7.04-53.965.692-7.785 10.426-8.226 18.318-9.62 7.891-1.395 64.174-11.26 84.927-15.217 20.751-3.954 53.962-11.263 71.258-12.839 17.295-1.576 53.9-2.662 79.274-6.825 25.374-4.159 54.143-19.102 66.569-24.493 12.428-5.39 33.471-11.884 52.309-10.587 18.841 1.296 39.675 11.129 46.424 12.526 6.749 1.394 14.714 2.181 14.714 2.181Z" fill="#fff" stroke="#000" stroke-width="5" stroke-miterlimit="10"/><path d="M457.209 654.801c-3.439 15.82-7.284 48.117-3.053 65.828 0 0-16.664 4.423-49.019 8.566-32.353 4.143-99.867 4.895-124.692 4.978-24.826.085-124.438-5.279-153.691-6.231-29.256-.95-69.607-.424-73.936 4.917-4.328 5.338-3.766 27.749-2.868 39.413.896 11.662 8.304 13.319 9.458 16.673 1.154 3.359-.77 4.58-7.791 4.786-7.023.207-17.505-3.102-21.161-20.091-3.654-16.985-7.728-46.178-7.04-53.965.692-7.785 10.426-8.226 18.318-9.62 7.891-1.395 64.174-11.26 84.927-15.217 20.751-3.954 53.962-11.263 71.258-12.839 17.295-1.576 53.9-2.662 79.274-6.825 25.374-4.159 54.143-19.102 66.569-24.493 12.428-5.39 33.471-11.884 52.309-10.587 18.841 1.296 39.675 11.129 46.424 12.526 6.749 1.394 14.714 2.181 14.714 2.181Z" stroke="#000" stroke-width="5" stroke-miterlimit="10"/><path d="M68.368 705.354c.079 9.614 4.223 23.169 4.223 23.169M604.44 704.794c-6.827-12.48-1.488-45.809 1.83-56.486M531.468 777.691c-3.827 1.626-11.562 9.653-13.707 14.631" stroke="#000" stroke-width="5" stroke-miterlimit="10"/><path d="M685.562 664.391c6.711-4.936 14.206-2.355 23.025-4.819 14.009-3.913 30.159 11.777 31.174 28.004 1.336 21.421-74.554 31.573-77.344 19.405-1.653-7.206 2.904-21.245 13.858-32.373 3.521-3.578 9.287-10.217 9.287-10.217Z" fill="#fff" stroke="#000" stroke-width="5" stroke-miterlimit="10"/><path d="M685.562 664.391c6.711-4.936 14.206-2.355 23.025-4.819 14.009-3.913 30.159 11.777 31.174 28.004 1.336 21.421-74.554 31.573-77.344 19.405-1.653-7.206 2.904-21.245 13.858-32.373 3.521-3.578 9.287-10.217 9.287-10.217Z" stroke="#000" stroke-width="5" stroke-miterlimit="10"/><path d="M731.961 697.539c-13.371 1.32-38.67-5.608-36.294-22.873 2.676-19.405-7.665-10.39-11.034-8.487-3.371 1.898-8.976 11.846-10.209 10.087-1.23-1.756 5.291-28.866 24.217-33.715 18.929-4.847 29.501-1.356 36.615 7.914 7.111 9.27 10.6 29.861 5.642 40.543-4.953 10.674-8.937 6.531-8.937 6.531Z" fill="#000" stroke="#000" stroke-width="5" stroke-miterlimit="10"/><path d="M737.576 652.043c6.103-8.46 25.166-20.856 31.961 14.011 5.585 28.644 12.524 22.072 23.706 42.635 8.991 16.53-.37 38.855-28.796 31.745-25.866-6.471-20.946-26.489-19.253-49.509 1.69-23.024-7.618-38.882-7.618-38.882Z" fill="#000" stroke="#000" stroke-width="5" stroke-miterlimit="10"/></g><defs><clipPath id="a"><path fill="#fff" d="M0 0h800v800H0z"/></clipPath></defs></svg>