<svg width="800" height="800" fill="none" xmlns="http://www.w3.org/2000/svg"><g clip-path="url(#a)"><path d="M442.709 710.208c-33.844-8.267-67.366-38.009-67.366-38.009l-9.02 23.959s29.93 18.736 29.93 29.181" fill="#fff"/><path d="M442.709 710.208c-33.844-8.267-67.366-38.009-67.366-38.009l-9.02 23.959s29.93 18.736 29.93 29.181" stroke="#000" stroke-width="5" stroke-miterlimit="10"/><path d="M442.709 710.208c-33.844-8.267-67.366-38.009-67.366-38.009l-9.02 23.959s29.93 18.736 29.93 29.181" stroke="#000" stroke-width="5" stroke-miterlimit="10"/><path d="M418.807 717.418c-18.632 3.624-32.992 12.46-35.919 20.957-4.941 14.34 71.307 50.068 77.741 31.391 6.44-18.673 17.348-45.644.376-50.611-10.683-3.127-16.883-7.932-26.974-7.153" fill="#fff"/><path d="M418.807 717.418c-18.632 3.624-32.992 12.46-35.919 20.957-4.941 14.34 71.307 50.068 77.741 31.391 6.44-18.673 17.348-45.644.376-50.611-10.683-3.127-16.883-7.932-26.974-7.153" stroke="#000" stroke-width="5" stroke-miterlimit="10"/><path d="M418.807 717.418c-18.632 3.624-32.992 12.46-35.919 20.957-4.941 14.34 71.307 50.068 77.741 31.391 6.44-18.673 17.348-45.644.376-50.611-10.683-3.127-16.883-7.932-26.974-7.153M215.095 671.92c-28.224-5.838-55.253.486-55.253.486" stroke="#000" stroke-width="5" stroke-miterlimit="10"/><path d="M112.46 650.421c6.138-23.695 37.535-31.251 114.718-35.791 77.184-4.538 161.481 36.493 156.284 76.118-5.202 39.628-102.561 27.8-141.034 21.169-38.476-6.629-141.934-15.303-129.968-61.496Z" fill="#fff" stroke="#000" stroke-width="5" stroke-miterlimit="10"/><path d="M112.46 650.421c6.138-23.695 37.535-31.251 114.718-35.791 77.184-4.538 161.481 36.493 156.284 76.118-5.202 39.628-102.561 27.8-141.034 21.169-38.476-6.629-141.934-15.303-129.968-61.496Z" stroke="#000" stroke-width="5" stroke-miterlimit="10"/><path d="M130.863 629.982c23.36-5.641 56.196 12.323 84.233 41.939 0 0 111.367 15.148 150.234 39.468 38.872 24.32-3.557 60.263-32.028 63.661-28.474 3.396-93.362 8.259-148.074 5.247-54.72-3.012-59.328-5.299-101.385-.495-42.057 4.798-52.41 2.045-52.425-1.238-.013-3.282 11.874-14.299 35.138-16.967 23.263-2.673 31.033-10.997 43.863-12.811 12.831-1.818 12.476 5.397 29.546 4.869 17.067-.53 19.876-2.947 19.876-2.947s-27.267-3.389-55.066-35.219c-25.128-28.773-7.565-77.376 26.088-85.507Z" fill="#fff" stroke="#000" stroke-width="5" stroke-miterlimit="10"/><path d="M130.863 629.982c23.36-5.641 56.196 12.323 84.233 41.939 0 0 111.367 15.148 150.234 39.468 38.872 24.32-3.557 60.263-32.028 63.661-28.474 3.396-93.362 8.259-148.074 5.247-54.72-3.012-59.328-5.299-101.385-.495-42.057 4.798-52.41 2.045-52.425-1.238-.013-3.282 11.874-14.299 35.138-16.967 23.263-2.673 31.033-10.997 43.863-12.811 12.831-1.818 12.476 5.397 29.546 4.869 17.067-.53 19.876-2.947 19.876-2.947s-27.267-3.389-55.066-35.219c-25.128-28.773-7.565-77.376 26.088-85.507Z" stroke="#000" stroke-width="5" stroke-miterlimit="10"/><path d="M215.095 671.92s-32.551-9.804-57.533 1.89M159.842 750.706c36.778-9.896 80.941-26.5 102.054-26.9 21.115-.402 35.894 1.53 45.924 9.092" stroke="#000" stroke-width="5" stroke-miterlimit="10"/><path d="M319.034 629.653s-37.918 34.947 7.596 65.67Z" fill="#fff"/><path d="M319.034 629.653s-37.918 34.947 7.596 65.67" stroke="#000" stroke-width="5" stroke-miterlimit="10"/><path d="M319.034 629.653s-37.918 34.947 7.596 65.67M159.842 750.706s7.279 17.185 3.211 28.261" stroke="#000" stroke-width="5" stroke-miterlimit="10"/><path d="M423.94 694.052c4.217-26.61 70.446-35.093 81.708 4.721 11.259 39.812 44.103 40.749 64.277 36.061 20.176-4.688 53.959-7.971 70.38 21.1 16.421 29.076 7.508 29.076 7.508 29.076s-147.915 11.723-193.597-10.387c-35.817-17.335-30.276-80.571-30.276-80.571Z" fill="#000" stroke="#000" stroke-width="5" stroke-miterlimit="10"/><path d="M356.321 660.269s14.208 0 28.784 4.713c19.815 6.409 31.077 29.375 62.509 49.099 35.614 22.347 90.439 41.297 90.439 41.297 5.233 2.329 14.378 1.545 20.122 2.15 7.123.746 14.25 1.488 21.374 2.238 14.241 1.488 28.485 2.994 42.71 4.605 27.092 3.073 54.979 9.733 82.164 10.572 0 0 19.503-2.551 26.013-2.097 16.094 1.121 37.907 8.448 38.143 15.798.085 2.59-28.818.059-61.855 1.178-31.78 1.079-63.589.774-95.384 1.151-23.397.277-49.957 2.546-72.978-2.535-114.151-25.198-182.044-86.154-182.044-86.154" fill="#fff"/><path d="M356.321 660.269s14.208 0 28.784 4.713c19.815 6.409 31.077 29.375 62.509 49.099 35.614 22.347 90.439 41.297 90.439 41.297 5.233 2.329 14.378 1.545 20.122 2.15 7.123.746 14.25 1.488 21.374 2.238 14.241 1.488 28.485 2.994 42.71 4.605 27.092 3.073 54.979 9.733 82.164 10.572 0 0 19.503-2.551 26.013-2.097 16.094 1.121 37.907 8.448 38.143 15.798.085 2.59-28.818.059-61.855 1.178-31.78 1.079-63.589.774-95.384 1.151-23.397.277-49.957 2.546-72.978-2.535-114.151-25.198-182.044-86.154-182.044-86.154" stroke="#000" stroke-width="5" stroke-miterlimit="10"/><path d="M356.321 660.269s14.208 0 28.784 4.713c19.815 6.409 31.077 29.375 62.509 49.099 35.614 22.347 90.439 41.297 90.439 41.297 5.233 2.329 14.378 1.545 20.122 2.15 7.123.746 14.25 1.488 21.374 2.238 14.241 1.488 28.485 2.994 42.71 4.605 27.092 3.073 54.979 9.733 82.164 10.572 0 0 19.503-2.551 26.013-2.097 16.094 1.121 37.907 8.448 38.143 15.798.085 2.59-28.818.059-61.855 1.178-31.78 1.079-63.589.774-95.384 1.151-23.397.277-49.957 2.546-72.978-2.535-114.151-25.198-182.044-86.154-182.044-86.154" stroke="#000" stroke-width="5" stroke-miterlimit="10"/></g><defs><clipPath id="a"><path fill="#fff" d="M0 0h800v800H0z"/></clipPath></defs></svg>