<svg width="800" height="800" viewBox="0 0 800 800" fill="none" xmlns="http://www.w3.org/2000/svg">
<g clip-path="url(#clip0_298_12119)">
<path d="M442.709 710.208C408.865 701.941 375.343 672.199 375.343 672.199L366.323 696.158C366.323 696.158 396.253 714.894 396.253 725.339" fill="white"/>
<path d="M442.709 710.208C408.865 701.941 375.343 672.199 375.343 672.199L366.323 696.158C366.323 696.158 396.253 714.894 396.253 725.339" stroke="black" stroke-width="5" stroke-miterlimit="10"/>
<path d="M442.709 710.208C408.865 701.941 375.343 672.199 375.343 672.199L366.323 696.158C366.323 696.158 396.253 714.894 396.253 725.339" stroke="black" stroke-width="5" stroke-miterlimit="10"/>
<path d="M418.807 717.418C400.175 721.042 385.815 729.878 382.888 738.375C377.947 752.715 454.195 788.443 460.629 769.766C467.069 751.093 477.977 724.122 461.005 719.155C450.322 716.028 444.122 711.223 434.031 712.002" fill="white"/>
<path d="M418.807 717.418C400.175 721.042 385.815 729.878 382.888 738.375C377.947 752.715 454.195 788.443 460.629 769.766C467.069 751.093 477.977 724.122 461.005 719.155C450.322 716.028 444.122 711.223 434.031 712.002" stroke="black" stroke-width="5" stroke-miterlimit="10"/>
<path d="M418.807 717.418C400.175 721.042 385.815 729.878 382.888 738.375C377.947 752.715 454.195 788.443 460.629 769.766C467.069 751.093 477.977 724.122 461.005 719.155C450.322 716.028 444.122 711.223 434.031 712.002" stroke="black" stroke-width="5" stroke-miterlimit="10"/>
<path d="M215.095 671.92C186.871 666.082 159.842 672.406 159.842 672.406" stroke="black" stroke-width="5" stroke-miterlimit="10"/>
<path d="M112.46 650.421C118.598 626.726 149.995 619.17 227.178 614.63C304.362 610.092 388.659 651.123 383.462 690.748C378.26 730.376 280.901 718.548 242.428 711.917C203.952 705.288 100.494 696.614 112.46 650.421Z" fill="white" stroke="black" stroke-width="5" stroke-miterlimit="10"/>
<path d="M112.46 650.421C118.598 626.726 149.995 619.17 227.178 614.63C304.362 610.092 388.659 651.123 383.462 690.748C378.26 730.376 280.901 718.548 242.428 711.917C203.952 705.288 100.494 696.614 112.46 650.421Z" stroke="black" stroke-width="5" stroke-miterlimit="10"/>
<path d="M130.863 629.982C154.223 624.341 187.059 642.305 215.096 671.921C215.096 671.921 326.463 687.069 365.33 711.389C404.202 735.709 361.773 771.652 333.302 775.05C304.828 778.446 239.94 783.309 185.228 780.297C130.508 777.285 125.9 774.998 83.8431 779.802C41.7862 784.6 31.4323 781.847 31.4185 778.564C31.4046 775.282 43.2922 764.265 66.556 761.597C89.8188 758.924 97.589 750.6 110.419 748.786C123.25 746.968 122.895 754.183 139.965 753.655C157.032 753.125 159.841 750.708 159.841 750.708C159.841 750.708 132.574 747.319 104.775 715.489C79.647 686.716 97.2099 638.113 130.863 629.982Z" fill="white" stroke="black" stroke-width="5" stroke-miterlimit="10"/>
<path d="M130.863 629.982C154.223 624.341 187.059 642.305 215.096 671.921C215.096 671.921 326.463 687.069 365.33 711.389C404.202 735.709 361.773 771.652 333.302 775.05C304.828 778.446 239.94 783.309 185.228 780.297C130.508 777.285 125.9 774.998 83.8431 779.802C41.7862 784.6 31.4323 781.847 31.4185 778.564C31.4046 775.282 43.2922 764.265 66.556 761.597C89.8188 758.924 97.589 750.6 110.419 748.786C123.25 746.968 122.895 754.183 139.965 753.655C157.032 753.125 159.841 750.708 159.841 750.708C159.841 750.708 132.574 747.319 104.775 715.489C79.647 686.716 97.2099 638.113 130.863 629.982Z" stroke="black" stroke-width="5" stroke-miterlimit="10"/>
<path d="M215.095 671.92C215.095 671.92 182.544 662.116 157.562 673.81" stroke="black" stroke-width="5" stroke-miterlimit="10"/>
<path d="M159.842 750.706C196.62 740.81 240.783 724.206 261.896 723.806C283.011 723.404 297.79 725.336 307.82 732.898" stroke="black" stroke-width="5" stroke-miterlimit="10"/>
<path d="M319.034 629.653C319.034 629.653 281.116 664.6 326.63 695.323Z" fill="white"/>
<path d="M319.034 629.653C319.034 629.653 281.116 664.6 326.63 695.323" stroke="black" stroke-width="5" stroke-miterlimit="10"/>
<path d="M319.034 629.653C319.034 629.653 281.116 664.6 326.63 695.323" stroke="black" stroke-width="5" stroke-miterlimit="10"/>
<path d="M159.842 750.706C159.842 750.706 167.121 767.891 163.053 778.967" stroke="black" stroke-width="5" stroke-miterlimit="10"/>
<path d="M423.94 694.052C428.157 667.442 494.386 658.959 505.648 698.773C516.907 738.585 549.751 739.522 569.925 734.834C590.101 730.146 623.884 726.863 640.305 755.934C656.726 785.01 647.813 785.01 647.813 785.01C647.813 785.01 499.898 796.733 454.216 774.623C418.399 757.288 423.94 694.052 423.94 694.052Z" fill="black" stroke="black" stroke-width="5" stroke-miterlimit="10"/>
<path d="M356.321 660.269C356.321 660.269 370.529 660.269 385.105 664.982C404.92 671.391 416.182 694.357 447.614 714.081C483.228 736.428 538.053 755.378 538.053 755.378C543.286 757.707 552.431 756.923 558.175 757.528C565.298 758.274 572.425 759.016 579.549 759.766C593.79 761.254 608.034 762.76 622.259 764.371C649.351 767.444 677.238 774.104 704.423 774.943C704.423 774.943 723.926 772.392 730.436 772.846C746.53 773.967 768.343 781.294 768.579 788.644C768.664 791.234 739.761 788.703 706.724 789.822C674.944 790.901 643.135 790.596 611.34 790.973C587.943 791.25 561.383 793.519 538.362 788.438C424.211 763.24 356.318 702.284 356.318 702.284" fill="white"/>
<path d="M356.321 660.269C356.321 660.269 370.529 660.269 385.105 664.982C404.92 671.391 416.182 694.357 447.614 714.081C483.228 736.428 538.053 755.378 538.053 755.378C543.286 757.707 552.431 756.923 558.175 757.528C565.298 758.274 572.425 759.016 579.549 759.766C593.79 761.254 608.034 762.76 622.259 764.371C649.351 767.444 677.238 774.104 704.423 774.943C704.423 774.943 723.926 772.392 730.436 772.846C746.53 773.967 768.343 781.294 768.579 788.644C768.664 791.234 739.761 788.703 706.724 789.822C674.944 790.901 643.135 790.596 611.34 790.973C587.943 791.25 561.383 793.519 538.362 788.438C424.211 763.24 356.318 702.284 356.318 702.284" stroke="black" stroke-width="5" stroke-miterlimit="10"/>
<path d="M356.321 660.269C356.321 660.269 370.529 660.269 385.105 664.982C404.92 671.391 416.182 694.357 447.614 714.081C483.228 736.428 538.053 755.378 538.053 755.378C543.286 757.707 552.431 756.923 558.175 757.528C565.298 758.274 572.425 759.016 579.549 759.766C593.79 761.254 608.034 762.76 622.259 764.371C649.351 767.444 677.238 774.104 704.423 774.943C704.423 774.943 723.926 772.392 730.436 772.846C746.53 773.967 768.343 781.294 768.579 788.644C768.664 791.234 739.761 788.703 706.724 789.822C674.944 790.901 643.135 790.596 611.34 790.973C587.943 791.25 561.383 793.519 538.362 788.438C424.211 763.24 356.318 702.284 356.318 702.284" stroke="black" stroke-width="5" stroke-miterlimit="10"/>
</g>
<defs>
<clipPath id="clip0_298_12119">
<rect width="800" height="800" fill="white"/>
</clipPath>
</defs>
</svg>
