<svg width="800" height="800" viewBox="0 0 800 800" fill="none" xmlns="http://www.w3.org/2000/svg">
<path d="M587.421 694.465C593.521 706.091 603.276 723.224 608.817 728.879C608.817 728.879 632.159 709.495 647.729 685.965C663.295 662.434 665.549 639.256 673.959 619.831C682.364 600.4 687.409 606.606 687.126 586.586C686.844 566.562 660.32 549.843 650.909 532.535C641.499 515.224 640.551 511.141 644.433 486.249C648.316 461.358 652.591 456.692 652.591 456.692C652.591 456.692 621.848 445.251 621.848 451.653C621.848 458.052 619.315 482.165 616.397 496.946C613.478 511.724 602.86 527.461 598.732 543.706C594.605 559.953 597.752 598.609 595.984 617.495C594.213 636.378 594.176 642.256 588.453 650.693C582.733 659.129 577.498 660.879 577.498 660.879C577.498 660.879 578.871 678.173 587.421 694.465Z" fill="white" stroke="black" stroke-width="5" stroke-miterlimit="10"/>
<path d="M587.421 694.465C593.521 706.091 603.276 723.224 608.817 728.879C608.817 728.879 632.159 709.495 647.729 685.965C663.295 662.434 665.549 639.256 673.959 619.831C682.364 600.4 687.409 606.606 687.126 586.586C686.844 566.562 660.32 549.843 650.909 532.535C641.499 515.224 640.551 511.141 644.433 486.249C648.316 461.358 652.591 456.692 652.591 456.692C652.591 456.692 621.848 445.251 621.848 451.653C621.848 458.052 619.315 482.165 616.397 496.946C613.478 511.724 602.86 527.461 598.732 543.706C594.605 559.953 597.752 598.609 595.984 617.495C594.213 636.378 594.176 642.256 588.453 650.693C582.733 659.129 577.498 660.879 577.498 660.879C577.498 660.879 578.871 678.173 587.421 694.465Z" stroke="black" stroke-width="5" stroke-miterlimit="10"/>
<path d="M612.165 510.274C612.165 510.274 647.069 561.825 671.757 557.773" stroke="black" stroke-width="5" stroke-miterlimit="10"/>
<path d="M584.292 687.715C594.779 711.673 608.817 728.88 608.817 728.88C608.817 728.88 573.61 753.618 538.32 766.164C503.029 778.711 471.47 788.109 439.132 788.441C406.793 788.774 338.28 787.481 295.706 784.615C253.134 781.751 206.707 776.031 184.683 776.938C162.659 777.849 127.492 786.586 104.719 786.231C81.9496 785.874 110.582 768.097 113.975 766.594C117.371 765.09 153.036 756.039 160.11 752.801C167.182 749.556 168.773 745.326 176.661 745.985C184.551 746.639 189.084 752.381 206.151 750.299C223.217 748.219 299.979 739.667 328.238 737.029C356.492 734.387 400.051 734.029 440.602 718.846C481.157 703.662 487.931 682.616 525.212 669.124C525.212 669.124 533.988 665.936 550.529 666.035C567.069 666.132 577.496 660.881 577.496 660.881C577.496 660.881 578.738 675.028 584.292 687.715Z" fill="white" stroke="black" stroke-width="5" stroke-miterlimit="10"/>
<path d="M584.292 687.715C594.779 711.673 608.817 728.88 608.817 728.88C608.817 728.88 573.61 753.618 538.32 766.164C503.029 778.711 471.47 788.109 439.132 788.441C406.793 788.774 338.28 787.481 295.706 784.615C253.134 781.751 206.707 776.031 184.683 776.938C162.659 777.849 127.492 786.586 104.719 786.231C81.9496 785.874 110.582 768.097 113.975 766.594C117.371 765.09 153.036 756.039 160.11 752.801C167.182 749.556 168.773 745.326 176.661 745.985C184.551 746.639 189.084 752.381 206.151 750.299C223.217 748.219 299.979 739.667 328.238 737.029C356.492 734.387 400.051 734.029 440.602 718.846C481.157 703.662 487.931 682.616 525.212 669.124C525.212 669.124 533.988 665.936 550.529 666.035C567.069 666.132 577.496 660.881 577.496 660.881C577.496 660.881 578.738 675.028 584.292 687.715Z" stroke="black" stroke-width="5" stroke-miterlimit="10"/>
<path d="M613.043 536.178C620.726 535.332 636.822 545.299 635.809 562.63C634.798 579.96 626.615 631.128 627.783 659.715C628.95 688.301 638.376 763.991 643.28 772.892C648.183 781.788 656.546 777.524 667.634 779.291C678.718 781.06 700.319 785.87 702.654 789.518C704.99 793.163 694.803 792.561 692.73 792.515C690.657 792.467 643.201 793.201 637.993 791.743C632.786 790.287 626.8 791.932 622.674 769.534C618.546 747.138 604.802 708.808 600.64 675.108C596.476 641.415 598.036 568.506 598.305 557.931C598.568 547.358 601.124 537.491 613.043 536.178Z" fill="white" stroke="black" stroke-width="5" stroke-miterlimit="10"/>
<path d="M613.043 536.178C620.726 535.332 636.822 545.299 635.809 562.63C634.798 579.96 626.615 631.128 627.783 659.715C628.95 688.301 638.376 763.991 643.28 772.892C648.183 781.788 656.546 777.524 667.634 779.291C678.718 781.06 700.319 785.87 702.654 789.518C704.99 793.163 694.803 792.561 692.73 792.515C690.657 792.467 643.201 793.201 637.993 791.743C632.786 790.287 626.8 791.932 622.674 769.534C618.546 747.138 604.802 708.808 600.64 675.108C596.476 641.415 598.036 568.506 598.305 557.931C598.568 547.358 601.124 537.491 613.043 536.178Z" stroke="black" stroke-width="5" stroke-miterlimit="10"/>
<path d="M222.59 748.381C220.012 755.974 219.456 778.3 219.456 778.3" stroke="black" stroke-width="5" stroke-miterlimit="10"/>
<path d="M624.559 465.2C620.271 459.549 620.748 454.077 618.539 446.598C615.029 434.718 629.901 422.747 643.358 419.455C656.815 416.157 669.845 482.785 659.513 485.315C653.394 486.816 639.332 484.043 630.811 473.834C625.912 467.964 624.559 465.2 624.559 465.2Z" fill="white" stroke="black" stroke-width="5" stroke-miterlimit="10"/>
<path d="M624.559 465.2C620.271 459.549 620.748 454.077 618.539 446.598C615.029 434.718 629.901 422.747 643.358 419.455C656.815 416.157 669.845 482.785 659.513 485.315C653.394 486.816 639.332 484.043 630.811 473.834C625.912 467.964 624.559 465.2 624.559 465.2Z" stroke="black" stroke-width="5" stroke-miterlimit="10"/>
<path d="M628.454 470.904C623.485 463.286 622.933 457.486 626.52 455.245C630.108 453.005 636.442 452.294 640.492 448.026C644.542 443.757 636.439 433.056 637.775 427.311C639.106 421.563 647.559 419.708 649.857 423.514C652.16 427.322 652.888 421.976 650.723 417.532C648.743 413.458 639.129 393.664 611.825 402.049C589.771 408.823 579.062 418.997 577.993 442.782C576.921 466.571 592.036 476.084 577.92 492.434C560.462 512.66 541.275 495.786 518.927 523.341C510.384 533.867 512.336 559.62 520.199 574.436C528.643 590.356 547.648 603.726 558.049 605.374C583.087 609.348 597.299 601.883 597.299 601.883V573.88C597.764 566.018 596.049 555.981 597.299 548.21C598.969 537.845 607.377 524.259 611.311 510.873C614.991 498.364 617.603 489.595 618.316 485.204C620.879 469.409 628.454 470.904 628.454 470.904Z" fill="black" stroke="black" stroke-width="5" stroke-miterlimit="10"/>
</svg>
