<svg width="800" height="800" fill="none" xmlns="http://www.w3.org/2000/svg"><path d="M587.421 694.465c6.1 11.626 15.855 28.759 21.396 34.414 0 0 23.342-19.384 38.912-42.914 15.566-23.531 17.82-46.709 26.23-66.134 8.405-19.431 13.45-13.225 13.167-33.245-.282-20.024-26.806-36.743-36.217-54.051-9.41-17.311-10.358-21.394-6.476-46.286 3.883-24.891 8.158-29.557 8.158-29.557s-30.743-11.441-30.743-5.039c0 6.399-2.533 30.512-5.451 45.293-2.919 14.778-13.537 30.515-17.665 46.76-4.127 16.247-.98 54.903-2.748 73.789-1.771 18.883-1.808 24.761-7.531 33.198-5.72 8.436-10.955 10.186-10.955 10.186s1.373 17.294 9.923 33.586Z" fill="#fff" stroke="#000" stroke-width="5" stroke-miterlimit="10"/><path d="M587.421 694.465c6.1 11.626 15.855 28.759 21.396 34.414 0 0 23.342-19.384 38.912-42.914 15.566-23.531 17.82-46.709 26.23-66.134 8.405-19.431 13.45-13.225 13.167-33.245-.282-20.024-26.806-36.743-36.217-54.051-9.41-17.311-10.358-21.394-6.476-46.286 3.883-24.891 8.158-29.557 8.158-29.557s-30.743-11.441-30.743-5.039c0 6.399-2.533 30.512-5.451 45.293-2.919 14.778-13.537 30.515-17.665 46.76-4.127 16.247-.98 54.903-2.748 73.789-1.771 18.883-1.808 24.761-7.531 33.198-5.72 8.436-10.955 10.186-10.955 10.186s1.373 17.294 9.923 33.586Z" stroke="#000" stroke-width="5" stroke-miterlimit="10"/><path d="M612.165 510.274s34.904 51.551 59.592 47.499" stroke="#000" stroke-width="5" stroke-miterlimit="10"/><path d="M584.292 687.715c10.487 23.958 24.525 41.165 24.525 41.165s-35.207 24.738-70.497 37.284c-35.291 12.547-66.85 21.945-99.188 22.277-32.339.333-100.852-.96-143.426-3.826-42.572-2.864-88.999-8.584-111.023-7.677-22.024.911-57.191 9.648-79.964 9.293-22.77-.357 5.863-18.134 9.256-19.637 3.396-1.504 39.061-10.555 46.135-13.793 7.072-3.245 8.663-7.475 16.551-6.816 7.89.654 12.423 6.396 29.49 4.314 17.066-2.08 93.828-10.632 122.087-13.27 28.254-2.642 71.813-3 112.364-18.183 40.555-15.184 47.329-36.23 84.61-49.722 0 0 8.776-3.188 25.317-3.089 16.54.097 26.967-5.154 26.967-5.154s1.242 14.147 6.796 26.834Z" fill="#fff" stroke="#000" stroke-width="5" stroke-miterlimit="10"/><path d="M584.292 687.715c10.487 23.958 24.525 41.165 24.525 41.165s-35.207 24.738-70.497 37.284c-35.291 12.547-66.85 21.945-99.188 22.277-32.339.333-100.852-.96-143.426-3.826-42.572-2.864-88.999-8.584-111.023-7.677-22.024.911-57.191 9.648-79.964 9.293-22.77-.357 5.863-18.134 9.256-19.637 3.396-1.504 39.061-10.555 46.135-13.793 7.072-3.245 8.663-7.475 16.551-6.816 7.89.654 12.423 6.396 29.49 4.314 17.066-2.08 93.828-10.632 122.087-13.27 28.254-2.642 71.813-3 112.364-18.183 40.555-15.184 47.329-36.23 84.61-49.722 0 0 8.776-3.188 25.317-3.089 16.54.097 26.967-5.154 26.967-5.154s1.242 14.147 6.796 26.834Z" stroke="#000" stroke-width="5" stroke-miterlimit="10"/><path d="M613.043 536.178c7.683-.846 23.779 9.121 22.766 26.452-1.011 17.33-9.194 68.498-8.026 97.085 1.167 28.586 10.593 104.276 15.497 113.177 4.903 8.896 13.266 4.632 24.354 6.399 11.084 1.769 32.685 6.579 35.02 10.227 2.336 3.645-7.851 3.043-9.924 2.997-2.073-.048-49.529.686-54.737-.772-5.207-1.456-11.193.189-15.319-22.209-4.128-22.396-17.872-60.726-22.034-94.426-4.164-33.693-2.604-106.602-2.335-117.177.263-10.573 2.819-20.44 14.738-21.753Z" fill="#fff" stroke="#000" stroke-width="5" stroke-miterlimit="10"/><path d="M613.043 536.178c7.683-.846 23.779 9.121 22.766 26.452-1.011 17.33-9.194 68.498-8.026 97.085 1.167 28.586 10.593 104.276 15.497 113.177 4.903 8.896 13.266 4.632 24.354 6.399 11.084 1.769 32.685 6.579 35.02 10.227 2.336 3.645-7.851 3.043-9.924 2.997-2.073-.048-49.529.686-54.737-.772-5.207-1.456-11.193.189-15.319-22.209-4.128-22.396-17.872-60.726-22.034-94.426-4.164-33.693-2.604-106.602-2.335-117.177.263-10.573 2.819-20.44 14.738-21.753ZM222.59 748.381c-2.578 7.593-3.134 29.919-3.134 29.919" stroke="#000" stroke-width="5" stroke-miterlimit="10"/><path d="M624.559 465.2c-4.288-5.651-3.811-11.123-6.02-18.602-3.51-11.88 11.362-23.851 24.819-27.143 13.457-3.298 26.487 63.33 16.155 65.86-6.119 1.501-20.181-1.272-28.702-11.481-4.899-5.87-6.252-8.634-6.252-8.634Z" fill="#fff" stroke="#000" stroke-width="5" stroke-miterlimit="10"/><path d="M624.559 465.2c-4.288-5.651-3.811-11.123-6.02-18.602-3.51-11.88 11.362-23.851 24.819-27.143 13.457-3.298 26.487 63.33 16.155 65.86-6.119 1.501-20.181-1.272-28.702-11.481-4.899-5.87-6.252-8.634-6.252-8.634Z" stroke="#000" stroke-width="5" stroke-miterlimit="10"/><path d="M628.454 470.904c-4.969-7.618-5.521-13.418-1.934-15.659 3.588-2.24 9.922-2.951 13.972-7.219 4.05-4.269-4.053-14.97-2.717-20.715 1.331-5.748 9.784-7.603 12.082-3.797 2.303 3.808 3.031-1.538.866-5.982-1.98-4.074-11.594-23.868-38.898-15.483-22.054 6.774-32.763 16.948-33.832 40.733-1.072 23.789 14.043 33.302-.073 49.652-17.458 20.226-36.645 3.352-58.993 30.907-8.543 10.526-6.591 36.279 1.272 51.095 8.444 15.92 27.449 29.29 37.85 30.938 25.038 3.974 39.25-3.491 39.25-3.491V573.88c.465-7.862-1.25-17.899 0-25.67 1.67-10.365 10.078-23.951 14.012-37.337 3.68-12.509 6.292-21.278 7.005-25.669 2.563-15.795 10.138-14.3 10.138-14.3Z" fill="#000" stroke="#000" stroke-width="5" stroke-miterlimit="10"/></svg>