<svg width="800" height="800" fill="none" xmlns="http://www.w3.org/2000/svg"><g clip-path="url(#a)"><path d="M240.272 660.355s-25.49-13.118-83.451-29.051c-8.763-2.411-60.092-12.012-78.409-15.412a25.22 25.22 0 0 1-11.389-5.311c-10.912-8.94-36.433-28.56-38.364-18.13-2.462 13.294-13.221 22.671 35.62 39.114 48.842 16.445 99.861 33.316 99.861 33.316l64.082 19.426 12.05-23.952Z" fill="#fff" stroke="#000" stroke-width="5" stroke-miterlimit="10"/><path d="M240.272 660.355s-25.49-13.118-83.451-29.051c-8.763-2.411-60.092-12.012-78.409-15.412a25.22 25.22 0 0 1-11.389-5.311c-10.912-8.94-36.433-28.56-38.364-18.13-2.462 13.294-13.221 22.671 35.62 39.114 48.842 16.445 99.861 33.316 99.861 33.316l64.082 19.426 12.05-23.952Z" stroke="#000" stroke-width="5" stroke-miterlimit="10"/><path d="M395.422 741.256s34.565 20.585 96.657 14.336c43.328-4.361 61.927-5.718 69.21-6.147a15.886 15.886 0 0 1 7.669 1.498c13.399 6.278 63.722 27.897 119.844 27.083 0 0 29.137 1.106 37.028 7.255 7.893 6.151 19.888-9.915 39.367-17.61 19.478-7.694 25.639-41.018 13.105-34.266-12.534 6.753-45.778 27.864-52.311 26.584-6.082-1.192-126.522-41.368-142.947-46.239a41.068 41.068 0 0 0-3.79-.932l-69.96-13.708s26.772-.7 38.67-1.632c25.393-1.987 36.287-1.353 57.771-8.706 7.254-2.48 14.952-3.548 22.577-2.813 2.27.217 4.724.564 7.349 1.078 12.405 2.431 14.225-42.925 14.471-59.922.059-4.15-3.778-7.353-7.695-6.256-5.171 1.45-6.212 14.3-8.916 28.925-4.21 22.769-31.121 19.258-37.614 17.997a121.7 121.7 0 0 0-6.149-1.009c-27.742-3.847-178.05-23.783-199.557-7.114-.005 0 17.916 49.555 5.221 81.598Z" fill="#fff" stroke="#000" stroke-width="5" stroke-miterlimit="10"/><path d="M395.422 741.256s34.565 20.585 96.657 14.336c43.328-4.361 61.927-5.718 69.21-6.147a15.886 15.886 0 0 1 7.669 1.498c13.399 6.278 63.722 27.897 119.844 27.083 0 0 29.137 1.106 37.028 7.255 7.893 6.151 19.888-9.915 39.367-17.61 19.478-7.694 25.639-41.018 13.105-34.266-12.534 6.753-45.778 27.864-52.311 26.584-6.082-1.192-126.522-41.368-142.947-46.239a41.068 41.068 0 0 0-3.79-.932l-69.96-13.708s26.772-.7 38.67-1.632c25.393-1.987 36.287-1.353 57.771-8.706 7.254-2.48 14.952-3.548 22.577-2.813 2.27.217 4.724.564 7.349 1.078 12.405 2.431 14.225-42.925 14.471-59.922.059-4.15-3.778-7.353-7.695-6.256-5.171 1.45-6.212 14.3-8.916 28.925-4.21 22.769-31.121 19.258-37.614 17.997a121.7 121.7 0 0 0-6.149-1.009c-27.742-3.847-178.05-23.783-199.557-7.114-.005 0 17.916 49.555 5.221 81.598Z" stroke="#000" stroke-width="5" stroke-miterlimit="10"/><path d="M222.934 660.97s23.36-10.177 38.255-22.309c14.896-12.133 68.505-5.852 136.481 23.49 0 0 26.018 19.08-2.171 79.162 0 0-71.416-30.025-103.056-15.73-31.64 14.297-31.959 7.132-40.776 13.977-8.816 6.844-47.102 45.115-83.933 53.177-31.789 6.96-76.075 3.236-87.607 2.085a27.745 27.745 0 0 0-5.587.007c-10.694 1.078-49.462 3.942-61.525-9.714-14.044-15.897 44.722-19.891 59.05-13.336 12.5 5.719 72.223-7.002 87.275-10.346a17.53 17.53 0 0 0 6.327-2.797c11.614-8.172 54.533-38.68 56.099-44.332 1.813-6.538 3.022-10.899-.035-16.507-3.058-5.608-14.648-13.718-37.188-15.607-22.541-1.89 38.391-21.22 38.391-21.22Z" fill="#fff" stroke="#000" stroke-width="5" stroke-miterlimit="10"/><path d="M222.787 659.917s23.326-9.258 38.182-21.44c14.855-12.184 66.485-6.059 134.558 23.048 0 0 29.15 19.593 1.16 79.771 0 0-72.586-30.41-104.178-16.006-31.593 14.405-31.936 6.242-40.73 13.117-8.794 6.874-46.953 45.276-83.757 53.465-31.766 7.069-76.064 3.498-87.6 2.387a27.745 27.745 0 0 0-5.587.026c-10.69 1.115-49.448 4.113-61.557-9.501-14.096-15.849 44.657-20.046 59.006-13.54 12.52 5.676 72.2-7.25 87.241-10.646a17.54 17.54 0 0 0 6.317-2.819c11.587-8.212 54.405-38.867 55.954-44.524 1.791-6.545 2.985-10.91-.091-16.507-3.076-5.598-14.693-13.668-37.239-15.479-22.546-1.812 38.321-21.352 38.321-21.352Z" stroke="#000" stroke-width="5" stroke-miterlimit="10"/><path d="M178.765 701.541c-8.613 2.027-14.854-3.773-24.5-5.112-15.316-2.133-24.524-24.718-18.727-41.316 7.651-21.921 86 .635 83.637 13.958-1.396 7.892-11.721 19.92-27.069 26.287-4.934 2.049-13.341 6.183-13.341 6.183Z" fill="#fff" stroke="#000" stroke-width="5" stroke-miterlimit="10"/><path d="M178.765 701.541c-8.613 2.027-14.854-3.773-24.5-5.112-15.316-2.133-24.524-24.718-18.727-41.316 7.651-21.921 86 .635 83.637 13.958-1.396 7.892-11.721 19.92-27.069 26.287-4.934 2.049-13.341 6.183-13.341 6.183Z" stroke="#000" stroke-width="5" stroke-miterlimit="10"/><path d="M147.302 648.581c13.617 4.447 35.44 22.262 25.894 38.457-10.735 18.201 3.141 13.665 7.228 13.222 4.086-.444 13.728-7.947 14.193-5.665.47 2.284-17.857 24.326-38.379 21.001-20.524-3.318-27.646-13.828-30.717-26.138-3.071-12.308.992-29.694 10.309-38.21 9.315-8.516 11.472-2.667 11.472-2.667Z" fill="#100200" stroke="#000" stroke-width="5" stroke-miterlimit="10"/><path d="M509.314 699.44s-28.289-5.504-39.577-5.426Z" fill="#fff"/><path d="M509.314 699.44s-28.289-5.504-39.577-5.426" stroke="#000" stroke-width="5" stroke-miterlimit="10"/><path d="M509.314 699.44s-28.289-5.504-39.577-5.426" stroke="#000" stroke-width="5" stroke-miterlimit="10"/><path d="M230.76 656.12s26.585 14.606-6.49 45.21Z" fill="#fff"/><path d="M230.76 656.12s26.585 14.606-6.49 45.21" stroke="#000" stroke-width="5" stroke-miterlimit="10"/><path d="M230.457 657.099s27.166 14.301-6.086 43.212" stroke="#000" stroke-width="5" stroke-miterlimit="10"/><path d="M209.5 726.5s13.617-31.791 69.5 3.5Z" fill="#fff"/><path d="M209.5 726.5s13.617-31.791 69.5 3.5" stroke="#000" stroke-width="5" stroke-miterlimit="10"/><path d="M210.5 725.5s13.117-30.291 69 5" stroke="#000" stroke-width="5" stroke-miterlimit="10"/><path d="M601.518 668.353s7.13 6.306 4.655 19.695Z" fill="#fff"/><path d="M601.518 668.353s7.13 6.306 4.655 19.695" stroke="#000" stroke-width="5" stroke-miterlimit="10"/><path d="M601.518 668.353s7.13 6.306 4.655 19.695" stroke="#000" stroke-width="5" stroke-miterlimit="10"/><path d="M711.085 755.371s10.06 14.047-7.349 23.915Z" fill="#fff"/><path d="M711.085 755.371s10.06 14.047-7.349 23.915" stroke="#000" stroke-width="5" stroke-miterlimit="10"/><path d="M711.085 755.371s10.06 14.047-7.349 23.915" stroke="#000" stroke-width="5" stroke-miterlimit="10"/></g><defs><clipPath id="a"><path fill="#fff" d="M0 0h800v800H0z"/></clipPath></defs></svg>