<svg width="800" height="800" fill="none" xmlns="http://www.w3.org/2000/svg"><g clip-path="url(#a)"><path d="M505.715 547.712c27.322 1.586 70.158-38.738 101.352-27.052 0 0 20.698-6.012 25.085-21.05 0 0 8.911 16.846 33.127 25.106 0 0-16.047-1.109-35.553 34.123 0 0-24.054 36.484-40.034 48.856-15.981 12.378-32.283 19.064-51.786 11.805-19.498-7.259-29.117-6.863-42.409-5.739-13.293 1.122-37.766 1.456-37.766 1.456s-10.5-16.58-7.11-38.368c3.391-21.786 13.654-38.369 13.654-38.369s14.648 7.676 41.44 9.232Z" fill="#fff" stroke="#000" stroke-width="5" stroke-miterlimit="10"/><path d="M505.715 547.712c27.322 1.586 70.158-38.738 101.352-27.052 0 0 20.698-6.012 25.085-21.05 0 0 8.911 16.846 33.127 25.106 0 0-16.047-1.109-35.553 34.123 0 0-24.054 36.484-40.034 48.856-15.981 12.378-32.283 19.064-51.786 11.805-19.498-7.259-29.117-6.863-42.409-5.739-13.293 1.122-37.766 1.456-37.766 1.456s-10.5-16.58-7.11-38.368c3.391-21.786 13.654-38.369 13.654-38.369s14.648 7.676 41.44 9.232Z" stroke="#000" stroke-width="5" stroke-miterlimit="10"/><path d="M367.706 562.927c18.731-35.955 43.898-42.197 65.805-35.003 21.912 7.193 30.767 10.557 30.767 10.557s-13.447 21.893-13.998 41.326c-.546 19.431 4.382 29.042 7.452 35.41 0 0-8.892-.866-13.354 2.542-4.462 3.41-9.284 24.045-17.528 71.166-8.242 47.115-16.525 86.396-30.244 94.535-13.72 8.138-83.482 15.574-133.62 7.053-50.141-8.522-54.452-6.471-69.866-3.95-15.414 2.521-73.234 9.54-78.351 7.759-5.118-1.78-1.893-10.622 7.184-15.807 9.075-5.188 13.49-7.72 26.763-10.827 13.273-3.109 27.687-5.969 33.009-9.617 5.322-3.649 11.805-10.674 25.903-4.185 14.095 6.49 44.674-.587 71.529-10.468 26.856-9.885 60.338-17.062 78.483-9.086 0 0-4.452-66.372-.571-113.578 3.883-47.207 10.637-57.827 10.637-57.827Z" fill="#fff" stroke="#000" stroke-width="5" stroke-miterlimit="10"/><path d="M367.706 562.927c18.731-35.955 43.898-42.197 65.805-35.003 21.912 7.193 30.767 10.557 30.767 10.557s-13.447 21.893-13.998 41.326c-.546 19.431 4.382 29.042 7.452 35.41 0 0-8.892-.866-13.354 2.542-4.462 3.41-9.284 24.045-17.528 71.166-8.242 47.115-16.525 86.396-30.244 94.535-13.72 8.138-83.482 15.574-133.62 7.053-50.141-8.522-54.452-6.471-69.866-3.95-15.414 2.521-73.234 9.54-78.351 7.759-5.118-1.78-1.893-10.622 7.184-15.807 9.075-5.188 13.49-7.72 26.763-10.827 13.273-3.109 27.687-5.969 33.009-9.617 5.322-3.649 11.805-10.674 25.903-4.185 14.095 6.49 44.674-.587 71.529-10.468 26.856-9.885 60.338-17.062 78.483-9.086 0 0-4.452-66.372-.571-113.578 3.883-47.207 10.637-57.827 10.637-57.827Z" stroke="#000" stroke-width="5" stroke-miterlimit="10"/><path d="M576.258 589.241s14.761 67.139 15.926 99.59c1.553 43.175 8.71 76.686 13.489 95.093 1.201 4.624 5.581 5.439 9.889 6.77a28.398 28.398 0 0 0 8.232 1.268l63.819.249c1.08.013 1.459-1.434.505-1.943-8.639-4.612-24.871-7.566-31.712-10.119-5.44-2.026-9.888-3.318-15.616-4.263-1.325-.216-3.838-.572-5.178-.641h-.046c-4.271-.232-9.196-3.626-10.914-7.54-2.308-5.266-1.222-8.492-1.143-14.233.087-6.722.179-13.443.266-20.164.182-13.753.364-27.507.548-41.262.05-3.707.097-7.416.147-11.126l-7.576-137.389c-3.303-13.961-14.28-19.879-24.534-18.304-10.255 1.578-37.189 3.358-29.266 35.447 6.244 25.279 13.164 28.567 13.164 28.567Z" fill="#fff" stroke="#000" stroke-width="5" stroke-miterlimit="10"/><path d="M576.258 589.241s14.761 67.139 15.926 99.59c1.553 43.175 8.71 76.686 13.489 95.093 1.201 4.624 5.581 5.439 9.889 6.77a28.398 28.398 0 0 0 8.232 1.268l63.819.249c1.08.013 1.459-1.434.505-1.943-8.639-4.612-24.871-7.566-31.712-10.119-5.44-2.026-9.888-3.318-15.616-4.263-1.325-.216-3.838-.572-5.178-.641h-.046c-4.271-.232-9.196-3.626-10.914-7.54-2.308-5.266-1.222-8.492-1.143-14.233.087-6.722.179-13.443.266-20.164.182-13.753.364-27.507.548-41.262.05-3.707.097-7.416.147-11.126l-7.576-137.389c-3.303-13.961-14.28-19.879-24.534-18.304-10.255 1.578-37.189 3.358-29.266 35.447 6.244 25.279 13.164 28.567 13.164 28.567ZM464.278 538.48s-27.303 43.7-6.546 76.737" stroke="#000" stroke-width="5" stroke-miterlimit="10"/><path d="M652.502 517.153s-5.985-2.766-8.838-8.438Z" fill="#fff"/><path d="M652.502 517.153s-5.985-2.766-8.838-8.438" stroke="#000" stroke-width="5" stroke-miterlimit="10"/><path d="M652.502 517.153s-5.985-2.766-8.838-8.438" stroke="#000" stroke-width="5" stroke-miterlimit="10"/><path d="M620.544 448.473c-5.64-15.574-28.138-49.606-61.166-18.248-20.97 19.907-54.733 46.53-80.427 40.184-25.694-6.344-5.64 52.299 29.247 55.183 34.887 2.884 67.475-18.265 76.874-46.915 9.4-28.648 35.472-30.204 35.472-30.204Z" fill="#000" stroke="#000" stroke-width="5" stroke-miterlimit="10"/><path d="M632.676 503.954c-5.987-6.823-3.881-15.202-7.379-24.549-5.554-14.847 9.982-33.845 27.504-36.457 23.139-3.445 41.233 78.004 28.283 82.168-7.671 2.469-23.344-1.173-36.45-12.029-4.21-3.489-11.958-9.133-11.958-9.133Z" fill="#fff" stroke="#000" stroke-width="5" stroke-miterlimit="10"/><path d="M632.676 503.954c-5.987-6.823-3.881-15.202-7.379-24.549-5.554-14.847 9.982-33.845 27.504-36.457 23.139-3.445 41.233 78.004 28.283 82.168-7.671 2.469-23.344-1.173-36.45-12.029-4.21-3.489-11.958-9.133-11.958-9.133Z" stroke="#000" stroke-width="5" stroke-miterlimit="10"/><path d="M664.35 450.49c2.679 14.394-2.489 42.513-21.457 41.541-21.323-1.096-10.567 9.291-8.191 12.77 2.377 3.482 13.702 8.641 11.907 10.142-1.791 1.502-31.842-3.053-38.87-23.151-7.028-20.1-4.223-31.908 5.179-40.494 9.404-8.586 31.44-14.294 43.499-9.905 12.063 4.388 7.933 9.097 7.933 9.097Z" fill="#000" stroke="#000" stroke-width="5" stroke-miterlimit="10"/><path d="M271.223 745.351s-5.493 33.306-1.422 45.696Z" fill="#fff"/><path d="M271.223 745.351s-5.493 33.306-1.422 45.696" stroke="#000" stroke-width="5" stroke-miterlimit="10"/><path d="M271.223 745.351s-5.493 33.306-1.422 45.696" stroke="#000" stroke-width="5" stroke-miterlimit="10"/><path d="M627.711 561.828c-5.084-6.418-12.742-33.628-13.926-43.834Z" fill="#fff"/><path d="M627.711 561.828c-5.084-6.418-12.742-33.628-13.926-43.834" stroke="#000" stroke-width="5" stroke-miterlimit="10"/><path d="M627.711 561.828c-5.084-6.418-12.742-33.628-13.926-43.834" stroke="#000" stroke-width="5" stroke-miterlimit="10"/></g><defs><clipPath id="a"><path fill="#fff" d="M0 0h800v800H0z"/></clipPath></defs></svg>