<svg width="800" height="800" fill="none" xmlns="http://www.w3.org/2000/svg"><g clip-path="url(#a)" stroke="#000" stroke-width="5" stroke-miterlimit="10"><path d="M362.538 188.842c-12.562-8.039-47.478-20.335-54.774 18.849-4.633 24.871-15.025 61.101-37.32 69.947-22.295 8.848 24.135 39.727 51.309 23.682 27.172-16.045 39.662-47.815 31.074-72.846-8.589-25.029 9.711-39.632 9.711-39.632Z" fill="#040004"/><path d="M401.447 221.601c-8.083-1.702-11.07-8.689-18.693-13.457-12.106-7.573-10.973-28.987.484-39.904 15.122-14.415 72.448 33.53 65.193 43.173-4.3 5.711-17.778 11.269-33.267 10.415-4.977-.274-13.717-.227-13.717-.227Z" fill="#fff"/><path d="M401.447 221.601c-8.083-1.702-11.07-8.689-18.693-13.457-12.106-7.573-10.973-28.987.484-39.904 15.122-14.415 72.448 33.53 65.193 43.173-4.3 5.711-17.778 11.269-33.267 10.415-4.977-.274-13.717-.227-13.717-.227Z"/><path d="M395.793 167.564c9.747 8.742 21.156 31.207 6.707 40.35-16.247 10.276-2.736 12.012.892 13.231 3.628 1.22 14.732-1.015 14.225.967-.505 1.985-25.028 14.351-41.057 3.846-16.027-10.503-20.352-20.265-18.091-31.181 2.262-10.915 15.353-26.349 26.581-29.508 11.227-3.16 10.743 2.295 10.743 2.295Z" fill="#040004"/><path d="M286.724 14.713s-9.142 28.475 29.712 54.76c0 0 37.111 54.394 55.865 71.174.835.748 1.517 1.628 1.982 2.631 5.433 11.759 40.253 88.311 38.147 114.568-2.286 28.475 6.857 32.856 27.426 56.951 20.57 24.094 16 87.615 16 87.615s-38.853 43.808-11.429 78.855c0 0 6.858 13.142 4.571 24.094-1.953 9.353-8.898 71.364-10.89 89.323a19.292 19.292 0 0 1-2.876 8.244c-7.248 11.406-23.947 56.858-18.232 138.997 0 0-13.714 39.427 0 46 11.197 5.369 66.582 4.888 86.532 4.534 4.59-.082 8.896-2.576 10.668-6.635 2.074-4.735 1.078-8.852-3.493-8.852-7.339 0-32.521-6.793-50.288-13.04-10.46-3.675-16.348-14.305-13.722-24.681l32.012-126.56s57.139-159.9 54.853-203.708c0 0 15.999-129.233-45.711-162.09 0 0-38.854-10.951-54.852-52.57-15.999-41.618-34.285-67.902-59.424-94.187-25.142-26.285-45.712-43.808-45.712-43.808s-29.711-74.471-41.139-41.615Z" fill="#fff"/><path d="M286.724 14.713s-9.142 28.475 29.712 54.76c0 0 37.111 54.394 55.865 71.174.835.748 1.517 1.628 1.982 2.631 5.433 11.759 40.253 88.311 38.147 114.568-2.286 28.475 6.857 32.856 27.426 56.951 20.57 24.094 16 87.615 16 87.615s-38.853 43.808-11.429 78.855c0 0 6.858 13.142 4.571 24.094-1.953 9.353-8.898 71.364-10.89 89.323a19.292 19.292 0 0 1-2.876 8.244c-7.248 11.406-23.947 56.858-18.232 138.997 0 0-13.714 39.427 0 46 11.197 5.369 66.582 4.888 86.532 4.534 4.59-.082 8.896-2.576 10.668-6.635 2.074-4.735 1.078-8.852-3.493-8.852-7.339 0-32.521-6.793-50.288-13.04-10.46-3.675-16.348-14.305-13.722-24.681l32.012-126.56s57.139-159.9 54.853-203.708c0 0 15.999-129.233-45.711-162.09 0 0-38.854-10.951-54.852-52.57-15.999-41.618-34.285-67.902-59.424-94.187-25.142-26.285-45.712-43.808-45.712-43.808s-29.711-74.471-41.139-41.615Z"/><path d="M478.531 243.167s19.426 40.966-47.334 61.774M455.855 402.414s50.281-13.14 77.709 4.381M417.002 741.927s19.117 2.191 30.129-4.38M411.924 247.873l5.078 18.737M411.924 247.873l5.078 18.737"/></g><defs><clipPath id="a"><path fill="#fff" d="M0 0h800v800H0z"/></clipPath></defs></svg>