<svg width="800" height="800" fill="none" xmlns="http://www.w3.org/2000/svg"><path d="M496.34 540.578s29.866-.21 34.761 15.094l11.222-45.446c-23.491 6.967-33.772-14.232-33.772-14.232-4.616-6.477-18.266-26.711-31.12-38.883-28.061-26.568-57.313-43.508-99.337-53.541-6.587-1.564-34.887-4.879-46.106-4.943-1.74-.005-4.181-.098-6.817-.246-.756-.056-3.356 3.02-4.137 2.964-10.521 26.76-18.028 50.695-26.363 78.221.786-.334 1.573-.669 2.359-.977 2.332-.974 4.581-1.807 6.743-2.474 1.515-.475 4.016-1.224 5.561-1.303 14.982-.961 30.857.828 44.476 5.948 13.59 5.118 26.813 11.812 36.887 20.512 9.263 8.024 10.992 19.533 18.682 27.102 6.354 6.279 14.116 8.407 21.548 9.074 15.341 1.368 28.763-.59 43.487.893 10.142 1.022 21.926 2.237 21.926 2.237Z" fill="#fff" stroke="#000" stroke-width="5" stroke-miterlimit="10"/><path d="M496.34 540.578s29.866-.21 34.761 15.094l11.222-45.446c-23.491 6.967-33.772-14.232-33.772-14.232-4.616-6.477-18.266-26.711-31.12-38.883-28.061-26.568-57.313-43.508-99.337-53.541-6.587-1.564-34.887-4.879-46.106-4.943-1.74-.005-4.181-.098-6.817-.246-.756-.056-3.356 3.02-4.137 2.964-10.521 26.76-18.028 50.695-26.363 78.221.786-.334 1.573-.669 2.359-.977 2.332-.974 4.581-1.807 6.743-2.474 1.515-.475 4.016-1.224 5.561-1.303 14.982-.961 30.857.828 44.476 5.948 13.59 5.118 26.813 11.812 36.887 20.512 9.263 8.024 10.992 19.533 18.682 27.102 6.354 6.279 14.116 8.407 21.548 9.074 15.341 1.368 28.763-.59 43.487.893 10.142 1.022 21.926 2.237 21.926 2.237Z" stroke="#000" stroke-width="5" stroke-miterlimit="10"/><path d="M458.722 523.524c-.956 3.479-1.427 5.738-2.104 8.075-4.346 14.98-21.249 84.49-35.386 113.554-30.233 62.13-44.515 108.836-49.601 130.316-1.435 6.073 3.545 13.114 9.784 13.114l71.879.986c2.161 0 3.244-2.704 1.611-4.123-10.762-9.372-44.229-12.541-54.215-13.058-2.436-.126-4.044-4.393-2.93-6.559l59.193-112.035c.526-.988.998-2.011 1.411-3.052l54.741-137.565c1.624-4.081 2.534-8.466 2.198-12.845-.852-11.021-7.99-18.691-16.913-21.267-11.156-3.223-32.574-9.043-36.513 27.745-.55 5.144-1.645 11.222-3.155 16.714Z" fill="#fff" stroke="#000" stroke-width="5" stroke-miterlimit="10"/><path d="M458.722 523.524c-.956 3.479-1.427 5.738-2.104 8.075-4.346 14.98-21.249 84.49-35.386 113.554-30.233 62.13-44.515 108.836-49.601 130.316-1.435 6.073 3.545 13.114 9.784 13.114l71.879.986c2.161 0 3.244-2.704 1.611-4.123-10.762-9.372-44.229-12.541-54.215-13.058-2.436-.126-4.044-4.393-2.93-6.559l59.193-112.035c.526-.988.998-2.011 1.411-3.052l54.741-137.565c1.624-4.081 2.534-8.466 2.198-12.845-.852-11.021-7.99-18.691-16.913-21.267-11.156-3.223-32.574-9.043-36.513 27.745-.55 5.144-1.645 11.222-3.155 16.714Z" stroke="#000" stroke-width="5" stroke-miterlimit="10"/><path d="M470.422 654.5c-63.765 6.021-131.638-21.324-197.569-42.408-8.992-2.87-32.492 4.912-39.251 11.5-15.037 14.653-28.497 35.202-44.484 41.609-5.175 2.077-10.06-3.701-7.34-8.569 14.393-25.754 36.643-60.533 51.838-84.934 3.713-5.966 11.584-7.715 17.579-4.061 65.01 39.595 118.067-1.611 162.169 36.196-18.334-10.815-55.728-38.755-76.83-56.153-36.094-29.768-56.668-47.536-65.318-84.71-7.639-32.826 18.439-73.477 58.786-64.018 38.908 9.121 42.776 77.533 46.703 81.329 48.216 46.622 95.653 74.827 112.172 143.076 3.395 14.028-6.161 29.982-18.455 31.143Z" fill="#fff" stroke="#000" stroke-width="5" stroke-miterlimit="10"/><path d="M470.422 654.5c-63.765 6.021-131.638-21.324-197.569-42.408-8.992-2.87-32.492 4.912-39.251 11.5-15.037 14.653-28.497 35.202-44.484 41.609-5.175 2.077-10.06-3.701-7.34-8.569 14.393-25.754 36.643-60.533 51.838-84.934 3.713-5.966 11.584-7.715 17.579-4.061 65.01 39.595 118.067-1.611 162.169 36.196-18.334-10.815-55.728-38.755-76.83-56.153-36.094-29.768-56.668-47.536-65.318-84.71-7.639-32.826 18.439-73.477 58.786-64.018 38.908 9.121 42.776 77.533 46.703 81.329 48.216 46.622 95.653 74.827 112.172 143.076 3.395 14.028-6.161 29.982-18.455 31.143Z" stroke="#000" stroke-width="5" stroke-miterlimit="10"/><path d="M526.511 542.305s.836-7.328 5.863-12.355Z" fill="#fff"/><path d="M526.511 542.305s.836-7.328 5.863-12.355" stroke="#000" stroke-width="5" stroke-miterlimit="10"/><path d="M526.511 542.305s.836-7.328 5.863-12.355M376.703 480.28c-20.184-20.434-32.092-27.16-32.092-27.16" stroke="#000" stroke-width="5" stroke-miterlimit="10"/><path d="M542.581 509.036c7.083-7.867 17.073-6.579 27.422-11.912 16.433-8.47 40.566 6.913 45.994 26.846 7.168 26.322-84.683 58.452-91.284 44.029-3.909-8.548-1.844-27.196 8.933-43.858 3.463-5.358 8.935-15.105 8.935-15.105Z" fill="#fff" stroke="#000" stroke-width="5" stroke-miterlimit="10"/><path d="M542.581 509.036c7.083-7.867 17.073-6.579 27.422-11.912 16.433-8.47 40.566 6.913 45.994 26.846 7.168 26.322-84.683 58.452-91.284 44.029-3.909-8.548-1.844-27.196 8.933-43.858 3.463-5.358 8.935-15.105 8.935-15.105Z" stroke="#000" stroke-width="5" stroke-miterlimit="10"/><path d="M608.848 538.378c-16.302 5.077-49.578 2.95-51.051-19.144-1.661-24.843-12.212-10.962-15.918-7.735-3.705 3.229-8.13 17.052-10.113 15.18-1.983-1.869-.83-37.289 21.484-48.185 22.312-10.896 36.373-9.27 47.607.444 11.235 9.707 20.869 34.441 17.441 49.007-3.428 14.567-9.45 10.433-9.45 10.433Z" fill="#000" stroke="#000" stroke-width="5" stroke-miterlimit="10"/><path d="M589.467 481.719c11.788-.137 38.817-8.857 21.039-35.21-14.606-21.65-3.332-23.604-6.897-45.184-2.863-17.349-27.474-22.674-49.917 5.47-20.428 25.615-1.709 33.313 15.986 45.508 17.695 12.193 19.789 29.416 19.789 29.416Z" fill="#000" stroke="#000" stroke-width="5" stroke-miterlimit="10"/><path d="M297.456 584.629c-8.063 22.067-9.354 32.426-9.354 32.426" stroke="#000" stroke-width="5" stroke-miterlimit="10"/></svg>