<svg width="800" height="800" viewBox="0 0 800 800" fill="none" xmlns="http://www.w3.org/2000/svg">
<path d="M496.34 540.578C496.34 540.578 526.206 540.368 531.101 555.672L542.323 510.226C518.832 517.193 508.551 495.994 508.551 495.994C503.935 489.517 490.285 469.283 477.431 457.111C449.37 430.543 420.118 413.603 378.094 403.57C371.507 402.006 343.207 398.691 331.988 398.627C330.248 398.622 327.807 398.529 325.171 398.381C324.415 398.325 321.815 401.401 321.034 401.345C310.513 428.105 303.006 452.04 294.671 479.566C295.457 479.232 296.244 478.897 297.03 478.589C299.362 477.615 301.611 476.782 303.773 476.115C305.288 475.64 307.789 474.891 309.334 474.812C324.316 473.851 340.191 475.64 353.81 480.76C367.4 485.878 380.623 492.572 390.697 501.272C399.96 509.296 401.689 520.805 409.379 528.374C415.733 534.653 423.495 536.781 430.927 537.448C446.268 538.816 459.69 536.858 474.414 538.341C484.556 539.363 496.34 540.578 496.34 540.578Z" fill="white" stroke="black" stroke-width="5" stroke-miterlimit="10"/>
<path d="M496.34 540.578C496.34 540.578 526.206 540.368 531.101 555.672L542.323 510.226C518.832 517.193 508.551 495.994 508.551 495.994C503.935 489.517 490.285 469.283 477.431 457.111C449.37 430.543 420.118 413.603 378.094 403.57C371.507 402.006 343.207 398.691 331.988 398.627C330.248 398.622 327.807 398.529 325.171 398.381C324.415 398.325 321.815 401.401 321.034 401.345C310.513 428.105 303.006 452.04 294.671 479.566C295.457 479.232 296.244 478.897 297.03 478.589C299.362 477.615 301.611 476.782 303.773 476.115C305.288 475.64 307.789 474.891 309.334 474.812C324.316 473.851 340.191 475.64 353.81 480.76C367.4 485.878 380.623 492.572 390.697 501.272C399.96 509.296 401.689 520.805 409.379 528.374C415.733 534.653 423.495 536.781 430.927 537.448C446.268 538.816 459.69 536.858 474.414 538.341C484.556 539.363 496.34 540.578 496.34 540.578Z" stroke="black" stroke-width="5" stroke-miterlimit="10"/>
<path d="M458.722 523.524C457.766 527.003 457.295 529.262 456.618 531.599C452.272 546.579 435.369 616.089 421.232 645.153C390.999 707.283 376.717 753.989 371.631 775.469C370.196 781.542 375.176 788.583 381.415 788.583L453.294 789.569C455.455 789.569 456.538 786.865 454.905 785.446C444.143 776.074 410.676 772.905 400.69 772.388C398.254 772.262 396.646 767.995 397.76 765.829L456.953 653.794C457.479 652.806 457.951 651.783 458.364 650.742L513.105 513.177C514.729 509.096 515.639 504.711 515.303 500.332C514.451 489.311 507.313 481.641 498.39 479.065C487.234 475.842 465.816 470.022 461.877 506.81C461.327 511.954 460.232 518.032 458.722 523.524Z" fill="white" stroke="black" stroke-width="5" stroke-miterlimit="10"/>
<path d="M458.722 523.524C457.766 527.003 457.295 529.262 456.618 531.599C452.272 546.579 435.369 616.089 421.232 645.153C390.999 707.283 376.717 753.989 371.631 775.469C370.196 781.542 375.176 788.583 381.415 788.583L453.294 789.569C455.455 789.569 456.538 786.865 454.905 785.446C444.143 776.074 410.676 772.905 400.69 772.388C398.254 772.262 396.646 767.995 397.76 765.829L456.953 653.794C457.479 652.806 457.951 651.783 458.364 650.742L513.105 513.177C514.729 509.096 515.639 504.711 515.303 500.332C514.451 489.311 507.313 481.641 498.39 479.065C487.234 475.842 465.816 470.022 461.877 506.81C461.327 511.954 460.232 518.032 458.722 523.524Z" stroke="black" stroke-width="5" stroke-miterlimit="10"/>
<path d="M470.422 654.5C406.657 660.521 338.784 633.176 272.853 612.092C263.861 609.222 240.361 617.004 233.602 623.592C218.565 638.245 205.105 658.794 189.118 665.201C183.943 667.278 179.058 661.5 181.778 656.632C196.171 630.878 218.421 596.099 233.616 571.698C237.329 565.732 245.2 563.983 251.195 567.637C316.205 607.232 369.262 566.026 413.364 603.833C395.03 593.018 357.636 565.078 336.534 547.68C300.44 517.912 279.866 500.144 271.216 462.97C263.577 430.144 289.655 389.493 330.002 398.952C368.91 408.073 372.778 476.485 376.705 480.281C424.921 526.903 472.358 555.108 488.877 623.357C492.272 637.385 482.716 653.339 470.422 654.5Z" fill="white" stroke="black" stroke-width="5" stroke-miterlimit="10"/>
<path d="M470.422 654.5C406.657 660.521 338.784 633.176 272.853 612.092C263.861 609.222 240.361 617.004 233.602 623.592C218.565 638.245 205.105 658.794 189.118 665.201C183.943 667.278 179.058 661.5 181.778 656.632C196.171 630.878 218.421 596.099 233.616 571.698C237.329 565.732 245.2 563.983 251.195 567.637C316.205 607.232 369.262 566.026 413.364 603.833C395.03 593.018 357.636 565.078 336.534 547.68C300.44 517.912 279.866 500.144 271.216 462.97C263.577 430.144 289.655 389.493 330.002 398.952C368.91 408.073 372.778 476.485 376.705 480.281C424.921 526.903 472.358 555.108 488.877 623.357C492.272 637.385 482.716 653.339 470.422 654.5Z" stroke="black" stroke-width="5" stroke-miterlimit="10"/>
<path d="M526.511 542.305C526.511 542.305 527.347 534.977 532.374 529.95Z" fill="white"/>
<path d="M526.511 542.305C526.511 542.305 527.347 534.977 532.374 529.95" stroke="black" stroke-width="5" stroke-miterlimit="10"/>
<path d="M526.511 542.305C526.511 542.305 527.347 534.977 532.374 529.95" stroke="black" stroke-width="5" stroke-miterlimit="10"/>
<path d="M376.703 480.28C356.519 459.846 344.611 453.12 344.611 453.12" stroke="black" stroke-width="5" stroke-miterlimit="10"/>
<path d="M542.581 509.036C549.664 501.169 559.654 502.457 570.003 497.124C586.436 488.654 610.569 504.037 615.997 523.97C623.165 550.292 531.314 582.422 524.713 567.999C520.804 559.451 522.869 540.803 533.646 524.141C537.109 518.783 542.581 509.036 542.581 509.036Z" fill="white" stroke="black" stroke-width="5" stroke-miterlimit="10"/>
<path d="M542.581 509.036C549.664 501.169 559.654 502.457 570.003 497.124C586.436 488.654 610.569 504.037 615.997 523.97C623.165 550.292 531.314 582.422 524.713 567.999C520.804 559.451 522.869 540.803 533.646 524.141C537.109 518.783 542.581 509.036 542.581 509.036Z" stroke="black" stroke-width="5" stroke-miterlimit="10"/>
<path d="M608.848 538.378C592.546 543.455 559.27 541.328 557.797 519.234C556.136 494.391 545.585 508.272 541.879 511.499C538.174 514.728 533.749 528.551 531.766 526.679C529.783 524.81 530.936 489.39 553.25 478.494C575.562 467.598 589.623 469.224 600.857 478.938C612.092 488.645 621.726 513.379 618.298 527.945C614.87 542.512 608.848 538.378 608.848 538.378Z" fill="black" stroke="black" stroke-width="5" stroke-miterlimit="10"/>
<path d="M589.467 481.719C601.255 481.582 628.284 472.862 610.506 446.509C595.9 424.859 607.174 422.905 603.609 401.325C600.746 383.976 576.135 378.651 553.692 406.795C533.264 432.41 551.983 440.108 569.678 452.303C587.373 464.496 589.467 481.719 589.467 481.719Z" fill="black" stroke="black" stroke-width="5" stroke-miterlimit="10"/>
<path d="M297.456 584.629C289.393 606.696 288.102 617.055 288.102 617.055" stroke="black" stroke-width="5" stroke-miterlimit="10"/>
</svg>
