<svg width="800" height="800" fill="none" xmlns="http://www.w3.org/2000/svg"><path d="M473.485 355.664s90.211-89.032 105.52-111.417c15.312-22.381 55.093-108.866 55.093-108.866 8.457-15.552 20.494-24.097 25.982-45.148 5.491-21.048 2.276-20.648-.926-20.047-3.202.601-39.478 35.248-40.243 54.015-.251 6.183-.878 6.93-1.99 10.031l-63.563 95.62-107.432 92.076" fill="#fff"/><path d="M473.485 355.664s90.211-89.032 105.52-111.417c15.312-22.381 55.093-108.866 55.093-108.866 8.457-15.552 20.494-24.097 25.982-45.148 5.491-21.048 2.276-20.648-.926-20.047-3.202.601-39.478 35.248-40.243 54.015-.251 6.183-.878 6.93-1.99 10.031l-63.563 95.62-107.432 92.076" stroke="#000" stroke-width="5" stroke-miterlimit="10"/><path d="M473.485 355.664s90.211-89.032 105.52-111.417c15.312-22.381 55.093-108.866 55.093-108.866 8.457-15.552 20.494-24.097 25.982-45.148 5.491-21.048 2.276-20.648-.926-20.047-3.202.601-39.478 35.248-40.243 54.015-.251 6.183-.878 6.93-1.99 10.031l-63.563 95.62-107.432 92.076" stroke="#000" stroke-width="5" stroke-miterlimit="10"/><path d="M297.031 457.184s14.924 7.539 33.917 11.819c21.513 4.849 38.951 2.43 38.951 2.43-2.397 23.246-9.574 48.166-13.525 74.834-2.186 14.747-8.095 44.35-13.353 68.555-8.237 37.945-14.959 123.319-7.299 141.311 5.214 12.252 29.192 20.208 54.657 24.024 26.909 4.033 12.99 13.55 6.009 13.691l-79.501.588c-16.838-.126-16.212-18.277-14.753-34.759 3.454-38.977-6.836-79.974-9.179-119.115-1.872-31.313 2.771-56.328 4.173-87.618 1.499-33.511-.097-95.76-.097-95.76Z" fill="#fff" stroke="#000" stroke-width="5" stroke-miterlimit="10"/><path d="M297.031 457.184s14.924 7.539 33.917 11.819c21.513 4.849 38.951 2.43 38.951 2.43-2.397 23.246-9.574 48.166-13.525 74.834-2.186 14.747-8.095 44.35-13.353 68.555-8.237 37.945-14.959 123.319-7.299 141.311 5.214 12.252 29.192 20.208 54.657 24.024 26.909 4.033 12.99 13.55 6.009 13.691l-79.501.588c-16.838-.126-16.212-18.277-14.753-34.759 3.454-38.977-6.836-79.974-9.179-119.115-1.872-31.313 2.771-56.328 4.173-87.618 1.499-33.511-.097-95.76-.097-95.76Z" stroke="#000" stroke-width="5" stroke-miterlimit="10"/><path d="M486.13 392.728c-13.304 7.701-24.407 14.714-36.192 24.616-12.797 10.751-23.374 24.221-38.393 31.709-14.789 7.378-26.197 16.16-41.009 21.861l-10.686-86.04c10.136-2.341 36.181-13.081 49.927-59.736 8.138-27.625 18.761-45.519 45.967-58.865 38.147-18.704 47.237-43.791 47.401-76.254 3.668 9.39 6.787 18.262 9.373 28.303 2.587 10.042 10.477 5.86 12.733 16.138-15.173 22.622-32.845 55.061-27.299 82.609 5.283 26.218 21.343 56.461-11.822 75.659Z" fill="#fff" stroke="#000" stroke-width="5" stroke-miterlimit="10"/><path d="M486.13 392.728c-13.304 7.701-24.407 14.714-36.192 24.616-12.797 10.751-23.374 24.221-38.393 31.709-14.789 7.378-26.197 16.16-41.009 21.861l-10.686-86.04c10.136-2.341 36.181-13.081 49.927-59.736 8.138-27.625 18.761-45.519 45.967-58.865 38.147-18.704 47.237-43.791 47.401-76.254 3.668 9.39 6.787 18.262 9.373 28.303 2.587 10.042 10.477 5.86 12.733 16.138-15.173 22.622-32.845 55.061-27.299 82.609 5.283 26.218 21.343 56.461-11.822 75.659Z" stroke="#000" stroke-width="5" stroke-miterlimit="10"/><path d="M460.007 264.082s14.919 14.05 26.382 52.279c11.465 38.224 19.353 27.707 19.353 27.707M411.547 313.366s28.388 26.628 55.33 8.406c17.55-11.87-11.131-55.497-11.131-55.497" stroke="#000" stroke-width="5" stroke-miterlimit="10"/><path d="M369.854 471.175c26.722-51.302-10.002-86.301-10.002-86.301-.931.151-1.705.223-2.305.259a2.958 2.958 0 0 1-2.269-.881c-16.511-16.715-28.865-20.315-50.217-19.426-14.616.606-29.221-1.409-43.032-6.232-43.23-15.094-75.245-28.131-75.258-28.136 5.596-5.398 12.418-17.802 18.435-33.568 7.474-19.579 9.296-32.808 12.999-61.183 2.001-15.316 1.113-29.095 16.746-45.387 2.533-2.638 3.342-6.547 1.978-9.938-12.468-31.022 1.839-47.297-9.06-65.394-1.753-2.915-6.224-2.215-7.09 1.076-5.119 19.427-8.744 44.355-10.947 64.335a41.461 41.461 0 0 1-2.866 11.281c-6.984 16.89-14.676 33.666-21.645 50.932-15.771 31.989-36.084 61.281-45.775 82.52-5.477 12.006-1.879 26.177 8.509 34.315 28.57 22.381 79.514 56.894 102.32 72.169 6.462 4.332 13.288 8.041 20.291 11.434 21.842 10.575 35.73 26.369 85.853 29.109 3.924.211 7.874.055 11.749-.593.598-.1 1.142-.218 1.586-.391Z" fill="#fff" stroke="#000" stroke-width="5" stroke-miterlimit="10"/><path d="M369.854 471.175c26.722-51.302-10.002-86.301-10.002-86.301-.931.151-1.705.223-2.305.259a2.958 2.958 0 0 1-2.269-.881c-16.511-16.715-28.865-20.315-50.217-19.426-14.616.606-29.221-1.409-43.032-6.232-43.23-15.094-75.245-28.131-75.258-28.136 5.596-5.398 12.418-17.802 18.435-33.568 7.474-19.579 9.296-32.808 12.999-61.183 2.001-15.316 1.113-29.095 16.746-45.387 2.533-2.638 3.342-6.547 1.978-9.938-12.468-31.022 1.839-47.297-9.06-65.394-1.753-2.915-6.224-2.215-7.09 1.076-5.119 19.427-8.744 44.355-10.947 64.335a41.461 41.461 0 0 1-2.866 11.281c-6.984 16.89-14.676 33.666-21.645 50.932-15.771 31.989-36.084 61.281-45.775 82.52-5.477 12.006-1.879 26.177 8.509 34.315 28.57 22.381 79.514 56.894 102.32 72.169 6.462 4.332 13.288 8.041 20.291 11.434 21.842 10.575 35.73 26.369 85.853 29.109 3.924.211 7.874.055 11.749-.593.598-.1 1.142-.218 1.586-.391Z" stroke="#000" stroke-width="5" stroke-miterlimit="10"/><path d="M481.808 227.521c-5.987-6.204-4.251-14.242-7.933-22.952-5.848-13.827 8.434-32.538 25.193-35.795 22.128-4.302 42.313 72.13 30.003 76.655-7.29 2.681-22.483-.074-35.451-9.782-4.169-3.121-11.812-8.126-11.812-8.126Z" fill="#fff" stroke="#000" stroke-width="5" stroke-miterlimit="10"/><path d="M481.808 227.521c-5.987-6.204-4.251-14.242-7.933-22.952-5.848-13.827 8.434-32.538 25.193-35.795 22.128-4.302 42.313 72.13 30.003 76.655-7.29 2.681-22.483-.074-35.451-9.782-4.169-3.121-11.812-8.126-11.812-8.126Z" stroke="#000" stroke-width="5" stroke-miterlimit="10"/><path d="M507.429 174.542c4.751 11.607-5.195 27.205-13.009 27.937-7.817.734-13.073 2.13-13.068 4.804 0 2.677 1.778 6.561 4.038 6.212 2.259-.351 6.692-2.924 8.224 1.191 1.531 4.117-1.675 16.716-9.327 22.283-7.643 5.561-21.288 2.031-29.378-9.908-8.094-11.937-2.525-33.504 7.653-47.14 4.909-6.576 12.2-11.481 19.213-13.321 11.567-3.03 20.993-3.446 25.654 7.942Z" fill="#000" stroke="#000" stroke-width="5" stroke-miterlimit="10"/><path d="M460.007 190.224c-3.274 7.598-4.686 16.934-16.127 21.132-11.444 4.2-17.213-3.175-23.875 1.195-6.658 4.371-16.272 24.799-28.172 27.867-11.905 3.063-12.724-6.786-25.851-3.655-11.225 2.677-5.357 24.094-30.844 27.297-12.226 1.538-31.151-78.676-14.728-80.889 16.423-2.217 25.465 9.415 34.416 7.007 8.955-2.405 9.798-15.92 22.061-18.357 17.186-3.419 22.919 14.905 35.741 12.256 10.54-2.181 10.849-9.642 23.362-11.812 12.516-2.168 24.017 17.959 24.017 17.959Z" fill="#000" stroke="#000" stroke-width="5" stroke-miterlimit="10"/><path d="M412.045 313.814c-32.312-26.881-86.235-57.327-101.323-69.858-20.863-17.326-82.836-89.585-82.836-89.585-12.396-12.634-10.537-1.157-21.59-19.895-11.051-18.738 1.763-22.231 5.007-22.529 3.243-.298 22.243 9.674 28.119 27.512 1.939 5.872 2.747 6.419 4.665 9.094l87.353 74.528 118.496 47.818" fill="#fff"/><path d="M412.045 313.814c-32.312-26.881-86.235-57.327-101.323-69.858-20.863-17.326-82.836-89.585-82.836-89.585-12.396-12.634-10.537-1.157-21.59-19.895-11.051-18.738 1.763-22.231 5.007-22.529 3.243-.298 22.243 9.674 28.119 27.512 1.939 5.872 2.747 6.419 4.665 9.094l87.353 74.528 118.496 47.818" stroke="#000" stroke-width="5" stroke-miterlimit="10"/><path d="M412.045 313.814c-32.312-26.881-86.235-57.327-101.323-69.858-20.863-17.326-82.836-89.585-82.836-89.585-12.396-12.634-10.537-1.157-21.59-19.895-11.051-18.738 1.763-22.231 5.007-22.529 3.243-.298 22.243 9.674 28.119 27.512 1.939 5.872 2.747 6.419 4.665 9.094l87.353 74.528 118.496 47.818" stroke="#000" stroke-width="5" stroke-miterlimit="10"/></svg>