<svg width="800" height="800" fill="none" xmlns="http://www.w3.org/2000/svg"><g clip-path="url(#a)"><path d="m272.064 454.318 32.005-29.492 56.625 56.525c22.156 22.117 59.085 51.608 76.319 68.811 17.235 17.203 41.853 66.355 54.163 78.642l19.696 19.662-32.006 4.915s-12.309-14.746-56.624-12.287c-44.316 2.457-56.625-12.288-66.473-29.492-9.848-17.203-7.385-34.406-32.005-61.44-24.62-27.034-36.93-44.237-44.315-49.151-7.386-4.914-9.848-7.371-9.848-7.371l2.463-39.322Z" fill="#fff" stroke="#000" stroke-width="5" stroke-miterlimit="10"/><path d="m272.064 454.318 32.005-29.492 56.625 56.525c22.156 22.117 59.085 51.608 76.319 68.811 17.235 17.203 41.853 66.355 54.163 78.642l19.696 19.662-32.006 4.915s-12.309-14.746-56.624-12.287c-44.316 2.457-56.625-12.288-66.473-29.492-9.848-17.203-7.385-34.406-32.005-61.44-24.62-27.034-36.93-44.237-44.315-49.151-7.386-4.914-9.848-7.371-9.848-7.371l2.463-39.322Z" stroke="#000" stroke-width="5" stroke-miterlimit="10"/><path d="M524.986 634.336c8.902.471 13.355 7.681 22.325 11.623 14.253 6.262 16.973 30.167 6.796 44.259-13.435 18.607-83.139-24.428-77.191-36.37 3.523-7.079 16.829-15.59 33.448-17.361 5.341-.569 14.622-2.151 14.622-2.151Z" fill="#fff" stroke="#000" stroke-width="5" stroke-miterlimit="10"/><path d="M524.986 634.336c8.902.471 13.355 7.681 22.325 11.623 14.253 6.262 16.973 30.167 6.796 44.259-13.435 18.607-83.139-24.428-77.191-36.37 3.523-7.079 16.829-15.59 33.448-17.361 5.341-.569 14.622-2.151 14.622-2.151Z" stroke="#000" stroke-width="5" stroke-miterlimit="10"/><path d="M540.884 693.167c-11.958-7.97-28.198-30.839-14.516-43.491 15.388-14.223.713-13.778-3.367-14.493-4.076-.714-15.468 3.706-15.296 1.421.174-2.288 23.962-18.034 42.92-9.215 18.956 8.821 22.967 20.72 22.561 33.196-.404 12.479-9.107 27.772-20.46 33.24-11.358 5.464-11.842-.658-11.842-.658Z" fill="#000" stroke="#000" stroke-width="5" stroke-miterlimit="10"/><path d="M434.705 581.786s11.639 4.34 22.137 12.648c14.271 11.296 16.467 33.525 36.182 59.265 22.34 29.16 61.452 61.412 61.452 61.412 3.577 3.504 11.305 5.654 15.825 7.9 5.612 2.794 11.22 5.574 16.831 8.359 11.213 5.571 22.42 11.149 33.581 16.815 21.253 10.788 25.707 16.635 47.725 25.619 0 0 19.696 4.916 39.392 4.916 14.773 0 31.597 6.203 29.544 12.287-.723 2.145-49.238 4.915-73.859-2.457-26.638-7.977-33.721-12.532-59.889-21.933-19.246-6.919-41.706-13.175-59.01-24.363-85.807-55.479-122.769-126.091-122.769-126.091" fill="#fff"/><path d="M434.705 581.786s11.639 4.34 22.137 12.648c14.271 11.296 16.467 33.525 36.182 59.265 22.34 29.16 61.452 61.412 61.452 61.412 3.577 3.504 11.305 5.654 15.825 7.9 5.612 2.794 11.22 5.574 16.831 8.359 11.213 5.571 22.42 11.149 33.581 16.815 21.253 10.788 25.707 16.635 47.725 25.619 0 0 19.696 4.916 39.392 4.916 14.773 0 31.597 6.203 29.544 12.287-.723 2.145-49.238 4.915-73.859-2.457-26.638-7.977-33.721-12.532-59.889-21.933-19.246-6.919-41.706-13.175-59.01-24.363-85.807-55.479-122.769-126.091-122.769-126.091" stroke="#000" stroke-width="5" stroke-miterlimit="10"/><path d="M434.705 581.786s11.639 4.34 22.137 12.648c14.271 11.296 16.467 33.525 36.182 59.265 22.34 29.16 61.452 61.412 61.452 61.412 3.577 3.504 11.305 5.654 15.825 7.9 5.612 2.794 11.22 5.574 16.831 8.359 11.213 5.571 22.42 11.149 33.581 16.815 21.253 10.788 25.707 16.635 47.725 25.619 0 0 19.696 4.916 39.392 4.916 14.773 0 31.597 6.203 29.544 12.287-.723 2.145-49.238 4.915-73.859-2.457-26.638-7.977-33.721-12.532-59.889-21.933-19.246-6.919-41.706-13.175-59.01-24.363-85.807-55.479-122.769-126.091-122.769-126.091" stroke="#000" stroke-width="5" stroke-miterlimit="10"/><path d="M281.912 461.691c7.386-14.745 19.696-34.407 22.157-36.865 0 0-32.005-24.575-66.472-27.034-34.468-2.457-49.239 27.034-59.087 56.525-8.703 26.069-27.082 76.185-34.467 93.388-7.386 17.204-19.453 48.668-32.005 73.728-14.772 29.492-26.903 70.562-32.005 90.932-4.924 19.661-13.438 41.367-14.772 46.694-2.462 9.83-7.385 19.661 7.386 22.118 14.57 2.424 56.226 0 64.011 0 9.848 0 19.695-4.915 12.309-9.83-7.386-4.916-29.543-4.916-39.391-7.372-9.848-2.457-17.234-4.916-12.31-14.747 4.925-9.83 41.854-76.186 61.549-105.676 19.696-29.491 56.52-95.923 76.32-122.88 27.082-36.864 29.544-27.032 34.468-27.032-.001 0 7.385-22.119 12.309-31.949Z" fill="#fff" stroke="#000" stroke-width="5" stroke-miterlimit="10"/><path d="M281.912 461.691c7.386-14.745 19.696-34.407 22.157-36.865 0 0-32.005-24.575-66.472-27.034-34.468-2.457-49.239 27.034-59.087 56.525-8.703 26.069-27.082 76.185-34.467 93.388-7.386 17.204-19.453 48.668-32.005 73.728-14.772 29.492-26.903 70.562-32.005 90.932-4.924 19.661-13.438 41.367-14.772 46.694-2.462 9.83-7.385 19.661 7.386 22.118 14.57 2.424 56.226 0 64.011 0 9.848 0 19.695-4.915 12.309-9.83-7.386-4.916-29.543-4.916-39.391-7.372-9.848-2.457-17.234-4.916-12.31-14.747 4.925-9.83 41.854-76.186 61.549-105.676 19.696-29.491 56.52-95.923 76.32-122.88 27.082-36.864 29.544-27.032 34.468-27.032-.001 0 7.385-22.119 12.309-31.949Z" stroke="#000" stroke-width="5" stroke-miterlimit="10"/><path d="M79.42 714.751c5.536 7.445 30.889 10.567 30.889 10.567M463.656 587.631c-11.871-10.435-34.027-20.263-48.8-3.06-14.772 17.202-6.13 43.862 11.709 56.336" stroke="#000" stroke-width="5" stroke-miterlimit="10"/></g><defs><clipPath id="a"><path fill="#fff" d="M0 0h800v800H0z"/></clipPath></defs></svg>