<svg width="800" height="800" fill="none" xmlns="http://www.w3.org/2000/svg"><path d="M456.156 654.259c12.937 23.894 12.693 33.503 27.479 53.209 14.787 19.708 33.591 18.639 37.534 38.346 3.943 19.707-21.514 38.517-93.484 36.052-71.965-2.462-104.807-11.578-123.476-4.743-18.671 6.836-14.788 21.619-28.096 16.999-13.31-4.62-11.461-29.932-5.917-36.769 5.546-6.838 14.974-9.239 25.881-6.465 10.904 2.771 32.286.923 42.143-.554 9.858-1.477 62.601-5.097 81.334-25.704 0 0-98.341-27.014-94.89-31.45 3.455-4.434 22.184-31.779 25.017-38.922l59.767-14.781 46.708 14.782Z" fill="#fff" stroke="#000" stroke-width="5" stroke-miterlimit="10"/><path d="M456.156 654.259c12.937 23.894 12.693 33.503 27.479 53.209 14.787 19.708 33.591 18.639 37.534 38.346 3.943 19.707-21.514 38.517-93.484 36.052-71.965-2.462-104.807-11.578-123.476-4.743-18.671 6.836-14.788 21.619-28.096 16.999-13.31-4.62-11.461-29.932-5.917-36.769 5.546-6.838 14.974-9.239 25.881-6.465 10.904 2.771 32.286.923 42.143-.554 9.858-1.477 62.601-5.097 81.334-25.704 0 0-98.341-27.014-94.89-31.45 3.455-4.434 22.184-31.779 25.017-38.922l59.767-14.781 46.708 14.782Z" stroke="#000" stroke-width="5" stroke-miterlimit="10"/><path d="M322.128 751.973c-20.321-11.615-62.082-33.613-49.059-66.072 12.17-30.328 51.171-3.696 99.49 8.32 49.016 12.189 72.782 15.157 101.801 12.016 29.023-3.141 43.532-8.373 49.447-1.907 5.916 6.466 5.291 32.529-4.75 36.681-10.036 4.15-16.692-13.587-34.436-15.248-17.743-1.666-61.357 1.78-79.143 8.998-32.919 13.355-83.35 17.212-83.35 17.212Z" fill="#fff" stroke="#000" stroke-width="5" stroke-miterlimit="10"/><path d="M322.128 751.973c-20.321-11.615-62.082-33.613-49.059-66.072 12.17-30.328 51.171-3.696 99.49 8.32 49.016 12.189 72.782 15.157 101.801 12.016 29.023-3.141 43.532-8.373 49.447-1.907 5.916 6.466 5.291 32.529-4.75 36.681-10.036 4.15-16.692-13.587-34.436-15.248-17.743-1.666-61.357 1.78-79.143 8.998-32.919 13.355-83.35 17.212-83.35 17.212Z" stroke="#000" stroke-width="5" stroke-miterlimit="10"/><path d="M456.156 725.996s9.862-8.766 0-18.627Z" fill="#fff"/><path d="M456.156 725.996s9.862-8.766 0-18.627" stroke="#000" stroke-width="5" stroke-miterlimit="10"/><path d="M456.156 725.996s9.862-8.766 0-18.627M306.182 727.054c14.418 9.363 61.49 16.518 88.294 11.645" stroke="#000" stroke-width="5" stroke-miterlimit="10"/><path d="M305.163 640.817c-3.443-4.827-3.804-11.225-.865-16.377 11.991-21.029 40.794-64.092 48.15-71.538 8.651-8.76 20.111-31.67 20.111-31.67l-15.65-16.506c-10.104 3.204-27.356 6.899-38.449 36.95-10.409 28.215-30.592 56.86-43.833 76.569-2.338 3.479-3.64 7.56-3.545 11.753.263 11.654 7.29 34.464 50.876 57.925 0 0 4.806 7.206 12.016 14.412 7.211 7.207 31.23 24.479 26.431 5.034-4.8-19.446-33.641-36.263-33.641-36.263l-21.601-30.289Z" fill="#fff" stroke="#000" stroke-width="5" stroke-miterlimit="10"/><path d="M305.163 640.817c-3.443-4.827-3.804-11.225-.865-16.377 11.991-21.029 40.794-64.092 48.15-71.538 8.651-8.76 20.111-31.67 20.111-31.67l-15.65-16.506c-10.104 3.204-27.356 6.899-38.449 36.95-10.409 28.215-30.592 56.86-43.833 76.569-2.338 3.479-3.64 7.56-3.545 11.753.263 11.654 7.29 34.464 50.876 57.925 0 0 4.806 7.206 12.016 14.412 7.211 7.207 31.23 24.479 26.431 5.034-4.8-19.446-33.641-36.263-33.641-36.263l-21.601-30.289Z" stroke="#000" stroke-width="5" stroke-miterlimit="10"/><path d="M499.591 640.817c3.445-4.827 3.807-11.225.868-16.377-11.989-21.029-40.792-64.092-48.147-71.538-8.651-8.76-20.115-31.67-20.115-31.67l15.65-16.506c10.107 3.204 27.358 6.899 38.45 36.95 10.411 28.215 30.596 56.86 43.834 76.569 2.337 3.479 3.638 7.56 3.544 11.753-.263 11.654-7.286 34.464-50.875 57.925 0 0-4.807 7.206-12.017 14.412-7.211 7.207-31.23 24.479-26.428 5.034 4.797-19.446 33.637-36.263 33.637-36.263l21.599-30.289Z" fill="#fff" stroke="#000" stroke-width="5" stroke-miterlimit="10"/><path d="M499.591 640.817c3.445-4.827 3.807-11.225.868-16.377-11.989-21.029-40.792-64.092-48.147-71.538-8.651-8.76-20.115-31.67-20.115-31.67l15.65-16.506c10.107 3.204 27.358 6.899 38.45 36.95 10.411 28.215 30.596 56.86 43.834 76.569 2.337 3.479 3.638 7.56 3.544 11.753-.263 11.654-7.286 34.464-50.875 57.925 0 0-4.807 7.206-12.017 14.412-7.211 7.207-31.23 24.479-26.428 5.034 4.797-19.446 33.637-36.263 33.637-36.263l21.599-30.289Z" stroke="#000" stroke-width="5" stroke-miterlimit="10"/><path d="M453.344 552.902c-8.872-25.867-4.459-48.176-4.459-48.176s-10.229-2.71-22.059-11.948c-11.828-9.237-8.877-40.405-8.877-40.405s-.614.127-15.03.127c-14.419 0-15.18-.127-15.18-.127s3.1 31.169-8.73 40.405c-11.829 9.237-22.053 11.948-22.053 11.948s4.407 22.309-4.468 48.176c0 0 8.283 54.797-2.807 101.357 0 0 23.29 9.238 53.238 9.238 29.944 0 53.236-9.238 53.236-9.238-11.091-46.56-2.811-101.357-2.811-101.357Z" fill="#fff" stroke="#000" stroke-width="5" stroke-miterlimit="10"/><path d="M453.344 552.902c-8.872-25.867-4.459-48.176-4.459-48.176s-10.229-2.71-22.059-11.948c-11.828-9.237-8.877-40.405-8.877-40.405s-.614.127-15.03.127c-14.419 0-15.18-.127-15.18-.127s3.1 31.169-8.73 40.405c-11.829 9.237-22.053 11.948-22.053 11.948s4.407 22.309-4.468 48.176c0 0 8.283 54.797-2.807 101.357 0 0 23.29 9.238 53.238 9.238 29.944 0 53.236-9.238 53.236-9.238-11.091-46.56-2.811-101.357-2.811-101.357Z" stroke="#000" stroke-width="5" stroke-miterlimit="10"/><path d="M376.594 387.933c-17.339 35.93 10.034 79.084 25.786 79.293 15.749.206 44.252-42.213 27.864-78.587-10.331-22.928-42.718-23.356-53.65-.706Z" fill="#fff" stroke="#000" stroke-width="5" stroke-miterlimit="10"/><path d="M376.594 387.933c-17.339 35.93 10.034 79.084 25.786 79.293 15.749.206 44.252-42.213 27.864-78.587-10.331-22.928-42.718-23.356-53.65-.706Z" stroke="#000" stroke-width="5" stroke-miterlimit="10"/><path d="M504.543 431.194c-13.824-7.591-10.317-17.322-22.588-27.053-12.266-9.731-27.465-3.158-33.882-18.88-6.361-15.577-27.076-24.475-45.125-24.257h-.056c-18.053-.218-38.77 8.68-45.129 24.257-6.416 15.722-21.612 9.149-33.882 18.88-12.265 9.731-8.764 19.462-22.588 27.053-13.824 7.592-14.953 6.89-14.411 12.849.798 8.786 32.24 5.313 55.82 5.914 4.622.117 21.456 4.795 25.957 5.848 9.207 2.156 21.036 1.851 21.28-1.447.393-5.258-1.295-17.759-4.884-24.159-3.586-6.399-10.996-4.333-10.996-13.721 0-8.758 3.599-5.349 11.872-13.137 7.297-6.867 14.601-14.822 16.99-21.28 2.389 6.458 9.688 14.413 16.983 21.28 8.275 7.789 11.876 4.38 11.876 13.137 0 9.388-7.413 7.321-10.999 13.721-3.587 6.4-5.272 18.902-4.882 24.159.244 3.298 12.073 3.603 21.279 1.447 4.501-1.053 21.335-5.731 25.959-5.848 23.578-.601 55.019 2.872 55.817-5.914.54-5.959-.582-5.257-14.411-12.849Z" fill="#100200" stroke="#000" stroke-width="5" stroke-miterlimit="10"/><path d="M368.734 499.794s12.838 19.316 34.368 19.316c21.527 0 34.366-19.316 34.366-19.316" stroke="#000" stroke-width="5" stroke-miterlimit="10"/><path d="M330.525 751.973s-10.014 13.768 0 22.889Z" fill="#fff"/><path d="M330.525 751.973s-10.014 13.768 0 22.889" stroke="#000" stroke-width="5" stroke-miterlimit="10"/><path d="M330.525 751.973s-10.014 13.768 0 22.889" stroke="#000" stroke-width="5" stroke-miterlimit="10"/></svg>