<svg width="800" height="800" fill="none" xmlns="http://www.w3.org/2000/svg"><path d="M682.288 435.321c14.487-5.328 52.26-9.727 49.732 32.648-1.603 26.897-.319 66.954 19.63 81.463 19.951 14.506-33.898 35.422-56.898 12.285-23.004-23.139-27.485-59.07-12.706-82.972 14.785-23.906.242-43.424.242-43.424Z" fill="#000" stroke="#000" stroke-width="5" stroke-miterlimit="10"/><path d="M485.298 434.75c9.345-4.673 30.371-11.681 32.708-16.354 2.338-4.673 0-79.433 2.338-98.123 2.336-18.69 9.343-65.416 18.69-91.115 9.345-25.699 18.691-51.397 21.026-70.088 2.336-18.69-4.549-56.07 18.69-56.07 32.831 0-2.336 46.725-4.671 63.079-2.337 16.354-14.017 81.77-18.691 102.796-4.673 21.026-7.009 25.699-4.673 56.07 2.338 30.372 14.017 109.805 14.017 109.805l-28.035 7.009-46.727 7.008-4.672-14.017Z" fill="#fff" stroke="#000" stroke-width="5" stroke-miterlimit="10"/><path d="M485.298 434.75c9.345-4.673 30.371-11.681 32.708-16.354 2.338-4.673 0-79.433 2.338-98.123 2.336-18.69 9.343-65.416 18.69-91.115 9.345-25.699 18.691-51.397 21.026-70.088 2.336-18.69-4.549-56.07 18.69-56.07 32.831 0-2.336 46.725-4.671 63.079-2.337 16.354-14.017 81.77-18.691 102.796-4.673 21.026-7.009 25.699-4.673 56.07 2.338 30.372 14.017 109.805 14.017 109.805l-28.035 7.009-46.727 7.008-4.672-14.017Z" stroke="#000" stroke-width="5" stroke-miterlimit="10"/><path d="M375.494 514.184c-11.682 4.673-60.743 28.035-81.77 44.389-21.026 16.354-46.725 44.389-58.407 51.399-11.681 7.01-49.061 25.698-63.079 35.045-14.017 9.344-77.097 63.079-88.778 70.087-11.681 7.008-35.044 25.698-39.716 32.705-4.673 7.011 14.017 35.046 18.69 37.38 4.672 2.338 28.035 4.673 30.371 0 2.336-4.672-11.681-7.009-14.017-11.681-2.337-4.673-4.673-9.345 0-18.69 4.672-9.346 21.026-18.693 46.725-32.708 25.699-14.018 112.141-51.4 133.167-60.743 21.027-9.345 105.132-39.718 109.805-42.053 0 0 11.681 7.009 42.052 7.009 30.372 0 79.434-4.672 91.114-7.009 11.68-2.336 65.415-11.681 65.415-11.681s-4.672 23.362-2.337 46.726c2.337 23.364 11.682 93.451 11.682 107.468 0 14.018 2.337 21.027 9.345 23.363 7.009 2.338 79.434 2.338 81.768 0 2.338-2.336 4.672-4.672-4.672-9.344s-25.698-4.672-35.045-7.01c-9.345-2.336-21.025-7.009-25.698-14.015-4.672-7.01-2.337-42.053 0-56.072 2.338-14.016 11.682-58.406 14.017-72.424 2.336-14.017 9.344-39.718 4.673-49.062-4.673-9.344-44.39-11.681-58.407-14.016-14.016-2.338-74.759-9.344-74.759-9.344l-28.036 16.353-84.103-56.072Z" fill="#fff" stroke="#000" stroke-width="5" stroke-miterlimit="10"/><path d="M375.494 514.184c-11.682 4.673-60.743 28.035-81.77 44.389-21.026 16.354-46.725 44.389-58.407 51.399-11.681 7.01-49.061 25.698-63.079 35.045-14.017 9.344-77.097 63.079-88.778 70.087-11.681 7.008-35.044 25.698-39.716 32.705-4.673 7.011 14.017 35.046 18.69 37.38 4.672 2.338 28.035 4.673 30.371 0 2.336-4.672-11.681-7.009-14.017-11.681-2.337-4.673-4.673-9.345 0-18.69 4.672-9.346 21.026-18.693 46.725-32.708 25.699-14.018 112.141-51.4 133.167-60.743 21.027-9.345 105.132-39.718 109.805-42.053 0 0 11.681 7.009 42.052 7.009 30.372 0 79.434-4.672 91.114-7.009 11.68-2.336 65.415-11.681 65.415-11.681s-4.672 23.362-2.337 46.726c2.337 23.364 11.682 93.451 11.682 107.468 0 14.018 2.337 21.027 9.345 23.363 7.009 2.338 79.434 2.338 81.768 0 2.338-2.336 4.672-4.672-4.672-9.344s-25.698-4.672-35.045-7.01c-9.345-2.336-21.025-7.009-25.698-14.015-4.672-7.01-2.337-42.053 0-56.072 2.338-14.016 11.682-58.406 14.017-72.424 2.336-14.017 9.344-39.718 4.673-49.062-4.673-9.344-44.39-11.681-58.407-14.016-14.016-2.338-74.759-9.344-74.759-9.344l-28.036 16.353-84.103-56.072Z" stroke="#000" stroke-width="5" stroke-miterlimit="10"/><path d="M599.573 741.556s-14.77 3.09-24.747 0" stroke="#000" stroke-width="5" stroke-miterlimit="10"/><path d="M588.094 504.839c2.337 18.692-4.673 53.734-7.009 74.76-2.338 21.026-7.01 42.052-7.01 63.08 0 21.027 7.01 109.804 11.682 116.814 4.672 7.009 11.682 7.009 23.363 11.682 11.682 4.671 21.027 4.671 25.697 9.344 4.673 4.672 0 4.671-7.009 4.671-7.008 0-42.051 4.673-51.397 0-9.347-4.671-14.018-23.362-23.363-70.086-9.345-46.727-14.018-109.805-14.018-135.503v-35.044l-7.009-28.036 16.354-14.017 32.708-2.337 7.011 4.672Z" fill="#fff" stroke="#000" stroke-width="5" stroke-miterlimit="10"/><path d="M588.094 504.839c2.337 18.692-4.673 53.734-7.009 74.76-2.338 21.026-7.01 42.052-7.01 63.08 0 21.027 7.01 109.804 11.682 116.814 4.672 7.009 11.682 7.009 23.363 11.682 11.682 4.671 21.027 4.671 25.697 9.344 4.673 4.672 0 4.671-7.009 4.671-7.008 0-42.051 4.673-51.397 0-9.347-4.671-14.018-23.362-23.363-70.086-9.345-46.727-14.018-109.805-14.018-135.503v-35.044l-7.009-28.036 16.354-14.017 32.708-2.337 7.011 4.672Z" stroke="#000" stroke-width="5" stroke-miterlimit="10"/><path d="M375.494 514.184c11.681-4.673 58.406-44.39 70.088-53.735 11.681-9.344 39.716-25.698 39.716-25.698s23.364 2.337 44.389 2.337c21.027 0 35.046-2.337 35.046-2.337s0 7.009 7.009 9.345c7.009 2.337 23.363 0 35.045-4.672 11.68-4.673 32.707 18.691 32.707 18.691s-46.726 16.354-53.733 28.035c0 0-2.338 2.337 0 9.345 2.337 7.009 2.337 9.343 2.337 9.343s-21.027-4.671-35.045 4.673c-14.017 9.345-14.017 28.035-14.017 32.708 0 0-9.345 9.345-30.371 14.016-21.026 4.673-35.045 4.673-49.061 14.017l-84.11-56.068Z" fill="#fff" stroke="#000" stroke-width="5" stroke-miterlimit="10"/><path d="M375.494 514.184c11.681-4.673 58.406-44.39 70.088-53.735 11.681-9.344 39.716-25.698 39.716-25.698s23.364 2.337 44.389 2.337c21.027 0 35.046-2.337 35.046-2.337s0 7.009 7.009 9.345c7.009 2.337 23.363 0 35.045-4.672 11.68-4.673 32.707 18.691 32.707 18.691s-46.726 16.354-53.733 28.035c0 0-2.338 2.337 0 9.345 2.337 7.009 2.337 9.343 2.337 9.343s-21.027-4.671-35.045 4.673c-14.017 9.345-14.017 28.035-14.017 32.708 0 0-9.345 9.345-30.371 14.016-21.026 4.673-35.045 4.673-49.061 14.017l-84.11-56.068Z" stroke="#000" stroke-width="5" stroke-miterlimit="10"/><path d="M642.428 456.971c8.458.065 13.092-6.519 21.818-9.748 13.858-5.119 17.81-27.649 8.983-41.603-11.657-18.428-80.157 18.404-75.212 30.08 2.93 6.913 15.045 15.758 30.682 18.394 5.03.846 13.729 2.877 13.729 2.877Z" fill="#fff" stroke="#000" stroke-width="5" stroke-miterlimit="10"/><path d="M642.428 456.971c8.458.065 13.092-6.519 21.818-9.748 13.858-5.119 17.81-27.649 8.983-41.603-11.657-18.428-80.157 18.404-75.212 30.08 2.93 6.913 15.045 15.758 30.682 18.394 5.03.846 13.729 2.877 13.729 2.877Z" stroke="#000" stroke-width="5" stroke-miterlimit="10"/><path d="M660.873 402.061c-11.785 6.874-28.487 27.643-16.252 40.437 13.756 14.379-.125 13.115-4.027 13.556-3.902.444-14.439-4.404-14.405-2.225.031 2.181 21.658 18.487 40.123 11.206 18.461-7.277 22.947-18.34 23.283-30.204.333-11.865-7.034-26.88-17.475-32.715-10.435-5.836-11.247-.055-11.247-.055Z" fill="#000" stroke="#000" stroke-width="5" stroke-miterlimit="10"/><path d="M565.607 438.547c-10.221 10.221-11.79 22.662-5.549 33.585 9.344 16.353 24.682 18.389 24.682 18.389M459.6 570.255c-4.671 2.337-11.681 7.01-11.681 7.01M90.848 709.862c4.417 9.913 16.021 22.63 16.021 22.63" stroke="#000" stroke-width="5" stroke-miterlimit="10"/></svg>