<svg width="800" height="800" fill="none" xmlns="http://www.w3.org/2000/svg"><path d="M402.24 384.63c6.558-18.312 11.694-65.929-41.656-62.294-33.866 2.311-84.334 1.123-102.818-23.85-18.488-24.971-44.255 43.082-14.864 71.806 29.392 28.721 74.697 33.984 104.643 15.105 29.951-18.875 54.695-.767 54.695-.767Z" fill="#100200" stroke="#000" stroke-width="5" stroke-miterlimit="10"/><path d="M408.342 514.672s-2.942 32.372-17.658 52.971c-14.714 20.6-38.256 67.685-44.142 85.342 0 0-27.868 65.472-35.314 85.343-2.434 6.492-3.526 11.864-3.831 16.243-.6 8.624 5.736 16.14 14.349 16.92 16.496 1.502 47.016 5.392 51.281 13.921 3.871 7.744-41.918 6.573-73.711 4.866-15.932-.855-27.727-15.137-25.557-30.943 5.296-38.654 15.496-103.843 25.698-118.121 14.713-20.6 52.971-135.37 108.885-126.542Z" fill="#fff" stroke="#000" stroke-width="5" stroke-miterlimit="10"/><path d="M408.342 514.672s-2.942 32.372-17.658 52.971c-14.714 20.6-38.256 67.685-44.142 85.342 0 0-27.868 65.472-35.314 85.343-2.434 6.492-3.526 11.864-3.831 16.243-.6 8.624 5.736 16.14 14.349 16.92 16.496 1.502 47.016 5.392 51.281 13.921 3.871 7.744-41.918 6.573-73.711 4.866-15.932-.855-27.727-15.137-25.557-30.943 5.296-38.654 15.496-103.843 25.698-118.121 14.713-20.6 52.971-135.37 108.885-126.542Z" stroke="#000" stroke-width="5" stroke-miterlimit="10"/><path d="M386.011 442.716s12.029 17.513-5.628 23.399c0 0-85.342-2.943-150.084 44.142s-61.8 147.141-61.8 147.141 50.029-55.913 88.285-41.198c0 0 55.913-58.857 73.571-55.914 0 0 17.657-2.942 38.257-20.599 20.6-17.658 39.384-72.41 53.532-72.991 14.154-.581-24.618-41.496-36.133-23.98Z" fill="#fff" stroke="#000" stroke-width="5" stroke-miterlimit="10"/><path d="M386.011 442.716s12.029 17.513-5.628 23.399c0 0-85.342-2.943-150.084 44.142s-61.8 147.141-61.8 147.141 50.029-55.913 88.285-41.198c0 0 55.913-58.857 73.571-55.914 0 0 17.657-2.942 38.257-20.599 20.6-17.658 39.384-72.41 53.532-72.991 14.154-.581-24.618-41.496-36.133-23.98Z" stroke="#000" stroke-width="5" stroke-miterlimit="10"/><path d="M393.099 437.538c-5.217-9.294-.762-18.407-2.509-29.991-2.771-18.41 19.685-36.458 40.449-35.199 27.414 1.664 28.406 99.625 12.516 101.264-9.409.965-26.527-7.021-38.935-22.676-3.993-5.034-11.521-13.398-11.521-13.398Z" fill="#fff" stroke="#000" stroke-width="5" stroke-miterlimit="10"/><path d="M393.099 437.538c-5.217-9.294-.762-18.407-2.509-29.991-2.771-18.41 19.685-36.458 40.449-35.199 27.414 1.664 28.406 99.625 12.516 101.264-9.409.965-26.527-7.021-38.935-22.676-3.993-5.034-11.521-13.398-11.521-13.398Z" stroke="#000" stroke-width="5" stroke-miterlimit="10"/><path d="M442.471 383.817c-.422 17.184-13.187 48.232-34.736 42.505-24.227-6.434-14.396 8.108-12.513 12.682 1.883 4.576 13.634 13.255 11.212 14.542-2.424 1.288-33.561-12.662-36.748-37.458-3.19-24.796 6.287-36.464 19.174-44.042 12.887-7.578 33.929-8.579 46.712-.607 12.786 7.972 6.899 12.378 6.899 12.378Z" fill="#100200" stroke="#000" stroke-width="5" stroke-miterlimit="10"/><path d="M170.923 623.689s-15.665 61.668 25.534 88.154c41.199 26.485 82.4-17.658 82.4-17.658s79.456-141.256 100.058-147.142c20.6-5.887 97.115-26.485 135.371-88.284 0 0 17.657-20.6 29.428-26.486 11.771-5.886 41.2-5.886 52.972-8.829 11.771-2.942 2.941-29.427 11.771-44.142C617.285 364.588 632 346.931 632 335.159c0-11.771-29.428 8.829-29.428 8.829l-61.799 52.97s-135.37 73.571-150.084 85.342c-14.714 11.772-123.602 67.686-150.088 117.714-.001 0-65.784 9.09-69.678 23.675Z" fill="#fff" stroke="#000" stroke-width="5" stroke-miterlimit="10"/><path d="M170.923 623.689s-15.665 61.668 25.534 88.154c41.199 26.485 82.4-17.658 82.4-17.658s79.456-141.256 100.058-147.142c20.6-5.887 97.115-26.485 135.371-88.284 0 0 17.657-20.6 29.428-26.486 11.771-5.886 41.2-5.886 52.972-8.829 11.771-2.942 2.941-29.427 11.771-44.142C617.285 364.588 632 346.931 632 335.159c0-11.771-29.428 8.829-29.428 8.829l-61.799 52.97s-135.37 73.571-150.084 85.342c-14.714 11.772-123.602 67.686-150.088 117.714-.001 0-65.784 9.09-69.678 23.675Z" stroke="#000" stroke-width="5" stroke-miterlimit="10"/><path d="M240.599 600.014s-14.714 17.657-23.542 41.198" stroke="#000" stroke-width="5" stroke-miterlimit="10"/><path d="M364.682 466.466s-8.917 20.741-6.176 35.944Z" fill="#fff"/><path d="M364.682 466.466s-8.917 20.741-6.176 35.944" stroke="#000" stroke-width="5" stroke-miterlimit="10"/><path d="M364.682 466.466s-8.917 20.741-6.176 35.944" stroke="#000" stroke-width="5" stroke-miterlimit="10"/><path d="M521.87 407.275s15.286 10.65 11.208 32.538Z" fill="#fff"/><path d="M521.87 407.275s15.286 10.65 11.208 32.538" stroke="#000" stroke-width="5" stroke-miterlimit="10"/><path d="M521.87 407.275s15.286 10.65 11.208 32.538" stroke="#000" stroke-width="5" stroke-miterlimit="10"/></svg>