<svg width="800" height="800" fill="none" xmlns="http://www.w3.org/2000/svg"><g clip-path="url(#a)"><path d="M289.58 731.546c10.92-18.705 36.704-24.272 58.261-42.988 0 0 31.974 13.957 39.286 16.096 27.493 8.053 54.197 12.302 82.414 16.266 49.059 6.891 89.553 22.987 138.283 26.354 17.403 1.203 38.699 4.369 58.227 5.993 1.313.108 8.302.571 12.28.577 28.718.031 41.825 1.485 61.628.031 16.503-1.21 32.701-16.613 41.237-7.792 5.947 6.14-37.132 31.406-49.399 36.965-9.385 4.253-38.258 20.203-37.397-3.447a.579.579 0 0 0-.537-.606c-46.307-2.473-88.793 8.409-134.326 13.178-33.299 3.491-60.011-5.212-95.351-4.682-29.123.436-72.849 5.385-104.023 5.364-16.928-.011-34.895-2.614-48.124-14.059-16.917-14.637-8.355-32.189-22.459-47.25Z" fill="#fff" stroke="#000" stroke-width="5" stroke-miterlimit="10"/><path d="M289.58 731.546c10.92-18.705 36.704-24.272 58.261-42.988 0 0 31.974 13.957 39.286 16.096 27.493 8.053 54.197 12.302 82.414 16.266 49.059 6.891 89.553 22.987 138.283 26.354 17.403 1.203 38.699 4.369 58.227 5.993 1.313.108 8.302.571 12.28.577 28.718.031 41.825 1.485 61.628.031 16.503-1.21 32.701-16.613 41.237-7.792 5.947 6.14-37.132 31.406-49.399 36.965-9.385 4.253-38.258 20.203-37.397-3.447a.579.579 0 0 0-.537-.606c-46.307-2.473-88.793 8.409-134.326 13.178-33.299 3.491-60.011-5.212-95.351-4.682-29.123.436-72.849 5.385-104.023 5.364-16.928-.011-34.895-2.614-48.124-14.059-16.917-14.637-8.355-32.189-22.459-47.25Z" stroke="#000" stroke-width="5" stroke-miterlimit="10"/><path d="M287.087 729.127c-24.212-21.426-64.592-28.437-99.034-31.428-4.101-.357-36.882-15.313-36.126-19.039.222-1.082-.299-2.049-.254-3.108-3.37-.731-5.061-1.88-8.672-2.621-23.202-4.771-41.086 1.562-62.326 11.744-6.347 3.048-12.246-2.22-10.448-9.248.023-.093.018-.216.066-.301 5.13-8.647 11.736-16.211 17.21-24.628 16.096-5.869 31.467-12.1 45.917-21.01 3.759-2.318 7.684-4.344 11.784-5.991.312-.124.632-.256.968-.395 14.215-5.891 30.171-13.91 45.7-15.998 21.892-2.941 37.605-.741 58.951 15.673 27.048 20.801 58.263 51.447 97.018 65.781 0 0-8.481 8.017-31.036 20.304-17.09 9.31-24.05 17.268-27.224 22.688l-2.494-2.423Z" fill="#fff" stroke="#000" stroke-width="5" stroke-miterlimit="10"/><path d="M287.087 729.127c-24.212-21.426-64.592-28.437-99.034-31.428-4.101-.357-36.882-15.313-36.126-19.039.222-1.082-.299-2.049-.254-3.108-3.37-.731-5.061-1.88-8.672-2.621-23.202-4.771-41.086 1.562-62.326 11.744-6.347 3.048-12.246-2.22-10.448-9.248.023-.093.018-.216.066-.301 5.13-8.647 11.736-16.211 17.21-24.628 16.096-5.869 31.467-12.1 45.917-21.01 3.759-2.318 7.684-4.344 11.784-5.991.312-.124.632-.256.968-.395 14.215-5.891 30.171-13.91 45.7-15.998 21.892-2.941 37.605-.741 58.951 15.673 27.048 20.801 58.263 51.447 97.018 65.781 0 0-8.481 8.017-31.036 20.304-17.09 9.31-24.05 17.268-27.224 22.688l-2.494-2.423Z" stroke="#000" stroke-width="5" stroke-miterlimit="10"/><path d="M135.121 671.707s-13.818-19.18 5.74-30.024c30.776-17.063 50.616 9.718 46.934 56.365" stroke="#000" stroke-width="5" stroke-miterlimit="10"/><path d="M130.333 671.367s-16.18-18.731 1.893-36.467c4.413-4.332 3.199-6.611 3.199-6.611" stroke="#000" stroke-width="5" stroke-miterlimit="10"/><path d="M135.856 657.881s-2.832 3.183.555 13.486c8.289 27.306 44.591 84.133 63.737 110.697 4.891 6.787 12.739 10.789 21.105 10.827 31.283.141 89.828.598 99.594.037 1.048-.06 2.094-.11 3.141-.154 7.327-.316 13.492.327 20.837.076 27.91-.944 52.327 1.193 52.253-.993-.198-6.212-18.628-12.402-32.222-13.352-5.5-.382-21.977 1.771-21.977 1.771-29.591-.909-69.756-19.947-109.444-21.49-3.457-.133-6.596-2.082-8.205-5.146l-39.462-72.904" fill="#fff"/><path d="M135.856 657.881s-2.832 3.183.555 13.486c8.289 27.306 44.591 84.133 63.737 110.697 4.891 6.787 12.739 10.789 21.105 10.827 31.283.141 89.828.598 99.594.037 1.048-.06 2.094-.11 3.141-.154 7.327-.316 13.492.327 20.837.076 27.91-.944 52.327 1.193 52.253-.993-.198-6.212-18.628-12.402-32.222-13.352-5.5-.382-21.977 1.771-21.977 1.771-29.591-.909-69.756-19.947-109.444-21.49-3.457-.133-6.596-2.082-8.205-5.146l-39.462-72.904" stroke="#000" stroke-width="5" stroke-miterlimit="10"/><path d="M135.856 657.881s-2.832 3.183.555 13.486c8.289 27.306 44.591 84.133 63.737 110.697 4.891 6.787 12.739 10.789 21.105 10.827 31.283.141 89.828.598 99.594.037 1.048-.06 2.094-.11 3.141-.154 7.327-.316 13.492.327 20.837.076 27.91-.944 52.327 1.193 52.253-.993-.198-6.212-18.628-12.402-32.222-13.352-5.5-.382-21.977 1.771-21.977 1.771-29.591-.909-69.756-19.947-109.444-21.49-3.457-.133-6.596-2.082-8.205-5.146l-39.462-72.904" stroke="#000" stroke-width="5" stroke-miterlimit="10"/><path d="M98.948 666.451c3.732 7.759-.328 14.88.488 24.31 1.294 14.981-17.742 28.382-34.424 26.308-22.026-2.743-17.813-81.774-4.913-82.281 7.639-.302 21.033 7.016 30.244 20.272 2.961 4.263 8.605 11.391 8.605 11.391Z" fill="#fff" stroke="#000" stroke-width="5" stroke-miterlimit="10"/><path d="M98.948 666.451c3.732 7.759-.328 14.88.488 24.31 1.294 14.981-17.742 28.382-34.424 26.308-22.026-2.743-17.813-81.774-4.913-82.281 7.639-.302 21.033 7.016 30.244 20.272 2.961 4.263 8.605 11.391 8.605 11.391Z" stroke="#000" stroke-width="5" stroke-miterlimit="10"/><path d="M56.376 707.235c1.22-13.83 13.108-38.207 30.192-32.491 19.211 6.432 12.025-5.799 10.741-9.584-1.285-3.783-10.32-11.385-8.297-12.3 2.02-.912 26.42 11.927 27.723 32.084 1.301 20.153-6.939 29.077-17.72 34.527-10.782 5.451-27.807 5.179-37.709-1.902-9.904-7.082-4.93-10.334-4.93-10.334Z" fill="#000" stroke="#000" stroke-width="5" stroke-miterlimit="10"/><path d="M56.696 708.931c-1.774 31.93-.284 36.871-22.03 43.798-22.176 7.065-15.699 32.027-11.088 34.346 20.805 10.478 103.495 4.78 122.42.193 18.925-4.586 14.194-32.732-1.184-37.735-15.376-4.998-28.256-16.301-28.173-30.713.083-14.411 6.924-23.488-2.264-42.969l-57.681 33.08Z" fill="#000" stroke="#000" stroke-width="5" stroke-miterlimit="10"/><path d="M693.903 753.998c-2.083 8.529-12.487 24.64-12.487 24.64" stroke="#000" stroke-width="5" stroke-miterlimit="10"/></g><defs><clipPath id="a"><path fill="#fff" d="M0 0h800v800H0z"/></clipPath></defs></svg>