<svg width="800" height="800" fill="none" xmlns="http://www.w3.org/2000/svg"><path d="M473.744 710.369c1.393-26.413-17.863-69.653-17.863-69.653-45.944 13.793-108.088 0-108.088 0s-18.417 62.201-16.601 75.116" fill="#fff"/><path d="M473.744 710.369c1.393-26.413-17.863-69.653-17.863-69.653-45.944 13.793-108.088 0-108.088 0s-18.417 62.201-16.601 75.116" stroke="#000" stroke-width="5" stroke-miterlimit="10"/><path d="M473.744 710.369c1.393-26.413-17.863-69.653-17.863-69.653-45.944 13.793-108.088 0-108.088 0s-18.417 62.201-16.601 75.116" stroke="#000" stroke-width="5" stroke-miterlimit="10"/><path d="M456.941 651.01c-35.609 9.74-72.153 10.185-109.971-1.984 5.092-44.318-1.365-86.951-1.365-86.951 9.915-28.861 6.162-53.059 6.162-53.059s10.237-3.724 23.42-14.013c13.184-10.319 9.727-45.07 9.727-45.07s.858.131 16.936.131 16.748-.131 16.748-.131-3.297 34.751 9.886 45.07c13.212 10.289 25.109 14.013 25.109 14.013s-5.411 24.198 4.474 53.059c0-.001-6.644 43.917-1.126 88.935Z" fill="#fff" stroke="#000" stroke-width="5" stroke-miterlimit="10"/><path d="M456.941 651.01c-35.609 9.74-72.153 10.185-109.971-1.984 5.092-44.318-1.365-86.951-1.365-86.951 9.915-28.861 6.162-53.059 6.162-53.059s10.237-3.724 23.42-14.013c13.184-10.319 9.727-45.07 9.727-45.07s.858.131 16.936.131 16.748-.131 16.748-.131-3.297 34.751 9.886 45.07c13.212 10.289 25.109 14.013 25.109 14.013s-5.411 24.198 4.474 53.059c0-.001-6.644 43.917-1.126 88.935Z" stroke="#000" stroke-width="5" stroke-miterlimit="10"/><path d="M386.601 683.19s-88.427-107.184-99.145-109.864c-10.719-2.681-29.476 0-32.156 13.398-2.355 11.78 9.787 89.824 14.575 117.625.702 4.061 1.712 8.044 2.843 12a35.564 35.564 0 0 1 1.339 9.714c0 8.039 0 13.398 2.68 32.156s-2.68 18.758-8.039 21.437c-5.359 2.679-10.719 5.36-2.679 10.718 0 0 21.437 2.679 32.155-2.68 10.718-5.36-2.679-29.476 0-37.515 2.68-8.038 10.718-16.077 5.36-29.475 0 0-5.36-5.36-8.039-10.719-2.679-5.36 2.679-40.194 0-56.272l-2.679-16.078s16.077 80.389 66.99 96.467c27.062 5.143 53.88 5.579 80.389 0 50.912-16.077 66.989-96.465 66.989-96.465l-2.679 16.078c-2.68 16.078 2.679 50.912 0 56.272-2.68 5.36-8.039 10.719-8.039 10.719-5.359 13.398 2.68 21.436 5.36 29.476 2.68 8.038-10.718 32.155 0 37.514 10.718 5.359 32.156 2.68 32.156 2.68 8.039-5.36 2.68-8.038-2.68-10.718-5.36-2.68-10.718-2.68-8.038-21.437 2.68-18.757 2.68-24.116 2.68-32.156 0-4.019.669-7.368 1.34-9.713 1.129-3.957 2.142-7.94 2.841-12 4.793-27.802 16.93-105.846 14.575-117.626-2.679-13.398-21.436-16.078-32.156-13.398-10.718 2.68-99.146 109.865-99.146 109.865" fill="#fff"/><path d="M386.601 683.19s-88.427-107.184-99.145-109.864c-10.719-2.681-29.476 0-32.156 13.398-2.355 11.78 9.787 89.824 14.575 117.625.702 4.061 1.712 8.044 2.843 12a35.564 35.564 0 0 1 1.339 9.714c0 8.039 0 13.398 2.68 32.156s-2.68 18.758-8.039 21.437c-5.359 2.679-10.719 5.36-2.679 10.718 0 0 21.437 2.679 32.155-2.68 10.718-5.36-2.679-29.476 0-37.515 2.68-8.038 10.718-16.077 5.36-29.475 0 0-5.36-5.36-8.039-10.719-2.679-5.36 2.679-40.194 0-56.272l-2.679-16.078s16.077 80.389 66.99 96.467c27.062 5.143 53.88 5.579 80.389 0 50.912-16.077 66.989-96.465 66.989-96.465l-2.679 16.078c-2.68 16.078 2.679 50.912 0 56.272-2.68 5.36-8.039 10.719-8.039 10.719-5.359 13.398 2.68 21.436 5.36 29.476 2.68 8.038-10.718 32.155 0 37.514 10.718 5.359 32.156 2.68 32.156 2.68 8.039-5.36 2.68-8.038-2.68-10.718-5.36-2.68-10.718-2.68-8.038-21.437 2.68-18.757 2.68-24.116 2.68-32.156 0-4.019.669-7.368 1.34-9.713 1.129-3.957 2.142-7.94 2.841-12 4.793-27.802 16.93-105.846 14.575-117.626-2.679-13.398-21.436-16.078-32.156-13.398-10.718 2.68-99.146 109.865-99.146 109.865" stroke="#000" stroke-width="5" stroke-miterlimit="10"/><path d="M386.601 683.19s-88.427-107.184-99.145-109.864c-10.719-2.681-29.476 0-32.156 13.398-2.355 11.78 9.787 89.824 14.575 117.625.702 4.061 1.712 8.044 2.843 12a35.564 35.564 0 0 1 1.339 9.714c0 8.039 0 13.398 2.68 32.156s-2.68 18.758-8.039 21.437c-5.359 2.679-10.719 5.36-2.679 10.718 0 0 21.437 2.679 32.155-2.68 10.718-5.36-2.679-29.476 0-37.515 2.68-8.038 10.718-16.077 5.36-29.475 0 0-5.36-5.36-8.039-10.719-2.679-5.36 2.679-40.194 0-56.272l-2.679-16.078s16.077 80.389 66.99 96.467c27.062 5.143 53.88 5.579 80.389 0 50.912-16.077 66.989-96.465 66.989-96.465l-2.679 16.078c-2.68 16.078 2.679 50.912 0 56.272-2.68 5.36-8.039 10.719-8.039 10.719-5.359 13.398 2.68 21.436 5.36 29.476 2.68 8.038-10.718 32.155 0 37.514 10.718 5.359 32.156 2.68 32.156 2.68 8.039-5.36 2.68-8.038-2.68-10.718-5.36-2.68-10.718-2.68-8.038-21.437 2.68-18.757 2.68-24.116 2.68-32.156 0-4.019.669-7.368 1.34-9.713 1.129-3.957 2.142-7.94 2.841-12 4.793-27.802 16.93-105.846 14.575-117.626-2.679-13.398-21.436-16.078-32.156-13.398-10.718 2.68-99.146 109.865-99.146 109.865" stroke="#000" stroke-width="5" stroke-miterlimit="10"/><path d="M372.492 378.044c-19.332 40.079 11.186 88.215 28.747 88.448 17.56.23 49.34-47.087 31.068-87.661-11.517-25.574-47.629-26.05-59.815-.787Z" fill="#fff" stroke="#000" stroke-width="5" stroke-miterlimit="10"/><path d="M372.492 378.044c-19.332 40.079 11.186 88.215 28.747 88.448 17.56.23 49.34-47.087 31.068-87.661-11.517-25.574-47.629-26.05-59.815-.787Z" stroke="#000" stroke-width="5" stroke-miterlimit="10"/><path d="M515.147 426.301c-15.417-8.466-11.506-19.323-25.187-30.177-13.676-10.858-30.622-3.526-37.777-21.064-7.089-17.375-30.185-27.298-50.311-27.056v-.002l-.033.002-.03-.002v.002c-20.125-.243-43.224 9.68-50.311 27.056-7.158 17.538-24.101 10.206-37.779 21.064-13.679 10.854-9.77 21.711-25.185 30.177-15.416 8.468-16.67 7.682-16.067 14.332.89 9.803 35.945 5.925 62.235 6.595 5.152.133 23.92 5.348 28.939 6.526 10.268 2.402 23.454 2.062 23.729-1.618.433-5.861-1.444-19.806-5.446-26.943-3.998-7.138-12.259-4.835-12.259-15.308 0-9.772 4.011-5.966 13.237-14.654 8.134-7.662 16.275-16.533 18.937-23.74 2.664 7.207 10.808 16.078 18.94 23.74 9.225 8.688 13.237 4.882 13.237 14.654 0 10.473-8.261 8.17-12.261 15.308-3.999 7.136-5.878 21.081-5.443 26.943.27 3.68 13.46 4.02 23.725 1.618 5.017-1.178 23.787-6.393 28.939-6.526 26.292-.67 61.347 3.208 62.237-6.595.606-6.65-.653-5.864-16.066-14.332Z" fill="#100200" stroke="#000" stroke-width="5" stroke-miterlimit="10"/><path d="M363.728 502.822s14.314 21.547 38.315 21.547c24.005 0 38.319-21.547 38.319-21.547" fill="#fff"/><path d="M363.728 502.822s14.314 21.547 38.315 21.547c24.005 0 38.319-21.547 38.319-21.547" stroke="#000" stroke-width="5" stroke-miterlimit="10"/><path d="M363.728 502.822s14.314 21.547 38.315 21.547c24.005 0 38.319-21.547 38.319-21.547" stroke="#000" stroke-width="5" stroke-miterlimit="10"/><path d="M389.566 626.918c3.73.389 5.247-45.554 7.867-48.233l2.624-2.679s2.623-2.68 2.623 8.037v49.532c0 4.941-4.638 8.5-9.282 7.125 0 0-.867-.267-1.208-.384-36.234 1.697-70.784 1.357-102.284-2.681-7.867-5.359-10.49-8.038-5.244-32.155 5.244-24.117 39.34-80.389 44.584-88.428 5.244-8.038 22.491-8.038 22.491-8.038 5.247 2.679-2.715 50.952-8.039 53.592-5.32 2.642-32.125 53.592-32.125 53.592s.57 2.682 77.993 10.72Z" fill="#fff" stroke="#000" stroke-width="5" stroke-miterlimit="10"/><path d="M389.566 626.918c3.73.389 5.247-45.554 7.867-48.233l2.624-2.679s2.623-2.68 2.623 8.037v49.532c0 4.941-4.638 8.5-9.282 7.125 0 0-.867-.267-1.208-.384-36.234 1.697-70.784 1.357-102.284-2.681-7.867-5.359-10.49-8.038-5.244-32.155 5.244-24.117 39.34-80.389 44.584-88.428 5.244-8.038 22.491-8.038 22.491-8.038 5.247 2.679-2.715 50.952-8.039 53.592-5.32 2.642-32.125 53.592-32.125 53.592s.57 2.682 77.993 10.72Z" stroke="#000" stroke-width="5" stroke-miterlimit="10"/><path d="M415.795 626.918c-3.732.389-5.247-45.554-7.871-48.233l-2.62-2.679s-2.624-2.68-2.624 8.037v49.532c0 4.941 4.637 8.5 9.281 7.125 0 0 .866-.267 1.209-.384 36.235 1.697 70.785 1.357 102.284-2.681 7.868-5.359 10.49-8.038 5.243-32.155-5.243-24.117-39.339-80.389-44.583-88.428-5.246-8.038-22.493-8.038-22.493-8.038-5.247 2.679.012 50.952 5.329 53.592 5.323 2.642 34.835 53.592 34.835 53.592s-.567 2.682-77.99 10.72Z" fill="#fff" stroke="#000" stroke-width="5" stroke-miterlimit="10"/><path d="M415.795 626.918c-3.732.389-5.247-45.554-7.871-48.233l-2.62-2.679s-2.624-2.68-2.624 8.037v49.532c0 4.941 4.637 8.5 9.281 7.125 0 0 .866-.267 1.209-.384 36.235 1.697 70.785 1.357 102.284-2.681 7.868-5.359 10.49-8.038 5.243-32.155-5.243-24.117-39.339-80.389-44.583-88.428-5.246-8.038-22.493-8.038-22.493-8.038-5.247 2.679.012 50.952 5.329 53.592 5.323 2.642 34.835 53.592 34.835 53.592s-.567 2.682-77.99 10.72Z" stroke="#000" stroke-width="5" stroke-miterlimit="10"/><path d="M269.251 700.667s16.933 3.172 25.608-3.13Z" fill="#fff"/><path d="M269.251 700.667s16.933 3.172 25.608-3.13" stroke="#000" stroke-width="5" stroke-miterlimit="10"/><path d="M269.251 700.667s16.933 3.172 25.608-3.13" stroke="#000" stroke-width="5" stroke-miterlimit="10"/><path d="M530.751 700.667s-16.936 3.172-25.611-3.13Z" fill="#fff"/><path d="M530.751 700.667s-16.936 3.172-25.611-3.13" stroke="#000" stroke-width="5" stroke-miterlimit="10"/><path d="M530.751 700.667s-16.936 3.172-25.611-3.13" stroke="#000" stroke-width="5" stroke-miterlimit="10"/></svg>