<svg width="800" height="800" fill="none" xmlns="http://www.w3.org/2000/svg"><path d="M369.331 142.419c-4.495-16.669-24.871-53.983-61.916-24.307-23.518 18.837-60.911 43.531-87.036 34.692-26.124-8.842-10.435 53.819 25.536 59.873 35.973 6.051 71.663-13.062 83.937-41.993 12.27-28.932 39.479-28.265 39.479-28.265Z" fill="#000" stroke="#000" stroke-width="5" stroke-miterlimit="10"/><path d="M681.416 785.269c-3.704-3.265-10.234-3.705-21.114-6.316-10.886-2.613-48.11-9.357-51.377-17.412-3.265-8.059-6.511-28.421-.876-79.746 5.634-51.322 15.786-74.704 16.619-97.107.836-22.399-5.441-23.168-31.875-41.9-26.433-18.731-76.894-44.43-100.663-58.27-23.773-13.841-35.499-47.153-35.499-47.153s-30.561 3.301-56.632 3.301c-26.069 0-56.632-3.301-56.632-3.301s-11.73 33.312-35.497 47.153c-23.772 13.84-74.23 39.539-100.664 58.27-26.436 18.732-32.713 19.501-31.88 41.9.833 22.403 10.988 45.785 16.623 97.107 5.633 51.325 2.389 71.687-.877 79.746-3.265 8.055-40.49 14.799-51.375 17.412-10.885 2.611-17.416 3.051-21.115 6.316-3.701 3.265-4.222 5.062 3.829 6.496 8.05 1.428 71.711 4.912 84.988 1.819 13.278-3.09 10.494-23.958 14.388-58.847 3.898-34.886 8.861-88.817 7.469-110.572-1.396-21.755-7.273-30.684-7.273-30.684s89.131-24.491 113.294-36.024c24.163-11.535 64.722-39.507 64.722-39.507s40.56 27.972 64.723 39.511c24.164 11.531 113.296 36.023 113.296 36.023s-5.878 8.93-7.273 30.685c-1.395 21.754 3.571 75.686 7.464 110.571 3.899 34.89 1.115 55.757 14.393 58.847 13.276 3.092 76.938-.392 84.99-1.819 8.049-1.437 7.527-3.233 3.824-6.499Z" fill="#fff" stroke="#000" stroke-width="5" stroke-miterlimit="10"/><path d="M681.416 785.269c-3.704-3.265-10.234-3.705-21.114-6.316-10.886-2.613-48.11-9.357-51.377-17.412-3.265-8.059-6.511-28.421-.876-79.746 5.634-51.322 15.786-74.704 16.619-97.107.836-22.399-5.441-23.168-31.875-41.9-26.433-18.731-76.894-44.43-100.663-58.27-23.773-13.841-35.499-47.153-35.499-47.153s-30.561 3.301-56.632 3.301c-26.069 0-56.632-3.301-56.632-3.301s-11.73 33.312-35.497 47.153c-23.772 13.84-74.23 39.539-100.664 58.27-26.436 18.732-32.713 19.501-31.88 41.9.833 22.403 10.988 45.785 16.623 97.107 5.633 51.325 2.389 71.687-.877 79.746-3.265 8.055-40.49 14.799-51.375 17.412-10.885 2.611-17.416 3.051-21.115 6.316-3.701 3.265-4.222 5.062 3.829 6.496 8.05 1.428 71.711 4.912 84.988 1.819 13.278-3.09 10.494-23.958 14.388-58.847 3.898-34.886 8.861-88.817 7.469-110.572-1.396-21.755-7.273-30.684-7.273-30.684s89.131-24.491 113.294-36.024c24.163-11.535 64.722-39.507 64.722-39.507s40.56 27.972 64.723 39.511c24.164 11.531 113.296 36.023 113.296 36.023s-5.878 8.93-7.273 30.685c-1.395 21.754 3.571 75.686 7.464 110.571 3.899 34.89 1.115 55.757 14.393 58.847 13.276 3.092 76.938-.392 84.99-1.819 8.049-1.437 7.527-3.233 3.824-6.499Z" stroke="#000" stroke-width="5" stroke-miterlimit="10"/><path d="M588.314 196.661c-10.194-29.736-11.062-58.608-22.004-75.682-10.935-17.074-21.438-10.446-19.402 1.005 2.038 11.451 4.763 24.806 9.12 32.426 4.353 7.617 6.311 8.924 8.052 17.633 1.746 8.707 12.627 96.653 10.888 109.061-1.745 12.409-136.49-2.395-144.111-8.056-7.618-5.658-20.349-18.317-18.12-60.424H387.26c2.228 42.107-10.499 54.766-18.119 60.424-7.62 5.661-142.368 20.465-144.11 8.056-1.74-12.408 9.144-100.355 10.885-109.061 1.742-8.709 3.702-10.015 8.054-17.633 4.354-7.62 7.081-20.975 9.12-32.426 2.036-11.452-8.468-18.08-19.405-1.005-10.938 17.074-11.809 45.946-22.002 75.682-10.195 29.734-25.4 108.714-20.851 113.99 4.547 5.273 8.187 5.5 64.676 6.152 38.71.449 66.002 1.893 79.341 1.842a8.495 8.495 0 0 1 8.355 6.792c1.708 8.229 4.304 22.428 5.691 48.62 2.176 41.143-5.528 63.309-5.528 63.309s26.1 4.501 56.632 3.303c30.53 1.196 56.629-3.303 56.629-3.303s-7.702-22.166-5.526-63.309c1.39-26.253 3.997-40.457 5.702-48.679a8.424 8.424 0 0 1 8.285-6.732c13.319.056 40.63-1.393 79.399-1.842 56.49-.653 60.131-.88 64.679-6.152 4.546-5.277-10.659-84.257-20.853-113.991Z" fill="#fff" stroke="#000" stroke-width="5" stroke-miterlimit="10"/><path d="M588.314 196.661c-10.194-29.736-11.062-58.608-22.004-75.682-10.935-17.074-21.438-10.446-19.402 1.005 2.038 11.451 4.763 24.806 9.12 32.426 4.353 7.617 6.311 8.924 8.052 17.633 1.746 8.707 12.627 96.653 10.888 109.061-1.745 12.409-136.49-2.395-144.111-8.056-7.618-5.658-20.349-18.317-18.12-60.424H387.26c2.228 42.107-10.499 54.766-18.119 60.424-7.62 5.661-142.368 20.465-144.11 8.056-1.74-12.408 9.144-100.355 10.885-109.061 1.742-8.709 3.702-10.015 8.054-17.633 4.354-7.62 7.081-20.975 9.12-32.426 2.036-11.452-8.468-18.08-19.405-1.005-10.938 17.074-11.809 45.946-22.002 75.682-10.195 29.734-25.4 108.714-20.851 113.99 4.547 5.273 8.187 5.5 64.676 6.152 38.71.449 66.002 1.893 79.341 1.842a8.495 8.495 0 0 1 8.355 6.792c1.708 8.229 4.304 22.428 5.691 48.62 2.176 41.143-5.528 63.309-5.528 63.309s26.1 4.501 56.632 3.303c30.53 1.196 56.629-3.303 56.629-3.303s-7.702-22.166-5.526-63.309c1.39-26.253 3.997-40.457 5.702-48.679a8.424 8.424 0 0 1 8.285-6.732c13.319.056 40.63-1.393 79.399-1.842 56.49-.653 60.131-.88 64.679-6.152 4.546-5.277-10.659-84.257-20.853-113.991Z" stroke="#000" stroke-width="5" stroke-miterlimit="10"/><path d="M464.49 279.559c-12.737 14.387-43.103 21.246-64.492 21.246-21.388 0-51.753-6.858-64.491-21.246" stroke="#000" stroke-width="5" stroke-miterlimit="10"/><path d="M377.069 201.104c-5.617-7.612-2.697-16.132-5.51-26.142-4.466-15.908 13.326-34.276 31.753-35.454 24.33-1.556 35.986 84.623 22.173 87.811-8.182 1.893-24.139-3.26-36.794-15.684-4.071-3.995-11.622-10.531-11.622-10.531Z" fill="#fff" stroke="#000" stroke-width="5" stroke-miterlimit="10"/><path d="M377.069 201.104c-5.617-7.612-2.697-16.132-5.51-26.142-4.466-15.908 13.326-34.276 31.753-35.454 24.33-1.556 35.986 84.623 22.173 87.811-8.182 1.893-24.139-3.26-36.794-15.684-4.071-3.995-11.622-10.531-11.622-10.531Z" stroke="#000" stroke-width="5" stroke-miterlimit="10"/><path d="M414.643 148.349c1.52 15.184-6.309 43.934-25.919 41.263-22.046-3.002-11.787 8.725-9.624 12.549 2.163 3.822 13.467 10.173 11.477 11.577-1.993 1.398-32.797-5.959-38.335-27.449-5.539-21.493-1.591-33.51 8.926-41.605 10.517-8.094 33.899-12.091 46.038-6.477 12.135 5.614 7.437 10.142 7.437 10.142Z" fill="#000" stroke="#000" stroke-width="5" stroke-miterlimit="10"/><path d="M605.172 738.001c-7.893 3.457-26.653 1.182-26.653 1.182M194.788 738.001c7.889 3.457 26.65 1.182 26.65 1.182M564.845 176.791c5.276-.288 14.828-2.013 16.584-5.069M219.763 166.349c5.541 4.932 16.533 3.926 16.533 3.926" stroke="#000" stroke-width="5" stroke-miterlimit="10"/></svg>