<svg width="800" height="800" fill="none" xmlns="http://www.w3.org/2000/svg"><path d="M663.836 559.098c-16.353-1.303-56.143 4.907-40.954 47.055 9.639 26.755 20.251 67.636 4.242 87.936-16.008 20.3 45.087 26.26 61.638-3.629 16.544-29.896 10.419-67.503-11.754-87.508-22.18-20.006-13.172-43.854-13.172-43.854Z" fill="#000" stroke="#000" stroke-width="5" stroke-miterlimit="10"/><path d="m648.95 449.12-30.969 6.083 8.594-47.884" fill="#fff"/><path d="m648.95 449.12-30.969 6.083 8.594-47.884" stroke="#000" stroke-width="5" stroke-miterlimit="10"/><path d="m648.95 449.12-30.969 6.083 8.594-47.884" stroke="#000" stroke-width="5" stroke-miterlimit="10"/><path d="M555.944 486.956s-2.259 111.889 1.279 135.593c3.539 23.701 29.753 103.625 29.753 103.625 3.869 15.153 1.212 27.925 10.31 44.859 9.095 16.932 10.934 14.741 12.646 12.428 1.713-2.318 4.387-46.565-6.401-59.178-3.553-4.151-3.593-5.016-4.739-7.69l-16.304-100.14 18.655-124.131-27.218-26.858-17.981 21.492Z" fill="#fff" stroke="#000" stroke-width="5" stroke-miterlimit="10"/><path d="M555.944 486.956s-2.259 111.889 1.279 135.593c3.539 23.701 29.753 103.625 29.753 103.625 3.869 15.153 1.212 27.925 10.31 44.859 9.095 16.932 10.934 14.741 12.646 12.428 1.713-2.318 4.387-46.565-6.401-59.178-3.553-4.151-3.593-5.016-4.739-7.69l-16.304-100.14 18.655-124.131-27.218-26.858-17.981 21.492Z" stroke="#000" stroke-width="5" stroke-miterlimit="10"/><path d="m626.575 407.316 27.17-108.797 24.916-93.482c1.581-4.811 1.477-9.269 1.341-12.869-.728-19.593 9.924-42.004 19.42-56.242 1.106-1.661 3.69-.95 3.772 1.039.408 9.643 7.461 15.838-7.271 57.406 0 0-11.938 85.106-17.813 107.241-5.875 22.135-29.158 147.506-29.158 147.506" fill="#fff"/><path d="m626.575 407.316 27.17-108.797 24.916-93.482c1.581-4.811 1.477-9.269 1.341-12.869-.728-19.593 9.924-42.004 19.42-56.242 1.106-1.661 3.69-.95 3.772 1.039.408 9.643 7.461 15.838-7.271 57.406 0 0-11.938 85.106-17.813 107.241-5.875 22.135-29.158 147.506-29.158 147.506" stroke="#000" stroke-width="5" stroke-miterlimit="10"/><path d="m626.575 407.316 27.17-108.797 24.916-93.482c1.581-4.811 1.477-9.269 1.341-12.869-.728-19.593 9.924-42.004 19.42-56.242 1.106-1.661 3.69-.95 3.772 1.039.408 9.643 7.461 15.838-7.271 57.406 0 0-11.938 85.106-17.813 107.241-5.875 22.135-29.158 147.506-29.158 147.506" stroke="#000" stroke-width="5" stroke-miterlimit="10"/><path d="M401.977 438.186c-37.155-21.72-53.565-48.52-89.94-71.535-37.412-23.669-69.155-48.734-105.642-74.257-13.026-9.118-27.057-20.269-43.517-28.43-4.478-2.225-13.015-10.183-19.463-6.366-14.037 8.312-27.354-22.757-35.022-33.64-13.246-18.8-30.785-59.123 9.769-13.735 4.971 5.567 17.852 13.001 24.976 16.776 41.488 21.982 71.682 35.252 113.918 51.982 27.032 10.717 51.163 25.803 77.893 36.584 24.79 10 46.028 17.671 73.445 24.245 24.127 5.789 40.313 10.013 61.01 16.331 0 0-7.884 23.598-8.659 48.001-1.289 40.645 5.07 58.205 5.07 58.205.617 2.167-6.546 5.76-6.359 8.297 1.521 20.597 3.769 47.892 1.657 64.836-3.885 31.182-5.415 52.291-11.687 80.987-9.618 44.001-18.217 85.387-14.76 130.146.501 6.479-.323 13.445 6.449 21.775 6.748 8.3 39.094 11.819 56.056 17.917 3.988 1.43 2.175 7.744-2.06 7.829l-75.731 1.071c-6.494.131-11.856-5.004-12.045-11.498-1.075-37.089.576-49.879-3.733-110.805-2.011-28.455-1.543-31.177-.829-56.435.589-20.818.077-47.069.979-67.741.916-21.074-9.658-80.898-1.992-111" fill="#fff"/><path d="M401.977 438.186c-37.155-21.72-53.565-48.52-89.94-71.535-37.412-23.669-69.155-48.734-105.642-74.257-13.026-9.118-27.057-20.269-43.517-28.43-4.478-2.225-13.015-10.183-19.463-6.366-14.037 8.312-27.354-22.757-35.022-33.64-13.246-18.8-30.785-59.123 9.769-13.735 4.971 5.567 17.852 13.001 24.976 16.776 41.488 21.982 71.682 35.252 113.918 51.982 27.032 10.717 51.163 25.803 77.893 36.584 24.79 10 46.028 17.671 73.445 24.245 24.127 5.789 40.313 10.013 61.01 16.331 0 0-7.884 23.598-8.659 48.001-1.289 40.645 5.07 58.205 5.07 58.205.617 2.167-6.546 5.76-6.359 8.297 1.521 20.597 3.769 47.892 1.657 64.836-3.885 31.182-5.415 52.291-11.687 80.987-9.618 44.001-18.217 85.387-14.76 130.146.501 6.479-.323 13.445 6.449 21.775 6.748 8.3 39.094 11.819 56.056 17.917 3.988 1.43 2.175 7.744-2.06 7.829l-75.731 1.071c-6.494.131-11.856-5.004-12.045-11.498-1.075-37.089.576-49.879-3.733-110.805-2.011-28.455-1.543-31.177-.829-56.435.589-20.818.077-47.069.979-67.741.916-21.074-9.658-80.898-1.992-111" stroke="#000" stroke-width="5" stroke-miterlimit="10"/><path d="M401.977 438.186c-37.155-21.72-53.565-48.52-89.94-71.535-37.412-23.669-69.155-48.734-105.642-74.257-13.026-9.118-27.057-20.269-43.517-28.43-4.478-2.225-13.015-10.183-19.463-6.366-14.037 8.312-27.354-22.757-35.022-33.64-13.246-18.8-30.785-59.123 9.769-13.735 4.971 5.567 17.852 13.001 24.976 16.776 41.488 21.982 71.682 35.252 113.918 51.982 27.032 10.717 51.163 25.803 77.893 36.584 24.79 10 46.028 17.671 73.445 24.245 24.127 5.789 40.313 10.013 61.01 16.331 0 0-7.884 23.598-8.659 48.001-1.289 40.645 5.07 58.205 5.07 58.205.617 2.167-6.546 5.76-6.359 8.297 1.521 20.597 3.769 47.892 1.657 64.836-3.885 31.182-5.415 52.291-11.687 80.987-9.618 44.001-18.217 85.387-14.76 130.146.501 6.479-.323 13.445 6.449 21.775 6.748 8.3 39.094 11.819 56.056 17.917 3.988 1.43 2.175 7.744-2.06 7.829l-75.731 1.071c-6.494.131-11.856-5.004-12.045-11.498-1.075-37.089.576-49.879-3.733-110.805-2.011-28.455-1.543-31.177-.829-56.435.589-20.818.077-47.069.979-67.741.916-21.074-9.658-80.898-1.992-111" stroke="#000" stroke-width="5" stroke-miterlimit="10"/><path d="M460.788 403.054c-1.846 28.158 1.803 48.923 5.028 59.295 0 0 46.957 2.649 90.129 24.609 0 0 22.312-9.741 42.268 22.756 0 0 15.842-22.62 56.401 13.189l18.441-2.212-5.95-21.845s-20.551-10.278-18.155-49.726c0 0-19.312-17.618-22.376-41.801 0 0-20.575-12.577-55.415-20.872-34.839-8.295-78.81-21.068-101.754-30.303.002 0-6.731 18.172-8.617 46.91Z" fill="#fff" stroke="#000" stroke-width="5" stroke-miterlimit="10"/><path d="M460.788 403.054c-1.846 28.158 1.803 48.923 5.028 59.295 0 0 46.957 2.649 90.129 24.609 0 0 22.312-9.741 42.268 22.756 0 0 15.842-22.62 56.401 13.189l18.441-2.212-5.95-21.845s-20.551-10.278-18.155-49.726c0 0-19.312-17.618-22.376-41.801 0 0-20.575-12.577-55.415-20.872-34.839-8.295-78.81-21.068-101.754-30.303.002 0-6.731 18.172-8.617 46.91Z" stroke="#000" stroke-width="5" stroke-miterlimit="10"/><path d="M651.973 526.485c.061 8.011 6.367 12.299 9.55 20.511 5.054 13.044 26.442 16.445 39.523 7.882 17.271-11.31-18.621-75.61-29.6-70.75-6.504 2.877-14.695 14.475-16.951 29.318-.731 4.776-2.522 13.039-2.522 13.039Z" fill="#fff" stroke="#000" stroke-width="5" stroke-miterlimit="10"/><path d="M651.973 526.485c.061 8.011 6.367 12.299 9.55 20.511 5.054 13.044 26.442 16.445 39.523 7.882 17.271-11.31-18.621-75.61-29.6-70.75-6.504 2.877-14.695 14.475-16.951 29.318-.731 4.776-2.522 13.039-2.522 13.039Z" stroke="#000" stroke-width="5" stroke-miterlimit="10"/><path d="M704.232 543.125c-6.683-11.053-26.596-26.554-38.525-14.78-13.408 13.239-12.416.08-12.895-3.606-.48-3.691 3.953-13.738 1.89-13.673-2.063.06-17.178 20.778-10.008 38.152 7.166 17.368 17.704 21.448 28.941 21.589 11.236.136 25.341-7.058 30.709-17.029 5.368-9.969-.112-10.653-.112-10.653Z" fill="#000" stroke="#000" stroke-width="5" stroke-miterlimit="10"/><path d="M648.95 458.889c-14.205-16.408-35.023-24.885-49.771-6.083-16.446 20.969-6.444 34.66 7.592 50.668M179.155 245.288c-2.56 5.675-4.754 16.533-5.869 24.377M406.582 732.251c2.736 2.773 22.885 2.392 27.371 0" stroke="#000" stroke-width="5" stroke-miterlimit="10"/></svg>