<svg width="800" height="800" fill="none" xmlns="http://www.w3.org/2000/svg"><path d="M444 359.528s25.437 49.051 30.215 51.438c4.778 2.389 28.662 11.943 33.441 21.498 4.776 9.554-14.332 16.719-14.332 16.719s-31.05-16.719-35.829-35.828c-4.777-19.109-27.303-37.863-27.303-37.863L444 359.528Z" fill="#fff" stroke="#000" stroke-width="5" stroke-miterlimit="10"/><path d="M444 359.528s25.437 49.051 30.215 51.438c4.778 2.389 28.662 11.943 33.441 21.498 4.776 9.554-14.332 16.719-14.332 16.719s-31.05-16.719-35.829-35.828c-4.777-19.109-27.303-37.863-27.303-37.863L444 359.528Z" stroke="#000" stroke-width="5" stroke-miterlimit="10"/><path d="M354.788 222.27s-9.556-2.388-16.72 2.389c-7.166 4.777-9.555 21.497-9.555 38.217s26.275 48.443 26.275 48.443 28.662-50.832 0-89.049Z" fill="#fff" stroke="#000" stroke-width="5" stroke-miterlimit="10"/><path d="M354.788 222.27s-9.556-2.388-16.72 2.389c-7.166 4.777-9.555 21.497-9.555 38.217s26.275 48.443 26.275 48.443 28.662-50.832 0-89.049Z" stroke="#000" stroke-width="5" stroke-miterlimit="10"/><path d="m400.903 410.085 52.549-19.109s-11.943-26.275-9.554-45.383c2.388-19.109 14.331-62.103 14.331-62.103s-11.943-11.943-11.943-31.051c0-19.109 4.776-31.051 4.776-31.051s-23.885 0-33.44-14.332c-9.555-14.331 0-52.548 0-52.548h-33.441v4.777s2.388 23.885 0 40.605c-2.027 14.187-19.109 21.497-28.662 21.497 0 0 4.776 16.72 4.776 33.44s-12.673 29.545-12.673 29.545 12.673 46.889 12.673 61.221c0 14.332-11.942 45.383-11.942 45.383l26.274 26.275 26.276-7.166Z" fill="#fff" stroke="#000" stroke-width="5" stroke-miterlimit="10"/><path d="m400.903 410.085 52.549-19.109s-11.943-26.275-9.554-45.383c2.388-19.109 14.331-62.103 14.331-62.103s-11.943-11.943-11.943-31.051c0-19.109 4.776-31.051 4.776-31.051s-23.885 0-33.44-14.332c-9.555-14.331 0-52.548 0-52.548h-33.441v4.777s2.388 23.885 0 40.605c-2.027 14.187-19.109 21.497-28.662 21.497 0 0 4.776 16.72 4.776 33.44s-12.673 29.545-12.673 29.545 12.673 46.889 12.673 61.221c0 14.332-11.942 45.383-11.942 45.383l26.274 26.275 26.276-7.166Z" stroke="#000" stroke-width="5" stroke-miterlimit="10"/><path d="M451.064 221.388c11.943 0 23.885 19.109 31.051 54.937 7.551 37.767 16.719 76.434 9.554 90.766-7.164 14.332-85.988-52.549-88.378-62.103V269.16c0-4.777 0-9.554 2.39-9.554 4.777 0 5.29 12.13 7.166 21.497 2.388 11.942 2.388 16.72 4.777 21.497 4.532 9.064 42.994 26.275 50.16 31.052l-9.555-50.16a36.947 36.947 0 0 1-17.24-34.399 36.799 36.799 0 0 1 3.049-11.899l7.026-15.806Z" fill="#fff" stroke="#000" stroke-width="5" stroke-miterlimit="10"/><path d="M451.064 221.388c11.943 0 23.885 19.109 31.051 54.937 7.551 37.767 16.719 76.434 9.554 90.766-7.164 14.332-85.988-52.549-88.378-62.103V269.16c0-4.777 0-9.554 2.39-9.554 4.777 0 5.29 12.13 7.166 21.497 2.388 11.942 2.388 16.72 4.777 21.497 4.532 9.064 42.994 26.275 50.16 31.052l-9.555-50.16a36.947 36.947 0 0 1-17.24-34.399 36.799 36.799 0 0 1 3.049-11.899l7.026-15.806Z" stroke="#000" stroke-width="5" stroke-miterlimit="10"/><path d="M364.342 611.606c-24.941 8.313-31.488-21.678-33.018-35.772a233.673 233.673 0 0 0-1.173-9.074c-7.234-48.961 18.202-175.783 18.202-175.783s29.976 6.913 53.68 7.154c21.439-.241 51.418-7.154 51.418-7.154s7.167 14.332 11.943 45.382c4.777 31.052 0 90.766-7.167 133.76-4.392 26.341-16.72 69.268-19.109 97.931-2.388 28.663-7.165 66.881-7.165 76.434 0 9.555 4.775 31.051 7.165 38.217 2.389 7.167-4.775 11.944-14.331 11.944-9.554 0-21.498 0-19.109-9.555 2.388-9.555 2.388-14.331 2.388-26.274 0-11.944-2.388-88.377-2.388-107.486 0-19.108-2.389-83.513-2.389-81.21.002-.001-17.45 34.321-38.947 41.486Z" fill="#fff" stroke="#000" stroke-width="5" stroke-miterlimit="10"/><path d="M364.342 611.606c-24.941 8.313-31.488-21.678-33.018-35.772a233.673 233.673 0 0 0-1.173-9.074c-7.234-48.961 18.202-175.783 18.202-175.783s29.976 6.913 53.68 7.154c21.439-.241 51.418-7.154 51.418-7.154s7.167 14.332 11.943 45.382c4.777 31.052 0 90.766-7.167 133.76-4.392 26.341-16.72 69.268-19.109 97.931-2.388 28.663-7.165 66.881-7.165 76.434 0 9.555 4.775 31.051 7.165 38.217 2.389 7.167-4.775 11.944-14.331 11.944-9.554 0-21.498 0-19.109-9.555 2.388-9.555 2.388-14.331 2.388-26.274 0-11.944-2.388-88.377-2.388-107.486 0-19.108-2.389-83.513-2.389-81.21.002-.001-17.45 34.321-38.947 41.486ZM365.415 219.621c13.989 11.322 35.485 11.322 35.485 11.322s21.69 1.241 37.122-11.322" stroke="#000" stroke-width="5" stroke-miterlimit="10"/><path d="M407.507 732.154c7.726 2.777 21.309 1.999 25.267 0" stroke="#000" stroke-width="5" stroke-miterlimit="10"/><path d="M364.342 561.446s4.777-23.887 62.104-54.937c0 0 19.109-11.943 21.497-23.886 2.388-11.943 2.388-35.828 14.332-31.051a26.92 26.92 0 0 0 23.028-1.446c5.052-2.794 10.859-10.718 15.189-12.885 9.554-4.776 31.051-9.554 16.72 11.943-12.499 18.746-31.051 31.051-40.606 40.605C467.052 499.343 402.56 571 402.56 571" fill="#fff"/><path d="M364.342 561.446s4.777-23.887 62.104-54.937c0 0 19.109-11.943 21.497-23.886 2.388-11.943 2.388-35.828 14.332-31.051a26.92 26.92 0 0 0 23.028-1.446c5.052-2.794 10.859-10.718 15.189-12.885 9.554-4.776 31.051-9.554 16.72 11.943-12.499 18.746-31.051 31.051-40.606 40.605C467.052 499.343 402.56 571 402.56 571" stroke="#000" stroke-width="5" stroke-miterlimit="10"/><path d="M364.342 561.446s4.777-23.887 62.104-54.937c0 0 19.109-11.943 21.497-23.886 2.388-11.943 2.388-35.828 14.332-31.051a26.92 26.92 0 0 0 23.028-1.446c5.052-2.794 10.859-10.718 15.189-12.885 9.554-4.776 31.051-9.554 16.72 11.943-12.499 18.746-31.051 31.051-40.606 40.605C467.052 499.343 402.56 571 402.56 571M403.291 520.442l-.735-42.595M403.291 520.442l-.735-42.595M347.622 284.372l-4.777-11.943M347.622 284.372l-4.777-11.943" stroke="#000" stroke-width="5" stroke-miterlimit="10"/><path d="M373.261 112.685c-17.235 35.726 9.971 78.636 25.626 78.842 15.651.207 43.978-41.97 27.691-78.137-10.268-22.8-42.454-23.222-53.317-.705Z" fill="#fff" stroke="#000" stroke-width="5" stroke-miterlimit="10"/><path d="M373.261 112.685c-17.235 35.726 9.971 78.636 25.626 78.842 15.651.207 43.978-41.97 27.691-78.137-10.268-22.8-42.454-23.222-53.317-.705Z" stroke="#000" stroke-width="5" stroke-miterlimit="10"/><path d="M500.424 155.703c-13.742-7.549-10.258-17.224-22.449-26.899-12.195-9.678-27.295-3.142-33.675-18.775-6.319-15.489-26.906-24.332-44.85-24.117h-.055c-17.943-.215-38.53 8.628-44.846 24.117-6.377 15.633-21.483 9.097-33.673 18.775-12.193 9.675-8.71 19.35-22.451 26.899-13.741 7.549-14.859 6.851-14.322 12.773.793 8.741 32.043 5.283 55.476 5.881 4.591.119 21.324 4.768 25.798 5.818 9.151 2.143 20.904 1.838 21.146-1.442.39-5.225-1.288-17.656-4.852-24.019-3.568-6.363-10.93-4.308-10.93-13.643 0-8.71 3.578-5.321 11.798-13.065 7.252-6.828 14.511-14.737 16.886-21.159 2.373 6.421 9.633 14.331 16.883 21.159 8.221 7.744 11.8 4.355 11.8 13.065 0 9.335-7.364 7.279-10.933 13.643-3.565 6.363-5.24 18.794-4.852 24.019.245 3.28 12.001 3.585 21.15 1.442 4.474-1.05 21.203-5.699 25.801-5.818 23.431-.598 54.679 2.86 55.473-5.881.535-5.922-.582-5.225-14.323-12.773Z" fill="#040004" stroke="#000" stroke-width="5" stroke-miterlimit="10"/><path d="M432.774 501.977s13.255 3.858 16.002 17.928" stroke="#000" stroke-width="5" stroke-miterlimit="10"/></svg>