<svg width="800" height="800" fill="none" xmlns="http://www.w3.org/2000/svg"><path d="M330.703 548.991s-6.173 50.682 13.237 115.748c4.023 13.49 10.674 25.93 17.87 38.031 1.227 2.061.938 4.167-3.646 5.31-11.007 2.751-46.782-8.255-85.308 5.503-38.526 13.759-49.533-2.751-49.533-2.751s-8.256-13.759-22.016 0c-8.694 8.694-9.835 17.624-22.014 19.264-.43.056-10.567 2.698-11.008 2.75-19.31 2.416-27.519 11.008-24.767 16.513 2.752 5.503 19.263 0 79.804-2.752 0 0 154.105 11.008 173.367 5.504 19.264-5.504 16.512-19.264 16.512-19.264 1.983-47.821.706-93.184-5.504-134.841l-76.994-49.015Z" fill="#fff" stroke="#000" stroke-width="5" stroke-miterlimit="10"/><path d="M330.703 548.991s-6.173 50.682 13.237 115.748c4.023 13.49 10.674 25.93 17.87 38.031 1.227 2.061.938 4.167-3.646 5.31-11.007 2.751-46.782-8.255-85.308 5.503-38.526 13.759-49.533-2.751-49.533-2.751s-8.256-13.759-22.016 0c-8.694 8.694-9.835 17.624-22.014 19.264-.43.056-10.567 2.698-11.008 2.75-19.31 2.416-27.519 11.008-24.767 16.513 2.752 5.503 19.263 0 79.804-2.752 0 0 154.105 11.008 173.367 5.504 19.264-5.504 16.512-19.264 16.512-19.264 1.983-47.821.706-93.184-5.504-134.841l-76.994-49.015Z" stroke="#000" stroke-width="5" stroke-miterlimit="10"/><path d="m511.469 472.457-37.725-86.345s-38.525-79.804-41.278-88.059c-2.752-8.255-34.556-19.884-34.556-19.884s-1.753-24.073 19.15-30.99c20.91-6.916 29.165 31.61 29.165 31.61s38.526 55.038 49.533 79.804c11.008 24.767 64.392 100.371 64.392 100.371l-48.681 13.493Z" fill="#fff" stroke="#000" stroke-width="5" stroke-miterlimit="10"/><path d="m511.469 472.457-37.725-86.345s-38.525-79.804-41.278-88.059c-2.752-8.255-34.556-19.884-34.556-19.884s-1.753-24.073 19.15-30.99c20.91-6.916 29.165 31.61 29.165 31.61s38.526 55.038 49.533 79.804c11.008 24.767 64.392 100.371 64.392 100.371l-48.681 13.493Z" stroke="#000" stroke-width="5" stroke-miterlimit="10"/><path d="M616.839 446.653s-8.254 19.263-16.512 30.27c-8.255 11.009-24.766 30.271-24.766 30.271l-8.255 33.022c-3.847 15.385-28.047 30.901-37.3 35.535a132.684 132.684 0 0 0-13.319 7.668C501.914 593.117 466.34 613.5 411 613.5c0 0 26.969-26.503 21.465-76.036 0 0 34.393-14.053 60.807-46.892 8.539-10.62 18.746-19.843 30.712-26.358 10.839-5.904 23.361-10.392 32.314-6.554 19.263 8.255 30.331-11.962 24.797-19.739" fill="#fff"/><path d="M616.839 446.653s-8.254 19.263-16.512 30.27c-8.255 11.009-24.766 30.271-24.766 30.271l-8.255 33.022c-3.847 15.385-28.047 30.901-37.3 35.535a132.684 132.684 0 0 0-13.319 7.668C501.914 593.117 466.34 613.5 411 613.5c0 0 26.969-26.503 21.465-76.036 0 0 34.393-14.053 60.807-46.892 8.539-10.62 18.746-19.843 30.712-26.358 10.839-5.904 23.361-10.392 32.314-6.554 19.263 8.255 30.331-11.962 24.797-19.739" stroke="#000" stroke-width="5" stroke-miterlimit="10"/><path d="M616.839 446.653s-8.254 19.263-16.512 30.27c-8.255 11.009-24.766 30.271-24.766 30.271l-8.255 33.022c-3.847 15.385-28.047 30.901-37.3 35.535a132.684 132.684 0 0 0-13.319 7.668c-14.773 9.698-53.649 31.098-108.989 31.098 0 0 30.271-27.52 24.767-77.053 0 0 34.393-14.053 60.807-46.892 8.539-10.62 18.746-19.843 30.712-26.358 10.839-5.904 23.361-10.392 32.314-6.554 19.263 8.255 30.331-11.962 24.797-19.739" stroke="#000" stroke-width="5" stroke-miterlimit="10" stroke-linejoin="bevel"/><path d="M577.296 439.294c-7.749-5.452-7.541-14.495-13.322-23.129-9.18-13.722 2.361-36.876 19.778-43.869 22.994-9.229 60.628 69.092 48.281 76.531-7.318 4.408-24.29 4.585-40.299-3.209-5.151-2.505-14.438-6.324-14.438-6.324Z" fill="#fff" stroke="#000" stroke-width="5" stroke-miterlimit="10"/><path d="M577.296 439.294c-7.749-5.452-7.541-14.495-13.322-23.129-9.18-13.722 2.361-36.876 19.778-43.869 22.994-9.229 60.628 69.092 48.281 76.531-7.318 4.408-24.29 4.585-40.299-3.209-5.151-2.505-14.438-6.324-14.438-6.324Z" stroke="#000" stroke-width="5" stroke-miterlimit="10"/><path d="M593.972 376.789c7.535 11.545.034 30.448-8.252 32.856-8.284 2.413-13.67 5.009-13.113 7.896.557 2.891 3.284 6.713 5.648 5.869 2.363-.851 6.62-4.546 9.127-.418 2.505 4.122 1.654 18.392-5.449 25.987-7.103 7.594-22.559 6.608-33.771-4.604-11.214-11.214-9.672-35.65-1.51-52.476 3.934-8.116 10.787-14.926 17.979-18.366 11.856-5.665 21.949-8.068 29.341 3.256Z" fill="#100200" stroke="#000" stroke-width="5" stroke-miterlimit="10"/><path d="M546.028 403.55c-1.956 8.879-1.547 19.25-13.029 26.159-11.484 6.906-19.243.135-25.523 6.235-6.284 6.1-12.429 30.147-24.64 35.924-12.214 5.773-15.141-4.689-28.661 1.414-11.567 5.219-.79 27.12-27.641 35.863-12.882 4.195-49.938-78.48-32.668-84.274 17.268-5.799 29.444 4.886 38.611.43 9.165-4.455 7.274-19.215 20.005-24.39 17.846-7.251 27.836 11.338 41.125 5.821 10.929-4.542 9.713-12.658 22.774-17.592 13.059-4.939 29.647 14.41 29.647 14.41Z" fill="#100200" stroke="#000" stroke-width="5" stroke-miterlimit="10"/><path d="M286.614 388.864s5.504 187.127 121.083 225.653c0 0 26.637-8.17 30.803-78.017 0 0-8.789 6.467-11.541-4.539-2.751-11.007-16.512-30.27-38.526-38.525-22.016-8.256-46.782-107.324-46.782-107.324s35.774-16.511 49.533-46.782c4.39-9.653 7.66-17.069 10.075-22.691 3.818-8.878 11.14-15.6 20.082-19.258 4.159-1.703 7.796-4.15 8.369-7.585 2.752-16.511-5.911-16.102 8.256-30.27 8.254-8.255 19.262-38.526 0-38.526-5.954 0-21.802 27.063-31.211 44.15a85.31 85.31 0 0 1-20.072 24.309c-19.578 16.346-55.673 46.354-64.295 52.623-30.271 22.015-35.774 33.023-35.774 35.775v11.007Z" fill="#fff" stroke="#000" stroke-width="5" stroke-miterlimit="10"/><path d="M286.614 388.864s5.504 187.127 121.083 225.653c0 0 26.137-5.67 30.303-75.517 0 0-8.289 3.967-11.041-7.039-2.751-11.007-16.512-30.27-38.526-38.525-22.016-8.256-46.782-107.324-46.782-107.324s35.774-16.511 49.533-46.782c4.39-9.653 7.66-17.069 10.075-22.691 3.818-8.878 11.14-15.6 20.082-19.258 4.159-1.703 7.796-4.15 8.369-7.585 2.752-16.511-5.911-16.102 8.256-30.27 8.254-8.255 19.262-38.526 0-38.526-5.954 0-21.802 27.063-31.211 44.15a85.31 85.31 0 0 1-20.072 24.309c-19.578 16.346-55.673 46.354-64.295 52.623-30.271 22.015-35.774 33.023-35.774 35.775v11.007Z" stroke="#000" stroke-width="5" stroke-miterlimit="10" stroke-linejoin="bevel"/><path d="M383.424 292.18s13.809 3.025 20.416 19.583Z" fill="#fff"/><path d="M383.424 292.18s13.809 3.025 20.416 19.583" stroke="#000" stroke-width="5" stroke-miterlimit="10"/><path d="M383.424 292.18s13.809 3.025 20.416 19.583" stroke="#000" stroke-width="5" stroke-miterlimit="10" stroke-linejoin="bevel"/><path d="M560.149 458.961s-3.229 16.562 4.406 26.218c7.668 9.698 26.926 16.67 6.25 41.041" fill="#fff"/><path d="M560.149 458.961s-3.229 16.562 4.406 26.218c7.668 9.698 26.926 16.67 6.25 41.041" stroke="#000" stroke-width="5" stroke-miterlimit="10"/><path d="M560.149 458.961s-3.229 16.562 4.406 26.218c7.668 9.698 26.926 16.67 6.25 41.041" stroke="#000" stroke-width="5" stroke-miterlimit="10"/><path d="M550.367 490.111c9.053-.994 25.194.572 27.947 22.587 2.539 20.314 6.879 103.884 8.255 137.595 1.375 33.71-6.346 108.47-.569 118.964 5.776 10.489 15.635 5.458 28.698 7.544 13.066 2.088 38.521 7.76 41.273 12.063 2.751 4.297-9.254 3.59-11.695 3.534-2.442-.054-58.367.806-64.507-.908-6.136-1.72-13.19.221-18.052-26.192-4.864-26.409-6.016-75.267-10.923-115.006-4.906-39.733-18.11-122.052-17.797-134.524.312-12.473 3.324-24.11 17.37-25.657Z" fill="#fff" stroke="#000" stroke-width="5" stroke-miterlimit="10"/><path d="M550.367 490.111c9.053-.994 25.194.572 27.947 22.587 2.539 20.314 6.879 103.884 8.255 137.595 1.375 33.71-6.346 108.47-.569 118.964 5.776 10.489 15.635 5.458 28.698 7.544 13.066 2.088 38.521 7.76 41.273 12.063 2.751 4.297-9.254 3.59-11.695 3.534-2.442-.054-58.367.806-64.507-.908-6.136-1.72-13.19.221-18.052-26.192-4.864-26.409-6.016-75.267-10.923-115.006-4.906-39.733-18.11-122.052-17.797-134.524.312-12.473 3.324-24.11 17.37-25.657Z" stroke="#000" stroke-width="5" stroke-miterlimit="10"/><path d="M397.909 278.167s20.26-2.058 19.15-30.988c-3.104-1.921-27.469 8.602-19.15 30.988Z" fill="#fff" stroke="#000" stroke-width="5" stroke-miterlimit="10"/><path d="M397.909 278.167s20.26-2.058 19.15-30.988c-3.104-1.921-27.469 8.602-19.15 30.988Z" stroke="#000" stroke-width="5" stroke-miterlimit="10"/><path d="M252.904 718.569s-12.29 3.531-7.177 29.545Z" fill="#fff"/><path d="M252.904 718.569s-12.29 3.531-7.177 29.545" stroke="#000" stroke-width="5" stroke-miterlimit="10"/><path d="M252.904 718.569s-12.29 3.531-7.177 29.545" stroke="#000" stroke-width="5" stroke-miterlimit="10"/></svg>