<svg width="800" height="800" fill="none" xmlns="http://www.w3.org/2000/svg"><path d="M389.497 572.069c2.008 8.428 11.006 16.016 11.006 16.016l-7.729 20.845-21.563-17.189 18.286-19.672Z" fill="#fff" stroke="#000" stroke-width="5" stroke-miterlimit="10"/><path d="M389.497 572.069c2.008 8.428 11.006 16.016 11.006 16.016l-7.729 20.845-21.563-17.189 18.286-19.672ZM369.919 450.454l-55.718-9.519M369.919 450.454l-55.718-9.519" stroke="#000" stroke-width="5" stroke-miterlimit="10"/><path d="m340.994 445.514 28.925 4.938s2.485 27.236 10.774 46.04c8.287 18.807 13.786 62.225 14.583 68.137 0 0-8.028-19.812-25.015-18.943-19.376.99-25.771 28.102-22.204 43.383 0 0-10.055-10.225-18.413-13.879-8.362-3.656-16.315-17.41-15.433-26.66.885-9.25 7.029-35.617 5.649-46.664-1.376-11.047-5.983-59.431-5.663-60.929l26.797 4.577Z" fill="#fff" stroke="#000" stroke-width="5" stroke-miterlimit="10"/><path d="m340.994 445.514 28.925 4.938s2.485 27.236 10.774 46.04c8.287 18.807 13.786 62.225 14.583 68.137 0 0-8.028-19.812-25.015-18.943-19.376.99-25.771 28.102-22.204 43.383 0 0-10.055-10.225-18.413-13.879-8.362-3.656-16.315-17.41-15.433-26.66.885-9.25 7.029-35.617 5.649-46.664-1.376-11.047-5.983-59.431-5.663-60.929l26.797 4.577Z" stroke="#000" stroke-width="5" stroke-miterlimit="10"/><path d="M342.059 445.696c8.744 1.495 27.859 4.758 27.859 4.758s-1.038-13.446 1.819-17.974c2.854-4.524 15.313-22.867 16.767-38.235 1.452-15.37.883-27.971-7.875-47.892-8.758-19.925-11.479-52.304-6.213-72.3 5.262-19.999 14.208-45.194 14.266-70.563.053-25.366-.403-60.45.402-70.739.801-10.291 2.453-26.277 4.596-29.741 2.145-3.463 6.95.068 10.03-3.305 3.081-3.375.615-10.264-4.354-21.299-4.974-11.037-15.001-37.058-17.555-43.87-2.551-6.809-9.861-7.518-9.261-1.119.604 6.395 1.357 19.417 1.024 33.148-.333 13.727-1.306 41.539-3.581 54.266-2.274 12.724-10.648 47.381-16.063 64.734-5.409 17.347-26.956 76.45-29.484 89.979-2.534 13.53-13.629 64.234-15.194 99.738-1.563 35.5 4.959 65.655 4.959 65.655l27.858 4.759Z" fill="#fff" stroke="#000" stroke-width="5" stroke-miterlimit="10"/><path d="M342.059 445.696c8.744 1.495 27.859 4.758 27.859 4.758s-1.038-13.446 1.819-17.974c2.854-4.524 15.313-22.867 16.767-38.235 1.452-15.37.883-27.971-7.875-47.892-8.758-19.925-11.479-52.304-6.213-72.3 5.262-19.999 14.208-45.194 14.266-70.563.053-25.366-.403-60.45.402-70.739.801-10.291 2.453-26.277 4.596-29.741 2.145-3.463 6.95.068 10.03-3.305 3.081-3.375.615-10.264-4.354-21.299-4.974-11.037-15.001-37.058-17.555-43.87-2.551-6.809-9.861-7.518-9.261-1.119.604 6.395 1.357 19.417 1.024 33.148-.333 13.727-1.306 41.539-3.581 54.266-2.274 12.724-10.648 47.381-16.063 64.734-5.409 17.347-26.956 76.45-29.484 89.979-2.534 13.53-13.629 64.234-15.194 99.738-1.563 35.5 4.959 65.655 4.959 65.655l27.858 4.759ZM389.886 122.46l-19.199-7.292M389.886 122.46l-19.199-7.292" stroke="#000" stroke-width="5" stroke-miterlimit="10"/><path d="M397.654 582.061c4.996-5.549 12.046-4.641 19.344-8.4 11.592-5.977 28.614 4.875 32.442 18.937 5.056 18.565-59.732 41.229-64.39 31.057-2.758-6.027-1.3-19.184 6.302-30.936 2.445-3.779 6.302-10.658 6.302-10.658Z" fill="#fff" stroke="#000" stroke-width="5" stroke-miterlimit="10"/><path d="M397.654 582.061c4.996-5.549 12.046-4.641 19.344-8.4 11.592-5.977 28.614 4.875 32.442 18.937 5.056 18.565-59.732 41.229-64.39 31.057-2.758-6.027-1.3-19.184 6.302-30.936 2.445-3.779 6.302-10.658 6.302-10.658Z" stroke="#000" stroke-width="5" stroke-miterlimit="10"/><path d="M444.398 602.76c-11.499 3.58-34.972 2.082-36.012-13.504-1.171-17.525-8.612-7.732-11.229-5.453-2.612 2.272-5.731 12.022-7.131 10.703-1.401-1.318-.588-26.302 15.15-33.99 15.743-7.685 25.657-6.533 33.583.315 7.925 6.847 14.722 24.295 12.302 34.568-2.415 10.279-6.663 7.361-6.663 7.361Z" fill="#000" stroke="#000" stroke-width="5" stroke-miterlimit="10"/><path d="M436.248 566.36c-5.771-5.986-14.78-23.879 7.259-28.004 18.107-3.391 13.504-10.023 26.107-18.922 10.129-7.152 24.995 2.565 21.979 27.776-2.745 22.947-15.881 17.361-30.771 14.515-14.888-2.844-24.574 4.635-24.574 4.635Z" fill="#000" stroke="#000" stroke-width="5" stroke-miterlimit="10"/><path d="M358.581 549.151c8.838-6.641 28.653-4.723 36.242 14.416 0 0 1.315 7.018-2.594 15.43-3.908 8.41-6.556 8.449-6.275 15.474.282 7.022.452 49.533-.68 62.957-1.133 13.42-3.268 33.938-2.862 51.071.404 17.134-2.006 67.222-.584 70.812 1.423 3.584 10.081 3.25 13.208 3.697 3.127.442 21.26 4.145 26.011 7.58 4.752 3.438-1.78 3.567-6.317 3.426-4.539-.146-36.426-.476-42.422-.662-6.002-.189-5.546-8.152-5.957-14.35-.41-6.199-4.309-38.836-5.286-46.843-.977-8.01-6.384-57.35-7.227-82.114-.844-24.763-2.385-47.242-3.906-53.601-1.521-6.354-3.214-9.018-2.49-22.033.722-13.018 11.139-25.26 11.139-25.26Z" fill="#fff" stroke="#000" stroke-width="5" stroke-miterlimit="10"/><path d="M358.581 549.151c8.838-6.641 28.653-4.723 36.242 14.416 0 0 1.315 7.018-2.594 15.43-3.908 8.41-6.556 8.449-6.275 15.474.282 7.022.452 49.533-.68 62.957-1.133 13.42-3.268 33.938-2.862 51.071.404 17.134-2.006 67.222-.584 70.812 1.423 3.584 10.081 3.25 13.208 3.697 3.127.442 21.26 4.145 26.011 7.58 4.752 3.438-1.78 3.567-6.317 3.426-4.539-.146-36.426-.476-42.422-.662-6.002-.189-5.546-8.152-5.957-14.35-.41-6.199-4.309-38.836-5.286-46.843-.977-8.01-6.384-57.35-7.227-82.114-.844-24.763-2.385-47.242-3.906-53.601-1.521-6.354-3.214-9.018-2.49-22.033.722-13.018 11.139-25.26 11.139-25.26Z" stroke="#000" stroke-width="5" stroke-miterlimit="10"/></svg>