<svg width="800" height="800" viewBox="0 0 800 800" fill="none" xmlns="http://www.w3.org/2000/svg">
<path d="M389.497 572.069C391.505 580.497 400.503 588.085 400.503 588.085L392.774 608.93L371.211 591.741L389.497 572.069Z" fill="white" stroke="black" stroke-width="5" stroke-miterlimit="10"/>
<path d="M389.497 572.069C391.505 580.497 400.503 588.085 400.503 588.085L392.774 608.93L371.211 591.741L389.497 572.069Z" stroke="black" stroke-width="5" stroke-miterlimit="10"/>
<path d="M369.919 450.454L314.201 440.935" stroke="black" stroke-width="5" stroke-miterlimit="10"/>
<path d="M369.919 450.454L314.201 440.935" stroke="black" stroke-width="5" stroke-miterlimit="10"/>
<path d="M340.994 445.514C351.363 447.285 369.919 450.452 369.919 450.452C369.919 450.452 372.404 477.688 380.693 496.492C388.98 515.299 394.479 558.717 395.276 564.629C395.276 564.629 387.248 544.817 370.261 545.686C350.885 546.676 344.49 573.788 348.057 589.069C348.057 589.069 338.002 578.844 329.644 575.19C321.282 571.534 313.329 557.78 314.211 548.53C315.096 539.28 321.24 512.913 319.86 501.866C318.484 490.819 313.877 442.435 314.197 440.937L340.994 445.514Z" fill="white" stroke="black" stroke-width="5" stroke-miterlimit="10"/>
<path d="M340.994 445.514C351.363 447.285 369.919 450.452 369.919 450.452C369.919 450.452 372.404 477.688 380.693 496.492C388.98 515.299 394.479 558.717 395.276 564.629C395.276 564.629 387.248 544.817 370.261 545.686C350.885 546.676 344.49 573.788 348.057 589.069C348.057 589.069 338.002 578.844 329.644 575.19C321.282 571.534 313.329 557.78 314.211 548.53C315.096 539.28 321.24 512.913 319.86 501.866C318.484 490.819 313.877 442.435 314.197 440.937L340.994 445.514Z" stroke="black" stroke-width="5" stroke-miterlimit="10"/>
<path d="M342.059 445.696C350.803 447.191 369.918 450.454 369.918 450.454C369.918 450.454 368.88 437.008 371.737 432.48C374.591 427.956 387.05 409.613 388.504 394.245C389.956 378.875 389.387 366.274 380.629 346.353C371.871 326.428 369.15 294.049 374.416 274.053C379.678 254.054 388.624 228.859 388.682 203.49C388.735 178.124 388.279 143.04 389.084 132.751C389.885 122.46 391.537 106.474 393.68 103.01C395.825 99.5472 400.63 103.078 403.71 99.7052C406.791 96.3302 404.325 89.4412 399.356 78.4062C394.382 67.3692 384.355 41.3482 381.801 34.5362C379.25 27.7272 371.94 27.0182 372.54 33.4172C373.144 39.8122 373.897 52.8342 373.564 66.5652C373.231 80.2922 372.258 108.104 369.983 120.831C367.709 133.555 359.335 168.212 353.92 185.565C348.511 202.912 326.964 262.015 324.436 275.544C321.902 289.074 310.807 339.778 309.242 375.282C307.679 410.782 314.201 440.937 314.201 440.937L342.059 445.696Z" fill="white" stroke="black" stroke-width="5" stroke-miterlimit="10"/>
<path d="M342.059 445.696C350.803 447.191 369.918 450.454 369.918 450.454C369.918 450.454 368.88 437.008 371.737 432.48C374.591 427.956 387.05 409.613 388.504 394.245C389.956 378.875 389.387 366.274 380.629 346.353C371.871 326.428 369.15 294.049 374.416 274.053C379.678 254.054 388.624 228.859 388.682 203.49C388.735 178.124 388.279 143.04 389.084 132.751C389.885 122.46 391.537 106.474 393.68 103.01C395.825 99.5472 400.63 103.078 403.71 99.7052C406.791 96.3302 404.325 89.4412 399.356 78.4062C394.382 67.3692 384.355 41.3482 381.801 34.5362C379.25 27.7272 371.94 27.0182 372.54 33.4172C373.144 39.8122 373.897 52.8342 373.564 66.5652C373.231 80.2922 372.258 108.104 369.983 120.831C367.709 133.555 359.335 168.212 353.92 185.565C348.511 202.912 326.964 262.015 324.436 275.544C321.902 289.074 310.807 339.778 309.242 375.282C307.679 410.782 314.201 440.937 314.201 440.937L342.059 445.696Z" stroke="black" stroke-width="5" stroke-miterlimit="10"/>
<path d="M389.886 122.46L370.687 115.168" stroke="black" stroke-width="5" stroke-miterlimit="10"/>
<path d="M389.886 122.46L370.687 115.168" stroke="black" stroke-width="5" stroke-miterlimit="10"/>
<path d="M397.654 582.061C402.65 576.512 409.7 577.42 416.998 573.661C428.59 567.684 445.612 578.536 449.44 592.598C454.496 611.163 389.708 633.827 385.05 623.655C382.292 617.628 383.75 604.471 391.352 592.719C393.797 588.94 397.654 582.061 397.654 582.061Z" fill="white" stroke="black" stroke-width="5" stroke-miterlimit="10"/>
<path d="M397.654 582.061C402.65 576.512 409.7 577.42 416.998 573.661C428.59 567.684 445.612 578.536 449.44 592.598C454.496 611.163 389.708 633.827 385.05 623.655C382.292 617.628 383.75 604.471 391.352 592.719C393.797 588.94 397.654 582.061 397.654 582.061Z" stroke="black" stroke-width="5" stroke-miterlimit="10"/>
<path d="M444.398 602.76C432.899 606.34 409.426 604.842 408.386 589.256C407.215 571.731 399.774 581.524 397.157 583.803C394.545 586.075 391.426 595.825 390.026 594.506C388.625 593.188 389.438 568.204 405.176 560.516C420.919 552.831 430.833 553.983 438.759 560.831C446.684 567.678 453.481 585.126 451.061 595.399C448.646 605.678 444.398 602.76 444.398 602.76Z" fill="black" stroke="black" stroke-width="5" stroke-miterlimit="10"/>
<path d="M436.248 566.36C430.477 560.374 421.468 542.481 443.507 538.356C461.614 534.965 457.011 528.333 469.614 519.434C479.743 512.282 494.609 521.999 491.593 547.21C488.848 570.157 475.712 564.571 460.822 561.725C445.934 558.881 436.248 566.36 436.248 566.36Z" fill="black" stroke="black" stroke-width="5" stroke-miterlimit="10"/>
<path d="M358.581 549.151C367.419 542.51 387.234 544.428 394.823 563.567C394.823 563.567 396.138 570.585 392.229 578.997C388.321 587.407 385.673 587.446 385.954 594.471C386.236 601.493 386.406 644.004 385.274 657.428C384.141 670.848 382.006 691.366 382.412 708.499C382.816 725.633 380.406 775.721 381.828 779.311C383.251 782.895 391.909 782.561 395.036 783.008C398.163 783.45 416.296 787.153 421.047 790.588C425.799 794.026 419.267 794.155 414.73 794.014C410.191 793.868 378.304 793.538 372.308 793.352C366.306 793.163 366.762 785.2 366.351 779.002C365.941 772.803 362.042 740.166 361.065 732.159C360.088 724.149 354.681 674.809 353.838 650.045C352.994 625.282 351.453 602.803 349.932 596.444C348.411 590.09 346.718 587.426 347.442 574.411C348.164 561.393 358.581 549.151 358.581 549.151Z" fill="white" stroke="black" stroke-width="5" stroke-miterlimit="10"/>
<path d="M358.581 549.151C367.419 542.51 387.234 544.428 394.823 563.567C394.823 563.567 396.138 570.585 392.229 578.997C388.321 587.407 385.673 587.446 385.954 594.471C386.236 601.493 386.406 644.004 385.274 657.428C384.141 670.848 382.006 691.366 382.412 708.499C382.816 725.633 380.406 775.721 381.828 779.311C383.251 782.895 391.909 782.561 395.036 783.008C398.163 783.45 416.296 787.153 421.047 790.588C425.799 794.026 419.267 794.155 414.73 794.014C410.191 793.868 378.304 793.538 372.308 793.352C366.306 793.163 366.762 785.2 366.351 779.002C365.941 772.803 362.042 740.166 361.065 732.159C360.088 724.149 354.681 674.809 353.838 650.045C352.994 625.282 351.453 602.803 349.932 596.444C348.411 590.09 346.718 587.426 347.442 574.411C348.164 561.393 358.581 549.151 358.581 549.151Z" stroke="black" stroke-width="5" stroke-miterlimit="10"/>
</svg>
