<svg width="800" height="800" fill="none" xmlns="http://www.w3.org/2000/svg"><g clip-path="url(#a)" stroke="#000" stroke-width="5" stroke-miterlimit="10"><path d="M223.141 760.032c14.001-16.818 39.205-42.046 39.205-42.046s53.207 14.015 89.612-22.423c36.405-36.439 100.814 30.833 100.814 30.833l81.211 30.833s14.001 28.029 30.804 36.438c0 0-33.605 0-72.81-2.803-39.204-2.804-134.418 0-154.021 0-19.602 0-30.087-4.169-39.205-22.424-8.401-16.817-75.61-8.408-75.61-8.408Z" fill="#fff"/><path d="M223.141 760.032c14.001-16.818 39.205-42.046 39.205-42.046s53.207 14.015 89.612-22.423c36.405-36.439 100.814 30.833 100.814 30.833l81.211 30.833s14.001 28.029 30.804 36.438c0 0-33.605 0-72.81-2.803-39.204-2.804-134.418 0-154.021 0-19.602 0-30.087-4.169-39.205-22.424-8.401-16.817-75.61-8.408-75.61-8.408Z"/><path d="M564.788 793.669c22.403 2.803 78.411 5.606 92.412-25.228 14.002-30.833.247-69.24-33.605-78.484-30.804-8.409-86.812-11.213-109.215-11.213h-53.208s5.601-89.696 5.601-137.347c0-47.651-5.601-70.075-5.601-89.696 0-19.621 11.203-33.636-2.8-33.636-14.004 0-72.811-5.606-81.212 0-8.401 5.606-5.633 11.611 28.004 14.015 39.206 2.802 36.405 33.636 36.405 33.636s-44.807 196.21-47.607 227.043c-2.801 30.833 22.404 47.651 56.008 53.256 33.606 5.607 84.012 11.214 84.012 11.214a70.667 70.667 0 0 0 28.686 35.12l2.12 1.32Z" fill="#fff"/><path d="M564.788 793.669c22.403 2.803 78.411 5.606 92.412-25.228 14.002-30.833.247-69.24-33.605-78.484-30.804-8.409-86.812-11.213-109.215-11.213h-53.208s5.601-89.696 5.601-137.347c0-47.651-5.601-70.075-5.601-89.696 0-19.621 11.203-33.636-2.8-33.636-14.004 0-72.811-5.606-81.212 0-8.401 5.606-5.633 11.611 28.004 14.015 39.206 2.802 36.405 33.636 36.405 33.636s-44.807 196.21-47.607 227.043c-2.801 30.833 22.404 47.651 56.008 53.256 33.606 5.607 84.012 11.214 84.012 11.214a70.667 70.667 0 0 0 28.686 35.12l2.12 1.32Z"/><path d="M462.342 470.296c-12.37-1.774-17.971-1.774-26.372 1.029"/><path d="M312.048 731.613c-2.101 4.073-8.998 13.873-9.44 18.204-1.055 10.218-1.622 23.365 10.146 32.015 11.765 8.643 32.13-.759 38.477-13.786 6.348-13.02 5.777-17.415 8.144-23.187 2.363-5.768 26.12-48.359 41.11-80.091 14.991-31.736 29.152-80.543 32.954-111.375 3.796-30.834 8.231-64.004 10.096-76.618 1.865-12.613 8.845-51.27 3.285-65.112-5.561-13.837-16.729-13.125-20.505 5.878-3.783 18.999-1.332 40.372-3.957 60.171-2.624 19.793-14.991 74.744-23.393 98.57-8.401 23.825-4.436 23.171-32.676 76.382-28.24 53.208-54.241 78.949-54.241 78.949Z" fill="#fff"/><path d="M312.048 731.613c-2.101 4.073-8.998 13.873-9.44 18.204-1.055 10.218-1.622 23.365 10.146 32.015 11.765 8.643 32.13-.759 38.477-13.786 6.348-13.02 5.777-17.415 8.144-23.187 2.363-5.768 26.12-48.359 41.11-80.091 14.991-31.736 29.152-80.543 32.954-111.375 3.796-30.834 8.231-64.004 10.096-76.618 1.865-12.613 8.845-51.27 3.285-65.112-5.561-13.837-16.729-13.125-20.505 5.878-3.783 18.999-1.332 40.372-3.957 60.171-2.624 19.793-14.991 74.744-23.393 98.57-8.401 23.825-4.436 23.171-32.676 76.382-28.24 53.208-54.241 78.949-54.241 78.949Z"/><path d="M242.194 750.293c-8.609 5.239-16.274 3.768-27.167 5.797-17.303 3.233-35.103-17.415-34.603-37.093.667-25.984 93.214-30.166 95.287-15.194 1.091 7.889-5.719 20.091-17.721 30.866-3.799 3.405-7.523 6.898-11.029 10.598l-4.767 5.026Z" fill="#fff"/><path d="M242.194 750.293c-8.609 5.239-16.274 3.768-27.167 5.797-17.303 3.233-35.103-17.415-34.603-37.093.667-25.984 93.214-30.166 95.287-15.194 1.091 7.889-5.719 20.091-17.721 30.866-3.799 3.405-7.523 6.898-11.029 10.598l-4.767 5.026Z"/><path d="M192.659 704.005c14.527-.039 26.943 17.458 24.32 26.177-2.622 8.718-3.413 14.975-.539 16.142 2.875 1.163 7.821.95 8.429-1.631.605-2.579-.219-8.47 4.863-8.319 5.089.151 17.22 9.1 19.859 19.747 2.642 10.648-7.097 23.768-23.447 27.249-16.349 3.49-37.075-11.906-47.278-28.797-4.923-8.146-7.012-18.121-5.921-26.464 1.788-13.752 5.449-24.063 19.714-24.104Z" fill="#000"/><path d="M296.128 765.25c-1.578-20.632 13.409-41.038 25.518-50.459"/><path d="M70.062 774.745c2.237 11.069 8.99 23.397 27.48 19.82 13.996-2.709 32.303-22.523 41.222-24.948 8.913-2.43 12.625 7.771 26.752 7.246 14.133-.524 19.045-10.299 25.385-17.502 0 0-5.451-26.306-20.033-28.405s-17.597 6.013-30.009 4.631c-15.094-1.675-14.832-23.926-35.013-26.324-14.396-1.708-25.549 3.009-30.926 12.319-8.96 15.516-8.863 33.361-4.858 53.163Z" fill="#000"/></g><defs><clipPath id="a"><path fill="#fff" d="M0 0h800v800H0z"/></clipPath></defs></svg>