<svg width="800" height="800" fill="none" xmlns="http://www.w3.org/2000/svg"><path d="M350.008 530.73c11.346 1.936 31.648 5.406 31.648 5.406s2.716 29.797 11.789 50.375c9.067 20.575 15.081 68.081 15.956 74.551 0 0-8.783-21.678-27.371-20.729-21.197 1.084-28.195 30.75-24.294 47.47 0 0-10.999-11.188-20.147-15.188-9.152-4-17.851-19.047-16.884-29.171.965-10.121 7.686-38.971 6.179-51.06-1.504-12.083-6.546-65.023-6.193-66.662l29.317 5.008Z" fill="#fff" stroke="#000" stroke-width="5" stroke-miterlimit="10"/><path d="M350.008 530.73c11.346 1.936 31.648 5.406 31.648 5.406s2.716 29.797 11.789 50.375c9.067 20.575 15.081 68.081 15.956 74.551 0 0-8.783-21.678-27.371-20.729-21.197 1.084-28.195 30.75-24.294 47.47 0 0-10.999-11.188-20.147-15.188-9.152-4-17.851-19.047-16.884-29.171.965-10.121 7.686-38.971 6.179-51.06-1.504-12.083-6.546-65.023-6.193-66.662l29.317 5.008ZM381.656 536.136l-60.964-10.413M381.656 536.136l-60.964-10.413" stroke="#000" stroke-width="5" stroke-miterlimit="10"/><path d="M351.173 530.928c9.568 1.636 30.483 5.208 30.483 5.208s-1.135-14.715 1.989-19.666c3.121-4.949 16.755-25.021 18.347-41.835 1.59-16.817.969-30.603-8.615-52.403-9.589-21.8-12.56-57.227-6.802-79.107 5.761-21.879 15.547-49.449 15.608-77.204.06-27.757-.438-66.142.44-77.401.879-11.258 2.685-28.753 5.032-32.543 2.345-3.789 7.603.075 10.973-3.615 3.372-3.692.676-11.23-4.766-23.304-5.439-12.074-16.412-40.547-19.203-48-2.792-7.45-10.797-8.226-10.139-1.226.66 6.998 1.489 21.246 1.124 36.269-.365 15.021-1.426 45.451-3.92 59.375-2.488 13.923-11.651 51.845-17.571 70.829-5.923 18.983-29.501 83.649-32.267 98.453-2.771 14.804-14.909 70.282-16.621 109.129-1.712 38.842 5.427 71.834 5.427 71.834l30.481 5.207Z" fill="#fff" stroke="#000" stroke-width="5" stroke-miterlimit="10"/><path d="M351.173 530.928c9.568 1.636 30.483 5.208 30.483 5.208s-1.135-14.715 1.989-19.666c3.121-4.949 16.755-25.021 18.347-41.835 1.59-16.817.969-30.603-8.615-52.403-9.589-21.8-12.56-57.227-6.802-79.107 5.761-21.879 15.547-49.449 15.608-77.204.06-27.757-.438-66.142.44-77.401.879-11.258 2.685-28.753 5.032-32.543 2.345-3.789 7.603.075 10.973-3.615 3.372-3.692.676-11.23-4.766-23.304-5.439-12.074-16.412-40.547-19.203-48-2.792-7.45-10.797-8.226-10.139-1.226.66 6.998 1.489 21.246 1.124 36.269-.365 15.021-1.426 45.451-3.92 59.375-2.488 13.923-11.651 51.845-17.571 70.829-5.923 18.983-29.501 83.649-32.267 98.453-2.771 14.804-14.909 70.282-16.621 109.129-1.712 38.842 5.427 71.834 5.427 71.834l30.481 5.207Z" stroke="#000" stroke-width="5" stroke-miterlimit="10"/><path d="M427.086 734.299c1.463 8.039-4.039 13.534-5.663 22.369-2.586 14.033-23.363 21.515-38.1 15.425-19.456-8.043 4.257-79.301 16.182-76.526 7.06 1.645 17.48 11.706 22.572 26.149 1.638 4.643 5.009 12.583 5.009 12.583Z" fill="#fff" stroke="#000" stroke-width="5" stroke-miterlimit="10"/><path d="M427.086 734.299c1.463 8.039-4.039 13.534-5.663 22.369-2.586 14.033-23.363 21.515-38.1 15.425-19.456-8.043 4.257-79.301 16.182-76.526 7.06 1.645 17.48 11.706 22.572 26.149 1.638 4.643 5.009 12.583 5.009 12.583Z" stroke="#000" stroke-width="5" stroke-miterlimit="10"/><path d="M377.897 760.928c4.593-12.35 21.588-31.67 35.781-22.147 15.955 10.707 12.455-2.287 12.233-6.072-.227-3.786-6.579-13.008-4.5-13.337 2.076-.331 23.167 17.084 19.293 35.857-3.87 18.768-11.5 26.588-22.731 28.868-11.235 2.279-30.888-3.506-38.162-12.472-7.28-8.969-1.914-10.697-1.914-10.697Z" fill="#000" stroke="#000" stroke-width="5" stroke-miterlimit="10"/><path d="M374.382 643.299c6.063-3.429 15.948-7.093 27.718 3.738 0 0 6.75 7.066 9.465 14.024 0 0 .565 6.735-2.354 16.59-2.92 9.856-48.298 78.749-47.581 83.841.724 5.096 68.051 12.849 80.484 13.699 12.43.853 14.103 1.741 22.655-3.75 8.556-5.488 20.918 2.724 19.925 11.563-.995 8.844-10.471 11.512-16.921 10.987-6.446-.52-8.066-3.087-22.598-1.488-14.527 1.598-61.72 2.22-89.141 1.955-27.425-.264-32.715-1.167-35.032-7.299-2.316-6.138 2.806-34.345 11.911-63.231 4.48-14.213 25.425-57.054 30.68-67.509 5.258-10.46 10.789-13.12 10.789-13.12Z" fill="#fff" stroke="#000" stroke-width="5" stroke-miterlimit="10"/><path d="M374.382 643.299c6.063-3.429 15.948-7.093 27.718 3.738 0 0 6.75 7.066 9.465 14.024 0 0 .565 6.735-2.354 16.59-2.92 9.856-48.298 78.749-47.581 83.841.724 5.096 68.051 12.849 80.484 13.699 12.43.853 14.103 1.741 22.655-3.75 8.556-5.488 20.918 2.724 19.925 11.563-.995 8.844-10.471 11.512-16.921 10.987-6.446-.52-8.066-3.087-22.598-1.488-14.527 1.598-61.72 2.22-89.141 1.955-27.425-.264-32.715-1.167-35.032-7.299-2.316-6.138 2.806-34.345 11.911-63.231 4.48-14.213 25.425-57.054 30.68-67.509 5.258-10.46 10.789-13.12 10.789-13.12Z" stroke="#000" stroke-width="5" stroke-miterlimit="10"/><path d="M402.21 200.244c-8.036-4.872-24.043-7.856-24.043-7.856Z" fill="#fff"/><path d="M402.21 200.244c-8.036-4.872-24.043-7.856-24.043-7.856" stroke="#000" stroke-width="5" stroke-miterlimit="10"/><path d="M402.21 200.244c-8.036-4.872-24.043-7.856-24.043-7.856" stroke="#000" stroke-width="5" stroke-miterlimit="10"/></svg>