<svg width="800" height="800" fill="none" xmlns="http://www.w3.org/2000/svg"><path d="m442.432 649.507 28.388 36.207s25.806 14.824 28.181 24.327c2.376 9.503-7.127 4.752-7.127 4.752l-47.514-45.138-1.928-20.148Z" fill="#fff" stroke="#000" stroke-width="5" stroke-miterlimit="10"/><path d="m442.432 649.507 28.388 36.207s25.806 14.824 28.181 24.327c2.376 9.503-7.127 4.752-7.127 4.752l-47.514-45.138-1.928-20.148Z" stroke="#000" stroke-width="5" stroke-miterlimit="10"/><path d="M444.606 670.092c-2.835-15.586-4.267-53.808-.742-74.01 1.459-8.384 17.524-37.979 2.872-61.84-17.106-27.856-43.035-72.519-31.425-91.201 8.427-13.554-24.548-23.558-24.548-23.558s5.246 33.654-2.329 47.314c-7.57 13.661-26.95 29.302-26.761 58.604.186 29.297 6.718 54.242 7.708 76.811.989 22.569-7.504 61.615-10.546 69.82l38.011 40.387 47.76-42.327Z" fill="#fff" stroke="#000" stroke-width="5" stroke-miterlimit="10"/><path d="M444.606 670.092c-2.835-15.586-4.267-53.808-.742-74.01 1.459-8.384 17.524-37.979 2.872-61.84-17.106-27.856-43.035-72.519-31.425-91.201 8.427-13.554-24.548-23.558-24.548-23.558s5.246 33.654-2.329 47.314c-7.57 13.661-26.95 29.302-26.761 58.604.186 29.297 6.718 54.242 7.708 76.811.989 22.569-7.504 61.615-10.546 69.82l38.011 40.387 47.76-42.327Z" stroke="#000" stroke-width="5" stroke-miterlimit="10"/><path d="M364.074 557.736c14.483 9.206 33.534 16.045 48.056 1.524 0 0 17.771-21.802 8.104-42.402-12.609-26.857-47.938-26.857-47.938-26.857" stroke="#000" stroke-width="5" stroke-miterlimit="10"/><path d="M376.671 483.506s35.573 4.475 45.959 24.471c3.868 7.443 12.227 14.385 16.978 12.009" stroke="#000" stroke-width="5" stroke-miterlimit="10"/><path d="M383.279 383.379c-4.087-15.158-22.616-49.095-56.309-22.107-21.389 17.133-55.396 39.591-79.152 31.55-23.762-8.038-9.491 48.947 23.223 54.45s65.173-11.878 76.333-38.189c11.159-26.309 35.905-25.704 35.905-25.704Z" fill="#100200" stroke="#000" stroke-width="5" stroke-miterlimit="10"/><path d="M390.318 436.748c-5.109-6.918-2.455-14.667-5.012-23.775-4.063-14.465 12.12-31.171 28.876-32.242 22.126-1.412 32.728 76.96 20.165 79.862-7.441 1.717-21.952-2.969-33.46-14.265-3.702-3.631-10.569-9.58-10.569-9.58Z" fill="#fff" stroke="#000" stroke-width="5" stroke-miterlimit="10"/><path d="M390.318 436.748c-5.109-6.918-2.455-14.667-5.012-23.775-4.063-14.465 12.12-31.171 28.876-32.242 22.126-1.412 32.728 76.96 20.165 79.862-7.441 1.717-21.952-2.969-33.46-14.265-3.702-3.631-10.569-9.58-10.569-9.58Z" stroke="#000" stroke-width="5" stroke-miterlimit="10"/><path d="M424.49 388.773c1.383 13.806-5.738 39.955-23.572 37.526-20.052-2.731-10.721 7.934-8.754 11.41 1.967 3.475 12.25 9.254 10.439 10.528-1.813 1.276-29.83-5.42-34.864-24.963-5.036-19.544-1.448-30.474 8.118-37.834 9.564-7.362 30.829-10.999 41.867-5.892 11.039 5.106 6.766 9.225 6.766 9.225Z" fill="#100200" stroke="#000" stroke-width="5" stroke-miterlimit="10"/><path d="M363.587 650.649c16.824-33.64 72.078 20.057 80.773 19.005 16.63 4.752 106.906 80.774 116.408 97.403 5.897 10.314 2.376 11.878 0 16.629-2.375 4.751-4.751 9.503-38.01 9.503-33.26 0-95.028-21.38-106.906-28.508s-26.133-7.127-30.884-7.127c-4.751 0-9.503 9.503-9.503 9.503s-4.751 9.503 0 14.254c4.752 4.751 2.376 4.751 2.376 4.751s-19.006 2.375-21.381-2.376c-2.375-4.751-2.375-7.126-2.375-14.254 0-7.127 4.751-9.503 4.751-16.629 0-7.127 0-11.878 2.376-16.629 2.375-4.752 11.878 0 11.878 0l26.132 7.126c-9.503-2.375-16.629-4.751-16.629-4.751-8.248-2.746-14.19-3.956-19.006-7.127 0 0-16.629-14.254-16.629-33.26 0-19.005 7.127-30.883 7.127-30.883s7.126-11.879 9.502-16.63Z" fill="#fff" stroke="#000" stroke-width="5" stroke-miterlimit="10"/><path d="M363.587 650.649c16.824-33.64 72.078 20.057 80.773 19.005 16.63 4.752 106.906 80.774 116.408 97.403 5.897 10.314 2.376 11.878 0 16.629-2.375 4.751-4.751 9.503-38.01 9.503-33.26 0-95.028-21.38-106.906-28.508s-26.133-7.127-30.884-7.127c-4.751 0-9.503 9.503-9.503 9.503s-4.751 9.503 0 14.254c4.752 4.751 2.376 4.751 2.376 4.751s-19.006 2.375-21.381-2.376c-2.375-4.751-2.375-7.126-2.375-14.254 0-7.127 4.751-9.503 4.751-16.629 0-7.127 0-11.878 2.376-16.629 2.375-4.752 11.878 0 11.878 0l26.132 7.126c-9.503-2.375-16.629-4.751-16.629-4.751-8.248-2.746-14.19-3.956-19.006-7.127 0 0-16.629-14.254-16.629-33.26 0-19.005 7.127-30.883 7.127-30.883s7.126-11.879 9.502-16.63Z" stroke="#000" stroke-width="5" stroke-miterlimit="10"/><path d="M513.255 778.935s-32.067-20.61-75.957-25.859a43.243 43.243 0 0 1-4.849-.844c-7.939-1.895-32.903-7.934-35.218-9.475" stroke="#000" stroke-width="5" stroke-miterlimit="10"/><path d="M372.5 490.5s-5.568 5.249-8.427 17.366c-2.627 11.131-10.856 52.107 17.254 110.241 4.765 9.856 11.519 18.6 19.694 25.878 16.404 14.604 45.408 40.994 50.466 49.426 7.127 11.877 35.635 26.132 40.386 28.508 4.751 2.375 9.503-2.376 7.127-7.127-2.376-4.752-35.635-38.011-40.386-38.011-4.202 0-25.118-26.307-41.403-48.832a41.587 41.587 0 0 1-7.544-19.128c-2.209-17.237-6.362-51.379-8.069-76.957" fill="#fff"/><path d="M372.5 490.5s-5.568 5.249-8.427 17.366c-2.627 11.131-10.856 52.107 17.254 110.241 4.765 9.856 11.519 18.6 19.694 25.878 16.404 14.604 45.408 40.994 50.466 49.426 7.127 11.877 35.635 26.132 40.386 28.508 4.751 2.375 9.503-2.376 7.127-7.127-2.376-4.752-35.635-38.011-40.386-38.011-4.202 0-25.118-26.307-41.403-48.832a41.587 41.587 0 0 1-7.544-19.128c-2.209-17.237-6.362-51.379-8.069-76.957" stroke="#000" stroke-width="5" stroke-miterlimit="10"/><path d="M372 492.5c-4.952 2.352-4.493 8.281-6.071 13.125-1.434 4.956-2.362 10.361-2.967 15.623a144.36 144.36 0 0 0 .128 32.021c2.356 21.315 9.025 41.996 18.079 61.419 4.25 9.804 10.507 18.576 18.163 25.956 7.894 7.201 16.049 14.398 23.93 21.748 7.901 7.367 15.783 14.75 23.192 22.704 1.849 2.007 3.655 4.037 5.311 6.333l2.266 3.262c.85.971 1.646 1.982 2.601 2.877 3.728 3.68 8.055 6.849 12.491 9.809 4.452 2.952 9.067 5.689 13.767 8.273a272.49 272.49 0 0 0 7.108 3.768c1.15.559 2.52 1.353 3.391 1.587.984.257 2.019.167 2.882-.325 1.791-.971 2.483-3.299 1.507-5.185-.443-.848-1.389-1.967-2.204-2.95a110.996 110.996 0 0 0-2.642-2.995c-3.607-3.951-7.38-7.791-11.199-11.57-3.824-3.774-7.721-7.48-11.712-11.059-1.999-1.783-4.022-3.537-6.096-5.189a50.408 50.408 0 0 0-3.147-2.341 17.332 17.332 0 0 0-1.572-.931c-.177-.057-.555-.254-.543-.204a.124.124 0 0 1-.047-.028l-.446-.06a2.592 2.592 0 0 1-.801-.237c-1.677-.77-2.588-1.707-3.686-2.636a63.886 63.886 0 0 1-2.963-2.895c-1.902-1.967-3.708-3.997-5.489-6.045-3.555-4.103-6.964-8.302-10.328-12.536a692.912 692.912 0 0 1-19.471-25.966 42.89 42.89 0 0 1-6.509-15.285c-.594-2.756-.812-5.459-1.171-8.12l-.977-8.034c-2.542-21.439-4.91-42.899-6.363-64.47l-.078-1.183 2.362-.158.087 1.186c1.54 21.474 4 42.908 6.63 64.303l1.01 8.022c.374 2.682.61 5.364 1.171 7.881a40.03 40.03 0 0 0 6.148 14.275 717.47 717.47 0 0 0 19.455 25.728c3.339 4.218 6.726 8.399 10.232 12.455 1.751 2.023 3.529 4.029 5.372 5.939a62.044 62.044 0 0 0 2.817 2.763c.928.828 2.032 1.768 2.831 2.104.1.052.183.082.157.06.022.002-.039.012.052.028l.449.062c.696.103.901.3 1.358.462.691.352 1.315.736 1.909 1.127a55.115 55.115 0 0 1 3.339 2.487c2.144 1.713 4.192 3.494 6.213 5.309 4.037 3.629 7.95 7.364 11.8 11.173 3.842 3.812 7.626 7.678 11.284 11.698a115.243 115.243 0 0 1 2.708 3.072c.881 1.104 1.759 2.016 2.585 3.55.717 1.466.934 3.283.445 4.932-.454 1.665-1.652 3.052-3.127 3.896-1.488.85-3.34 1.012-4.951.575-1.715-.538-2.659-1.206-3.935-1.804a273.597 273.597 0 0 1-7.177-3.819c-4.747-2.621-9.419-5.396-13.952-8.409-4.518-3.033-8.941-6.266-12.897-10.173-1.004-.953-1.891-2.065-2.81-3.128l-2.345-3.382c-1.496-2.079-3.271-4.098-5.078-6.058-7.283-7.845-15.147-15.24-23.01-22.592-7.888-7.376-15.902-14.465-23.933-21.815-7.863-7.588-14.347-16.741-18.665-26.745-9.121-19.641-15.848-40.586-18.205-62.227a146.634 146.634 0 0 1-.082-32.564c.327-2.704.717-5.401 1.214-8.08.541-2.679 1.011-5.324 1.961-8.02.937-2.654 2.438-5.155 4.431-7.168 2.011-1.969 1.09-4.835 3.813-5.206Z" fill="#100200" stroke="#000" stroke-miterlimit="10"/></svg>