<svg width="800" height="800" fill="none" xmlns="http://www.w3.org/2000/svg"><g clip-path="url(#a)"><path d="M363.758 499.763c-10.818 3.632-29.289 7.828-41.165 41.942-11.872 34.109-31.161 72.725-45.145 95.094-13.986 22.369-24.017 81.661-41.17 98.156-17.15 16.494-54.036 13.214-51.463 24.539 2.573 11.322 36.394 2.727 48.889 2.727 10.293 0 13.927-11.019 20.585-19.086 18.012-21.812 44.467-84.189 48.251-97.56 3.938-13.904 47.176-81.189 56.442-91.131 9.264-9.943 21.532-35.946 21.532-35.946l-16.756-18.735Z" fill="#fff" stroke="#000" stroke-width="5" stroke-miterlimit="10"/><path d="M363.758 499.763c-10.818 3.632-29.289 7.828-41.165 41.942-11.872 34.109-31.161 72.725-45.145 95.094-13.986 22.369-24.017 81.661-41.17 98.156-17.15 16.494-54.036 13.214-51.463 24.539 2.573 11.322 36.394 2.727 48.889 2.727 10.293 0 13.927-11.019 20.585-19.086 18.012-21.812 44.467-84.189 48.251-97.56 3.938-13.904 47.176-81.189 56.442-91.131 9.264-9.943 21.532-35.946 21.532-35.946l-16.756-18.735Z" stroke="#000" stroke-width="5" stroke-miterlimit="10"/><path d="M467.008 554.457c-9.493-29.363-4.784-54.694-4.784-54.694s-10.936-3.081-23.621-13.553c-12.661-10.496-9.496-45.859-9.496-45.859s-.644.135-16.083.135c-15.439 0-16.261-.135-16.261-.135s3.319 35.362-9.342 45.859c-12.659 10.472-23.62 13.553-23.62 13.553s4.734 25.33-4.787 54.694c0 0 8.877 62.194-2.985 115.035 0 0 24.934 10.469 56.995 10.469 32.061 0 56.993-10.469 56.993-10.469-11.884-52.841-3.009-115.035-3.009-115.035Z" fill="#fff" stroke="#000" stroke-width="5" stroke-miterlimit="10"/><path d="M467.008 554.457c-9.493-29.363-4.784-54.694-4.784-54.694s-10.936-3.081-23.621-13.553c-12.661-10.496-9.496-45.859-9.496-45.859s-.644.135-16.083.135c-15.439 0-16.261-.135-16.261-.135s3.319 35.362-9.342 45.859c-12.659 10.472-23.62 13.553-23.62 13.553s4.734 25.33-4.787 54.694c0 0 8.877 62.194-2.985 115.035 0 0 24.934 10.469 56.995 10.469 32.061 0 56.993-10.469 56.993-10.469-11.884-52.841-3.009-115.035-3.009-115.035Z" stroke="#000" stroke-width="5" stroke-miterlimit="10"/><path d="M376.419 494.167s13.746 21.924 36.793 21.924c23.048 0 36.795-21.924 36.795-21.924" stroke="#000" stroke-width="5" stroke-miterlimit="10"/><path d="M434.632 430.056c5.328-8.6 1.857-17.675 4.178-28.717 3.68-17.539-15.59-36.422-34.535-36.601-25.02-.237-32.113 94.032-17.779 96.672 8.492 1.566 24.551-4.981 36.822-19.224 3.944-4.582 11.314-12.13 11.314-12.13Z" fill="#fff" stroke="#000" stroke-width="5" stroke-miterlimit="10"/><path d="M434.632 430.056c5.328-8.6 1.857-17.675 4.178-28.717 3.68-17.539-15.59-36.422-34.535-36.601-25.02-.237-32.113 94.032-17.779 96.672 8.492 1.566 24.551-4.981 36.822-19.224 3.944-4.582 11.314-12.13 11.314-12.13Z" stroke="#000" stroke-width="5" stroke-miterlimit="10"/><path d="M393.158 375.016c-.7 16.578 8.94 47.329 28.884 43.257 22.422-4.577 12.57 8.771 10.567 13.05-1.999 4.282-13.229 11.852-11.108 13.255 2.123 1.403 33.275-8.43 37.737-32.093 4.462-23.668-.256-36.478-11.489-44.639-11.232-8.163-35.415-11.108-47.538-4.287-12.124 6.821-7.053 11.457-7.053 11.457Z" fill="#100200" stroke="#000" stroke-width="5" stroke-miterlimit="10"/><path d="M447.935 379.239c-2.626-11.117-1.189-38.673 26.329-28.472 22.607 8.382 21.711-2.698 41.69-4.676 16.057-1.592 26.516 20.22 6.782 48.269-17.959 25.527-29.152 9.836-44.093-3.787-14.944-13.621-30.708-11.334-30.708-11.334Z" fill="#100200" stroke="#000" stroke-width="5" stroke-miterlimit="10"/><path d="m425.478 763.594 129.868-25.912s20.585-10.907 25.732-16.359c5.146-5.452-10.293-13.633-10.293-13.633l-97.778 13.633" fill="#fff"/><path d="m425.478 763.594 129.868-25.912s20.585-10.907 25.732-16.359c5.146-5.452-10.293-13.633-10.293-13.633l-97.778 13.633" stroke="#000" stroke-width="5" stroke-miterlimit="10"/><path d="m425.478 763.594 129.868-25.912s20.585-10.907 25.732-16.359c5.146-5.452-10.293-13.633-10.293-13.633l-97.778 13.633" stroke="#000" stroke-width="5" stroke-miterlimit="10"/><path d="M577.216 722.684s-9.16-2.779-15.334-11.289a26.853 26.853 0 0 1-1.751-2.67c-1.644-2.945-2.933-6.436-3.5-10.579-.437-3.272-.875-8.345-1.362-14.506-2.239-29.665-5.121-85.066-11.504-91.829-7.719-8.18-23.159-38.171-61.755 5.452-38.597 43.625-72.046 73.618-72.046 73.618l-54.037-2.726s-25.731 89.976 38.598 100.881c11.039 1.881 21.769-.601 31.985-5.973h.024c26.222-13.795 49.018-46.758 64.562-74.569 13.688-24.43 20.504-40.789 20.504-40.789-.842 2.462 2.453 21.759 11.041 37.544 5.932 10.907 8.668 24.131 14.871 33.128.362.546.722 1.063 1.106 1.582 0 0 .08.079.234.245.977 1.171 4.912 6.244 4.912 13.387 0 8.18 41.17 8.18 48.889 5.453 7.72-2.727 5.148-10.905-15.437-16.36Z" fill="#fff" stroke="#000" stroke-width="5" stroke-miterlimit="10"/><path d="M577.216 722.684s-9.16-2.779-15.334-11.289a26.853 26.853 0 0 1-1.751-2.67c-1.644-2.945-2.933-6.436-3.5-10.579-.437-3.272-.875-8.345-1.362-14.506-2.239-29.665-5.121-85.066-11.504-91.829-7.719-8.18-23.159-38.171-61.755 5.452-38.597 43.625-72.046 73.618-72.046 73.618l-54.037-2.726s-25.731 89.976 38.598 100.881c11.039 1.881 21.769-.601 31.985-5.973h.024c26.222-13.795 49.018-46.758 64.562-74.569 13.688-24.43 20.504-40.789 20.504-40.789-.842 2.462 2.453 21.759 11.041 37.544 5.932 10.907 8.668 24.131 14.871 33.128.362.546.722 1.063 1.106 1.582 0 0 .08.079.234.245.977 1.171 4.912 6.244 4.912 13.387 0 8.18 41.17 8.18 48.889 5.453 7.72-2.727 5.148-10.905-15.437-16.36Z" stroke="#000" stroke-width="5" stroke-miterlimit="10"/><path d="M426.535 763.065c26.221-13.795 49.017-46.758 64.561-74.569a789.554 789.554 0 0 1 31.546-3.247c10.677-.844 21.923-1.499 32.627-1.607 24.189-.299 45.623 2.045 51.539 10.415 15.439 21.812 10.293 46.351-46.316 65.437s-97.778 21.812-97.778 21.812-2.573 0-7.72 8.18c-5.146 8.18-25.73 10.907-20.584-5.452 5.145-16.359 2.572-24.54 18.011-27.266 15.438-2.726 36.023-21.812 46.316-16.36 5.405 2.862 16.547-6.926 30.365-16.494 0 0 23.671-16.224 36.537-13.498" fill="#fff"/><path d="M426.535 763.065c26.221-13.795 49.017-46.758 64.561-74.569a789.554 789.554 0 0 1 31.546-3.247c10.677-.844 21.923-1.499 32.627-1.607 24.189-.299 45.623 2.045 51.539 10.415 15.439 21.812 10.293 46.351-46.316 65.437s-97.778 21.812-97.778 21.812-2.573 0-7.72 8.18c-5.146 8.18-25.73 10.907-20.584-5.452 5.145-16.359 2.572-24.54 18.011-27.266 15.438-2.726 36.023-21.812 46.316-16.36 5.405 2.862 16.547-6.926 30.365-16.494 0 0 23.671-16.224 36.537-13.498" stroke="#000" stroke-width="5" stroke-miterlimit="10"/><path d="M426.535 763.065c26.221-13.795 49.017-46.758 64.561-74.569a789.554 789.554 0 0 1 31.546-3.247c10.677-.844 21.923-1.499 32.627-1.607 24.189-.299 45.623 2.045 51.539 10.415 15.439 21.812 10.293 46.351-46.316 65.437s-97.778 21.812-97.778 21.812-2.573 0-7.72 8.18c-5.146 8.18-25.73 10.907-20.584-5.452 5.145-16.359 2.572-24.54 18.011-27.266 15.438-2.726 36.023-21.812 46.316-16.36 5.405 2.862 16.547-6.926 30.365-16.494 0 0 23.671-16.224 36.537-13.498" stroke="#000" stroke-width="5" stroke-miterlimit="10"/><path d="M581.076 456.847c-1.623 13.795-2.573 27.266-2.573 27.266s-7.72 117.241-18.012 144.507c-4.398 11.694-11.192 15.87-17.494 16.822-7.955 1.201-15.826-2.809-20.585-9.705-14.514-21.108-47.194-72.502-55.403-81.277-9.494-29.367-4.784-54.696-4.784-54.696 10.832 3.626 29.282 7.823 41.17 41.931 11.86 34.114 19.942 42.757 33.938 65.113 0 0 20.585-117.242 18.012-125.422-1.651-5.251-3.754-18.366-3.206-27.084.462-7.381 2.047-14.655 5.001-21.354 12.643-28.742 26.509 2.086 23.936 23.899Z" fill="#fff" stroke="#000" stroke-width="5" stroke-miterlimit="10"/><path d="M581.076 456.847c-1.623 13.795-2.573 27.266-2.573 27.266s-7.72 117.241-18.012 144.507c-4.398 11.694-11.192 15.87-17.494 16.822-7.955 1.201-15.826-2.809-20.585-9.705-14.514-21.108-47.194-72.502-55.403-81.277-9.494-29.367-4.784-54.696-4.784-54.696 10.832 3.626 29.282 7.823 41.17 41.931 11.86 34.114 19.942 42.757 33.938 65.113 0 0 20.585-117.242 18.012-125.422-1.651-5.251-3.754-18.366-3.206-27.084.462-7.381 2.047-14.655 5.001-21.354 12.643-28.742 26.509 2.086 23.936 23.899ZM408.678 672.244l-18.013 19.086" stroke="#000" stroke-width="5" stroke-miterlimit="10"/><path d="m408.678 672.244-18.013 19.086" stroke="#000" stroke-width="5" stroke-miterlimit="10" stroke-linecap="square"/><path d="M512.571 735.642s-6.31 21.168 5.367 36.143Z" fill="#fff"/><path d="M512.571 735.642s-6.31 21.168 5.367 36.143" stroke="#000" stroke-width="5" stroke-miterlimit="10"/><path d="M512.571 735.642s-6.31 21.168 5.367 36.143" stroke="#000" stroke-width="5" stroke-miterlimit="10"/></g><defs><clipPath id="a"><path fill="#fff" d="M0 0h800v800H0z"/></clipPath></defs></svg>