<svg width="800" height="800" fill="none" xmlns="http://www.w3.org/2000/svg"><path d="M215.709 728.379c1.829 3.658 5.123 6.219 8.416 7.974 5.989 3.196 12.941 3.988 19.618 2.765 4.897-.898 11.533-2.77 19.663-6.58 11.384-5.34 38.027-35.615 57.02-58.345 13.702-16.396 17.891-29.878 21.06-51.009l9.147-64.031s32.017-29.729 6.861-45.737c0 0-22.869 4.574-29.729 13.721-13.513 18.018-18.295 100.621-20.581 107.482-1.953 5.853-27.209 49.996-41.685 68.509-3.409 4.366-9.959 11.848-15.486 11.531-8.663-.496-20.682-6.065-25.155-4.573-.001-.002-16.009 4.572-9.149 18.293Z" fill="#fff" stroke="#000" stroke-width="5" stroke-miterlimit="10"/><path d="M215.709 728.379c1.829 3.658 5.123 6.219 8.416 7.974 5.989 3.196 12.941 3.988 19.618 2.765 4.897-.898 11.533-2.77 19.663-6.58 11.384-5.34 38.027-35.615 57.02-58.345 13.702-16.396 17.891-29.878 21.06-51.009l9.147-64.031s32.017-29.729 6.861-45.737c0 0-22.869 4.574-29.729 13.721-13.513 18.018-18.295 100.621-20.581 107.482-1.953 5.853-27.209 49.996-41.685 68.509-3.409 4.366-9.959 11.848-15.486 11.531-8.663-.496-20.682-6.065-25.155-4.573-.001-.002-16.009 4.572-9.149 18.293Z" stroke="#000" stroke-width="5" stroke-miterlimit="10"/><path d="M583.891 728.379c-1.829 3.658-5.123 6.219-8.415 7.974-5.989 3.196-12.942 3.988-19.619 2.765-4.897-.898-11.533-2.77-19.664-6.58-11.383-5.34-38.028-35.615-57.019-58.345-13.701-16.396-17.888-29.878-21.059-51.009l-9.147-64.031s-32.016-29.729-6.86-45.737c0 0 22.867 4.574 29.729 13.721 13.513 18.018 18.294 100.621 20.582 107.482 1.951 5.853 27.21 49.996 41.685 68.509 3.408 4.366 9.957 11.848 15.485 11.531 8.661-.496 20.683-6.065 25.156-4.573-.001-.002 16.006 4.572 9.146 18.293Z" fill="#fff" stroke="#000" stroke-width="5" stroke-miterlimit="10"/><path d="M583.891 728.379c-1.829 3.658-5.123 6.219-8.415 7.974-5.989 3.196-12.942 3.988-19.619 2.765-4.897-.898-11.533-2.77-19.664-6.58-11.383-5.34-38.028-35.615-57.019-58.345-13.701-16.396-17.888-29.878-21.059-51.009l-9.147-64.031s-32.016-29.729-6.86-45.737c0 0 22.867 4.574 29.729 13.721 13.513 18.018 18.294 100.621 20.582 107.482 1.951 5.853 27.21 49.996 41.685 68.509 3.408 4.366 9.957 11.848 15.485 11.531 8.661-.496 20.683-6.065 25.156-4.573-.001-.002 16.006 4.572 9.146 18.293Z" stroke="#000" stroke-width="5" stroke-miterlimit="10"/><path d="M467.088 698.65c-4.574-11.434-18.295-43.451-18.295-43.451l-44.725 8.132a24.264 24.264 0 0 1-8.707 0l-44.727-8.132s-13.721 32.017-18.294 43.451c-4.574 11.435-98.335 32.016-96.048 66.319 2.287 34.302 48.024 32.016 70.892 27.442 18.273-3.656 63.217-30.408 91.473-43.451 28.254 13.043 75.313 39.795 93.586 43.451 22.868 4.573 68.605 6.86 70.892-27.442 2.287-34.303-91.473-54.884-96.047-66.319Z" fill="#fff" stroke="#000" stroke-width="5" stroke-miterlimit="10"/><path d="M467.088 698.65c-4.574-11.434-18.295-43.451-18.295-43.451l-44.725 8.132a24.264 24.264 0 0 1-8.707 0l-44.727-8.132s-13.721 32.017-18.294 43.451c-4.574 11.435-98.335 32.016-96.048 66.319 2.287 34.302 48.024 32.016 70.892 27.442 18.273-3.656 63.217-30.408 91.473-43.451 28.254 13.043 75.313 39.795 93.586 43.451 22.868 4.573 68.605 6.86 70.892-27.442 2.287-34.303-91.473-54.884-96.047-66.319Z" stroke="#000" stroke-width="5" stroke-miterlimit="10"/><path d="M448.211 558.684c-8.445-24.624-4.246-45.862-4.246-45.862s-9.733-2.58-20.99-11.374c-11.256-8.795-8.445-38.464-8.445-38.464s-.584.121-14.302.121c-13.719 0-14.441-.121-14.441-.121s2.947 29.669-8.309 38.464c-11.258 8.794-20.987 11.374-20.987 11.374s4.197 21.238-4.246 45.862c0 0 8.942 52.193-1.613 96.516 0 0 21.101 8.763 49.595 8.763 28.493 0 48.74-8.763 48.74-8.763-10.554-44.323-.756-96.516-.756-96.516Z" fill="#fff" stroke="#000" stroke-width="5" stroke-miterlimit="10"/><path d="M448.211 558.684c-8.445-24.624-4.246-45.862-4.246-45.862s-9.733-2.58-20.99-11.374c-11.256-8.795-8.445-38.464-8.445-38.464s-.584.121-14.302.121c-13.719 0-14.441-.121-14.441-.121s2.947 29.669-8.309 38.464c-11.258 8.794-20.987 11.374-20.987 11.374s4.197 21.238-4.246 45.862c0 0 8.942 52.193-1.613 96.516 0 0 21.101 8.763 49.595 8.763 28.493 0 48.74-8.763 48.74-8.763-10.554-44.323-.756-96.516-.756-96.516Z" stroke="#000" stroke-width="5" stroke-miterlimit="10"/><path d="M375.18 401.64c-16.5 34.205 9.548 75.285 24.533 75.483 14.986.197 42.107-40.184 26.514-74.811-9.83-21.826-40.646-22.232-51.047-.672Z" fill="#fff" stroke="#000" stroke-width="5" stroke-miterlimit="10"/><path d="M375.18 401.64c-16.5 34.205 9.548 75.285 24.533 75.483 14.986.197 42.107-40.184 26.514-74.811-9.83-21.826-40.646-22.232-51.047-.672Z" stroke="#000" stroke-width="5" stroke-miterlimit="10"/><path d="M496.924 442.823c-13.153-7.225-9.817-16.49-21.492-25.754-11.672-9.263-26.133-3.008-32.24-17.976-6.053-14.828-25.762-23.297-42.938-23.089h-.053c-17.177-.208-36.889 8.261-42.937 23.089-6.108 14.968-20.569 8.712-32.24 17.976-11.675 9.264-8.338 18.529-21.494 25.754-13.157 7.227-14.227 6.559-13.712 12.231.758 8.366 30.675 5.056 53.114 5.63 4.395.112 20.414 4.565 24.698 5.568 8.761 2.052 20.014 1.762 20.247-1.378.373-5.005-1.232-16.905-4.646-22.995-3.413-6.092-10.463-4.127-10.463-13.065 0-8.336 3.423-5.092 11.297-12.506 6.941-6.54 13.891-14.11 16.162-20.26 2.271 6.15 9.221 13.721 16.161 20.26 7.875 7.414 11.298 4.169 11.298 12.506 0 8.938-7.049 6.972-10.463 13.065-3.414 6.09-5.016 17.99-4.644 22.995.232 3.14 11.486 3.43 20.246 1.378 4.283-1.003 20.3-5.456 24.7-5.568 22.435-.574 52.351 2.736 53.11-5.63.517-5.672-.552-5.004-13.711-12.231Z" fill="#100200" stroke="#000" stroke-width="5" stroke-miterlimit="10"/><path d="M367.701 508.127s12.217 18.389 32.7 18.389c20.483 0 32.7-18.389 32.7-18.389" stroke="#000" stroke-width="5" stroke-miterlimit="10"/><path d="M503.852 753.586s-12.989-14.537-59.458-20.633c11.939-4.013 30.85-10.433 38.875-13.441 25.156-9.465 16.008-9.465 16.008-9.465-6.861-3.787-38.876 3.43-59.458-2.248-20.582-5.679-25.156-.712-27.442 6.861-.846 2.783-7.959 3.432-11.434 4.853-2.196-2.046-12.835-3.56-20.582-4.853-13.721-2.288-28.4-8.849-34.906-12.706-1.509-.895-3.379-1.135-4.976-.416-2.196.988-3.568 3.587 3.293 10.401 3.613 3.595 10.428 8.519 18.066 13.573-42.924 5.451-68.377 18.61-68.377 18.61" fill="#fff"/><path d="M503.852 753.586s-12.989-14.537-59.458-20.633c11.939-4.013 30.85-10.433 38.875-13.441 25.156-9.465 16.008-9.465 16.008-9.465-6.861-3.787-38.876 3.43-59.458-2.248-20.582-5.679-25.156-.712-27.442 6.861-.846 2.783-7.959 3.432-11.434 4.853-2.196-2.046-12.835-3.56-20.582-4.853-13.721-2.288-28.4-8.849-34.906-12.706-1.509-.895-3.379-1.135-4.976-.416-2.196.988-3.568 3.587 3.293 10.401 3.613 3.595 10.428 8.519 18.066 13.573-42.924 5.451-68.377 18.61-68.377 18.61" stroke="#000" stroke-width="5" stroke-miterlimit="10"/><path d="M503.852 753.586s-12.989-14.537-59.458-20.633c11.939-4.013 30.85-10.433 38.875-13.441 25.156-9.465 16.008-9.465 16.008-9.465-6.861-3.787-38.876 3.43-59.458-2.248-20.582-5.679-25.156-.712-27.442 6.861-.846 2.783-7.959 3.432-11.434 4.853-2.196-2.046-12.835-3.56-20.582-4.853-13.721-2.288-28.4-8.849-34.906-12.706-1.509-.895-3.379-1.135-4.976-.416-2.196.988-3.568 3.587 3.293 10.401 3.613 3.595 10.428 8.519 18.066 13.573-42.924 5.451-68.377 18.61-68.377 18.61" stroke="#000" stroke-width="5" stroke-miterlimit="10"/><path d="M362.067 725.19c16.008 1.894 38.876-5.678 38.876-5.678s9.35 18.986 22.972 20.786" fill="#fff"/><path d="M362.067 725.19c16.008 1.894 38.876-5.678 38.876-5.678s9.35 18.986 22.972 20.786" stroke="#000" stroke-width="5" stroke-miterlimit="10"/><path d="M362.067 725.19c16.008 1.894 38.876-5.678 38.876-5.678s9.35 18.986 22.972 20.786" stroke="#000" stroke-width="5" stroke-miterlimit="10" stroke-linecap="square"/><path d="m396.574 749.932 54.68-19.266M396.574 749.932l54.68-19.266" stroke="#000" stroke-width="5" stroke-miterlimit="10"/></svg>