<svg width="800" height="800" fill="none" xmlns="http://www.w3.org/2000/svg"><g clip-path="url(#a)"><path d="M677.486 606.112s-35.058 9.726-52.26-.094c-17.204-9.819-58.984-41.729-130.254-29.456l-71.27 12.273s56.526 19.638 58.982 85.916c0 0 120.425 7.363 132.711 0 12.288-7.364 19.762-45.128 45.52-42.201 25.751 2.925 16.571-26.438 16.571-26.438Z" fill="#fff" stroke="#000" stroke-width="5" stroke-miterlimit="10"/><path d="M677.486 606.112s-35.058 9.726-52.26-.094c-17.204-9.819-58.984-41.729-130.254-29.456l-71.27 12.273s56.526 19.638 58.982 85.916c0 0 120.425 7.363 132.711 0 12.288-7.364 19.762-45.128 45.52-42.201 25.751 2.925 16.571-26.438 16.571-26.438Z" stroke="#000" stroke-width="5" stroke-miterlimit="10"/><path d="M590.821 608.473s31.948-12.274 36.862 14.729c4.011 22.03-.156 88.183-1.831 111.796a8.21 8.21 0 0 0 7.882 8.786c20.961.815 75.932 7.753 95.94 13.2 1.634.447 5.678-.037 7.372 0 6.66.155 21-2.731 34.991.989 5.635 1.5 10.665 4.818 14.001 9.593.819 1.178 1.39 2.239 1.39 2.921 0 2.453-191.694 0-191.694 0l-4.913-162.014Z" fill="#fff" stroke="#000" stroke-width="5" stroke-miterlimit="10"/><path d="M590.821 608.473s31.948-12.274 36.862 14.729c4.011 22.03-.156 88.183-1.831 111.796a8.21 8.21 0 0 0 7.882 8.786c20.961.815 75.932 7.753 95.94 13.2 1.634.447 5.678-.037 7.372 0 6.66.155 21-2.731 34.991.989 5.635 1.5 10.665 4.818 14.001 9.593.819 1.178 1.39 2.239 1.39 2.921 0 2.453-191.694 0-191.694 0l-4.913-162.014Z" stroke="#000" stroke-width="5" stroke-miterlimit="10"/><path d="M720.506 597.827c8.97-5.102 29.008-35.376 1.167-35.867-21.442-.377-13.057-12.102-24.471-31.654-7.761-13.29-30.681-5.694-35.925 25.363-4.771 28.263 12.836 26.215 31.575 28.042 18.735 1.827 27.654 14.116 27.654 14.116Z" fill="#100200" stroke="#000" stroke-width="5" stroke-miterlimit="10"/><path d="M685.775 608.208c7.807-4.264 15.38-.467 25.069-1.819 15.398-2.143 30.267 16.751 29.025 34.059-1.636 22.85-83.45 22.789-84.672 9.521-.725-7.858 6.103-22.063 19.289-32.273 4.238-3.285 11.289-9.488 11.289-9.488Z" fill="#fff" stroke="#000" stroke-width="5" stroke-miterlimit="10"/><path d="M685.775 608.208c7.807-4.264 15.38-.467 25.069-1.819 15.398-2.143 30.267 16.751 29.025 34.059-1.636 22.85-83.45 22.789-84.672 9.521-.725-7.858 6.103-22.063 19.289-32.273 4.238-3.285 11.289-9.488 11.289-9.488Z" stroke="#000" stroke-width="5" stroke-miterlimit="10"/><path d="M730.189 649.878c-14.349-.508-40.158-11.44-35.177-29.359 5.594-20.147-6.64-12.08-10.478-10.55-3.837 1.528-11.192 11.252-12.247 9.218-1.051-2.036 9.717-29.783 30.451-32.218 20.736-2.433 31.44 2.763 37.652 13.582 6.213 10.819 6.974 33.093.201 43.685-6.776 10.591-10.402 5.642-10.402 5.642Z" fill="#100200" stroke="#000" stroke-width="5" stroke-miterlimit="10"/><path d="M595.077 687.725c1.195 16.147 3.979 32.415 6.11 48.265 3.152 23.449 3.198 31.979 27.728 33.268 32.09 1.69 46.917 7.019 44.238 12.274-1.51 2.951-8.985 7.062-12.287 7.364 0 0-91.953 16.387-90.934-9.819v-36.82c0-12.274-4.923-32.025-4.923-32.025-14.047-44.94-17.195-85.803-17.195-85.803-64.235 70.176-203.068 110.054-251.788 122.308a111.015 111.015 0 0 1-33.437 3.19c-50.616-2.895-204.246-11.764-224.73-13.808-24.576-2.453-29.491-4.91-24.576-9.818 4.915-4.91 49.152-2.455 54.068-19.638 4.915-17.183 22.118-22.093 31.949-9.819 9.83 12.273 29.491 9.819 29.491 9.819 27.317-7.795 98.004-9.401 125.979-9.733 7.56-.089 14.902-2.325 21.326-6.307 53.947-33.453 92.311-36.738 92.311-36.738-7.372-56.458 55.296-65.05 55.296-65.05 27.035 7.364 16.943 8.991 16.943 8.991l118.372-44.58c14.57-5.487 30.289 4.694 31.226 20.213l4.833 114.266Z" fill="#fff" stroke="#000" stroke-width="5" stroke-miterlimit="10"/><path d="M595.077 687.725c1.195 16.147 3.979 32.415 6.11 48.265 3.152 23.449 3.198 31.979 27.728 33.268 32.09 1.69 46.917 7.019 44.238 12.274-1.51 2.951-8.985 7.062-12.287 7.364 0 0-91.953 16.387-90.934-9.819v-36.82c0-12.274-4.923-32.025-4.923-32.025-14.047-44.94-17.195-85.803-17.195-85.803-64.235 70.176-203.068 110.054-251.788 122.308a111.015 111.015 0 0 1-33.437 3.19c-50.616-2.895-204.246-11.764-224.73-13.808-24.576-2.453-29.491-4.91-24.576-9.818 4.915-4.91 49.152-2.455 54.068-19.638 4.915-17.183 22.118-22.093 31.949-9.819 9.83 12.273 29.491 9.819 29.491 9.819 27.317-7.795 98.004-9.401 125.979-9.733 7.56-.089 14.902-2.325 21.326-6.307 53.947-33.453 92.311-36.738 92.311-36.738-7.372-56.458 55.296-65.05 55.296-65.05 27.035 7.364 16.943 8.991 16.943 8.991l118.372-44.58c14.57-5.487 30.289 4.694 31.226 20.213l4.833 114.266ZM442.073 597.293l-14.686 7.499M442.073 597.293l-14.686 7.499" stroke="#000" stroke-width="5" stroke-miterlimit="10"/><path d="M368.407 653.885s2.457 4.91 7.373 9.819Z" fill="#fff"/><path d="M368.407 653.885s2.457 4.91 7.373 9.819" stroke="#000" stroke-width="5" stroke-miterlimit="10"/><path d="M368.407 653.885s2.457 4.91 7.373 9.819" stroke="#000" stroke-width="5" stroke-miterlimit="10"/><path d="M135.229 705.102s-16.2 17.569-3.331 37.18Z" fill="#fff"/><path d="M135.229 705.102s-16.2 17.569-3.331 37.18" stroke="#000" stroke-width="5" stroke-miterlimit="10"/><path d="M135.229 705.102s-16.2 17.569-3.331 37.18" stroke="#000" stroke-width="5" stroke-miterlimit="10"/><path d="M567.851 723.692s11.971 5.985 31.603 0Z" fill="#fff"/><path d="M567.851 723.692s11.971 5.985 31.603 0" stroke="#000" stroke-width="5" stroke-miterlimit="10"/><path d="M567.851 723.692s11.971 5.985 31.603 0" stroke="#000" stroke-width="5" stroke-miterlimit="10"/></g><defs><clipPath id="a"><path fill="#fff" d="M0 0h800v800H0z"/></clipPath></defs></svg>