<svg width="800" height="800" fill="none" xmlns="http://www.w3.org/2000/svg"><g clip-path="url(#a)" stroke="#000" stroke-width="5" stroke-miterlimit="10"><path d="M456.205 390.981c8.129 31.118 16.662 76.491 10.393 117.235-6.229 40.487-11.305 52.893-13.097 90.812-1.387 29.356-14.977 96.097-16.862 118.995-1.865 22.686-.133 58.183 3.766 65.083 3.896 6.9 2.71 14.971-14.565 14.971-17.277 0-27.269-3.964-22.867-15.116 4.406-11.159 9.88-41.647 10.333-92.729.453-51.083-3.726-43.842-6.434-97.565-1.479-29.245-3.172-71.178-3.172-102.443 0-6.264-2.646-29.76-3.627-29.76-.979 0-3.542 23.547-3.542 29.856 0 33.924-1.733 73.102-3.21 102.347-2.709 53.723-6.889 46.482-6.437 97.565.451 51.082 5.929 81.57 10.331 92.729 4.405 11.152-5.587 15.116-22.864 15.116-17.274 0-18.461-8.072-14.565-14.971 3.896-6.9 5.63-42.397 3.764-65.083-1.884-22.899-15.474-89.639-16.863-118.995-1.792-37.919-9.575-50.083-13.095-90.812-3.724-43.097 2.262-86.117 10.395-117.235 0 0 25.292 8.381 56.109 8.381s56.109-8.381 56.109-8.381Z" fill="#fff"/><path d="M456.205 390.981c8.129 31.118 16.662 76.491 10.393 117.235-6.229 40.487-11.305 52.893-13.097 90.812-1.387 29.356-14.977 96.097-16.862 118.995-1.865 22.686-.133 58.183 3.766 65.083 3.896 6.9 2.71 14.971-14.565 14.971-17.277 0-27.269-3.964-22.867-15.116 4.406-11.159 9.88-41.647 10.333-92.729.453-51.083-3.726-43.842-6.434-97.565-1.479-29.245-3.172-71.178-3.172-102.443 0-6.264-2.646-29.76-3.627-29.76-.979 0-3.542 23.547-3.542 29.856 0 33.924-1.733 73.102-3.21 102.347-2.709 53.723-6.889 46.482-6.437 97.565.451 51.082 5.929 81.57 10.331 92.729 4.405 11.152-5.587 15.116-22.864 15.116-17.274 0-18.461-8.072-14.565-14.971 3.896-6.9 5.63-42.397 3.764-65.083-1.884-22.899-15.474-89.639-16.863-118.995-1.792-37.919-9.575-50.083-13.095-90.812-3.724-43.097 2.262-86.117 10.395-117.235 0 0 25.292 8.381 56.109 8.381s56.109-8.381 56.109-8.381Z"/><path d="M461.658 297.588s-14.813-21.509-4.942-58.409c0 0-47.48-.698-43.643-45.907l2.284-21.626h-30.666l2.284 21.626c3.84 45.21-43.646 45.907-43.646 45.907 9.873 36.9-4.942 58.409-4.942 58.409 18.257 50.299 5.456 93.393 5.456 93.393s28.75 8.379 56.182 8.379c27.43 0 56.179-8.379 56.179-8.379s-12.805-43.094 5.454-93.393Z" fill="#fff"/><path d="M461.658 297.588s-14.813-21.509-4.942-58.409c0 0-47.48-.698-43.643-45.907l2.284-21.626h-30.666l2.284 21.626c3.84 45.21-43.646 45.907-43.646 45.907 9.873 36.9-4.942 58.409-4.942 58.409 18.257 50.299 5.456 93.393 5.456 93.393s28.75 8.379 56.182 8.379c27.43 0 56.179-8.379 56.179-8.379s-12.805-43.094 5.454-93.393Z"/><path d="M343.275 239.178c-19.511 6.077-28.388 12.025-33.808 53.125-3.563 27.034-4.274 36.66-4.326 40.089-.033 2.18-.148 4.35-.405 6.521-1.075 9.035-3.499 29.384-5.21 43.619-2.258 18.786-3.221 73.18-6.669 95.136-2.595 16.521-7.497 27.968.007 45.567 4.084 9.583 14.461-17.502 15.972-26.169.889-5.093 2.783-11.515 2.076-16.477-.76-5.349-4.153-9.15-3.813-11.995 1.184-9.982 12.303-56.902 15.465-81.172 3.159-24.268 11.221-79.173 15.771-89.835 4.553-10.663 7.887-18.296 8.308-33.565.42-15.262-3.368-24.844-3.368-24.844Z" fill="#fff"/><path d="M343.275 239.178c-19.511 6.077-28.388 12.025-33.808 53.125-3.563 27.034-4.274 36.66-4.326 40.089-.033 2.18-.148 4.35-.405 6.521-1.075 9.035-3.499 29.384-5.21 43.619-2.258 18.786-3.221 73.18-6.669 95.136-2.595 16.521-7.497 27.968.007 45.567 4.084 9.583 14.461-17.502 15.972-26.169.889-5.093 2.783-11.515 2.076-16.477-.76-5.349-4.153-9.15-3.813-11.995 1.184-9.982 12.303-56.902 15.465-81.172 3.159-24.268 11.221-79.173 15.771-89.835 4.553-10.663 7.887-18.296 8.308-33.565.42-15.262-3.368-24.844-3.368-24.844Z"/><path d="M456.725 239.178c19.51 6.077 28.387 12.025 33.808 53.125 3.564 27.034 4.274 36.66 4.326 40.089.033 2.18.146 4.35.403 6.521a53492.05 53492.05 0 0 0 5.209 43.619c2.263 18.786 3.22 73.18 6.671 95.136 2.594 16.521 7.499 27.968-.009 45.567-4.082 9.583-14.46-17.502-15.971-26.169-.891-5.093-2.783-11.515-2.076-16.477.762-5.349 4.153-9.15 3.813-11.995-1.183-9.982-12.302-56.902-15.462-81.172-3.162-24.268-11.221-79.173-15.775-89.835-4.551-10.663-7.881-18.296-8.309-33.565-.415-15.262 3.372-24.844 3.372-24.844Z" fill="#fff"/><path d="M456.725 239.178c19.51 6.077 28.387 12.025 33.808 53.125 3.564 27.034 4.274 36.66 4.326 40.089.033 2.18.146 4.35.403 6.521a53492.05 53492.05 0 0 0 5.209 43.619c2.263 18.786 3.22 73.18 6.671 95.136 2.594 16.521 7.499 27.968-.009 45.567-4.082 9.583-14.46-17.502-15.971-26.169-.891-5.093-2.783-11.515-2.076-16.477.762-5.349 4.153-9.15 3.813-11.995-1.183-9.982-12.302-56.902-15.462-81.172-3.162-24.268-11.221-79.173-15.775-89.835-4.551-10.663-7.881-18.296-8.309-33.565-.415-15.262 3.372-24.844 3.372-24.844ZM443.268 236.853c-7.514 14.146-27.994 24.567-43.243 24.567-15.25 0-35.731-10.421-43.245-24.567"/><path d="M375.992 172.596c-4.286-7.352.039-14.237-1.068-23.246-1.752-14.305 18.958-27.486 37.407-25.816 24.363 2.209 21.438 77.888 7.217 78.616-8.422.432-23.363-6.313-33.813-18.82-3.36-4.022-9.743-10.734-9.743-10.734Z" fill="#fff"/><path d="M375.992 172.596c-4.286-7.352.039-14.237-1.068-23.246-1.752-14.305 18.958-27.486 37.407-25.816 24.363 2.209 21.438 77.888 7.217 78.616-8.422.432-23.363-6.313-33.813-18.82-3.36-4.022-9.743-10.734-9.743-10.734Z"/><path d="M422.074 132.777c-1.046 13.256-13.629 36.799-32.607 31.649-21.333-5.787-13.139 5.776-11.64 9.372 1.501 3.597 11.636 10.697 9.425 11.608-2.209.916-29.412-10.908-31.288-30.162-1.875-19.255 7.023-27.946 18.799-33.363 11.777-5.418 30.563-5.483 41.645 1.105 11.08 6.585 5.666 9.791 5.666 9.791Z" fill="#000"/><path d="M411.7 730.757c18.099 3.36 24.334-1.617 24.334-1.617M388.523 730.757c-18.102 3.36-24.335-1.617-24.335-1.617"/></g><defs><clipPath id="a"><path fill="#fff" d="M0 0h800v800H0z"/></clipPath></defs></svg>