<svg width="800" height="800" fill="none" xmlns="http://www.w3.org/2000/svg"><path d="M552.481 705.333s70.845-10.881 95.555 5.594c24.71 16.473 6.176 49.417-35.005 53.537-41.183 4.117-127.666-6.178-127.666-6.178s49.806-62.665 67.116-52.953Z" fill="#fff" stroke="#000" stroke-width="5" stroke-miterlimit="10"/><path d="M552.481 705.333s70.845-10.881 95.555 5.594c24.71 16.473 6.176 49.417-35.005 53.537-41.183 4.117-127.666-6.178-127.666-6.178s49.806-62.665 67.116-52.953Z" stroke="#000" stroke-width="5" stroke-miterlimit="10"/><path d="M575.191 501.975s-11.653 26.787 6.007 53.846c12.572 19.267 22.365 41.566 11.693 60.303-7.72 13.555-9.177 20.401-12.352 35.342-3.873 18.202-23.104 47.106-33.398 61.519l-40.297-29.861-15.299-7.203c2.298-8.773 18.532-26.768 22.336-41.6 3.703-14.442 1.451-28.464.364-43.275-2.208-30.243 5.341-47.01 26.204-77.418 7-10.204 13.302-24.008 12.865-37.363" fill="#fff"/><path d="M575.191 501.975s-11.653 26.787 6.007 53.846c12.572 19.267 22.365 41.566 11.693 60.303-7.72 13.555-9.177 20.401-12.352 35.342-3.873 18.202-23.104 47.106-33.398 61.519l-40.297-29.861-15.299-7.203c2.298-8.773 18.532-26.768 22.336-41.6 3.703-14.442 1.451-28.464.364-43.275-2.208-30.243 5.341-47.01 26.204-77.418 7-10.204 13.302-24.008 12.865-37.363" stroke="#000" stroke-width="5" stroke-miterlimit="10"/><path d="M575.191 501.975s-11.653 26.787 6.007 53.846c12.572 19.267 22.365 41.566 11.693 60.303-7.72 13.555-9.177 20.401-12.352 35.342-3.873 18.202-23.104 47.106-33.398 61.519l-40.297-29.861-15.299-7.203c2.298-8.773 18.532-26.768 22.336-41.6 3.703-14.442 1.451-28.464.364-43.275-2.208-30.243 5.341-47.01 26.204-77.418 7-10.204 13.302-24.008 12.865-37.363" stroke="#000" stroke-width="5" stroke-miterlimit="10"/><path d="M527.692 599.213c20.551 32.356 51.474 54.275 61.915 73.328 18.524 33.798 50.22 84.148 63.773 95.369 8.61 7.13 63.632 6.218 62.606 4.789-3.558-4.956-4.533-11.497-20.591-12.354 0 0-12.908.805-20.592-4.117-1.536-.986-10.408-5.513-11.852-6.633-4.398-3.427-7.516-9.783-9.846-14.575-2.618-5.391-5.288-11.583-7.911-16.978-5.356-11.037-9.628-18.083-14.99-29.12-1.443-2.975-15.869-27.695-17.313-30.671l-50.45-79.516" fill="#fff"/><path d="M527.692 599.213c20.551 32.356 51.474 54.275 61.915 73.328 18.524 33.798 50.22 84.148 63.773 95.369 8.61 7.13 63.632 6.218 62.606 4.789-3.558-4.956-4.533-11.497-20.591-12.354 0 0-12.908.805-20.592-4.117-1.536-.986-10.408-5.513-11.852-6.633-4.398-3.427-7.516-9.783-9.846-14.575-2.618-5.391-5.288-11.583-7.911-16.978-5.356-11.037-9.628-18.083-14.99-29.12-1.443-2.975-15.869-27.695-17.313-30.671l-50.45-79.516" stroke="#000" stroke-width="5" stroke-miterlimit="10"/><path d="M527.692 599.213c20.551 32.356 51.474 54.275 61.915 73.328 18.524 33.798 50.22 84.148 63.773 95.369 8.61 7.13 63.632 6.218 62.606 4.789-3.558-4.956-4.533-11.497-20.591-12.354 0 0-12.908.805-20.592-4.117-1.536-.986-10.408-5.513-11.852-6.633-4.398-3.427-7.516-9.783-9.846-14.575-2.618-5.391-5.288-11.583-7.911-16.978-5.356-11.037-9.628-18.083-14.99-29.12-1.443-2.975-15.869-27.695-17.313-30.671l-50.45-79.516" stroke="#000" stroke-width="5" stroke-miterlimit="10"/><path d="M553.633 473.362c-.306 2.217-.302 7.109-.302 7.109Z" fill="#fff"/><path d="M553.633 473.362c-.306 2.217-.302 7.109-.302 7.109" stroke="#000" stroke-width="5" stroke-miterlimit="10"/><path d="M553.633 473.362c-.306 2.217-.302 7.109-.302 7.109M525.067 538.245c-.725 11.249 22.77 24.042 52.903 12.025" stroke="#000" stroke-width="5" stroke-miterlimit="10"/><path d="M549.12 425.468c-2.344-14.987-16.605-49.52-51.785-27.11-22.332 14.229-57.341 32.254-79.327 22.055-21.982-10.203-14.222 46.028 16.631 54.725 30.854 8.699 63.845-4.611 77.311-28.721 13.462-24.11 37.17-20.949 37.17-20.949Z" fill="#100200" stroke="#000" stroke-width="5" stroke-miterlimit="10"/><path d="M550.314 477.47c-4.186-7.18-.826-14.347-2.335-23.362-2.394-14.319 14.895-28.679 31.106-27.961 21.401.951 23.411 77.344 11.038 78.822-7.327.873-20.776-5.141-30.653-17.192-3.179-3.878-9.156-10.307-9.156-10.307Z" fill="#fff" stroke="#000" stroke-width="5" stroke-miterlimit="10"/><path d="M550.314 477.47c-4.186-7.18-.826-14.347-2.335-23.362-2.394-14.319 14.895-28.679 31.106-27.961 21.401.951 23.411 77.344 11.038 78.822-7.327.873-20.776-5.141-30.653-17.192-3.179-3.878-9.156-10.307-9.156-10.307Z" stroke="#000" stroke-width="5" stroke-miterlimit="10"/><path d="M588.145 434.949c-.115 13.408-9.678 37.784-26.558 33.59-18.974-4.716-11.123 6.503-9.599 10.047 1.528 3.545 10.803 10.168 8.928 11.201-1.874 1.038-28.085-8.317-30.887-27.616-2.798-19.3 1.79-29.424 11.743-35.499 9.959-6.073 30.764-7.348 40.838-1.291 10.069 6.054 5.535 9.568 5.535 9.568Z" fill="#100200" stroke="#000" stroke-width="5" stroke-miterlimit="10"/><path d="M497.721 665.625s-42.218 8.913-66.625 38.614c-5.856 7.127-13.719 12.318-22.704 14.397-25.094 5.802-73.628 16.45-85.696 14.941-16.473-2.06-72.069-14.414-125.607 4.117 0 0-20.591 6.177-35.005-6.177-14.413-12.354-14.414-4.117-32.946 8.237-18.532 12.354-57.655 20.59-41.182 30.887l84.425-4.117s113.089.819 131.784 4.117c35.005 6.176 160.612-6.177 181.203-12.355 20.591-6.176 61.775-45.3 61.775-45.3s-50.113-38.17-49.422-47.361Z" fill="#fff" stroke="#000" stroke-width="5" stroke-miterlimit="10"/><path d="M497.721 665.625s-42.218 8.913-66.625 38.614c-5.856 7.127-13.719 12.318-22.704 14.397-25.094 5.802-73.628 16.45-85.696 14.941-16.473-2.06-72.069-14.414-125.607 4.117 0 0-20.591 6.177-35.005-6.177-14.413-12.354-14.414-4.117-32.946 8.237-18.532 12.354-57.655 20.59-41.182 30.887l84.425-4.117s113.089.819 131.784 4.117c35.005 6.176 160.612-6.177 181.203-12.355 20.591-6.176 61.775-45.3 61.775-45.3s-50.113-38.17-49.422-47.361Z" stroke="#000" stroke-width="5" stroke-miterlimit="10"/><path d="M181.037 739.065s-15.516 17.227-4.88 27.489Z" fill="#fff"/><path d="M181.037 739.065s-15.516 17.227-4.88 27.489" stroke="#000" stroke-width="5" stroke-miterlimit="10"/><path d="M181.037 739.065s-15.516 17.227-4.88 27.489M598.618 725.338s-20.256 2.708-41.183 14.414c-7.409 4.147-20.358 2.645-28.826 2.059-1.315-.089 1.372 4.347 0 4.117" stroke="#000" stroke-width="5" stroke-miterlimit="10"/><path d="M537.78 744.663c-4.266-4.76-10.868-6.629-16.349-4.055-3.239 1.518-5.273 4.231-1.662 9.076 7.811 10.484 13.522 27.708 16.982 40.315 1.919 6.991 7.732 4.803 18.61-.506 8.756-4.276-6.233-32.167-17.581-44.83Z" fill="#fff" stroke="#000" stroke-width="5" stroke-miterlimit="10"/><path d="M537.78 744.663c-4.266-4.76-10.868-6.629-16.349-4.055-3.239 1.518-5.273 4.231-1.662 9.076 7.811 10.484 13.522 27.708 16.982 40.315 1.919 6.991 7.732 4.803 18.61-.506 8.756-4.276-6.233-32.167-17.581-44.83Z" stroke="#000" stroke-width="5" stroke-miterlimit="10"/></svg>