<svg width="800" height="800" fill="none" xmlns="http://www.w3.org/2000/svg"><g clip-path="url(#a)"><path d="M456.925 588.584c-2.174-15.741-2.812-30.474-2.812-30.474s26.36-4.987 43.187-12.14c16.829-7.154 43.615-20.291 67.918-27.478 24.312-7.185 42.385-1.924 73.018-.962 30.632.962 53.493-5.289 57.986-7.831l-13.285 31.414s-18.995-.478-36.46 5.549-44.24 30.025-52.543 44.308c-8.298 14.283-11.232 21.506-21.484 25.124-10.257 3.622-20.433-3.819-34.298-4.694-13.863-.871-62.087 8.078-73.066 13.066-.001-.002-3.981-5.65-8.161-35.882Z" fill="#fff" stroke="#000" stroke-width="5" stroke-miterlimit="10"/><path d="M456.925 588.584c-2.174-15.741-2.812-30.474-2.812-30.474s26.36-4.987 43.187-12.14c16.829-7.154 43.615-20.291 67.918-27.478 24.312-7.185 42.385-1.924 73.018-.962 30.632.962 53.493-5.289 57.986-7.831l-13.285 31.414s-18.995-.478-36.46 5.549-44.24 30.025-52.543 44.308c-8.298 14.283-11.232 21.506-21.484 25.124-10.257 3.622-20.433-3.819-34.298-4.694-13.863-.871-62.087 8.078-73.066 13.066-.001-.002-3.981-5.65-8.161-35.882Z" stroke="#000" stroke-width="5" stroke-miterlimit="10"/><path d="M693.089 504.679c5.332-6.567 13.361-5.948 21.398-10.627 12.772-7.43 32.655 3.86 37.802 19.55 6.796 20.716-65.194 50.113-71.05 38.87-3.47-6.663-2.581-21.631 5.336-35.372 2.544-4.418 6.514-12.421 6.514-12.421Z" fill="#fff" stroke="#000" stroke-width="5" stroke-miterlimit="10"/><path d="M693.089 504.679c5.332-6.567 13.361-5.948 21.398-10.627 12.772-7.43 32.655 3.86 37.802 19.55 6.796 20.716-65.194 50.113-71.05 38.87-3.47-6.663-2.581-21.631 5.336-35.372 2.544-4.418 6.514-12.421 6.514-12.421Z" stroke="#000" stroke-width="5" stroke-miterlimit="10"/><path d="M747.172 525.395c-12.801 4.716-39.446 4.381-41.525-13.197-2.337-19.759-10.191-8.251-13.018-5.522-2.824 2.73-5.79 13.942-7.448 12.53-1.663-1.413-2.189-29.731 15.177-39.341 17.36-9.606 28.65-8.882 38.01-1.59 9.364 7.293 18.065 26.64 15.921 38.407-2.143 11.767-7.117 8.713-7.117 8.713Z" fill="#000" stroke="#000" stroke-width="5" stroke-miterlimit="10"/><path d="M728.677 478.983c9.42-.179 30.966-7.307 16.604-28.262-11.801-17.219-2.8-18.844-5.778-36.074-2.394-13.847-22.087-17.957-39.858 4.669-16.17 20.591-1.171 26.633 13.041 36.273 14.216 9.643 15.991 23.394 15.991 23.394Z" fill="#000" stroke="#000" stroke-width="5" stroke-miterlimit="10"/><path d="M454.114 558.109c.475 14.897 5.059 56.553 10.972 66.355 0 0-60.173 28.193-98.368 37.513-38.197 9.327-132.713 35.121-174.062 42.543-41.343 7.425-106.796 21.398-113.145 32.146-6.352 10.744 1.669 41.04 6.675 45.359 5.007 4.314 9.258 6.993 6.931 9.984-2.329 2.988-21.732 9.908-34.91-25.036-13.182-34.951-18.41-34.341-9.128-45.565 9.282-11.222 37.194-15.266 95.894-45.578 58.701-30.319 128.17-41 164.553-68.093 36.385-27.106 30.472-26.338 46.739-36.1 16.266-9.764 39.882-15.525 57.295-14.364 17.411 1.163 24.22 3.128 31.702 2.104 7.483-1.024 8.852-1.268 8.852-1.268Z" fill="#fff" stroke="#000" stroke-width="5" stroke-miterlimit="10"/><path d="M454.114 558.109c.475 14.897 5.059 56.553 10.972 66.355 0 0-60.173 28.193-98.368 37.513-38.197 9.327-132.713 35.121-174.062 42.543-41.343 7.425-106.796 21.398-113.145 32.146-6.352 10.744 1.669 41.04 6.675 45.359 5.007 4.314 9.258 6.993 6.931 9.984-2.329 2.988-21.732 9.908-34.91-25.036-13.182-34.951-18.41-34.341-9.128-45.565 9.282-11.222 37.194-15.266 95.894-45.578 58.701-30.319 128.17-41 164.553-68.093 36.385-27.106 30.472-26.338 46.739-36.1 16.266-9.764 39.882-15.525 57.295-14.364 17.411 1.163 24.22 3.128 31.702 2.104 7.483-1.024 8.852-1.268 8.852-1.268Z" stroke="#000" stroke-width="5" stroke-miterlimit="10"/><path d="M575.17 571.103c-.713-19.034-5.113-48.362 19.213-48.949 24.326-.586 24.718 9.869 23.421 32.122-1.3 22.253-4.794 64.989-5.781 89.249-.985 24.253 8.199 79.752 10.152 100.077 1.957 20.318 1.515 19.195 2.47 24.398.95 5.208-.096 10.991 10.025 12.603 10.122 1.613 32.773 4.159 36.285 6.147 3.512 1.993.608 7.569-6.527 7.569-7.139 0-43.418 1.022-48.561-.302-5.144-1.323-9.447-2.052-14.072-28.982-4.627-26.934-15.5-62.061-18.918-83.179-3.422-21.117-6.688-76.03-7.155-89.495-.467-13.467-.552-21.258-.552-21.258Z" fill="#fff" stroke="#000" stroke-width="5" stroke-miterlimit="10"/><path d="M575.17 571.103c-.713-19.034-5.113-48.362 19.213-48.949 24.326-.586 24.718 9.869 23.421 32.122-1.3 22.253-4.794 64.989-5.781 89.249-.985 24.253 8.199 79.752 10.152 100.077 1.957 20.318 1.515 19.195 2.47 24.398.95 5.208-.096 10.991 10.025 12.603 10.122 1.613 32.773 4.159 36.285 6.147 3.512 1.993.608 7.569-6.527 7.569-7.139 0-43.418 1.022-48.561-.302-5.144-1.323-9.447-2.052-14.072-28.982-4.627-26.934-15.5-62.061-18.918-83.179-3.422-21.117-6.688-76.03-7.155-89.495-.467-13.467-.552-21.258-.552-21.258Z" stroke="#000" stroke-width="5" stroke-miterlimit="10"/><path d="M101.083 696.866c.21 8.437 3.977 20.591 8.633 26.115Z" fill="#fff"/><path d="M101.083 696.866c.21 8.437 3.977 20.591 8.633 26.115" stroke="#000" stroke-width="5" stroke-miterlimit="10"/><path d="M101.083 696.866c.21 8.437 3.977 20.591 8.633 26.115M623.426 516.734c-4.337 9.42-3.163 29.352 3.869 41.076" stroke="#000" stroke-width="5" stroke-miterlimit="10"/></g><defs><clipPath id="a"><path fill="#fff" d="M0 0h800v800H0z"/></clipPath></defs></svg>