<svg width="800" height="800" fill="none" xmlns="http://www.w3.org/2000/svg"><path d="M377.434 771.656s12.406-11.36 26.571-.028c14.164 11.331 158.641 2.832 172.805 0 14.165-2.833 138.81 5.665 138.81 5.665s33.997-8.5 25.498-25.496c-8.5-16.997-16.997-28.329-25.498-25.496-8.499 2.831-8.499 14.165-8.499 14.165v11.331l-124.646-14.164-79.321-2.833-2.607-187.535c-.259-18.602-8.813-36.43-23.952-47.241-17.351-12.393-45.68-18.767-89.589 5.312-87.82 48.16-121.814 93.486-121.814 93.486s-50.992-2.833-107.651 45.325c-56.657 48.16-96.318 50.992-96.318 50.992s-11.331 0 8.5 31.162c19.83 31.161 14.163 48.159 19.83 50.992 5.666 2.833 59.49-2.833 59.49-2.833s2.833-25.495-25.496-19.829c-28.328 5.665-5.665-45.325 2.833-48.16 8.498-2.833 158.641-62.324 158.641-62.324s127.481-25.495 138.811-45.325c0 0-2.832 42.493-11.331 62.324-8.499 19.83-19.829 31.161-14.165 50.991 5.665 19.83-8.836 19.363-16.997 25.496-22.663-2.833-3.905 34.023-3.905 34.023Z" fill="#fff" stroke="#000" stroke-width="5" stroke-miterlimit="10"/><path d="M377.434 771.656s12.406-11.36 26.571-.028c14.164 11.331 158.641 2.832 172.805 0 14.165-2.833 138.81 5.665 138.81 5.665s33.997-8.5 25.498-25.496c-8.5-16.997-16.997-28.329-25.498-25.496-8.499 2.831-8.499 14.165-8.499 14.165v11.331l-124.646-14.164-79.321-2.833-2.607-187.535c-.259-18.602-8.813-36.43-23.952-47.241-17.351-12.393-45.68-18.767-89.589 5.312-87.82 48.16-121.814 93.486-121.814 93.486s-50.992-2.833-107.651 45.325c-56.657 48.16-96.318 50.992-96.318 50.992s-11.331 0 8.5 31.162c19.83 31.161 14.163 48.159 19.83 50.992 5.666 2.833 59.49-2.833 59.49-2.833s2.833-25.495-25.496-19.829c-28.328 5.665-5.665-45.325 2.833-48.16 8.498-2.833 158.641-62.324 158.641-62.324s127.481-25.495 138.811-45.325c0 0-2.832 42.493-11.331 62.324-8.499 19.83-19.829 31.161-14.165 50.991 5.665 19.83-16.997 25.496-16.997 25.496-22.663-2.833-3.905 34.023-3.905 34.023Z" stroke="#000" stroke-width="5" stroke-miterlimit="10"/><path d="M392.671 717.801s25.496-16.884 7.082 51.05" stroke="#000" stroke-width="5" stroke-miterlimit="10"/><path d="M369.543 753.711c-8.963 4.673-17.426.05-28.439 1.296-17.494 1.983-33.783-20.286-31.881-40.21 2.511-26.307 95.144-23.625 96.147-8.282.592 9.087-7.547 25.256-22.769 36.611-4.894 3.653-13.058 10.585-13.058 10.585Z" fill="#fff" stroke="#000" stroke-width="5" stroke-miterlimit="10"/><path d="M369.543 753.711c-8.963 4.673-17.426.05-28.439 1.296-17.494 1.983-33.783-20.286-31.881-40.21 2.511-26.307 95.144-23.625 96.147-8.282.592 9.087-7.547 25.256-22.769 36.611-4.894 3.653-13.058 10.585-13.058 10.585Z" stroke="#000" stroke-width="5" stroke-miterlimit="10"/><path d="M318.485 707.311c14.623-1.485 28.86 14.873 27.089 23.905-1.766 9.026-1.948 15.402 1.062 16.289 3.01.882 7.967.174 8.322-2.479.355-2.659-1.062-8.5 4.072-8.853 5.134-.355 18.237 7.438 21.954 17.879 3.718 10.447-4.78 24.611-20.892 29.745-16.11 5.135-38.509-8.285-50.459-24.256-5.763-7.699-8.859-17.529-8.596-26.026.435-14.003 3.101-24.74 17.448-26.204Z" fill="#100200" stroke="#000" stroke-width="5" stroke-miterlimit="10"/><path d="M321.785 753.859c-4.819 6.276-8.213 14.52-20.232 16.028-12.017 1.509-16.022-6.411-23.436-3.771-7.409 2.639-21.165 19.353-33.383 19.729-12.218.378-10.881-8.792-24.303-8.604-11.477.16-10.415 20.932-35.852 18.669-12.203-1.084-13.22-78.26 3.204-76.941 16.425 1.321 22.683 13.796 31.898 13.421 9.213-.38 12.957-12.557 25.389-12.289 17.426.377 19.029 18.293 32.049 18.482 10.704.154 12.617-6.601 25.238-6.036 12.62.567 19.428 21.312 19.428 21.312Z" fill="#100200" stroke="#000" stroke-width="5" stroke-miterlimit="10"/><path d="M503.024 725.411s-84.855-38.774-99.02 46.212" stroke="#000" stroke-width="5" stroke-miterlimit="10"/><path d="M422.599 612.295s69.093-2.144 77.722-33.306Z" fill="#fff"/><path d="M422.599 612.295s69.093-2.144 77.722-33.306" stroke="#000" stroke-width="5" stroke-miterlimit="10"/><path d="M422.599 612.295s69.093-2.144 77.722-33.306" stroke="#000" stroke-width="5" stroke-miterlimit="10"/><path d="M423.833 598.819s11.332-19.831 14.164-28.33Z" fill="#fff"/><path d="M423.833 598.819s11.332-19.831 14.164-28.33" stroke="#000" stroke-width="5" stroke-miterlimit="10"/><path d="M423.833 598.819s11.332-19.831 14.164-28.33M111.657 676.437s-.194 26.099 20.01 28.065" stroke="#000" stroke-width="5" stroke-miterlimit="10"/></svg>