<svg width="800" height="800" viewBox="0 0 800 800" fill="none" xmlns="http://www.w3.org/2000/svg">
<path d="M459.619 473.172C478.439 479.588 493.483 502.858 498.913 522.771C504.349 542.69 533.728 610.399 536.045 656.671C538.361 702.941 536.524 761.475 540.286 768.204C544.046 774.939 574.476 779.013 578.209 784.34C581.951 789.668 572.254 795.217 552.509 795.261C532.764 795.31 524.59 795.711 520.824 782.984C517.063 770.252 516.754 710.019 513.645 677.777C510.541 645.528 482.301 575.746 477.915 565.8C473.526 555.855 464.217 549.471 464.217 549.471L434.403 513.02L459.619 473.172Z" fill="white" stroke="black" stroke-width="5" stroke-miterlimit="10"/>
<path d="M459.619 473.172C478.439 479.588 493.483 502.858 498.913 522.771C504.349 542.69 533.728 610.399 536.045 656.671C538.361 702.941 536.524 761.475 540.286 768.204C544.046 774.939 574.476 779.013 578.209 784.34C581.951 789.668 572.254 795.217 552.509 795.261C532.764 795.31 524.59 795.711 520.824 782.984C517.063 770.252 516.754 710.019 513.645 677.777C510.541 645.528 482.301 575.746 477.915 565.8C473.526 555.855 464.217 549.471 464.217 549.471L434.403 513.02L459.619 473.172Z" stroke="black" stroke-width="5" stroke-miterlimit="10"/>
<path d="M340.385 473.172C321.563 479.588 306.519 502.858 301.085 522.771C295.654 542.69 266.276 610.399 263.958 656.671C261.642 702.941 263.475 761.475 259.714 768.204C255.952 774.939 225.526 779.013 221.789 784.34C218.053 789.668 227.744 795.217 247.49 795.261C267.236 795.31 275.414 795.711 279.175 782.984C282.94 770.252 283.25 710.019 286.354 677.777C289.458 645.528 317.696 575.746 322.085 565.8C326.473 555.855 335.727 549.587 335.727 549.587L365.602 513.02L340.385 473.172Z" fill="white" stroke="black" stroke-width="5" stroke-miterlimit="10"/>
<path d="M340.385 473.172C321.563 479.588 306.519 502.858 301.085 522.771C295.654 542.69 266.276 610.399 263.958 656.671C261.642 702.941 263.475 761.475 259.714 768.204C255.952 774.939 225.526 779.013 221.789 784.34C218.053 789.668 227.744 795.217 247.49 795.261C267.236 795.31 275.414 795.711 279.175 782.984C282.94 770.252 283.25 710.019 286.354 677.777C289.458 645.528 317.696 575.746 322.085 565.8C326.473 555.855 335.727 549.587 335.727 549.587L365.602 513.02L340.385 473.172Z" stroke="black" stroke-width="5" stroke-miterlimit="10"/>
<path d="M408.807 664.296C442.657 651.291 547.184 633.11 566.304 656.774C585.423 680.437 573.165 700.11 550.945 711.153C528.725 722.197 473.998 737.95 429.024 732.153C384.046 726.354 332.177 701.594 332.177 701.594L340.639 670.879L408.807 664.296Z" fill="white" stroke="black" stroke-width="5" stroke-miterlimit="10"/>
<path d="M408.807 664.296C442.657 651.291 547.184 633.11 566.304 656.774C585.423 680.437 573.165 700.11 550.945 711.153C528.725 722.197 473.998 737.95 429.024 732.153C384.046 726.354 332.177 701.594 332.177 701.594L340.639 670.879L408.807 664.296Z" stroke="black" stroke-width="5" stroke-miterlimit="10"/>
<path d="M337.818 654.082L399.49 670.877L458.174 645.995C458.174 645.995 455.28 603.102 464.217 549.466L461.82 538.158C460.339 531.163 459.588 524.032 459.593 516.88L459.618 473.175C441.62 465.727 412.261 460.721 400.001 460.721C387.739 460.721 358.381 465.726 340.384 473.175L340.404 515.744C340.41 523.648 339.584 531.533 337.945 539.271L335.725 549.583C341.284 601.025 337.818 654.082 337.818 654.082Z" fill="white" stroke="black" stroke-width="5" stroke-miterlimit="10"/>
<path d="M337.818 654.082L399.49 670.877L458.174 645.995C458.174 645.995 455.28 603.102 464.217 549.466L461.82 538.158C460.339 531.163 459.588 524.032 459.593 516.88L459.618 473.175C441.62 465.727 412.261 460.721 400.001 460.721C387.739 460.721 358.381 465.726 340.384 473.175L340.404 515.744C340.41 523.648 339.584 531.533 337.945 539.271L335.725 549.583C341.284 601.025 337.818 654.082 337.818 654.082Z" stroke="black" stroke-width="5" stroke-miterlimit="10"/>
<path d="M434.401 433.833C434.202 464.614 412.827 492.524 399.619 492.438C386.414 492.355 365.403 464.168 365.603 433.385C365.804 402.608 434.601 403.056 434.401 433.833Z" fill="white" stroke="black" stroke-width="5" stroke-miterlimit="10"/>
<path d="M434.401 433.833C434.202 464.614 412.827 492.524 399.619 492.438C386.414 492.355 365.403 464.168 365.603 433.385C365.804 402.608 434.601 403.056 434.401 433.833Z" stroke="black" stroke-width="5" stroke-miterlimit="10"/>
<path d="M354.969 468.252C355.952 504.389 389.614 522.771 400.388 522.771C411.165 522.771 441.819 504.208 445.064 468.252" stroke="black" stroke-width="5" stroke-miterlimit="10"/>
<path d="M506.79 726.119C496.607 737.259 471.96 753.047 443.124 750.877C414.288 748.706 403.954 743.008 397.793 743.008C391.63 743.008 369.566 748.102 352.227 749.555C334.893 751.005 307.905 746.656 261.535 709.448C215.165 672.237 233.747 645.094 239.603 635.889C245.462 626.687 286.206 622.735 332.593 635.889C378.979 649.043 401.701 646.328 430.981 641.105C460.259 635.879 472.334 621.488 485.12 617.181C495.363 613.732 505.515 632.423 492.228 641.314C487.861 644.238 482.334 645.298 475.512 648.518C461.58 655.097 444.834 658.144 436.701 661.006C424.586 665.274 380.337 679.939 355.576 689.342C355.576 689.342 374.885 698.252 405.097 709.849C435.718 721.604 453.471 723.745 469.45 724.893C485.436 726.042 506.79 726.119 506.79 726.119Z" fill="white" stroke="black" stroke-width="5" stroke-miterlimit="10"/>
<path d="M506.79 726.119C496.607 737.259 471.96 753.047 443.124 750.877C414.288 748.706 403.954 743.008 397.793 743.008C391.63 743.008 369.566 748.102 352.227 749.555C334.893 751.005 307.905 746.656 261.535 709.448C215.165 672.237 233.747 645.094 239.603 635.889C245.462 626.687 286.206 622.735 332.593 635.889C378.979 649.043 401.701 646.328 430.981 641.105C460.259 635.879 472.334 621.488 485.12 617.181C495.363 613.732 505.515 632.423 492.228 641.314C487.861 644.238 482.334 645.298 475.512 648.518C461.58 655.097 444.834 658.144 436.701 661.006C424.586 665.274 380.337 679.939 355.576 689.342C355.576 689.342 374.885 698.252 405.097 709.849C435.718 721.604 453.471 723.745 469.45 724.893C485.436 726.042 506.79 726.119 506.79 726.119Z" stroke="black" stroke-width="5" stroke-miterlimit="10"/>
<path d="M356.936 689.345C318.491 694.701 280.504 683.923 280.504 683.923" stroke="black" stroke-width="5" stroke-miterlimit="10"/>
<path d="M371.019 411.111C352.928 448.612 381.489 493.662 397.919 493.877C414.348 494.092 444.087 449.817 426.988 411.851C416.212 387.918 382.423 387.473 371.019 411.111Z" fill="white" stroke="black" stroke-width="5" stroke-miterlimit="10"/>
<path d="M371.019 411.111C352.928 448.612 381.489 493.662 397.919 493.877C414.348 494.092 444.087 449.817 426.988 411.851C416.212 387.918 382.423 387.473 371.019 411.111Z" stroke="black" stroke-width="5" stroke-miterlimit="10"/>
<path d="M504.506 456.266C490.078 448.347 493.738 438.185 480.939 428.029C468.14 417.872 452.283 424.733 445.588 408.325C438.955 392.064 417.345 382.779 398.511 383.004H398.481H398.454C379.62 382.779 358.008 392.064 351.375 408.325C344.677 424.734 328.824 417.872 316.026 428.029C303.225 438.185 306.884 448.347 292.459 456.266C278.034 464.19 276.86 463.457 277.424 469.677C278.256 478.852 311.058 475.223 335.659 475.852C340.48 475.972 358.041 480.857 362.738 481.954C372.345 484.207 384.685 483.888 384.94 480.444C385.346 474.956 383.59 461.912 379.845 455.233C376.104 448.55 368.374 450.705 368.374 440.906C368.374 431.767 372.128 435.323 380.758 427.193C388.371 420.026 395.989 411.722 398.481 404.98C400.973 411.721 408.594 420.024 416.204 427.193C424.836 435.322 428.589 431.767 428.589 440.906C428.589 450.704 420.858 448.55 417.115 455.233C413.374 461.912 411.616 474.956 412.022 480.444C412.277 483.888 424.617 484.207 434.224 481.954C438.92 480.857 456.482 475.972 461.303 475.852C485.906 475.223 518.708 478.852 519.541 469.677C520.104 463.458 518.929 464.19 504.506 456.266Z" fill="black" stroke="black" stroke-width="5" stroke-miterlimit="10"/>
<path d="M420.593 642.862C424.324 646.119 427.493 660.325 426.301 664.581" stroke="black" stroke-width="5" stroke-miterlimit="10"/>
</svg>
