<svg width="800" height="800" fill="none" xmlns="http://www.w3.org/2000/svg"><path d="M459.619 473.172c18.82 6.416 33.864 29.686 39.294 49.599 5.436 19.919 34.815 87.628 37.132 133.9 2.316 46.27.479 104.804 4.241 111.533 3.76 6.735 34.19 10.809 37.923 16.136 3.742 5.328-5.955 10.877-25.7 10.921-19.745.049-27.919.45-31.685-12.277-3.761-12.732-4.07-72.965-7.179-105.207-3.104-32.249-31.344-102.031-35.73-111.977-4.389-9.945-13.698-16.329-13.698-16.329l-29.814-36.451 25.216-39.848Z" fill="#fff" stroke="#000" stroke-width="5" stroke-miterlimit="10"/><path d="M459.619 473.172c18.82 6.416 33.864 29.686 39.294 49.599 5.436 19.919 34.815 87.628 37.132 133.9 2.316 46.27.479 104.804 4.241 111.533 3.76 6.735 34.19 10.809 37.923 16.136 3.742 5.328-5.955 10.877-25.7 10.921-19.745.049-27.919.45-31.685-12.277-3.761-12.732-4.07-72.965-7.179-105.207-3.104-32.249-31.344-102.031-35.73-111.977-4.389-9.945-13.698-16.329-13.698-16.329l-29.814-36.451 25.216-39.848Z" stroke="#000" stroke-width="5" stroke-miterlimit="10"/><path d="M340.385 473.172c-18.822 6.416-33.866 29.686-39.3 49.599-5.431 19.919-34.809 87.628-37.127 133.9-2.316 46.27-.483 104.804-4.244 111.533-3.762 6.735-34.188 10.809-37.925 16.136-3.736 5.328 5.955 10.877 25.701 10.921 19.746.049 27.924.45 31.685-12.277 3.765-12.732 4.075-72.965 7.179-105.207 3.104-32.249 31.342-102.031 35.731-111.977 4.388-9.945 13.642-16.213 13.642-16.213l29.875-36.567-25.217-39.848Z" fill="#fff" stroke="#000" stroke-width="5" stroke-miterlimit="10"/><path d="M340.385 473.172c-18.822 6.416-33.866 29.686-39.3 49.599-5.431 19.919-34.809 87.628-37.127 133.9-2.316 46.27-.483 104.804-4.244 111.533-3.762 6.735-34.188 10.809-37.925 16.136-3.736 5.328 5.955 10.877 25.701 10.921 19.746.049 27.924.45 31.685-12.277 3.765-12.732 4.075-72.965 7.179-105.207 3.104-32.249 31.342-102.031 35.731-111.977 4.388-9.945 13.642-16.213 13.642-16.213l29.875-36.567-25.217-39.848Z" stroke="#000" stroke-width="5" stroke-miterlimit="10"/><path d="M408.807 664.296c33.85-13.005 138.377-31.186 157.497-7.522 19.119 23.663 6.861 43.336-15.359 54.379-22.22 11.044-76.947 26.797-121.921 21-44.978-5.799-96.847-30.559-96.847-30.559l8.462-30.715 68.168-6.583Z" fill="#fff" stroke="#000" stroke-width="5" stroke-miterlimit="10"/><path d="M408.807 664.296c33.85-13.005 138.377-31.186 157.497-7.522 19.119 23.663 6.861 43.336-15.359 54.379-22.22 11.044-76.947 26.797-121.921 21-44.978-5.799-96.847-30.559-96.847-30.559l8.462-30.715 68.168-6.583Z" stroke="#000" stroke-width="5" stroke-miterlimit="10"/><path d="m337.818 654.082 61.672 16.795 58.684-24.882s-2.894-42.893 6.043-96.529l-2.397-11.308a102.384 102.384 0 0 1-2.227-21.278l.025-43.705c-17.998-7.448-47.357-12.454-59.617-12.454-12.262 0-41.62 5.005-59.617 12.454l.02 42.569c.006 7.904-.82 15.789-2.459 23.527l-2.22 10.312c5.559 51.442 2.093 104.499 2.093 104.499Z" fill="#fff" stroke="#000" stroke-width="5" stroke-miterlimit="10"/><path d="m337.818 654.082 61.672 16.795 58.684-24.882s-2.894-42.893 6.043-96.529l-2.397-11.308a102.384 102.384 0 0 1-2.227-21.278l.025-43.705c-17.998-7.448-47.357-12.454-59.617-12.454-12.262 0-41.62 5.005-59.617 12.454l.02 42.569c.006 7.904-.82 15.789-2.459 23.527l-2.22 10.312c5.559 51.442 2.093 104.499 2.093 104.499Z" stroke="#000" stroke-width="5" stroke-miterlimit="10"/><path d="M434.401 433.833c-.199 30.781-21.574 58.691-34.782 58.605-13.205-.083-34.216-28.27-34.016-59.053.201-30.777 68.998-30.329 68.798.448Z" fill="#fff" stroke="#000" stroke-width="5" stroke-miterlimit="10"/><path d="M434.401 433.833c-.199 30.781-21.574 58.691-34.782 58.605-13.205-.083-34.216-28.27-34.016-59.053.201-30.777 68.998-30.329 68.798.448Z" stroke="#000" stroke-width="5" stroke-miterlimit="10"/><path d="M354.969 468.252c.983 36.137 34.645 54.519 45.419 54.519 10.777 0 41.431-18.563 44.676-54.519" stroke="#000" stroke-width="5" stroke-miterlimit="10"/><path d="M506.79 726.119c-10.183 11.14-34.83 26.928-63.666 24.758-28.836-2.171-39.17-7.869-45.331-7.869-6.163 0-28.227 5.094-45.566 6.547-17.334 1.45-44.322-2.899-90.692-40.107-46.37-37.211-27.788-64.354-21.932-73.559 5.859-9.202 46.603-13.154 92.99 0 46.386 13.154 69.108 10.439 98.388 5.216 29.278-5.226 41.353-19.617 54.139-23.924 10.243-3.449 20.395 15.242 7.108 24.133-4.367 2.924-9.894 3.984-16.716 7.204-13.932 6.579-30.678 9.626-38.811 12.488-12.115 4.268-56.364 18.933-81.125 28.336 0 0 19.309 8.91 49.521 20.507 30.621 11.755 48.374 13.896 64.353 15.044 15.986 1.149 37.34 1.226 37.34 1.226Z" fill="#fff" stroke="#000" stroke-width="5" stroke-miterlimit="10"/><path d="M506.79 726.119c-10.183 11.14-34.83 26.928-63.666 24.758-28.836-2.171-39.17-7.869-45.331-7.869-6.163 0-28.227 5.094-45.566 6.547-17.334 1.45-44.322-2.899-90.692-40.107-46.37-37.211-27.788-64.354-21.932-73.559 5.859-9.202 46.603-13.154 92.99 0 46.386 13.154 69.108 10.439 98.388 5.216 29.278-5.226 41.353-19.617 54.139-23.924 10.243-3.449 20.395 15.242 7.108 24.133-4.367 2.924-9.894 3.984-16.716 7.204-13.932 6.579-30.678 9.626-38.811 12.488-12.115 4.268-56.364 18.933-81.125 28.336 0 0 19.309 8.91 49.521 20.507 30.621 11.755 48.374 13.896 64.353 15.044 15.986 1.149 37.34 1.226 37.34 1.226Z" stroke="#000" stroke-width="5" stroke-miterlimit="10"/><path d="M356.936 689.345c-38.445 5.356-76.432-5.422-76.432-5.422" stroke="#000" stroke-width="5" stroke-miterlimit="10"/><path d="M371.019 411.111c-18.091 37.501 10.47 82.551 26.9 82.766 16.429.215 46.168-44.06 29.069-82.026-10.776-23.933-44.565-24.378-55.969-.74Z" fill="#fff" stroke="#000" stroke-width="5" stroke-miterlimit="10"/><path d="M371.019 411.111c-18.091 37.501 10.47 82.551 26.9 82.766 16.429.215 46.168-44.06 29.069-82.026-10.776-23.933-44.565-24.378-55.969-.74Z" stroke="#000" stroke-width="5" stroke-miterlimit="10"/><path d="M504.506 456.266c-14.428-7.919-10.768-18.081-23.567-28.237-12.799-10.157-28.656-3.296-35.351-19.704-6.633-16.261-28.243-25.546-47.077-25.321H398.454c-18.834-.225-40.446 9.06-47.079 25.321-6.698 16.409-22.551 9.547-35.349 19.704-12.801 10.156-9.142 20.318-23.567 28.237-14.425 7.924-15.599 7.191-15.035 13.411.832 9.175 33.634 5.546 58.235 6.175 4.821.12 22.382 5.005 27.079 6.102 9.607 2.253 21.947 1.934 22.202-1.51.406-5.488-1.35-18.532-5.095-25.211-3.741-6.683-11.471-4.528-11.471-14.327 0-9.139 3.754-5.583 12.384-13.713 7.613-7.167 15.231-15.471 17.723-22.213 2.492 6.741 10.113 15.044 17.723 22.213 8.632 8.129 12.385 4.574 12.385 13.713 0 9.798-7.731 7.644-11.474 14.327-3.741 6.679-5.499 19.723-5.093 25.211.255 3.444 12.595 3.763 22.202 1.51 4.696-1.097 22.258-5.982 27.079-6.102 24.603-.629 57.405 3 58.238-6.175.563-6.219-.612-5.487-15.035-13.411Z" fill="#000" stroke="#000" stroke-width="5" stroke-miterlimit="10"/><path d="M420.593 642.862c3.731 3.257 6.9 17.463 5.708 21.719" stroke="#000" stroke-width="5" stroke-miterlimit="10"/></svg>