<svg width="800" height="800" fill="none" xmlns="http://www.w3.org/2000/svg"><g clip-path="url(#a)"><path d="M502.953 709.606c-32.75 2.561-63.161 40.978-107.608 46.102-44.448 5.122-95.913-2.563-112.287-5.124-16.376-2.561-18.715 2.561-14.036 17.929 4.679 15.367 23.393 20.489 53.804 20.489s51.465-2.561 72.518-7.682" fill="#fff"/><path d="M502.953 709.606c-32.75 2.561-63.161 40.978-107.608 46.102-44.448 5.122-95.913-2.563-112.287-5.124-16.376-2.561-18.715 2.561-14.036 17.929 4.679 15.367 23.393 20.489 53.804 20.489s51.465-2.561 72.518-7.682" stroke="#000" stroke-width="5" stroke-miterlimit="10"/><path d="M502.953 709.606c-32.75 2.561-63.161 40.978-107.608 46.102-44.448 5.122-95.913-2.563-112.287-5.124-16.376-2.561-18.715 2.561-14.036 17.929 4.679 15.367 23.393 20.489 53.804 20.489s51.465-2.561 72.518-7.682" stroke="#000" stroke-width="5" stroke-miterlimit="10"/><path d="M402.934 753.989s2.792 16.346-2.616 27.943Z" fill="#fff"/><path d="M402.934 753.989s2.792 16.346-2.616 27.943" stroke="#000" stroke-width="5" stroke-miterlimit="10"/><path d="M402.934 753.989s2.792 16.346-2.616 27.943M352.578 787.996c1.729-5.101 4.068-25.589 1.729-30.712" stroke="#000" stroke-width="5" stroke-miterlimit="10"/><path d="M561.646 704.484c-21.053-17.928-98.25 0-98.25 0-14.036-12.805-15.517-44.522-15.517-44.522l-49.984-9.262-50.606 9.262s-.859 31.717-14.895 44.522c0 0-77.197-17.928-98.25 0-21.054 17.928 7.017 46.1 30.411 53.784 23.393 7.682 98.25 23.049 133.34 23.049 35.091 0 109.947-15.367 133.341-23.049 23.392-7.684 51.465-35.856 30.41-53.784Z" fill="#fff" stroke="#000" stroke-width="5" stroke-miterlimit="10"/><path d="M561.646 704.484c-21.053-17.928-98.25 0-98.25 0-14.036-12.805-15.517-44.522-15.517-44.522l-49.984-9.262-50.606 9.262s-.859 31.717-14.895 44.522c0 0-77.197-17.928-98.25 0-21.054 17.928 7.017 46.1 30.411 53.784 23.393 7.682 98.25 23.049 133.34 23.049 35.091 0 109.947-15.367 133.341-23.049 23.392-7.684 51.465-35.856 30.41-53.784Z" stroke="#000" stroke-width="5" stroke-miterlimit="10"/><path d="M290.287 709.606c32.75 2.561 63.161 40.978 107.608 46.102 44.448 5.122 95.912-2.563 112.287-5.124 16.374-2.561 18.714 2.561 14.035 17.929-4.679 15.367-23.393 20.489-53.804 20.489s-50.994-6.21-72.518-7.682c-37.429-2.563-107.704-12.527-133.341-23.05" fill="#fff"/><path d="M290.287 709.606c32.75 2.561 63.161 40.978 107.608 46.102 44.448 5.122 95.912-2.563 112.287-5.124 16.374-2.561 18.714 2.561 14.035 17.929-4.679 15.367-23.393 20.489-53.804 20.489s-50.994-6.21-72.518-7.682c-37.429-2.563-107.704-12.527-133.341-23.05" stroke="#000" stroke-width="5" stroke-miterlimit="10"/><path d="M290.287 709.606c32.75 2.561 63.161 40.978 107.608 46.102 44.448 5.122 95.912-2.563 112.287-5.124 16.374-2.561 18.714 2.561 14.035 17.929-4.679 15.367-23.393 20.489-53.804 20.489s-50.994-6.21-72.518-7.682c-37.429-2.563-107.704-12.527-133.341-23.05" stroke="#000" stroke-width="5" stroke-miterlimit="10"/><path d="M502.953 709.606c-32.75 2.561-63.161 40.978-107.608 46.102" stroke="#000" stroke-width="5" stroke-miterlimit="10"/><path d="M447.879 659.962s-20.944 10.8-50.092 10.8c-29.145 0-50.498-10.8-50.498-10.8s-.333-28.188 2.339-89.64c.668-15.359 1.908-27.587 3.343-37.217 2.496-16.812 10.037-32.194 21.234-44.025.102-.11.208-.22.313-.33 16.359-17.33 4.662-68.552 4.662-68.552s11.699 10.244 25.732 10.244c14.034 0 7.018 17.928 7.018 17.928s-1.492 6.618.548 17.305c2.225 11.64 4.176 27.252 12.007 35.496 7.576 7.978 22.921 28.158 25.733 35.856 4.679 12.805-2.34 40.978-4.679 51.222-2.339 10.245 2.34 71.713 2.34 71.713Z" fill="#fff" stroke="#000" stroke-width="5" stroke-miterlimit="10"/><path d="M447.879 659.962s-20.944 10.8-50.092 10.8c-29.145 0-50.498-10.8-50.498-10.8s-.333-28.188 2.339-89.64c.668-15.359 1.908-27.587 3.343-37.217 2.496-16.812 10.037-32.194 21.234-44.025.102-.11.208-.22.313-.33 16.359-17.33 4.662-68.552 4.662-68.552s11.699 10.244 25.732 10.244c14.034 0 7.018 17.928 7.018 17.928s-1.492 6.618.548 17.305c2.225 11.64 4.176 27.252 12.007 35.496 7.576 7.978 22.921 28.158 25.733 35.856 4.679 12.805-2.34 40.978-4.679 51.222-2.339 10.245 2.34 71.713 2.34 71.713Z" stroke="#000" stroke-width="5" stroke-miterlimit="10"/><path d="M379.717 425.058c-4.722-8.809-.975-17.631-2.696-28.703-2.732-17.593 16.626-35.307 34.827-34.478 24.03 1.091 26.532 94.977 12.649 96.835-8.224 1.103-23.342-6.243-34.472-21.024-3.578-4.749-10.308-12.63-10.308-12.63Z" fill="#fff" stroke="#000" stroke-width="5" stroke-miterlimit="10"/><path d="M379.717 425.058c-4.722-8.809-.975-17.631-2.696-28.703-2.732-17.593 16.626-35.307 34.827-34.478 24.03 1.091 26.532 94.977 12.649 96.835-8.224 1.103-23.342-6.243-34.472-21.024-3.578-4.749-10.308-12.63-10.308-12.63Z" stroke="#000" stroke-width="5" stroke-miterlimit="10"/><path d="M422.051 372.661c-.085 16.481-10.746 46.475-29.709 41.377-21.315-5.727-12.465 8.034-10.743 12.386 1.726 4.352 12.16 12.46 10.058 13.736-2.1 1.278-29.595-11.525-32.8-35.236-3.203-23.71 4.901-35.069 16.057-42.569 11.156-7.5 29.562-8.842 40.888-1.434 11.327 7.409 6.249 11.74 6.249 11.74Z" fill="#100200" stroke="#000" stroke-width="5" stroke-miterlimit="10"/><path d="M407.515 756.615c2.935 13.475-2.852 25.314-2.852 25.314" stroke="#000" stroke-width="5" stroke-miterlimit="10"/><path d="M384.718 554.955s68.08 88.281 72.518 94.762c14.036 20.49 72.518 40.978 77.197 43.539 4.679 2.562 16.376 28.173 30.349 39.401 13.978 11.227 4.74-11.229 1.423-23.051-3.318-11.822-71.54-67.573-83.237-80.379-9.991-10.939-50.718-96.648-62.371-121.391-3.26-6.92-8.363-12.705-14.826-15.949" fill="#fff"/><path d="M384.718 554.955s68.08 88.281 72.518 94.762c14.036 20.49 72.518 40.978 77.197 43.539 4.679 2.562 16.376 28.173 30.349 39.401 13.978 11.227 4.74-11.229 1.423-23.051-3.318-11.822-71.54-67.573-83.237-80.379-9.991-10.939-50.718-96.648-62.371-121.391-3.26-6.92-8.363-12.705-14.826-15.949" stroke="#000" stroke-width="5" stroke-miterlimit="10"/><path d="M384.718 554.955s68.08 88.281 72.518 94.762c14.036 20.49 72.518 40.978 77.197 43.539 4.679 2.562 16.376 28.173 30.349 39.401 13.978 11.227 4.74-11.229 1.423-23.051-3.318-11.822-71.54-67.573-83.237-80.379-9.991-10.939-50.718-96.648-62.371-121.391-3.26-6.92-8.363-12.705-14.826-15.949" stroke="#000" stroke-width="5" stroke-miterlimit="10"/></g><defs><clipPath id="a"><path fill="#fff" d="M0 0h800v800H0z"/></clipPath></defs></svg>