<svg width="800" height="800" fill="none" xmlns="http://www.w3.org/2000/svg"><path d="M351.659 481.287c.468 1.417-23.964 52.528-22.98 54.186 18.092 30.382 121.458 101.649 156.018 121.225 6.718 3.808 13.069 8.191 19.068 13.045 26.364 21.325 101.746 55.915 129.784 66.7 23.975 9.222 35.479 26.357 39.729 34.34 2.299 4.315 5.141 8.342 8.728 11.663 14.116 13.073 17.882-.909 17.882-7.361 0-7.374-.579-44.301-17.787-46.758l-.921-.138c-15.479-2.317-29.567-10.184-39.859-21.969-22.835-26.154-38.438-36.45-122.494-94.643" fill="#fff"/><path d="M351.659 481.287c.468 1.417-23.964 52.528-22.98 54.186 18.092 30.382 121.458 101.649 156.018 121.225 6.718 3.808 13.069 8.191 19.068 13.045 26.364 21.325 101.746 55.915 129.784 66.7 23.975 9.222 35.479 26.357 39.729 34.34 2.299 4.315 5.141 8.342 8.728 11.663 14.116 13.073 17.882-.909 17.882-7.361 0-7.374-.579-44.301-17.787-46.758l-.921-.138c-15.479-2.317-29.567-10.184-39.859-21.969-22.835-26.154-38.438-36.45-122.494-94.643" stroke="#000" stroke-width="5" stroke-miterlimit="10"/><path d="M351.659 481.287c.468 1.417-23.964 52.528-22.98 54.186 18.092 30.382 121.458 101.649 156.018 121.225 6.718 3.808 13.069 8.191 19.068 13.045 26.364 21.325 101.746 55.915 129.784 66.7 23.975 9.222 35.479 26.357 39.729 34.34 2.299 4.315 5.141 8.342 8.728 11.663 14.116 13.073 17.882-.909 17.882-7.361 0-7.374-.579-44.301-17.787-46.758l-.921-.138c-15.479-2.317-29.567-10.184-39.859-21.969-22.835-26.154-38.438-36.45-122.494-94.643" stroke="#000" stroke-width="5" stroke-miterlimit="10"/><path d="M328.679 534.165c1.013 0 33.344-91.033 34.417-90.959 47.683 3.33 148.768 81.971 178.268 113.468 5.626 6.012 13.984 14.242 20.947 18.639 29.873 18.865 89.283 84.335 111.189 103.972 20.035 17.963 23.137 18.802 42.382 21.187.877.106 1.73.399 2.562.703 27.861 10.16 13.643 20.247 6.8 22.672-6.953 2.462-37.23 14.473-45.292-.927-5.472-10.448-5.891-13.869-9.486-16.966-1.548-1.33-10.424-6.268-12.33-7.003-51.409-19.708-139.308-87.372-139.308-87.372l-89.729-64.687" fill="#fff"/><path d="M328.679 534.165c1.013 0 33.344-91.033 34.417-90.959 47.683 3.33 148.768 81.971 178.268 113.468 5.626 6.012 13.984 14.242 20.947 18.639 29.873 18.865 89.283 84.335 111.189 103.972 20.035 17.963 23.137 18.802 42.382 21.187.877.106 1.73.399 2.562.703 27.861 10.16 13.643 20.247 6.8 22.672-6.953 2.462-37.23 14.473-45.292-.927-5.472-10.448-5.891-13.869-9.486-16.966-1.548-1.33-10.424-6.268-12.33-7.003-51.409-19.708-139.308-87.372-139.308-87.372l-89.729-64.687" stroke="#000" stroke-width="5" stroke-miterlimit="10"/><path d="M328.679 534.165c1.013 0 33.344-91.033 34.417-90.959 47.683 3.33 148.768 81.971 178.268 113.468 5.626 6.012 13.984 14.242 20.947 18.639 29.873 18.865 89.283 84.335 111.189 103.972 20.035 17.963 23.137 18.802 42.382 21.187.877.106 1.73.399 2.562.703 27.861 10.16 13.643 20.247 6.8 22.672-6.953 2.462-37.23 14.473-45.292-.927-5.472-10.448-5.891-13.869-9.486-16.966-1.548-1.33-10.424-6.268-12.33-7.003-51.409-19.708-139.308-87.372-139.308-87.372l-89.729-64.687" stroke="#000" stroke-width="5" stroke-miterlimit="10"/><path d="M279.513 421.082c-9.833-4.917-31.958-12.292-34.416-17.208-2.458-4.916 0-83.583-2.458-103.249-2.458-19.666-9.834-68.833-19.667-95.875-9.833-27.041-19.667-54.083-22.125-73.75-2.458-19.667 4.787-59-19.666-59-34.547 0 2.458 49.167 4.916 66.375s14.75 86.042 19.667 108.167c4.916 22.124 7.375 27.041 4.916 59-2.458 31.958-14.75 115.541-14.75 115.541l29.499 7.375 49.167 7.374 4.917-14.75Z" fill="#fff" stroke="#000" stroke-width="5" stroke-miterlimit="10"/><path d="M279.513 421.082c-9.833-4.917-31.958-12.292-34.416-17.208-2.458-4.916 0-83.583-2.458-103.249-2.458-19.666-9.834-68.833-19.667-95.875-9.833-27.041-19.667-54.083-22.125-73.75-2.458-19.667 4.787-59-19.666-59-34.547 0 2.458 49.167 4.916 66.375s14.75 86.042 19.667 108.167c4.916 22.124 7.375 27.041 4.916 59-2.458 31.958-14.75 115.541-14.75 115.541l29.499 7.375 49.167 7.374 4.917-14.75Z" stroke="#000" stroke-width="5" stroke-miterlimit="10"/><path d="M171.347 494.831c-2.459 19.667 4.916 56.541 7.375 78.667 2.458 22.124 7.375 44.25 7.375 66.376 0 22.124-7.375 115.541-12.291 122.916-4.918 7.374-12.293 7.374-24.584 12.29-12.292 4.918-22.125 4.918-27.041 9.835-4.917 4.916 0 4.916 7.375 4.916s44.25 4.917 54.083 0c9.833-4.916 14.75-24.582 24.583-73.749 9.833-49.167 14.75-115.542 14.75-142.584v-36.876l7.376-29.5-17.209-14.75-34.416-2.457-7.376 4.916Z" fill="#fff" stroke="#000" stroke-width="5" stroke-miterlimit="10"/><path d="M171.347 494.831c-2.459 19.667 4.916 56.541 7.375 78.667 2.458 22.124 7.375 44.25 7.375 66.376 0 22.124-7.375 115.541-12.291 122.916-4.918 7.374-12.293 7.374-24.584 12.29-12.292 4.918-22.125 4.918-27.041 9.835-4.917 4.916 0 4.916 7.375 4.916s44.25 4.917 54.083 0c9.833-4.916 14.75-24.582 24.583-73.749 9.833-49.167 14.75-115.542 14.75-142.584v-36.876l7.376-29.5-17.209-14.75-34.416-2.457-7.376 4.916Z" stroke="#000" stroke-width="5" stroke-miterlimit="10"/><path d="M363.096 443.207c-17.209-2.457 0 0-39.334-7.374-15.47-2.9-73.75-27.041-73.75-27.041s4.917 12.292-17.208 14.75c-21.99 2.444-34.417-14.75-34.417-14.75s-2.458 19.668-9.833 22.125c-7.375 2.458-49.167 9.833-61.459 4.916-12.291-4.916-14.751 39.334-14.751 39.334s54.083-12.293 61.46 0c0 0 2.458 2.458 0 9.833-2.459 7.375-2.459 9.834-2.459 9.834s22.125-4.917 36.876 4.917c14.75 9.834 14.75 29.499 14.75 34.417 0 0 16.697-3.589 39.334-2.458 49.167 2.458 29.499 0 66.375 2.458 24.686-24.561 27.795-53.362 34.416-90.961Z" fill="#fff" stroke="#000" stroke-width="5" stroke-miterlimit="10"/><path d="M363.096 443.207c-17.209-2.457 0 0-39.334-7.374-15.47-2.9-73.75-27.041-73.75-27.041s4.917 12.292-17.208 14.75c-21.99 2.444-34.417-14.75-34.417-14.75s-2.458 19.668-9.833 22.125c-7.375 2.458-49.167 9.833-61.459 4.916-12.291-4.916-14.751 39.334-14.751 39.334s54.083-12.293 61.46 0c0 0 2.458 2.458 0 9.833-2.459 7.375-2.459 9.834-2.459 9.834s22.125-4.917 36.876 4.917c14.75 9.834 14.75 29.499 14.75 34.417 0 0 16.697-3.589 39.334-2.458 49.167 2.458 29.499 0 66.375 2.458 24.686-24.561 27.795-53.362 34.416-90.961Z" stroke="#000" stroke-width="5" stroke-miterlimit="10"/><path d="M118.924 470.914c-8.724 1.766-14.827-4.118-24.487-5.702-15.343-2.524-23.925-25.007-17.6-41.192 8.358-21.364 86.491 2.986 83.715 16.038-1.646 7.73-12.392 19.286-28.02 25.134-5.025 1.883-13.608 5.722-13.608 5.722Z" fill="#fff" stroke="#000" stroke-width="5" stroke-miterlimit="10"/><path d="M118.924 470.914c-8.724 1.766-14.827-4.118-24.487-5.702-15.343-2.524-23.925-25.007-17.6-41.192 8.358-21.364 86.491 2.986 83.715 16.038-1.646 7.73-12.392 19.286-28.02 25.134-5.025 1.883-13.608 5.722-13.608 5.722Z" stroke="#000" stroke-width="5" stroke-miterlimit="10"/><path d="M88.888 417.878c13.557 4.746 34.957 22.861 24.877 38.524-11.336 17.605 2.748 13.522 6.87 13.2 4.121-.322 14.035-7.438 14.438-5.181.401 2.256-18.68 23.433-39.211 19.602-20.53-3.83-27.373-14.358-30.09-26.548-2.718-12.187 1.887-29.172 11.507-37.288 9.617-8.122 11.61-2.309 11.61-2.309Z" fill="#100200" stroke="#000" stroke-width="5" stroke-miterlimit="10"/><path d="M195.008 425.077c10.755 10.755 12.407 23.845 5.838 35.337-9.833 17.21-25.971 19.349-25.971 19.349" stroke="#000" stroke-width="5" stroke-miterlimit="10"/><path d="M627.66 734.106s18.346-6.036 18.022-23.35Z" fill="#fff"/><path d="M627.66 734.106s18.346-6.036 18.022-23.35" stroke="#000" stroke-width="5" stroke-miterlimit="10"/><path d="M627.66 734.106s18.346-6.036 18.022-23.35" stroke="#000" stroke-width="5" stroke-miterlimit="10"/><path d="M653.897 697.251s18.354-6.034 15.904-21.375Z" fill="#fff"/><path d="M653.897 697.251s18.354-6.034 15.904-21.375" stroke="#000" stroke-width="5" stroke-miterlimit="10"/><path d="M653.897 697.251s18.354-6.034 15.904-21.375" stroke="#000" stroke-width="5" stroke-miterlimit="10"/></svg>