<svg width="800" height="800" fill="none" xmlns="http://www.w3.org/2000/svg"><path d="M324.73 658.285s2.308 29.064 12.362 34.09c10.055 5.027 153.305 22.614 165.871 27.641 12.565 5.027 128.171 27.65 145.765 25.137 17.592-2.514 35.184-25.137 37.697-62.83 0 0 7.539-25.132 17.593 5.028 10.053 30.153-2.514 45.232 0 57.803 2.514 12.566 7.539 27.645 0 32.673-7.331 4.883-188.072 9.767-230.442-6.133-2.698-1.009-5.54-1.507-8.419-1.641-21.91-1.018-98.218-2.045-138.117-9.82-5.574-1.089-44.589-5.167-50.263-5.027-20.175.479-35.186 7.539-55.291-2.514-14.217-7.112-40.211-40.216-40.211-40.216s-2.513 27.651 0 35.189c2.513 7.539 12.566 27.646 7.539 35.184-5.026 7.539-90.475 12.566-90.475 12.566s-22.618-15.079 17.593-22.619c40.211-7.537 35.184-27.644 35.184-27.644s-40.211-92.993-42.724-105.554c-2.513-12.57-2.513-42.724 12.566-47.75 15.079-5.026 37.697-7.538 52.777 20.106 15.079 27.644 47.75 52.776 47.75 52.776v-5.031l103.245-1.414Z" fill="#fff" stroke="#000" stroke-width="5" stroke-miterlimit="10"/><path d="M324.73 658.285s2.308 29.064 12.362 34.09c10.055 5.027 153.305 22.614 165.871 27.641 12.565 5.027 128.171 27.65 145.765 25.137 17.592-2.514 35.184-25.137 37.697-62.83 0 0 7.539-25.132 17.593 5.028 10.053 30.153-2.514 45.232 0 57.803 2.514 12.566 7.539 27.645 0 32.673-7.331 4.883-188.072 9.767-230.442-6.133-2.698-1.009-5.54-1.507-8.419-1.641-21.91-1.018-98.218-2.045-138.117-9.82-5.574-1.089-44.589-5.167-50.263-5.027-20.175.479-35.186 7.539-55.291-2.514-14.217-7.112-40.211-40.216-40.211-40.216s-2.513 27.651 0 35.189c2.513 7.539 12.566 27.646 7.539 35.184-5.026 7.539-90.475 12.566-90.475 12.566s-22.618-15.079 17.593-22.619c40.211-7.537 35.184-27.644 35.184-27.644s-40.211-92.993-42.724-105.554c-2.513-12.57-2.513-42.724 12.566-47.75 15.079-5.026 37.697-7.538 52.777 20.106 15.079 27.644 47.75 52.776 47.75 52.776v-5.031l103.245-1.414Z" stroke="#000" stroke-width="5" stroke-miterlimit="10"/><path d="M181.275 712.476c-.857-13.953-1.208-28.102-4.548-41.751-3.019-12.335-9.555-22.687-15.713-33.635" fill="#fff"/><path d="M181.275 712.476c-.857-13.953-1.208-28.102-4.548-41.751-3.019-12.335-9.555-22.687-15.713-33.635" stroke="#000" stroke-width="5" stroke-miterlimit="10"/><path d="M181.275 712.476c-.857-13.953-1.208-28.102-4.548-41.751-3.019-12.335-9.555-22.687-15.713-33.635" stroke="#000" stroke-width="5" stroke-miterlimit="10"/><path d="M325.155 662.188c-33.398 9.134-68.202 8.924-103.669-2.488 4.773-41.566-.758-80.924-.758-80.924 9.302-27.068 5.784-49.762 5.784-49.762s9.6-3.492 21.964-13.143c12.364-9.677 9.124-42.27 9.124-42.27s.801.123 15.88.123 15.707-.123 15.707-.123-3.087 32.593 9.277 42.27c12.389 9.651 23.549 13.143 23.549 13.143s-5.08 22.694 4.197 49.762c0 0-6.236 41.19-1.055 83.412Z" fill="#fff" stroke="#000" stroke-width="5" stroke-miterlimit="10"/><path d="M325.155 662.188c-33.398 9.134-68.202 8.924-103.669-2.488 4.773-41.566-.758-80.924-.758-80.924 9.302-27.068 5.784-49.762 5.784-49.762s9.6-3.492 21.964-13.143c12.364-9.677 9.124-42.27 9.124-42.27s.801.123 15.88.123 15.707-.123 15.707-.123-3.087 32.593 9.277 42.27c12.389 9.651 23.549 13.143 23.549 13.143s-5.08 22.694 4.197 49.762c0 0-6.236 41.19-1.055 83.412Z" stroke="#000" stroke-width="5" stroke-miterlimit="10"/><path d="M245.95 406.177c-18.135 37.59 10.489 82.737 26.96 82.955 16.468.215 46.276-44.162 29.137-82.216-10.803-23.986-44.667-24.433-56.097-.739Z" fill="#fff" stroke="#000" stroke-width="5" stroke-miterlimit="10"/><path d="M245.95 406.177c-18.135 37.59 10.489 82.737 26.96 82.955 16.468.215 46.276-44.162 29.137-82.216-10.803-23.986-44.667-24.433-56.097-.739Z" stroke="#000" stroke-width="5" stroke-miterlimit="10"/><path d="M379.744 451.436c-14.459-7.939-10.791-18.121-23.62-28.302-12.829-10.183-28.721-3.307-35.431-19.755-6.654-16.296-28.315-25.603-47.189-25.375v-.003c-.01 0-.02.003-.029.003l-.03-.003v.003c-18.878-.228-40.539 9.079-47.188 25.375-6.71 16.448-22.602 9.572-35.433 19.755-12.826 10.18-9.162 20.363-23.618 28.302-14.459 7.943-15.636 7.207-15.069 13.442.834 9.195 33.711 5.557 58.37 6.185 4.833.126 22.435 5.017 27.142 6.122 9.629 2.253 21.998 1.935 22.254-1.517.407-5.498-1.355-18.577-5.11-25.269-3.751-6.695-11.496-4.536-11.496-14.357 0-9.165 3.76-5.597 12.414-13.745 7.63-7.187 15.266-15.506 17.764-22.265 2.498 6.759 10.131 15.079 17.759 22.265 8.656 8.148 12.418 4.58 12.418 13.745 0 9.821-7.748 7.662-11.5 14.357-3.75 6.692-5.512 19.771-5.104 25.269.254 3.45 12.623 3.77 22.252 1.517 4.708-1.105 22.309-5.996 27.142-6.122 24.656-.628 57.534 3.009 58.368-6.185.569-6.235-.609-5.499-15.066-13.442Z" fill="#040004" stroke="#000" stroke-width="5" stroke-miterlimit="10"/><path d="M237.728 523.205s13.428 20.209 35.939 20.209c22.51 0 35.935-20.209 35.935-20.209" fill="#fff"/><path d="M237.728 523.205s13.428 20.209 35.939 20.209c22.51 0 35.935-20.209 35.935-20.209" stroke="#000" stroke-width="5" stroke-miterlimit="10"/><path d="M237.728 523.205s13.428 20.209 35.939 20.209c22.51 0 35.935-20.209 35.935-20.209" stroke="#000" stroke-width="5" stroke-miterlimit="10"/><path d="M261.964 639.594c3.497.366 4.918-42.724 7.377-45.238l2.459-2.514s2.462-2.513 2.462 7.539v46.456c0 4.633-4.352 7.972-8.705 6.684 0 0-.815-.25-1.134-.361-33.987 1.593-66.389 1.274-95.93-2.514-7.381-5.026-9.84-7.538-4.921-30.159 4.921-22.617 36.898-75.394 41.815-82.935 4.919-7.538 21.098-7.538 21.098-7.538 4.919 2.513-2.553 47.786-7.539 50.263-4.993 2.48-30.131 50.263-30.131 50.263s.532 2.515 73.149 10.054Z" fill="#fff" stroke="#000" stroke-width="5" stroke-miterlimit="10"/><path d="M261.964 639.594c3.497.366 4.918-42.724 7.377-45.238l2.459-2.514s2.462-2.513 2.462 7.539v46.456c0 4.633-4.352 7.972-8.705 6.684 0 0-.815-.25-1.134-.361-33.987 1.593-66.389 1.274-95.93-2.514-7.381-5.026-9.84-7.538-4.921-30.159 4.921-22.617 36.898-75.394 41.815-82.935 4.919-7.538 21.098-7.538 21.098-7.538 4.919 2.513-2.553 47.786-7.539 50.263-4.993 2.48-30.131 50.263-30.131 50.263s.532 2.515 73.149 10.054Z" stroke="#000" stroke-width="5" stroke-miterlimit="10"/><path d="M286.561 639.594c-3.5.366-4.92-42.724-7.383-45.238l-2.456-2.514s-2.462-2.513-2.462 7.539v46.456c0 4.633 4.352 7.972 8.704 6.684 0 0 .817-.25 1.138-.361 33.981 1.593 66.386 1.274 95.928-2.514 7.381-5.026 9.842-7.538 4.92-30.159-4.92-22.617-36.893-75.394-41.814-82.935-4.918-7.538-21.094-7.538-21.094-7.538-4.924 2.513.005 47.786 4.995 50.263 4.993 2.48 32.673 50.263 32.673 50.263s-.534 2.515-73.149 10.054Z" fill="#fff" stroke="#000" stroke-width="5" stroke-miterlimit="10"/><path d="M286.561 639.594c-3.5.366-4.92-42.724-7.383-45.238l-2.456-2.514s-2.462-2.513-2.462 7.539v46.456c0 4.633 4.352 7.972 8.704 6.684 0 0 .817-.25 1.138-.361 33.981 1.593 66.386 1.274 95.928-2.514 7.381-5.026 9.842-7.538 4.92-30.159-4.92-22.617-36.893-75.394-41.814-82.935-4.918-7.538-21.094-7.538-21.094-7.538-4.924 2.513.005 47.786 4.995 50.263 4.993 2.48 32.673 50.263 32.673 50.263s-.534 2.515-73.149 10.054Z" stroke="#000" stroke-width="5" stroke-miterlimit="10"/><path d="M151.116 745.147s16.464 10.053 29.592 0Z" fill="#fff"/><path d="M151.116 745.147s16.464 10.053 29.592 0" stroke="#000" stroke-width="5" stroke-miterlimit="10"/><path d="M151.116 745.147s16.464 10.053 29.592 0" stroke="#000" stroke-width="5" stroke-miterlimit="10"/><path d="M643.299 745.311s12.152 13.351 2.506 36.756Z" fill="#fff"/><path d="M643.299 745.311s12.152 13.351 2.506 36.756" stroke="#000" stroke-width="5" stroke-miterlimit="10"/><path d="M643.299 745.311s12.152 13.351 2.506 36.756" stroke="#000" stroke-width="5" stroke-miterlimit="10"/></svg>