<svg width="800" height="800" fill="none" xmlns="http://www.w3.org/2000/svg"><g clip-path="url(#a)"><path d="M445.483 678.754c10.712-6.573 40.052-15.536 44.339 21.289 2.722 23.372 9.693 57.677 27.688 67.432 17.996 9.753-21.655 35.137-43.355 18.373-21.705-16.766-30.6-47.082-22.414-69.681 8.189-22.604-6.258-37.413-6.258-37.413Z" fill="#000" stroke="#000" stroke-width="5" stroke-miterlimit="10"/><path d="M429.56 588.604c2.44 12.186 4.879 26.81 0 38.996-4.88 12.186-31.713 26.809-46.349 17.06-14.636-9.748-17.076-12.186-19.515-19.496-2.439-7.312-9.757-31.684-9.757-31.684l21.955-21.935 39.03-2.437 14.636 19.496Z" fill="#fff" stroke="#000" stroke-width="5" stroke-miterlimit="10"/><path d="M429.56 588.604c2.44 12.186 4.879 26.81 0 38.996-4.88 12.186-31.713 26.809-46.349 17.06-14.636-9.748-17.076-12.186-19.515-19.496-2.439-7.312-9.757-31.684-9.757-31.684l21.955-21.935 39.03-2.437 14.636 19.496Z" stroke="#000" stroke-width="5" stroke-miterlimit="10"/><path d="M406.295 656.597c8.628 1.889 11.818 9.665 19.955 14.968 12.925 8.418 11.724 32.246-.498 44.398-16.137 16.044-77.341-37.28-69.599-48.011 4.583-6.353 18.965-12.543 35.495-11.605 5.32.302 14.647.25 14.647.25Z" fill="#fff" stroke="#000" stroke-width="5" stroke-miterlimit="10"/><path d="M406.295 656.597c8.628 1.889 11.818 9.665 19.955 14.968 12.925 8.418 11.724 32.246-.498 44.398-16.137 16.044-77.341-37.28-69.599-48.011 4.583-6.353 18.965-12.543 35.495-11.605 5.32.302 14.647.25 14.647.25Z" stroke="#000" stroke-width="5" stroke-miterlimit="10"/><path d="M412.351 716.72c-10.411-9.72-22.598-34.711-7.175-44.893 17.337-11.438 2.913-13.364-.959-14.723-3.873-1.355-15.722 1.139-15.184-1.069.539-2.211 26.338-13.792 43.45-2.111 17.109 11.681 19.11 23.967 16.701 36.115-2.411 12.143-13.389 25.712-25.37 29.232-11.978 3.518-11.463-2.551-11.463-2.551Z" fill="#000" stroke="#000" stroke-width="5" stroke-miterlimit="10"/><path d="M412.484 632.474c0 12.186-19.897 52.324-24.394 65.805-4.879 14.625-9.757 46.307-14.637 56.056-4.878 9.749-9.757 19.497-17.076 19.497-7.318 0-14.636-21.934-7.318-48.744 7.319-26.81 14.637-51.182 19.516-73.116 4.878-21.935 4.878-24.372 4.878-24.372" fill="#fff"/><path d="M412.484 632.474c0 12.186-19.897 52.324-24.394 65.805-4.879 14.625-9.757 46.307-14.637 56.056-4.878 9.749-9.757 19.497-17.076 19.497-7.318 0-14.636-21.934-7.318-48.744 7.319-26.81 14.637-51.182 19.516-73.116 4.878-21.935 4.878-24.372 4.878-24.372" stroke="#000" stroke-width="5" stroke-miterlimit="10"/><path d="M412.484 632.474c0 12.186-19.897 52.324-24.394 65.805-4.879 14.625-9.757 46.307-14.637 56.056-4.878 9.749-9.757 19.497-17.076 19.497-7.318 0-14.636-21.934-7.318-48.744 7.319-26.81 14.637-51.182 19.516-73.116 4.878-21.935 4.878-24.372 4.878-24.372" stroke="#000" stroke-width="5" stroke-miterlimit="10"/><path d="M383.211 725.088c2.44 4.875-2.44 26.81-7.317 29.247-4.88 2.437-9.758-4.875-9.758-12.186s4.879-14.623 9.758-17.061c4.878-2.436 7.317 0 7.317 0Z" fill="#fff" stroke="#000" stroke-width="5" stroke-miterlimit="10"/><path d="M383.211 725.088c2.44 4.875-2.44 26.81-7.317 29.247-4.88 2.437-9.758-4.875-9.758-12.186s4.879-14.623 9.758-17.061c4.878-2.436 7.317 0 7.317 0Z" stroke="#000" stroke-width="5" stroke-miterlimit="10"/><path d="M377.041 432.715c11.935 22.083 35.744 71.113 42.685 102.882 6.942 31.768 9.176 48.857 9.119 53.731 0 0-14.403-19.672-38.854-15.09-24.451 4.584-29.504 19.15-29.59 26.461-.088 7.311 2.149 24.401 2.149 24.401s-24.278-10.042-26.312-44.187c-2.03-34.147.35-29.244-6.561-63.453-6.911-34.204-21.168-66.062-21.168-66.062l68.532-18.683Z" fill="#fff" stroke="#000" stroke-width="5" stroke-miterlimit="10"/><path d="M377.041 432.715c11.935 22.083 35.744 71.113 42.685 102.882 6.942 31.768 9.176 48.857 9.119 53.731 0 0-14.403-19.672-38.854-15.09-24.451 4.584-29.504 19.15-29.59 26.461-.088 7.311 2.149 24.401 2.149 24.401s-24.278-10.042-26.312-44.187c-2.03-34.147.35-29.244-6.561-63.453-6.911-34.204-21.168-66.062-21.168-66.062l68.532-18.683Z" stroke="#000" stroke-width="5" stroke-miterlimit="10"/><path d="M322.226 466.744s7.318-2.438 21.955-9.749c14.637-7.311 31.712-24.373 31.712-24.373-2.44-4.874-24.395-43.869-46.349-56.055-21.955-12.187-65.864 0-74.166 24.072-11.161 32.357 3.209 99.08 2.193 122.301-.99 22.775-.428 51.7-1.074 74.637-.788 27.828-1.303 30.827.915 62.18 4.748 67.128 2.928 81.22 4.114 122.083.205 7.157 6.12 12.814 13.283 12.669l83.515-1.181c4.671-.091 6.672-7.049 2.275-8.625-18.706-6.717-54.382-10.596-61.821-19.74-7.47-9.176-6.56-16.854-7.113-23.991-3.811-49.316 5.675-94.917 16.28-143.396 6.914-31.615 8.61-54.876 12.891-89.232 1.305-10.49 2.122-24.799 1.388-39.165l.002-2.435Z" fill="#fff" stroke="#000" stroke-width="5" stroke-miterlimit="10"/><path d="M322.226 466.744s7.318-2.438 21.955-9.749c14.637-7.311 31.712-24.373 31.712-24.373-2.44-4.874-24.395-43.869-46.349-56.055-21.955-12.187-65.864 0-74.166 24.072-11.161 32.357 3.209 99.08 2.193 122.301-.99 22.775-.428 51.7-1.074 74.637-.788 27.828-1.303 30.827.915 62.18 4.748 67.128 2.928 81.22 4.114 122.083.205 7.157 6.12 12.814 13.283 12.669l83.515-1.181c4.671-.091 6.672-7.049 2.275-8.625-18.706-6.717-54.382-10.596-61.821-19.74-7.47-9.176-6.56-16.854-7.113-23.991-3.811-49.316 5.675-94.917 16.28-143.396 6.914-31.615 8.61-54.876 12.891-89.232 1.305-10.49 2.122-24.799 1.388-39.165l.002-2.435Z" stroke="#000" stroke-width="5" stroke-miterlimit="10"/><path d="M260.621 721.992c15.018 5.179 30.21 0 30.21 0" stroke="#000" stroke-width="5" stroke-miterlimit="10"/></g><defs><clipPath id="a"><path fill="#fff" d="M0 0h800v800H0z"/></clipPath></defs></svg>