<svg width="800" height="800" fill="none" xmlns="http://www.w3.org/2000/svg"><g clip-path="url(#a)"><path d="M259.421 615.603c36.207 10.127 40.516 12.931 70.497-5.981 0 0-2.427 22.442-5.406 54.273-2.977 31.829-2.573 61.35-2.573 61.35-28.698-4.582-48.541 1.451-79.939 3.755l-87.5-32.5c-17.26-5.103-53.269 2.29-53.269 2.29l40.71-41.354s28.47 20.882 47.877-6.657c19.409-27.539 48.204-41.164 69.603-35.176ZM347.645 713.985c-6.328 3.986-18.072 18.212-15.703 33.729 2.374 15.519 11.888 24.791 30.407 31.575 18.519 6.786 137.807 13.252 205.371 6.463 67.565-6.789 80.008-1.54 103.448 1.576 23.435 3.107 64.195 11.133 72.182 7.122 7.99-4.015 7.593-16.568-.799-21.75-8.393-5.184-63.301-14.427-73.164-22.832-9.857-8.405-321.742-35.883-321.742-35.883Z" fill="#fff" stroke="#000" stroke-width="5" stroke-miterlimit="10"/><path d="M347.645 713.985c-6.328 3.986-18.072 18.212-15.703 33.729 2.374 15.519 11.888 24.791 30.407 31.575 18.519 6.786 137.807 13.252 205.371 6.463 67.565-6.789 80.008-1.54 103.448 1.576 23.435 3.107 64.195 11.133 72.182 7.122 7.99-4.015 7.593-16.568-.799-21.75-8.393-5.184-63.301-14.427-73.164-22.832-9.857-8.405-321.742-35.883-321.742-35.883Z" stroke="#000" stroke-width="5" stroke-miterlimit="10"/><path d="M324.046 669.625c2.397-30.262 5.875-60.003 5.875-60.003s15.771-11.067 39.013-15.421c23.248-4.354 69.55-3.667 80.988 32.843 11.441 36.51-7.453 54.098-13.687 59.853 0 0 69.031-1.947 142.606 20.813 73.576 22.763 58.743 7.43 81.978 11.499 23.231 4.066 40.919 9.313 61.677 11.152 20.763 1.834 37.541 14.572 32.921 26.74-4.616 12.163-84.657-3.65-90.8-4.97-6.147-1.315-35.666 1.449-110.476-.971-74.811-2.419-118.575-6.688-157.777-16.838-39.202-10.147-37.866-7.084-48.72-20.338 0 0-10.243 7.12-13.628 17.746 0 0-2.952-4.28-12.077-6.487 0 .001-.356-24.513 2.107-55.618Z" fill="#fff" stroke="#000" stroke-width="5" stroke-miterlimit="10"/><path d="M324.046 669.625c2.397-30.262 5.875-60.003 5.875-60.003s15.771-11.067 39.013-15.421c23.248-4.354 69.55-3.667 80.988 32.843 11.441 36.51-7.453 54.098-13.687 59.853 0 0 69.031-1.947 142.606 20.813 73.576 22.763 58.743 7.43 81.978 11.499 23.231 4.066 40.919 9.313 61.677 11.152 20.763 1.834 37.541 14.572 32.921 26.74-4.616 12.163-84.657-3.65-90.8-4.97-6.147-1.315-35.666 1.449-110.476-.971-74.811-2.419-118.575-6.688-157.777-16.838-39.202-10.147-37.866-7.084-48.72-20.338 0 0-10.243 7.12-13.628 17.746 0 0-2.952-4.28-12.077-6.487 0 .001-.356-24.513 2.107-55.618Z" stroke="#000" stroke-width="5" stroke-miterlimit="10"/><path d="M569.863 751.611s6.128 17.45 0 33.929M584.151 709.333s3.229 30.711-1.359 42.692M329.918 609.622s-10.368 90.634-7.979 115.622" stroke="#000" stroke-width="5" stroke-miterlimit="10"/><path d="M156 698c1.178-8.789 16.254-20.187 24.725-29.955 8.471-9.769 7.208-14.045 7.208-14.045" fill="#fff"/><path d="M156 698c1.178-8.789 16.254-20.187 24.725-29.955 8.471-9.769 7.208-14.045 7.208-14.045" stroke="#000" stroke-width="5" stroke-miterlimit="10"/><path d="M110.755 693.222c-8.181 4.267-15.906.048-25.96 1.186-15.97 1.812-30.843-18.518-29.105-36.707 2.291-24.018 86.857-21.568 87.774-7.562.541 8.294-6.89 23.054-20.786 33.423-4.47 3.334-11.923 9.66-11.923 9.66Z" fill="#fff" stroke="#000" stroke-width="5" stroke-miterlimit="10"/><path d="M110.755 693.222c-8.181 4.267-15.906.048-25.96 1.186-15.97 1.812-30.843-18.518-29.105-36.707 2.291-24.018 86.857-21.568 87.774-7.562.541 8.294-6.89 23.054-20.786 33.423-4.47 3.334-11.923 9.66-11.923 9.66ZM347.645 713.985c-6.705-17.296-8.167-23.084-1.938-54.942 6.226-31.86 9.458-37.838 9.458-37.838" stroke="#000" stroke-width="5" stroke-miterlimit="10"/><path d="M64.143 650.865c13.353-1.358 26.349 13.577 24.733 21.823-1.616 8.241-1.78 14.061.97 14.871 2.746.807 7.271.159 7.595-2.263.323-2.428-.97-7.759 3.72-8.082 4.685-.323 16.646 6.789 20.041 16.323 3.395 9.536-4.364 22.467-19.071 27.154-14.711 4.688-35.159-7.563-46.069-22.146-5.261-7.031-8.087-16.002-7.847-23.76.395-12.787 2.829-22.587 15.928-23.92Z" fill="#000" stroke="#000" stroke-width="5" stroke-miterlimit="10"/><path d="M82.689 715.982c-8.059-5.7-30.66-14.703-36.21 11.85-3.523 16.854-11.04 41.338-25.803 46.963-14.762 5.62 15.004 27.489 33.1 17.052C71.873 781.41 80.674 760 75.55 742.8c-5.123-17.202 7.139-26.818 7.139-26.818Z" fill="#000" stroke="#000" stroke-width="5" stroke-miterlimit="10"/><path d="M153 725.5c5 4.5 9 11.331 65.568 25.5 35.932 9 53.345 15.213 68.604 18.826 3.481.826 6.634 2.71 9.216 5.498 8.503 9.184 28.498 29.353 31.025 18.763 3.22-13.498 13.15-22.941-26.911-40.079s-81.934-34.728-81.934-34.728-28.919-10.899-52.743-20.3C142 689.578 151.867 724.48 153 725.5Z" fill="#fff" stroke="#000" stroke-width="5" stroke-miterlimit="10"/></g><defs><clipPath id="a"><path fill="#fff" d="M0 0h800v800H0z"/></clipPath></defs></svg>