<svg width="800" height="800" fill="none" xmlns="http://www.w3.org/2000/svg"><path d="M348.333 443.993c-11.867-26.107-80.697-87.817-104.432-132.912-23.734-45.096-80.697-180.383-83.071-194.623-2.373-14.242 7.121-14.242-7.119-28.482C139.469 73.736 106.241 50 101.494 50s-7.12 4.747 0 14.241 28.481 30.856 30.855 37.975c2.374 7.121 14.241 59.337 18.987 73.577 4.747 14.242 28.482 130.541 42.723 159.022 14.24 28.482 75.95 123.417 75.95 123.417l78.324-14.239Z" fill="#fff" stroke="#000" stroke-width="5" stroke-miterlimit="10"/><path d="M348.333 443.993c-11.867-26.107-80.697-87.817-104.432-132.912-23.734-45.096-80.697-180.383-83.071-194.623-2.373-14.242 7.121-14.242-7.119-28.482C139.469 73.736 106.241 50 101.494 50s-7.12 4.747 0 14.241 28.481 30.856 30.855 37.975c2.374 7.121 14.241 59.337 18.987 73.577 4.747 14.242 28.482 130.541 42.723 159.022 14.24 28.482 75.95 123.417 75.95 123.417l78.324-14.239Z" stroke="#000" stroke-width="5" stroke-miterlimit="10"/><path d="m347.038 472.405 34.119-24.476 47.474 60.879c18.579 23.822 50.41 56.458 64.86 74.987 14.451 18.529 32.177 68.555 42.496 81.787l16.511 21.177-31.203.921s-10.031-15.591-52.722-18.48c-42.69-2.89-52.722-18.479-60.101-36.135-7.38-17.654-2.985-33.852-23.333-62.676-20.351-28.825-30.088-46.769-36.571-52.355-6.487-5.586-8.548-8.233-8.548-8.233l7.018-37.396Z" fill="#fff" stroke="#000" stroke-width="5" stroke-miterlimit="10"/><path d="m347.038 472.405 34.119-24.476 47.474 60.879c18.579 23.822 50.41 56.458 64.86 74.987 14.451 18.529 32.177 68.555 42.496 81.787l16.511 21.177-31.203.921s-10.031-15.591-52.722-18.48c-42.69-2.89-52.722-18.479-60.101-36.135-7.38-17.654-2.985-33.852-23.333-62.676-20.351-28.825-30.088-46.769-36.571-52.355-6.487-5.586-8.548-8.233-8.548-8.233l7.018-37.396Z" stroke="#000" stroke-width="5" stroke-miterlimit="10"/><path d="M355.356 480.003c9.059-13.091 23.522-29.246 26.207-31.263 0 0-22.029-33.312-54.589-40.347-32.561-7.035-55.888 23.649-69.301 50.504-11.858 23.739-36.226 69.164-45.618 84.606-9.39 15.446-25.189 43.886-40.585 66.142-18.113 26.187-35.286 63.808-42.93 82.589-7.376 18.13-18.457 37.723-20.457 42.64-3.688 9.062-9.725 17.79 4.037 22.151 13.578 4.299 53.662 7.642 61.093 8.7 9.399 1.338 19.467-2.023 13.087-7.724-6.379-5.705-27.527-8.715-36.589-12.404-9.065-3.689-15.78-7.043-9.742-15.772 6.038-8.73 50.319-67.152 73.135-92.672 22.814-25.517 67.007-84.029 89.577-107.111 30.869-31.565 31.877-21.832 36.578-21.162-.002-.002 10.057-20.146 16.097-28.877Z" fill="#fff" stroke="#000" stroke-width="5" stroke-miterlimit="10"/><path d="M355.356 480.003c9.059-13.091 23.522-29.246 26.207-31.263 0 0-22.029-33.312-54.589-40.347-32.561-7.035-55.888 23.649-69.301 50.504-11.858 23.739-36.226 69.164-45.618 84.606-9.39 15.446-25.189 43.886-40.585 66.142-18.113 26.187-35.286 63.808-42.93 82.589-7.376 18.13-18.457 37.723-20.457 42.64-3.688 9.062-9.725 17.79 4.037 22.151 13.578 4.299 53.662 7.642 61.093 8.7 9.399 1.338 19.467-2.023 13.087-7.724-6.379-5.705-27.527-8.715-36.589-12.404-9.065-3.689-15.78-7.043-9.742-15.772 6.038-8.73 50.319-67.152 73.135-92.672 22.814-25.517 67.007-84.029 89.577-107.111 30.869-31.565 31.877-21.832 36.578-21.162-.002-.002 10.057-20.146 16.097-28.877Z" stroke="#000" stroke-width="5" stroke-miterlimit="10"/><path d="M127.63 694.429c4.27 7.872 28.042 14.302 28.042 14.302M514.536 622.856c-10.12-11.403-30.151-23.446-46.324-8.708-16.174 14.742-11.066 41.313 4.519 55.383" stroke="#000" stroke-width="5" stroke-miterlimit="10"/><path d="M557.415 676.061c6.945 6.438 5.663 15.36 10.296 24.683 7.362 14.81-6.71 36.192-24.609 40.789-23.635 6.069-51.178-76.502-38.189-82.218 7.69-3.389 24.347-1.295 39.106 8.557 4.746 3.17 13.396 8.189 13.396 8.189Z" fill="#fff" stroke="#000" stroke-width="5" stroke-miterlimit="10"/><path d="M557.415 676.061c6.945 6.438 5.663 15.36 10.296 24.683 7.362 14.81-6.71 36.192-24.609 40.789-23.635 6.069-51.178-76.502-38.189-82.218 7.69-3.389 24.347-1.295 39.106 8.557 4.746 3.17 13.396 8.189 13.396 8.189Z" stroke="#000" stroke-width="5" stroke-miterlimit="10"/><path d="M530.306 734.95c-4.327-14.648-1.993-44.381 17.786-45.411 22.241-1.16 9.968-10.779 7.126-14.138-2.839-3.356-15.145-7.492-13.443-9.242 1.696-1.75 31.833 1.56 41.288 21.66 9.454 20.101 4.621 32.552-4.213 42.472-8.83 9.923-26.352 16.504-39.337 13.25-12.984-3.259-9.207-8.591-9.207-8.591Z" fill="#000" stroke="#000" stroke-width="5" stroke-miterlimit="10"/><path d="M501.97 624.867c10.067 9.647 9.895 26.004 22.952 46.686 14.792 23.433 42.275 50.803 42.275 50.803 2.466 2.904 8.257 5.248 11.556 7.342 4.094 2.591 8.191 5.178 12.285 7.769 8.189 5.181 16.37 10.366 24.511 15.607 15.499 9.981 18.447 14.681 34.686 23.435 0 0 8.057 2.522 23.262 4.515 11.399 1.498 30.577 2.91 28.48 7.12-.742 1.482-43.324 7.849-61.709 0-19.893-8.487-23.318-11.883-42.723-21.36-14.281-6.97-32.677-13.859-45.096-23.734-44.215-35.161-65.831-74.459-74.504-93.821" fill="#fff"/><path d="M501.97 624.867c10.067 9.647 9.895 26.004 22.952 46.686 14.792 23.433 42.275 50.803 42.275 50.803 2.466 2.904 8.257 5.248 11.556 7.342 4.094 2.591 8.191 5.178 12.285 7.769 8.189 5.181 16.37 10.366 24.511 15.607 15.499 9.981 18.447 14.681 34.686 23.435 0 0 8.057 2.522 23.262 4.515 11.399 1.498 30.577 2.91 28.48 7.12-.742 1.482-43.324 7.849-61.709 0-19.893-8.487-23.318-11.883-42.723-21.36-14.281-6.97-32.677-13.859-45.096-23.734-44.215-35.161-65.831-74.459-74.504-93.821" stroke="#000" stroke-width="5" stroke-miterlimit="10"/><path d="M501.97 624.867c10.067 9.647 9.895 26.004 22.952 46.686 14.792 23.433 42.275 50.803 42.275 50.803 2.466 2.904 8.257 5.248 11.556 7.342 4.094 2.591 8.191 5.178 12.285 7.769 8.189 5.181 16.37 10.366 24.511 15.607 15.499 9.981 18.447 14.681 34.686 23.435 0 0 8.057 2.522 23.262 4.515 11.399 1.498 30.577 2.91 28.48 7.12-.742 1.482-43.324 7.849-61.709 0-19.893-8.487-23.318-11.883-42.723-21.36-14.281-6.97-32.677-13.859-45.096-23.734-44.215-35.161-65.831-74.459-74.504-93.821M142.932 144.37c3.658-1.803 25.659-5.259 25.659-5.259" stroke="#000" stroke-width="5" stroke-miterlimit="10"/></svg>