<svg width="800" height="800" viewBox="0 0 800 800" fill="none" xmlns="http://www.w3.org/2000/svg">
<path d="M348.333 443.993C336.466 417.886 267.636 356.176 243.901 311.081C220.167 265.985 163.204 130.698 160.83 116.458C158.457 102.216 167.951 102.216 153.711 87.9759C139.469 73.7354 106.241 50 101.494 50C96.7468 50 94.3735 54.7474 101.494 64.2414C108.614 73.7354 129.975 95.0966 132.349 102.216C134.723 109.337 146.59 161.553 151.336 175.793C156.083 190.035 179.818 306.334 194.059 334.815C208.299 363.297 270.009 458.232 270.009 458.232L348.333 443.993Z" fill="white" stroke="black" stroke-width="5" stroke-miterlimit="10"/>
<path d="M348.333 443.993C336.466 417.886 267.636 356.176 243.901 311.081C220.167 265.985 163.204 130.698 160.83 116.458C158.457 102.216 167.951 102.216 153.711 87.9759C139.469 73.7354 106.241 50 101.494 50C96.7468 50 94.3735 54.7474 101.494 64.2414C108.614 73.7354 129.975 95.0966 132.349 102.216C134.723 109.337 146.59 161.553 151.336 175.793C156.083 190.035 179.818 306.334 194.059 334.815C208.299 363.297 270.009 458.232 270.009 458.232L348.333 443.993Z" stroke="black" stroke-width="5" stroke-miterlimit="10"/>
<path d="M347.038 472.405L381.157 447.929C381.157 447.929 410.054 484.986 428.631 508.808C447.21 532.63 479.041 565.266 493.491 583.795C507.942 602.324 525.668 652.35 535.987 665.582C546.305 678.817 552.498 686.759 552.498 686.759L521.295 687.68C521.295 687.68 511.264 672.089 468.573 669.2C425.883 666.31 415.851 650.721 408.472 633.065C401.092 615.411 405.487 599.213 385.139 570.389C364.788 541.564 355.051 523.62 348.568 518.034C342.081 512.448 340.02 509.801 340.02 509.801L347.038 472.405Z" fill="white" stroke="black" stroke-width="5" stroke-miterlimit="10"/>
<path d="M347.038 472.405L381.157 447.929C381.157 447.929 410.054 484.986 428.631 508.808C447.21 532.63 479.041 565.266 493.491 583.795C507.942 602.324 525.668 652.35 535.987 665.582C546.305 678.817 552.498 686.759 552.498 686.759L521.295 687.68C521.295 687.68 511.264 672.089 468.573 669.2C425.883 666.31 415.851 650.721 408.472 633.065C401.092 615.411 405.487 599.213 385.139 570.389C364.788 541.564 355.051 523.62 348.568 518.034C342.081 512.448 340.02 509.801 340.02 509.801L347.038 472.405Z" stroke="black" stroke-width="5" stroke-miterlimit="10"/>
<path d="M355.356 480.003C364.415 466.912 378.878 450.757 381.563 448.74C381.563 448.74 359.534 415.428 326.974 408.393C294.413 401.358 271.086 432.042 257.673 458.897C245.815 482.636 221.447 528.061 212.055 543.503C202.665 558.949 186.866 587.389 171.47 609.645C153.357 635.832 136.184 673.453 128.54 692.234C121.164 710.364 110.083 729.957 108.083 734.874C104.395 743.936 98.3575 752.664 112.12 757.025C125.698 761.324 165.782 764.667 173.213 765.725C182.612 767.063 192.68 763.702 186.3 758.001C179.921 752.296 158.773 749.286 149.711 745.597C140.646 741.908 133.931 738.554 139.969 729.825C146.007 721.095 190.288 662.673 213.104 637.153C235.918 611.636 280.111 553.124 302.681 530.042C333.55 498.477 334.558 508.21 339.259 508.88C339.257 508.878 349.316 488.734 355.356 480.003Z" fill="white" stroke="black" stroke-width="5" stroke-miterlimit="10"/>
<path d="M355.356 480.003C364.415 466.912 378.878 450.757 381.563 448.74C381.563 448.74 359.534 415.428 326.974 408.393C294.413 401.358 271.086 432.042 257.673 458.897C245.815 482.636 221.447 528.061 212.055 543.503C202.665 558.949 186.866 587.389 171.47 609.645C153.357 635.832 136.184 673.453 128.54 692.234C121.164 710.364 110.083 729.957 108.083 734.874C104.395 743.936 98.3575 752.664 112.12 757.025C125.698 761.324 165.782 764.667 173.213 765.725C182.612 767.063 192.68 763.702 186.3 758.001C179.921 752.296 158.773 749.286 149.711 745.597C140.646 741.908 133.931 738.554 139.969 729.825C146.007 721.095 190.288 662.673 213.104 637.153C235.918 611.636 280.111 553.124 302.681 530.042C333.55 498.477 334.558 508.21 339.259 508.88C339.257 508.878 349.316 488.734 355.356 480.003Z" stroke="black" stroke-width="5" stroke-miterlimit="10"/>
<path d="M127.63 694.429C131.9 702.301 155.672 708.731 155.672 708.731" stroke="black" stroke-width="5" stroke-miterlimit="10"/>
<path d="M514.536 622.856C504.416 611.453 484.385 599.41 468.212 614.148C452.038 628.89 457.146 655.461 472.731 669.531" stroke="black" stroke-width="5" stroke-miterlimit="10"/>
<path d="M557.415 676.061C564.36 682.499 563.078 691.421 567.711 700.744C575.073 715.554 561.001 736.936 543.102 741.533C519.467 747.602 491.924 665.031 504.913 659.315C512.603 655.926 529.26 658.02 544.019 667.872C548.765 671.042 557.415 676.061 557.415 676.061Z" fill="white" stroke="black" stroke-width="5" stroke-miterlimit="10"/>
<path d="M557.415 676.061C564.36 682.499 563.078 691.421 567.711 700.744C575.073 715.554 561.001 736.936 543.102 741.533C519.467 747.602 491.924 665.031 504.913 659.315C512.603 655.926 529.26 658.02 544.019 667.872C548.765 671.042 557.415 676.061 557.415 676.061Z" stroke="black" stroke-width="5" stroke-miterlimit="10"/>
<path d="M530.306 734.95C525.979 720.302 528.313 690.569 548.092 689.539C570.333 688.379 558.06 678.76 555.218 675.401C552.379 672.045 540.073 667.909 541.775 666.159C543.471 664.409 573.608 667.719 583.063 687.819C592.517 707.92 587.684 720.371 578.85 730.291C570.02 740.214 552.498 746.795 539.513 743.541C526.529 740.282 530.306 734.95 530.306 734.95Z" fill="black" stroke="black" stroke-width="5" stroke-miterlimit="10"/>
<path d="M501.97 624.867C512.037 634.514 511.865 650.871 524.922 671.553C539.714 694.986 567.197 722.356 567.197 722.356C569.663 725.26 575.454 727.604 578.753 729.698C582.847 732.289 586.944 734.876 591.038 737.467C599.227 742.648 607.408 747.833 615.549 753.074C631.048 763.055 633.996 767.755 650.235 776.509C650.235 776.509 658.292 779.031 673.497 781.024C684.896 782.522 704.074 783.934 701.977 788.144C701.235 789.626 658.653 795.993 640.268 788.144C620.375 779.657 616.95 776.261 597.545 766.784C583.264 759.814 564.868 752.925 552.449 743.05C508.234 707.889 486.618 668.591 477.945 649.229" fill="white"/>
<path d="M501.97 624.867C512.037 634.514 511.865 650.871 524.922 671.553C539.714 694.986 567.197 722.356 567.197 722.356C569.663 725.26 575.454 727.604 578.753 729.698C582.847 732.289 586.944 734.876 591.038 737.467C599.227 742.648 607.408 747.833 615.549 753.074C631.048 763.055 633.996 767.755 650.235 776.509C650.235 776.509 658.292 779.031 673.497 781.024C684.896 782.522 704.074 783.934 701.977 788.144C701.235 789.626 658.653 795.993 640.268 788.144C620.375 779.657 616.95 776.261 597.545 766.784C583.264 759.814 564.868 752.925 552.449 743.05C508.234 707.889 486.618 668.591 477.945 649.229" stroke="black" stroke-width="5" stroke-miterlimit="10"/>
<path d="M501.97 624.867C512.037 634.514 511.865 650.871 524.922 671.553C539.714 694.986 567.197 722.356 567.197 722.356C569.663 725.26 575.454 727.604 578.753 729.698C582.847 732.289 586.944 734.876 591.038 737.467C599.227 742.648 607.408 747.833 615.549 753.074C631.048 763.055 633.996 767.755 650.235 776.509C650.235 776.509 658.292 779.031 673.497 781.024C684.896 782.522 704.074 783.934 701.977 788.144C701.235 789.626 658.653 795.993 640.268 788.144C620.375 779.657 616.95 776.261 597.545 766.784C583.264 759.814 564.868 752.925 552.449 743.05C508.234 707.889 486.618 668.591 477.945 649.229" stroke="black" stroke-width="5" stroke-miterlimit="10"/>
<path d="M142.932 144.37C146.59 142.567 168.591 139.111 168.591 139.111" stroke="black" stroke-width="5" stroke-miterlimit="10"/>
</svg>
