<svg width="800" height="800" fill="none" xmlns="http://www.w3.org/2000/svg"><path d="m453.652 410.355 52.542-19.107s-11.941-26.271-9.553-45.378 14.33-62.097 14.33-62.097-11.942-11.941-11.942-31.048c0-19.106 4.777-31.047 4.777-31.047s-23.884 0-33.438-14.33c-9.553-14.33 0-52.544 0-52.544h-33.437v4.777s2.388 23.883 0 40.602c-2.026 14.185-19.106 21.495-28.66 21.495 0 0 4.777 16.717 4.777 33.436s-11.943 28.66-11.943 28.66 11.943 47.767 11.943 62.097c0 14.33-11.943 45.378-11.943 45.378l26.271 26.271 26.276-7.165Z" fill="#fff" stroke="#000" stroke-width="5" stroke-miterlimit="10"/><path d="m453.652 410.355 52.542-19.107s-11.941-26.271-9.553-45.378 14.33-62.097 14.33-62.097-11.942-11.941-11.942-31.048c0-19.106 4.777-31.047 4.777-31.047s-23.884 0-33.438-14.33c-9.553-14.33 0-52.544 0-52.544h-33.437v4.777s2.388 23.883 0 40.602c-2.026 14.185-19.106 21.495-28.66 21.495 0 0 4.777 16.717 4.777 33.436s-11.943 28.66-11.943 28.66 11.943 47.767 11.943 62.097c0 14.33-11.943 45.378-11.943 45.378l26.271 26.271 26.276-7.165Z" stroke="#000" stroke-width="5" stroke-miterlimit="10"/><path d="M408.273 221.677c-11.942 0-23.884 19.107-31.048 54.931-7.552 37.766-16.718 76.427-9.555 90.757 7.165 14.33 85.98-52.542 88.367-62.096v-35.824c0-4.777 0-9.553-2.387-9.553-4.776 0-5.293 12.128-7.164 21.495-2.389 11.941-2.389 16.718-4.777 21.495-4.532 9.065-42.99 26.271-50.153 31.047l9.552-50.154a36.937 36.937 0 0 0 17.236-34.393 36.791 36.791 0 0 0-3.049-11.9l-7.022-15.805Z" fill="#fff" stroke="#000" stroke-width="5" stroke-miterlimit="10"/><path d="M408.273 221.677c-11.942 0-23.884 19.107-31.048 54.931-7.552 37.766-16.718 76.427-9.555 90.757 7.165 14.33 85.98-52.542 88.367-62.096v-35.824c0-4.777 0-9.553-2.387-9.553-4.776 0-5.293 12.128-7.164 21.495-2.389 11.941-2.389 16.718-4.777 21.495-4.532 9.065-42.99 26.271-50.153 31.047l9.552-50.154a36.937 36.937 0 0 0 17.236-34.393 36.791 36.791 0 0 0-3.049-11.9l-7.022-15.805Z" stroke="#000" stroke-width="5" stroke-miterlimit="10"/><path d="M503.806 221.677c11.942 0 23.882 19.107 31.049 54.931 7.549 37.766 16.718 76.427 9.553 90.757-7.164 14.33-85.98-52.542-88.368-62.096v-35.824c0-4.777 0-9.553 2.388-9.553 4.777 0 5.294 12.128 7.164 21.495 2.389 11.941 2.389 16.718 4.776 21.495 4.533 9.065 42.99 26.271 50.157 31.047l-9.555-50.154a36.936 36.936 0 0 1-17.232-34.393 36.787 36.787 0 0 1 3.046-11.9l7.022-15.805Z" fill="#fff" stroke="#000" stroke-width="5" stroke-miterlimit="10"/><path d="M503.806 221.677c11.942 0 23.882 19.107 31.049 54.931 7.549 37.766 16.718 76.427 9.553 90.757-7.164 14.33-85.98-52.542-88.368-62.096v-35.824c0-4.777 0-9.553 2.388-9.553 4.777 0 5.294 12.128 7.164 21.495 2.389 11.941 2.389 16.718 4.776 21.495 4.533 9.065 42.99 26.271 50.157 31.047l-9.555-50.154a36.936 36.936 0 0 1-17.232-34.393 36.787 36.787 0 0 1 3.046-11.9l7.022-15.805Z" stroke="#000" stroke-width="5" stroke-miterlimit="10"/><path d="M510.971 570.372c7.164-42.99 11.943-102.699 7.164-133.745-4.775-31.049-11.943-45.378-11.943-45.378s-29.973 6.915-51.409 7.153c-23.702-.238-53.677-7.153-53.677-7.153S396.33 405.579 382 417.52c-17.307 14.424-69.261 33.436-95.533 57.319-26.271 23.882-38.213 52.543-33.436 59.707 4.776 7.164 11.941 9.554 42.989 7.164 31.049-2.387 97.921-28.66 112.251-28.66 14.33 0 23.882 9.554 26.27 19.106 2.388 9.554 7.165 35.825 11.943 42.989 4.775 7.165 9.554 2.389 9.554-4.775 0-2.302 0-10.042-.08-19.951l.08 1.244s2.388 80.802 2.388 99.909 2.388 95.532 2.388 107.475c0 11.942 0 16.718-2.388 26.27-2.388 9.554 9.554 9.554 19.106 9.554 9.555 0 16.719-4.776 14.33-11.943-2.388-7.163-7.164-28.66-7.164-38.212 0-9.554 4.776-47.768 7.164-76.426 2.391-28.656 14.717-71.577 19.109-97.918Z" fill="#fff" stroke="#000" stroke-width="5" stroke-miterlimit="10"/><path d="M510.971 570.372c7.164-42.99 11.943-102.699 7.164-133.745-4.775-31.049-11.943-45.378-11.943-45.378s-29.973 6.915-51.409 7.153c-23.702-.238-53.677-7.153-53.677-7.153S396.33 405.579 382 417.52c-17.307 14.424-69.261 33.436-95.533 57.319-26.271 23.882-38.213 52.543-33.436 59.707 4.776 7.164 11.941 9.554 42.989 7.164 31.049-2.387 97.921-28.66 112.251-28.66 14.33 0 23.882 9.554 26.27 19.106 2.388 9.554 7.165 35.825 11.943 42.989 4.775 7.165 9.554 2.389 9.554-4.775 0-2.302 0-10.042-.08-19.951l.08 1.244s2.388 80.802 2.388 99.909 2.388 95.532 2.388 107.475c0 11.942 0 16.718-2.388 26.27-2.388 9.554 9.554 9.554 19.106 9.554 9.555 0 16.719-4.776 14.33-11.943-2.388-7.163-7.164-28.66-7.164-38.212 0-9.554 4.776-47.768 7.164-76.426 2.391-28.656 14.717-71.577 19.109-97.918Z" stroke="#000" stroke-width="5" stroke-miterlimit="10"/><path d="M305.575 503.5c14.33-11.943 42.99-16.719 69.261-16.719 26.271 0 47.766 0 57.321-2.388 9.553-2.389 17.763-4.49 21.041 0 5.228 7.164 2.84 11.942 2.84 31.049 0 19.106-.057 38.064-.057 38.064M418.167 219.91c13.988 11.321 35.482 11.321 35.482 11.321s21.69 1.243 37.116-11.321" stroke="#000" stroke-width="5" stroke-miterlimit="10"/><path d="M434.15 153.517c-4.296-8.504.037-16.469-1.07-26.889-1.763-16.546 19.003-31.792 37.499-29.861 24.422 2.556 21.49 90.096 7.233 90.936-8.444.499-23.419-7.303-33.893-21.77-3.37-4.65-9.769-12.416-9.769-12.416Z" fill="#fff" stroke="#000" stroke-width="5" stroke-miterlimit="10"/><path d="M434.15 153.517c-4.296-8.504.037-16.469-1.07-26.889-1.763-16.546 19.003-31.792 37.499-29.861 24.422 2.556 21.49 90.096 7.233 90.936-8.444.499-23.419-7.303-33.893-21.77-3.37-4.65-9.769-12.416-9.769-12.416Z" stroke="#000" stroke-width="5" stroke-miterlimit="10"/><path d="M480.345 107.458c-1.047 15.334-13.662 42.565-32.686 36.61-21.388-6.696-13.173 6.678-11.669 10.838 1.504 4.161 11.661 12.374 9.445 13.428-2.214 1.059-29.483-12.618-31.361-34.89-1.882-22.272 7.038-32.324 18.845-38.591 11.802-6.268 30.638-6.342 41.744 1.278 11.112 7.618 5.682 11.327 5.682 11.327Z" fill="#000" stroke="#000" stroke-width="5" stroke-miterlimit="10"/><path d="M460.257 732.387c7.722 2.778 21.306 2.003 25.262 0M410.054 486.474c2.995 5.086 4.168 21.908 0 26.632" stroke="#000" stroke-width="5" stroke-miterlimit="10"/><path d="M455.343 141c-5.544-5.95-2.813-2.69 0-5.214 2.817-2.528 8.289-4.126 11.2-8.51 2.909-4.383-5.87-12.569-5.578-17.84.294-5.271 7.45-8.201 10.063-5.199 2.608 3.005 2.432-1.821-.157-5.408-2.374-3.289-13.879-19.256-36.642-7.676-18.388 9.355-26.257 19.967-23.547 41.094 2.714 21.133 17.485 27.197 7.561 43.773-12.273 20.506-31.76 8.58-47.212 36.296-5.907 10.589-.234 32.986 8.968 44.841 9.88 12.733 28.673 21.603 38.089 21.459 22.665-.339 24.595-9.16 24.595-9.16l-7.44-30.854s11.275-65.064 15.372-78.778c4.098-13.712 4.728-18.824 4.728-18.824Z" fill="#000" stroke="#000" stroke-width="5" stroke-miterlimit="10"/></svg>