<svg width="800" height="800" fill="none" xmlns="http://www.w3.org/2000/svg"><g clip-path="url(#a)" stroke="#000" stroke-width="5" stroke-miterlimit="10"><path d="M599.13 691.823c6.479 12.358 16.846 30.57 22.73 36.579 0 0 24.802-20.602 41.34-45.614 16.539-25.007 18.93-49.647 27.864-70.293 8.93-20.647 14.29-14.056 13.99-35.334-.302-21.277-28.476-39.048-38.477-57.447-9.994-18.396-11.004-22.736-6.88-49.193 4.123-26.457 8.669-31.418 8.669-31.418s-32.658-12.156-32.658-5.355c0 6.804-2.69 32.432-5.79 48.14-3.101 15.71-14.382 32.431-18.767 49.699-4.385 17.269-1.042 58.356-2.922 78.426-1.877 20.071-1.918 26.321-7.998 35.288-6.076 8.966-11.643 10.83-11.643 10.83s1.461 18.374 10.542 35.692Z" fill="#fff"/><path d="M599.13 691.823c6.479 12.358 16.846 30.57 22.73 36.579 0 0 24.802-20.602 41.34-45.614 16.539-25.007 18.93-49.647 27.864-70.293 8.93-20.647 14.29-14.056 13.99-35.334-.302-21.277-28.476-39.048-38.477-57.447-9.994-18.396-11.004-22.736-6.88-49.193 4.123-26.457 8.669-31.418 8.669-31.418s-32.658-12.156-32.658-5.355c0 6.804-2.69 32.432-5.79 48.14-3.101 15.71-14.382 32.431-18.767 49.699-4.385 17.269-1.042 58.356-2.922 78.426-1.877 20.071-1.918 26.321-7.998 35.288-6.076 8.966-11.643 10.83-11.643 10.83s1.461 18.374 10.542 35.692Z"/><path d="M639.207 455.84c-8.271-3.159-10.154-11.389-17.369-17.877-11.462-10.311-6.33-33.918 7.832-44.244 18.697-13.631 70.744 48.621 61.273 58.187-5.611 5.666-20.931 9.72-37.215 6.344-5.237-1.085-14.521-2.41-14.521-2.41Z" fill="#fff"/><path d="M639.207 455.84c-8.271-3.159-10.154-11.389-17.369-17.877-11.462-10.311-6.33-33.918 7.832-44.244 18.697-13.631 70.744 48.621 61.273 58.187-5.611 5.666-20.931 9.72-37.215 6.344-5.237-1.085-14.521-2.41-14.521-2.41Z"/><path d="M639.955 395.442c9.466 8.718 7.017 27.547.072 31.632-6.948 4.082-11.226 7.668-10.059 10.153 1.168 2.488 4.511 5.325 6.459 4.013 1.946-1.31 4.952-5.63 8.166-2.473 3.215 3.161 5.72 16.269 1.035 24.771-4.686 8.502-18.905 11.161-31.629 3.585-12.723-7.573-16.938-30.044-13.413-47.148 1.698-8.249 6.34-15.985 12.062-20.747 9.43-7.85 18.014-12.34 27.307-3.786Z" fill="#000"/><path d="M605.526 451.019c.841 8.448 4.215 17.531-3.971 26.996-8.183 9.461-17.036 5.709-20.842 12.946-3.805 7.239-2.272 30.362-11.436 39.033-9.164 8.674-14.798.237-25.026 9.578-8.751 7.989 7.175 24.296-14.119 39.853-10.212 7.461-67.113-55.142-53.466-65.303 13.644-10.157 27.55-4.212 34.391-10.826 6.842-6.618.878-19.168 10.674-27.454 13.734-11.618 27.998 1.978 38.19-6.779 8.382-7.201 4.945-14.05 15.105-22.222 10.156-8.173 30.5 4.178 30.5 4.178Z" fill="#000"/><path d="M625.419 496.055s37.078 54.787 63.305 50.483"/><path d="M595.809 684.649c11.144 25.465 26.051 43.751 26.051 43.751s-37.402 26.299-74.887 39.633c-37.487 13.331-71.014 23.322-105.371 23.673-34.352.353-107.136-1.02-152.361-4.067-45.227-3.046-94.551-9.125-117.944-8.157-23.398.967-60.759 10.256-84.947 9.875-24.189-.38 6.226-19.273 9.832-20.87 3.605-1.598 41.494-11.218 49.009-14.663 7.513-3.447 9.205-7.945 17.585-7.244 8.379.697 13.194 6.799 31.325 4.587 18.131-2.213 99.677-11.302 129.696-14.105 30.018-2.808 76.292-3.189 119.369-19.324 43.081-16.139 50.279-38.507 89.884-52.848 0 0 9.319-3.387 26.892-3.287 17.57.104 28.646-5.475 28.646-5.475s1.323 15.038 7.221 28.521Z" fill="#fff"/><path d="M595.809 684.649c11.144 25.465 26.051 43.751 26.051 43.751s-37.402 26.299-74.887 39.633c-37.487 13.331-71.014 23.322-105.371 23.673-34.352.353-107.136-1.02-152.361-4.067-45.227-3.046-94.551-9.125-117.944-8.157-23.398.967-60.759 10.256-84.947 9.875-24.189-.38 6.226-19.273 9.832-20.87 3.605-1.598 41.494-11.218 49.009-14.663 7.513-3.447 9.205-7.945 17.585-7.244 8.379.697 13.194 6.799 31.325 4.587 18.131-2.213 99.677-11.302 129.696-14.105 30.018-2.808 76.292-3.189 119.369-19.324 43.081-16.139 50.279-38.507 89.884-52.848 0 0 9.319-3.387 26.892-3.287 17.57.104 28.646-5.475 28.646-5.475s1.323 15.038 7.221 28.521Z"/><path d="M626.351 523.587c8.161-.898 25.26 9.693 24.185 28.114-1.076 18.419-9.769 72.804-8.528 103.186 1.241 30.382 11.256 110.834 16.464 120.294 5.204 9.457 14.094 4.921 25.868 6.8 11.779 1.88 34.724 6.995 37.206 10.872 2.48 3.873-8.342 3.237-10.542 3.187-2.2-.05-52.614.726-58.147-.822-5.533-1.551-11.889.202-16.274-23.605-4.385-23.803-18.982-64.546-23.405-100.358-4.428-35.816-2.765-113.303-2.48-124.545.276-11.241 2.992-21.73 15.653-23.123Z" fill="#fff"/><path d="M626.351 523.587c8.161-.898 25.26 9.693 24.185 28.114-1.076 18.419-9.769 72.804-8.528 103.186 1.241 30.382 11.256 110.834 16.464 120.294 5.204 9.457 14.094 4.921 25.868 6.8 11.779 1.88 34.724 6.995 37.206 10.872 2.48 3.873-8.342 3.237-10.542 3.187-2.2-.05-52.614.726-58.147-.822-5.533-1.551-11.889.202-16.274-23.605-4.385-23.803-18.982-64.546-23.405-100.358-4.428-35.816-2.765-113.303-2.48-124.545.276-11.241 2.992-21.73 15.653-23.123ZM211.563 749.131c-2.734 8.067-3.326 31.799-3.326 31.799"/></g><defs><clipPath id="a"><path fill="#fff" d="M0 0h800v800H0z"/></clipPath></defs></svg>