<svg width="800" height="800" fill="none" xmlns="http://www.w3.org/2000/svg"><path d="M351.67 457.976c4.712-16.082 10.799-30.535 16.83-35.976 0 0-16.769 1.122-44.259 2.268-27.49 1.144-31.771-2.531-44.764 3.396-12.996 5.93-34.581 27.584-47.597 45.966-13.019 18.382-33.212 29.568-41.93 41.89-8.724 12.326-13.633 23.126-6.922 64.2 6.707 41.07-7.366 61.853-7.366 61.853l38.456 14.561s-2.129-29.287 14.561-45.978c16.691-16.691 27.818-17.838 41.236-34.202 13.418-16.363 26.365-54.873 49.534-66.833 0 0 9.593-6.11 21.922-5.516 0 0 4.017-24.19 10.299-45.629Z" fill="#fff" stroke="#000" stroke-width="5" stroke-miterlimit="10"/><path d="M351.67 457.976C356.382 441.895 359 434 365.5 422c0 0-13.769 1.122-41.259 2.268-27.49 1.144-31.771-2.531-44.764 3.397-12.996 5.929-34.581 27.583-47.597 45.965-13.019 18.383-33.212 29.568-41.93 41.89-8.724 12.326-13.633 23.126-6.922 64.2 6.707 41.07-7.366 61.853-7.366 61.853l38.456 14.562s-2.129-29.288 14.561-45.979c16.691-16.691 27.818-17.838 41.236-34.202 13.418-16.363 26.365-54.873 49.534-66.832 0 0 9.593-6.111 21.922-5.517 0 0 4.017-24.19 10.299-45.629Z" stroke="#000" stroke-width="5" stroke-miterlimit="10"/><path d="M201.514 635.576c7.557 5.724 7.161 14.742 12.705 23.57 8.802 14.028-3.099 36.727-20.48 43.079-22.949 8.391-58.575-71.154-46.196-78.135 7.331-4.136 24.129-3.702 39.814 4.65 5.045 2.691 14.157 6.836 14.157 6.836Z" fill="#fff" stroke="#000" stroke-width="5" stroke-miterlimit="10"/><path d="M201.514 635.576c7.557 5.724 7.161 14.742 12.705 23.57 8.802 14.028-3.099 36.727-20.48 43.079-22.949 8.391-58.575-71.154-46.196-78.135 7.331-4.136 24.129-3.702 39.814 4.65 5.045 2.691 14.157 6.836 14.157 6.836Z" stroke="#000" stroke-width="5" stroke-miterlimit="10"/><path d="M398.206 785.241c-17.829 4.707-59.36 3.912-94.909 3.272-31.046-.556-60.873.924-77.08-7.289-37.485-18.992-48.1-74.385-49.175-98.9-.434-4.945-.271-10.133.729-14.881.011-.064 0-.136.029-.194l.03-.059c1.897-8.706 6.633-15.88 15.735-17.265 22.044-3.361 8.858-11.725 5.696-14.789-3.163-3.063-2.429-4.088-.91-6 1.518-1.91 19.815-5.438 31.228 13.65a90.99 90.99 0 0 1 1.805 3.171c.483.89 1.293 1.519 2.265 1.813 8.831 2.682 22.275 4.057 31.577 25.875 28.525 66.913 49.795 63.691 68.071 57.599 58.861-19.614 70.739 34.536 72.023 42.073.974 5.718.042 10.034-7.114 11.924Z" fill="#100200" stroke="#000" stroke-width="5" stroke-miterlimit="10"/><path d="M351.68 457.948c8.131-22.46 10.82-32.948 18.82-36.448 0 0 23.5-3 60.214 23.984 42.651 27.872 132.108 80.792 156.324 116.185 0 0 2.761 1.245 3.005 10.575.24 9.332-2.969 61.147-8.062 101.222-5.095 40.069-5.414 65.194-.618 78.065 4.801 12.873 45.699 23.402 53.799 24.982 8.101 1.581 19.227 4.189 20.536 6.095 1.31 1.902-1.846 7.399-5.471 8.781-3.626 1.378-80.751 1.17-88.06.568-7.313-.607-16.96-5.994-15.029-21.682 1.939-15.687 1.284-29.65.408-46.013-.873-16.364-13.252-63.436-12.241-89.902 1.006-26.465 3.953-45.807 3.953-45.807S496.235 582.481 458.92 564c-37.319-18.481-30.277-20.812-66.603-19.973-36.326.837-40.34-32.277-44.39-37.238 0 0-3.179-3.183-6.559-3.183 0 0 6.778-35.9 10.312-45.658Z" fill="#fff" stroke="#000" stroke-width="5" stroke-miterlimit="10"/><path d="M546.129 712.892s18.489 2.64 32.826-2.424Z" fill="#fff"/><path d="M546.129 712.892s18.489 2.64 32.826-2.424" stroke="#000" stroke-width="5" stroke-miterlimit="10"/><path d="M546.129 712.892s18.489 2.64 32.826-2.424M184.532 592.499c15.088 2.941 33.348 24.854 33.348 24.854" stroke="#000" stroke-width="5" stroke-miterlimit="10"/><path d="m254.742 590.017-11.796 55.322 2.254 121.006a9.002 9.002 0 0 0 6.85 8.054c11.761 2.868 40.039 4.87 53.847 11.965 3.156 1.618 1.969 4.945-1.578 4.984l-64.422-.821a14.973 14.973 0 0 1-14.431-12.39c-5.103-29.224-14.803-103.329-18.659-125.544-4.853-27.948-1.654-75.958-1.654-75.958" fill="#fff"/><path d="m254.742 590.017-11.796 55.322 2.254 121.006a9.002 9.002 0 0 0 6.85 8.054c11.761 2.868 40.039 4.87 53.847 11.965 3.156 1.618 1.969 4.945-1.578 4.984l-64.422-.821a14.973 14.973 0 0 1-14.431-12.39c-5.103-29.224-14.803-103.329-18.659-125.544-4.853-27.948-1.654-75.958-1.654-75.958" stroke="#000" stroke-width="5" stroke-miterlimit="10"/><path d="m254.742 590.017-11.796 55.322 2.254 121.006a9.002 9.002 0 0 0 6.85 8.054c11.761 2.868 40.039 4.87 53.847 11.965 3.156 1.618 1.969 4.945-1.578 4.984l-64.422-.821a14.973 14.973 0 0 1-14.431-12.39c-5.103-29.224-14.803-103.329-18.659-125.544-4.853-27.948-1.654-75.958-1.654-75.958" stroke="#000" stroke-width="5" stroke-miterlimit="10"/><path d="M225.468 778.135c2.72-3.04 14.619-8.784 21.021-7.793Z" fill="#fff"/><path d="M225.468 778.135c2.72-3.04 14.619-8.784 21.021-7.793" stroke="#000" stroke-width="5" stroke-miterlimit="10"/><path d="M225.468 778.135c2.72-3.04 14.619-8.784 21.021-7.793" stroke="#000" stroke-width="5" stroke-miterlimit="10"/></svg>