<svg width="800" height="800" viewBox="0 0 800 800" fill="none" xmlns="http://www.w3.org/2000/svg">
<g clip-path="url(#clip0_298_12115)">
<path d="M599.13 691.823C605.609 704.181 615.976 722.393 621.86 728.402C621.86 728.402 646.662 707.8 663.2 682.788C679.739 657.781 682.13 633.141 691.064 612.495C699.994 591.848 705.354 598.439 705.054 577.161C704.752 555.884 676.578 538.113 666.577 519.714C656.583 501.318 655.573 496.978 659.697 470.521C663.82 444.064 668.366 439.103 668.366 439.103C668.366 439.103 635.708 426.947 635.708 433.748C635.708 440.552 633.018 466.18 629.918 481.888C626.817 497.598 615.536 514.319 611.151 531.587C606.766 548.856 610.109 589.943 608.229 610.013C606.352 630.084 606.311 636.334 600.231 645.301C594.155 654.267 588.588 656.131 588.588 656.131C588.588 656.131 590.049 674.505 599.13 691.823Z" fill="white" stroke="black" stroke-width="5" stroke-miterlimit="10"/>
<path d="M599.13 691.823C605.609 704.181 615.976 722.393 621.86 728.402C621.86 728.402 646.662 707.8 663.2 682.788C679.739 657.781 682.13 633.141 691.064 612.495C699.994 591.848 705.354 598.439 705.054 577.161C704.752 555.884 676.578 538.113 666.577 519.714C656.583 501.318 655.573 496.978 659.697 470.521C663.82 444.064 668.366 439.103 668.366 439.103C668.366 439.103 635.708 426.947 635.708 433.748C635.708 440.552 633.018 466.18 629.918 481.888C626.817 497.598 615.536 514.319 611.151 531.587C606.766 548.856 610.109 589.943 608.229 610.013C606.352 630.084 606.311 636.334 600.231 645.301C594.155 654.267 588.588 656.131 588.588 656.131C588.588 656.131 590.049 674.505 599.13 691.823Z" stroke="black" stroke-width="5" stroke-miterlimit="10"/>
<path d="M639.207 455.84C630.936 452.681 629.053 444.451 621.838 437.963C610.376 427.652 615.508 404.045 629.67 393.719C648.367 380.088 700.414 442.34 690.943 451.906C685.332 457.572 670.012 461.626 653.728 458.25C648.491 457.165 639.207 455.84 639.207 455.84Z" fill="white" stroke="black" stroke-width="5" stroke-miterlimit="10"/>
<path d="M639.207 455.84C630.936 452.681 629.053 444.451 621.838 437.963C610.376 427.652 615.508 404.045 629.67 393.719C648.367 380.088 700.414 442.34 690.943 451.906C685.332 457.572 670.012 461.626 653.728 458.25C648.491 457.165 639.207 455.84 639.207 455.84Z" stroke="black" stroke-width="5" stroke-miterlimit="10"/>
<path d="M639.955 395.442C649.421 404.16 646.972 422.989 640.027 427.074C633.079 431.156 628.801 434.742 629.968 437.227C631.136 439.715 634.479 442.552 636.427 441.24C638.373 439.93 641.379 435.61 644.593 438.767C647.808 441.928 650.313 455.036 645.628 463.538C640.942 472.04 626.723 474.699 613.999 467.123C601.276 459.55 597.061 437.079 600.586 419.975C602.284 411.726 606.926 403.99 612.648 399.228C622.078 391.378 630.662 386.888 639.955 395.442Z" fill="black" stroke="black" stroke-width="5" stroke-miterlimit="10"/>
<path d="M605.526 451.019C606.367 459.467 609.741 468.55 601.555 478.015C593.372 487.476 584.519 483.724 580.713 490.961C576.908 498.2 578.441 521.323 569.277 529.994C560.113 538.668 554.479 530.231 544.251 539.572C535.5 547.561 551.426 563.868 530.132 579.425C519.92 586.886 463.019 524.283 476.666 514.122C490.31 503.965 504.216 509.91 511.057 503.296C517.899 496.678 511.935 484.128 521.731 475.842C535.465 464.224 549.729 477.82 559.921 469.063C568.303 461.862 564.866 455.013 575.026 446.841C585.182 438.668 605.526 451.019 605.526 451.019Z" fill="black" stroke="black" stroke-width="5" stroke-miterlimit="10"/>
<path d="M625.419 496.055C625.419 496.055 662.497 550.842 688.724 546.538" stroke="black" stroke-width="5" stroke-miterlimit="10"/>
<path d="M595.809 684.649C606.953 710.114 621.86 728.4 621.86 728.4C621.86 728.4 584.458 754.699 546.973 768.033C509.486 781.364 475.959 791.355 441.602 791.706C407.25 792.059 334.466 790.686 289.241 787.639C244.014 784.593 194.69 778.514 171.297 779.482C147.899 780.449 110.538 789.738 86.3496 789.357C62.1613 788.977 92.5763 770.084 96.1821 768.487C99.787 766.889 137.676 757.269 145.191 753.824C152.704 750.377 154.396 745.879 162.776 746.58C171.155 747.277 175.97 753.379 194.101 751.167C212.232 748.954 293.778 739.865 323.797 737.062C353.815 734.254 400.089 733.873 443.166 717.738C486.247 701.599 493.445 679.231 533.05 664.89C533.05 664.89 542.369 661.503 559.942 661.603C577.512 661.707 588.588 656.128 588.588 656.128C588.588 656.128 589.911 671.166 595.809 684.649Z" fill="white" stroke="black" stroke-width="5" stroke-miterlimit="10"/>
<path d="M595.809 684.649C606.953 710.114 621.86 728.4 621.86 728.4C621.86 728.4 584.458 754.699 546.973 768.033C509.486 781.364 475.959 791.355 441.602 791.706C407.25 792.059 334.466 790.686 289.241 787.639C244.014 784.593 194.69 778.514 171.297 779.482C147.899 780.449 110.538 789.738 86.3496 789.357C62.1613 788.977 92.5763 770.084 96.1821 768.487C99.787 766.889 137.676 757.269 145.191 753.824C152.704 750.377 154.396 745.879 162.776 746.58C171.155 747.277 175.97 753.379 194.101 751.167C212.232 748.954 293.778 739.865 323.797 737.062C353.815 734.254 400.089 733.873 443.166 717.738C486.247 701.599 493.445 679.231 533.05 664.89C533.05 664.89 542.369 661.503 559.942 661.603C577.512 661.707 588.588 656.128 588.588 656.128C588.588 656.128 589.911 671.166 595.809 684.649Z" stroke="black" stroke-width="5" stroke-miterlimit="10"/>
<path d="M626.351 523.587C634.512 522.689 651.611 533.28 650.536 551.701C649.46 570.12 640.767 624.505 642.008 654.887C643.249 685.269 653.264 765.721 658.472 775.181C663.676 784.638 672.566 780.102 684.34 781.981C696.119 783.861 719.064 788.976 721.546 792.853C724.026 796.726 713.204 796.09 711.004 796.04C708.804 795.99 658.39 796.766 652.857 795.218C647.324 793.667 640.968 795.42 636.583 771.613C632.198 747.81 617.601 707.067 613.178 671.255C608.75 635.439 610.413 557.952 610.698 546.71C610.974 535.469 613.69 524.98 626.351 523.587Z" fill="white" stroke="black" stroke-width="5" stroke-miterlimit="10"/>
<path d="M626.351 523.587C634.512 522.689 651.611 533.28 650.536 551.701C649.46 570.12 640.767 624.505 642.008 654.887C643.249 685.269 653.264 765.721 658.472 775.181C663.676 784.638 672.566 780.102 684.34 781.981C696.119 783.861 719.064 788.976 721.546 792.853C724.026 796.726 713.204 796.09 711.004 796.04C708.804 795.99 658.39 796.766 652.857 795.218C647.324 793.667 640.968 795.42 636.583 771.613C632.198 747.81 617.601 707.067 613.178 671.255C608.75 635.439 610.413 557.952 610.698 546.71C610.974 535.469 613.69 524.98 626.351 523.587Z" stroke="black" stroke-width="5" stroke-miterlimit="10"/>
<path d="M211.563 749.131C208.829 757.198 208.237 780.93 208.237 780.93" stroke="black" stroke-width="5" stroke-miterlimit="10"/>
</g>
<defs>
<clipPath id="clip0_298_12115">
<rect width="800" height="800" fill="white"/>
</clipPath>
</defs>
</svg>
