<svg width="800" height="800" fill="none" xmlns="http://www.w3.org/2000/svg"><g clip-path="url(#a)" stroke="#000" stroke-width="5" stroke-miterlimit="10"><path d="M454.847 501.09c24.866-4.384 28.757-5.365 28.757-5.365s2.501 26.793 2.501 32.515c0 2.5 29.062 6.633 40.007 7.504 10.945.868 106.789 16.854 121.65 22.167 14.868 5.316 23.82 2.548 28.617 15.602 4.798 13.059-15.86 101.224-18.64 124.641-2.783 23.415-5.316 52.762.623 61.726 5.94 8.962 52.481 19.468 58.769 21.116 6.288 1.647 11.889 3.378 12.192 5.563.304 2.185-.662 6.548-10.129 7.44-9.467.896-80.714 1.776-84.169-.511-3.461-2.287-10.502-5.21-9.491-21.507 1.01-16.307.425-41.388-2.075-66.606-2.5-25.217-12.712-74.617.414-104.839 0 0-47.058 13.442-91.671 14.42-44.611.984-80.865-8.289-89.671-11.614 0 0-102.165 40.442-123.96 49.956-21.797 9.514-132.119 56.043-164.291 68.909-32.173 12.868-47.001 21.203-50.367 28.969-3.372 7.768-1.02 22.491 4.94 27.583 5.96 5.091 10.856 5.09 13.67 7.278 2.812 2.188 3.054 6.045-6.041 6.045-9.099 0-27.227 1.925-38.149-13.832-10.923-15.765-8.561-21.95 0-30.737 8.56-8.788 10.1-16.948 27.198-33.71s126.92-83.723 170.531-103.023c43.613-19.298 83.23-62.329 105.021-77.535 19.97-13.935 27.649-9.386 30.007-17.509 1.406-4.853 2.5-10.005 2.5-10.005s26.818-2.091 41.257-4.641Z" fill="#fff"/><path d="M454.847 501.09c24.866-4.384 28.757-5.365 28.757-5.365s2.501 26.793 2.501 32.515c0 2.5 29.062 6.633 40.007 7.504 10.945.868 106.789 16.854 121.65 22.167 14.868 5.316 23.82 2.548 28.617 15.602 4.798 13.059-15.86 101.224-18.64 124.641-2.783 23.415-5.316 52.762.623 61.726 5.94 8.962 52.481 19.468 58.769 21.116 6.288 1.647 11.889 3.378 12.192 5.563.304 2.185-.662 6.548-10.129 7.44-9.467.896-80.714 1.776-84.169-.511-3.461-2.287-10.502-5.21-9.491-21.507 1.01-16.307.425-41.388-2.075-66.606-2.5-25.217-12.712-74.617.414-104.839 0 0-47.058 13.442-91.671 14.42-44.611.984-80.865-8.289-89.671-11.614 0 0-102.165 40.442-123.96 49.956-21.797 9.514-132.119 56.043-164.291 68.909-32.173 12.868-47.001 21.203-50.367 28.969-3.372 7.768-1.02 22.491 4.94 27.583 5.96 5.091 10.856 5.09 13.67 7.278 2.812 2.188 3.054 6.045-6.041 6.045-9.099 0-27.227 1.925-38.149-13.832-10.923-15.765-8.561-21.95 0-30.737 8.56-8.788 10.1-16.948 27.198-33.71s126.92-83.723 170.531-103.023c43.613-19.298 83.23-62.329 105.021-77.535 19.97-13.935 27.649-9.386 30.007-17.509 1.406-4.853 2.5-10.005 2.5-10.005s26.818-2.091 41.257-4.641ZM624.539 717.782h30.722M131.548 693.677l21.117 29.263M131.548 693.677l21.117 29.263"/><path d="M446.649 507.93c19.013-1.259 38.079-3.109 38.079-3.109s-.21-47.674 2.757-60.709c2.975-13.033 4.665-13.377 10.492-21.362 5.827-7.977 6.514-19.686.21-32.131-6.297-12.451-33.107-44.172-35.519-56.921-2.412-12.752-13.753-27.768-4.068-50.57l-32.506-25.011s-14.779 83.834-15.36 107.556c-.583 23.725 4.911 79.552 4.653 96.174-.254 16.624-2.837 45.32-2.837 45.32s22.884 1.505 34.099.763Z" fill="#fff"/><path d="M446.649 507.93c19.013-1.259 38.079-3.109 38.079-3.109s-.21-47.674 2.757-60.709c2.975-13.033 4.665-13.377 10.492-21.362 5.827-7.977 6.514-19.686.21-32.131-6.297-12.451-33.107-44.172-35.519-56.921-2.412-12.752-13.753-27.768-4.068-50.57l-32.506-25.011s-14.779 83.834-15.36 107.556c-.583 23.725 4.911 79.552 4.653 96.174-.254 16.624-2.837 45.32-2.837 45.32s22.884 1.505 34.099.763Z"/><path d="M434.987 274.289c-4.865-4.524-5.301-9.651-8.547-16.202-5.143-10.402 6.645-23.844 18.525-29.047 11.877-5.202 34.61 54.203 25.49 58.201-5.404 2.364-18.814 2.066-28.313-5.987-5.465-4.63-7.155-6.965-7.155-6.965Z" fill="#fff"/><path d="M434.987 274.289c-4.865-4.524-5.301-9.651-8.547-16.202-5.143-10.402 6.645-23.844 18.525-29.047 11.877-5.202 34.61 54.203 25.49 58.201-5.404 2.364-18.814 2.066-28.313-5.987-5.465-4.63-7.155-6.965-7.155-6.965ZM438.61 319.71s20.405 27.335 28.46 22.711"/><path d="M439.495 278.929c-5.804-6.231-7.248-11.497-4.303-14.14 2.95-2.647 8.678-4.32 11.726-8.912 3.048-4.59-6.144-13.162-5.839-18.683.309-5.519 7.8-8.588 10.537-5.444 2.732 3.145 2.545-1.908-.164-5.664-2.488-3.444-14.529-20.165-38.364-8.039-19.252 9.798-27.491 20.91-24.654 43.035 2.841 22.131 18.305 28.482 7.917 45.84-12.849 21.474-33.253 8.986-49.431 38.011-6.185 11.088-.244 34.545 9.39 46.96 10.343 13.334 30.02 22.622 39.878 22.471 23.731-.354 25.75-9.59 25.75-9.59l-7.789-32.313s11.802-68.136 16.094-82.498c4.29-14.36 9.252-11.034 9.252-11.034Z" fill="#000"/><path d="M421.72 339.541c-2.099 3.512-8.183 12.01-9.413 15.691-1.232 3.686-2.728 20.725 7.282 29.071 10.013 8.348 28.677 1.092 35.051-10.154 6.374-11.25 6.104-15.197 8.532-20.204 2.428-5.01 25.939-41.639 41.044-69.069 15.101-27.438 30.407-70.13 35.488-97.383 5.08-27.252 10.855-56.544 13.211-67.677 2.358-11.131 10.699-45.172 6.504-57.807-4.19-12.633-14.182-12.614-18.594 4.105-4.418 16.712-3.404 35.881-6.835 53.369-3.428 17.486-17.469 65.745-26.268 86.502-8.796 20.756-5.22 20.395-33.315 66.227-28.097 45.835-52.687 67.329-52.687 67.329Z" fill="#fff"/><path d="M421.72 339.541c-2.099 3.512-8.183 12.01-9.413 15.691-1.232 3.686-2.728 20.725 7.282 29.071 10.013 8.348 28.677 1.092 35.051-10.154 6.374-11.25 6.104-15.197 8.532-20.204 2.428-5.01 25.939-41.639 41.044-69.069 15.101-27.438 30.407-70.13 35.488-97.383 5.08-27.252 10.855-56.544 13.211-67.677 2.358-11.131 10.699-45.172 6.504-57.807-4.19-12.633-14.182-12.614-18.594 4.105-4.418 16.712-3.404 35.881-6.835 53.369-3.428 17.486-17.469 65.745-26.268 86.502-8.796 20.756-5.22 20.395-33.315 66.227-28.097 45.835-52.687 67.329-52.687 67.329Z"/></g><defs><clipPath id="a"><path fill="#fff" d="M0 0h800v800H0z"/></clipPath></defs></svg>