<svg width="800" height="900" fill="none" xmlns="http://www.w3.org/2000/svg"><path fill="#fff" d="M0 0h800v900H0z"/><path d="M493.436 382.383s-36.006-17.564-43.178-4.528c-10.4 18.911-15.446 38.052-26.045 57.862-5.141 9.597-12.436 18.809-24.491 23.745-14.554 5.999-30.99 1.75-47.06 9.597-17.431 8.55-33.968 22.477-48.607 37.798-14.656 15.355-26.124 35.646-33.392 56.308-.775 2.118-1.199 5.899-1.431 8.207a5.76 5.76 0 0 0-.011.136c-6.96 2.903-4.606 1.92-11.564 4.825-27.037-22.74-51.38-43.873-77.176-69.117-.926-.906-1.563-2.051-1.899-3.296-.534-1.962-1.847-4.957-1.473-5.682 1.708-3.452 3.224-6.676 4.227-9.008 6.492-15.029 27.107-51.121 32.975-59.075 17.524-23.7 35.483-42.788 54.926-58.691 36.802-30.118 83.882-44.596 131.32-41.278 21.744 1.518 45.685 3.801 64.227 7.174 0 0 57.305 0 61.397-12.28" fill="#fff"/><path d="M493.436 382.383s-36.006-17.564-43.178-4.528c-10.4 18.911-15.446 38.052-26.045 57.862-5.141 9.597-12.436 18.809-24.491 23.745-14.554 5.999-30.99 1.75-47.06 9.597-17.431 8.55-33.968 22.477-48.607 37.798-14.656 15.355-26.124 35.646-33.392 56.308-.775 2.118-1.199 5.899-1.431 8.207a5.76 5.76 0 0 0-.011.136c-6.96 2.903-4.606 1.92-11.564 4.825-27.037-22.74-51.38-43.873-77.176-69.117-.926-.906-1.563-2.051-1.899-3.296-.534-1.962-1.847-4.957-1.473-5.682 1.708-3.452 3.224-6.676 4.227-9.008 6.492-15.029 27.107-51.121 32.975-59.075 17.524-23.7 35.483-42.788 54.926-58.691 36.802-30.118 83.882-44.596 131.32-41.278 21.744 1.518 45.685 3.801 64.227 7.174 0 0 57.305 0 61.397-12.28" stroke="#000" stroke-width="5" stroke-miterlimit="10"/><path d="M493.436 382.383s-36.006-17.564-43.178-4.528c-10.4 18.911-15.446 38.052-26.045 57.862-5.141 9.597-12.436 18.809-24.491 23.745-14.554 5.999-30.99 1.75-47.06 9.597-17.431 8.55-33.968 22.477-48.607 37.798-14.656 15.355-26.124 35.646-33.392 56.308-.775 2.118-1.199 5.899-1.431 8.207a5.76 5.76 0 0 0-.011.136c-6.96 2.903-4.606 1.92-11.564 4.825-27.037-22.74-51.38-43.873-77.176-69.117-.926-.906-1.563-2.051-1.899-3.296-.534-1.962-1.847-4.957-1.473-5.682 1.708-3.452 3.224-6.676 4.227-9.008 6.492-15.029 27.107-51.121 32.975-59.075 17.524-23.7 35.483-42.788 54.926-58.691 36.802-30.118 83.882-44.596 131.32-41.278 21.744 1.518 45.685 3.801 64.227 7.174 0 0 57.305 0 61.397-12.28" stroke="#000" stroke-width="5" stroke-miterlimit="10"/><path d="M458.975 336.366s-19.319 29.407-14.938 54.078l14.938-54.078Z" fill="#fff"/><path d="M458.975 336.366s-19.319 29.407-14.938 54.078" stroke="#000" stroke-width="5" stroke-miterlimit="10"/><path d="M458.975 336.366s-19.319 29.407-14.938 54.078" stroke="#000" stroke-width="5" stroke-miterlimit="10"/><path d="M367.431 378.648c-.368 6.524-1.451 14.265-3.187 21.318-1.097 4.461-1.593 7.346-2.386 10.345-5.072 19.249-23.84 108.244-41.978 146.139-38.793 81.021-55.664 141.099-61.261 168.591-1.583 7.771 6.259 16.127 15.342 15.522l104.87-2.079c3.15-.211 4.336-7.383 1.843-9.009-16.448-10.733-65.432-11.456-80.016-11.131-3.557.075-6.255-5.125-4.817-7.963l76.771-146.539a36.078 36.078 0 0 0 1.79-3.981l68.142-178.196c2.022-5.284 2.979-10.88 2.122-16.352l-4.436-23.864" fill="#fff"/><path d="M367.431 378.648c-.368 6.524-1.451 14.265-3.187 21.318-1.097 4.461-1.593 7.346-2.386 10.345-5.072 19.249-23.84 108.244-41.978 146.139-38.793 81.021-55.664 141.099-61.261 168.591-1.583 7.771 6.259 16.127 15.342 15.522l104.87-2.079c3.15-.211 4.336-7.383 1.843-9.009-16.448-10.733-65.432-11.456-80.016-11.131-3.557.075-6.255-5.125-4.817-7.963l76.771-146.539a36.078 36.078 0 0 0 1.79-3.981l68.142-178.196c2.022-5.284 2.979-10.88 2.122-16.352l-4.436-23.864" stroke="#000" stroke-width="5" stroke-miterlimit="10"/><path d="M367.431 378.648c-.368 6.524-1.451 14.265-3.187 21.318-1.097 4.461-1.593 7.346-2.386 10.345-5.072 19.249-23.84 108.244-41.978 146.139-38.793 81.021-55.664 141.099-61.261 168.591-1.583 7.771 6.259 16.127 15.342 15.522l104.87-2.079c3.15-.211 4.336-7.383 1.843-9.009-16.448-10.733-65.432-11.456-80.016-11.131-3.557.075-6.255-5.125-4.817-7.963l76.771-146.539a36.078 36.078 0 0 0 1.79-3.981l68.142-178.196c2.022-5.284 2.979-10.88 2.122-16.352l-4.436-23.864" stroke="#000" stroke-width="5" stroke-miterlimit="10"/><path d="M518.756 332.272c11.104-10.723 25.523-7.838 41.12-14.544 24.778-10.657 58.339 14.178 64.214 43.745 7.752 39.036-129.189 76.464-137.328 54.799-4.824-12.832.08-39.765 17.456-62.921 5.584-7.447 14.538-21.079 14.538-21.079Z" fill="#fff" stroke="#000" stroke-width="5" stroke-miterlimit="10"/><path d="M518.756 332.272c11.104-10.723 25.523-7.838 41.12-14.544 24.778-10.657 58.339 14.178 64.214 43.745 7.752 39.036-129.189 76.464-137.328 54.799-4.824-12.832.08-39.765 17.456-62.921 5.584-7.447 14.538-21.079 14.538-21.079Z" stroke="#000" stroke-width="5" stroke-miterlimit="10"/><path d="M612.221 381.714c-24.245 5.732-72.459-.744-72.356-33.058.109-36.319-16.659-17.187-22.38-12.867-5.72 4.322-13.563 23.992-16.26 21.063-2.696-2.919 2.581-54.355 36.161-67.946 33.581-13.591 53.88-9.793 69.243 5.484 15.367 15.274 26.875 52.251 20.403 73.101-6.47 20.855-14.811 14.223-14.811 14.223Z" fill="#100200" stroke="#000" stroke-width="5" stroke-miterlimit="10"/><path d="M589.773 297.286c17.171.999 57.39-8.946 34.201-49.107-19.059-32.996-2.453-34.691-5.447-66.465-2.405-25.538-37.681-35.787-73.205 2.89-32.332 35.2-5.88 48.31 18.641 67.856 24.515 19.546 25.81 44.826 25.81 44.826Z" fill="#100200" stroke="#000" stroke-width="5" stroke-miterlimit="10"/><path d="M185.413 480.611s-48.079 94.151 25.596 122.802c73.676 28.653 192.378-122.793 192.378-122.793s22.537 37.557 81.997 91.084c4.749 4.281 7.06 10.721 5.938 17.018-1.911 10.763-3.637 27.485 2.114 35.158 12.28 16.373 24.559 20.468 49.119 20.468 24.558 0 61.398 49.117 61.398 49.117s24.557 16.373 20.465-12.279c-2.657-18.607-41.576-63.116-68.528-92.036-16.161-17.331-29.197-37.301-38.394-59.135-12.902-30.618-35.179-78.352-64.989-123.069-5.989-8.981-28.569-15.677-32.746-16.373-24.559-4.094-171.913 98.235-171.913 98.235s-38.918-16.392-62.435-8.197Z" fill="#fff" stroke="#000" stroke-width="5" stroke-miterlimit="10"/><path d="M185.413 480.611s-48.079 94.151 25.596 122.802c73.676 28.653 192.378-122.793 192.378-122.793s22.537 37.557 81.997 91.084c4.749 4.281 7.06 10.721 5.938 17.018-1.911 10.763-3.637 27.485 2.114 35.158 12.28 16.373 24.559 20.468 49.119 20.468 24.558 0 61.398 49.117 61.398 49.117s24.557 16.373 20.465-12.279c-2.657-18.607-41.576-63.116-68.528-92.036-16.161-17.331-29.197-37.301-38.394-59.135-12.902-30.618-35.179-78.352-64.989-123.069-5.989-8.981-28.569-15.677-32.746-16.373-24.559-4.094-171.913 98.235-171.913 98.235s-38.918-16.392-62.435-8.197ZM247.843 488.805l-28.652 20.465M247.843 488.805l-28.652 20.465" stroke="#000" stroke-width="5" stroke-miterlimit="10"/><path d="M480.57 567.326s33.49-4.401 43.65-23.041l-43.65 23.041Z" fill="#fff"/><path d="M480.57 567.326s33.49-4.401 43.65-23.041" stroke="#000" stroke-width="5" stroke-miterlimit="10"/><path d="M480.57 567.326s33.49-4.401 43.65-23.041" stroke="#000" stroke-width="5" stroke-miterlimit="10"/><path d="M269.324 683.938s15.054 16.575 35.671 8.953l-35.671-8.953Z" fill="#fff"/><path d="M269.324 683.938s15.054 16.575 35.671 8.953" stroke="#000" stroke-width="5" stroke-miterlimit="10"/><path d="M269.324 683.938s15.054 16.575 35.671 8.953" stroke="#000" stroke-width="5" stroke-miterlimit="10"/></svg>