<svg width="800" height="900" viewBox="0 0 800 900" fill="none" xmlns="http://www.w3.org/2000/svg">
<rect width="800" height="900" fill="white"/>
<path d="M493.436 382.383C493.436 382.383 457.43 364.819 450.258 377.855C439.858 396.766 434.812 415.907 424.213 435.717C419.072 445.314 411.777 454.526 399.722 459.462C385.168 465.461 368.732 461.212 352.662 469.059C335.231 477.609 318.694 491.536 304.055 506.857C289.399 522.212 277.931 542.503 270.663 563.165C269.888 565.283 269.464 569.064 269.232 571.372C269.228 571.416 269.224 571.463 269.221 571.508C262.261 574.411 264.615 573.428 257.657 576.333C230.62 553.593 206.277 532.46 180.481 507.216C179.555 506.31 178.918 505.165 178.582 503.92C178.048 501.958 176.735 498.963 177.109 498.238C178.817 494.786 180.333 491.562 181.336 489.23C187.828 474.201 208.443 438.109 214.311 430.155C231.835 406.455 249.794 387.367 269.237 371.464C306.039 341.346 353.119 326.868 400.557 330.186C422.301 331.704 446.242 333.987 464.784 337.36C464.784 337.36 522.089 337.36 526.181 325.08" fill="white"/>
<path d="M493.436 382.383C493.436 382.383 457.43 364.819 450.258 377.855C439.858 396.766 434.812 415.907 424.213 435.717C419.072 445.314 411.777 454.526 399.722 459.462C385.168 465.461 368.732 461.212 352.662 469.059C335.231 477.609 318.694 491.536 304.055 506.857C289.399 522.212 277.931 542.503 270.663 563.165C269.888 565.283 269.464 569.064 269.232 571.372C269.228 571.416 269.224 571.463 269.221 571.508C262.261 574.411 264.615 573.428 257.657 576.333C230.62 553.593 206.277 532.46 180.481 507.216C179.555 506.31 178.918 505.165 178.582 503.92C178.048 501.958 176.735 498.963 177.109 498.238C178.817 494.786 180.333 491.562 181.336 489.23C187.828 474.201 208.443 438.109 214.311 430.155C231.835 406.455 249.794 387.367 269.237 371.464C306.039 341.346 353.119 326.868 400.557 330.186C422.301 331.704 446.242 333.987 464.784 337.36C464.784 337.36 522.089 337.36 526.181 325.08" stroke="black" stroke-width="5" stroke-miterlimit="10"/>
<path d="M493.436 382.383C493.436 382.383 457.43 364.819 450.258 377.855C439.858 396.766 434.812 415.907 424.213 435.717C419.072 445.314 411.777 454.526 399.722 459.462C385.168 465.461 368.732 461.212 352.662 469.059C335.231 477.609 318.694 491.536 304.055 506.857C289.399 522.212 277.931 542.503 270.663 563.165C269.888 565.283 269.464 569.064 269.232 571.372C269.228 571.416 269.224 571.463 269.221 571.508C262.261 574.411 264.615 573.428 257.657 576.333C230.62 553.593 206.277 532.46 180.481 507.216C179.555 506.31 178.918 505.165 178.582 503.92C178.048 501.958 176.735 498.963 177.109 498.238C178.817 494.786 180.333 491.562 181.336 489.23C187.828 474.201 208.443 438.109 214.311 430.155C231.835 406.455 249.794 387.367 269.237 371.464C306.039 341.346 353.119 326.868 400.557 330.186C422.301 331.704 446.242 333.987 464.784 337.36C464.784 337.36 522.089 337.36 526.181 325.08" stroke="black" stroke-width="5" stroke-miterlimit="10"/>
<path d="M458.975 336.366C458.975 336.366 439.656 365.773 444.037 390.444L458.975 336.366Z" fill="white"/>
<path d="M458.975 336.366C458.975 336.366 439.656 365.773 444.037 390.444" stroke="black" stroke-width="5" stroke-miterlimit="10"/>
<path d="M458.975 336.366C458.975 336.366 439.656 365.773 444.037 390.444" stroke="black" stroke-width="5" stroke-miterlimit="10"/>
<path d="M367.431 378.648C367.063 385.172 365.98 392.913 364.244 399.966C363.147 404.427 362.651 407.312 361.858 410.311C356.786 429.56 338.018 518.555 319.88 556.45C281.087 637.471 264.216 697.549 258.619 725.041C257.036 732.812 264.878 741.168 273.961 740.563L378.831 738.484C381.981 738.273 383.167 731.101 380.674 729.475C364.226 718.742 315.242 718.019 300.658 718.344C297.101 718.419 294.403 713.219 295.841 710.381L372.612 563.842C373.29 562.543 373.892 561.216 374.402 559.861L442.544 381.665C444.566 376.381 445.523 370.785 444.666 365.313L440.23 341.449" fill="white"/>
<path d="M367.431 378.648C367.063 385.172 365.98 392.913 364.244 399.966C363.147 404.427 362.651 407.312 361.858 410.311C356.786 429.56 338.018 518.555 319.88 556.45C281.087 637.471 264.216 697.549 258.619 725.041C257.036 732.812 264.878 741.168 273.961 740.563L378.831 738.484C381.981 738.273 383.167 731.101 380.674 729.475C364.226 718.742 315.242 718.019 300.658 718.344C297.101 718.419 294.403 713.219 295.841 710.381L372.612 563.842C373.29 562.543 373.892 561.216 374.402 559.861L442.544 381.665C444.566 376.381 445.523 370.785 444.666 365.313L440.23 341.449" stroke="black" stroke-width="5" stroke-miterlimit="10"/>
<path d="M367.431 378.648C367.063 385.172 365.98 392.913 364.244 399.966C363.147 404.427 362.651 407.312 361.858 410.311C356.786 429.56 338.018 518.555 319.88 556.45C281.087 637.471 264.216 697.549 258.619 725.041C257.036 732.812 264.878 741.168 273.961 740.563L378.831 738.484C381.981 738.273 383.167 731.101 380.674 729.475C364.226 718.742 315.242 718.019 300.658 718.344C297.101 718.419 294.403 713.219 295.841 710.381L372.612 563.842C373.29 562.543 373.892 561.216 374.402 559.861L442.544 381.665C444.566 376.381 445.523 370.785 444.666 365.313L440.23 341.449" stroke="black" stroke-width="5" stroke-miterlimit="10"/>
<path d="M518.756 332.272C529.86 321.549 544.279 324.434 559.876 317.728C584.654 307.071 618.215 331.906 624.09 361.473C631.842 400.509 494.901 437.937 486.762 416.272C481.938 403.44 486.842 376.507 504.218 353.351C509.802 345.904 518.756 332.272 518.756 332.272Z" fill="white" stroke="black" stroke-width="5" stroke-miterlimit="10"/>
<path d="M518.756 332.272C529.86 321.549 544.279 324.434 559.876 317.728C584.654 307.071 618.215 331.906 624.09 361.473C631.842 400.509 494.901 437.937 486.762 416.272C481.938 403.44 486.842 376.507 504.218 353.351C509.802 345.904 518.756 332.272 518.756 332.272Z" stroke="black" stroke-width="5" stroke-miterlimit="10"/>
<path d="M612.221 381.714C587.976 387.446 539.762 380.97 539.865 348.656C539.974 312.337 523.206 331.469 517.485 335.789C511.765 340.111 503.922 359.781 501.225 356.852C498.529 353.933 503.806 302.497 537.386 288.906C570.967 275.315 591.266 279.113 606.629 294.39C621.996 309.664 633.504 346.641 627.032 367.491C620.562 388.346 612.221 381.714 612.221 381.714Z" fill="#100200" stroke="black" stroke-width="5" stroke-miterlimit="10"/>
<path d="M589.773 297.286C606.944 298.285 647.163 288.34 623.974 248.179C604.915 215.183 621.521 213.488 618.527 181.714C616.122 156.176 580.846 145.927 545.322 184.604C512.99 219.804 539.442 232.914 563.963 252.46C588.478 272.006 589.773 297.286 589.773 297.286Z" fill="#100200" stroke="black" stroke-width="5" stroke-miterlimit="10"/>
<path d="M185.413 480.611C185.413 480.611 137.334 574.762 211.009 603.413C284.685 632.066 403.387 480.62 403.387 480.62C403.387 480.62 425.924 518.177 485.384 571.704C490.133 575.985 492.444 582.425 491.322 588.722C489.411 599.485 487.685 616.207 493.436 623.88C505.716 640.253 517.995 644.348 542.555 644.348C567.113 644.348 603.953 693.465 603.953 693.465C603.953 693.465 628.51 709.838 624.418 681.186C621.761 662.579 582.842 618.07 555.89 589.15C539.729 571.819 526.693 551.849 517.496 530.015C504.594 499.397 482.317 451.663 452.507 406.946C446.518 397.965 423.938 391.269 419.761 390.573C395.202 386.479 247.848 488.808 247.848 488.808C247.848 488.808 208.93 472.416 185.413 480.611Z" fill="white" stroke="black" stroke-width="5" stroke-miterlimit="10"/>
<path d="M185.413 480.611C185.413 480.611 137.334 574.762 211.009 603.413C284.685 632.066 403.387 480.62 403.387 480.62C403.387 480.62 425.924 518.177 485.384 571.704C490.133 575.985 492.444 582.425 491.322 588.722C489.411 599.485 487.685 616.207 493.436 623.88C505.716 640.253 517.995 644.348 542.555 644.348C567.113 644.348 603.953 693.465 603.953 693.465C603.953 693.465 628.51 709.838 624.418 681.186C621.761 662.579 582.842 618.07 555.89 589.15C539.729 571.819 526.693 551.849 517.496 530.015C504.594 499.397 482.317 451.663 452.507 406.946C446.518 397.965 423.938 391.269 419.761 390.573C395.202 386.479 247.848 488.808 247.848 488.808C247.848 488.808 208.93 472.416 185.413 480.611Z" stroke="black" stroke-width="5" stroke-miterlimit="10"/>
<path d="M247.843 488.805L219.191 509.27" stroke="black" stroke-width="5" stroke-miterlimit="10"/>
<path d="M247.843 488.805L219.191 509.27" stroke="black" stroke-width="5" stroke-miterlimit="10"/>
<path d="M480.57 567.326C480.57 567.326 514.06 562.925 524.22 544.285L480.57 567.326Z" fill="white"/>
<path d="M480.57 567.326C480.57 567.326 514.06 562.925 524.22 544.285" stroke="black" stroke-width="5" stroke-miterlimit="10"/>
<path d="M480.57 567.326C480.57 567.326 514.06 562.925 524.22 544.285" stroke="black" stroke-width="5" stroke-miterlimit="10"/>
<path d="M269.324 683.938C269.324 683.938 284.378 700.513 304.995 692.891L269.324 683.938Z" fill="white"/>
<path d="M269.324 683.938C269.324 683.938 284.378 700.513 304.995 692.891" stroke="black" stroke-width="5" stroke-miterlimit="10"/>
<path d="M269.324 683.938C269.324 683.938 284.378 700.513 304.995 692.891" stroke="black" stroke-width="5" stroke-miterlimit="10"/>
</svg>
