<svg width="800" height="900" viewBox="0 0 800 900" fill="none" xmlns="http://www.w3.org/2000/svg">
<rect width="800" height="900" fill="white"/>
<path d="M464.108 403.09C464.108 403.09 439.271 390.974 434.324 399.966C427.15 413.011 423.669 426.215 416.358 439.88C412.812 446.5 407.78 452.854 399.464 456.259C389.425 460.397 378.087 457.466 367.002 462.879C354.978 468.777 343.571 478.384 333.473 488.952C323.363 499.544 315.452 513.541 310.439 527.794C309.904 529.255 309.612 531.863 309.452 533.455C309.449 533.485 309.446 533.518 309.444 533.549C304.643 535.551 306.267 534.873 301.467 536.877C282.817 521.191 266.025 506.613 248.231 489.2C247.592 488.575 247.153 487.785 246.921 486.926C246.553 485.573 245.647 483.507 245.905 483.007C247.083 480.626 248.129 478.402 248.821 476.793C253.299 466.426 267.519 441.53 271.567 436.043C283.655 419.695 296.043 406.528 309.455 395.558C334.841 374.782 367.317 364.795 400.04 367.084C415.039 368.131 431.554 369.706 444.344 372.033C444.344 372.033 483.873 372.033 486.696 363.562" fill="white"/>
<path d="M464.108 403.09C464.108 403.09 439.271 390.974 434.324 399.966C427.15 413.011 423.669 426.215 416.358 439.88C412.812 446.5 407.78 452.854 399.464 456.259C389.425 460.397 378.087 457.466 367.002 462.879C354.978 468.777 343.571 478.384 333.473 488.952C323.363 499.544 315.452 513.541 310.439 527.794C309.904 529.255 309.612 531.863 309.452 533.455C309.449 533.485 309.446 533.518 309.444 533.549C304.643 535.551 306.267 534.873 301.467 536.877C282.817 521.191 266.025 506.613 248.231 489.2C247.592 488.575 247.153 487.785 246.921 486.926C246.553 485.573 245.647 483.507 245.905 483.007C247.083 480.626 248.129 478.402 248.821 476.793C253.299 466.426 267.519 441.53 271.567 436.043C283.655 419.695 296.043 406.528 309.455 395.558C334.841 374.782 367.317 364.795 400.04 367.084C415.039 368.131 431.554 369.706 444.344 372.033C444.344 372.033 483.873 372.033 486.696 363.562" stroke="black" stroke-width="5" stroke-miterlimit="10"/>
<path d="M464.108 403.09C464.108 403.09 439.271 390.974 434.324 399.966C427.15 413.011 423.669 426.215 416.358 439.88C412.812 446.5 407.78 452.854 399.464 456.259C389.425 460.397 378.087 457.466 367.002 462.879C354.978 468.777 343.571 478.384 333.473 488.952C323.363 499.544 315.452 513.541 310.439 527.794C309.904 529.255 309.612 531.863 309.452 533.455C309.449 533.485 309.446 533.518 309.444 533.549C304.643 535.551 306.267 534.873 301.467 536.877C282.817 521.191 266.025 506.613 248.231 489.2C247.592 488.575 247.153 487.785 246.921 486.926C246.553 485.573 245.647 483.507 245.905 483.007C247.083 480.626 248.129 478.402 248.821 476.793C253.299 466.426 267.519 441.53 271.567 436.043C283.655 419.695 296.043 406.528 309.455 395.558C334.841 374.782 367.317 364.795 400.04 367.084C415.039 368.131 431.554 369.706 444.344 372.033C444.344 372.033 483.873 372.033 486.696 363.562" stroke="black" stroke-width="5" stroke-miterlimit="10"/>
<path d="M440.336 371.348C440.336 371.348 427.01 391.633 430.032 408.651Z" fill="white"/>
<path d="M440.336 371.348C440.336 371.348 427.01 391.633 430.032 408.651" stroke="black" stroke-width="5" stroke-miterlimit="10"/>
<path d="M440.336 371.348C440.336 371.348 427.01 391.633 430.032 408.651" stroke="black" stroke-width="5" stroke-miterlimit="10"/>
<path d="M377.188 400.514C376.934 405.014 376.187 410.354 374.99 415.219C374.233 418.296 373.891 420.286 373.344 422.355C369.845 435.633 356.899 497.022 344.387 523.162C317.628 579.051 305.99 620.493 302.129 639.457C301.037 644.817 306.447 650.581 312.712 650.164L385.052 648.73C387.225 648.584 388.043 643.637 386.323 642.515C374.977 635.112 341.188 634.613 331.128 634.837C328.674 634.889 326.813 631.302 327.805 629.344L380.762 528.261C381.23 527.365 381.645 526.45 381.997 525.515L429.001 402.595C430.396 398.95 431.056 395.09 430.465 391.315L427.405 374.854" fill="white"/>
<path d="M377.188 400.514C376.934 405.014 376.187 410.354 374.99 415.219C374.233 418.296 373.891 420.286 373.344 422.355C369.845 435.633 356.899 497.022 344.387 523.162C317.628 579.051 305.99 620.493 302.129 639.457C301.037 644.817 306.447 650.581 312.712 650.164L385.052 648.73C387.225 648.584 388.043 643.637 386.323 642.515C374.977 635.112 341.188 634.613 331.128 634.837C328.674 634.889 326.813 631.302 327.805 629.344L380.762 528.261C381.23 527.365 381.645 526.45 381.997 525.515L429.001 402.595C430.396 398.95 431.056 395.09 430.465 391.315L427.405 374.854" stroke="black" stroke-width="5" stroke-miterlimit="10"/>
<path d="M377.188 400.514C376.934 405.014 376.187 410.354 374.99 415.219C374.233 418.296 373.891 420.286 373.344 422.355C369.845 435.633 356.899 497.022 344.387 523.162C317.628 579.051 305.99 620.493 302.129 639.457C301.037 644.817 306.447 650.581 312.712 650.164L385.052 648.73C387.225 648.584 388.043 643.637 386.323 642.515C374.977 635.112 341.188 634.613 331.128 634.837C328.674 634.889 326.813 631.302 327.805 629.344L380.762 528.261C381.23 527.365 381.645 526.45 381.997 525.515L429.001 402.595C430.396 398.95 431.056 395.09 430.465 391.315L427.405 374.854" stroke="black" stroke-width="5" stroke-miterlimit="10"/>
<path d="M481.576 368.524C489.236 361.127 499.182 363.117 509.941 358.491C527.033 351.14 550.183 368.271 554.236 388.667C559.583 415.594 465.121 441.412 459.507 426.467C456.179 417.616 459.562 399.037 471.548 383.064C475.4 377.927 481.576 368.524 481.576 368.524Z" fill="white" stroke="black" stroke-width="5" stroke-miterlimit="10"/>
<path d="M481.576 368.524C489.236 361.127 499.182 363.117 509.941 358.491C527.033 351.14 550.183 368.271 554.236 388.667C559.583 415.594 465.121 441.412 459.507 426.467C456.179 417.616 459.562 399.037 471.548 383.064C475.4 377.927 481.576 368.524 481.576 368.524Z" stroke="black" stroke-width="5" stroke-miterlimit="10"/>
<path d="M546.047 402.629C529.323 406.583 496.065 402.116 496.136 379.826C496.211 354.773 484.644 367.97 480.698 370.95C476.752 373.931 471.342 387.5 469.482 385.479C467.622 383.466 471.262 347.985 494.426 338.61C517.59 329.235 531.592 331.855 542.19 342.393C552.79 352.929 560.728 378.436 556.264 392.818C551.801 407.204 546.047 402.629 546.047 402.629Z" fill="#100200" stroke="black" stroke-width="5" stroke-miterlimit="10"/>
<path d="M530.562 344.39C542.407 345.079 570.15 338.219 554.154 310.516C541.007 287.755 552.462 286.586 550.397 264.668C548.738 247.052 524.404 239.982 499.9 266.662C477.597 290.943 495.844 299.986 512.758 313.469C529.669 326.952 530.562 344.39 530.562 344.39Z" fill="#100200" stroke="black" stroke-width="5" stroke-miterlimit="10"/>
<path d="M251.632 470.848C251.632 470.848 218.467 535.793 269.288 555.557C320.11 575.322 401.991 470.854 401.991 470.854C401.991 470.854 417.537 496.761 458.553 533.684C461.829 536.637 463.423 541.079 462.649 545.423C461.331 552.847 460.14 564.382 464.107 569.675C472.578 580.969 481.048 583.794 497.99 583.794C514.93 583.794 540.342 617.675 540.342 617.675C540.342 617.675 557.282 628.969 554.459 609.205C552.626 596.37 525.78 565.667 507.188 545.718C496.04 533.763 487.048 519.988 480.704 504.927C471.804 483.806 456.437 450.879 435.874 420.033C431.743 413.838 416.167 409.219 413.286 408.739C396.345 405.915 294.7 476.502 294.7 476.502C294.7 476.502 267.854 465.195 251.632 470.848Z" fill="white" stroke="black" stroke-width="5" stroke-miterlimit="10"/>
<path d="M251.632 470.848C251.632 470.848 218.467 535.793 269.288 555.557C320.11 575.322 401.991 470.854 401.991 470.854C401.991 470.854 417.537 496.761 458.553 533.684C461.829 536.637 463.423 541.079 462.649 545.423C461.331 552.847 460.14 564.382 464.107 569.675C472.578 580.969 481.048 583.794 497.99 583.794C514.93 583.794 540.342 617.675 540.342 617.675C540.342 617.675 557.282 628.969 554.459 609.205C552.626 596.37 525.78 565.667 507.188 545.718C496.04 533.763 487.048 519.988 480.704 504.927C471.804 483.806 456.437 450.879 435.874 420.033C431.743 413.838 416.167 409.219 413.286 408.739C396.345 405.915 294.7 476.502 294.7 476.502C294.7 476.502 267.854 465.195 251.632 470.848Z" stroke="black" stroke-width="5" stroke-miterlimit="10"/>
<path d="M294.698 476.5L274.934 490.617" stroke="black" stroke-width="5" stroke-miterlimit="10"/>
<path d="M294.698 476.5L274.934 490.617" stroke="black" stroke-width="5" stroke-miterlimit="10"/>
<path d="M455.23 530.665C455.23 530.665 478.331 527.629 485.34 514.771Z" fill="white"/>
<path d="M455.23 530.665C455.23 530.665 478.331 527.629 485.34 514.771" stroke="black" stroke-width="5" stroke-miterlimit="10"/>
<path d="M455.23 530.665C455.23 530.665 478.331 527.629 485.34 514.771" stroke="black" stroke-width="5" stroke-miterlimit="10"/>
<path d="M309.516 611.103C309.516 611.103 319.9 622.537 334.122 617.279Z" fill="white"/>
<path d="M309.516 611.103C309.516 611.103 319.9 622.537 334.122 617.279" stroke="black" stroke-width="5" stroke-miterlimit="10"/>
<path d="M309.516 611.103C309.516 611.103 319.9 622.537 334.122 617.279" stroke="black" stroke-width="5" stroke-miterlimit="10"/>
</svg>
