<svg xmlns="http://www.w3.org/2000/svg" width="800" height="900" xml:space="preserve"><g stroke="#000" stroke-width="5" stroke-miterlimit="10"><path fill="#FFF" d="M422.736 309.019c-1.111 35.032-2.861 38.143-2.861 38.143.53 1.869.795 7.334.955 9.52 1.313 17.756-3.189 38.912-5.007 53.514-3.347 26.877-4.667 45.068-10.072 69.799-8.291 37.928-15.703 73.596-12.726 112.171.433 5.586-.276 11.59 5.56 18.768 5.816 7.153 33.697 10.189 48.316 15.441 3.437 1.236 1.87 6.677-1.78 6.749l-65.271.926c-5.598.109-10.217-4.314-10.379-9.91-.928-31.97.494-42.99-3.216-95.502-1.733-24.523-1.33-26.874-.715-48.643.507-17.942.067-40.569.843-58.384.791-18.162-8.325-69.723-1.718-95.669"/><path fill="none" d="M422.736 309.019c-1.111 35.032-2.861 38.143-2.861 38.143.53 1.869.795 7.334.955 9.52 1.313 17.756-3.189 38.912-5.007 53.514-3.347 26.877-4.667 45.068-10.072 69.799-8.291 37.928-15.703 73.596-12.726 112.171.433 5.586-.276 11.59 5.56 18.768 5.816 7.153 33.697 10.189 48.316 15.441 3.437 1.236 1.87 6.677-1.78 6.749l-65.271.926c-5.598.109-10.217-4.314-10.379-9.91-.928-31.97.494-42.99-3.216-95.502-1.733-24.523-1.33-26.874-.715-48.643.507-17.942.067-40.569.843-58.384.791-18.162-8.325-69.723-1.718-95.669"/><path fill="#FFF" d="m585.877 313.465 31.006 9.722-16.82 17.631c-12.532-3.585-28.146-2.696-40.327-.255-12.179 2.444-27.877 13.908-37.169 21.861-9.295 7.954-24.847 9.883-31.915 5.347-7.071-4.539-9.114-8.695-25.165-10.091-16.053-1.395-45.657-1.335-45.657-1.335-2.334-7.073-.834-21.633.146-31.852.93-9.668 3.969-22.415 3.969-22.415 19.338 2.475 54.426 3.698 78.258 4.079 16.559.265 35.203-2.906 48.271-.953 6.104.911 18.714 1.789 25.403 4.759a66.428 66.428 0 0 0 10 3.502"/><path fill="none" d="m585.877 313.465 31.006 9.722-16.82 17.631c-12.532-3.585-28.146-2.696-40.327-.255-12.179 2.444-27.877 13.908-37.169 21.861-9.295 7.954-24.847 9.883-31.915 5.347-7.071-4.539-9.114-8.695-25.165-10.091-16.053-1.395-45.657-1.335-45.657-1.335-2.334-7.073-.834-21.633.146-31.852.93-9.668 3.969-22.415 3.969-22.415 19.338 2.475 54.426 3.698 78.258 4.079 16.559.265 35.203-2.906 48.271-.953 6.104.911 18.714 1.789 25.403 4.759a66.428 66.428 0 0 0 10 3.502z"/><path fill="#FFF" d="M88.22 356.734c4.691-1.958 37.024-3.763 61.153-2.27 24.126 1.493 106.228 8.33 126.725 8.862 20.495.532 76.247 1.542 103.057-1.097 26.811-2.636 40.674-5.885 40.674-5.885-3.066-14.722.893-41.288 4.115-54.265 0 0-6.559-.845-12.098-2.163s-22.498-9.938-38.021-11.463c-15.521-1.525-33.049 3.325-43.438 7.475-10.388 4.15-34.5 15.788-55.547 18.611-21.046 2.821-51.293 2.833-65.607 3.716-14.316.882-41.909 6.11-59.136 8.875-15.42 2.475-54.459 8.171-67.172 10.026-1.939.285-3.891-.05-5.672-.871-2.723-1.25-7.296-2.406-11.033 1.331-5.719 5.719-13.346 13.345-19.065 15.252-5.72 1.907-19.065 3.813-22.878 11.439-1.707 3.411-3.813 7.626 3.813 11.439s60.13-19.012 60.13-19.012"/><path fill="none" d="M88.22 356.734c4.691-1.958 37.024-3.763 61.153-2.27 24.126 1.493 106.228 8.33 126.725 8.862 20.495.532 76.247 1.542 103.057-1.097 26.811-2.636 40.674-5.885 40.674-5.885-3.066-14.722.893-41.288 4.115-54.265 0 0-6.559-.845-12.098-2.163s-22.498-9.938-38.021-11.463c-15.521-1.525-33.049 3.325-43.438 7.475-10.388 4.15-34.5 15.788-55.547 18.611-21.046 2.821-51.293 2.833-65.607 3.716-14.316.882-41.909 6.11-59.136 8.875-15.42 2.475-54.459 8.171-67.172 10.026-1.939.285-3.891-.05-5.672-.871-2.723-1.25-7.296-2.406-11.033 1.331-5.719 5.719-13.346 13.345-19.065 15.252-5.72 1.907-19.065 3.813-22.878 11.439-1.707 3.411-3.813 7.626 3.813 11.439s60.13-19.012 60.13-19.012z"/><path fill="none" d="M101.725 334.407c-.167 7.937 2.625 20.369 2.625 20.369M544.274 346.907c-5.333-10.465-.396-33.366 2.603-42.098"/><path fill="#FFF" d="M612.221 315.517c5.656-3.912 11.782-1.6 19.125-3.42 11.659-2.893 24.613 10.452 25.056 23.869.586 17.717-62.307 24.263-64.316 14.15-1.19-5.988 2.912-17.468 12.225-26.388 2.99-2.87 7.91-8.211 7.91-8.211"/><path fill="none" d="M612.221 315.517c5.656-3.912 11.782-1.6 19.125-3.42 11.659-2.893 24.613 10.452 25.056 23.869.586 17.717-62.307 24.263-64.316 14.15-1.19-5.988 2.912-17.468 12.225-26.388 2.99-2.87 7.91-8.211 7.91-8.211z"/><path fill="#100200" d="M649.722 344.004c-11.069.765-31.788-5.567-29.409-19.761 2.677-15.952-6.076-8.76-8.904-7.274-2.828 1.487-7.694 9.561-8.668 8.084-.975-1.482 5.063-23.703 20.808-27.248 15.741-3.545 24.388-.406 30.034 7.417 5.646 7.824 8.03 24.908 3.678 33.603-4.352 8.696-7.539 5.179-7.539 5.179"/><path fill="#100200" d="M633.732 303.062c-4.091-6.476-8.889-24.299 11.767-23.915 16.965.313 14.046-6.526 27.075-12.21 10.475-4.567 22.073 6.969 14.66 29.156-6.75 20.189-17.563 12.705-30.465 7.363-12.905-5.34-23.037-.394-23.037-.394"/><path fill="#FFF" d="M529.501 333.804s84.448 9.862 105.042 8.279c20.591-1.583 90.918-19.203 90.918-19.203 13.268-2.394 24.08.676 39.198-6.103 15.116-6.777 13.346-8.497 11.46-10.11-1.883-1.612-39.76-6.631-51.267 1.866-3.788 2.796-4.534 2.782-6.9 3.599l-87.094 7.855c-43.008-10.665-86.063-17.572-112.798-10.968"/><path fill="none" d="M529.501 333.804s84.448 9.862 105.042 8.279c20.591-1.583 90.918-19.203 90.918-19.203 13.268-2.394 24.08.676 39.198-6.103 15.116-6.777 13.346-8.497 11.46-10.11-1.883-1.612-39.76-6.631-51.267 1.866-3.788 2.796-4.534 2.782-6.9 3.599l-87.094 7.855c-43.008-10.665-86.063-17.572-112.798-10.968"/><path fill="#FFF" d="M368.828 580.077s10.387 5.401 23.569-1.278"/><path fill="none" d="M368.828 580.077s10.387 5.401 23.569-1.278"/></g></svg>