<svg xmlns="http://www.w3.org/2000/svg" width="800" height="900" xml:space="preserve"><g stroke="#000" stroke-width="5" stroke-miterlimit="10"><path fill="#FFF" d="m506.928 421.398 4.721 85.568c.002.04.002.081.002.123l-.118 8.928-.443 33.333c-.071 5.431-.145 10.861-.218 16.29-.063 4.824-1.249 10.268.92 14.826.71 1.493 2.132 2.4 3.63 3.102 3.808 1.778 15.011 2.187 22.19 3.688 4.76 1.001 16.688 3.627 21.036 6.349 1.521.948.779 3.315-1.012 3.292l-50.922-.577c-.23-.002-.832.133-1.062.133-5.78.027-8.603-2.822-9.479-7.115-3.188-15.613-9.35-41.038-10.604-75.92-.703-19.659-7.592-55.086-10.988-71.571"/><path fill="none" d="m506.928 421.398 4.721 85.568c.002.04.002.081.002.123l-.118 8.928-.443 33.333c-.071 5.431-.145 10.861-.218 16.29-.063 4.824-1.249 10.268.92 14.826.71 1.493 2.132 2.4 3.63 3.102 3.808 1.778 15.011 2.187 22.19 3.688 4.76 1.001 16.688 3.627 21.036 6.349 1.521.948.779 3.315-1.012 3.292l-50.922-.577c-.23-.002-.832.133-1.062.133-5.78.027-8.603-2.822-9.479-7.115-3.188-15.613-9.35-41.038-10.604-75.92-.703-19.659-7.592-55.086-10.988-71.571"/><path fill="#FFF" d="M413.82 379.608c22.867-7.613 56.767-17.963 70.192-11.247 13.425 6.711 24.268 10.029 29.498 29.602 1.001 3.757-9.42 1.565-10.167 4.644-.453 1.866 4.86.2 3.923 1.854-1.04 1.833-.475 16.448-.475 16.448-6.413 6.952-15.107 9.535-21.229 13.802-10.892 7.59-12.027 11.513-27.391 11.766s-28.356-6.023-45.397-6.26c-17.042-.237-29.672 2.813-29.672 2.813s-11.32-9.552-11.903-24.156c-.585-14.606-.496-25.963 3.583-34.908.001-.003 25.999-.017 39.038-4.358"/><path fill="none" d="M413.82 379.608c22.867-7.613 56.767-17.963 70.192-11.247 13.425 6.711 24.268 10.029 29.498 29.602 1.001 3.757-9.42 1.565-10.167 4.644-.453 1.866 4.86.2 3.923 1.854-1.04 1.833-.475 16.448-.475 16.448-6.413 6.952-15.107 9.535-21.229 13.802-10.892 7.59-12.027 11.513-27.391 11.766s-28.356-6.023-45.397-6.26c-17.042-.237-29.672 2.813-29.672 2.813s-11.32-9.552-11.903-24.156c-.585-14.606-.496-25.963 3.583-34.908.001-.003 25.999-.017 39.038-4.358z"/><path fill="#FFF" d="M332.963 388.685c-17.2-3.477-50.79.174-77.282 3.714-26.491 3.539-51.082-5.456-90.753-1.594-39.673 3.859-110.18 8.862-119.941 10.71-9.761 1.851-10.103 7.671-9.598 17.289.506 9.613 3.951 31.483 5.817 40.356 1.867 8.872 9.841 11.265 15.534 11.965 5.697.704 7.748-2.211 4.801-6.427-2.944-4.221-4.863-2.365-5.38-8.188-.516-5.816-.854-28.178 4.629-31.128 5.485-2.952 13.798-4.592 29.742-3.057 15.946 1.538 37.59 1.59 73.529 8.857 35.937 7.272 151.185 19.257 156.248 17.063 5.061-2.192 12.654-59.56 12.654-59.56"/><path fill="none" d="M332.963 388.685c-17.2-3.477-50.79.174-77.282 3.714-26.491 3.539-51.082-5.456-90.753-1.594-39.673 3.859-110.18 8.862-119.941 10.71-9.761 1.851-10.103 7.671-9.598 17.289.506 9.613 3.951 31.483 5.817 40.356 1.867 8.872 9.841 11.265 15.534 11.965 5.697.704 7.748-2.211 4.801-6.427-2.944-4.221-4.863-2.365-5.38-8.188-.516-5.816-.854-28.178 4.629-31.128 5.485-2.952 13.798-4.592 29.742-3.057 15.946 1.538 37.59 1.59 73.529 8.857 35.937 7.272 151.185 19.257 156.248 17.063 5.061-2.192 12.654-59.56 12.654-59.56z"/><path fill="#FFF" d="M310.403 401.471c8.807-14.052 22.645-20.728 43.51-19.117l20.867 1.609s-5.331 18.615-4.324 27.501c1.006 8.887 1.876 19.082 12.647 31.563 0 0-15.168 1.246-17.806 15.297-2.638 14.054-3.566 96.649-8.376 114.875-4.809 18.223-12.996 21.474-24.215 23.77-11.22 2.3-72.26-21.649-98.501-30.991-26.242-9.344-56.22-24.538-65.087-13.913-4.26 5.104-4.989 29.005-.85 35.403 4.141 6.4 7.168 3.132 7.467 7.803.302 4.674-13.019 4.557-17.144.199-4.042-4.269-4.728-7.828-7.572-17.462-4.322-14.647-8.042-18.566-9.632-33.001-.257-2.335-.249-4.716.225-7.018.365-1.787 1.023-3.794 2.195-5.414 4.303-5.948 12.141-4.121 22.27-3.813 10.128.312 53.326.312 75.429.312 22.105 0 55.366-.382 66.652 5.735 0 0-6.026-58.808-5.713-89.938.314-31.129 7.958-43.4 7.958-43.4"/><path fill="none" d="M310.403 401.471c8.807-14.052 22.645-20.728 43.51-19.117l20.867 1.609s-5.331 18.615-4.324 27.501c1.006 8.887 1.876 19.082 12.647 31.563 0 0-15.168 1.246-17.806 15.297-2.638 14.054-3.566 96.649-8.376 114.875-4.809 18.223-12.996 21.474-24.215 23.77-11.22 2.3-72.26-21.649-98.501-30.991-26.242-9.344-56.22-24.538-65.087-13.913-4.26 5.104-4.989 29.005-.85 35.403 4.141 6.4 7.168 3.132 7.467 7.803.302 4.674-13.019 4.557-17.144.199-4.042-4.269-4.728-7.828-7.572-17.462-4.322-14.647-8.042-18.566-9.632-33.001-.257-2.335-.249-4.716.225-7.018.365-1.787 1.023-3.794 2.195-5.414 4.303-5.948 12.141-4.121 22.27-3.813 10.128.312 53.326.312 75.429.312 22.105 0 55.366-.382 66.652 5.735 0 0-6.026-58.808-5.713-89.938.314-31.129 7.958-43.4 7.958-43.4zM506.928 421.398l-.625-11.341M506.928 421.398l-.625-11.341M103.291 396.721s-3.186 13.897 0 26.078"/><path fill="none" d="M204.047 529.044s-4.841 9.568-3.652 24.199"/><path d="M549.093 352.253c6.002-6.03 15.511-24.191-6.968-28.769-18.469-3.766-13.652-10.475-26.398-19.784-10.253-7.486-25.616 2.219-22.94 28.06 2.433 23.519 15.964 18.021 31.243 15.351 15.278-2.669 25.063 5.142 25.063 5.142"/><path fill="#FFF" d="M522.902 382.503c2.751-6.794 9.564-8.32 15.038-14.237 8.7-9.402 28.048-5.094 36.297 6.605 10.89 15.443-41.319 58.079-49.027 50.249-4.567-4.644-7.63-17.271-4.552-30.669.988-4.307 2.244-11.948 2.244-11.948"/><path fill="none" d="M522.902 382.503c2.751-6.794 9.564-8.32 15.038-14.237 8.7-9.402 28.048-5.094 36.297 6.605 10.89 15.443-41.319 58.079-49.027 50.249-4.567-4.644-7.63-17.271-4.552-30.669.988-4.307 2.244-11.948 2.244-11.948z"/><path d="M572.988 385.942c-9.413 7.158-31.583 13.644-37.77-.397-6.952-15.78-10.539-4.25-12.189-1.27-1.647 2.978-1.263 13.022-2.996 12.273-1.733-.748-9.356-24.083 2.595-36.453 11.953-12.373 21.492-14.637 31.104-10.969 9.609 3.664 21.73 17.492 22.942 27.788 1.212 10.295-3.686 9.028-3.686 9.028"/><path fill="#FFF" d="M489.374 409.289s101.84 11.797 123.712 10.116c21.871-1.682 96.563-20.396 96.563-20.396 14.089-2.543 25.574.716 41.634-6.482 16.053-7.197 14.174-9.022 12.171-10.737-2.003-1.712-42.229-7.043-54.449 1.981-4.023 2.971-4.814 2.954-7.33 3.82l-92.501 8.345-112.484-21.117"/><path fill="none" d="M489.374 409.289s101.84 11.797 123.712 10.116c21.871-1.682 96.563-20.396 96.563-20.396 14.089-2.543 25.574.716 41.634-6.482 16.053-7.197 14.174-9.022 12.171-10.737-2.003-1.712-42.229-7.043-54.449 1.981-4.023 2.971-4.814 2.954-7.33 3.82l-92.501 8.345-112.484-21.117"/><path fill="none" d="M461.171 367.068c7.751 17.819 36.467 17.761 52.927 11.02"/></g></svg>