<svg xmlns="http://www.w3.org/2000/svg" width="800" height="900" xml:space="preserve"><g stroke="#000" stroke-width="5" stroke-miterlimit="10"><path fill="#FFF" d="M373.209 551.875c-10.637-15.614-28.505-57.135-27.419-78.36 1.086-21.227 1.237-29.598-4.042-38.793-5.282-9.2-56.891-22.531-73.887-31.386-16.996-8.849-26.342-37.538-26.342-37.538l-31.499 5.722s24.242 23.631 17.034 58.093c-7.516 35.947 21.058 74.57 45.079 109.161 22.605 32.548 27.336 55.374 27.336 55.374l58.702 29.205 15.038-71.478z"/><path fill="none" d="M373.209 551.875c-10.637-15.614-28.505-57.135-27.419-78.36 1.086-21.227 1.237-29.598-4.042-38.793-5.282-9.2-56.891-22.531-73.887-31.386-16.996-8.849-26.342-37.538-26.342-37.538l-31.499 5.722s24.242 23.631 17.034 58.093c-7.516 35.947 21.058 74.57 45.079 109.161 22.605 32.548 27.336 55.374 27.336 55.374l58.702 29.205 15.038-71.478z"/><path fill="#FFF" d="M299.469 594.146c12.68 23.362 21.966 50.304 50.212 58.756 23.873 7.138 48.985-4.121 68.705-17.026 8.079-5.287 15.733-11.206 23.043-17.512 16.677-14.382 69.425-70.271 98.898-87.232 40.094-23.07 153.208-131.006 209.956-177.353 7.327-5.994 8.729-19.355 1.528-25.518-33.303-28.508-35.331-58.988-62.759-58.485-4.928.093-11.131 4.49-8.978 8.924 2.859 5.78 10.814 9.249 19.979 20.99 5.306 6.799 4.992 18.324 6.853 31.18-1.982 17.914-27.653 39.935-34.019 44.541-23.283 16.9-49.387 36.321-71.53 47.813-61.952 32.099-82.497 47.357-143.668 80.122-48.056 25.733-61.816 31.015-84.481 48.527-3.437 2.658-6.074 7.447-9.208 10.571-10.602 10.571-24.786 15.03-38.288 20.687-1.85.774-26.409 9.892-26.243 11.015"/><path fill="none" d="M299.469 594.146c12.68 23.362 21.966 50.304 50.212 58.756 23.873 7.138 48.985-4.121 68.705-17.026 8.079-5.287 15.733-11.206 23.043-17.512 16.677-14.382 69.425-70.271 98.898-87.232 40.094-23.07 153.208-131.006 209.956-177.353 7.327-5.994 8.729-19.355 1.528-25.518-33.303-28.508-35.331-58.988-62.759-58.485-4.928.093-11.131 4.49-8.978 8.924 2.859 5.78 10.814 9.249 19.979 20.99 5.306 6.799 4.992 18.324 6.853 31.18-1.982 17.914-27.653 39.935-34.019 44.541-23.283 16.9-49.387 36.321-71.53 47.813-61.952 32.099-82.497 47.357-143.668 80.122-48.056 25.733-61.816 31.015-84.481 48.527-3.437 2.658-6.074 7.447-9.208 10.571-10.602 10.571-24.786 15.03-38.288 20.687-1.85.774-26.409 9.892-26.243 11.015zM271.604 405.121s-22.2 7.631-20.713 34.492c1.864 33.587 60.613 48.598 69.627-4.602"/><path fill="#FFF" d="M281.646 463.305s147.169 13.909 174.13 11.002c26.962-2.907 118.693-29.686 118.693-29.686 17.33-3.769 31.601.086 51.233-9.794 19.637-9.885 17.266-12.189 14.752-14.347-2.521-2.158-52.327-7.747-67.178 4.376-4.894 3.991-5.871 3.996-8.954 5.206l-113.995 13.905-164.657-33.345"/><path fill="none" d="M281.646 463.305s147.169 13.909 174.13 11.002c26.962-2.907 118.693-29.686 118.693-29.686 17.33-3.769 31.601.086 51.233-9.794 19.637-9.885 17.266-12.189 14.752-14.347-2.521-2.158-52.327-7.747-67.178 4.376-4.894 3.991-5.871 3.996-8.954 5.206l-113.995 13.905-164.657-33.345"/><path fill="#100200" d="M198.605 320.524c-11.625-13.836-47.448-40.252-69.502 4.279-14 28.267-38.582 68.219-67.284 71.371-28.699 3.146 13.867 55.694 50.683 45.547 36.816-10.146 62.251-44.053 61.117-76.93-1.132-32.88 24.986-44.267 24.986-44.267"/><path fill="#FFF" d="M219.905 366.713c-7.581-6.371-6.693-15.756-12.008-25.261-8.441-15.097 5.177-38.149 23.644-43.859 24.38-7.538 57.341 77.327 44.063 83.955-7.865 3.927-25.369 2.588-41.291-6.957-5.119-3.071-14.408-7.878-14.408-7.878"/><path fill="none" d="M219.905 366.713c-7.581-6.371-6.693-15.756-12.008-25.261-8.441-15.097 5.177-38.149 23.644-43.859 24.38-7.538 57.341 77.327 44.063 83.955-7.865 3.927-25.369 2.588-41.291-6.957-5.119-3.071-14.408-7.878-14.408-7.878z"/><path fill="#100200" d="M245.239 303.821c5.262 15.082 4.336 46.263-16.279 48.344-23.176 2.339-9.865 11.764-6.728 15.127 3.139 3.363 16.201 7.06 14.516 8.974-1.685 1.915-34.842 1.962-45.738-18.558-10.899-20.517-9.822-33.715-1.097-44.528 8.72-10.813 31.542-20.608 45.27-17.864 13.731 2.742 10.056 8.505 10.056 8.505"/><path fill="none" d="M226.332 433.898c12.136-1.277 17.476-5.501 21.418-12.723 3.944-7.219 11.266-17.763 18.769-18.595M696.146 352.643l24.94 25.914"/></g></svg>