<svg width="800" height="900" fill="none" xmlns="http://www.w3.org/2000/svg"><path d="M413.68 684.949s-70.654 6.674-99.098-3.67c-40.373-14.681-187.185-201.866-183.514-234.897 3.67-33.031 29.362-40.372 29.362-40.372l161.492-95.427s117.449-99.098 135.8-91.758c18.352 7.341-36.702 40.373-33.032 55.055 3.67 14.681-14.681 29.362-22.021 29.362-7.341 0-25.692 3.67-36.703 18.352-11.011 14.681-84.416 106.439-143.141 124.79 0 0 73.406 62.393 88.087 77.074 0 0 62.394-11.011 110.108 47.714 47.714 58.723-7.34 113.777-7.34 113.777Z" fill="#fff" stroke="#000" stroke-width="5" stroke-miterlimit="10"/><path d="M413.68 684.949s-70.654 6.674-99.098-3.67c-40.373-14.681-187.185-201.866-183.514-234.897 3.67-33.031 29.362-40.372 29.362-40.372l161.492-95.427s117.449-99.098 135.8-91.758c18.352 7.341-36.702 40.373-33.032 55.055 3.67 14.681-14.681 29.362-22.021 29.362-7.341 0-25.692 3.67-36.703 18.352-11.011 14.681-84.416 106.439-143.141 124.79 0 0 73.406 62.393 88.087 77.074 0 0 62.394-11.011 110.108 47.714 47.714 58.723-7.34 113.777-7.34 113.777Z" stroke="#000" stroke-width="5" stroke-miterlimit="10"/><path d="M598.458 440.798c-11.032-4.678-13.553-16.855-23.184-26.455-15.291-15.259-8.444-50.191 10.456-65.47 24.954-20.173 94.41 71.946 81.772 86.104-7.492 8.384-27.932 14.383-49.671 9.387-6.986-1.606-19.373-3.566-19.373-3.566Z" fill="#fff" stroke="#000" stroke-width="5" stroke-miterlimit="10"/><path d="M598.458 440.798c-11.032-4.678-13.553-16.855-23.184-26.455-15.291-15.259-8.444-50.191 10.456-65.47 24.954-20.173 94.41 71.946 81.772 86.104-7.492 8.384-27.932 14.383-49.671 9.387-6.986-1.606-19.373-3.566-19.373-3.566Z" stroke="#000" stroke-width="5" stroke-miterlimit="10"/><path d="M599.451 351.421c12.634 12.9 9.366 40.764.092 46.804-9.269 6.046-14.982 11.351-13.419 15.029 1.559 3.68 6.02 7.881 8.616 5.939 2.599-1.938 6.609-8.334 10.899-3.66 4.287 4.677 7.63 24.072 1.379 36.657-6.254 12.579-25.229 16.515-42.212 5.3-16.975-11.202-22.602-44.455-17.9-69.767 2.27-12.204 8.467-23.652 16.097-30.699 12.59-11.621 24.049-18.263 36.448-5.603Z" fill="#100200" stroke="#000" stroke-width="5" stroke-miterlimit="10"/><path d="M557.221 413.799c-2.107 12.378-1.19 26.517-15.327 37.269-14.138 10.749-24.139 2.353-31.784 11.414-7.645 9.057-14.416 42.66-29.514 51.944-15.101 9.287-19.186-4.705-35.91 5.172-14.313 8.444.067 37.208-33.284 52.204-15.995 7.191-65.751-101.775-44.304-111.657 21.446-9.88 37.138 3.366 48.468-3.767 11.333-7.126 8.38-27.12 24.152-35.636 22.113-11.939 35.379 12.377 51.839 3.323 13.538-7.445 11.696-18.417 27.89-26.643 16.196-8.232 37.774 16.377 37.774 16.377Z" fill="#100200" stroke="#000" stroke-width="5" stroke-miterlimit="10"/><path d="M603.576 423.317c-2.082 12.936-8.083 25.004-17.319 34.294-6.731 6.77-15.034 13.333-23.936 16.297-22.022 7.341-58.725 62.394-66.065 73.404-7.34 11.011-47.714 36.703-73.405 25.693 0 0 23.857 53.219-12.847 111.943l109.847-1.742a30.698 30.698 0 0 0 11.516-2.442c20.789-8.818 91.319-41.449 100.689-82.066 11.01-47.714-7.341-73.406 14.681-132.131 22.021-58.722 25.692-143.139 22.021-154.15-3.67-11.012-132.13-80.746-132.13-80.746s-40.373-25.693-58.724-18.352c-18.351 7.341-29.362 11.011-14.681 22.022s66.065 22.022 66.065 22.022l89.22 68.628a11.875 11.875 0 0 1 4.28 12.33c-4.481 17.677-15.506 62.015-19.212 84.996Z" fill="#fff" stroke="#000" stroke-width="5" stroke-miterlimit="10"/><path d="M603.576 423.317c-2.082 12.936-8.083 25.004-17.319 34.294-6.731 6.77-15.034 13.333-23.936 16.297-22.022 7.341-58.725 62.394-66.065 73.404-7.34 11.011-47.714 36.703-73.405 25.693 0 0 23.857 53.219-12.847 111.943l109.847-1.742a30.698 30.698 0 0 0 11.516-2.442c20.789-8.818 91.319-41.449 100.689-82.066 11.01-47.714-7.341-73.406 14.681-132.131 22.021-58.722 25.692-143.139 22.021-154.15-3.67-11.012-132.13-80.746-132.13-80.746s-40.373-25.693-58.724-18.352c-18.351 7.341-29.362 11.011-14.681 22.022s66.065 22.022 66.065 22.022l89.22 68.628a11.875 11.875 0 0 1 4.28 12.33c-4.481 17.677-15.506 62.015-19.212 84.996Z" stroke="#000" stroke-width="5" stroke-miterlimit="10"/><path d="M325.824 307.315s.452 27.291 27.634 29.957Z" fill="#fff"/><path d="M325.824 307.315s.452 27.291 27.634 29.957" stroke="#000" stroke-width="5" stroke-miterlimit="10"/><path d="M325.824 307.315s.452 27.291 27.634 29.957" stroke="#000" stroke-width="5" stroke-miterlimit="10"/><path d="M545.32 269.692s19.177-4.007 17.173-23.767Z" fill="#fff"/><path d="M545.32 269.692s19.177-4.007 17.173-23.767" stroke="#000" stroke-width="5" stroke-miterlimit="10"/><path d="M545.32 269.692s19.177-4.007 17.173-23.767" stroke="#000" stroke-width="5" stroke-miterlimit="10"/></svg>