<svg xmlns="http://www.w3.org/2000/svg" width="800" height="900" xml:space="preserve"><g stroke="#000" stroke-width="5" stroke-miterlimit="10"><path fill="#FFF" d="M600.734 308.155c.61 47.908 20.18 112.508 27.408 165.967 2.137 15.811-3.947 19.429-.113 30.21 2.326 6.543 8.545 10.865 15.485 10.839 16.505-.058 59.969.954 87.58.29 5.006-.121 13.466-7.79 8.782-9.552-27.113-10.201-41.729-13.551-52.421-16.311-15.681-4.045-28.653-20.684-28.798-36.873-.519-57.575 2.542-138.542-18.693-184.075-3.181-6.818-10.116-10.996-17.638-10.707-12.765.486-25.471 2.285-37.911 5.226-30.096 7.115-58.138 20.743-84.55 36.568-11.479 6.878-22.684 14.193-33.917 21.466-8.112 5.25-15.852 11.543-24.633 15.623-8.097 3.765-16.769 6.292-24.486 10.851-24.365 14.387-50.793 24.792-78.548 30.605-23.951 5.015-49.192 4.373-72.519 11.493-27.696 8.45-36.399 38.333-54.517 57.959-11.145 12.073-26.072 21.646-41.705 27.832-2.237.886-4.332 2.159-5.981 3.913-6.058 6.433-13.428 4.322-18.736 13.176-2.711-9.027-1.669.515-.835 6.963.47 3.663-2.811 1.055-4.52 4.328-.905 1.733-.862-.67 4.821-1.414 39.501-5.174 39.501 11.029 89.574 18.922 21.47 3.79 47.631-26.871 68.117-31.892 2.738-.654 5.554-1.501 8.511-2.56 31.992-11.298 67.727-26.433 101.039-41.793 3.595-1.654 13.846-5.78 22.667-8.727a21.53 21.53 0 0 1 1.785-.505c13.607-3.159 27.544-5.008 40.784-9.68 16.477-5.815 28.552-15.766 39.645-29.003 10.227-12.209 19.863-25.38 33.572-33.962 17.287-10.823 35.254-20.618 51.727-32.698"/><path fill="none" d="M600.734 308.155c.61 47.908 20.18 112.508 27.408 165.967 2.137 15.811-3.947 19.429-.113 30.21 2.326 6.543 8.545 10.865 15.485 10.839 16.505-.058 59.969.954 87.58.29 5.006-.121 13.466-7.79 8.782-9.552-27.113-10.201-41.729-13.551-52.421-16.311-15.681-4.045-28.653-20.684-28.798-36.873-.519-57.575 2.542-138.542-18.693-184.075-3.181-6.818-10.116-10.996-17.638-10.707-12.765.486-25.471 2.285-37.911 5.226-30.096 7.115-58.138 20.743-84.55 36.568-11.479 6.878-22.684 14.193-33.917 21.466-8.112 5.25-15.852 11.543-24.633 15.623-8.097 3.765-16.769 6.292-24.486 10.851-24.365 14.387-50.793 24.792-78.548 30.605-23.951 5.015-49.192 4.373-72.519 11.493-27.696 8.45-36.399 38.333-54.517 57.959-11.145 12.073-26.072 21.646-41.705 27.832-2.237.886-4.332 2.159-5.981 3.913-6.058 6.433-13.428 4.322-18.736 13.176-2.711-9.027-1.669.515-.835 6.963.47 3.663-2.811 1.055-4.52 4.328-.905 1.733-.862-.67 4.821-1.414 39.501-5.174 39.501 11.029 89.574 18.922 21.47 3.79 47.631-26.871 68.117-31.892 2.738-.654 5.554-1.501 8.511-2.56 31.992-11.298 67.727-26.433 101.039-41.793 3.595-1.654 13.846-5.78 22.667-8.727a21.53 21.53 0 0 1 1.785-.505c13.607-3.159 27.544-5.008 40.784-9.68 16.477-5.815 28.552-15.766 39.645-29.003 10.227-12.209 19.863-25.38 33.572-33.962 17.287-10.823 35.254-20.618 51.727-32.698"/><path fill="#FFF" d="M411.066 350.985c25.001 22.485 20.777 59.617 19.328 86.813"/><path fill="none" d="M411.066 350.985c25.001 22.485 20.777 59.617 19.328 86.813"/><path fill="#FFF" d="M621.503 435.424s27.166-.91 37.071-9.259"/><path fill="none" d="M621.503 435.424s27.166-.91 37.071-9.259"/><path fill="#FFF" d="M206.893 499.458c15.38-29.442 61.065-42.27 98.311-22.016 21.995 11.286 61.67 5.459 107.007 9.113 23.436 1.89 46.313 4.373 69.538 7.988 28.921 4.502 33.502-4.127 54.238-3.938 27.847.169 53.969 13.111 48.757 18.201-6.521 6.366-24.716 9.837-34.168 9.605-7.788-.19-39.503-3.824-46.35-3.613l-83.025 2.827s-157.473 4.33-203.541 3.8c-10.711-.124-13.928-12.292-11.013-21.327l.246-.64z"/><path fill="none" d="M206.893 499.458c15.38-29.442 61.065-42.27 98.311-22.016 21.995 11.286 61.67 5.459 107.007 9.113 23.436 1.89 46.313 4.373 69.538 7.988 28.921 4.502 33.502-4.127 54.238-3.938 27.847.169 53.969 13.111 48.757 18.201-6.521 6.366-24.716 9.837-34.168 9.605-7.788-.19-39.503-3.824-46.35-3.613l-83.025 2.827s-157.473 4.33-203.541 3.8c-10.711-.124-13.928-12.292-11.013-21.327l.246-.64zM-2 428.601v-.027"/><path fill="#FFF" d="M160.137 502.417c-7.942 5.599-15.412 4.679-25.763 7.342-16.436 4.23-34.901-14.457-35.695-33.408-1.048-25.023 87.724-35.057 90.69-20.798 1.564 7.513-4.197 19.686-15.048 30.819-3.43 3.521-6.786 7.12-9.921 10.907l-4.263 5.138z"/><path fill="none" d="M160.137 502.417c-7.942 5.599-15.412 4.679-25.763 7.342-16.436 4.23-34.901-14.457-35.695-33.408-1.048-25.023 87.724-35.057 90.69-20.798 1.564 7.513-4.197 19.686-15.048 30.819-3.43 3.521-6.786 7.12-9.921 10.907l-4.263 5.138z"/><path d="M109.473 461.145c13.978-.98 27.057 15.029 25.101 23.579-1.954 8.554-2.314 14.618.528 15.556 2.84.931 7.584.402 8.004-2.115.416-2.521-.762-8.131 4.143-8.315 4.901-.185 17.153 7.627 20.389 17.691 3.229 10.063-5.288 23.308-20.792 27.723-15.503 4.412-36.45-9.041-47.36-24.61-5.263-7.512-7.919-16.969-7.417-25.055.828-13.339 3.685-23.49 17.404-24.454"/><path d="M125.743 641.331c10.835-1.103 23.303-6.419 21.615-24.483-1.278-13.675-18.563-33.093-20.051-41.875-1.491-8.775 8.65-11.371 9.479-24.969.831-13.598-8.088-19.23-14.399-25.988 0 0-25.763 2.751-29.156 16.531-3.386 13.784 4.11 17.442 1.616 29.212-3.033 14.313-24.359 11.966-28.569 31.098-3 13.642.479 24.778 8.903 30.808 14.046 10.052 31.184 11.642 50.562 9.666"/><path fill="none" d="M223.676 431.342s13.344 2.542 8.426 17.479c-2.914 8.848-41.951 31.321-32.512 64.33"/></g></svg>