<svg width="800" height="900" fill="none" xmlns="http://www.w3.org/2000/svg"><path d="M468.385 394.077c-6.513-2.057-14.083-3.687-22.338-5.003 0 0-38.944-6.766-37.059-42.701.343-6.862 0-9.328 3.885-18.448M385.068 667.071s-6.259 13.283-3.497 25.082M335.266 623.747c-1.719-17.332-4.353-47.282-7.589-61.498 0 0-1.563-4.924-2.714-10.184-3.814-16.96-7.968-59.973-6.382-82.99M410.93 667.798s6.258 13.278 3.496 25.082" stroke="#000" stroke-width="5" stroke-miterlimit="10"/><path d="M651.38 644.501c-5.713-14.294-39.992-22.87-71.415-25.729-31.422-2.858-79.984 0-97.124-11.435-17.14-11.434-19.997-51.458-19.997-51.458L400 544.443l-62.846 11.434s-2.855 40.025-19.995 51.459c-17.14 11.435-65.702 8.576-97.125 11.435-31.422 2.859-65.701 11.435-71.414 25.728-5.713 14.295 5.713 31.448 34.279 40.024 28.565 8.577 119.977 14.296 142.83 14.296 42.849 0 74.271-8.576 74.271-8.576s31.422 8.576 74.272 8.576c22.852 0 114.263-5.718 142.83-14.296 28.565-8.573 39.991-25.727 34.278-40.022Z" fill="#fff" stroke="#000" stroke-width="5" stroke-miterlimit="10"/><path d="M651.38 644.501c-5.713-14.294-39.992-22.87-71.415-25.729-31.422-2.858-79.984 0-97.124-11.435-17.14-11.434-19.997-51.458-19.997-51.458L400 544.443l-62.846 11.434s-2.855 40.025-19.995 51.459c-17.14 11.435-65.702 8.576-97.125 11.435-31.422 2.859-65.701 11.435-71.414 25.728-5.713 14.295 5.713 31.448 34.279 40.024 28.565 8.577 119.977 14.296 142.83 14.296 42.849 0 74.271-8.576 74.271-8.576s31.422 8.576 74.272 8.576c22.852 0 114.263-5.718 142.83-14.296 28.565-8.573 39.991-25.727 34.278-40.022Z" stroke="#000" stroke-width="5" stroke-miterlimit="10"/><path d="M574.253 635.926c-51.418-2.859-79.984 14.295-102.837 22.87-22.853 8.576-29.326 11.135-42.848 5.718-28.567-11.435-31.423 0-28.567 11.434 2.857 11.435 14.046 17.154 31.422 17.154h42.85c34.279 0 54.275 2.858 79.985 0" fill="#fff"/><path d="M574.253 635.926c-51.418-2.859-79.984 14.295-102.837 22.87-22.853 8.576-29.326 11.135-42.848 5.718-28.567-11.435-31.423 0-28.567 11.434 2.857 11.435 14.046 17.154 31.422 17.154h42.85c34.279 0 54.275 2.858 79.985 0" stroke="#000" stroke-width="5" stroke-miterlimit="10"/><path d="M574.253 635.926c-51.418-2.859-79.984 14.295-102.837 22.87-22.853 8.576-29.326 11.135-42.848 5.718-28.567-11.435-31.423 0-28.567 11.434 2.857 11.435 14.046 17.154 31.422 17.154h42.85c34.279 0 54.275 2.858 79.985 0" stroke="#000" stroke-width="5" stroke-miterlimit="10"/><path d="M225.434 635.926c51.419-2.859 79.984 14.295 102.837 22.87 22.852 8.576 30.451 13.368 42.85 5.718 23.167-14.295 31.422 0 28.565 11.434-2.856 11.435-14.047 17.154-31.423 17.154h-42.849c-34.278 0-54.275 2.858-79.984 0" fill="#fff"/><path d="M225.434 635.926c51.419-2.859 79.984 14.295 102.837 22.87 22.852 8.576 30.451 13.368 42.85 5.718 23.167-14.295 31.422 0 28.565 11.434-2.856 11.435-14.047 17.154-31.423 17.154h-42.849c-34.278 0-54.275 2.858-79.984 0" stroke="#000" stroke-width="5" stroke-miterlimit="10"/><path d="M225.434 635.926c51.419-2.859 79.984 14.295 102.837 22.87 22.852 8.576 30.451 13.368 42.85 5.718 23.167-14.295 31.422 0 28.565 11.434-2.856 11.435-14.047 17.154-31.423 17.154h-42.849c-34.278 0-54.275 2.858-79.984 0" stroke="#000" stroke-width="5" stroke-miterlimit="10"/><path d="M459.805 435.223c-10.546-30.783-5.303-57.333-5.303-57.333s-12.155-3.224-26.219-14.217c-14.06-10.994-10.55-48.082-10.55-48.082s-.729.148-17.864.148c-17.137 0-18.039-.148-18.039-.148s3.683 37.088-10.378 48.082c-14.063 10.992-26.215 14.217-26.215 14.217s5.242 26.55-5.303 57.333c0 0 9.843 65.212-3.34 120.619 0 0 27.683 10.994 63.276 10.994s63.274-10.994 63.274-10.994c-13.182-55.409-3.339-120.619-3.339-120.619Z" fill="#fff" stroke="#000" stroke-width="5" stroke-miterlimit="10"/><path d="M459.805 435.223c-10.546-30.783-5.303-57.333-5.303-57.333s-12.155-3.224-26.219-14.217c-14.06-10.994-10.55-48.082-10.55-48.082s-.729.148-17.864.148c-17.137 0-18.039-.148-18.039-.148s3.683 37.088-10.378 48.082c-14.063 10.992-26.215 14.217-26.215 14.217s5.242 26.55-5.303 57.333c0 0 9.843 65.212-3.34 120.619 0 0 27.683 10.994 63.276 10.994s63.274-10.994 63.274-10.994c-13.182-55.409-3.339-120.619-3.339-120.619Z" stroke="#000" stroke-width="5" stroke-miterlimit="10"/><path d="M300.4 550.279c3.322 23.077 28.383 100.968 28.383 100.968 3.682 14.769 1.028 27.176 9.783 43.698 8.756 16.521 10.559 14.399 12.232 12.153 1.674-2.244 4.507-45.274-5.914-57.6-3.428-4.06-3.47-4.902-4.565-7.509l-15.328-97.51 21.008-123.551c5.44-28.002 5.44-45.155 5.44-45.155-34.279 8.576-38.779 48.846-45.706 80.046-5.712 25.731-5.333 94.46-5.333 94.46Z" fill="#fff" stroke="#000" stroke-width="5" stroke-miterlimit="10"/><path d="M300.4 550.279c3.322 23.077 28.383 100.968 28.383 100.968 3.682 14.769 1.028 27.176 9.783 43.698 8.756 16.521 10.559 14.399 12.232 12.153 1.674-2.244 4.507-45.274-5.914-57.6-3.428-4.06-3.47-4.902-4.565-7.509l-15.328-97.51 21.008-123.551c5.44-28.002 5.44-45.155 5.44-45.155-34.279 8.576-38.779 48.846-45.706 80.046-5.712 25.731-5.333 94.46-5.333 94.46Z" stroke="#000" stroke-width="5" stroke-miterlimit="10"/><path d="M500.993 550.279c-3.322 23.077-28.382 100.968-28.382 100.968-3.682 14.769-1.03 27.176-9.784 43.698-8.755 16.521-10.56 14.399-12.235 12.153-1.674-2.244-4.501-45.274 5.916-57.6 3.431-4.06 3.471-4.902 4.564-7.509l15.33-97.51-21.009-123.551c-5.437-28.002-5.437-45.155-5.437-45.155 34.278 8.576 38.776 48.846 45.706 80.046 5.712 25.731 5.331 94.46 5.331 94.46Z" fill="#fff" stroke="#000" stroke-width="5" stroke-miterlimit="10"/><path d="M500.993 550.279c-3.322 23.077-28.382 100.968-28.382 100.968-3.682 14.769-1.03 27.176-9.784 43.698-8.755 16.521-10.56 14.399-12.235 12.153-1.674-2.244-4.501-45.274 5.916-57.6 3.431-4.06 3.471-4.902 4.564-7.509l15.33-97.51-21.009-123.551c-5.437-28.002-5.437-45.155-5.437-45.155 34.278 8.576 38.776 48.846 45.706 80.046 5.712 25.731 5.331 94.46 5.331 94.46Z" stroke="#000" stroke-width="5" stroke-miterlimit="10"/><path d="M377.323 235.958c-3.759-19.843-24.206-65.183-70.024-33.851-29.082 19.889-74.861 45.381-104.531 32.751-29.672-12.633-16.94 61.862 24.461 72.114 41.396 10.248 84.695-8.88 101.567-41.543 16.868-32.661 48.527-29.471 48.527-29.471Z" fill="#000" stroke="#000" stroke-width="5" stroke-miterlimit="10"/><path d="M381.142 305.107c-5.872-9.377-1.715-19.055-4.104-30.989-3.798-18.953 18.571-38.804 40.158-38.542 28.497.345 34.448 101.916 18.061 104.414-9.707 1.479-27.849-5.948-41.5-21.564-4.391-5.021-12.615-13.319-12.615-13.319Z" fill="#fff" stroke="#000" stroke-width="5" stroke-miterlimit="10"/><path d="M381.142 305.107c-5.872-9.377-1.715-19.055-4.104-30.989-3.798-18.953 18.571-38.804 40.158-38.542 28.497.345 34.448 101.916 18.061 104.414-9.707 1.479-27.849-5.948-41.5-21.564-4.391-5.021-12.615-13.319-12.615-13.319Z" stroke="#000" stroke-width="5" stroke-miterlimit="10"/><path d="M429.62 246.898c.428 17.849-11.248 50.697-33.871 45.839-25.434-5.46-14.514 9.13-12.331 13.783 2.18 4.654 14.797 13.067 12.349 14.524-2.449 1.459-37.702-9.864-42.252-35.425-4.551-25.561 1.116-39.231 14.093-47.742 12.974-8.509 40.587-11.101 54.238-3.474 13.656 7.628 7.774 12.495 7.774 12.495Z" fill="#000" stroke="#000" stroke-width="5" stroke-miterlimit="10"/><path d="M359.453 371.667c11.983 15.543 26.266 18.403 40.548 18.403 14.283 0 32.012-5.357 40.289-18.403M476.773 656.686c-2.461 16.529-.311 30.622 2.898 36.439M322.911 656.686c2.857 13.669-2.856 36.539-2.856 36.539" stroke="#000" stroke-width="5" stroke-miterlimit="10"/></svg>