<svg xmlns="http://www.w3.org/2000/svg" width="800" height="900" xml:space="preserve"><g stroke="#000" stroke-width="5" stroke-miterlimit="10"><path fill="#FFF" d="m609.465 313.211 45.945-61.259s-30.631-51.049-86.785-91.889-112.309-81.68-163.358-96.995-71.47-5.105-107.205 20.42c-35.735 25.525-117.414 51.05-148.044 61.259-30.63 10.21 10.21 66.365 10.21 66.365s30.63-25.525 61.259-20.42c30.63 5.104 76.575 51.049 107.206 61.259 30.63 10.21 45.943 10.21 96.995 15.315 51.05 5.105 86.783 30.63 96.992 51.05l86.785-5.105z"/><path fill="none" d="m609.465 313.211 45.945-61.259s-30.631-51.049-86.785-91.889-112.309-81.68-163.358-96.995-71.47-5.105-107.205 20.42c-35.735 25.525-117.414 51.05-148.044 61.259-30.63 10.21 10.21 66.365 10.21 66.365s30.63-25.525 61.259-20.42c30.63 5.104 76.575 51.049 107.206 61.259 30.63 10.21 45.943 10.21 96.995 15.315 51.05 5.105 86.783 30.63 96.992 51.05l86.785-5.105z"/><path fill="#FFF" d="M179.581 179.565c9.462 18.027.469 35.207 3.171 57.431 4.313 35.311-39.563 68.578-79.157 65.058-52.276-4.656-48.896-191.835-18.466-194.113 18.037-1.341 50.302 14.836 73.165 45.411 7.358 9.831 21.287 26.213 21.287 26.213"/><path fill="none" d="M179.581 179.565c9.462 18.027.469 35.207 3.171 57.431 4.313 35.311-39.563 68.578-79.157 65.058-52.276-4.656-48.896-191.835-18.466-194.113 18.037-1.341 50.302 14.836 73.165 45.411 7.358 9.831 21.287 26.213 21.287 26.213z"/><path d="M82.377 279.525c1.73-32.803 27.789-91.426 68.638-79.321 45.935 13.595 27.942-14.712 24.587-23.551-3.35-8.849-25.331-26.058-20.634-28.386 4.701-2.333 63.438 25.994 68.184 73.534 4.761 47.54-13.974 69.32-39 83.105-25.021 13.78-65.273 14.557-89.272-1.361-23.984-15.918-12.503-24.02-12.503-24.02"/><path fill="#FFF" d="M578.836 277.477c24.766-16.506 76.574-25.525 76.574-25.525s30.629 66.365 56.154 163.358c25.524 96.994 30.629 168.465 20.42 239.935-10.211 71.47-20.42 148.044-56.154 168.464-35.736 20.42-122.521 20.42-163.359 20.42s-193.988-10.21-224.619-10.21-127.624 10.21-153.149 10.21c-25.525 0-20.42-20.42 10.209-30.63 30.63-10.21 40.84-5.104 61.26-15.314s45.945-20.42 61.26-20.42c15.315 0 30.63 15.314 51.049 15.314 20.421 0 148.044-30.63 188.885-40.84 40.839-10.21 112.308-5.104 112.308-5.104S609.465 619.51 599.256 568.46c-10.211-51.05-35.736-66.364-56.156-117.415-20.42-51.049-5.104-66.364-10.209-96.994-5.104-30.629-5.104-25.524-10.211-35.734 0-.001 25.525-20.421 56.156-40.84"/><path fill="none" d="M578.836 277.477c24.766-16.506 76.574-25.525 76.574-25.525s30.629 66.365 56.154 163.358c25.524 96.994 30.629 168.465 20.42 239.935-10.211 71.47-20.42 148.044-56.154 168.464-35.736 20.42-122.521 20.42-163.359 20.42s-193.988-10.21-224.619-10.21-127.624 10.21-153.149 10.21c-25.525 0-20.42-20.42 10.209-30.63 30.63-10.21 40.84-5.104 61.26-15.314s45.945-20.42 61.26-20.42c15.315 0 30.63 15.314 51.049 15.314 20.421 0 148.044-30.63 188.885-40.84 40.839-10.21 112.308-5.104 112.308-5.104S609.465 619.51 599.256 568.46c-10.211-51.05-35.736-66.364-56.156-117.415-20.42-51.049-5.104-66.364-10.209-96.994-5.104-30.629-5.104-25.524-10.211-35.734 0-.001 25.525-20.421 56.156-40.84z"/><path fill="#FFF" d="M362.333 174.779s23.072 269.521 17.504 318.268c-5.574 48.746-57.307 214.838-57.307 214.838-7.27 31.362.25 57.076-18.874 92.691s-26.921 12.339-31.119 7.816c-4.198-4.507-11.85-75.367 11.636-102.379 7.737-8.894 7.737-10.658 10.081-16.247l26.687-206.122-62.052-256.649c-4.058-15.854-5.419-27.524-6.77-41.408-1.142-11.735-.239-22.882.688-34.658"/><path fill="none" d="M362.333 174.779s23.072 269.521 17.504 318.268c-5.574 48.746-57.307 214.838-57.307 214.838-7.27 31.362.25 57.076-18.874 92.691s-26.921 12.339-31.119 7.816c-4.198-4.507-11.85-75.367 11.636-102.379 7.737-8.894 7.737-10.658 10.081-16.247l26.687-206.122-62.052-256.649c-4.058-15.854-5.419-27.524-6.77-41.408-1.142-11.735-.239-22.882.688-34.658"/><path fill="none" d="M234.893 194.92c-3.196-29.753 12.119-55.277 32.539-70.592s42.334-23.571 36.482-44.962M296.033 676.053c12.239 4.722 35.097 3.709 35.097 3.709M339.849 790.217c-6.052 7.973-10.3 37.096-5.624 45.506"/></g></svg>