<svg width="800" height="900" fill="none" xmlns="http://www.w3.org/2000/svg"><path d="M553.318 277.599c-26.899-8.026-55.565-6.512-82.821-1.174-50.247 9.834-119.594 32.405-142.95 83.395-11.86 25.886-13.908 55.6-13.072 83.695.733 24.762 6.467 88.442 10.194 108.181.285 1.515-.907 2.892-2.444 2.784-9.648-.704-37.451 2.732-41.014 3.199-14.615 1.925-29.048 5.007-43.321 8.657-35.862 9.166-74.394 31.594-110.95 14.902-8.941-4.083-18.367 1.781-26.126 5.746-27.477 14.032-77.175 2.267-92.587 34.872-.733 1.555.397 3.36 2.113 3.366 23.892.137 80.941 1.294 116.327-6.555.226-.052.443-.069.675-.046 67.582 5.832 187.26 19.408 249.305-8.547a2.42 2.42 0 0 0 1.169-1.129c16.24-32.259 23.606-68.047 27.504-103.717 2.952-27.003 2.919-54.252 5.807-81.222 2.635-24.628 13.782-49.464 38.717-58.282 14.061-4.973 28.762-8.334 42.211-6.967 12.381 1.255 18.716 11.72 28.639 15.346 8.21 3 15.301 3.478 22.501 2.277 14.864-2.489 25.587-5.253 39.988-3.524 2.332.281 3.296 2.993 4.893 2.956 18.239-.399 15.498 3.662 26.843-29.081 12.122-34.997-34.596-61.073-61.601-69.132Z" fill="#fff" stroke="#000" stroke-width="5" stroke-miterlimit="10"/><path d="M553.318 277.599c-26.899-8.026-55.565-6.512-82.821-1.174-50.247 9.834-119.594 32.405-142.95 83.395-11.86 25.886-13.908 55.6-13.072 83.695.733 24.762 6.467 88.442 10.194 108.181.285 1.515-.907 2.892-2.444 2.784-9.648-.704-37.451 2.732-41.014 3.199-14.615 1.925-29.048 5.007-43.321 8.657-35.862 9.166-74.394 31.594-110.95 14.902-8.941-4.083-18.367 1.781-26.126 5.746-27.477 14.032-77.175 2.267-92.587 34.872-.733 1.555.397 3.36 2.113 3.366 23.892.137 80.941 1.294 116.327-6.555.226-.052.443-.069.675-.046 67.582 5.832 187.26 19.408 249.305-8.547a2.42 2.42 0 0 0 1.169-1.129c16.24-32.259 23.606-68.047 27.504-103.717 2.952-27.003 2.919-54.252 5.807-81.222 2.635-24.628 13.782-49.464 38.717-58.282 14.061-4.973 28.762-8.334 42.211-6.967 12.381 1.255 18.716 11.72 28.639 15.346 8.21 3 15.301 3.478 22.501 2.277 14.864-2.489 25.587-5.253 39.988-3.524 2.332.281 3.296 2.993 4.893 2.956 18.239-.399 15.498 3.662 26.843-29.081 12.122-34.997-34.596-61.073-61.601-69.132Z" stroke="#000" stroke-width="5" stroke-miterlimit="10"/><path d="M651.187 358.611c-24.666 6.916-35.415-25.076-35.415-25.076l-20.774 13.495-.156 30.331s15.27-.826 20.146 6.999" fill="#fff"/><path d="M651.187 358.611c-24.666 6.916-35.415-25.076-35.415-25.076l-20.774 13.495-.156 30.331s15.27-.826 20.146 6.999" stroke="#000" stroke-width="5" stroke-miterlimit="10"/><path d="M651.187 358.611c-24.666 6.916-35.415-25.076-35.415-25.076l-20.774 13.495-.156 30.331s15.27-.826 20.146 6.999M356.926 323.026s24.023 49.911 68.237 61.332M196.093 579.654s-4.767 30.252 0 44.753" stroke="#000" stroke-width="5" stroke-miterlimit="10"/><path d="M657.179 359.806c10.796 2.424 14.745 12.192 24.911 18.887 16.139 10.637 14.488 40.512-.897 55.677-20.313 20.018-96.67-47.22-86.905-60.63 5.785-7.937 23.838-15.615 44.545-14.335 6.658.409 18.346.401 18.346.401Z" fill="#fff" stroke="#000" stroke-width="5" stroke-miterlimit="10"/><path d="M657.179 359.806c10.796 2.424 14.745 12.192 24.911 18.887 16.139 10.637 14.488 40.512-.897 55.677-20.313 20.018-96.67-47.22-86.905-60.63 5.785-7.937 23.838-15.615 44.545-14.335 6.658.409 18.346.401 18.346.401Z" stroke="#000" stroke-width="5" stroke-miterlimit="10"/><path d="M664.402 435.236c-12.982-12.255-28.101-43.669-8.715-56.336 21.787-14.244 3.728-16.748-1.112-18.466-4.843-1.724-19.702 1.33-19.019-1.438.69-2.767 33.56-19.868 54.923-5.119 21.367 14.754 27.088 28.398 24 43.614-3.093 15.218-20.694 36.67-35.729 41.011-15.03 4.342-14.348-3.266-14.348-3.266Z" fill="#000" stroke="#000" stroke-width="5" stroke-miterlimit="10"/><path d="M706.062 396.516c6.495-10.475 28.905-29.959 42.889.201 11.484 24.773 19.324 15.733 36.715 30.589 13.979 11.939 5.447 36.845-31.873 41.722-33.966 4.438-30.743-16.468-32.095-38.905-1.349-22.426-15.636-33.607-15.636-33.607Z" fill="#000" stroke="#000" stroke-width="5" stroke-miterlimit="10"/><path d="M554.707 387.631s17.275 78.581 18.64 116.56c1.818 50.529 10.192 89.752 15.786 111.294 1.403 5.414 6.526 6.366 11.57 7.924 4.01 1.243 7.366 1.461 9.635 1.489l74.677.29c1.266.016 1.71-1.678.595-2.273-10.111-5.398-29.104-8.855-37.114-11.839-6.365-2.375-11.565-3.891-18.272-4.99-1.553-.258-4.491-.671-6.057-.751l-.057-.005c-4.996-.27-10.76-4.24-12.771-8.823-2.698-6.164-1.427-9.939-1.34-16.658.111-7.864.211-15.733.315-23.599l.642-48.29c.059-4.342.114-8.684.174-13.026l-8.872-160.796c-3.861-16.343-16.706-23.27-28.707-21.428-12.002 1.851-43.52 3.931-34.247 41.487 7.305 29.586 15.403 33.434 15.403 33.434Z" fill="#fff" stroke="#000" stroke-width="5" stroke-miterlimit="10"/><path d="M554.707 387.631s17.275 78.581 18.64 116.56c1.818 50.529 10.192 89.752 15.786 111.294 1.403 5.414 6.526 6.366 11.57 7.924 4.01 1.243 7.366 1.461 9.635 1.489l74.677.29c1.266.016 1.71-1.678.595-2.273-10.111-5.398-29.104-8.855-37.114-11.839-6.365-2.375-11.565-3.891-18.272-4.99-1.553-.258-4.491-.671-6.057-.751l-.057-.005c-4.996-.27-10.76-4.24-12.771-8.823-2.698-6.164-1.427-9.939-1.34-16.658.111-7.864.211-15.733.315-23.599l.642-48.29c.059-4.342.114-8.684.174-13.026l-8.872-160.796c-3.861-16.343-16.706-23.27-28.707-21.428-12.002 1.851-43.52 3.931-34.247 41.487 7.305 29.586 15.403 33.434 15.403 33.434Z" stroke="#000" stroke-width="5" stroke-miterlimit="10"/></svg>