<svg xmlns="http://www.w3.org/2000/svg" width="800" height="900" xml:space="preserve"><g stroke="#000" stroke-width="5" stroke-miterlimit="10"><path fill="#FFF" d="M324.22 508.315c17.848 8.729 36.053 16.944 36.053 16.944s24.534-43.209 33.982-53.453c9.446-10.238 11.159-9.675 20.566-13.866 9.41-4.193 16.103-14.421 16.86-28.944.759-14.524-7.03-57.11-2.597-69.89 4.433-12.78 7.577-23.59 28.165-39.183l-5.534-29.707s-73.355 49.704-86.187 70.853c-12.829 21.148-36.82 74.47-45.676 89.366-8.854 14.896-26.07 39.506-26.07 39.506s19.908 13.227 30.438 18.374"/><path fill="none" d="M324.22 508.315c17.848 8.729 36.053 16.944 36.053 16.944s24.534-43.209 33.982-53.453c9.446-10.238 11.159-9.675 20.566-13.866 9.41-4.193 16.103-14.421 16.86-28.944.759-14.524-7.03-57.11-2.597-69.89 4.433-12.78 7.577-23.59 28.165-39.183l-5.534-29.707s-73.355 49.704-86.187 70.853c-12.829 21.148-36.82 74.47-45.676 89.366-8.854 14.896-26.07 39.506-26.07 39.506s19.908 13.227 30.438 18.374z"/><path fill="#FFF" d="M449.117 297.543c-.723-6.887 2.438-11.217 4.379-18.583 3.07-11.699 21.543-14.192 34.446-10.149 12.896 4.044-9.898 66.301-19.806 63.195-5.867-1.838-16.205-11.255-18.162-24.09-1.126-7.381-.857-10.373-.857-10.373"/><path fill="none" d="M449.117 297.543c-.723-6.887 2.438-11.217 4.379-18.583 3.07-11.699 21.543-14.192 34.446-10.149 12.896 4.044-9.898 66.301-19.806 63.195-5.867-1.838-16.205-11.255-18.162-24.09-1.126-7.381-.857-10.373-.857-10.373zM414.585 333.978s4.274 35.296 13.956 35.296"/><path fill="#FFF" d="M324.22 508.315c8.898 4.23 28.198 14.165 36.053 16.944 0 0-6.565 8.887-5.331 15.339 0 0 33.053 13.903 74.471 26.989 41.419 13.086 86.438 39.711 92.362 50.108 5.922 10.393-5.71 56.539-15.727 80.007-10.016 23.469-36.165 77.107-42.23 89.982-6.064 12.871-8.091 20.539-.809 27.617 7.284 7.075 52.084 15.122 56.768 16.302 4.684 1.179 13.012 3.012 12.529 7.015-.482 4.002-5.165 8.422-51.211 7.128-46.042-1.293-41.177 1.416-49.347-2.785-8.17-4.194-7.098-14.558-2.826-39.583 4.271-25.025 19.893-95.868 29.502-121.032 9.616-25.166 13.626-34.358 13.626-34.358s-69.931-5.881-117.832-20.492c-47.9-14.615-70.073-32.559-81.581-57.804-11.508-25.245-2.417-46.656 21.146-79.753.001 0 14.994 11.032 30.437 18.376"/><path fill="none" d="M324.22 508.315c8.898 4.23 28.198 14.165 36.053 16.944 0 0-6.565 8.887-5.331 15.339 0 0 33.053 13.903 74.471 26.989 41.419 13.086 86.438 39.711 92.362 50.108 5.922 10.393-5.71 56.539-15.727 80.007-10.016 23.469-36.165 77.107-42.23 89.982-6.064 12.871-8.091 20.539-.809 27.617 7.284 7.075 52.084 15.122 56.768 16.302 4.684 1.179 13.012 3.012 12.529 7.015-.482 4.002-5.165 8.422-51.211 7.128-46.042-1.293-41.177 1.416-49.347-2.785-8.17-4.194-7.098-14.558-2.826-39.583 4.271-25.025 19.893-95.868 29.502-121.032 9.616-25.166 13.626-34.358 13.626-34.358s-69.931-5.881-117.832-20.492c-47.9-14.615-70.073-32.559-81.581-57.804-11.508-25.245-2.417-46.656 21.146-79.753.001 0 14.994 11.032 30.437 18.376z"/><path fill="#FFF" d="M434.596 771.151s23.631 6.483 35.717 3.251"/><path fill="none" d="M434.596 771.151s23.631 6.483 35.717 3.251"/><path d="M449.483 304.277c-.292-8.874 2.175-13.999 6.304-14.061 4.125-.061 9.775 2.546 15.316 1.026 5.539-1.519 4.181-14.554 8.199-18.685 4.021-4.127 12.016-1.409 12.01 2.933-.006 4.346 3.308.246 3.747-4.563.407-4.406 2.384-25.801-24.656-32.587-21.841-5.479-35.925-2.387-48.844 16.946-12.918 19.336-5.103 34.92-25.156 41.455-24.806 8.078-32.301-15.711-64.887-3.979-12.45 4.485-23.841 26.991-24.767 43.341-.993 17.567 8.118 38.339 15.968 44.971 18.9 15.968 26.817 10.095 26.817 10.095l15.996-30.729s55.92-45.476 69.126-53.825c13.208-8.351 14.827-2.338 14.827-2.338"/><path fill="#FFF" d="M365.53 360.438c-1.955 3.788-7.745 13.017-8.788 16.93-1.042 3.913-1.507 21.73 9.445 29.773 10.956 8.043 29.913-.701 35.825-12.817 5.907-12.111 5.375-16.2 7.577-21.566 2.204-5.367 24.318-44.979 38.274-74.493 13.954-29.515 27.14-74.909 30.676-103.586 3.536-28.677 7.66-59.529 9.402-71.261 1.735-11.731 8.228-47.683 3.055-60.558-5.176-12.87-15.57-12.208-19.089 5.465-3.52 17.673-1.237 37.551-3.686 55.965-2.44 18.41-13.959 69.517-21.778 91.676-7.821 22.16-4.125 21.552-30.414 71.041-26.287 49.489-50.499 73.431-50.499 73.431"/><path fill="none" d="M365.53 360.438c-1.955 3.788-7.745 13.017-8.788 16.93-1.042 3.913-1.507 21.73 9.445 29.773 10.956 8.043 29.913-.701 35.825-12.817 5.907-12.111 5.375-16.2 7.577-21.566 2.204-5.367 24.318-44.979 38.274-74.493 13.954-29.515 27.14-74.909 30.676-103.586 3.536-28.677 7.66-59.529 9.402-71.261 1.735-11.731 8.228-47.683 3.055-60.558-5.176-12.87-15.57-12.208-19.089 5.465-3.52 17.673-1.237 37.551-3.686 55.965-2.44 18.41-13.959 69.517-21.778 91.676-7.821 22.16-4.125 21.552-30.414 71.041-26.287 49.489-50.499 73.431-50.499 73.431z"/></g></svg>