<svg xmlns="http://www.w3.org/2000/svg" width="800" height="900" xml:space="preserve"><g stroke="#000" stroke-width="5" stroke-miterlimit="10"><path fill="#FFF" d="m620.137 413.663 34.378 9.684-17.913 19.917c-13.885-3.539-31.015-2.058-44.314 1.021-13.301 3.073-30.184 16.176-40.137 25.213-9.954 9.037-26.98 11.657-34.895 6.901-7.916-4.758-10.293-9.26-27.975-10.273-17.683-1.018-50.208 0-50.208 0-2.794-7.695-1.611-23.74-.863-35.004.711-10.65 3.636-24.755 3.636-24.755 21.33 2.098 59.923 2.313 86.118 1.965 18.206-.242 38.721-9.104 53.144-7.38 6.731.806 20.481 6.144 27.932 9.188a72.721 72.721 0 0 0 11.097 3.523"/><path fill="none" d="m620.137 413.663 34.378 9.684-17.913 19.917c-13.885-3.539-31.015-2.058-44.314 1.021-13.301 3.073-30.184 16.176-40.137 25.213-9.954 9.037-26.98 11.657-34.895 6.901-7.916-4.758-10.293-9.26-27.975-10.273-17.683-1.018-50.208 0-50.208 0-2.794-7.695-1.611-23.74-.863-35.004.711-10.65 3.636-24.755 3.636-24.755 21.33 2.098 59.923 2.313 86.118 1.965 18.206-.242 38.721-9.104 53.144-7.38 6.731.806 20.481 6.144 27.932 9.188a72.721 72.721 0 0 0 11.097 3.523z"/><path fill="#FFF" d="M585.15 401.736s-72.774-7.744-98.054-1.439c-10.99 6.391-3.933 91.526 5.365 124.66 1.397 4.985 5.918 8.439 11.097 8.439h44.104c4.746-1.163 5.108-6.14 1.69-7.277-7.772-2.575-20.2-4.379-35.555-5.234-2.32-.133-4.619-2.101-5.098-4.377-4.973-23.583-4.081-73.042-3.723-86.766a3.528 3.528 0 0 1 3.709-3.427l59.993 2.01"/><path fill="none" d="M585.15 401.736s-72.774-7.744-98.054-1.439c-10.99 6.391-3.933 91.526 5.365 124.66 1.397 4.985 5.918 8.439 11.097 8.439h44.104c4.746-1.163 5.108-6.14 1.69-7.277-7.772-2.575-20.2-4.379-35.555-5.234-2.32-.133-4.619-2.101-5.098-4.377-4.973-23.583-4.081-73.042-3.723-86.766a3.528 3.528 0 0 1 3.709-3.427l59.993 2.01"/><path fill="#FFF" d="M441.847 406.365c-3.122 14.362-6.612 43.681-2.771 59.759 0 0-15.128 4.015-44.5 7.776-29.37 3.761-90.659 4.444-113.195 4.519-22.537.077-112.965-4.792-139.521-5.656-26.558-.863-63.189-.385-67.119 4.463-3.929 4.846-3.418 25.191-2.603 35.779.813 10.587 7.538 12.091 8.586 15.136 1.047 3.049-.7 4.158-7.073 4.345-6.375.188-15.891-2.816-19.21-18.239-3.317-15.419-7.015-41.92-6.391-48.989.628-7.067 9.465-7.468 16.629-8.733 7.164-1.267 58.257-10.222 77.097-13.814 18.838-3.59 48.987-10.225 64.688-11.655 15.7-1.431 48.93-2.417 71.965-6.196 23.034-3.776 49.151-17.341 60.431-22.235 11.282-4.893 30.385-10.788 47.486-9.611 17.104 1.177 36.017 10.103 42.144 11.371 6.127 1.266 13.357 1.98 13.357 1.98"/><path fill="none" d="M441.847 406.365c-3.122 14.362-6.612 43.681-2.771 59.759 0 0-15.128 4.015-44.5 7.776-29.37 3.761-90.659 4.444-113.195 4.519-22.537.077-112.965-4.792-139.521-5.656-26.558-.863-63.189-.385-67.119 4.463-3.929 4.846-3.418 25.191-2.603 35.779.813 10.587 7.538 12.091 8.586 15.136 1.047 3.049-.7 4.158-7.073 4.345-6.375.188-15.891-2.816-19.21-18.239-3.317-15.419-7.015-41.92-6.391-48.989.628-7.067 9.465-7.468 16.629-8.733 7.164-1.267 58.257-10.222 77.097-13.814 18.838-3.59 48.987-10.225 64.688-11.655 15.7-1.431 48.93-2.417 71.965-6.196 23.034-3.776 49.151-17.341 60.431-22.235 11.282-4.893 30.385-10.788 47.486-9.611 17.104 1.177 36.017 10.103 42.144 11.371 6.127 1.266 13.357 1.98 13.357 1.98z"/><path fill="none" d="M88.858 452.257c.071 8.728 3.833 21.033 3.833 21.033M575.503 451.749c-6.197-11.33-1.35-41.586 1.662-51.278M509.259 517.925c-3.474 1.476-10.496 8.763-12.443 13.282"/><path fill="#FFF" d="M649.146 415.071c6.092-4.481 12.896-2.138 20.902-4.375 12.717-3.552 27.378 10.692 28.3 25.422 1.212 19.446-67.68 28.662-70.213 17.616-1.501-6.541 2.636-19.286 12.58-29.388 3.196-3.248 8.431-9.275 8.431-9.275"/><path fill="none" d="M649.146 415.071c6.092-4.481 12.896-2.138 20.902-4.375 12.717-3.552 27.378 10.692 28.3 25.422 1.212 19.446-67.68 28.662-70.213 17.616-1.501-6.541 2.636-19.286 12.58-29.388 3.196-3.248 8.431-9.275 8.431-9.275z"/><path d="M691.267 445.163c-12.138 1.198-35.105-5.091-32.948-20.764 2.429-17.616-6.958-9.432-10.017-7.705-3.06 1.723-8.148 10.754-9.267 9.157-1.117-1.594 4.803-26.204 21.984-30.606 17.184-4.4 26.781-1.231 33.239 7.184 6.455 8.415 9.623 27.108 5.122 36.805-4.497 9.69-8.113 5.929-8.113 5.929"/><path d="M690.634 407.396c-4.498-7.118-9.77-26.708 12.931-26.286 18.65.343 15.442-7.176 29.765-13.421 11.514-5.022 24.263 7.658 16.111 32.046-7.419 22.191-19.303 13.965-33.486 8.094-14.186-5.869-25.321-.433-25.321-.433"/></g></svg>