<svg xmlns="http://www.w3.org/2000/svg" width="800" height="900" xml:space="preserve"><g stroke="#000" stroke-width="5" stroke-miterlimit="10"><path fill="#FFF" d="M440.102 456.772c-31.778-7.767-63.254-35.708-63.254-35.708l-8.47 22.508s28.104 17.602 28.104 27.415"/><path fill="none" d="M440.102 456.772c-31.778-7.767-63.254-35.708-63.254-35.708l-8.47 22.508s28.104 17.602 28.104 27.415"/><path fill="#FFF" d="M417.659 463.545c-17.495 3.405-30.978 11.706-33.727 19.688-4.639 13.472 66.955 47.037 72.997 29.491 6.047-17.543 16.289-42.881.353-47.547-10.031-2.938-15.853-7.452-25.328-6.72"/><path fill="none" d="M417.659 463.545c-17.495 3.405-30.978 11.706-33.727 19.688-4.639 13.472 66.955 47.037 72.997 29.491 6.047-17.543 16.289-42.881.353-47.547-10.031-2.938-15.853-7.452-25.328-6.72M226.38 420.802c-26.501-5.485-51.881.456-51.881.456"/><path fill="#FFF" d="M130.009 400.604c5.764-22.26 35.244-29.359 107.717-33.624 72.473-4.263 151.625 34.284 146.745 71.51-4.884 37.229-96.301 26.117-132.426 19.887-36.128-6.228-133.271-14.376-122.036-57.773"/><path fill="none" d="M130.009 400.604c5.764-22.26 35.244-29.359 107.717-33.624 72.473-4.263 151.625 34.284 146.745 71.51-4.884 37.229-96.301 26.117-132.426 19.887-36.128-6.228-133.271-14.376-122.036-57.773z"/><path fill="#FFF" d="M147.289 381.403c21.934-5.3 52.766 11.577 79.092 39.4 0 0 104.57 14.231 141.065 37.078 36.499 22.848-3.34 56.615-30.073 59.807-26.736 3.19-87.664 7.759-139.037 4.929-51.38-2.829-55.707-4.978-95.197-.465-39.49 4.508-49.212 1.921-49.225-1.163-.013-3.083 11.149-13.433 32.993-15.94 21.843-2.511 29.139-10.331 41.186-12.035 12.048-1.708 11.714 5.07 27.743 4.574 16.025-.498 18.663-2.768 18.663-2.768s-25.603-3.184-51.706-33.087c-23.594-27.031-7.103-72.692 24.496-80.33"/><path fill="none" d="M147.289 381.403c21.934-5.3 52.766 11.577 79.092 39.4 0 0 104.57 14.231 141.065 37.078 36.499 22.848-3.34 56.615-30.073 59.807-26.736 3.19-87.664 7.759-139.037 4.929-51.38-2.829-55.707-4.978-95.197-.465-39.49 4.508-49.212 1.921-49.225-1.163-.013-3.083 11.149-13.433 32.993-15.94 21.843-2.511 29.139-10.331 41.186-12.035 12.048-1.708 11.714 5.07 27.743 4.574 16.025-.498 18.663-2.768 18.663-2.768s-25.603-3.184-51.706-33.087c-23.594-27.031-7.103-72.692 24.496-80.33z"/><path fill="none" d="M226.38 420.802s-30.564-9.211-54.021 1.775M174.499 494.818c34.534-9.297 76.001-24.896 95.826-25.272 19.826-.377 33.703 1.438 43.121 8.542"/><path fill="#FFF" d="M323.975 381.094s-35.603 32.831 7.133 61.694"/><path fill="none" d="M323.975 381.094s-35.603 32.831 7.133 61.694M174.499 494.818s6.835 16.144 3.015 26.55"/><path d="M422.479 441.594c3.959-24.999 66.146-32.969 76.721 4.435 10.572 37.402 41.411 38.282 60.354 33.878 18.944-4.404 50.666-7.489 66.084 19.822 15.419 27.316 7.05 27.316 7.05 27.316s-138.887 11.013-181.781-9.758c-33.631-16.286-28.428-75.693-28.428-75.693"/><path fill="#FFF" d="M358.987 409.856s13.341 0 27.027 4.428c18.606 6.021 29.18 27.596 58.694 46.126 33.44 20.994 84.919 38.797 84.919 38.797 4.914 2.188 13.501 1.451 18.894 2.02 6.688.701 13.38 1.398 20.069 2.102 13.372 1.398 26.747 2.813 40.104 4.326 25.438 2.887 51.623 9.144 77.149 9.932 0 0 18.313-2.396 24.425-1.97 15.112 1.053 35.594 7.937 35.815 14.842.08 2.433-27.059.055-58.079 1.107-29.841 1.013-59.708.727-89.563 1.081-21.969.26-46.908 2.392-68.524-2.382-107.184-23.672-170.933-80.938-170.933-80.938"/><path fill="none" d="M358.987 409.856s13.341 0 27.027 4.428c18.606 6.021 29.18 27.596 58.694 46.126 33.44 20.994 84.919 38.797 84.919 38.797 4.914 2.188 13.501 1.451 18.894 2.02 6.688.701 13.38 1.398 20.069 2.102 13.372 1.398 26.747 2.813 40.104 4.326 25.438 2.887 51.623 9.144 77.149 9.932 0 0 18.313-2.396 24.425-1.97 15.112 1.053 35.594 7.937 35.815 14.842.08 2.433-27.059.055-58.079 1.107-29.841 1.013-59.708.727-89.563 1.081-21.969.26-46.908 2.392-68.524-2.382-107.184-23.672-170.933-80.938-170.933-80.938"/></g></svg>