<svg xmlns="http://www.w3.org/2000/svg" width="800" height="900" xml:space="preserve"><g stroke="#000" stroke-width="5" stroke-miterlimit="10"><path fill="#FFF" d="M614.737 562.214c6.971 13.294 18.118 32.885 24.45 39.351 0 0 26.673-22.165 44.465-49.07 17.787-26.907 20.363-53.41 29.973-75.622 9.604-22.218 15.369-15.122 15.046-38.014-.323-22.896-30.632-42.014-41.386-61.805-10.752-19.794-11.836-24.463-7.4-52.926 4.437-28.461 9.323-33.797 9.323-33.797s-35.131-13.082-35.131-5.762c0 7.317-2.894 34.889-6.229 51.791-3.335 16.898-15.468 34.892-20.185 53.468-4.716 18.577-1.12 62.779-3.14 84.374-2.024 21.592-2.066 28.313-8.606 37.961-6.536 9.646-12.519 11.647-12.519 11.647s1.57 19.775 11.339 38.404"/><path fill="none" d="M614.737 562.214c6.971 13.294 18.118 32.885 24.45 39.351 0 0 26.673-22.165 44.465-49.07 17.787-26.907 20.363-53.41 29.973-75.622 9.604-22.218 15.369-15.122 15.046-38.014-.323-22.896-30.632-42.014-41.386-61.805-10.752-19.794-11.836-24.463-7.4-52.926 4.437-28.461 9.323-33.797 9.323-33.797s-35.131-13.082-35.131-5.762c0 7.317-2.894 34.889-6.229 51.791-3.335 16.898-15.468 34.892-20.185 53.468-4.716 18.577-1.12 62.779-3.14 84.374-2.024 21.592-2.066 28.313-8.606 37.961-6.536 9.646-12.519 11.647-12.519 11.647s1.57 19.775 11.339 38.404z"/><path fill="none" d="M643.013 351.6s39.884 58.946 68.096 54.313"/><path fill="#FFF" d="M611.162 554.495c11.984 27.396 28.025 47.071 28.025 47.071s-40.231 28.287-80.557 42.633c-40.327 14.346-76.39 25.092-113.342 25.472-36.955.381-115.244-1.097-163.894-4.375-48.647-3.275-101.699-9.815-126.866-8.778-25.167 1.042-65.353 11.032-91.375 10.626-26.019-.408 6.699-20.735 10.577-22.454 3.88-1.72 44.635-12.069 52.718-15.771 8.081-3.711 9.899-8.548 18.913-7.794 9.016.747 14.196 7.313 33.698 4.933 19.502-2.379 107.218-12.158 139.509-15.174 32.286-3.021 82.062-3.43 128.399-20.792 46.342-17.362 54.083-41.427 96.684-56.854 0 0 10.029-3.646 28.93-3.533 18.9.111 30.816-5.893 30.816-5.893s1.419 16.176 7.765 30.683"/><path fill="none" d="M611.162 554.495c11.984 27.396 28.025 47.071 28.025 47.071s-40.231 28.287-80.557 42.633c-40.327 14.346-76.39 25.092-113.342 25.472-36.955.381-115.244-1.097-163.894-4.375-48.647-3.275-101.699-9.815-126.866-8.778-25.167 1.042-65.353 11.032-91.375 10.626-26.019-.408 6.699-20.735 10.577-22.454 3.88-1.72 44.635-12.069 52.718-15.771 8.081-3.711 9.899-8.548 18.913-7.794 9.016.747 14.196 7.313 33.698 4.933 19.502-2.379 107.218-12.158 139.509-15.174 32.286-3.021 82.062-3.43 128.399-20.792 46.342-17.362 54.083-41.427 96.684-56.854 0 0 10.029-3.646 28.93-3.533 18.9.111 30.816-5.893 30.816-5.893s1.419 16.176 7.765 30.683z"/><path fill="#FFF" d="M644.016 381.22c8.779-.967 27.172 10.429 26.015 30.246-1.156 19.817-10.506 78.325-9.172 111.013 1.334 32.687 12.105 119.235 17.709 129.413 5.603 10.172 15.159 5.296 27.829 7.317 12.666 2.022 37.35 7.522 40.018 11.694 2.669 4.167-8.972 3.479-11.34 3.427-2.369-.055-56.597.784-62.548-.883-5.951-1.665-12.791.216-17.506-25.395-4.717-25.609-20.422-69.438-25.178-107.972-4.758-38.526-2.976-121.894-2.668-133.987.3-12.089 3.221-23.372 16.841-24.873"/><path fill="none" d="M644.016 381.22c8.779-.967 27.172 10.429 26.015 30.246-1.156 19.817-10.506 78.325-9.172 111.013 1.334 32.687 12.105 119.235 17.709 129.413 5.603 10.172 15.159 5.296 27.829 7.317 12.666 2.022 37.35 7.522 40.018 11.694 2.669 4.167-8.972 3.479-11.34 3.427-2.369-.055-56.597.784-62.548-.883-5.951-1.665-12.791.216-17.506-25.395-4.717-25.609-20.422-69.438-25.178-107.972-4.758-38.526-2.976-121.894-2.668-133.987.3-12.089 3.221-23.372 16.841-24.873zM197.844 623.864c-2.945 8.683-3.581 34.211-3.581 34.211"/><path fill="#FFF" d="M657.175 300.06c-4.9-6.462-4.354-12.719-6.879-21.271-4.011-13.584 12.984-27.272 28.361-31.037 15.377-3.771 30.267 72.415 18.46 75.308-6.992 1.717-23.06-1.454-32.797-13.128-5.599-6.712-7.145-9.872-7.145-9.872"/><path fill="none" d="M657.175 300.06c-4.9-6.462-4.354-12.719-6.879-21.271-4.011-13.584 12.984-27.272 28.361-31.037 15.377-3.771 30.267 72.415 18.46 75.308-6.992 1.717-23.06-1.454-32.797-13.128-5.599-6.712-7.145-9.872-7.145-9.872z"/><path d="M661.626 306.582c-5.678-8.711-6.309-15.343-2.21-17.905 4.1-2.562 11.338-3.375 15.966-8.255 4.628-4.881-4.631-17.118-3.105-23.687 1.521-6.572 11.18-8.693 13.806-4.341 2.632 4.354 3.464-1.759.99-6.84-2.263-4.659-13.248-27.293-44.449-17.704-25.201 7.745-37.438 19.379-38.66 46.576-1.225 27.202 16.047 38.079-.083 56.775-19.95 23.127-41.875 3.833-67.412 35.34-9.762 12.036-7.531 41.484 1.454 58.425 9.649 18.204 31.366 33.492 43.251 35.376 28.611 4.545 44.851-3.991 44.851-3.991V424.33c.532-8.99-1.428-20.466 0-29.352 1.908-11.852 11.517-27.387 16.012-42.693 4.205-14.304 7.19-24.331 8.005-29.352 2.928-18.06 11.584-16.351 11.584-16.351"/></g></svg>