<svg xmlns="http://www.w3.org/2000/svg" width="800" height="900" xml:space="preserve"><g stroke="#000" stroke-width="5" stroke-miterlimit="10"><path fill="#FFF" d="M248.955 411.5s-25.189-7.208-80.144-11.278c-8.309-.618-56.223-.225-73.317-.062a23.269 23.269 0 0 1-11.163-2.733c-11.339-6.032-37.642-18.998-37.642-9.417 0 12.212-8.141 22.39 38.672 28.495 46.813 6.106 95.662 12.212 95.662 12.212l61.061 6.106 6.871-23.323z"/><path fill="none" d="M248.955 411.5s-25.189-7.208-80.144-11.278c-8.309-.618-56.223-.225-73.317-.062a23.269 23.269 0 0 1-11.163-2.733c-11.339-6.032-37.642-18.998-37.642-9.417 0 12.212-8.141 22.39 38.672 28.495 46.813 6.106 95.662 12.212 95.662 12.212l61.061 6.106 6.871-23.323z"/><path fill="#FFF" d="M402.876 457.211s34.603 12.212 89.556-4.07c38.347-11.362 54.893-15.784 61.39-17.425a14.825 14.825 0 0 1 7.166-.004c13.13 3.229 62.116 13.625 112.592 3.182 0 0 26.46-4.069 34.602 0 8.143 4.071 16.282-12.212 32.565-22.389s16.283-40.707 6.105-32.566c-10.177 8.142-36.637 32.566-42.742 32.566-5.684 0-120.996-14.655-136.621-16.116a38.077 38.077 0 0 0-3.573-.167H498.54s24.026-5.257 34.601-8.142c22.568-6.156 32.498-7.483 50.647-17.706 6.128-3.449 12.892-5.727 19.891-6.398a70.885 70.885 0 0 1 6.807-.32c11.592 0 5.671-40.415 3.059-55.485-.638-3.679-4.633-5.846-7.982-4.198-4.422 2.178-3.218 13.719-3.218 27.118 0 20.86-24.854 22.418-30.92 22.428-1.914.006-3.802.07-5.714.173-25.659 1.405-164.532 9.819-181.148 28.282-.005.001 24.419 40.708 18.313 71.237"/><path fill="none" d="M402.876 457.211s34.603 12.212 89.556-4.07c38.347-11.362 54.893-15.784 61.39-17.425a14.825 14.825 0 0 1 7.166-.004c13.13 3.229 62.116 13.625 112.592 3.182 0 0 26.46-4.069 34.602 0 8.143 4.071 16.282-12.212 32.565-22.389s16.283-40.707 6.105-32.566c-10.177 8.142-36.637 32.566-42.742 32.566-5.684 0-120.996-14.655-136.621-16.116a38.077 38.077 0 0 0-3.573-.167H498.54s24.026-5.257 34.601-8.142c22.568-6.156 32.498-7.483 50.647-17.706 6.128-3.449 12.892-5.727 19.891-6.398a70.885 70.885 0 0 1 6.807-.32c11.592 0 5.671-40.415 3.059-55.485-.638-3.679-4.633-5.846-7.982-4.198-4.422 2.178-3.218 13.719-3.218 27.118 0 20.86-24.854 22.418-30.92 22.428-1.914.006-3.802.07-5.714.173-25.659 1.405-164.532 9.819-181.148 28.282-.005.001 24.419 40.708 18.313 71.237z"/><path fill="#FFF" d="M230.064 429.168s18.125-14.701 28.302-28.948c10.177-14.248 59.024-22.389 126.191-14.248 0 0 28.495 12.211 18.318 71.236 0 0-71.237-10.176-95.662 10.177-24.424 20.354-26.459 14.247-32.565 22.39-6.106 8.142-30.53 50.884-61.061 67.167-26.351 14.055-66.344 22.045-76.803 23.969a26.082 26.082 0 0 0-4.929 1.42c-9.173 3.637-42.685 15.921-56.672 7.179-16.283-10.177 34.601-28.497 48.849-26.461 12.431 1.776 62.024-24.323 74.489-31.02a16.327 16.327 0 0 0 4.899-4.017c8.25-9.997 38.662-47.206 38.662-52.484 0-6.106 0-10.178-4.07-14.248-4.071-4.07-16.283-8.142-36.637-4.07s28.689-28.042 28.689-28.042"/><path fill="none" d="M230.064 429.168s18.125-14.701 28.302-28.948c10.177-14.248 59.024-22.389 126.191-14.248 0 0 28.495 12.211 18.318 71.236 0 0-71.237-10.176-95.662 10.177-24.424 20.354-26.459 14.247-32.565 22.39-6.106 8.142-30.53 50.884-61.061 67.167-26.351 14.055-66.344 22.045-76.803 23.969a26.082 26.082 0 0 0-4.929 1.42c-9.173 3.637-42.685 15.921-56.672 7.179-16.283-10.177 34.601-28.497 48.849-26.461 12.431 1.776 62.024-24.323 74.489-31.02a16.327 16.327 0 0 0 4.899-4.017c8.25-9.997 38.662-47.206 38.662-52.484 0-6.106 0-10.178-4.07-14.248-4.071-4.07-16.283-8.142-36.637-4.07s28.689-28.042 28.689-28.042z"/><path fill="#FFF" d="M200.418 458.443c-7.426 3.28-14.017-.759-22.934-.272-14.16.769-26.221-17.574-23.76-33.229 3.246-20.674 77.62-14.325 77.709-2.155.056 7.208-7.247 19.612-20.02 27.889-4.106 2.663-10.995 7.767-10.995 7.767"/><path fill="none" d="M200.418 458.443c-7.426 3.28-14.017-.759-22.934-.272-14.16.769-26.221-17.574-23.76-33.229 3.246-20.674 77.62-14.325 77.709-2.155.056 7.208-7.247 19.612-20.02 27.889-4.106 2.663-10.995 7.767-10.995 7.767z"/><path fill="#100200" d="M163.251 417.101c13.005 1.566 35.625 13.5 29.721 29.43-6.641 17.905 5.103 11.506 8.71 10.408s11.043-9.381 11.842-7.449c.803 1.932-12.037 24.537-31.075 25.154-19.038.624-27.201-7.411-32.015-17.734-4.814-10.321-4.047-26.354 2.928-35.474 6.973-9.119 9.889-4.335 9.889-4.335"/><path fill="#FFF" d="M498.538 400.222s-26.46 0-36.637 2.035"/><path fill="none" d="M498.538 400.222s-26.46 0-36.637 2.035"/><path fill="#FFF" d="M238.541 421.764s26.279 8.567 1.682 42.358"/><path fill="none" d="M238.541 421.764s26.279 8.567 1.682 42.358"/><path fill="#FFF" d="M242.083 475.529s13.574-32.986 69.884-11.407"/><path fill="none" d="M242.083 475.529s13.574-32.986 69.884-11.407"/><path fill="#FFF" d="M576.571 357.229s7.45 4.321 7.45 16.533"/><path fill="none" d="M576.571 357.229s7.45 4.321 7.45 16.533"/><path fill="#FFF" d="M690.172 415.078s11.35 10.626-2.622 22.308"/><path fill="none" d="M690.172 415.078s11.35 10.626-2.622 22.308"/></g></svg>