<svg xmlns="http://www.w3.org/2000/svg" width="800" height="900" xml:space="preserve"><g stroke="#000" stroke-width="5" stroke-miterlimit="10"><path fill="#FFF" d="M526.574 379.868c32.869 1.908 84.401-46.61 121.928-32.549 0 0 24.899-7.234 30.177-25.328 0 0 10.72 20.269 39.852 30.208 0 0-19.305-1.335-42.771 41.057 0 0-28.937 43.897-48.161 58.784-19.225 14.893-38.836 22.938-62.298 14.204-23.457-8.735-35.029-8.258-51.019-6.906-15.991 1.35-45.433 1.752-45.433 1.752s-12.631-19.949-8.553-46.165c4.079-26.213 16.426-46.165 16.426-46.165s17.621 9.235 49.852 11.108"/><path fill="none" d="M526.574 379.868c32.869 1.908 84.401-46.61 121.928-32.549 0 0 24.899-7.234 30.177-25.328 0 0 10.72 20.269 39.852 30.208 0 0-19.305-1.335-42.771 41.057 0 0-28.937 43.897-48.161 58.784-19.225 14.893-38.836 22.938-62.298 14.204-23.457-8.735-35.029-8.258-51.019-6.906-15.991 1.35-45.433 1.752-45.433 1.752s-12.631-19.949-8.553-46.165c4.079-26.213 16.426-46.165 16.426-46.165s17.621 9.235 49.852 11.108z"/><path fill="#FFF" d="M360.549 398.174c22.533-43.261 52.809-50.771 79.164-42.116 26.36 8.655 37.012 12.702 37.012 12.702s-16.176 26.343-16.839 49.724c-.657 23.38 5.271 34.944 8.965 42.606 0 0-10.698-1.042-16.066 3.059-5.367 4.102-11.168 28.931-21.086 85.627-9.915 56.689-19.879 103.953-36.383 113.746-16.506 9.791-100.43 18.738-160.747 8.486-60.319-10.254-65.506-7.786-84.049-4.753s-88.101 11.478-94.256 9.336c-6.158-2.142-2.278-12.781 8.642-19.019 10.917-6.243 16.228-9.289 32.196-13.028 15.968-3.74 33.308-7.181 39.71-11.571 6.402-4.39 14.201-12.843 31.161-5.035 16.957 7.808 53.744-.706 86.05-12.596 32.308-11.893 72.587-20.528 94.416-10.932 0 0-5.356-79.859-.687-136.658 4.671-56.8 12.797-69.578 12.797-69.578"/><path fill="none" d="M360.549 398.174c22.533-43.261 52.809-50.771 79.164-42.116 26.36 8.655 37.012 12.702 37.012 12.702s-16.176 26.343-16.839 49.724c-.657 23.38 5.271 34.944 8.965 42.606 0 0-10.698-1.042-16.066 3.059-5.367 4.102-11.168 28.931-21.086 85.627-9.915 56.689-19.879 103.953-36.383 113.746-16.506 9.791-100.43 18.738-160.747 8.486-60.319-10.254-65.506-7.786-84.049-4.753s-88.101 11.478-94.256 9.336c-6.158-2.142-2.278-12.781 8.642-19.019 10.917-6.243 16.228-9.289 32.196-13.028 15.968-3.74 33.308-7.181 39.71-11.571 6.402-4.39 14.201-12.843 31.161-5.035 16.957 7.808 53.744-.706 86.05-12.596 32.308-11.893 72.587-20.528 94.416-10.932 0 0-5.356-79.859-.687-136.658 4.671-56.8 12.797-69.578 12.797-69.578z"/><path fill="#FFF" d="M611.438 429.836s17.758 80.782 19.159 119.827c1.869 51.949 10.479 92.269 16.228 114.417 1.444 5.563 6.714 6.544 11.896 8.146 4.126 1.277 7.568 1.499 9.903 1.525l76.775.3c1.299.016 1.755-1.726.608-2.338-10.393-5.549-29.92-9.103-38.15-12.175-6.545-2.438-11.896-3.993-18.786-5.13-1.594-.259-4.617-.688-6.229-.771h-.056c-5.138-.279-11.063-4.363-13.129-9.072-2.777-6.336-1.471-10.218-1.375-17.125.104-8.088.215-16.175.319-24.262l.66-49.646c.06-4.461.117-8.923.177-13.388l-9.114-165.307c-3.974-16.798-17.179-23.919-29.515-22.024-12.337 1.899-44.739 4.041-35.207 42.65 7.512 30.417 15.836 34.373 15.836 34.373"/><path fill="none" d="M611.438 429.836s17.758 80.782 19.159 119.827c1.869 51.949 10.479 92.269 16.228 114.417 1.444 5.563 6.714 6.544 11.896 8.146 4.126 1.277 7.568 1.499 9.903 1.525l76.775.3c1.299.016 1.755-1.726.608-2.338-10.393-5.549-29.92-9.103-38.15-12.175-6.545-2.438-11.896-3.993-18.786-5.13-1.594-.259-4.617-.688-6.229-.771h-.056c-5.138-.279-11.063-4.363-13.129-9.072-2.777-6.336-1.471-10.218-1.375-17.125.104-8.088.215-16.175.319-24.262l.66-49.646c.06-4.461.117-8.923.177-13.388l-9.114-165.307c-3.974-16.798-17.179-23.919-29.515-22.024-12.337 1.899-44.739 4.041-35.207 42.65 7.512 30.417 15.836 34.373 15.836 34.373M476.725 368.76s-32.845 52.58-7.874 92.33"/><path fill="#FFF" d="M703.16 343.099s-7.2-3.328-10.632-10.153"/><path fill="none" d="M703.16 343.099s-7.2-3.328-10.632-10.153"/><path d="M664.714 260.462c-6.785-18.739-33.85-59.686-73.583-21.956-25.227 23.953-65.844 55.985-96.754 48.35-30.91-7.633-6.785 62.927 35.184 66.397 41.97 3.469 81.173-21.977 92.48-56.449 11.309-34.469 42.673-36.342 42.673-36.342"/><path fill="#FFF" d="M679.309 327.218c-7.202-8.21-4.668-18.292-8.876-29.538-6.682-17.864 12.008-40.723 33.087-43.865 27.837-4.146 49.604 93.855 34.025 98.865-9.229 2.97-28.083-1.412-43.85-14.473-5.065-4.199-14.386-10.989-14.386-10.989"/><path fill="none" d="M679.309 327.218c-7.202-8.21-4.668-18.292-8.876-29.538-6.682-17.864 12.008-40.723 33.087-43.865 27.837-4.146 49.604 93.855 34.025 98.865-9.229 2.97-28.083-1.412-43.85-14.473-5.065-4.199-14.386-10.989-14.386-10.989z"/><path d="M717.414 262.889c3.222 17.319-2.995 51.152-25.813 49.982-25.652-1.318-12.713 11.179-9.854 15.365 2.859 4.19 16.483 10.397 14.324 12.204-2.155 1.807-38.306-3.674-46.761-27.856-8.455-24.184-5.08-38.392 6.231-48.723 11.312-10.331 37.822-17.198 52.329-11.918 14.512 5.28 9.544 10.946 9.544 10.946"/><path fill="#FFF" d="M244.479 617.668s-6.608 40.075-1.711 54.982"/><path fill="none" d="M244.479 617.668s-6.608 40.075-1.711 54.982"/><path fill="#FFF" d="M673.336 396.852c-6.116-7.722-15.328-40.462-16.753-52.742"/><path fill="none" d="M673.336 396.852c-6.116-7.722-15.328-40.462-16.753-52.742"/></g></svg>