<svg xmlns="http://www.w3.org/2000/svg" width="800" height="900" xml:space="preserve"><g stroke="#000" stroke-width="5" stroke-miterlimit="10"><path fill="#040004" d="M362.817 231.827c-12.469-8.326-47.125-21.06-54.366 19.522-4.599 25.758-14.914 63.28-37.043 72.442-22.129 9.163 23.956 41.144 50.927 24.527 26.97-16.618 39.367-49.521 30.843-75.445-8.525-25.922 9.639-41.046 9.639-41.046"/><path fill="#FFF" d="M401.436 265.755c-8.023-1.763-10.987-8.999-18.554-13.937-12.016-7.843-10.891-30.021.481-41.328 15.009-14.929 71.908 34.726 64.707 44.713-4.268 5.915-17.645 11.671-33.019 10.787-4.94-.284-13.615-.235-13.615-.235"/><path fill="none" d="M401.436 265.755c-8.023-1.763-10.987-8.999-18.554-13.937-12.016-7.843-10.891-30.021.481-41.328 15.009-14.929 71.908 34.726 64.707 44.713-4.268 5.915-17.645 11.671-33.019 10.787-4.94-.284-13.615-.235-13.615-.235z"/><path fill="#040004" d="M395.824 209.79c9.675 9.054 20.999 32.32 6.657 41.789-16.126 10.643-2.715 12.441.886 13.704s14.622-1.052 14.119 1.001c-.501 2.056-24.842 14.863-40.752 3.983-15.907-10.877-20.2-20.988-17.956-32.293 2.245-11.305 15.239-27.289 26.383-30.561s10.663 2.377 10.663 2.377"/><path fill="#FFF" d="M287.567 51.486s-9.074 29.491 29.491 56.713c0 0 36.835 56.335 55.449 73.714a8.398 8.398 0 0 1 1.967 2.725c5.393 12.178 39.954 91.461 37.863 118.655-2.269 29.491 6.806 34.028 27.222 58.982 20.417 24.954 15.881 90.741 15.881 90.741s-38.564 45.371-11.344 81.668c0 0 6.807 13.611 4.537 24.953-1.938 9.687-8.832 73.91-10.809 92.51-.318 3.022-1.275 5.941-2.854 8.538-7.194 11.813-23.769 58.886-18.097 143.955 0 0-13.611 40.834 0 47.641 11.114 5.561 66.087 5.063 85.888 4.696 4.556-.085 8.83-2.668 10.589-6.872 2.058-4.904 1.07-9.167-3.467-9.167-7.284 0-32.279-7.036-49.914-13.506-10.382-3.806-16.226-14.815-13.62-25.561l31.774-131.075s56.714-165.604 54.445-210.975c0 0 15.88-133.843-45.371-167.872 0 0-38.565-11.342-54.444-54.445-15.88-43.103-34.029-70.325-58.981-97.547-24.955-27.223-45.372-45.371-45.372-45.371s-29.49-77.128-40.833-43.1"/><path fill="none" d="M287.567 51.486s-9.074 29.491 29.491 56.713c0 0 36.835 56.335 55.449 73.714a8.398 8.398 0 0 1 1.967 2.725c5.393 12.178 39.954 91.461 37.863 118.655-2.269 29.491 6.806 34.028 27.222 58.982 20.417 24.954 15.881 90.741 15.881 90.741s-38.564 45.371-11.344 81.668c0 0 6.807 13.611 4.537 24.953-1.938 9.687-8.832 73.91-10.809 92.51-.318 3.022-1.275 5.941-2.854 8.538-7.194 11.813-23.769 58.886-18.097 143.955 0 0-13.611 40.834 0 47.641 11.114 5.561 66.087 5.063 85.888 4.696 4.556-.085 8.83-2.668 10.589-6.872 2.058-4.904 1.07-9.167-3.467-9.167-7.284 0-32.279-7.036-49.914-13.506-10.382-3.806-16.226-14.815-13.62-25.561l31.774-131.075s56.714-165.604 54.445-210.975c0 0 15.88-133.843-45.371-167.872 0 0-38.565-11.342-54.444-54.445-15.88-43.103-34.029-70.325-58.981-97.547-24.955-27.223-45.372-45.371-45.372-45.371s-29.49-77.128-40.833-43.1z"/><path fill="none" d="M477.946 288.09s19.282 42.427-46.981 63.978M455.439 453.018s49.907-13.609 77.131 4.537M416.875 804.642s18.975 2.27 29.905-4.536M411.835 292.964l5.04 19.405M411.835 292.964l5.04 19.405"/></g></svg>