<svg width="800" height="900" fill="none" xmlns="http://www.w3.org/2000/svg"><path d="M528.058 385.828s39.856-.28 46.387 20.146l14.975-60.654c-31.348 9.297-45.066-18.996-45.066-18.996-6.16-8.645-24.376-35.65-41.529-51.895-37.445-35.46-76.481-58.069-132.56-71.46-8.79-2.088-46.554-6.511-61.526-6.597-2.322-.007-5.58-.131-9.096-.329-1.009-.075-4.48 4.032-5.521 3.957-14.041 35.715-24.058 67.66-35.181 104.398 1.05-.446 2.099-.893 3.149-1.304 3.111-1.3 6.113-2.412 8.998-3.302 2.021-.634 5.359-1.633 7.421-1.739 19.992-1.283 41.176 1.105 59.351 7.939 18.135 6.831 35.779 15.765 49.223 27.377 12.362 10.709 14.669 26.069 24.931 36.172 8.478 8.379 18.837 11.22 28.754 12.11 20.472 1.826 38.383-.787 58.031 1.193 13.535 1.364 29.259 2.984 29.259 2.984Z" fill="#fff" stroke="#000" stroke-width="5" stroke-miterlimit="10"/><path d="M528.058 385.828s39.856-.28 46.387 20.146l14.975-60.654c-31.348 9.297-45.066-18.996-45.066-18.996-6.16-8.645-24.376-35.65-41.529-51.895-37.445-35.46-76.481-58.069-132.56-71.46-8.79-2.088-46.554-6.511-61.526-6.597-2.322-.007-5.58-.131-9.096-.329-1.009-.075-4.48 4.032-5.521 3.957-14.041 35.715-24.058 67.66-35.181 104.398 1.05-.446 2.099-.893 3.149-1.304 3.111-1.3 6.113-2.412 8.998-3.302 2.021-.634 5.359-1.633 7.421-1.739 19.992-1.283 41.176 1.105 59.351 7.939 18.135 6.831 35.779 15.765 49.223 27.377 12.362 10.709 14.669 26.069 24.931 36.172 8.478 8.379 18.837 11.22 28.754 12.11 20.472 1.826 38.383-.787 58.031 1.193 13.535 1.364 29.259 2.984 29.259 2.984Z" stroke="#000" stroke-width="5" stroke-miterlimit="10"/><path d="M477.859 363.067c-1.276 4.644-1.905 7.659-2.808 10.778-5.799 19.993-28.355 112.765-47.22 151.556-40.345 82.923-59.404 145.26-66.191 173.929-1.915 8.104 4.731 17.502 13.057 17.502l95.919 1.316c2.883 0 4.329-3.609 2.149-5.503-14.362-12.508-59.021-16.738-72.346-17.428-3.251-.168-5.397-5.862-3.911-8.754l78.99-149.529a40.586 40.586 0 0 0 1.884-4.073l73.048-183.603c2.168-5.447 3.382-11.3 2.933-17.144-1.137-14.709-10.662-24.947-22.57-28.384-14.887-4.302-43.467-12.069-48.724 37.03-.734 6.866-2.195 14.977-4.21 22.307Z" fill="#fff" stroke="#000" stroke-width="5" stroke-miterlimit="10"/><path d="M477.859 363.067c-1.276 4.644-1.905 7.659-2.808 10.778-5.799 19.993-28.355 112.765-47.22 151.556-40.345 82.923-59.404 145.26-66.191 173.929-1.915 8.104 4.731 17.502 13.057 17.502l95.919 1.316c2.883 0 4.329-3.609 2.149-5.503-14.362-12.508-59.021-16.738-72.346-17.428-3.251-.168-5.397-5.862-3.911-8.754l78.99-149.529a40.586 40.586 0 0 0 1.884-4.073l73.048-183.603c2.168-5.447 3.382-11.3 2.933-17.144-1.137-14.709-10.662-24.947-22.57-28.384-14.887-4.302-43.467-12.069-48.724 37.03-.734 6.866-2.195 14.977-4.21 22.307Z" stroke="#000" stroke-width="5" stroke-miterlimit="10"/><path d="M493.473 537.876c-85.091 8.037-175.665-28.461-263.647-56.6-11.999-3.83-43.358 6.556-52.377 15.348-20.066 19.558-38.028 46.983-59.361 55.535-6.907 2.772-13.426-4.94-9.795-11.437 19.206-34.373 48.897-80.791 69.175-113.359 4.954-7.962 15.458-10.296 23.457-5.419 86.753 52.846 157.554-2.151 216.407 48.309-24.466-14.434-74.366-51.725-102.526-74.945-48.166-39.731-75.62-63.445-87.163-113.059-10.194-43.812 24.605-98.068 78.446-85.443 51.921 12.173 57.083 103.48 62.322 108.546 64.343 62.226 127.645 99.87 149.689 190.959 4.53 18.722-8.222 40.016-24.627 41.565Z" fill="#fff" stroke="#000" stroke-width="5" stroke-miterlimit="10"/><path d="M493.473 537.876c-85.091 8.037-175.665-28.461-263.647-56.6-11.999-3.83-43.358 6.556-52.377 15.348-20.066 19.558-38.028 46.983-59.361 55.535-6.907 2.772-13.426-4.94-9.795-11.437 19.206-34.373 48.897-80.791 69.175-113.359 4.954-7.962 15.458-10.296 23.457-5.419 86.753 52.846 157.554-2.151 216.407 48.309-24.466-14.434-74.366-51.725-102.526-74.945-48.166-39.731-75.62-63.445-87.163-113.059-10.194-43.812 24.605-98.068 78.446-85.443 51.921 12.173 57.083 103.48 62.322 108.546 64.343 62.226 127.645 99.87 149.689 190.959 4.53 18.722-8.222 40.016-24.627 41.565Z" stroke="#000" stroke-width="5" stroke-miterlimit="10"/><path d="M568.32 388.133s1.116-9.78 7.824-16.489Z" fill="#fff"/><path d="M568.32 388.133s1.116-9.78 7.824-16.489" stroke="#000" stroke-width="5" stroke-miterlimit="10"/><path d="M568.32 388.133s1.116-9.78 7.824-16.489M368.407 305.351c-26.935-27.273-42.825-36.249-42.825-36.249" stroke="#000" stroke-width="5" stroke-miterlimit="10"/><path d="M589.765 343.729c9.451-10.499 22.783-8.78 36.593-15.898 21.929-11.304 54.133 9.226 61.377 35.831 9.564 35.131-113.006 78.013-121.814 58.763-5.216-11.409-2.46-36.297 11.92-58.535 4.621-7.152 11.924-20.161 11.924-20.161Z" fill="#fff" stroke="#000" stroke-width="5" stroke-miterlimit="10"/><path d="M589.765 343.729c9.451-10.499 22.783-8.78 36.593-15.898 21.929-11.304 54.133 9.226 61.377 35.831 9.564 35.131-113.006 78.013-121.814 58.763-5.216-11.409-2.46-36.297 11.92-58.535 4.621-7.152 11.924-20.161 11.924-20.161Z" stroke="#000" stroke-width="5" stroke-miterlimit="10"/><path d="M678.197 382.893c-21.755 6.776-66.159 3.938-68.125-25.551-2.216-33.157-16.296-14.631-21.242-10.323-4.944 4.309-10.849 22.757-13.495 20.26-2.647-2.494-1.108-49.768 28.668-64.311 29.775-14.543 48.538-12.372 63.53.592 14.993 12.956 27.848 45.967 23.274 65.408-4.574 19.443-12.61 13.925-12.61 13.925Z" fill="#000" stroke="#000" stroke-width="5" stroke-miterlimit="10"/><path d="M652.33 307.271c15.732-.182 51.8-11.82 28.076-46.993-19.491-28.895-4.446-31.503-9.203-60.305-3.821-23.156-36.663-30.263-66.612 7.3-27.26 34.187-2.28 44.462 21.332 60.739 23.614 16.273 26.407 39.259 26.407 39.259Z" fill="#000" stroke="#000" stroke-width="5" stroke-miterlimit="10"/><path d="M262.659 444.622c-10.761 29.451-12.483 43.278-12.483 43.278" stroke="#000" stroke-width="5" stroke-miterlimit="10"/></svg>