<svg xmlns="http://www.w3.org/2000/svg" width="800" height="900" xml:space="preserve"><g stroke="#000" stroke-width="5" stroke-miterlimit="10"><path fill="#FFF" d="M474.891 371.957s91.967-90.766 107.575-113.587c15.61-22.817 56.165-110.986 56.165-110.986 8.622-15.855 20.893-24.566 26.488-46.027 5.598-21.458 2.32-21.05-.944-20.437-3.264.613-40.247 35.934-41.026 55.067-.256 6.303-.896 7.065-2.029 10.226l-64.801 97.482-109.524 93.869"/><path fill="none" d="M474.891 371.957s91.967-90.766 107.575-113.587c15.61-22.817 56.165-110.986 56.165-110.986 8.622-15.855 20.893-24.566 26.488-46.027 5.598-21.458 2.32-21.05-.944-20.437-3.264.613-40.247 35.934-41.026 55.067-.256 6.303-.896 7.065-2.029 10.226l-64.801 97.482-109.524 93.869"/><path fill="#FFF" d="M295.001 475.453s15.215 7.686 34.578 12.049c21.932 4.943 39.709 2.477 39.709 2.477-2.444 23.699-9.76 49.104-13.788 76.291-2.229 15.035-8.253 45.214-13.613 69.89-8.398 38.684-15.251 125.721-7.441 144.063 5.315 12.49 29.76 20.601 55.721 24.492 27.433 4.111 13.243 13.814 6.126 13.957l-81.049.6c-17.166-.129-16.528-18.633-15.04-35.436 3.521-39.736-6.97-81.531-9.358-121.434-1.909-31.923 2.825-57.425 4.254-89.324 1.528-34.164-.099-97.625-.099-97.625"/><path fill="none" d="M295.001 475.453s15.215 7.686 34.578 12.049c21.932 4.943 39.709 2.477 39.709 2.477-2.444 23.699-9.76 49.104-13.788 76.291-2.229 15.035-8.253 45.214-13.613 69.89-8.398 38.684-15.251 125.721-7.441 144.063 5.315 12.49 29.76 20.601 55.721 24.492 27.433 4.111 13.243 13.814 6.126 13.957l-81.049.6c-17.166-.129-16.528-18.633-15.04-35.436 3.521-39.736-6.97-81.531-9.358-121.434-1.909-31.923 2.825-57.425 4.254-89.324 1.528-34.164-.099-97.625-.099-97.625z"/><path fill="#FFF" d="M487.782 409.742c-13.563 7.851-24.883 15.001-36.897 25.095-13.046 10.961-23.829 24.693-39.141 32.327-15.076 7.521-26.707 16.474-41.807 22.286l-10.894-87.715c10.333-2.386 36.885-13.336 50.899-60.899 8.297-28.163 19.126-46.405 46.862-60.011 38.89-19.068 48.157-44.644 48.324-77.739 3.739 9.573 6.919 18.618 9.556 28.854 2.637 10.238 10.681 5.974 12.981 16.452-15.469 23.063-33.485 56.133-27.831 84.218 5.386 26.728 21.758 57.56-12.052 77.132"/><path fill="none" d="M487.782 409.742c-13.563 7.851-24.883 15.001-36.897 25.095-13.046 10.961-23.829 24.693-39.141 32.327-15.076 7.521-26.707 16.474-41.807 22.286l-10.894-87.715c10.333-2.386 36.885-13.336 50.899-60.899 8.297-28.163 19.126-46.405 46.862-60.011 38.89-19.068 48.157-44.644 48.324-77.739 3.739 9.573 6.919 18.618 9.556 28.854 2.637 10.238 10.681 5.974 12.981 16.452-15.469 23.063-33.485 56.133-27.831 84.218 5.386 26.728 21.758 57.56-12.052 77.132z"/><path fill="none" d="M461.15 278.591s15.21 14.324 26.896 53.297c11.688 38.969 19.73 28.247 19.73 28.247M411.746 328.835s28.941 27.146 56.408 8.569c17.891-12.101-11.348-56.577-11.348-56.577"/><path fill="#FFF" d="M369.241 489.717c27.243-52.301-10.196-87.981-10.196-87.981a23.76 23.76 0 0 1-2.35.264 3.014 3.014 0 0 1-2.313-.899c-16.833-17.04-29.427-20.71-51.195-19.804-14.901.618-29.79-1.436-43.87-6.353-44.072-15.388-76.71-28.679-76.723-28.684 5.704-5.503 12.659-18.149 18.793-34.222 7.62-19.96 9.477-33.446 13.253-62.374 2.04-15.614 1.134-29.661 17.072-46.271 2.582-2.689 3.407-6.674 2.016-10.131-12.711-31.626 1.875-48.218-9.236-66.668-1.787-2.971-6.345-2.258-7.228 1.097-5.219 19.806-8.915 45.219-11.16 65.588-.439 3.958-1.403 7.821-2.922 11.501-7.12 17.219-14.962 34.321-22.067 51.924-16.078 32.611-36.786 62.474-46.666 84.126-5.584 12.24-1.916 26.687 8.675 34.983 29.126 22.817 81.062 58.002 104.312 73.575 6.588 4.416 13.547 8.197 20.686 11.656 22.267 10.781 36.426 26.883 87.525 29.676 4 .215 8.027.056 11.978-.604.609-.102 1.164-.223 1.616-.399"/><path fill="none" d="M369.241 489.717c27.243-52.301-10.196-87.981-10.196-87.981a23.76 23.76 0 0 1-2.35.264 3.014 3.014 0 0 1-2.313-.899c-16.833-17.04-29.427-20.71-51.195-19.804-14.901.618-29.79-1.436-43.87-6.353-44.072-15.388-76.71-28.679-76.723-28.684 5.704-5.503 12.659-18.149 18.793-34.222 7.62-19.96 9.477-33.446 13.253-62.374 2.04-15.614 1.134-29.661 17.072-46.271 2.582-2.689 3.407-6.674 2.016-10.131-12.711-31.626 1.875-48.218-9.236-66.668-1.787-2.971-6.345-2.258-7.228 1.097-5.219 19.806-8.915 45.219-11.16 65.588-.439 3.958-1.403 7.821-2.922 11.501-7.12 17.219-14.962 34.321-22.067 51.924-16.078 32.611-36.786 62.474-46.666 84.126-5.584 12.24-1.916 26.687 8.675 34.983 29.126 22.817 81.062 58.002 104.312 73.575 6.588 4.416 13.547 8.197 20.686 11.656 22.267 10.781 36.426 26.883 87.525 29.676 4 .215 8.027.056 11.978-.604.609-.102 1.164-.223 1.616-.399z"/><path fill="#FFF" d="M483.376 241.319c-6.104-6.325-4.334-14.52-8.088-23.399-5.962-14.096 8.598-33.172 25.684-36.492 22.559-4.386 43.137 73.534 30.587 78.147-7.432 2.734-22.921-.075-36.141-9.972-4.251-3.182-12.042-8.284-12.042-8.284"/><path fill="none" d="M483.376 241.319c-6.104-6.325-4.334-14.52-8.088-23.399-5.962-14.096 8.598-33.172 25.684-36.492 22.559-4.386 43.137 73.534 30.587 78.147-7.432 2.734-22.921-.075-36.141-9.972-4.251-3.182-12.042-8.284-12.042-8.284z"/><path d="M509.495 187.308c4.843 11.833-5.296 27.734-13.263 28.481-7.969.748-13.327 2.171-13.322 4.897 0 2.729 1.813 6.689 4.117 6.333 2.303-.358 6.822-2.981 8.384 1.214 1.561 4.197-1.708 17.042-9.509 22.717-7.792 5.67-21.702 2.071-29.95-10.101-8.251-12.169-2.574-34.156 7.802-48.058 5.005-6.704 12.438-11.704 19.587-13.58 11.792-3.089 21.402-3.513 26.154 8.097"/><path d="M461.15 203.295c-3.338 7.746-4.777 17.264-16.441 21.543-11.667 4.282-17.548-3.237-24.34 1.219-6.788 4.456-16.589 25.281-28.721 28.409-12.136 3.123-12.971-6.918-26.354-3.726-11.443 2.729-5.461 24.563-31.444 27.829-12.465 1.567-31.758-80.208-15.015-82.464 16.743-2.261 25.961 9.598 35.086 7.143 9.129-2.452 9.989-16.23 22.49-18.714 17.521-3.486 23.366 15.195 36.437 12.494 10.746-2.223 11.061-9.83 23.817-12.042 12.76-2.21 24.485 18.309 24.485 18.309"/><path fill="#FFF" d="M412.254 329.292c-32.941-27.405-87.914-58.443-103.296-71.219-21.269-17.663-84.449-91.329-84.449-91.329-12.637-12.88-10.742-1.179-22.01-20.282-11.267-19.103 1.797-22.664 5.104-22.968 3.306-.304 22.676 9.862 28.667 28.048 1.976 5.986 2.8 6.544 4.755 9.271l89.054 75.979 120.804 48.749"/><path fill="none" d="M412.254 329.292c-32.941-27.405-87.914-58.443-103.296-71.219-21.269-17.663-84.449-91.329-84.449-91.329-12.637-12.88-10.742-1.179-22.01-20.282-11.267-19.103 1.797-22.664 5.104-22.968 3.306-.304 22.676 9.862 28.667 28.048 1.976 5.986 2.8 6.544 4.755 9.271l89.054 75.979 120.804 48.749"/></g></svg>