<svg xmlns="http://www.w3.org/2000/svg" width="800" height="900" xml:space="preserve"><g stroke="#000" stroke-width="5" stroke-miterlimit="10"><path fill="#FFF" d="m264.618 300.337 33.868-31.263 59.92 59.92c23.446 23.446 62.524 54.708 80.761 72.945 18.238 18.236 44.289 70.341 57.316 83.366l20.842 20.843-33.869 5.21s-13.025-15.632-59.92-13.025c-46.895 2.604-59.92-13.026-70.341-31.264-10.421-18.236-7.815-36.473-33.868-65.13-26.053-28.658-39.079-46.895-46.894-52.104-7.816-5.209-10.421-7.814-10.421-7.814l2.606-41.684z"/><path fill="none" d="m264.618 300.337 33.868-31.263 59.92 59.92c23.446 23.446 62.524 54.708 80.761 72.945 18.238 18.236 44.289 70.341 57.316 83.366l20.842 20.843-33.869 5.21s-13.025-15.632-59.92-13.025c-46.895 2.604-59.92-13.026-70.341-31.264-10.421-18.236-7.815-36.473-33.868-65.13-26.053-28.658-39.079-46.895-46.894-52.104-7.816-5.209-10.421-7.814-10.421-7.814l2.606-41.684z"/><path fill="#FFF" d="M532.26 491.169c9.42.499 14.133 8.142 23.625 12.321 15.082 6.638 17.961 31.979 7.191 46.918-14.217 19.725-87.978-25.896-81.683-38.555 3.728-7.504 17.808-16.527 35.394-18.404 5.652-.603 15.473-2.28 15.473-2.28"/><path fill="none" d="M532.26 491.169c9.42.499 14.133 8.142 23.625 12.321 15.082 6.638 17.961 31.979 7.191 46.918-14.217 19.725-87.978-25.896-81.683-38.555 3.728-7.504 17.808-16.527 35.394-18.404 5.652-.603 15.473-2.28 15.473-2.28z"/><path d="M549.084 553.534c-12.654-8.449-29.84-32.692-15.361-46.104 16.283-15.077.754-14.605-3.563-15.363-4.314-.757-16.369 3.928-16.187 1.506.185-2.425 25.357-19.117 45.418-9.768 20.06 9.351 24.304 21.964 23.875 35.19-.428 13.228-9.637 29.44-21.651 35.237-12.019 5.792-12.531-.698-12.531-.698"/><path fill="#FFF" d="M436.725 435.462s12.316 4.601 23.425 13.408c15.102 11.974 17.426 35.539 38.288 62.825 23.64 30.912 65.029 65.101 65.029 65.101 3.785 3.715 11.963 5.994 16.746 8.375 5.938 2.962 11.873 5.908 17.81 8.861 11.866 5.905 23.725 11.819 35.536 17.825 22.49 11.436 27.203 17.634 50.502 27.158 0 0 20.843 5.211 41.685 5.211 15.633 0 33.436 6.576 31.264 13.025-.766 2.274-52.104 5.21-78.158-2.604-28.188-8.457-35.684-13.285-63.375-23.251-20.366-7.335-44.133-13.966-62.444-25.826-90.801-58.812-129.914-133.666-129.914-133.666"/><path fill="none" d="M436.725 435.462s12.316 4.601 23.425 13.408c15.102 11.974 17.426 35.539 38.288 62.825 23.64 30.912 65.029 65.101 65.029 65.101 3.785 3.715 11.963 5.994 16.746 8.375 5.938 2.962 11.873 5.908 17.81 8.861 11.866 5.905 23.725 11.819 35.536 17.825 22.49 11.436 27.203 17.634 50.502 27.158 0 0 20.843 5.211 41.685 5.211 15.633 0 33.436 6.576 31.264 13.025-.766 2.274-52.104 5.21-78.158-2.604-28.188-8.457-35.684-13.285-63.375-23.251-20.366-7.335-44.133-13.966-62.444-25.826-90.801-58.812-129.914-133.666-129.914-133.666"/><path fill="#FFF" d="M275.039 308.153c7.816-15.631 20.842-36.474 23.447-39.079 0 0-33.868-26.052-70.341-28.658-36.474-2.605-52.105 28.658-62.526 59.92-9.21 27.635-28.658 80.761-36.473 98.998-7.816 18.237-20.585 51.591-33.868 78.157-15.631 31.263-28.469 74.801-33.868 96.394-5.21 20.842-14.219 43.852-15.631 49.499-2.605 10.421-7.815 20.842 7.816 23.447 15.417 2.569 59.498 0 67.736 0 10.421 0 20.842-5.211 13.026-10.421-7.816-5.211-31.263-5.211-41.684-7.815s-18.237-5.211-13.026-15.632 44.289-80.763 65.131-112.025 59.809-101.685 80.762-130.261c28.658-39.078 31.263-28.656 36.474-28.656-.001 0 7.815-23.447 13.025-33.868"/><path fill="none" d="M275.039 308.153c7.816-15.631 20.842-36.474 23.447-39.079 0 0-33.868-26.052-70.341-28.658-36.474-2.605-52.105 28.658-62.526 59.92-9.21 27.635-28.658 80.761-36.473 98.998-7.816 18.237-20.585 51.591-33.868 78.157-15.631 31.263-28.469 74.801-33.868 96.394-5.21 20.842-14.219 43.852-15.631 49.499-2.605 10.421-7.815 20.842 7.816 23.447 15.417 2.569 59.498 0 67.736 0 10.421 0 20.842-5.211 13.026-10.421-7.816-5.211-31.263-5.211-41.684-7.815s-18.237-5.211-13.026-15.632 44.289-80.763 65.131-112.025 59.809-101.685 80.762-130.261c28.658-39.078 31.263-28.656 36.474-28.656-.001 0 7.815-23.447 13.025-33.868z"/><path fill="none" d="M60.761 576.414c5.859 7.893 32.688 11.202 32.688 11.202M467.361 441.658c-12.562-11.061-36.008-21.48-51.64-3.244s-6.487 46.497 12.39 59.721"/></g></svg>