<svg width="800" height="900" fill="none" xmlns="http://www.w3.org/2000/svg"><path d="M471.988 548.226c16.652 30.777 16.338 43.154 35.37 68.536 19.034 25.385 43.238 24.008 48.313 49.393 5.076 25.382-27.692 49.611-120.331 46.436-92.631-3.171-134.905-14.914-158.935-6.11-24.033 8.806-19.035 27.847-36.165 21.896-17.133-5.95-14.752-38.554-7.617-47.36 7.139-8.808 19.275-11.901 33.314-8.328 14.036 3.57 41.558 1.189 54.247-.713 12.688-1.903 80.578-6.565 104.691-33.108 0 0-126.583-34.795-122.142-40.51 4.448-5.711 28.556-40.932 32.202-50.133l76.931-19.039 60.122 19.04Z" fill="#fff" stroke="#000" stroke-width="5" stroke-miterlimit="10"/><path d="M471.988 548.226c16.652 30.777 16.338 43.154 35.37 68.536 19.034 25.385 43.238 24.008 48.313 49.393 5.076 25.382-27.692 49.611-120.331 46.436-92.631-3.171-134.905-14.914-158.935-6.11-24.033 8.806-19.035 27.847-36.165 21.896-17.133-5.95-14.752-38.554-7.617-47.36 7.139-8.808 19.275-11.901 33.314-8.328 14.036 3.57 41.558 1.189 54.247-.713 12.688-1.903 80.578-6.565 104.691-33.108 0 0-126.583-34.795-122.142-40.51 4.448-5.711 28.556-40.932 32.202-50.133l76.931-19.039 60.122 19.04Z" stroke="#000" stroke-width="5" stroke-miterlimit="10"/><path d="M299.47 674.088c-26.157-14.961-79.911-43.296-63.147-85.104 15.665-39.064 65.866-4.762 128.061 10.716 63.092 15.7 93.684 19.523 131.036 15.477 37.359-4.046 56.035-10.784 63.648-2.456 7.614 8.328 6.811 41.899-6.115 47.247-12.918 5.346-21.484-17.501-44.324-19.641-22.84-2.145-78.978 2.294-101.872 11.591-42.372 17.202-107.287 22.17-107.287 22.17Z" fill="#fff" stroke="#000" stroke-width="5" stroke-miterlimit="10"/><path d="M299.47 674.088c-26.157-14.961-79.911-43.296-63.147-85.104 15.665-39.064 65.866-4.762 128.061 10.716 63.092 15.7 93.684 19.523 131.036 15.477 37.359-4.046 56.035-10.784 63.648-2.456 7.614 8.328 6.811 41.899-6.115 47.247-12.918 5.346-21.484-17.501-44.324-19.641-22.84-2.145-78.978 2.294-101.872 11.591-42.372 17.202-107.287 22.17-107.287 22.17Z" stroke="#000" stroke-width="5" stroke-miterlimit="10"/><path d="M471.988 640.628s12.695-11.292 0-23.992Z" fill="#fff"/><path d="M471.988 640.628s12.695-11.292 0-23.992" stroke="#000" stroke-width="5" stroke-miterlimit="10"/><path d="M471.988 640.628s12.695-11.292 0-23.992M278.945 641.99c18.559 12.061 79.15 21.277 113.651 14.999" stroke="#000" stroke-width="5" stroke-miterlimit="10"/><path d="M277.633 530.912c-4.432-6.217-4.897-14.458-1.115-21.094 15.435-27.086 52.51-82.554 61.978-92.145 11.136-11.283 25.888-40.793 25.888-40.793l-20.145-21.261c-13.006 4.128-35.213 8.887-49.491 47.595-13.398 36.342-39.377 73.238-56.422 98.624-3.009 4.481-4.685 9.739-4.562 15.139.338 15.011 9.384 44.391 65.486 74.61 0 0 6.187 9.283 15.468 18.564 9.281 9.284 40.198 31.53 34.021 6.485-6.179-25.049-43.302-46.71-43.302-46.71l-27.804-39.014Z" fill="#fff" stroke="#000" stroke-width="5" stroke-miterlimit="10"/><path d="M277.633 530.912c-4.432-6.217-4.897-14.458-1.115-21.094 15.435-27.086 52.51-82.554 61.978-92.145 11.136-11.283 25.888-40.793 25.888-40.793l-20.145-21.261c-13.006 4.128-35.213 8.887-49.491 47.595-13.398 36.342-39.377 73.238-56.422 98.624-3.009 4.481-4.685 9.739-4.562 15.139.338 15.011 9.384 44.391 65.486 74.61 0 0 6.187 9.283 15.468 18.564 9.281 9.284 40.198 31.53 34.021 6.485-6.179-25.049-43.302-46.71-43.302-46.71l-27.804-39.014Z" stroke="#000" stroke-width="5" stroke-miterlimit="10"/><path d="M527.897 530.912c4.434-6.217 4.899-14.458 1.117-21.094-15.432-27.086-52.507-82.554-61.974-92.145-11.136-11.283-25.892-40.793-25.892-40.793l20.145-21.261c13.01 4.128 35.214 8.887 49.491 47.595 13.402 36.342 39.384 73.238 56.423 98.624 3.008 4.481 4.683 9.739 4.561 15.139-.338 15.011-9.377 44.391-65.484 74.61 0 0-6.188 9.283-15.469 18.564-9.281 9.284-40.198 31.53-34.017 6.485 6.175-25.049 43.297-46.71 43.297-46.71l27.802-39.014Z" fill="#fff" stroke="#000" stroke-width="5" stroke-miterlimit="10"/><path d="M527.897 530.912c4.434-6.217 4.899-14.458 1.117-21.094-15.432-27.086-52.507-82.554-61.974-92.145-11.136-11.283-25.892-40.793-25.892-40.793l20.145-21.261c13.01 4.128 35.214 8.887 49.491 47.595 13.402 36.342 39.384 73.238 56.423 98.624 3.008 4.481 4.683 9.739 4.561 15.139-.338 15.011-9.377 44.391-65.484 74.61 0 0-6.188 9.283-15.469 18.564-9.281 9.284-40.198 31.53-34.017 6.485 6.175-25.049 43.297-46.71 43.297-46.71l27.802-39.014Z" stroke="#000" stroke-width="5" stroke-miterlimit="10"/><path d="M468.37 417.673c-11.42-33.318-5.74-62.054-5.74-62.054s-13.166-3.49-28.393-15.39c-15.225-11.897-11.426-52.042-11.426-52.042s-.791.163-19.347.163c-18.56 0-19.539-.163-19.539-.163s3.99 40.146-11.238 52.042c-15.226 11.899-28.386 15.39-28.386 15.39s5.673 28.736-5.75 62.054c0 0 10.661 70.582-3.613 130.554 0 0 29.978 11.899 68.526 11.899 38.543 0 68.524-11.899 68.524-11.899-14.276-59.972-3.618-130.554-3.618-130.554Z" fill="#fff" stroke="#000" stroke-width="5" stroke-miterlimit="10"/><path d="M468.37 417.673c-11.42-33.318-5.74-62.054-5.74-62.054s-13.166-3.49-28.393-15.39c-15.225-11.897-11.426-52.042-11.426-52.042s-.791.163-19.347.163c-18.56 0-19.539-.163-19.539-.163s3.99 40.146-11.238 52.042c-15.226 11.899-28.386 15.39-28.386 15.39s5.673 28.736-5.75 62.054c0 0 10.661 70.582-3.613 130.554 0 0 29.978 11.899 68.526 11.899 38.543 0 68.524-11.899 68.524-11.899-14.276-59.972-3.618-130.554-3.618-130.554Z" stroke="#000" stroke-width="5" stroke-miterlimit="10"/><path d="M369.576 205.182c-22.319 46.281 12.916 101.865 33.191 102.134 20.272.266 56.96-54.372 35.867-101.224-13.299-29.532-54.986-30.084-69.058-.91Z" fill="#fff" stroke="#000" stroke-width="5" stroke-miterlimit="10"/><path d="M369.576 205.182c-22.319 46.281 12.916 101.865 33.191 102.134 20.272.266 56.96-54.372 35.867-101.224-13.299-29.532-54.986-30.084-69.058-.91Z" stroke="#000" stroke-width="5" stroke-miterlimit="10"/><path d="M534.272 260.906c-17.795-9.778-13.28-22.312-29.075-34.846-15.789-12.534-35.353-4.067-43.612-24.318-8.188-20.064-34.853-31.526-58.084-31.245h-.073c-23.237-.281-49.904 11.18-58.089 31.245-8.259 20.251-27.818 11.784-43.612 24.318-15.788 12.534-11.281 25.068-29.075 34.846-17.794 9.778-19.248 8.875-18.549 16.55 1.027 11.317 41.498 6.844 71.85 7.618 5.949.151 27.617 6.177 33.411 7.533 11.852 2.777 27.078 2.384 27.392-1.865.505-6.772-1.667-22.874-6.287-31.117-4.616-8.243-14.154-5.581-14.154-17.674 0-11.281 4.632-6.89 15.282-16.921 9.392-8.845 18.794-19.091 21.868-27.411 3.075 8.32 12.471 18.566 21.86 27.411 10.653 10.032 15.287 5.641 15.287 16.921 0 12.093-9.542 9.43-14.158 17.674-4.616 8.243-6.785 24.346-6.284 31.117.314 4.248 15.54 4.641 27.39 1.865 5.795-1.356 27.462-7.382 33.414-7.533 30.35-.774 70.82 3.699 71.847-7.618.695-7.675-.748-6.772-18.549-16.55Z" fill="#100200" stroke="#000" stroke-width="5" stroke-miterlimit="10"/><path d="M359.461 349.267s16.525 24.88 44.238 24.88c27.709 0 44.236-24.88 44.236-24.88" stroke="#000" stroke-width="5" stroke-miterlimit="10"/><path d="M310.28 674.088s-12.891 17.734 0 29.482Z" fill="#fff"/><path d="M310.28 674.088s-12.891 17.734 0 29.482" stroke="#000" stroke-width="5" stroke-miterlimit="10"/><path d="M310.28 674.088s-12.891 17.734 0 29.482" stroke="#000" stroke-width="5" stroke-miterlimit="10"/></svg>