<svg width="800" height="900" fill="none" xmlns="http://www.w3.org/2000/svg"><path d="M665.506 440.162c13.609-5.005 49.09-9.138 46.716 30.667-1.506 25.265-.3 62.893 18.439 76.521 18.74 13.626-31.842 33.274-53.447 11.54-21.608-21.735-25.818-55.487-11.935-77.938 13.888-22.456.227-40.79.227-40.79Z" fill="#000" stroke="#000" stroke-width="5" stroke-miterlimit="10"/><path d="M480.469 439.625c8.778-4.39 28.529-10.973 30.723-15.362 2.197-4.389 0-74.615 2.197-92.171 2.194-17.556 8.776-61.447 17.556-85.587 8.778-24.14 17.557-48.28 19.751-65.836 2.193-17.556-4.273-52.669 17.556-52.669 30.839 0-2.194 43.891-4.388 59.253-2.195 15.361-13.166 76.808-17.557 96.559-4.389 19.751-6.584 24.14-4.389 52.669 2.195 28.529 13.166 103.144 13.166 103.144l-26.334 6.583-43.892 6.584-4.389-13.167Z" fill="#fff" stroke="#000" stroke-width="5" stroke-miterlimit="10"/><path d="M480.469 439.625c8.778-4.39 28.529-10.973 30.723-15.362 2.197-4.389 0-74.615 2.197-92.171 2.194-17.556 8.776-61.447 17.556-85.587 8.778-24.14 17.557-48.28 19.751-65.836 2.193-17.556-4.273-52.669 17.556-52.669 30.839 0-2.194 43.891-4.388 59.253-2.195 15.361-13.166 76.808-17.557 96.559-4.389 19.751-6.584 24.14-4.389 52.669 2.195 28.529 13.166 103.144 13.166 103.144l-26.334 6.583-43.892 6.584-4.389-13.167Z" stroke="#000" stroke-width="5" stroke-miterlimit="10"/><path d="M377.323 514.24c-10.973 4.389-57.058 26.335-76.809 41.696-19.751 15.362-43.891 41.697-54.863 48.281-10.973 6.585-46.086 24.139-59.253 32.919-13.167 8.778-72.42 59.253-83.392 65.836-10.973 6.582-32.918 24.139-37.308 30.72-4.389 6.586 13.168 32.92 17.557 35.113 4.389 2.196 26.334 4.389 28.529 0 2.194-4.389-10.973-6.584-13.167-10.973-2.195-4.389-4.39-8.778 0-17.556 4.389-8.778 19.75-17.558 43.89-30.724 24.14-13.167 105.338-48.281 125.089-57.058 19.751-8.778 98.754-37.308 103.143-39.501 0 0 10.973 6.583 39.502 6.583 28.529 0 74.614-4.388 85.586-6.583 10.972-2.195 61.447-10.973 61.447-10.973s-4.389 21.945-2.195 43.892c2.195 21.946 10.974 87.781 10.974 100.948 0 13.168 2.194 19.751 8.777 21.946 6.584 2.196 74.615 2.196 76.808 0 2.196-2.195 4.389-4.389-4.388-8.777-8.778-4.389-24.139-4.388-32.919-6.585-8.779-2.194-19.75-6.584-24.139-13.165-4.39-6.585-2.196-39.502 0-52.67 2.195-13.166 10.972-54.863 13.166-68.031 2.194-13.166 8.777-37.308 4.389-46.085-4.389-8.777-41.696-10.973-54.864-13.167-13.165-2.195-70.223-8.777-70.223-8.777l-26.335 15.362-79.002-52.671Z" fill="#fff" stroke="#000" stroke-width="5" stroke-miterlimit="10"/><path d="M377.323 514.24c-10.973 4.389-57.058 26.335-76.809 41.696-19.751 15.362-43.891 41.697-54.863 48.281-10.973 6.585-46.086 24.139-59.253 32.919-13.167 8.778-72.42 59.253-83.392 65.836-10.973 6.582-32.918 24.139-37.308 30.72-4.389 6.586 13.168 32.92 17.557 35.113 4.389 2.196 26.334 4.389 28.529 0 2.194-4.389-10.973-6.584-13.167-10.973-2.195-4.389-4.39-8.778 0-17.556 4.389-8.778 19.75-17.558 43.89-30.724 24.14-13.167 105.338-48.281 125.089-57.058 19.751-8.778 98.754-37.308 103.143-39.501 0 0 10.973 6.583 39.502 6.583 28.529 0 74.614-4.388 85.586-6.583 10.972-2.195 61.447-10.973 61.447-10.973s-4.389 21.945-2.195 43.892c2.195 21.946 10.974 87.781 10.974 100.948 0 13.168 2.194 19.751 8.777 21.946 6.584 2.196 74.615 2.196 76.808 0 2.196-2.195 4.389-4.389-4.388-8.777-8.778-4.389-24.139-4.388-32.919-6.585-8.779-2.194-19.75-6.584-24.139-13.165-4.39-6.585-2.196-39.502 0-52.67 2.195-13.166 10.972-54.863 13.166-68.031 2.194-13.166 8.777-37.308 4.389-46.085-4.389-8.777-41.696-10.973-54.864-13.167-13.165-2.195-70.223-8.777-70.223-8.777l-26.335 15.362-79.002-52.671Z" stroke="#000" stroke-width="5" stroke-miterlimit="10"/><path d="M587.808 727.818s-13.874 2.902-23.246 0" stroke="#000" stroke-width="5" stroke-miterlimit="10"/><path d="M577.026 505.461c2.196 17.559-4.389 50.475-6.583 70.226-2.197 19.75-6.585 39.5-6.585 59.253 0 19.751 6.585 103.143 10.973 109.727 4.389 6.585 10.973 6.585 21.946 10.974 10.973 4.388 19.751 4.388 24.138 8.777 4.389 4.388 0 4.388-6.583 4.388-6.584 0-39.501 4.389-48.28 0-8.779-4.388-13.168-21.945-21.946-65.835-8.778-43.892-13.167-103.144-13.167-127.282V542.77l-6.584-26.335 15.362-13.166 30.724-2.196 6.585 4.388Z" fill="#fff" stroke="#000" stroke-width="5" stroke-miterlimit="10"/><path d="M577.026 505.461c2.196 17.559-4.389 50.475-6.583 70.226-2.197 19.75-6.585 39.5-6.585 59.253 0 19.751 6.585 103.143 10.973 109.727 4.389 6.585 10.973 6.585 21.946 10.974 10.973 4.388 19.751 4.388 24.138 8.777 4.389 4.388 0 4.388-6.583 4.388-6.584 0-39.501 4.389-48.28 0-8.779-4.388-13.168-21.945-21.946-65.835-8.778-43.892-13.167-103.144-13.167-127.282V542.77l-6.584-26.335 15.362-13.166 30.724-2.196 6.585 4.388Z" stroke="#000" stroke-width="5" stroke-miterlimit="10"/><path d="M377.324 514.239c10.973-4.389 54.864-41.696 65.836-50.474 10.973-8.777 37.308-24.139 37.308-24.139s21.946 2.195 41.696 2.195c19.751 0 32.92-2.195 32.92-2.195s0 6.584 6.583 8.777c6.584 2.196 21.946 0 32.919-4.388 10.972-4.389 30.723 17.557 30.723 17.557s-43.891 15.362-50.473 26.335c0 0-2.196 2.194 0 8.778 2.195 6.584 2.195 8.776 2.195 8.776s-19.751-4.388-32.919 4.389c-13.166 8.778-13.166 26.335-13.166 30.724 0 0-8.778 8.778-28.529 13.166-19.75 4.389-32.919 4.389-46.085 13.166l-79.008-52.667Z" fill="#fff" stroke="#000" stroke-width="5" stroke-miterlimit="10"/><path d="M377.324 514.239c10.973-4.389 54.864-41.696 65.836-50.474 10.973-8.777 37.308-24.139 37.308-24.139s21.946 2.195 41.696 2.195c19.751 0 32.92-2.195 32.92-2.195s0 6.584 6.583 8.777c6.584 2.196 21.946 0 32.919-4.388 10.972-4.389 30.723 17.557 30.723 17.557s-43.891 15.362-50.473 26.335c0 0-2.196 2.194 0 8.778 2.195 6.584 2.195 8.776 2.195 8.776s-19.751-4.388-32.919 4.389c-13.166 8.778-13.166 26.335-13.166 30.724 0 0-8.778 8.778-28.529 13.166-19.75 4.389-32.919 4.389-46.085 13.166l-79.008-52.667Z" stroke="#000" stroke-width="5" stroke-miterlimit="10"/><path d="M628.066 460.497c7.944.062 12.297-6.123 20.494-9.156 13.017-4.809 16.73-25.972 8.438-39.08-10.949-17.31-75.294 17.288-70.649 28.256 2.752 6.494 14.132 14.801 28.82 17.278 4.725.794 12.897 2.702 12.897 2.702Z" fill="#fff" stroke="#000" stroke-width="5" stroke-miterlimit="10"/><path d="M628.066 460.497c7.944.062 12.297-6.123 20.494-9.156 13.017-4.809 16.73-25.972 8.438-39.08-10.949-17.31-75.294 17.288-70.649 28.256 2.752 6.494 14.132 14.801 28.82 17.278 4.725.794 12.897 2.702 12.897 2.702Z" stroke="#000" stroke-width="5" stroke-miterlimit="10"/><path d="M645.393 408.918c-11.07 6.457-26.758 25.966-15.266 37.984 12.921 13.506-.117 12.319-3.783 12.733-3.665.417-13.563-4.137-13.531-2.09.029 2.049 20.344 17.366 37.689 10.527 17.341-6.836 21.555-17.228 21.87-28.372.313-11.145-6.607-25.249-16.414-30.731-9.803-5.482-10.565-.051-10.565-.051Z" fill="#000" stroke="#000" stroke-width="5" stroke-miterlimit="10"/><path d="M555.904 443.191c-9.601 9.602-11.075 21.288-5.212 31.548 8.777 15.361 23.184 17.274 23.184 17.274M456.328 566.909c-4.388 2.196-10.973 6.585-10.973 6.585M109.945 698.048c4.149 9.312 15.049 21.257 15.049 21.257" stroke="#000" stroke-width="5" stroke-miterlimit="10"/></svg>