<svg width="800" height="900" viewBox="0 0 800 900" fill="none" xmlns="http://www.w3.org/2000/svg">
<path d="M402.539 270.781C409.974 250.022 415.795 196.042 355.316 200.164C316.925 202.783 259.714 201.437 238.76 173.127C217.802 144.819 188.592 221.965 221.911 254.528C255.229 287.086 306.588 293.052 340.536 271.651C374.488 250.253 402.539 270.781 402.539 270.781Z" fill="#100200" stroke="black" stroke-width="5" stroke-miterlimit="10"/>
<path d="M409.46 418.199C409.46 418.199 406.125 454.896 389.443 478.248C372.763 501.6 346.075 554.977 339.402 574.994C339.402 574.994 307.811 649.214 299.37 671.74C296.61 679.099 295.372 685.189 295.027 690.154C294.346 699.929 301.53 708.45 311.293 709.335C329.994 711.037 364.592 715.446 369.426 725.116C373.814 733.894 321.907 732.567 285.866 730.632C267.805 729.662 254.434 713.472 256.894 695.554C262.898 651.735 274.46 577.835 286.026 561.649C302.705 538.297 346.075 408.191 409.46 418.199Z" fill="white" stroke="black" stroke-width="5" stroke-miterlimit="10"/>
<path d="M409.46 418.199C409.46 418.199 406.125 454.896 389.443 478.248C372.763 501.6 346.075 554.977 339.402 574.994C339.402 574.994 307.811 649.214 299.37 671.74C296.61 679.099 295.372 685.189 295.027 690.154C294.346 699.929 301.53 708.45 311.293 709.335C329.994 711.037 364.592 715.446 369.426 725.116C373.814 733.894 321.907 732.567 285.866 730.632C267.805 729.662 254.434 713.472 256.894 695.554C262.898 651.735 274.46 577.835 286.026 561.649C302.705 538.297 346.075 408.191 409.46 418.199Z" stroke="black" stroke-width="5" stroke-miterlimit="10"/>
<path d="M384.142 336.629C384.142 336.629 397.778 356.482 377.762 363.154C377.762 363.154 281.017 359.818 207.623 413.195C134.23 466.571 137.566 579.997 137.566 579.997C137.566 579.997 194.279 516.612 237.647 533.293C237.647 533.293 301.032 466.572 321.049 469.909C321.049 469.909 341.065 466.574 364.417 446.557C387.77 426.54 409.064 364.471 425.102 363.813C441.148 363.155 397.196 316.772 384.142 336.629Z" fill="white" stroke="black" stroke-width="5" stroke-miterlimit="10"/>
<path d="M384.142 336.629C384.142 336.629 397.778 356.482 377.762 363.154C377.762 363.154 281.017 359.818 207.623 413.195C134.23 466.571 137.566 579.997 137.566 579.997C137.566 579.997 194.279 516.612 237.647 533.293C237.647 533.293 301.032 466.572 321.049 469.909C321.049 469.909 341.065 466.574 364.417 446.557C387.77 426.54 409.064 364.471 425.102 363.813C441.148 363.155 397.196 316.772 384.142 336.629Z" stroke="black" stroke-width="5" stroke-miterlimit="10"/>
<path d="M392.175 330.758C386.261 320.222 391.311 309.891 389.33 296.759C386.19 275.889 411.646 255.429 435.184 256.857C466.262 258.743 467.386 369.794 449.373 371.651C438.707 372.746 419.302 363.692 405.236 345.946C400.709 340.239 392.175 330.758 392.175 330.758Z" fill="white" stroke="black" stroke-width="5" stroke-miterlimit="10"/>
<path d="M392.175 330.758C386.261 320.222 391.311 309.891 389.33 296.759C386.19 275.889 411.646 255.429 435.184 256.857C466.262 258.743 467.386 369.794 449.373 371.651C438.707 372.746 419.302 363.692 405.236 345.946C400.709 340.239 392.175 330.758 392.175 330.758Z" stroke="black" stroke-width="5" stroke-miterlimit="10"/>
<path d="M448.146 269.86C447.668 289.34 433.197 324.537 408.768 318.045C381.304 310.75 392.449 327.235 394.584 332.421C396.718 337.608 410.04 347.446 407.294 348.906C404.546 350.365 369.248 334.552 365.635 306.443C362.019 278.333 372.762 265.107 387.371 256.516C401.981 247.925 425.834 246.791 440.325 255.828C454.819 264.865 448.146 269.86 448.146 269.86Z" fill="#100200" stroke="black" stroke-width="5" stroke-miterlimit="10"/>
<path d="M140.314 541.783C140.314 541.783 122.555 611.692 169.26 641.716C215.964 671.741 262.669 621.699 262.669 621.699C262.669 621.699 352.743 461.568 376.098 454.896C399.451 448.223 486.189 424.872 529.557 354.815C529.557 354.815 549.574 331.462 562.917 324.79C576.261 318.117 609.622 318.117 622.967 314.782C636.312 311.447 626.301 281.422 636.312 264.741C646.319 248.061 663 228.044 663 214.7C663 201.355 629.64 224.708 629.64 224.708L559.583 284.757C559.583 284.757 406.125 368.158 389.444 381.502C372.765 394.847 249.327 458.231 219.302 514.945C219.301 514.945 144.728 525.249 140.314 541.783Z" fill="white" stroke="black" stroke-width="5" stroke-miterlimit="10"/>
<path d="M140.314 541.783C140.314 541.783 122.555 611.692 169.26 641.716C215.964 671.741 262.669 621.699 262.669 621.699C262.669 621.699 352.743 461.568 376.098 454.896C399.451 448.223 486.189 424.872 529.557 354.815C529.557 354.815 549.574 331.462 562.917 324.79C576.261 318.117 609.622 318.117 622.967 314.782C636.312 311.447 626.301 281.422 636.312 264.741C646.319 248.061 663 228.044 663 214.7C663 201.355 629.64 224.708 629.64 224.708L559.583 284.757C559.583 284.757 406.125 368.158 389.444 381.502C372.765 394.847 249.327 458.231 219.302 514.945C219.301 514.945 144.728 525.249 140.314 541.783Z" stroke="black" stroke-width="5" stroke-miterlimit="10"/>
<path d="M219.302 514.945C219.302 514.945 202.621 534.962 192.613 561.649" stroke="black" stroke-width="5" stroke-miterlimit="10"/>
<path d="M359.962 363.552C359.962 363.552 349.854 387.064 352.96 404.298Z" fill="white"/>
<path d="M359.962 363.552C359.962 363.552 349.854 387.064 352.96 404.298" stroke="black" stroke-width="5" stroke-miterlimit="10"/>
<path d="M359.962 363.552C359.962 363.552 349.854 387.064 352.96 404.298" stroke="black" stroke-width="5" stroke-miterlimit="10"/>
<path d="M538.156 296.453C538.156 296.453 555.485 308.526 550.862 333.338Z" fill="white"/>
<path d="M538.156 296.453C538.156 296.453 555.485 308.526 550.862 333.338" stroke="black" stroke-width="5" stroke-miterlimit="10"/>
<path d="M538.156 296.453C538.156 296.453 555.485 308.526 550.862 333.338" stroke="black" stroke-width="5" stroke-miterlimit="10"/>
</svg>
