<svg xmlns="http://www.w3.org/2000/svg" width="800" height="900" xml:space="preserve"><g stroke="#000" stroke-width="5" stroke-miterlimit="10"><path fill="#FFF" d="M295.024 477.46c10.36-17.753 34.822-23.037 55.273-40.8 0 0 30.334 13.247 37.271 15.277 26.083 7.643 51.417 11.675 78.186 15.438 46.543 6.54 84.96 21.816 131.19 25.012 16.511 1.142 36.714 4.146 55.241 5.688 1.245.102 7.876.542 11.65.547 27.245.03 39.679 1.41 58.466.03 15.657-1.149 31.024-15.767 39.122-7.396 5.642 5.828-35.227 29.807-46.865 35.083-8.903 4.037-36.295 19.175-35.479-3.271a.548.548 0 0 0-.509-.575c-43.932-2.347-84.238 7.981-127.436 12.507-31.591 3.313-56.933-4.947-90.46-4.444-27.629.414-69.112 5.111-98.687 5.091-16.06-.01-33.105-2.481-45.656-13.343-16.049-13.892-7.926-30.55-21.307-44.844"/><path fill="none" d="M295.024 477.46c10.36-17.753 34.822-23.037 55.273-40.8 0 0 30.334 13.247 37.271 15.277 26.083 7.643 51.417 11.675 78.186 15.438 46.543 6.54 84.96 21.816 131.19 25.012 16.511 1.142 36.714 4.146 55.241 5.688 1.245.102 7.876.542 11.65.547 27.245.03 39.679 1.41 58.466.03 15.657-1.149 31.024-15.767 39.122-7.396 5.642 5.828-35.227 29.807-46.865 35.083-8.903 4.037-36.295 19.175-35.479-3.271a.548.548 0 0 0-.509-.575c-43.932-2.347-84.238 7.981-127.436 12.507-31.591 3.313-56.933-4.947-90.46-4.444-27.629.414-69.112 5.111-98.687 5.091-16.06-.01-33.105-2.481-45.656-13.343-16.049-13.892-7.926-30.55-21.307-44.844"/><path fill="#FFF" d="M292.659 475.164c-22.97-20.335-61.279-26.989-93.954-29.828-3.891-.339-34.99-14.533-34.273-18.07.211-1.027-.284-1.944-.241-2.949-3.197-.694-4.801-1.785-8.227-2.488-22.012-4.528-38.979 1.482-59.129 11.146-6.022 2.893-11.618-2.107-9.912-8.777.022-.088.017-.205.063-.286 4.866-8.206 11.134-15.385 16.326-23.374 15.271-5.57 29.854-11.484 43.562-19.94 3.567-2.2 7.29-4.123 11.18-5.686.296-.118.6-.243.918-.375 13.486-5.591 28.624-13.202 43.356-15.183 20.769-2.792 35.676-.704 55.927 14.875 25.661 19.742 55.275 48.827 92.042 62.431 0 0-8.046 7.609-29.444 19.271-16.214 8.836-22.817 16.388-25.828 21.532l-2.366-2.299z"/><path fill="none" d="M292.659 475.164c-22.97-20.335-61.279-26.989-93.954-29.828-3.891-.339-34.99-14.533-34.273-18.07.211-1.027-.284-1.944-.241-2.949-3.197-.694-4.801-1.785-8.227-2.488-22.012-4.528-38.979 1.482-59.129 11.146-6.022 2.893-11.618-2.107-9.912-8.777.022-.088.017-.205.063-.286 4.866-8.206 11.134-15.385 16.326-23.374 15.271-5.57 29.854-11.484 43.562-19.94 3.567-2.2 7.29-4.123 11.18-5.686.296-.118.6-.243.918-.375 13.486-5.591 28.624-13.202 43.356-15.183 20.769-2.792 35.676-.704 55.927 14.875 25.661 19.742 55.275 48.827 92.042 62.431 0 0-8.046 7.609-29.444 19.271-16.214 8.836-22.817 16.388-25.828 21.532l-2.366-2.299z"/><path fill="none" d="M148.488 420.667s-13.109-18.203 5.446-28.495c29.197-16.194 48.019 9.223 44.526 53.495"/><path fill="none" d="M143.946 420.345s-15.35-17.778 1.796-34.611c4.186-4.111 3.035-6.274 3.035-6.274"/><path fill="#FFF" d="M149.185 407.545s-2.686 3.021.527 12.8c7.864 25.915 42.304 79.849 60.468 105.061 4.64 6.441 12.085 10.239 20.022 10.275 29.678.134 85.22.568 94.485.035.995-.057 1.987-.104 2.98-.146 6.951-.3 12.8.311 19.768.072 26.479-.896 49.643 1.133 49.573-.942-.188-5.896-17.672-11.771-30.569-12.672-5.218-.363-20.85 1.681-20.85 1.681-28.073-.863-66.178-18.932-103.83-20.396-3.28-.126-6.258-1.976-7.784-4.884l-37.438-69.192"/><path fill="none" d="M149.185 407.545s-2.686 3.021.527 12.8c7.864 25.915 42.304 79.849 60.468 105.061 4.64 6.441 12.085 10.239 20.022 10.275 29.678.134 85.22.568 94.485.035.995-.057 1.987-.104 2.98-.146 6.951-.3 12.8.311 19.768.072 26.479-.896 49.643 1.133 49.573-.942-.188-5.896-17.672-11.771-30.569-12.672-5.218-.363-20.85 1.681-20.85 1.681-28.073-.863-66.178-18.932-103.83-20.396-3.28-.126-6.258-1.976-7.784-4.884l-37.438-69.192"/><path fill="#FFF" d="M114.17 415.679c3.541 7.364-.311 14.122.463 23.072 1.228 14.218-16.832 26.937-32.658 24.969-20.896-2.604-16.899-77.611-4.661-78.092 7.247-.287 19.954 6.659 28.693 19.24 2.809 4.046 8.163 10.811 8.163 10.811"/><path fill="none" d="M114.17 415.679c3.541 7.364-.311 14.122.463 23.072 1.228 14.218-16.832 26.937-32.658 24.969-20.896-2.604-16.899-77.611-4.661-78.092 7.247-.287 19.954 6.659 28.693 19.24 2.809 4.046 8.163 10.811 8.163 10.811z"/><path d="M73.782 454.386c1.158-13.125 12.436-36.261 28.644-30.836 18.225 6.104 11.408-5.504 10.19-9.096-1.219-3.591-9.79-10.806-7.872-11.674 1.917-.866 25.065 11.32 26.301 30.45 1.235 19.127-6.583 27.597-16.811 32.769-10.229 5.174-26.38 4.916-35.774-1.805-9.396-6.721-4.678-9.808-4.678-9.808"/><path d="M73.998 457.786c-1.692 31.87-.271 36.802-21.013 43.716-21.151 7.051-14.973 31.966-10.575 34.281 19.844 10.458 98.714 4.771 116.765.193 18.051-4.578 13.538-32.671-1.129-37.664-14.666-4.989-26.951-16.271-26.872-30.655.079-14.384 6.604-23.444-2.159-42.888l-55.017 33.017z"/><path fill="none" d="M678.608 498.768c-1.976 8.095-11.847 23.386-11.847 23.386"/></g></svg>