<svg width="800" height="900" fill="none" xmlns="http://www.w3.org/2000/svg"><path d="M493.677 629.043c1.769-33.577-22.692-88.544-22.692-88.544-58.36 17.533-137.3 0-137.3 0s-23.394 79.07-21.088 95.487" fill="#fff"/><path d="M493.677 629.043c1.769-33.577-22.692-88.544-22.692-88.544-58.36 17.533-137.3 0-137.3 0s-23.394 79.07-21.088 95.487" stroke="#000" stroke-width="5" stroke-miterlimit="10"/><path d="M493.677 629.043c1.769-33.577-22.692-88.544-22.692-88.544-58.36 17.533-137.3 0-137.3 0s-23.394 79.07-21.088 95.487" stroke="#000" stroke-width="5" stroke-miterlimit="10"/><path d="M472.334 553.585c-45.234 12.382-91.654 12.947-139.693-2.522 6.468-56.337-1.735-110.532-1.735-110.532 12.595-36.688 7.828-67.448 7.828-67.448s13.004-4.734 29.75-17.814c16.747-13.117 12.356-57.292 12.356-57.292s1.089.166 21.513.166c20.423 0 21.274-.166 21.274-.166s-4.188 44.175 12.559 57.292c16.782 13.08 31.894 17.814 31.894 17.814s-6.874 30.76 5.684 67.448c-.001-.001-8.441 55.827-1.43 113.054Z" fill="#fff" stroke="#000" stroke-width="5" stroke-miterlimit="10"/><path d="M472.334 553.585c-45.234 12.382-91.654 12.947-139.693-2.522 6.468-56.337-1.735-110.532-1.735-110.532 12.595-36.688 7.828-67.448 7.828-67.448s13.004-4.734 29.75-17.814c16.747-13.117 12.356-57.292 12.356-57.292s1.089.166 21.513.166c20.423 0 21.274-.166 21.274-.166s-4.188 44.175 12.559 57.292c16.782 13.08 31.894 17.814 31.894 17.814s-6.874 30.76 5.684 67.448c-.001-.001-8.441 55.827-1.43 113.054Z" stroke="#000" stroke-width="5" stroke-miterlimit="10"/><path d="M382.981 594.494S270.655 458.241 257.04 454.834c-13.616-3.408-37.442 0-40.847 17.032-2.991 14.974 12.432 114.185 18.515 149.525.891 5.162 2.175 10.225 3.611 15.255.851 2.979 1.701 7.238 1.701 12.348 0 10.219 0 17.031 3.404 40.876s-3.404 23.845-10.211 27.251c-6.808 3.406-13.616 6.813-3.404 13.624 0 0 27.231 3.407 40.846-3.406 13.615-6.814-3.403-37.471 0-47.689 3.404-10.218 13.615-20.437 6.808-37.469 0 0-6.808-6.814-10.211-13.626-3.404-6.814 3.403-51.094 0-71.533l-3.404-20.438s20.423 102.19 85.096 122.628c34.375 6.539 68.442 7.093 102.115 0 64.672-20.436 85.094-122.625 85.094-122.625l-3.403 20.438c-3.405 20.439 3.403 64.72 0 71.533-3.405 6.814-10.212 13.626-10.212 13.626-6.807 17.032 3.405 27.25 6.809 37.469 3.404 10.218-13.615 40.877 0 47.689 13.614 6.812 40.846 3.406 40.846 3.406 10.212-6.813 3.405-10.218-3.404-13.624-6.808-3.407-13.615-3.407-10.211-27.251 3.405-23.844 3.405-30.656 3.405-40.876 0-5.11.85-9.368 1.702-12.348 1.435-5.03 2.721-10.093 3.609-15.255 6.089-35.341 21.506-134.551 18.514-149.526-3.403-17.031-27.23-20.439-40.847-17.031-13.614 3.407-125.941 139.66-125.941 139.66" fill="#fff"/><path d="M382.981 594.494S270.655 458.241 257.04 454.834c-13.616-3.408-37.442 0-40.847 17.032-2.991 14.974 12.432 114.185 18.515 149.525.891 5.162 2.175 10.225 3.611 15.255.851 2.979 1.701 7.238 1.701 12.348 0 10.219 0 17.031 3.404 40.876s-3.404 23.845-10.211 27.251c-6.808 3.406-13.616 6.813-3.404 13.624 0 0 27.231 3.407 40.846-3.406 13.615-6.814-3.403-37.471 0-47.689 3.404-10.218 13.615-20.437 6.808-37.469 0 0-6.808-6.814-10.211-13.626-3.404-6.814 3.403-51.094 0-71.533l-3.404-20.438s20.423 102.19 85.096 122.628c34.375 6.539 68.442 7.093 102.115 0 64.672-20.436 85.094-122.625 85.094-122.625l-3.403 20.438c-3.405 20.439 3.403 64.72 0 71.533-3.405 6.814-10.212 13.626-10.212 13.626-6.807 17.032 3.405 27.25 6.809 37.469 3.404 10.218-13.615 40.877 0 47.689 13.614 6.812 40.846 3.406 40.846 3.406 10.212-6.813 3.405-10.218-3.404-13.624-6.808-3.407-13.615-3.407-10.211-27.251 3.405-23.844 3.405-30.656 3.405-40.876 0-5.11.85-9.368 1.702-12.348 1.435-5.03 2.721-10.093 3.609-15.255 6.089-35.341 21.506-134.551 18.514-149.526-3.403-17.031-27.23-20.439-40.847-17.031-13.614 3.407-125.941 139.66-125.941 139.66" stroke="#000" stroke-width="5" stroke-miterlimit="10"/><path d="M382.981 594.494S270.655 458.241 257.04 454.834c-13.616-3.408-37.442 0-40.847 17.032-2.991 14.974 12.432 114.185 18.515 149.525.891 5.162 2.175 10.225 3.611 15.255.851 2.979 1.701 7.238 1.701 12.348 0 10.219 0 17.031 3.404 40.876s-3.404 23.845-10.211 27.251c-6.808 3.406-13.616 6.813-3.404 13.624 0 0 27.231 3.407 40.846-3.406 13.615-6.814-3.403-37.471 0-47.689 3.404-10.218 13.615-20.437 6.808-37.469 0 0-6.808-6.814-10.211-13.626-3.404-6.814 3.403-51.094 0-71.533l-3.404-20.438s20.423 102.19 85.096 122.628c34.375 6.539 68.442 7.093 102.115 0 64.672-20.436 85.094-122.625 85.094-122.625l-3.403 20.438c-3.405 20.439 3.403 64.72 0 71.533-3.405 6.814-10.212 13.626-10.212 13.626-6.807 17.032 3.405 27.25 6.809 37.469 3.404 10.218-13.615 40.877 0 47.689 13.614 6.812 40.846 3.406 40.846 3.406 10.212-6.813 3.405-10.218-3.404-13.624-6.808-3.407-13.615-3.407-10.211-27.251 3.405-23.844 3.405-30.656 3.405-40.876 0-5.11.85-9.368 1.702-12.348 1.435-5.03 2.721-10.093 3.609-15.255 6.089-35.341 21.506-134.551 18.514-149.526-3.403-17.031-27.23-20.439-40.847-17.031-13.614 3.407-125.941 139.66-125.941 139.66" stroke="#000" stroke-width="5" stroke-miterlimit="10"/><path d="M365.059 206.592c-24.557 50.948 14.21 112.139 36.516 112.435 22.306.293 62.675-59.857 39.465-111.434-14.63-32.51-60.501-33.115-75.981-1.001Z" fill="#fff" stroke="#000" stroke-width="5" stroke-miterlimit="10"/><path d="M365.059 206.592c-24.557 50.948 14.21 112.139 36.516 112.435 22.306.293 62.675-59.857 39.465-111.434-14.63-32.51-60.501-33.115-75.981-1.001Z" stroke="#000" stroke-width="5" stroke-miterlimit="10"/><path d="M546.267 267.935c-19.584-10.761-14.616-24.562-31.994-38.361-17.373-13.802-38.899-4.481-47.987-26.775-9.005-22.088-38.343-34.702-63.909-34.394v-.003c-.014 0-.026.003-.042.003-.014 0-.023-.003-.037-.003v.003c-25.565-.31-54.907 12.305-63.909 34.394-9.093 22.294-30.615 12.973-47.989 26.775-17.376 13.799-12.411 27.6-31.992 38.361-19.582 10.765-21.176 9.766-20.409 18.22 1.13 12.461 45.659 7.531 79.054 8.382 6.545.17 30.385 6.8 36.76 8.296 13.044 3.054 29.793 2.621 30.143-2.055.55-7.452-1.835-25.179-6.917-34.251-5.079-9.074-15.573-6.147-15.573-19.46 0-12.421 5.096-7.584 16.814-18.628 10.333-9.74 20.674-21.016 24.056-30.177 3.383 9.161 13.729 20.437 24.058 30.177 11.719 11.044 16.815 6.207 16.815 18.628 0 13.313-10.494 10.386-15.575 19.46-5.08 9.072-7.467 26.799-6.914 34.251.343 4.676 17.098 5.109 30.137 2.055 6.373-1.496 30.216-8.126 36.76-8.296 33.398-.851 77.928 4.079 79.058-8.382.769-8.454-.83-7.455-20.408-18.22Z" fill="#100200" stroke="#000" stroke-width="5" stroke-miterlimit="10"/><path d="M353.926 365.209s18.182 27.39 48.67 27.39c30.492 0 48.675-27.39 48.675-27.39" fill="#fff"/><path d="M353.926 365.209s18.182 27.39 48.67 27.39c30.492 0 48.675-27.39 48.675-27.39" stroke="#000" stroke-width="5" stroke-miterlimit="10"/><path d="M353.926 365.209s18.182 27.39 48.67 27.39c30.492 0 48.675-27.39 48.675-27.39" stroke="#000" stroke-width="5" stroke-miterlimit="10"/><path d="M386.747 522.96c4.737.495 6.665-57.908 9.993-61.314l3.333-3.406s3.332-3.407 3.332 10.218v62.964c0 6.281-5.892 10.805-11.791 9.057 0 0-1.101-.339-1.535-.488-46.026 2.157-89.914 1.725-129.927-3.407-9.994-6.813-13.326-10.218-6.661-40.877 6.661-30.656 49.972-102.189 56.633-112.408 6.662-10.219 28.57-10.219 28.57-10.219 6.665 3.406-3.449 64.771-10.211 68.126-6.758 3.359-40.808 68.126-40.808 68.126s.723 3.409 99.072 13.628Z" fill="#fff" stroke="#000" stroke-width="5" stroke-miterlimit="10"/><path d="M386.747 522.96c4.737.495 6.665-57.908 9.993-61.314l3.333-3.406s3.332-3.407 3.332 10.218v62.964c0 6.281-5.892 10.805-11.791 9.057 0 0-1.101-.339-1.535-.488-46.026 2.157-89.914 1.725-129.927-3.407-9.994-6.813-13.326-10.218-6.661-40.877 6.661-30.656 49.972-102.189 56.633-112.408 6.662-10.219 28.57-10.219 28.57-10.219 6.665 3.406-3.449 64.771-10.211 68.126-6.758 3.359-40.808 68.126-40.808 68.126s.723 3.409 99.072 13.628Z" stroke="#000" stroke-width="5" stroke-miterlimit="10"/><path d="M420.066 522.96c-4.74.495-6.665-57.908-9.998-61.314l-3.328-3.406s-3.334-3.407-3.334 10.218v62.964c0 6.281 5.891 10.805 11.79 9.057 0 0 1.1-.339 1.536-.488 46.028 2.157 89.915 1.725 129.927-3.407 9.995-6.813 13.326-10.218 6.661-40.877-6.661-30.656-49.971-102.189-56.633-112.408-6.663-10.219-28.572-10.219-28.572-10.219-6.664 3.406.015 64.771 6.77 68.126 6.761 3.359 44.249 68.126 44.249 68.126s-.719 3.409-99.068 13.628Z" fill="#fff" stroke="#000" stroke-width="5" stroke-miterlimit="10"/><path d="M420.066 522.96c-4.74.495-6.665-57.908-9.998-61.314l-3.328-3.406s-3.334-3.407-3.334 10.218v62.964c0 6.281 5.891 10.805 11.79 9.057 0 0 1.1-.339 1.536-.488 46.028 2.157 89.915 1.725 129.927-3.407 9.995-6.813 13.326-10.218 6.661-40.877-6.661-30.656-49.971-102.189-56.633-112.408-6.663-10.219-28.572-10.219-28.572-10.219-6.664 3.406.015 64.771 6.77 68.126 6.761 3.359 44.249 68.126 44.249 68.126s-.719 3.409-99.068 13.628Z" stroke="#000" stroke-width="5" stroke-miterlimit="10"/><path d="M233.914 616.708s21.51 4.033 32.529-3.979Z" fill="#fff"/><path d="M233.914 616.708s21.51 4.033 32.529-3.979" stroke="#000" stroke-width="5" stroke-miterlimit="10"/><path d="M233.914 616.708s21.51 4.033 32.529-3.979" stroke="#000" stroke-width="5" stroke-miterlimit="10"/><path d="M566.092 616.708s-21.514 4.033-32.533-3.979Z" fill="#fff"/><path d="M566.092 616.708s-21.514 4.033-32.533-3.979" stroke="#000" stroke-width="5" stroke-miterlimit="10"/><path d="M566.092 616.708s-21.514 4.033-32.533-3.979" stroke="#000" stroke-width="5" stroke-miterlimit="10"/></svg>