<svg width="800" height="900" fill="none" xmlns="http://www.w3.org/2000/svg"><path d="M370.619 159.361c-4.234-15.7-23.426-50.847-58.32-22.894-22.151 17.742-57.372 41.001-81.979 32.676-24.607-8.329-9.829 50.693 24.053 56.394 33.883 5.701 67.499-12.302 79.06-39.552 11.557-27.252 37.186-26.624 37.186-26.624Z" fill="#000" stroke="#000" stroke-width="5" stroke-miterlimit="10"/><path d="M664.569 764.867c-3.489-3.076-9.64-3.49-19.888-5.949-10.253-2.461-45.315-8.814-48.392-16.401-3.075-7.591-6.133-26.77-.825-75.113 5.307-48.341 14.868-70.365 15.653-91.466.788-21.098-5.125-21.822-30.023-39.465-24.897-17.644-72.427-41.85-94.815-54.886-22.392-13.037-33.437-44.413-33.437-44.413s-28.786 3.109-53.342 3.109c-24.555 0-53.342-3.109-53.342-3.109s-11.048 31.376-33.435 44.413c-22.391 13.036-69.917 37.242-94.816 54.886-24.899 17.643-30.812 18.367-30.027 39.465.784 21.101 10.349 43.125 15.656 91.466 5.307 48.343 2.251 67.522-.825 75.113-3.075 7.587-38.138 13.94-48.39 16.401-10.253 2.459-16.405 2.873-19.889 5.949-3.486 3.075-3.977 4.767 3.606 6.118 7.583 1.345 67.545 4.627 80.051 1.713 12.507-2.91 9.884-22.566 13.553-55.428 3.671-32.859 8.345-83.657 7.034-104.148-1.314-20.491-6.85-28.902-6.85-28.902s83.953-23.068 106.712-33.931c22.759-10.865 60.962-37.212 60.962-37.212s38.204 26.347 60.963 37.215c22.76 10.862 106.714 33.931 106.714 33.931s-5.536 8.411-6.851 28.902c-1.313 20.491 3.364 71.289 7.032 104.148 3.672 32.863 1.049 52.518 13.556 55.428 12.505 2.912 72.469-.369 80.053-1.713 7.581-1.354 7.089-3.045 3.602-6.121Z" fill="#fff" stroke="#000" stroke-width="5" stroke-miterlimit="10"/><path d="M664.569 764.867c-3.489-3.076-9.64-3.49-19.888-5.949-10.253-2.461-45.315-8.814-48.392-16.401-3.075-7.591-6.133-26.77-.825-75.113 5.307-48.341 14.868-70.365 15.653-91.466.788-21.098-5.125-21.822-30.023-39.465-24.897-17.644-72.427-41.85-94.815-54.886-22.392-13.037-33.437-44.413-33.437-44.413s-28.786 3.109-53.342 3.109c-24.555 0-53.342-3.109-53.342-3.109s-11.048 31.376-33.435 44.413c-22.391 13.036-69.917 37.242-94.816 54.886-24.899 17.643-30.812 18.367-30.027 39.465.784 21.101 10.349 43.125 15.656 91.466 5.307 48.343 2.251 67.522-.825 75.113-3.075 7.587-38.138 13.94-48.39 16.401-10.253 2.459-16.405 2.873-19.889 5.949-3.486 3.075-3.977 4.767 3.606 6.118 7.583 1.345 67.545 4.627 80.051 1.713 12.507-2.91 9.884-22.566 13.553-55.428 3.671-32.859 8.345-83.657 7.034-104.148-1.314-20.491-6.85-28.902-6.85-28.902s83.953-23.068 106.712-33.931c22.759-10.865 60.962-37.212 60.962-37.212s38.204 26.347 60.963 37.215c22.76 10.862 106.714 33.931 106.714 33.931s-5.536 8.411-6.851 28.902c-1.313 20.491 3.364 71.289 7.032 104.148 3.672 32.863 1.049 52.518 13.556 55.428 12.505 2.912 72.469-.369 80.053-1.713 7.581-1.354 7.089-3.045 3.602-6.121Z" stroke="#000" stroke-width="5" stroke-miterlimit="10"/><path d="M576.874 210.453c-9.602-28.008-10.419-55.203-20.726-71.285-10.299-16.082-20.192-9.84-18.275.946 1.92 10.787 4.487 23.366 8.591 30.543 4.099 7.175 5.944 8.405 7.583 16.608 1.645 8.201 11.894 91.038 10.256 102.726-1.644 11.687-128.56-2.256-135.739-7.588-7.175-5.33-19.166-17.253-17.067-56.914H387.5c2.098 39.661-9.889 51.584-17.066 56.914-7.178 5.332-134.097 19.275-135.738 7.588-1.639-11.688 8.612-94.525 10.253-102.726 1.64-8.203 3.486-9.433 7.585-16.608 4.101-7.177 6.67-19.756 8.59-30.543 1.918-10.786-7.975-17.029-18.277-.946-10.302 16.082-11.124 43.277-20.724 71.285-9.603 28.007-23.924 102.399-19.64 107.368 4.283 4.967 7.711 5.181 60.919 5.795 36.462.423 62.167 1.783 74.732 1.735a8.002 8.002 0 0 1 7.87 6.397c1.609 7.751 4.054 21.125 5.36 45.795 2.049 38.753-5.207 59.631-5.207 59.631s24.584 4.24 53.342 3.112c28.756 1.126 53.339-3.112 53.339-3.112s-7.255-20.878-5.205-59.631c1.309-24.727 3.765-38.106 5.371-45.85a7.934 7.934 0 0 1 7.804-6.341c12.545.052 38.269-1.312 74.786-1.735 53.208-.615 56.637-.829 60.921-5.795 4.282-4.97-10.04-79.362-19.641-107.369Z" fill="#fff" stroke="#000" stroke-width="5" stroke-miterlimit="10"/><path d="M576.874 210.453c-9.602-28.008-10.419-55.203-20.726-71.285-10.299-16.082-20.192-9.84-18.275.946 1.92 10.787 4.487 23.366 8.591 30.543 4.099 7.175 5.944 8.405 7.583 16.608 1.645 8.201 11.894 91.038 10.256 102.726-1.644 11.687-128.56-2.256-135.739-7.588-7.175-5.33-19.166-17.253-17.067-56.914H387.5c2.098 39.661-9.889 51.584-17.066 56.914-7.178 5.332-134.097 19.275-135.738 7.588-1.639-11.688 8.612-94.525 10.253-102.726 1.64-8.203 3.486-9.433 7.585-16.608 4.101-7.177 6.67-19.756 8.59-30.543 1.918-10.786-7.975-17.029-18.277-.946-10.302 16.082-11.124 43.277-20.724 71.285-9.603 28.007-23.924 102.399-19.64 107.368 4.283 4.967 7.711 5.181 60.919 5.795 36.462.423 62.167 1.783 74.732 1.735a8.002 8.002 0 0 1 7.87 6.397c1.609 7.751 4.054 21.125 5.36 45.795 2.049 38.753-5.207 59.631-5.207 59.631s24.584 4.24 53.342 3.112c28.756 1.126 53.339-3.112 53.339-3.112s-7.255-20.878-5.205-59.631c1.309-24.727 3.765-38.106 5.371-45.85a7.934 7.934 0 0 1 7.804-6.341c12.545.052 38.269-1.312 74.786-1.735 53.208-.615 56.637-.829 60.921-5.795 4.282-4.97-10.04-79.362-19.641-107.369Z" stroke="#000" stroke-width="5" stroke-miterlimit="10"/><path d="M460.248 288.534c-11.997 13.552-40.599 20.012-60.745 20.012s-48.747-6.459-60.745-20.012" stroke="#000" stroke-width="5" stroke-miterlimit="10"/><path d="M377.903 214.638c-5.29-7.17-2.54-15.196-5.189-24.624-4.207-14.984 12.552-32.285 29.908-33.395 22.917-1.465 33.896 79.707 20.885 82.71-7.707 1.783-22.737-3.07-34.657-14.772-3.834-3.764-10.947-9.919-10.947-9.919Z" fill="#fff" stroke="#000" stroke-width="5" stroke-miterlimit="10"/><path d="M377.903 214.638c-5.29-7.17-2.54-15.196-5.189-24.624-4.207-14.984 12.552-32.285 29.908-33.395 22.917-1.465 33.896 79.707 20.885 82.71-7.707 1.783-22.737-3.07-34.657-14.772-3.834-3.764-10.947-9.919-10.947-9.919Z" stroke="#000" stroke-width="5" stroke-miterlimit="10"/><path d="M413.294 164.947c1.432 14.302-5.942 41.381-24.414 38.866-20.764-2.828-11.101 8.218-9.064 11.82 2.037 3.6 12.685 9.582 10.81 10.905-1.877 1.316-30.892-5.613-36.108-25.855-5.217-20.244-1.499-31.564 8.408-39.188 9.906-7.624 31.929-11.389 43.364-6.1 11.429 5.287 7.004 9.552 7.004 9.552Z" fill="#000" stroke="#000" stroke-width="5" stroke-miterlimit="10"/><path d="M592.753 720.344c-7.435 3.256-25.105 1.113-25.105 1.113M206.211 720.344c7.431 3.256 25.102 1.113 25.102 1.113M554.77 191.735c4.969-.271 13.967-1.895 15.62-4.774M229.738 181.901c5.22 4.646 15.573 3.698 15.573 3.698" stroke="#000" stroke-width="5" stroke-miterlimit="10"/></svg>