<?xml version="1.0" encoding="utf-8"?>
<!-- Generator: Adobe Illustrator 16.0.0, SVG Export Plug-In . SVG Version: 6.00 Build 0)  -->
<!DOCTYPE svg PUBLIC "-//W3C//DTD SVG 1.1//EN" "http://www.w3.org/Graphics/SVG/1.1/DTD/svg11.dtd">
<svg version="1.1" id="Layer_1" xmlns="http://www.w3.org/2000/svg" xmlns:xlink="http://www.w3.org/1999/xlink" x="0px" y="0px"
	 width="800px" height="900px" viewBox="0 0 800 900" enable-background="new 0 0 800 900" xml:space="preserve">
<g id="SCALE" display="none">
	<path display="inline" fill="#FFFFFF" d="M471.085,313.575c24.377,8.31,43.863,38.452,50.897,64.244
		c7.041,25.801,45.094,113.501,48.095,173.436c3,59.931,0.621,135.749,5.493,144.465c4.871,8.723,44.285,13.999,49.121,20.9
		c4.847,6.901-7.714,14.088-33.289,14.146c-25.575,0.063-36.162,0.583-41.04-15.901c-4.872-16.492-5.271-94.509-9.3-136.272
		c-4.019-41.771-40.597-132.156-46.279-145.04c-5.685-12.88-17.742-21.15-17.742-21.15l-38.617-47.213L471.085,313.575z"/>
	<path display="inline" fill="none" stroke="#000000" stroke-miterlimit="10" d="M471.085,313.575
		c24.377,8.31,43.863,38.452,50.897,64.244c7.041,25.801,45.094,113.501,48.095,173.436c3,59.931,0.621,135.749,5.493,144.465
		c4.871,8.723,44.285,13.999,49.121,20.9c4.847,6.901-7.714,14.088-33.289,14.146c-25.575,0.063-36.162,0.583-41.04-15.901
		c-4.872-16.492-5.271-94.509-9.3-136.272c-4.019-41.771-40.597-132.156-46.279-145.04c-5.685-12.88-17.742-21.15-17.742-21.15
		l-38.617-47.213L471.085,313.575z"/>
	<path display="inline" fill="#FFFFFF" d="M316.646,313.575c-24.38,8.31-43.867,38.452-50.904,64.244
		c-7.034,25.801-45.087,113.501-48.089,173.436c-3,59.931-0.626,135.749-5.498,144.465c-4.872,8.723-44.282,13.999-49.122,20.9
		c-4.84,6.901,7.713,14.088,33.289,14.146c25.576,0.063,36.169,0.583,41.041-15.901c4.876-16.492,5.278-94.509,9.299-136.272
		c4.02-41.771,40.596-132.156,46.28-145.04c5.684-12.88,17.67-21,17.67-21l38.696-47.364L316.646,313.575z"/>
	<path display="inline" fill="none" stroke="#000000" stroke-miterlimit="10" d="M316.646,313.575
		c-24.38,8.31-43.867,38.452-50.904,64.244c-7.034,25.801-45.087,113.501-48.089,173.436c-3,59.931-0.626,135.749-5.498,144.465
		c-4.872,8.723-44.282,13.999-49.122,20.9c-4.84,6.901,7.713,14.088,33.289,14.146c25.576,0.063,36.169,0.583,41.041-15.901
		c4.876-16.492,5.278-94.509,9.299-136.272c4.02-41.771,40.596-132.156,46.28-145.04c5.684-12.88,17.67-21,17.67-21l38.696-47.364
		L316.646,313.575z"/>
	<path display="inline" fill="#FFFFFF" d="M405.271,561.131c43.844-16.845,179.235-40.394,204-9.743
		c24.764,30.651,8.887,56.131-19.894,70.436c-28.782,14.305-99.667,34.709-157.92,27.2c-58.258-7.512-125.444-39.582-125.444-39.582
		l10.961-39.784L405.271,561.131z"/>
	<path display="inline" fill="none" stroke="#000000" stroke-miterlimit="10" d="M405.271,561.131
		c43.844-16.845,179.235-40.394,204-9.743c24.764,30.651,8.887,56.131-19.894,70.436c-28.782,14.305-99.667,34.709-157.92,27.2
		c-58.258-7.512-125.444-39.582-125.444-39.582l10.961-39.784L405.271,561.131z"/>
	<path display="inline" fill="#FFFFFF" d="M313.321,547.902l79.881,21.754l76.012-32.229c0,0-3.749-55.557,7.827-125.03
		l-3.104-14.646c-1.92-9.061-2.891-18.297-2.885-27.561l0.032-56.61c-23.312-9.647-61.339-16.131-77.22-16.131
		c-15.882,0-53.909,6.483-77.219,16.131l0.026,55.139c0.006,10.237-1.063,20.45-3.186,30.474l-2.875,13.357
		C317.81,479.18,313.321,547.902,313.321,547.902"/>
	<path display="inline" fill="none" stroke="#000000" stroke-miterlimit="10" d="M313.321,547.902l79.881,21.754l76.012-32.229
		c0,0-3.749-55.557,7.827-125.03l-3.104-14.646c-1.92-9.061-2.891-18.297-2.885-27.561l0.032-56.61
		c-23.312-9.647-61.339-16.131-77.22-16.131c-15.882,0-53.909,6.483-77.219,16.131l0.026,55.139
		c0.006,10.237-1.063,20.45-3.186,30.474l-2.875,13.357C317.81,479.18,313.321,547.902,313.321,547.902z"/>
	<path display="inline" fill="#FFFFFF" d="M438.421,262.62c-0.257,39.87-27.945,76.021-45.051,75.909
		c-17.106-0.107-44.32-36.616-44.061-76.489C349.57,222.176,438.681,222.756,438.421,262.62"/>
	<path display="inline" fill="none" stroke="#000000" stroke-miterlimit="10" d="M438.421,262.62
		c-0.257,39.87-27.945,76.021-45.051,75.909c-17.106-0.107-44.32-36.616-44.061-76.489
		C349.57,222.176,438.681,222.756,438.421,262.62z"/>
	<path display="inline" fill="none" stroke="#000000" stroke-miterlimit="10" d="M335.536,307.203
		c1.272,46.807,44.875,70.616,58.83,70.616c13.959,0,53.664-24.044,57.867-70.616"/>
	<path display="inline" fill="#FFFFFF" d="M532.186,641.208c-13.189,14.429-45.114,34.879-82.465,32.069
		c-37.349-2.812-50.734-10.193-58.715-10.193c-7.982,0-36.561,6.597-59.019,8.48c-22.453,1.878-57.409-3.756-117.47-51.949
		c-60.062-48.198-35.994-83.356-28.408-95.278c7.588-11.919,60.363-17.038,120.446,0c60.083,17.038,89.514,13.521,127.44,6.756
		c37.923-6.769,53.563-25.411,70.124-30.989c13.267-4.466,26.417,19.742,9.207,31.26c-5.657,3.787-12.816,5.159-21.652,9.331
		c-18.046,8.521-39.737,12.468-50.27,16.175c-15.693,5.527-73.008,24.522-105.078,36.702c0,0,25.009,11.541,64.142,26.562
		c39.663,15.225,62.657,17.999,83.354,19.486C504.526,641.109,532.186,641.208,532.186,641.208"/>
	<path display="inline" fill="none" stroke="#000000" stroke-miterlimit="10" d="M532.186,641.208
		c-13.189,14.429-45.114,34.879-82.465,32.069c-37.349-2.812-50.734-10.193-58.715-10.193c-7.982,0-36.561,6.597-59.019,8.48
		c-22.453,1.878-57.409-3.756-117.47-51.949c-60.062-48.198-35.994-83.356-28.408-95.278c7.588-11.919,60.363-17.038,120.446,0
		c60.083,17.038,89.514,13.521,127.44,6.756c37.923-6.769,53.563-25.411,70.124-30.989c13.267-4.466,26.417,19.742,9.207,31.26
		c-5.657,3.787-12.816,5.159-21.652,9.331c-18.046,8.521-39.737,12.468-50.27,16.175c-15.693,5.527-73.008,24.522-105.078,36.702
		c0,0,25.009,11.541,64.142,26.562c39.663,15.225,62.657,17.999,83.354,19.486C504.526,641.109,532.186,641.208,532.186,641.208z"/>
	<path display="inline" fill="none" stroke="#000000" stroke-miterlimit="10" d="M338.084,593.576c-49.797,6.937-99-7.024-99-7.024"
		/>
	<path display="inline" fill="#FFFFFF" d="M356.326,233.19c-23.433,48.573,13.561,106.925,34.842,107.204
		c21.281,0.278,59.8-57.07,37.653-106.246C414.862,203.149,371.096,202.572,356.326,233.19"/>
	<path display="inline" fill="none" stroke="#000000" stroke-miterlimit="10" d="M356.326,233.19
		c-23.433,48.573,13.561,106.925,34.842,107.204c21.281,0.278,59.8-57.07,37.653-106.246
		C414.862,203.149,371.096,202.572,356.326,233.19z"/>
	<path display="inline" d="M529.227,291.679c-18.687-10.257-13.947-23.42-30.525-36.575c-16.578-13.156-37.117-4.269-45.788-25.521
		c-8.592-21.063-36.582-33.09-60.978-32.798h-0.039h-0.035c-24.394-0.292-52.389,11.735-60.979,32.798
		c-8.676,21.253-29.21,12.365-45.787,25.521c-16.58,13.155-11.841,26.318-30.525,36.575c-18.684,10.263-20.205,9.314-19.474,17.37
		c1.078,11.885,43.565,7.184,75.429,7.999c6.244,0.155,28.99,6.482,35.074,7.903c12.445,2.918,28.428,2.506,28.759-1.956
		c0.525-7.108-1.749-24.003-6.6-32.655c-4.846-8.655-14.858-5.864-14.858-18.557c0-11.837,4.861-7.231,16.041-17.762
		c9.859-9.283,19.728-20.038,22.955-28.77c3.228,8.731,13.1,19.486,22.957,28.77c11.18,10.53,16.041,5.925,16.041,17.762
		c0,12.692-10.013,9.901-14.861,18.557c-4.846,8.652-7.123,25.547-6.598,32.655c0.33,4.462,16.314,4.874,28.758,1.956
		c6.083-1.421,28.83-7.748,35.074-7.903c31.867-0.815,74.354,3.886,75.434-7.999C549.43,300.993,547.907,301.941,529.227,291.679"/>
	<path display="inline" fill="none" stroke="#000000" stroke-miterlimit="10" d="M420.536,533.37
		c4.833,4.218,8.938,22.619,7.393,28.132"/>
</g>
<g id="Wide_Legged_Forward_Fold" display="none">
	<path display="inline" fill="#FFFFFF" d="M317.238,247.301c-15.426,18.965-67.721,99.962-100.268,147.332
		c-32.546,47.364-97.862,147.951-106.346,165.808c-8.488,17.854-25.202,47.191-27.154,55.881
		c-1.956,8.688-3.832,11.641,3.257,18.114c7.087,6.478,46.666,24.239,55.005,26.094c8.346,1.849,20.66,0.944,25.971-1.428
		c5.31-2.373,4.406-11.186-3.503-12.089c-7.91-0.904-39.936-15.571-42.507-29.141c-2.573-13.565,0.922-21.499,14.54-39.111
		c13.617-17.614,75.061-80.533,106.304-112.01c27.188-27.398,51.481-55.107,60.418-62.4c8.941-7.295,17.487-13.971,17.487-13.971
		s8.422-37.755,10.599-50.145c2.178-12.39,8.374-39.768,1.435-57.038c-6.938-17.271-13.729-25.882-14.471-30.171
		C317.262,248.736,317.238,247.301,317.238,247.301"/>
	<path display="inline" fill="none" stroke="#000000" stroke-miterlimit="10" d="M317.238,247.301
		c-15.426,18.965-67.721,99.962-100.268,147.332c-32.546,47.364-97.862,147.951-106.346,165.808
		c-8.488,17.854-25.202,47.191-27.154,55.881c-1.956,8.688-3.832,11.641,3.257,18.114c7.087,6.478,46.666,24.239,55.005,26.094
		c8.346,1.849,20.66,0.944,25.971-1.428c5.31-2.373,4.406-11.186-3.503-12.089c-7.91-0.904-39.936-15.571-42.507-29.141
		c-2.573-13.565,0.922-21.499,14.54-39.111c13.617-17.614,75.061-80.533,106.304-112.01c27.188-27.398,51.481-55.107,60.418-62.4
		c8.941-7.295,17.487-13.971,17.487-13.971s8.422-37.755,10.599-50.145c2.178-12.39,8.374-39.768,1.435-57.038
		c-6.938-17.271-13.729-25.882-14.471-30.171C317.262,248.736,317.238,247.301,317.238,247.301z"/>
	<path display="inline" fill="#FFFFFF" d="M482.762,247.301c15.426,18.965,67.722,99.962,100.269,147.332
		c32.546,47.364,97.862,147.951,106.348,165.808c8.486,17.854,25.2,47.191,27.152,55.881c1.955,8.688,3.831,11.641-3.256,18.114
		c-7.09,6.478-46.667,24.239-55.008,26.094c-8.347,1.849-20.659,0.944-25.972-1.428c-5.31-2.373-4.406-11.186,3.504-12.089
		c7.909-0.904,39.937-15.571,42.507-29.141c2.572-13.565-0.923-21.499-14.54-39.111c-13.617-17.614-75.061-80.533-106.305-112.01
		c-27.188-27.398-51.479-55.107-60.418-62.4c-8.938-7.295-17.486-13.971-17.486-13.971s-8.422-37.755-10.6-50.145
		s-8.373-39.768-1.435-57.038c6.938-17.271,13.729-25.882,14.472-30.171C482.738,248.736,482.762,247.301,482.762,247.301"/>
	<path display="inline" fill="none" stroke="#000000" stroke-miterlimit="10" d="M482.762,247.301
		c15.426,18.965,67.722,99.962,100.269,147.332c32.546,47.364,97.862,147.951,106.348,165.808
		c8.486,17.854,25.2,47.191,27.152,55.881c1.955,8.688,3.831,11.641-3.256,18.114c-7.09,6.478-46.667,24.239-55.008,26.094
		c-8.347,1.849-20.659,0.944-25.972-1.428c-5.31-2.373-4.406-11.186,3.504-12.089c7.909-0.904,39.937-15.571,42.507-29.141
		c2.572-13.565-0.923-21.499-14.54-39.111c-13.617-17.614-75.061-80.533-106.305-112.01c-27.188-27.398-51.479-55.107-60.418-62.4
		c-8.938-7.295-17.486-13.971-17.486-13.971s-8.422-37.755-10.6-50.145s-8.373-39.768-1.435-57.038
		c6.938-17.271,13.729-25.882,14.472-30.171C482.738,248.736,482.762,247.301,482.762,247.301z"/>
	<path display="inline" d="M422.214,549.136c0,8.263-5.933,14.955-13.249,14.955c-7.314,0-13.246-6.692-13.246-14.955
		c0-8.257,5.931-14.953,13.246-14.953C416.281,534.183,422.214,540.879,422.214,549.136"/>
	<path display="inline" fill="#FFFFFF" d="M484.314,412.589c-3.466-19.757-17.211-73.177-19.722-102.567
		c-2.511-29.396,14.031-46.467,17.681-58.155c3.646-11.696-9.071-23.223-22.969-29.682c-13.896-6.461-37.962-8.455-59.24,0
		c-21.28-8.455-45.347-6.461-59.242,0c-13.896,6.458-26.611,17.985-22.967,29.682c3.646,11.688,20.19,28.76,17.681,58.155
		c-2.512,29.39-16.256,82.811-19.722,102.567c0,0,21.073,14.857,21.696,38.07c0.625,23.215-2.714,39.082-2.714,39.082
		s24.23-1.31,33.141,18.758c14.574,32.822,3.218,59.427,3.218,59.427h28.91h28.913c0,0-11.362-26.604,3.211-59.427
		c8.911-20.066,33.146-18.758,33.146-18.758s-3.338-15.867-2.715-39.082C463.243,427.446,484.314,412.589,484.314,412.589"/>
	<path display="inline" fill="none" stroke="#000000" stroke-miterlimit="10" d="M484.314,412.589
		c-3.466-19.757-17.211-73.177-19.722-102.567c-2.511-29.396,14.031-46.467,17.681-58.155c3.646-11.696-9.071-23.223-22.969-29.682
		c-13.896-6.461-37.962-8.455-59.24,0c-21.28-8.455-45.347-6.461-59.242,0c-13.896,6.458-26.611,17.985-22.967,29.682
		c3.646,11.688,20.19,28.76,17.681,58.155c-2.512,29.39-16.256,82.811-19.722,102.567c0,0,21.073,14.857,21.696,38.07
		c0.625,23.215-2.714,39.082-2.714,39.082s24.23-1.31,33.141,18.758c14.574,32.822,3.218,59.427,3.218,59.427h28.91h28.913
		c0,0-11.362-26.604,3.211-59.427c8.911-20.066,33.146-18.758,33.146-18.758s-3.338-15.867-2.715-39.082
		C463.243,427.446,484.314,412.589,484.314,412.589z"/>
	<path display="inline" fill="#FFFFFF" d="M315.815,412.589c-38.182-9.39-123.823-43.896-145.965-38.504
		c-22.145,5.389-26.212,101.649-40.448,129.442c-14.235,27.793-22.792,36.969-23.02,46.19c-0.228,9.227-2.091,10.261,2.301,12.289
		c4.393,2.023,27.288-44.001,33.483-53.709c6.196-9.71,49.377-69.563,55.928-85.747c0,0,45.671,14.839,76.052,28.587
		c30.376,13.749,28.319,29.401,60.651,38.604c0,0,4.021-23.058,2.782-35.33c-1.237-12.275-3.009-22.439-10.238-30.341
		C320.112,416.169,315.815,412.589,315.815,412.589"/>
	<path display="inline" fill="none" stroke="#000000" stroke-miterlimit="10" d="M315.815,412.589
		c-38.182-9.39-123.823-43.896-145.965-38.504c-22.145,5.389-26.212,101.649-40.448,129.442
		c-14.235,27.793-22.792,36.969-23.02,46.19c-0.228,9.227-2.091,10.261,2.301,12.289c4.393,2.023,27.288-44.001,33.483-53.709
		c6.196-9.71,49.377-69.563,55.928-85.747c0,0,45.671,14.839,76.052,28.587c30.376,13.749,28.319,29.401,60.651,38.604
		c0,0,4.021-23.058,2.782-35.33c-1.237-12.275-3.009-22.439-10.238-30.341C320.112,416.169,315.815,412.589,315.815,412.589z"/>
	<path display="inline" fill="#FFFFFF" d="M483.618,412.589c38.181-9.39,123.823-43.896,145.966-38.504
		c22.145,5.389,26.212,101.649,40.447,129.442s22.793,36.969,23.021,46.19c0.229,9.227,2.092,10.261-2.301,12.289
		c-4.394,2.023-27.286-44.001-33.482-53.709c-6.194-9.71-49.377-69.563-55.929-85.747c0,0-45.671,14.839-76.051,28.587
		c-30.377,13.749-27.619,29.401-59.957,38.604c0,0-4.716-23.058-3.477-35.33c1.235-12.275,3.01-22.439,10.237-30.341
		C479.323,416.169,483.618,412.589,483.618,412.589"/>
	<path display="inline" fill="none" stroke="#000000" stroke-miterlimit="10" d="M483.618,412.589
		c38.181-9.39,123.823-43.896,145.966-38.504c22.145,5.389,26.212,101.649,40.447,129.442s22.793,36.969,23.021,46.19
		c0.229,9.227,2.092,10.261-2.301,12.289c-4.394,2.023-27.286-44.001-33.482-53.709c-6.194-9.71-49.377-69.563-55.929-85.747
		c0,0-45.671,14.839-76.051,28.587c-30.377,13.749-27.619,29.401-59.957,38.604c0,0-4.716-23.058-3.477-35.33
		c1.235-12.275,3.01-22.439,10.237-30.341C479.323,416.169,483.618,412.589,483.618,412.589z"/>
	<path display="inline" d="M434.943,579.01c0,21.745-15.615,39.37-34.876,39.37c-19.267,0-34.883-17.625-34.883-39.37
		c0-21.738,15.617-39.367,34.883-39.367C419.328,539.643,434.943,557.271,434.943,579.01"/>
	<path display="inline" d="M362.031,566.146C362.022,566.167,362.039,566.128,362.031,566.146
		C362,566.204,362.039,566.085,362.031,566.146c-0.963,4.58-1.92,9.605-1.505,14.378c1.039,23.645,11.277,77.083,47.436,95.404
		c15.638,7.923,44.41,6.495,74.358,7.032c34.292,0.62,74.358,1.386,91.553-3.158c6.907-1.822,7.807-5.981,6.866-11.501
		c-1.239-7.272-12.698-59.511-69.479-40.588c-17.629,5.873-37.004,8.483-65.668-55.563c-5.604-12.527-21.874-31.343-42.886-32.389
		C388.777,539.07,366.711,546.35,362.031,566.146"/>
	<path display="inline" fill="none" stroke="#000000" stroke-miterlimit="10" d="M348.808,491.846
		c5.115-7.439,27.729-25.093,52.2-25.095c21.086,0,39.65,14.161,48.879,25.095"/>
	<path display="inline" fill="none" stroke="#000000" stroke-miterlimit="10" d="M671.165,588.919
		c7.05,0.611,27.591-9.906,27.591-9.906"/>
	<path display="inline" fill="none" stroke="#000000" stroke-miterlimit="10" d="M128.819,588.942
		c-14.605,0.588-25.512-13.91-25.512-13.91"/>
</g>
<g id="Seated_Forward_Bend" display="none">
	<path display="inline" fill="#FFFFFF" d="M206.517,582.848c12.811-19.932,51.972-60.904,77.002-70.059
		c25.031-9.149,34.768-13.08,42.795-23.686c8.026-10.605-1.884-76.706,0-100.662c1.883-23.953,30.414-48.81,30.414-48.81
		l-22.047-33.55c0,0-23.169,21.936-58.697,48.144c-35.528,26.205-72.134,67.321-103.893,105.542
		c-31.758,38.22-80.972,93.009-80.972,93.009l25.526,47.756L206.517,582.848z"/>
	<path display="inline" fill="none" stroke="#000000" stroke-miterlimit="10" d="M206.517,582.848
		c12.811-19.932,51.972-60.904,77.002-70.059c25.031-9.149,34.768-13.08,42.795-23.686c8.026-10.605-1.884-76.706,0-100.662
		c1.883-23.953,30.414-48.81,30.414-48.81l-22.047-33.55c0,0-23.169,21.936-58.697,48.144
		c-35.528,26.205-72.134,67.321-103.893,105.542c-31.758,38.22-80.972,93.009-80.972,93.009l25.526,47.756L206.517,582.848z"/>
	<path display="inline" fill="#FFFFFF" d="M91.118,552.776c-13.501,17.206-22.569,40.587-20.769,63.635
		c5.249,67.017,85.17,74.508,125.733,74.508c27.619,0,123.478-9.871,165.352-1.838c56.972,10.932,252.782,1.078,344.624,3.548
		c11.867,0.309,24.142-11.23,22.351-22.978c-8.271-54.35,14.76-84.949-11.697-106.938c-4.75-3.947-14.244-4.854-15.832,1.121
		c-2.02,7.834,2.699,17.643,1.783,36.298c-0.529,10.803-10.269,21.488-19.031,35.215c-16.557,15.386-58.969,15.275-68.781,14.437
		c-35.95-3.021-76.645-5.961-107.08-13.188c-85.113-20.255-117.125-22.593-202.049-41.584
		c-66.701-14.918-128.45-7.796-159.718,2.642l60.513-14.804c0,0-45.526-4.991-63.091-10.85
		C125.865,566.149,91.118,552.776,91.118,552.776"/>
	<path display="inline" fill="none" stroke="#000000" stroke-miterlimit="10" d="M91.118,552.776
		c-13.501,17.206-22.569,40.587-20.769,63.635c5.249,67.017,85.17,74.508,125.733,74.508c27.619,0,123.478-9.871,165.352-1.838
		c56.972,10.932,252.782,1.078,344.624,3.548c11.867,0.309,24.142-11.23,22.351-22.978c-8.271-54.35,14.76-84.949-11.697-106.938
		c-4.75-3.947-14.244-4.854-15.832,1.121c-2.02,7.834,2.699,17.643,1.783,36.298c-0.529,10.803-10.269,21.488-19.031,35.215
		c-16.557,15.386-58.969,15.275-68.781,14.437c-35.95-3.021-76.645-5.961-107.08-13.188
		c-85.113-20.255-117.125-22.593-202.049-41.584c-66.701-14.918-128.45-7.796-159.718,2.642l60.513-14.804
		c0,0-45.526-4.991-63.091-10.85C125.865,566.149,91.118,552.776,91.118,552.776z"/>
	<path display="inline" fill="none" stroke="#000000" stroke-miterlimit="10" d="M326.086,393.637c0,0-19.691-21.88-49.961-6.999
		c-37.854,18.615-26.377,93.781,39.442,78.111"/>
	<path display="inline" fill="#FFFFFF" d="M295.862,450.256c0,0,147.759,120.896,178.569,137.484
		c30.804,16.586,147.189,55.815,147.189,55.815c21.106,8.726,33.717,23,61.469,27.17c27.758,4.17,26.805,0.097,25.594-3.927
		c-1.211-4.022-50.612-45.838-74.797-44.251c-7.961,0.521-9.01-0.187-13.133-1.187l-131.359-68.494L326.086,393.64"/>
	<path display="inline" fill="none" stroke="#000000" stroke-miterlimit="10" d="M295.862,450.256
		c0,0,147.759,120.896,178.569,137.484c30.804,16.586,147.189,55.815,147.189,55.815c21.106,8.726,33.717,23,61.469,27.17
		c27.758,4.17,26.805,0.097,25.594-3.927c-1.211-4.022-50.612-45.838-74.797-44.251c-7.961,0.521-9.01-0.187-13.133-1.187
		l-131.359-68.494L326.086,393.64"/>
	<path display="inline" d="M315.994,248.543c-7.55-21.366-37.95-68.172-83.475-25.627c-28.901,27.011-75.373,63.072-110.457,54.111
		c-35.078-8.957-8.281,71.494,39.414,75.818c47.689,4.324,92.499-24.265,105.667-63.356
		C280.313,250.391,315.994,248.543,315.994,248.543"/>
	<path display="inline" fill="#FFFFFF" d="M320.627,312.154c-6.088-10.822-0.907-21.448-2.958-34.944
		c-3.249-21.448,22.898-42.504,47.093-41.06c31.949,1.902,33.22,116.051,14.704,117.979c-10.963,1.145-30.917-8.147-45.398-26.375
		C329.413,321.894,320.627,312.154,320.627,312.154"/>
	<path display="inline" fill="none" stroke="#000000" stroke-miterlimit="10" d="M320.627,312.154
		c-6.088-10.822-0.907-21.448-2.958-34.944c-3.249-21.448,22.898-42.504,47.093-41.06c31.949,1.902,33.22,116.051,14.704,117.979
		c-10.963,1.145-30.917-8.147-45.398-26.375C329.413,321.894,320.627,312.154,320.627,312.154z"/>
	<path display="inline" d="M378.1,249.499c-0.473,20.021-15.313,56.214-40.432,49.572c-28.234-7.478-16.76,9.459-14.563,14.792
		c2.198,5.328,15.903,15.426,13.08,16.935c-2.822,1.501-41.764-13.061-45.511-41.953c-3.744-28.895,3.341-43.911,18.35-52.758
		c15.009-8.848,46.113-10.283,61.022-1.01C384.953,244.354,378.1,249.499,378.1,249.499"/>
	<path display="inline" fill="none" stroke="#000000" stroke-miterlimit="10" d="M271.558,357.561
		c-3.988,9.352,14.041,15.408,24.304,16.414c10.265,1.012,26.029,4.293,30.662,12.544"/>
	<path display="inline" fill="none" stroke="#000000" stroke-miterlimit="10" d="M629.916,649.976
		c4.84,8.628,8.674,30.18,7.465,42.413"/>
</g>
<g id="Dancer" display="none">
	<path display="inline" fill="#FFFFFF" d="M474.891,371.957c0,0,91.967-90.766,107.575-113.587
		c15.61-22.817,56.165-110.986,56.165-110.986c8.622-15.855,20.893-24.566,26.488-46.027c5.598-21.458,2.32-21.05-0.944-20.437
		c-3.264,0.613-40.247,35.934-41.026,55.067c-0.256,6.303-0.896,7.065-2.029,10.226l-64.801,97.482l-109.524,93.869"/>
	<path display="inline" fill="none" stroke="#000000" stroke-miterlimit="10" d="M474.891,371.957
		c0,0,91.967-90.766,107.575-113.587c15.61-22.817,56.165-110.986,56.165-110.986c8.622-15.855,20.893-24.566,26.488-46.027
		c5.598-21.458,2.32-21.05-0.944-20.437c-3.264,0.613-40.247,35.934-41.026,55.067c-0.256,6.303-0.896,7.065-2.029,10.226
		l-64.801,97.482l-109.524,93.869"/>
	<path display="inline" fill="#FFFFFF" d="M295.001,475.453c0,0,15.215,7.686,34.578,12.049c21.932,4.943,39.709,2.477,39.709,2.477
		c-2.444,23.699-9.76,49.104-13.788,76.291c-2.229,15.035-8.253,45.214-13.613,69.89c-8.398,38.684-15.251,125.721-7.441,144.063
		c5.315,12.49,29.76,20.601,55.721,24.492c27.433,4.111,13.243,13.814,6.126,13.957l-81.049,0.6
		c-17.166-0.129-16.528-18.633-15.04-35.436c3.521-39.736-6.97-81.531-9.358-121.434c-1.909-31.923,2.825-57.425,4.254-89.324
		C296.628,538.914,295.001,475.453,295.001,475.453"/>
	<path display="inline" fill="none" stroke="#000000" stroke-miterlimit="10" d="M295.001,475.453c0,0,15.215,7.686,34.578,12.049
		c21.932,4.943,39.709,2.477,39.709,2.477c-2.444,23.699-9.76,49.104-13.788,76.291c-2.229,15.035-8.253,45.214-13.613,69.89
		c-8.398,38.684-15.251,125.721-7.441,144.063c5.315,12.49,29.76,20.601,55.721,24.492c27.433,4.111,13.243,13.814,6.126,13.957
		l-81.049,0.6c-17.166-0.129-16.528-18.633-15.04-35.436c3.521-39.736-6.97-81.531-9.358-121.434
		c-1.909-31.923,2.825-57.425,4.254-89.324C296.628,538.914,295.001,475.453,295.001,475.453z"/>
	<path display="inline" fill="#FFFFFF" d="M487.782,409.742c-13.563,7.851-24.883,15.001-36.897,25.095
		c-13.046,10.961-23.829,24.693-39.141,32.327c-15.076,7.521-26.707,16.474-41.807,22.286l-10.894-87.715
		c10.333-2.386,36.885-13.336,50.899-60.899c8.297-28.163,19.126-46.405,46.862-60.011c38.89-19.068,48.157-44.644,48.324-77.739
		c3.739,9.573,6.919,18.618,9.556,28.854c2.637,10.238,10.681,5.974,12.981,16.452c-15.469,23.063-33.485,56.133-27.831,84.218
		C505.22,359.338,521.592,390.17,487.782,409.742"/>
	<path display="inline" fill="none" stroke="#000000" stroke-miterlimit="10" d="M487.782,409.742
		c-13.563,7.851-24.883,15.001-36.897,25.095c-13.046,10.961-23.829,24.693-39.141,32.327
		c-15.076,7.521-26.707,16.474-41.807,22.286l-10.894-87.715c10.333-2.386,36.885-13.336,50.899-60.899
		c8.297-28.163,19.126-46.405,46.862-60.011c38.89-19.068,48.157-44.644,48.324-77.739c3.739,9.573,6.919,18.618,9.556,28.854
		c2.637,10.238,10.681,5.974,12.981,16.452c-15.469,23.063-33.485,56.133-27.831,84.218
		C505.22,359.338,521.592,390.17,487.782,409.742z"/>
	<path display="inline" fill="none" stroke="#000000" stroke-miterlimit="10" d="M461.15,278.591c0,0,15.21,14.324,26.896,53.297
		c11.688,38.969,19.73,28.247,19.73,28.247"/>
	<path display="inline" fill="none" stroke="#000000" stroke-miterlimit="10" d="M411.746,328.835c0,0,28.941,27.146,56.408,8.569
		c17.891-12.101-11.348-56.577-11.348-56.577"/>
	<path display="inline" fill="#FFFFFF" d="M369.241,489.717c27.243-52.301-10.196-87.981-10.196-87.981
		c-0.949,0.153-1.739,0.227-2.35,0.264c-0.862,0.048-1.705-0.281-2.313-0.899c-16.833-17.04-29.427-20.71-51.195-19.804
		c-14.901,0.618-29.79-1.436-43.87-6.353c-44.072-15.388-76.71-28.679-76.723-28.684c5.704-5.503,12.659-18.149,18.793-34.222
		c7.62-19.96,9.477-33.446,13.253-62.374c2.04-15.614,1.134-29.661,17.072-46.271c2.582-2.689,3.407-6.674,2.016-10.131
		c-12.711-31.626,1.875-48.218-9.236-66.668c-1.787-2.971-6.345-2.258-7.228,1.097c-5.219,19.806-8.915,45.219-11.16,65.588
		c-0.439,3.958-1.403,7.821-2.922,11.501c-7.12,17.219-14.962,34.321-22.067,51.924c-16.078,32.611-36.786,62.474-46.666,84.126
		c-5.584,12.24-1.916,26.687,8.675,34.983c29.126,22.817,81.062,58.002,104.312,73.575c6.588,4.416,13.547,8.197,20.686,11.656
		c22.267,10.781,36.426,26.883,87.525,29.676c4,0.215,8.027,0.056,11.978-0.604C368.234,490.014,368.789,489.893,369.241,489.717"/>
	<path display="inline" fill="none" stroke="#000000" stroke-miterlimit="10" d="M369.241,489.717
		c27.243-52.301-10.196-87.981-10.196-87.981c-0.949,0.153-1.739,0.227-2.35,0.264c-0.862,0.048-1.705-0.281-2.313-0.899
		c-16.833-17.04-29.427-20.71-51.195-19.804c-14.901,0.618-29.79-1.436-43.87-6.353c-44.072-15.388-76.71-28.679-76.723-28.684
		c5.704-5.503,12.659-18.149,18.793-34.222c7.62-19.96,9.477-33.446,13.253-62.374c2.04-15.614,1.134-29.661,17.072-46.271
		c2.582-2.689,3.407-6.674,2.016-10.131c-12.711-31.626,1.875-48.218-9.236-66.668c-1.787-2.971-6.345-2.258-7.228,1.097
		c-5.219,19.806-8.915,45.219-11.16,65.588c-0.439,3.958-1.403,7.821-2.922,11.501c-7.12,17.219-14.962,34.321-22.067,51.924
		c-16.078,32.611-36.786,62.474-46.666,84.126c-5.584,12.24-1.916,26.687,8.675,34.983c29.126,22.817,81.062,58.002,104.312,73.575
		c6.588,4.416,13.547,8.197,20.686,11.656c22.267,10.781,36.426,26.883,87.525,29.676c4,0.215,8.027,0.056,11.978-0.604
		C368.234,490.014,368.789,489.893,369.241,489.717z"/>
	<path display="inline" fill="#FFFFFF" d="M483.376,241.319c-6.104-6.325-4.334-14.52-8.088-23.399
		c-5.962-14.096,8.598-33.172,25.684-36.492c22.559-4.386,43.137,73.534,30.587,78.147c-7.432,2.734-22.921-0.075-36.141-9.972
		C491.167,246.421,483.376,241.319,483.376,241.319"/>
	<path display="inline" fill="none" stroke="#000000" stroke-miterlimit="10" d="M483.376,241.319
		c-6.104-6.325-4.334-14.52-8.088-23.399c-5.962-14.096,8.598-33.172,25.684-36.492c22.559-4.386,43.137,73.534,30.587,78.147
		c-7.432,2.734-22.921-0.075-36.141-9.972C491.167,246.421,483.376,241.319,483.376,241.319z"/>
	<path display="inline" d="M509.495,187.308c4.843,11.833-5.296,27.734-13.263,28.481c-7.969,0.748-13.327,2.171-13.322,4.897
		c0,2.729,1.813,6.689,4.117,6.333c2.303-0.358,6.822-2.981,8.384,1.214c1.561,4.197-1.708,17.042-9.509,22.717
		c-7.792,5.67-21.702,2.071-29.95-10.101c-8.251-12.169-2.574-34.156,7.802-48.058c5.005-6.704,12.438-11.704,19.587-13.58
		C495.133,176.122,504.743,175.698,509.495,187.308"/>
	<path display="inline" d="M461.15,203.295c-3.338,7.746-4.777,17.264-16.441,21.543c-11.667,4.282-17.548-3.237-24.34,1.219
		c-6.788,4.456-16.589,25.281-28.721,28.409c-12.136,3.123-12.971-6.918-26.354-3.726c-11.443,2.729-5.461,24.563-31.444,27.829
		c-12.465,1.567-31.758-80.208-15.015-82.464c16.743-2.261,25.961,9.598,35.086,7.143c9.129-2.452,9.989-16.23,22.49-18.714
		c17.521-3.486,23.366,15.195,36.437,12.494c10.746-2.223,11.061-9.83,23.817-12.042C449.425,182.776,461.15,203.295,461.15,203.295
		"/>
	<path display="inline" fill="#FFFFFF" d="M412.254,329.292c-32.941-27.405-87.914-58.443-103.296-71.219
		c-21.269-17.663-84.449-91.329-84.449-91.329c-12.637-12.88-10.742-1.179-22.01-20.282c-11.267-19.103,1.797-22.664,5.104-22.968
		c3.306-0.304,22.676,9.862,28.667,28.048c1.976,5.986,2.8,6.544,4.755,9.271l89.054,75.979l120.804,48.749"/>
	<path display="inline" fill="none" stroke="#000000" stroke-miterlimit="10" d="M412.254,329.292
		c-32.941-27.405-87.914-58.443-103.296-71.219c-21.269-17.663-84.449-91.329-84.449-91.329
		c-12.637-12.88-10.742-1.179-22.01-20.282c-11.267-19.103,1.797-22.664,5.104-22.968c3.306-0.304,22.676,9.862,28.667,28.048
		c1.976,5.986,2.8,6.544,4.755,9.271l89.054,75.979l120.804,48.749"/>
</g>
<g id="Forearm_Stand" display="none">
	<path display="inline" fill="#FFFFFF" d="M386.835,692.83c2.327,9.777,12.771,18.581,12.771,18.581l-8.97,24.178l-25.012-19.94
		L386.835,692.83z"/>
	<path display="inline" fill="none" stroke="#000000" stroke-miterlimit="10" d="M386.835,692.83
		c2.327,9.777,12.771,18.581,12.771,18.581l-8.97,24.178l-25.012-19.94L386.835,692.83z"/>
	<path display="inline" fill="#FFFFFF" d="M330.568,546.014c12.027,2.059,33.556,5.732,33.556,5.732s2.883,31.597,12.497,53.411
		c9.616,21.813,15.994,72.184,16.917,79.044c0,0-9.312-22.983-29.015-21.979c-22.479,1.151-29.896,32.604-25.759,50.331
		c0,0-11.665-11.863-21.363-16.104c-9.699-4.237-18.924-20.195-17.9-30.924c1.027-10.731,8.152-41.32,6.554-54.136
		c-1.597-12.813-6.941-68.946-6.569-70.686L330.568,546.014z"/>
	<path display="inline" fill="none" stroke="#000000" stroke-miterlimit="10" d="M330.568,546.014
		c12.027,2.059,33.556,5.732,33.556,5.732s2.883,31.597,12.497,53.411c9.616,21.813,15.994,72.184,16.917,79.044
		c0,0-9.312-22.983-29.015-21.979c-22.479,1.151-29.896,32.604-25.759,50.331c0,0-11.665-11.863-21.363-16.104
		c-9.699-4.237-18.924-20.195-17.9-30.924c1.027-10.731,8.152-41.32,6.554-54.136c-1.597-12.813-6.941-68.946-6.569-70.686
		L330.568,546.014z"/>
	<path display="inline" fill="#FFFFFF" d="M396.298,704.423c5.796-6.438,13.977-5.386,22.44-9.746
		c13.446-6.933,33.194,5.654,37.637,21.965c5.867,21.539-69.296,47.833-74.696,36.029c-3.2-6.99-1.507-22.254,7.31-35.885
		C391.823,712.4,396.298,704.423,396.298,704.423"/>
	<path display="inline" fill="none" stroke="#000000" stroke-miterlimit="10" d="M396.298,704.423
		c5.796-6.438,13.977-5.386,22.44-9.746c13.446-6.933,33.194,5.654,37.637,21.965c5.867,21.539-69.296,47.833-74.696,36.029
		c-3.2-6.99-1.507-22.254,7.31-35.885C391.823,712.4,396.298,704.423,396.298,704.423z"/>
	<path display="inline" d="M450.525,728.435c-13.341,4.155-40.568,2.417-41.777-15.666c-1.357-20.327-9.991-8.969-13.023-6.327
		c-3.028,2.643-6.648,13.949-8.274,12.421c-1.623-1.531-0.682-30.517,17.581-39.433c18.259-8.915,29.765-7.583,38.958,0.362
		c9.19,7.946,17.078,28.187,14.27,40.104C455.453,731.82,450.525,728.435,450.525,728.435"/>
	<path display="inline" d="M441.072,686.207c-6.695-6.945-17.148-27.702,8.418-32.488c21.006-3.933,15.668-11.625,30.285-21.952
		c11.756-8.297,28.998,2.979,25.5,32.225c-3.183,26.622-18.422,20.146-35.697,16.841
		C452.305,677.53,441.072,686.207,441.072,686.207"/>
	<line display="inline" fill="none" x1="364.124" y1="551.746" x2="299.486" y2="540.704"/>
	
		<line display="inline" fill="none" stroke="#000000" stroke-miterlimit="10" x1="364.124" y1="551.746" x2="299.486" y2="540.704"/>
	<path display="inline" fill="#FFFFFF" d="M331.803,546.225c10.146,1.735,32.32,5.521,32.32,5.521s-1.202-15.603,2.108-20.85
		c3.313-5.25,17.767-26.528,19.451-44.355c1.687-17.833,1.026-32.449-9.135-55.561c-10.161-23.115-13.316-60.678-7.21-83.874
		c6.107-23.203,16.485-52.431,16.551-81.862c0.063-29.426-0.467-70.127,0.467-82.063c0.93-11.934,2.847-30.482,5.333-34.5
		s8.064,0.077,11.636-3.836c3.574-3.912,0.713-11.907-5.052-24.708c-5.77-12.802-17.402-42.99-20.364-50.893
		c-2.96-7.899-11.443-8.722-10.744-1.298c0.7,7.419,1.574,22.525,1.188,38.455c-0.385,15.925-1.511,48.189-4.153,62.955
		c-2.64,14.759-12.356,54.966-18.633,75.095c-6.273,20.126-31.273,88.691-34.208,104.384c-2.938,15.697-15.809,74.52-17.625,115.705
		c-1.813,41.183,5.753,76.167,5.753,76.167L331.803,546.225z"/>
	<path display="inline" fill="none" stroke="#000000" stroke-miterlimit="10" d="M331.803,546.225
		c10.146,1.735,32.32,5.521,32.32,5.521s-1.202-15.603,2.108-20.85c3.313-5.25,17.767-26.528,19.451-44.355
		c1.687-17.833,1.026-32.449-9.135-55.561c-10.161-23.115-13.316-60.678-7.21-83.874c6.107-23.203,16.485-52.431,16.551-81.862
		c0.063-29.426-0.467-70.127,0.467-82.063c0.93-11.934,2.847-30.482,5.333-34.5s8.064,0.077,11.636-3.836
		c3.574-3.912,0.713-11.907-5.052-24.708c-5.77-12.802-17.402-42.99-20.364-50.893c-2.96-7.899-11.443-8.722-10.744-1.298
		c0.7,7.419,1.574,22.525,1.188,38.455c-0.385,15.925-1.511,48.189-4.153,62.955c-2.64,14.759-12.356,54.966-18.633,75.095
		c-6.273,20.126-31.273,88.691-34.208,104.384c-2.938,15.697-15.809,74.52-17.625,115.705c-1.813,41.183,5.753,76.167,5.753,76.167
		L331.803,546.225z"/>
	<line display="inline" fill="none" x1="387.286" y1="171.246" x2="365.013" y2="162.787"/>
	
		<line display="inline" fill="none" stroke="#000000" stroke-miterlimit="10" x1="387.286" y1="171.246" x2="365.013" y2="162.787"/>
	<path display="inline" fill="#FFFFFF" d="M354.118,665.367c6.426-3.637,16.907-7.518,29.388,3.967c0,0,7.157,7.49,10.032,14.867
		c0,0,0.602,7.14-2.495,17.588c-3.094,10.449-25.956,94.971-25.191,100.373c0.768,5.4,81.336,13.623,94.516,14.522
		c13.182,0.906,14.955,1.849,24.022-3.973c4.535-2.911,14.673-6.779,18.949-4.16c4.277,2.622,3.469,11.886,2.174,16.419
		c-0.69,2.422,0.507,5.441-0.69,7.015c-3.592,4.729-12.121,5.052-17.248,4.639c-6.836-0.554-8.555-3.277-23.959-1.583
		c-15.402,1.698-65.438,2.354-94.516,2.074c-29.075-0.28-34.686-1.237-37.141-7.741c-2.457-6.505,6.258-72,8.036-87.702
		c1.78-15.703-0.346-20.883-1.229-29.116c-0.888-8.234-1.658-22.191,3.914-33.278S354.118,665.367,354.118,665.367"/>
	<path display="inline" fill="none" stroke="#000000" stroke-miterlimit="10" d="M354.118,665.367
		c6.426-3.637,16.907-7.518,29.388,3.967c0,0,7.157,7.49,10.032,14.867c0,0,0.602,7.14-2.495,17.588
		c-3.094,10.449-25.956,94.971-25.191,100.373c0.768,5.4,81.336,13.623,94.516,14.522c13.182,0.906,14.955,1.849,24.022-3.973
		c4.535-2.911,14.673-6.779,18.949-4.16c4.277,2.622,3.469,11.886,2.174,16.419c-0.69,2.422,0.507,5.441-0.69,7.015
		c-3.592,4.729-12.121,5.052-17.248,4.639c-6.836-0.554-8.555-3.277-23.959-1.583c-15.402,1.698-65.438,2.354-94.516,2.074
		c-29.075-0.28-34.686-1.237-37.141-7.741c-2.457-6.505,6.258-72,8.036-87.702c1.78-15.703-0.346-20.883-1.229-29.116
		c-0.888-8.234-1.658-22.191,3.914-33.278S354.118,665.367,354.118,665.367z"/>
</g>
<g id="Handstand" display="none">
	<path display="inline" fill="#FFFFFF" d="M389.002,610.545c2.008,8.428,11.006,16.016,11.006,16.016l-7.729,20.845l-21.563-17.189
		L389.002,610.545z"/>
	<path display="inline" fill="none" stroke="#000000" stroke-miterlimit="10" d="M389.002,610.545
		c2.008,8.428,11.006,16.016,11.006,16.016l-7.729,20.845l-21.563-17.189L389.002,610.545z"/>
	<line display="inline" fill="none" x1="369.424" y1="488.93" x2="313.706" y2="479.411"/>
	<line display="inline" fill="none" stroke="#000000" stroke-miterlimit="10" x1="369.424" y1="488.93" x2="313.706" y2="479.411"/>
	<path display="inline" fill="#FFFFFF" d="M340.499,483.99c10.369,1.771,28.925,4.938,28.925,4.938s2.485,27.236,10.774,46.04
		c8.287,18.807,13.786,62.225,14.583,68.137c0,0-8.028-19.812-25.015-18.943c-19.376,0.99-25.771,28.102-22.204,43.383
		c0,0-10.055-10.225-18.413-13.879c-8.362-3.656-16.315-17.41-15.433-26.66c0.885-9.25,7.029-35.617,5.649-46.664
		c-1.376-11.047-5.983-59.431-5.663-60.929L340.499,483.99z"/>
	<path display="inline" fill="none" stroke="#000000" stroke-miterlimit="10" d="M340.499,483.99
		c10.369,1.771,28.925,4.938,28.925,4.938s2.485,27.236,10.774,46.04c8.287,18.807,13.786,62.225,14.583,68.137
		c0,0-8.028-19.812-25.015-18.943c-19.376,0.99-25.771,28.102-22.204,43.383c0,0-10.055-10.225-18.413-13.879
		c-8.362-3.656-16.315-17.41-15.433-26.66c0.885-9.25,7.029-35.617,5.649-46.664c-1.376-11.047-5.983-59.431-5.663-60.929
		L340.499,483.99z"/>
	<path display="inline" fill="#FFFFFF" d="M341.564,484.172c8.744,1.495,27.859,4.758,27.859,4.758s-1.038-13.446,1.819-17.974
		c2.854-4.524,15.313-22.867,16.767-38.235c1.452-15.37,0.883-27.971-7.875-47.892c-8.758-19.925-11.479-52.304-6.213-72.3
		c5.262-19.999,14.208-45.194,14.266-70.563c0.053-25.366-0.403-60.45,0.402-70.739c0.801-10.291,2.453-26.277,4.596-29.741
		c2.145-3.463,6.95,0.068,10.03-3.305c3.081-3.375,0.615-10.264-4.354-21.299c-4.974-11.037-15.001-37.058-17.555-43.87
		c-2.551-6.809-9.861-7.518-9.261-1.119c0.604,6.395,1.357,19.417,1.024,33.148c-0.333,13.727-1.306,41.539-3.581,54.266
		c-2.274,12.724-10.648,47.381-16.063,64.734c-5.409,17.347-26.956,76.45-29.484,89.979c-2.534,13.53-13.629,64.234-15.194,99.738
		c-1.563,35.5,4.959,65.655,4.959,65.655L341.564,484.172z"/>
	<path display="inline" fill="none" stroke="#000000" stroke-miterlimit="10" d="M341.564,484.172
		c8.744,1.495,27.859,4.758,27.859,4.758s-1.038-13.446,1.819-17.974c2.854-4.524,15.313-22.867,16.767-38.235
		c1.452-15.37,0.883-27.971-7.875-47.892c-8.758-19.925-11.479-52.304-6.213-72.3c5.262-19.999,14.208-45.194,14.266-70.563
		c0.053-25.366-0.403-60.45,0.402-70.739c0.801-10.291,2.453-26.277,4.596-29.741c2.145-3.463,6.95,0.068,10.03-3.305
		c3.081-3.375,0.615-10.264-4.354-21.299c-4.974-11.037-15.001-37.058-17.555-43.87c-2.551-6.809-9.861-7.518-9.261-1.119
		c0.604,6.395,1.357,19.417,1.024,33.148c-0.333,13.727-1.306,41.539-3.581,54.266c-2.274,12.724-10.648,47.381-16.063,64.734
		c-5.409,17.347-26.956,76.45-29.484,89.979c-2.534,13.53-13.629,64.234-15.194,99.738c-1.563,35.5,4.959,65.655,4.959,65.655
		L341.564,484.172z"/>
	<line display="inline" fill="none" x1="389.391" y1="160.936" x2="370.192" y2="153.644"/>
	
		<line display="inline" fill="none" stroke="#000000" stroke-miterlimit="10" x1="389.391" y1="160.936" x2="370.192" y2="153.644"/>
	<path display="inline" fill="#FFFFFF" d="M397.159,620.537c4.996-5.549,12.046-4.641,19.344-8.4
		c11.592-5.977,28.614,4.875,32.442,18.937c5.056,18.565-59.732,41.229-64.39,31.057c-2.758-6.027-1.3-19.184,6.302-30.936
		C393.302,627.416,397.159,620.537,397.159,620.537"/>
	<path display="inline" fill="none" stroke="#000000" stroke-miterlimit="10" d="M397.159,620.537
		c4.996-5.549,12.046-4.641,19.344-8.4c11.592-5.977,28.614,4.875,32.442,18.937c5.056,18.565-59.732,41.229-64.39,31.057
		c-2.758-6.027-1.3-19.184,6.302-30.936C393.302,627.416,397.159,620.537,397.159,620.537z"/>
	<path display="inline" d="M443.903,641.236c-11.499,3.58-34.972,2.082-36.012-13.504c-1.171-17.525-8.612-7.732-11.229-5.453
		c-2.612,2.272-5.731,12.022-7.131,10.703c-1.401-1.318-0.588-26.302,15.15-33.99c15.743-7.685,25.657-6.533,33.583,0.315
		c7.925,6.847,14.722,24.295,12.302,34.568C448.151,644.154,443.903,641.236,443.903,641.236"/>
	<path display="inline" d="M435.753,604.836c-5.771-5.986-14.78-23.879,7.259-28.004c18.107-3.391,13.504-10.023,26.107-18.922
		c10.129-7.152,24.995,2.565,21.979,27.776c-2.745,22.947-15.881,17.361-30.771,14.515
		C445.439,597.357,435.753,604.836,435.753,604.836"/>
	<path display="inline" fill="#FFFFFF" d="M358.086,587.627c8.838-6.641,28.653-4.723,36.242,14.416c0,0,1.315,7.018-2.594,15.43
		c-3.908,8.41-6.556,8.449-6.275,15.474c0.282,7.022,0.452,49.533-0.68,62.957c-1.133,13.42-3.268,33.938-2.862,51.071
		c0.404,17.134-2.006,67.222-0.584,70.812c1.423,3.584,10.081,3.25,13.208,3.697c3.127,0.442,21.26,4.145,26.011,7.58
		c4.752,3.438-1.78,3.567-6.317,3.426c-4.539-0.146-36.426-0.476-42.422-0.662c-6.002-0.189-5.546-8.152-5.957-14.35
		c-0.41-6.199-4.309-38.836-5.286-46.843c-0.977-8.01-6.384-57.35-7.227-82.114c-0.844-24.763-2.385-47.242-3.906-53.601
		c-1.521-6.354-3.214-9.018-2.49-22.033C347.669,599.869,358.086,587.627,358.086,587.627"/>
	<path display="inline" fill="none" stroke="#000000" stroke-miterlimit="10" d="M358.086,587.627
		c8.838-6.641,28.653-4.723,36.242,14.416c0,0,1.315,7.018-2.594,15.43c-3.908,8.41-6.556,8.449-6.275,15.474
		c0.282,7.022,0.452,49.533-0.68,62.957c-1.133,13.42-3.268,33.938-2.862,51.071c0.404,17.134-2.006,67.222-0.584,70.812
		c1.423,3.584,10.081,3.25,13.208,3.697c3.127,0.442,21.26,4.145,26.011,7.58c4.752,3.438-1.78,3.567-6.317,3.426
		c-4.539-0.146-36.426-0.476-42.422-0.662c-6.002-0.189-5.546-8.152-5.957-14.35c-0.41-6.199-4.309-38.836-5.286-46.843
		c-0.977-8.01-6.384-57.35-7.227-82.114c-0.844-24.763-2.385-47.242-3.906-53.601c-1.521-6.354-3.214-9.018-2.49-22.033
		C347.669,599.869,358.086,587.627,358.086,587.627z"/>
</g>
<g id="Warrior_1" display="none">
	<path display="inline" fill="#FFFFFF" d="M452.631,524.236c23.942-4.22,27.689-5.164,27.689-5.164s2.408,25.791,2.408,31.299
		c0,2.406,27.982,6.385,38.521,7.223c10.538,0.836,102.821,16.224,117.13,21.338c14.316,5.117,22.935,2.453,27.554,15.019
		c4.62,12.57-15.271,97.438-17.948,119.979c-2.679,22.54-5.118,50.789,0.6,59.418c5.719,8.627,50.531,18.74,56.586,20.326
		c6.054,1.586,11.447,3.252,11.739,5.355c0.292,2.103-0.638,6.303-9.753,7.162c-9.115,0.862-77.715,1.709-81.042-0.492
		c-3.332-2.201-10.112-5.015-9.138-20.703c0.972-15.697,0.409-39.84-1.998-64.115c-2.407-24.274-12.24-71.826,0.399-100.918
		c0,0-45.31,12.939-88.266,13.881c-42.953,0.947-77.86-7.979-86.339-11.18c0,0-98.369,38.93-119.355,48.088
		c-20.987,9.158-127.21,53.947-158.187,66.332c-30.977,12.387-45.255,20.41-48.495,27.885c-3.247,7.478-0.983,21.65,4.756,26.552
		c5.739,4.9,10.453,4.899,13.162,7.006c2.708,2.106,2.941,5.819-5.816,5.819c-8.761,0-26.216,1.853-36.732-13.315
		c-10.517-15.176-8.243-21.129,0-29.588c8.241-8.459,9.724-16.314,26.187-32.449s122.205-80.592,164.196-99.17
		c41.992-18.576,80.137-59.998,101.119-74.635c19.228-13.414,26.622-9.035,28.892-16.854c1.354-4.672,2.407-9.631,2.407-9.631
		S438.729,526.691,452.631,524.236"/>
	<path display="inline" fill="none" stroke="#000000" stroke-miterlimit="10" d="M452.631,524.236
		c23.942-4.22,27.689-5.164,27.689-5.164s2.408,25.791,2.408,31.299c0,2.406,27.982,6.385,38.521,7.223
		c10.538,0.836,102.821,16.224,117.13,21.338c14.316,5.117,22.935,2.453,27.554,15.019c4.62,12.57-15.271,97.438-17.948,119.979
		c-2.679,22.54-5.118,50.789,0.6,59.418c5.719,8.627,50.531,18.74,56.586,20.326c6.054,1.586,11.447,3.252,11.739,5.355
		c0.292,2.103-0.638,6.303-9.753,7.162c-9.115,0.862-77.715,1.709-81.042-0.492c-3.332-2.201-10.112-5.015-9.138-20.703
		c0.972-15.697,0.409-39.84-1.998-64.115c-2.407-24.274-12.24-71.826,0.399-100.918c0,0-45.31,12.939-88.266,13.881
		c-42.953,0.947-77.86-7.979-86.339-11.18c0,0-98.369,38.93-119.355,48.088c-20.987,9.158-127.21,53.947-158.187,66.332
		c-30.977,12.387-45.255,20.41-48.495,27.885c-3.247,7.478-0.983,21.65,4.756,26.552c5.739,4.9,10.453,4.899,13.162,7.006
		c2.708,2.106,2.941,5.819-5.816,5.819c-8.761,0-26.216,1.853-36.732-13.315c-10.517-15.176-8.243-21.129,0-29.588
		c8.241-8.459,9.724-16.314,26.187-32.449s122.205-80.592,164.196-99.17c41.992-18.576,80.137-59.998,101.119-74.635
		c19.228-13.414,26.622-9.035,28.892-16.854c1.354-4.672,2.407-9.631,2.407-9.631S438.729,526.691,452.631,524.236z"/>
	
		<line display="inline" fill="none" stroke="#000000" stroke-miterlimit="10" x1="616.019" y1="732.824" x2="645.599" y2="732.824"/>
	<line display="inline" fill="none" x1="141.344" y1="709.621" x2="161.676" y2="737.789"/>
	
		<line display="inline" fill="none" stroke="#000000" stroke-miterlimit="10" x1="141.344" y1="709.621" x2="161.676" y2="737.789"/>
	<path display="inline" fill="#FFFFFF" d="M444.738,530.82c18.306-1.211,36.664-2.992,36.664-2.992s-0.202-45.891,2.655-58.439
		c2.864-12.545,4.491-12.877,10.102-20.563c5.61-7.679,6.272-18.95,0.202-30.929c-6.063-11.986-31.877-42.52-34.199-54.792
		c-2.323-12.276-13.242-26.73-3.917-48.679l-31.299-24.076c0,0-14.229,80.699-14.789,103.534
		c-0.561,22.837,4.729,76.577,4.48,92.577c-0.244,16.002-2.731,43.625-2.731,43.625S433.939,531.535,444.738,530.82"/>
	<path display="inline" fill="none" stroke="#000000" stroke-miterlimit="10" d="M444.738,530.82
		c18.306-1.211,36.664-2.992,36.664-2.992s-0.202-45.891,2.655-58.439c2.864-12.545,4.491-12.877,10.102-20.563
		c5.61-7.679,6.272-18.95,0.202-30.929c-6.063-11.986-31.877-42.52-34.199-54.792c-2.323-12.276-13.242-26.73-3.917-48.679
		l-31.299-24.076c0,0-14.229,80.699-14.789,103.534c-0.561,22.837,4.729,76.577,4.48,92.577
		c-0.244,16.002-2.731,43.625-2.731,43.625S433.939,531.535,444.738,530.82z"/>
	<path display="inline" fill="#FFFFFF" d="M433.509,305.917c-4.684-4.354-5.104-9.29-8.229-15.596
		c-4.952-10.013,6.398-22.952,17.836-27.96c11.436-5.008,33.325,52.175,24.543,56.024c-5.203,2.276-18.115,1.989-27.261-5.763
		C435.136,308.165,433.509,305.917,433.509,305.917"/>
	<path display="inline" fill="none" stroke="#000000" stroke-miterlimit="10" d="M433.509,305.917
		c-4.684-4.354-5.104-9.29-8.229-15.596c-4.952-10.013,6.398-22.952,17.836-27.96c11.436-5.008,33.325,52.175,24.543,56.024
		c-5.203,2.276-18.115,1.989-27.261-5.763C435.136,308.165,433.509,305.917,433.509,305.917z"/>
	<path display="inline" fill="none" stroke="#000000" stroke-miterlimit="10" d="M436.998,349.64c0,0,19.646,26.312,27.402,21.861"
		/>
	<path display="inline" d="M437.85,310.384c-5.589-5.998-6.979-11.067-4.143-13.611c2.84-2.548,8.355-4.159,11.29-8.579
		c2.935-4.418-5.916-12.67-5.622-17.984c0.297-5.313,7.51-8.267,10.145-5.241c2.631,3.028,2.451-1.836-0.158-5.452
		c-2.395-3.315-13.989-19.411-36.938-7.738c-18.537,9.431-26.47,20.128-23.738,41.425c2.735,21.304,17.625,27.417,7.623,44.126
		c-12.372,20.671-32.018,8.65-47.595,36.589c-5.955,10.674-0.235,33.253,9.041,45.204c9.959,12.835,28.905,21.776,38.397,21.631
		c22.849-0.341,24.793-9.232,24.793-9.232l-7.5-31.104c0,0,11.364-65.588,15.496-79.413
		C433.072,307.182,437.85,310.384,437.85,310.384"/>
	<path display="inline" fill="#FFFFFF" d="M420.735,368.729c-2.021,3.381-7.879,11.561-9.063,15.104
		c-1.186,3.548-2.627,19.95,7.011,27.984c9.641,8.036,27.612,1.051,33.749-9.774c6.137-10.83,5.877-14.629,8.215-19.449
		c2.338-4.822,24.975-40.081,39.519-66.486c14.54-26.411,29.277-67.507,34.17-93.741c4.891-26.232,10.451-54.429,12.72-65.146
		c2.27-10.714,10.301-43.482,6.262-55.645c-4.034-12.16-13.655-12.142-17.903,3.952c-4.254,16.087-3.278,34.539-6.581,51.373
		c-3.301,16.832-16.82,63.286-25.292,83.267c-8.469,19.98-5.026,19.632-32.077,63.75
		C444.411,348.039,420.735,368.729,420.735,368.729"/>
	<path display="inline" fill="none" stroke="#000000" stroke-miterlimit="10" d="M420.735,368.729
		c-2.021,3.381-7.879,11.561-9.063,15.104c-1.186,3.548-2.627,19.95,7.011,27.984c9.641,8.036,27.612,1.051,33.749-9.774
		c6.137-10.83,5.877-14.629,8.215-19.449c2.338-4.822,24.975-40.081,39.519-66.486c14.54-26.411,29.277-67.507,34.17-93.741
		c4.891-26.232,10.451-54.429,12.72-65.146c2.27-10.714,10.301-43.482,6.262-55.645c-4.034-12.16-13.655-12.142-17.903,3.952
		c-4.254,16.087-3.278,34.539-6.581,51.373c-3.301,16.832-16.82,63.286-25.292,83.267c-8.469,19.98-5.026,19.632-32.077,63.75
		C444.411,348.039,420.735,368.729,420.735,368.729z"/>
</g>
<g id="Tree" display="none">
	<path display="inline" fill="#FFFFFF" d="M459.392,416.458l57.628-20.956c0,0-13.097-28.814-10.478-49.77
		s15.717-68.107,15.717-68.107s-13.098-13.097-13.098-34.053c0-20.956,5.239-34.053,5.239-34.053s-26.195,0-36.674-15.717
		c-10.478-15.717,0-57.629,0-57.629h-36.673v5.239c0,0,2.619,26.195,0,44.532c-2.223,15.558-20.956,23.575-31.434,23.575
		c0,0,5.239,18.336,5.239,36.673c0,18.337-13.099,31.434-13.099,31.434s13.099,52.39,13.099,68.107
		c0,15.717-13.099,49.77-13.099,49.77l28.814,28.814L459.392,416.458z"/>
	<path display="inline" fill="none" stroke="#000000" stroke-miterlimit="10" d="M459.392,416.458l57.628-20.956
		c0,0-13.097-28.814-10.478-49.77s15.717-68.107,15.717-68.107s-13.098-13.097-13.098-34.053c0-20.956,5.239-34.053,5.239-34.053
		s-26.195,0-36.674-15.717c-10.478-15.717,0-57.629,0-57.629h-36.673v5.239c0,0,2.619,26.195,0,44.532
		c-2.223,15.558-20.956,23.575-31.434,23.575c0,0,5.239,18.336,5.239,36.673c0,18.337-13.099,31.434-13.099,31.434
		s13.099,52.39,13.099,68.107c0,15.717-13.099,49.77-13.099,49.77l28.814,28.814L459.392,416.458z"/>
	<path display="inline" fill="#FFFFFF" d="M409.621,209.519c-13.097,0-26.195,20.956-34.053,60.248
		c-8.283,41.421-18.336,83.824-10.479,99.541c7.858,15.717,94.301-57.628,96.92-68.106V261.91c0-5.239,0-10.478-2.619-10.478
		c-5.238,0-5.805,13.302-7.857,23.576c-2.62,13.097-2.62,18.336-5.239,23.575c-4.971,9.943-47.151,28.814-55.008,34.053
		l10.477-55.009c12.87-8.04,20.165-22.601,18.904-37.722c-0.376-4.505-1.504-8.92-3.344-13.051L409.621,209.519z"/>
	<path display="inline" fill="none" stroke="#000000" stroke-miterlimit="10" d="M409.621,209.519
		c-13.097,0-26.195,20.956-34.053,60.248c-8.283,41.421-18.336,83.824-10.479,99.541c7.858,15.717,94.301-57.628,96.92-68.106
		V261.91c0-5.239,0-10.478-2.619-10.478c-5.238,0-5.805,13.302-7.857,23.576c-2.62,13.097-2.62,18.336-5.239,23.575
		c-4.971,9.943-47.151,28.814-55.008,34.053l10.477-55.009c12.87-8.04,20.165-22.601,18.904-37.722
		c-0.376-4.505-1.504-8.92-3.344-13.051L409.621,209.519z"/>
	<path display="inline" fill="#FFFFFF" d="M514.4,209.519c13.098,0,26.194,20.956,34.054,60.248
		c8.28,41.421,18.336,83.824,10.478,99.541c-7.857,15.717-94.302-57.628-96.921-68.106V261.91c0-5.239,0-10.478,2.619-10.478
		c5.239,0,5.806,13.302,7.858,23.576c2.62,13.097,2.62,18.336,5.238,23.575c4.972,9.943,47.151,28.814,55.011,34.053l-10.479-55.009
		c-12.867-8.04-20.163-22.601-18.9-37.722c0.373-4.505,1.504-8.92,3.341-13.051L514.4,209.519z"/>
	<path display="inline" fill="none" stroke="#000000" stroke-miterlimit="10" d="M514.4,209.519
		c13.098,0,26.194,20.956,34.054,60.248c8.28,41.421,18.336,83.824,10.478,99.541c-7.857,15.717-94.302-57.628-96.921-68.106V261.91
		c0-5.239,0-10.478,2.619-10.478c5.239,0,5.806,13.302,7.858,23.576c2.62,13.097,2.62,18.336,5.238,23.575
		c4.972,9.943,47.151,28.814,55.011,34.053l-10.479-55.009c-12.867-8.04-20.163-22.601-18.9-37.722
		c0.373-4.505,1.504-8.92,3.341-13.051L514.4,209.519z"/>
	<path display="inline" fill="#FFFFFF" d="M522.259,591.964c7.858-47.151,13.099-112.639,7.858-146.69
		c-5.238-34.055-13.099-49.771-13.099-49.771s-32.874,7.585-56.385,7.846c-25.996-0.261-58.872-7.846-58.872-7.846
		s-5.239,15.717-20.956,28.814c-18.982,15.82-75.965,36.673-104.779,62.867s-41.912,57.629-36.673,65.486
		c5.239,7.858,13.097,10.479,47.15,7.858c34.054-2.619,107.399-31.435,123.116-31.435s26.194,10.479,28.813,20.956
		c2.619,10.478,7.858,39.292,13.099,47.15c5.237,7.858,10.478,2.62,10.478-5.238c0-2.524,0-11.013-0.087-21.882l0.087,1.365
		c0,0,2.619,88.623,2.619,109.579s2.62,104.778,2.62,117.877c0,13.098,0,18.336-2.62,28.813
		c-2.619,10.479,10.479,10.479,20.956,10.479c10.479,0,18.337-5.239,15.717-13.099c-2.619-7.857-7.858-31.434-7.858-41.911
		c0-10.479,5.239-52.391,7.858-83.823C503.923,667.929,517.442,620.854,522.259,591.964"/>
	<path display="inline" fill="none" stroke="#000000" stroke-miterlimit="10" d="M522.259,591.964
		c7.858-47.151,13.099-112.639,7.858-146.69c-5.238-34.055-13.099-49.771-13.099-49.771s-32.874,7.585-56.385,7.846
		c-25.996-0.261-58.872-7.846-58.872-7.846s-5.239,15.717-20.956,28.814c-18.982,15.82-75.965,36.673-104.779,62.867
		s-41.912,57.629-36.673,65.486c5.239,7.858,13.097,10.479,47.15,7.858c34.054-2.619,107.399-31.435,123.116-31.435
		s26.194,10.479,28.813,20.956c2.619,10.478,7.858,39.292,13.099,47.15c5.237,7.858,10.478,2.62,10.478-5.238
		c0-2.524,0-11.013-0.087-21.882l0.087,1.365c0,0,2.619,88.623,2.619,109.579s2.62,104.778,2.62,117.877
		c0,13.098,0,18.336-2.62,28.813c-2.619,10.479,10.479,10.479,20.956,10.479c10.479,0,18.337-5.239,15.717-13.099
		c-2.619-7.857-7.858-31.434-7.858-41.911c0-10.479,5.239-52.391,7.858-83.823C503.923,667.929,517.442,620.854,522.259,591.964z"/>
	<path display="inline" fill="none" stroke="#000000" stroke-miterlimit="10" d="M296.983,518.618
		c15.717-13.099,47.151-18.337,75.965-18.337c28.813,0,52.389,0,62.868-2.619c10.478-2.62,19.483-4.925,23.078,0
		c5.734,7.857,3.115,13.098,3.115,34.054c0,20.955-0.062,41.748-0.062,41.748"/>
	<path display="inline" fill="none" stroke="#000000" stroke-miterlimit="10" d="M420.473,207.58
		c15.342,12.417,38.916,12.417,38.916,12.417s23.79,1.363,40.709-12.417"/>
	<path display="inline" fill="#FFFFFF" d="M438.003,134.761c-4.712-9.327,0.041-18.063-1.174-29.492
		c-1.933-18.147,20.843-34.869,41.129-32.751c26.786,2.804,23.57,98.817,7.933,99.738c-9.261,0.547-25.686-8.01-37.174-23.877
		C445.021,143.279,438.003,134.761,438.003,134.761"/>
	<path display="inline" fill="none" stroke="#000000" stroke-miterlimit="10" d="M438.003,134.761
		c-4.712-9.327,0.041-18.063-1.174-29.492c-1.933-18.147,20.843-34.869,41.129-32.751c26.786,2.804,23.57,98.817,7.933,99.738
		c-9.261,0.547-25.686-8.01-37.174-23.877C445.021,143.279,438.003,134.761,438.003,134.761z"/>
	<path display="inline" d="M488.669,84.244c-1.149,16.819-14.985,46.685-35.85,40.154c-23.458-7.344-14.448,7.324-12.798,11.887
		c1.649,4.564,12.789,13.571,10.359,14.727c-2.428,1.162-32.337-13.839-34.397-38.266c-2.064-24.428,7.72-35.453,20.669-42.327
		c12.945-6.874,33.604-6.955,45.785,1.402C494.624,80.176,488.669,84.244,488.669,84.244"/>
	<path display="inline" fill="none" stroke="#000000" stroke-miterlimit="10" d="M466.636,769.661c8.47,3.047,23.368,2.197,27.707,0
		"/>
	<path display="inline" fill="none" stroke="#000000" stroke-miterlimit="10" d="M411.575,499.944c3.285,5.579,4.571,24.029,0,29.21
		"/>
	<path display="inline" d="M465.753,130.123c-6.08-6.526-7.592-12.041-4.507-14.809c3.09-2.773,9.092-4.525,12.284-9.334
		c3.191-4.807-6.438-13.785-6.117-19.566c0.322-5.782,8.171-8.995,11.036-5.702c2.861,3.295,2.668-1.998-0.172-5.932
		c-2.604-3.607-15.222-21.12-40.188-8.419c-20.168,10.261-28.799,21.9-25.826,45.071c2.976,23.179,19.177,29.83,8.293,48.01
		c-13.461,22.491-34.835,9.411-51.782,39.809c-6.479,11.614-0.257,36.179,9.836,49.182c10.836,13.965,31.448,23.693,41.775,23.535
		c24.859-0.371,26.976-10.046,26.976-10.046l-8.16-33.841c0,0,12.366-71.361,16.86-86.402
		C460.555,126.639,465.753,130.123,465.753,130.123"/>
</g>
<g id="Standing_Forward_Fold" display="none">
	<path display="inline" d="M500.69,581.964c24.597-9.049,88.728-16.517,84.436,55.431c-2.723,45.665-0.542,113.675,33.328,138.307
		c33.871,24.628-57.554,60.141-96.604,20.859c-39.058-39.286-46.665-100.291-21.571-140.87
		C525.38,615.104,500.69,581.964,500.69,581.964"/>
	<path display="inline" fill="#FFFFFF" d="M464.325,438.777c3.967,19.833,7.933,43.632,0,63.465
		c-7.934,19.833-51.565,43.632-75.364,27.766s-27.766-19.833-31.732-31.731c-3.966-11.899-15.865-51.564-15.865-51.564
		l35.699-35.699l63.464-3.967L464.325,438.777z"/>
	<path display="inline" fill="none" stroke="#000000" stroke-miterlimit="10" d="M464.325,438.777
		c3.967,19.833,7.933,43.632,0,63.465c-7.934,19.833-51.565,43.632-75.364,27.766s-27.766-19.833-31.732-31.731
		c-3.966-11.899-15.865-51.564-15.865-51.564l35.699-35.699l63.464-3.967L464.325,438.777z"/>
	<path display="inline" fill="#FFFFFF" d="M426.496,549.434c14.03,3.075,19.217,15.73,32.448,24.361
		c21.015,13.7,19.063,52.479-0.811,72.257c-26.239,26.112-125.758-60.672-113.169-78.137c7.453-10.339,30.838-20.414,57.716-18.888
		C411.331,549.519,426.496,549.434,426.496,549.434"/>
	<path display="inline" fill="none" stroke="#000000" stroke-miterlimit="10" d="M426.496,549.434
		c14.03,3.075,19.217,15.73,32.448,24.361c21.015,13.7,19.063,52.479-0.811,72.257c-26.239,26.112-125.758-60.672-113.169-78.137
		c7.453-10.339,30.838-20.414,57.716-18.888C411.331,549.519,426.496,549.434,426.496,549.434z"/>
	<path display="inline" d="M436.343,647.284c-16.928-15.82-36.745-56.492-11.667-73.063c28.191-18.615,4.737-21.75-1.558-23.962
		c-6.299-2.204-25.565,1.855-24.69-1.739c0.876-3.599,42.826-22.446,70.65-3.436c27.82,19.011,31.073,39.007,27.157,58.777
		c-3.921,19.763-21.771,41.846-41.253,47.574C435.506,657.161,436.343,647.284,436.343,647.284"/>
	<path display="inline" fill="#FFFFFF" d="M436.56,510.175c0,19.833-32.353,85.156-39.665,107.097
		c-7.934,23.801-15.865,75.364-23.8,91.23c-7.933,15.866-15.866,31.731-27.766,31.731c-11.9,0-23.799-35.698-11.899-79.33
		c11.9-43.633,23.8-83.298,31.732-118.996s7.933-39.665,7.933-39.665"/>
	<path display="inline" fill="none" stroke="#000000" stroke-miterlimit="10" d="M436.56,510.175
		c0,19.833-32.353,85.156-39.665,107.097c-7.934,23.801-15.865,75.364-23.8,91.23c-7.933,15.866-15.866,31.731-27.766,31.731
		c-11.9,0-23.799-35.698-11.899-79.33c11.9-43.633,23.8-83.298,31.732-118.996s7.933-39.665,7.933-39.665"/>
	<path display="inline" fill="#FFFFFF" d="M388.961,660.903c3.967,7.934-3.967,43.632-11.898,47.599
		c-7.934,3.966-15.866-7.934-15.866-19.833s7.933-23.799,15.866-27.766C384.995,656.938,388.961,660.903,388.961,660.903"/>
	<path display="inline" fill="none" stroke="#000000" stroke-miterlimit="10" d="M388.961,660.903
		c3.967,7.934-3.967,43.632-11.898,47.599c-7.934,3.966-15.866-7.934-15.866-19.833s7.933-23.799,15.866-27.766
		C384.995,656.938,388.961,660.903,388.961,660.903z"/>
	<path display="inline" fill="#FFFFFF" d="M378.929,185.07c19.406,35.939,58.119,115.735,69.406,167.439
		c11.288,51.701,14.921,79.514,14.828,87.446c0,0-23.42-32.015-63.177-24.559c-39.759,7.461-47.975,31.167-48.114,43.065
		c-0.144,11.899,3.494,39.712,3.494,39.712s-39.477-16.343-42.784-71.913c-3.3-55.574,0.569-47.594-10.668-103.269
		c-11.237-55.667-34.42-107.515-34.42-107.515L378.929,185.07z"/>
	<path display="inline" fill="none" stroke="#000000" stroke-miterlimit="10" d="M378.929,185.07
		c19.406,35.939,58.119,115.735,69.406,167.439c11.288,51.701,14.921,79.514,14.828,87.446c0,0-23.42-32.015-63.177-24.559
		c-39.759,7.461-47.975,31.167-48.114,43.065c-0.144,11.899,3.494,39.712,3.494,39.712s-39.477-16.343-42.784-71.913
		c-3.3-55.574,0.569-47.594-10.668-103.269c-11.237-55.667-34.42-107.515-34.42-107.515L378.929,185.07z"/>
	<path display="inline" fill="#FFFFFF" d="M289.798,240.451c0,0,11.899-3.967,35.699-15.866
		c23.8-11.899,51.565-39.666,51.565-39.666c-3.968-7.933-39.666-71.397-75.364-91.23c-35.699-19.833-107.096,0-120.596,39.177
		c-18.147,52.661,5.218,161.252,3.567,199.043c-1.611,37.066-0.697,84.142-1.747,121.471c-1.282,45.29-2.119,50.171,1.488,101.197
		c7.72,109.25,4.761,132.185,6.689,198.689c0.333,11.647,9.951,20.855,21.599,20.619l135.796-1.922
		c7.596-0.149,10.85-11.473,3.699-14.037c-30.416-10.932-88.426-17.245-100.521-32.128c-12.147-14.933-10.667-27.429-11.566-39.045
		c-6.197-80.261,9.227-154.475,26.472-233.375c11.241-51.452,13.999-89.309,20.96-145.224c2.123-17.071,3.451-40.359,2.258-63.74
		L289.798,240.451L289.798,240.451z"/>
	<path display="inline" fill="none" stroke="#000000" stroke-miterlimit="10" d="M289.798,240.451c0,0,11.899-3.967,35.699-15.866
		c23.8-11.899,51.565-39.666,51.565-39.666c-3.968-7.933-39.666-71.397-75.364-91.23c-35.699-19.833-107.096,0-120.596,39.177
		c-18.147,52.661,5.218,161.252,3.567,199.043c-1.611,37.066-0.697,84.142-1.747,121.471c-1.282,45.29-2.119,50.171,1.488,101.197
		c7.72,109.25,4.761,132.185,6.689,198.689c0.333,11.647,9.951,20.855,21.599,20.619l135.796-1.922
		c7.596-0.149,10.85-11.473,3.699-14.037c-30.416-10.932-88.426-17.245-100.521-32.128c-12.147-14.933-10.667-27.429-11.566-39.045
		c-6.197-80.261,9.227-154.475,26.472-233.375c11.241-51.452,13.999-89.309,20.96-145.224c2.123-17.071,3.451-40.359,2.258-63.74
		L289.798,240.451L289.798,240.451z"/>
	<path display="inline" fill="none" stroke="#000000" stroke-miterlimit="10" d="M189.628,655.864c24.419,8.429,49.121,0,49.121,0"
		/>
</g>
<g id="UPWARD_FACING_TWO-FOOT_STAFF" display="none">
	<path display="inline" fill="#FFFFFF" d="M67.193,469.832c0,0,5.783,7.368,7.503,14.255l8.623,23.586
		c5.161,14.124,23.096,18.336,34.007,7.996l1.222-1.154c1.125-1.07,2.124-2.245,2.984-3.536c1.761-2.639,5.335-7.657,9.551-11.705
		c7.552-7.25,17.907-9.445,25.936-16.473c26.278-23.001,49.542-51.589,74.112-76.686c4.897-5.002,9.887-10.073,15.985-13.514
		c6.97-3.928,15.108-4.685,22.842-3.093l50.066-50.31l-38.313-31.206c-88.933-1.378-109.493,27.28-144.484,49.777
		c-23.525,15.123-28.849,35.842-38.625,60.517C91.059,437.341,76.056,451.607,67.193,469.832"/>
	<path display="inline" fill="none" stroke="#000000" stroke-miterlimit="10" d="M67.193,469.832c0,0,5.783,7.368,7.503,14.255
		l8.623,23.586c5.161,14.124,23.096,18.336,34.007,7.996l1.222-1.154c1.125-1.07,2.124-2.245,2.984-3.536
		c1.761-2.639,5.335-7.657,9.551-11.705c7.552-7.25,17.907-9.445,25.936-16.473c26.278-23.001,49.542-51.589,74.112-76.686
		c4.897-5.002,9.887-10.073,15.985-13.514c6.97-3.928,15.108-4.685,22.842-3.093l50.066-50.31l-38.313-31.206
		c-88.933-1.378-109.493,27.28-144.484,49.777c-23.525,15.123-28.849,35.842-38.625,60.517
		C91.059,437.341,76.056,451.607,67.193,469.832z"/>
	<path display="inline" fill="#FFFFFF" d="M270.415,389.605c6.434,1.403,12.571,4.423,17.494,8.581
		c31.162,26.305,59.296,22.222,88.354,23.688c26.795,1.357,55.509,4.322,79.361,18.775c28.938,17.54,56.736,35.4,86.15,52.778
		c36.367,21.482,62.634,36.819,94.359,56.897c4.025,2.547,7.077,6.386,8.619,10.888c0.688,2.013,1.296,3.911,1.521,4.87
		c3.349,14.398,12.438,15.813,24.333,15.87c31.287,0.153,75.711,0.898,75.711,0.898c2.345-0.1,14.275-4.063,8.672-8.65
		c-9.762-8.003-45.368-10.843-74.52-26.529c-14.77-7.949-29.758-20.955-41.604-32.146c-47.118-44.512-97.402-84.094-147.976-124.5
		c-46.083-36.822-79.844-54.656-132.612-66.933c-25.799-6.002-49.795-15.143-76.567-16.102c0,0-1.479,19.361-4.315,40.624
		C274.565,369.878,270.415,389.605,270.415,389.605"/>
	<path display="inline" fill="none" stroke="#000000" stroke-miterlimit="10" d="M270.415,389.605
		c6.434,1.403,12.571,4.423,17.494,8.581c31.162,26.305,59.296,22.222,88.354,23.688c26.795,1.357,55.509,4.322,79.361,18.775
		c28.938,17.54,56.736,35.4,86.15,52.778c36.367,21.482,62.634,36.819,94.359,56.897c4.025,2.547,7.077,6.386,8.619,10.888
		c0.688,2.013,1.296,3.911,1.521,4.87c3.349,14.398,12.438,15.813,24.333,15.87c31.287,0.153,75.711,0.898,75.711,0.898
		c2.345-0.1,14.275-4.063,8.672-8.65c-9.762-8.003-45.368-10.843-74.52-26.529c-14.77-7.949-29.758-20.955-41.604-32.146
		c-47.118-44.512-97.402-84.094-147.976-124.5c-46.083-36.822-79.844-54.656-132.612-66.933
		c-25.799-6.002-49.795-15.143-76.567-16.102c0,0-1.479,19.361-4.315,40.624C274.565,369.878,270.415,389.605,270.415,389.605z"/>
	<path display="inline" fill="none" stroke="#000000" stroke-miterlimit="10" d="M90.611,433.656c0,0,38.309-12.216,56.091,1.555
		c17.785,13.771,15.189,29.181,10.318,47.59"/>
	<path display="inline" fill="#FFFFFF" d="M110.334,505c7.997-3.673,15.199,0.604,24.854-0.06
		c15.334-1.051,28.689,18.639,26.266,35.642c-3.198,22.451-83.89,16.722-84.177,3.54c-0.167-7.81,7.55-21.364,21.263-30.535
		C102.947,510.64,110.334,505,110.334,505"/>
	<path display="inline" fill="none" stroke="#000000" stroke-miterlimit="10" d="M110.334,505c7.997-3.673,15.199,0.604,24.854-0.06
		c15.334-1.051,28.689,18.639,26.266,35.642c-3.198,22.451-83.89,16.722-84.177,3.54c-0.167-7.81,7.55-21.364,21.263-30.535
		C102.947,510.64,110.334,505,110.334,505z"/>
	<path display="inline" d="M151.251,549.225c-14.116-1.494-38.815-14.076-32.661-31.431c6.916-19.507-5.71-12.385-9.604-11.145
		c-3.893,1.245-11.819,10.337-12.716,8.259c-0.899-2.081,12.661-26.777,33.284-27.743c20.621-0.969,29.589,7.612,34.967,18.72
		c5.378,11.114,4.794,28.501-2.621,38.492C154.485,554.362,151.251,549.225,151.251,549.225"/>
	<path display="inline" fill="#FFFFFF" d="M97.783,501.095c-6.69,4.21-12.352,14.18-16.313,29.032l-5.815,24.671
		c-0.505,2.12,0.964,4.191,3.135,4.392c17.221,1.588,84.43,7.539,116.952,6.979c6.156-5.445,8.874-7.392,13.657-5.857
		c1.417,0.457,2.911,0.74,4.398,0.747c8.104,0.032,11.438,2.602,11.719,8.633c0.312,6.586,3.446,22.225-30.284,13.584
		c-45.465,7.564-148.7,13.087-150.136,4.235c-8.085-26.94,17.435-108.496,22.557-118.605"/>
	<path display="inline" fill="none" stroke="#000000" stroke-miterlimit="10" d="M97.783,501.095
		c-6.69,4.21-12.352,14.18-16.313,29.032l-5.815,24.671c-0.505,2.12,0.964,4.191,3.135,4.392
		c17.221,1.588,84.43,7.539,116.952,6.979c6.156-5.445,8.874-7.392,13.657-5.857c1.417,0.457,2.911,0.74,4.398,0.747
		c8.104,0.032,11.438,2.602,11.719,8.633c0.312,6.586,3.446,22.225-30.284,13.584c-45.465,7.564-148.7,13.087-150.136,4.235
		c-8.085-26.94,17.435-108.496,22.557-118.605"/>
	<path display="inline" fill="#FFFFFF" d="M636.135,550.323c11.026-4.273,25.814-14.869,25.814-14.869"/>
	<path display="inline" fill="none" stroke="#000000" stroke-miterlimit="10" d="M636.135,550.323
		c11.026-4.273,25.814-14.869,25.814-14.869"/>
</g>
<g id="STAFF" display="none">
	<path display="inline" fill="#FFFFFF" d="M261.318,330.672c0,0-10.551,35.386,15.726,66.654
		c18.706,22.263,34.384,48.753,23.847,73.885c-7.629,18.184-8.412,27.001-10.127,46.229c-2.093,23.432-7.809,47.155-10.278,69.535
		c0,0-28.51-8.775-43.773-11.95c-15.262-3.178-33.609-6.651-33.609-6.651l-0.01-0.006c1.552-11.354,1.994-50.938,1.418-62.3
		c-0.949-18.826-2.511-35.939-6.121-54.359c-7.373-37.613-0.448-59.802,21.103-101.127c7.23-13.868,13.039-32.145,10.458-48.839"/>
	<path display="inline" fill="none" stroke="#000000" stroke-miterlimit="10" d="M261.318,330.672c0,0-10.551,35.386,15.726,66.654
		c18.706,22.263,34.384,48.753,23.847,73.885c-7.629,18.184-8.412,27.001-10.127,46.229c-2.093,23.432-7.809,47.155-10.278,69.535
		c0,0-28.51-8.775-43.773-11.95c-15.262-3.178-33.609-6.651-33.609-6.651l-0.01-0.006c1.552-11.354,1.994-50.938,1.418-62.3
		c-0.949-18.826-2.511-35.939-6.121-54.359c-7.373-37.613-0.448-59.802,21.103-101.127c7.23-13.868,13.039-32.145,10.458-48.839"/>
	<path display="inline" fill="#FFFFFF" d="M282.264,594.533c0.482,2.043,2.322,3.445,4.42,3.367
		c0.768-0.032,1.541-0.059,2.318-0.086c26.67-0.918,61.745,5.522,106.27,13.361c74.995,13.204,89.91,18.071,164.394,35.797
		c26.633,6.321,71.326,8.235,102.785,10.883c7.053,0.604,36.283,5.659,53.597-1.227c5.638-2.242,11.405-8.362,14.366-13.662
		c6.075-10.859,7.151-24.705,7.539-32.646c0.803-16.323-3.143-26.17-1.378-33.024c1.393-5.229,9.699-4.433,13.856-0.979
		c23.15,19.237,5.19,49.107,10.355,96.931c1.204,11.169-9.479,18.283-19.861,18.009c-80.364-2.161-233.076,6.908-307.154-1.495
		c-37.073-4.204-114.931,0-139.097,0c-35.494,0-90.169,3.644-105.413-60.021c-4.75-19.84,3.105-40.773,13.831-61.375
		c0,0,37.779,6.637,56.995,12.663c7.892,2.474,20.397,5.944,20.397,5.944L282.264,594.533z"/>
	<path display="inline" fill="none" stroke="#000000" stroke-miterlimit="10" d="M282.264,594.533
		c0.482,2.043,2.322,3.445,4.42,3.367c0.768-0.032,1.541-0.059,2.318-0.086c26.67-0.918,61.745,5.522,106.27,13.361
		c74.995,13.204,89.91,18.071,164.394,35.797c26.633,6.321,71.326,8.235,102.785,10.883c7.053,0.604,36.283,5.659,53.597-1.227
		c5.638-2.242,11.405-8.362,14.366-13.662c6.075-10.859,7.151-24.705,7.539-32.646c0.803-16.323-3.143-26.17-1.378-33.024
		c1.393-5.229,9.699-4.433,13.856-0.979c23.15,19.237,5.19,49.107,10.355,96.931c1.204,11.169-9.479,18.283-19.861,18.009
		c-80.364-2.161-233.076,6.908-307.154-1.495c-37.073-4.204-114.931,0-139.097,0c-35.494,0-90.169,3.644-105.413-60.021
		c-4.75-19.84,3.105-40.773,13.831-61.375c0,0,37.779,6.637,56.995,12.663c7.892,2.474,20.397,5.944,20.397,5.944L282.264,594.533z"
		/>
	<path display="inline" fill="#FFFFFF" d="M195.583,427.955c5.2,48.172,27.996,90.309,29.176,117.747
		c2.096,48.669,9.865,123.472,18.951,143.771c5.772,12.895,85.088,11.501,84.724,9.312c-1.262-7.607-4.089-10.436-21.808-20.389
		c-12.71-7.14-26.803-0.476-28.971-0.541c-2.561-0.081-5.227,0.945-7.751,0.501c-2.272-0.396-4.092-2.217-5.096-4.291
		c-3.074-6.347-3.055-15.293-3.015-22.022c0.05-7.58,0.484-16.092,0.531-23.672c0.097-15.509-0.804-25.882-0.705-41.393
		c0.024-4.187-2.501-40.272-2.476-44.452l-12.716-118.347"/>
	<path display="inline" fill="none" stroke="#000000" stroke-miterlimit="10" d="M195.583,427.955
		c5.2,48.172,27.996,90.309,29.176,117.747c2.096,48.669,9.865,123.472,18.951,143.771c5.772,12.895,85.088,11.501,84.724,9.312
		c-1.262-7.607-4.089-10.436-21.808-20.389c-12.71-7.14-26.803-0.476-28.971-0.541c-2.561-0.081-5.227,0.945-7.751,0.501
		c-2.272-0.396-4.092-2.217-5.096-4.291c-3.074-6.347-3.055-15.293-3.015-22.022c0.05-7.58,0.484-16.092,0.531-23.672
		c0.097-15.509-0.804-25.882-0.705-41.393c0.024-4.187-2.501-40.272-2.476-44.452l-12.716-118.347"/>
	<path display="inline" fill="#FFFFFF" d="M229.912,298.049c-0.044,2.829,0.706,8.964,0.706,8.964"/>
	<path display="inline" fill="none" stroke="#000000" stroke-miterlimit="10" d="M229.912,298.049
		c-0.044,2.829,0.706,8.964,0.706,8.964"/>
	<path display="inline" fill="none" stroke="#000000" stroke-miterlimit="10" d="M203.935,383.81
		c0.807,14.226,32.23,26.708,68.212,7.041"/>
	<path display="inline" fill="none" stroke="#000000" stroke-miterlimit="10" d="M690.615,660.196
		c5.414,8.919,6.123,30.773,6.123,30.773"/>
	<path display="inline" fill="none" stroke="#000000" stroke-miterlimit="10" d="M240.755,680.86
		c4.729-7.274,20.531-9.017,23.581-7.853"/>
	<path display="inline" d="M216.967,238.636c-5.221-18.45-28.37-59.611-69.104-26.142c-25.858,21.249-67.047,49.193-96.184,39.74
		c-29.141-9.458-10.848,59.919,29.189,66.144c40.037,6.22,79.415-15.5,92.642-47.802
		C186.736,238.273,216.967,238.636,216.967,238.636"/>
	<path display="inline" fill="#FFFFFF" d="M226.374,303.709c-6.345-8.377-3.219-17.876-6.484-28.963
		c-5.179-17.604,14.329-38.25,34.779-39.813c27-2.064,41.138,93.49,25.839,97.226c-9.059,2.211-26.854-3.292-41.081-16.91
		C234.851,310.865,226.374,303.709,226.374,303.709"/>
	<path display="inline" fill="none" stroke="#000000" stroke-miterlimit="10" d="M226.374,303.709
		c-6.345-8.377-3.219-17.876-6.484-28.963c-5.179-17.604,14.329-38.25,34.779-39.813c27-2.064,41.138,93.49,25.839,97.226
		c-9.059,2.211-26.854-3.292-41.081-16.91C234.851,310.865,226.374,303.709,226.374,303.709z"/>
	<path display="inline" d="M267.377,244.597c1.897,16.844-6.397,48.882-28.216,46.188c-24.528-3.033-12.97,9.852-10.515,14.068
		c2.454,4.217,15.098,11.117,12.907,12.698c-2.197,1.586-36.512-6.166-42.958-29.954c-6.447-23.793-2.231-37.196,9.338-46.331
		c11.566-9.135,37.481-13.898,51.039-7.831C272.533,239.503,267.377,244.597,267.377,244.597"/>
</g>
<g id="Heron" display="none">
	<path display="inline" fill="#FFFFFF" d="M376.268,529.426c5.21-6.452,17.066-17.89,22.916-24.212
		c69.979-75.738,98.552-117.107,169.888-192.417c25.486-26.939,51.62-60.697,76.331-95.186c6.753-9.407,36.901-52.892,31.827-76.909
		c-8.16-15.417-16.654-29.075-26.922-34.834c-17.737-9.959-27.216-12.792-33.676-18.605c-4.893-4.482-2.351-13.055,4.393-15.895
		c37.554-15.805,57.288,25.192,115.57,43.25c12.604,3.902,13.933,20.953,6.448,32.671
		c-57.959,90.664-181.567,293.487-226.737,345.168c-29.273,33.506-63.359,113.286-83.723,149.859c0,0-39.229,7.867-55.7-12.748
		c-16.471-20.621-11.744-40.277-15.292-69.281C358.042,531.295,376.268,529.426,376.268,529.426"/>
	<path display="inline" fill="none" stroke="#000000" stroke-miterlimit="10" d="M376.268,529.426
		c5.21-6.452,17.066-17.89,22.916-24.212c69.979-75.738,98.552-117.107,169.888-192.417c25.486-26.939,51.62-60.697,76.331-95.186
		c6.753-9.407,36.901-52.892,31.827-76.909c-8.16-15.417-16.654-29.075-26.922-34.834c-17.737-9.959-27.216-12.792-33.676-18.605
		c-4.893-4.482-2.351-13.055,4.393-15.895c37.554-15.805,57.288,25.192,115.57,43.25c12.604,3.902,13.933,20.953,6.448,32.671
		c-57.959,90.664-181.567,293.487-226.737,345.168c-29.273,33.506-63.359,113.286-83.723,149.859c0,0-39.229,7.867-55.7-12.748
		c-16.471-20.621-11.744-40.277-15.292-69.281C358.042,531.295,376.268,529.426,376.268,529.426z"/>
	<path display="inline" fill="#FFFFFF" d="M397.24,650.813c-4.792-26.318-7.208-90.866-1.257-124.979
		c5.947-34.113,19.005-52.919,18.829-75.608c-0.177-22.695-37.283-68.333-49.677-101.756
		c-12.393-33.424-20.708-54.338-17.367-81.085c3.343-26.745-41.454-39.783-41.454-39.783s8.854,56.833-3.935,79.902
		c-12.784,23.069-45.511,49.483-45.193,98.963c0.313,49.479,11.346,91.605,13.019,129.719
		c1.669,38.112-10.304,103.295-15.438,117.152l57.227,35.716L397.24,650.813z"/>
	<path display="inline" fill="none" stroke="#000000" stroke-miterlimit="10" d="M397.24,650.813
		c-4.792-26.318-7.208-90.866-1.257-124.979c5.947-34.113,19.005-52.919,18.829-75.608c-0.177-22.695-37.283-68.333-49.677-101.756
		c-12.393-33.424-20.708-54.338-17.367-81.085c3.343-26.745-41.454-39.783-41.454-39.783s8.854,56.833-3.935,79.902
		c-12.784,23.069-45.511,49.483-45.193,98.963c0.313,49.479,11.346,91.605,13.019,129.719
		c1.669,38.112-10.304,103.295-15.438,117.152l57.227,35.716L397.24,650.813z"/>
	<path display="inline" fill="none" stroke="#000000" stroke-miterlimit="10" d="M275.123,346.683c0,0,59.67,0,80.956,45.358
		c16.334,34.792-13.684,71.604-13.684,71.604c-24.523,24.529-56.695,12.982-81.158-2.562"/>
	<path display="inline" fill="none" stroke="#000000" stroke-miterlimit="10" d="M282.513,335.717c0,0,60.075,7.562,77.613,41.326
		c6.527,12.572,24.338,20.327,36.967,18.516"/>
	<path display="inline" fill="#FFFFFF" d="M397.24,650.813c-17.878-23.857-70.197-42.916-101.042-29.205
		c-33.851,15.044-45.221,27.146-47.976,57.659c-5.097,56.512,13.444,78.241,45.053,96.298
		c31.602,18.058,53.322,13.206,53.322,13.206s-37.851,7.098-58.122-2.468c-20.275-9.566-42.711,14.043-83.232,17.196
		c-40.519,3.157-47.558,23.979-44.324,25.58c3.23,1.591,17.468,7.057,89.162-1.92c71.692-8.968,125.646,5.45,188.038,3.71
		c62.396-1.738,153.334-3.031,180.226-18.136s51.817-35.603,33.588-66.855c-18.23-31.249-89.333-44.521-131.759-53.08
		c-42.428-8.561-99.653-13.539-111.709-24.063C396.414,658.216,397.24,650.813,397.24,650.813"/>
	<path display="inline" fill="none" stroke="#000000" stroke-miterlimit="10" d="M397.24,650.813
		c-17.878-23.857-70.197-42.916-101.042-29.205c-33.851,15.044-45.221,27.146-47.976,57.659
		c-5.097,56.512,13.444,78.241,45.053,96.298c31.602,18.058,53.322,13.206,53.322,13.206s-37.851,7.098-58.122-2.468
		c-20.275-9.566-42.711,14.043-83.232,17.196c-40.519,3.157-47.558,23.979-44.324,25.58c3.23,1.591,17.468,7.057,89.162-1.92
		c71.692-8.968,125.646,5.45,188.038,3.71c62.396-1.738,153.334-3.031,180.226-18.136s51.817-35.603,33.588-66.855
		c-18.23-31.249-89.333-44.521-131.759-53.08c-42.428-8.561-99.653-13.539-111.709-24.063
		C396.414,658.216,397.24,650.813,397.24,650.813z"/>
	<path display="inline" fill="none" stroke="#000000" stroke-miterlimit="10" d="M422.143,675.234c0,0-46.388-13.976-81.993,2.699"
		/>
	<path display="inline" fill="none" stroke="#000000" stroke-miterlimit="10" d="M344.458,789.619
		c52.413-14.113,115.354-37.789,145.445-38.364c30.089-0.567,51.15,2.188,65.439,12.974"/>
	<path display="inline" fill="#FFFFFF" d="M321.178,448.807c0,0,181.188-91.487,216.155-117.298
		c34.969-25.815,140.743-135.751,140.743-135.751c20.991-19.08,43.711-25.682,63.113-54.643
		c19.397-28.969,14.319-30.063,9.157-30.834c-5.164-0.772-78.328,32.549-89.369,60.559c-3.636,9.223-4.979,10.026-8.294,14.125
		L506.091,296.208l-214.736,75.627"/>
	<path display="inline" fill="none" stroke="#000000" stroke-miterlimit="10" d="M321.178,448.807
		c0,0,181.188-91.487,216.155-117.298c34.969-25.815,140.743-135.751,140.743-135.751c20.991-19.08,43.711-25.682,63.113-54.643
		c19.397-28.969,14.319-30.063,9.157-30.834c-5.164-0.772-78.328,32.549-89.369,60.559c-3.636,9.223-4.979,10.026-8.294,14.125
		L506.091,296.208l-214.736,75.627"/>
	<path display="inline" d="M293.674,166.627c-6.901-25.6-38.2-82.907-95.092-37.334c-36.12,28.93-93.548,66.855-133.671,53.284
		c-40.124-13.576-16.026,82.656,39.222,91.954c55.244,9.293,110.058-20.06,128.907-64.497
		C251.886,165.605,293.674,166.627,293.674,166.627"/>
	<path display="inline" fill="#FFFFFF" d="M305.557,256.755c-8.625-11.683-4.145-24.769-8.46-40.151
		c-6.864-24.428,20.465-52.641,48.764-54.447c37.364-2.39,55.27,129.965,34.054,134.867c-12.569,2.902-37.075-5.016-56.508-24.092
		C317.156,266.8,305.557,256.755,305.557,256.755"/>
	<path display="inline" fill="none" stroke="#000000" stroke-miterlimit="10" d="M305.557,256.755
		c-8.625-11.683-4.145-24.769-8.46-40.151c-6.864-24.428,20.465-52.641,48.764-54.447c37.364-2.39,55.27,129.965,34.054,134.867
		c-12.569,2.902-37.075-5.016-56.508-24.092C317.156,266.8,305.557,256.755,305.557,256.755z"/>
	<path display="inline" d="M363.268,175.736c2.333,23.32-9.688,67.475-39.808,63.377c-33.86-4.616-18.107,13.399-14.78,19.268
		c3.319,5.87,20.688,15.625,17.625,17.776c-3.064,2.151-50.375-9.152-58.875-42.157c-8.505-33-2.443-51.462,13.709-63.889
		c16.151-12.436,52.063-18.571,70.7-9.956C370.485,168.782,363.268,175.736,363.268,175.736"/>
</g>
<g id="Mountain" display="none">
	<path display="inline" fill="#FFFFFF" d="M456.205,372.67c8.129,35.906,16.662,88.259,10.393,135.271
		c-6.229,46.716-11.305,61.031-13.097,104.784c-1.387,33.872-14.977,110.881-16.862,137.302
		c-1.865,26.176-0.133,67.134,3.766,75.095c3.896,7.962,2.71,17.274-14.565,17.274c-17.277,0-27.269-4.573-22.867-17.441
		c4.406-12.876,9.88-48.054,10.333-106.995c0.453-58.942-3.726-50.587-6.434-112.575c-1.479-33.744-3.172-82.128-3.172-118.204
		c0-7.227-2.646-34.338-3.627-34.338c-0.979,0-3.542,27.17-3.542,34.449c0,39.143-1.733,84.349-3.21,118.093
		c-2.709,61.988-6.889,53.633-6.437,112.575c0.451,58.941,5.929,94.119,10.331,106.995c4.405,12.868-5.587,17.441-22.864,17.441
		c-17.274,0-18.461-9.313-14.565-17.274c3.896-7.961,5.63-48.919,3.764-75.095c-1.884-26.422-15.474-103.43-16.863-137.302
		c-1.792-43.753-9.575-57.789-13.095-104.784c-3.724-49.727,2.262-99.365,10.395-135.271c0,0,25.292,9.671,56.109,9.671
		S456.205,372.67,456.205,372.67"/>
	<path display="inline" fill="none" stroke="#000000" stroke-miterlimit="10" d="M456.205,372.67
		c8.129,35.906,16.662,88.259,10.393,135.271c-6.229,46.716-11.305,61.031-13.097,104.784
		c-1.387,33.872-14.977,110.881-16.862,137.302c-1.865,26.176-0.133,67.134,3.766,75.095c3.896,7.962,2.71,17.274-14.565,17.274
		c-17.277,0-27.269-4.573-22.867-17.441c4.406-12.876,9.88-48.054,10.333-106.995c0.453-58.942-3.726-50.587-6.434-112.575
		c-1.479-33.744-3.172-82.128-3.172-118.204c0-7.227-2.646-34.338-3.627-34.338c-0.979,0-3.542,27.17-3.542,34.449
		c0,39.143-1.733,84.349-3.21,118.093c-2.709,61.988-6.889,53.633-6.437,112.575c0.451,58.941,5.929,94.119,10.331,106.995
		c4.405,12.868-5.587,17.441-22.864,17.441c-17.274,0-18.461-9.313-14.565-17.274c3.896-7.961,5.63-48.919,3.764-75.095
		c-1.884-26.422-15.474-103.43-16.863-137.302c-1.792-43.753-9.575-57.789-13.095-104.784
		c-3.724-49.727,2.262-99.365,10.395-135.271c0,0,25.292,9.671,56.109,9.671S456.205,372.67,456.205,372.67z"/>
	<path display="inline" fill="#FFFFFF" d="M461.658,264.909c0,0-14.813-24.818-4.942-67.395c0,0-47.48-0.805-43.643-52.969
		l2.284-24.953h-15.333h-15.333l2.284,24.953c3.84,52.165-43.646,52.969-43.646,52.969c9.873,42.577-4.942,67.395-4.942,67.395
		c18.257,58.037,5.456,107.761,5.456,107.761s28.75,9.669,56.182,9.669c27.43,0,56.179-9.669,56.179-9.669
		S443.399,322.946,461.658,264.909"/>
	<path display="inline" fill="none" stroke="#000000" stroke-miterlimit="10" d="M461.658,264.909c0,0-14.813-24.818-4.942-67.395
		c0,0-47.48-0.805-43.643-52.969l2.284-24.953h-15.333h-15.333l2.284,24.953c3.84,52.165-43.646,52.969-43.646,52.969
		c9.873,42.577-4.942,67.395-4.942,67.395c18.257,58.037,5.456,107.761,5.456,107.761s28.75,9.669,56.182,9.669
		c27.43,0,56.179-9.669,56.179-9.669S443.399,322.946,461.658,264.909z"/>
	<path display="inline" fill="#FFFFFF" d="M343.275,197.513c-19.511,7.012-28.388,13.875-33.808,61.298
		c-3.563,31.193-4.274,42.3-4.326,46.257c-0.033,2.515-0.148,5.019-0.405,7.524c-1.075,10.425-3.499,33.905-5.21,50.329
		c-2.258,21.677-3.221,84.439-6.669,109.773c-2.595,19.063-7.497,32.271,0.007,52.577c4.084,11.057,14.461-20.194,15.972-30.195
		c0.889-5.876,2.783-13.286,2.076-19.012c-0.76-6.172-4.153-10.558-3.813-13.84c1.184-11.518,12.303-65.656,15.465-93.66
		c3.159-28.002,11.221-91.354,15.771-103.656c4.553-12.303,7.887-21.111,8.308-38.729
		C347.063,208.569,343.275,197.513,343.275,197.513"/>
	<path display="inline" fill="none" stroke="#000000" stroke-miterlimit="10" d="M343.275,197.513
		c-19.511,7.012-28.388,13.875-33.808,61.298c-3.563,31.193-4.274,42.3-4.326,46.257c-0.033,2.515-0.148,5.019-0.405,7.524
		c-1.075,10.425-3.499,33.905-5.21,50.329c-2.258,21.677-3.221,84.439-6.669,109.773c-2.595,19.063-7.497,32.271,0.007,52.577
		c4.084,11.057,14.461-20.194,15.972-30.195c0.889-5.876,2.783-13.286,2.076-19.012c-0.76-6.172-4.153-10.558-3.813-13.84
		c1.184-11.518,12.303-65.656,15.465-93.66c3.159-28.002,11.221-91.354,15.771-103.656c4.553-12.303,7.887-21.111,8.308-38.729
		C347.063,208.569,343.275,197.513,343.275,197.513z"/>
	<path display="inline" fill="#FFFFFF" d="M456.725,197.513c19.51,7.012,28.387,13.875,33.808,61.298
		c3.564,31.193,4.274,42.3,4.326,46.257c0.033,2.515,0.146,5.019,0.403,7.524c1.075,10.425,3.501,33.905,5.209,50.329
		c2.263,21.677,3.22,84.439,6.671,109.773c2.594,19.063,7.499,32.271-0.009,52.577c-4.082,11.057-14.46-20.194-15.971-30.195
		c-0.891-5.876-2.783-13.286-2.076-19.012c0.762-6.172,4.153-10.558,3.813-13.84c-1.183-11.518-12.302-65.656-15.462-93.66
		c-3.162-28.002-11.221-91.354-15.775-103.656c-4.551-12.303-7.881-21.111-8.309-38.729
		C452.938,208.569,456.725,197.513,456.725,197.513"/>
	<path display="inline" fill="none" stroke="#000000" stroke-miterlimit="10" d="M456.725,197.513
		c19.51,7.012,28.387,13.875,33.808,61.298c3.564,31.193,4.274,42.3,4.326,46.257c0.033,2.515,0.146,5.019,0.403,7.524
		c1.075,10.425,3.501,33.905,5.209,50.329c2.263,21.677,3.22,84.439,6.671,109.773c2.594,19.063,7.499,32.271-0.009,52.577
		c-4.082,11.057-14.46-20.194-15.971-30.195c-0.891-5.876-2.783-13.286-2.076-19.012c0.762-6.172,4.153-10.558,3.813-13.84
		c-1.183-11.518-12.302-65.656-15.462-93.66c-3.162-28.002-11.221-91.354-15.775-103.656c-4.551-12.303-7.881-21.111-8.309-38.729
		C452.938,208.569,456.725,197.513,456.725,197.513z"/>
	<path display="inline" fill="none" stroke="#000000" stroke-miterlimit="10" d="M443.268,194.83
		c-7.514,16.323-27.994,28.347-43.243,28.347c-15.25,0-35.731-12.024-43.245-28.347"/>
	<path display="inline" fill="#FFFFFF" d="M375.992,120.688c-4.286-8.483,0.039-16.428-1.068-26.823
		c-1.752-16.505,18.958-31.714,37.407-29.787c24.363,2.549,21.438,89.871,7.217,90.711c-8.422,0.498-23.363-7.285-33.813-21.716
		C382.375,128.432,375.992,120.688,375.992,120.688"/>
	<path display="inline" fill="none" stroke="#000000" stroke-miterlimit="10" d="M375.992,120.688
		c-4.286-8.483,0.039-16.428-1.068-26.823c-1.752-16.505,18.958-31.714,37.407-29.787c24.363,2.549,21.438,89.871,7.217,90.711
		c-8.422,0.498-23.363-7.285-33.813-21.716C382.375,128.432,375.992,120.688,375.992,120.688z"/>
	<path display="inline" d="M422.074,74.743c-1.046,15.295-13.629,42.46-32.607,36.518c-21.333-6.677-13.139,6.664-11.64,10.814
		c1.501,4.15,11.636,12.342,9.425,13.394c-2.209,1.056-29.412-12.587-31.288-34.803c-1.875-22.217,7.023-32.245,18.799-38.496
		c11.777-6.251,30.563-6.326,41.645,1.275C427.488,71.043,422.074,74.743,422.074,74.743"/>
	<path display="inline" fill="none" stroke="#000000" stroke-miterlimit="10" d="M411.7,764.72
		c18.099,3.876,24.334-1.866,24.334-1.866"/>
	<path display="inline" fill="none" stroke="#000000" stroke-miterlimit="10" d="M388.523,764.72
		c-18.102,3.876-24.335-1.866-24.335-1.866"/>
</g>
<g id="Reverse_Triangle" display="none">
	<path display="inline" fill="#FFFFFF" d="M457.556,506.958c26.183-4.615,56.403-10.374,56.403-10.374s-0.417,30.64,0.75,36.546
		c1.17,5.908,2.355,15.222,13.879,16.134c11.521,0.921,116.444,11.912,132.098,17.508c15.655,5.595,25.076,2.682,30.132,16.422
		c5.05,13.746-16.702,106.556-19.628,131.203c-2.932,24.648-5.601,55.541,0.652,64.978c6.253,9.434,55.256,20.494,61.882,22.228
		c6.621,1.735,12.518,3.557,12.835,5.857c0.319,2.301-0.695,6.893-10.664,7.831c-9.972,0.944-84.983,1.869-88.627-0.537
		c-3.642-2.406-11.054-5.483-9.986-22.642c1.063-17.165,0.441-43.565-2.19-70.112s-13.38-78.546,0.442-110.36
		c0,0-49.549,14.151-96.525,15.181c-46.97,1.036-85.146-0.825-94.415-4.327c0,0-93.066,21.978-116.017,31.992
		c-22.95,10.018-153.62,71.69-187.495,85.232c-33.873,13.547-49.486,22.32-53.035,30.494c-3.547,8.176-1.072,23.677,5.204,29.035
		c6.28,5.357,11.435,5.357,14.397,7.662c2.962,2.304,3.215,6.363-6.364,6.363c-9.581,0-28.669,2.025-40.17-14.563
		c-11.5-16.594-9.012-23.104,0-32.354c9.016-9.252,10.637-17.842,28.641-35.484c18.003-17.646,123.953-95.935,169.874-116.246
		c45.921-20.316,103.709-64.057,128.197-77.581c24.483-13.527,22.456-7.045,24.938-15.589c1.481-5.111,0.902-9.635,0.902-9.635
		S442.354,509.643,457.556,506.958"/>
	<path display="inline" fill="none" stroke="#000000" stroke-miterlimit="10" d="M457.556,506.958
		c26.183-4.615,56.403-10.374,56.403-10.374s-0.417,30.64,0.75,36.546c1.17,5.908,2.355,15.222,13.879,16.134
		c11.521,0.921,116.444,11.912,132.098,17.508c15.655,5.595,25.076,2.682,30.132,16.422c5.05,13.746-16.702,106.556-19.628,131.203
		c-2.932,24.648-5.601,55.541,0.652,64.978c6.253,9.434,55.256,20.494,61.882,22.228c6.621,1.735,12.518,3.557,12.835,5.857
		c0.319,2.301-0.695,6.893-10.664,7.831c-9.972,0.944-84.983,1.869-88.627-0.537c-3.642-2.406-11.054-5.483-9.986-22.642
		c1.063-17.165,0.441-43.565-2.19-70.112s-13.38-78.546,0.442-110.36c0,0-49.549,14.151-96.525,15.181
		c-46.97,1.036-85.146-0.825-94.415-4.327c0,0-93.066,21.978-116.017,31.992c-22.95,10.018-153.62,71.69-187.495,85.232
		c-33.873,13.547-49.486,22.32-53.035,30.494c-3.547,8.176-1.072,23.677,5.204,29.035c6.28,5.357,11.435,5.357,14.397,7.662
		c2.962,2.304,3.215,6.363-6.364,6.363c-9.581,0-28.669,2.025-40.17-14.563c-11.5-16.594-9.012-23.104,0-32.354
		c9.016-9.252,10.637-17.842,28.641-35.484c18.003-17.646,123.953-95.935,169.874-116.246
		c45.921-20.316,103.709-64.057,128.197-77.581c24.483-13.527,22.456-7.045,24.938-15.589c1.481-5.111,0.902-9.635,0.902-9.635
		S442.354,509.643,457.556,506.958z"/>
	<line display="inline" fill="none" stroke="#000000" stroke-miterlimit="10" x1="636.229" y1="735.06" x2="668.574" y2="735.06"/>
	<path display="inline" fill="#FFFFFF" d="M411.275,525.306c2.229-1.301,2.06-13.484,2.06-13.484
		c27.629,0,100.624-15.236,100.624-15.236s0.482,10.429,0.482,21.333c0,10.994-2.099,30.532,14.146,31.35"/>
	<path display="inline" fill="none" stroke="#000000" stroke-miterlimit="10" d="M411.275,525.306
		c2.229-1.301,2.06-13.484,2.06-13.484c27.629,0,100.624-15.236,100.624-15.236s0.482,10.429,0.482,21.333
		c0,10.994-2.099,30.532,14.146,31.35"/>
	<line display="inline" fill="none" x1="117.145" y1="709.688" x2="139.38" y2="740.489"/>
	<line display="inline" fill="none" stroke="#000000" stroke-miterlimit="10" x1="117.145" y1="709.688" x2="139.38" y2="740.489"/>
	<path display="inline" fill="#FFFFFF" d="M463.793,505.945c14.211-2.642,48.006-8.185,50.166-9.364c0,0-2.839-38.497-10.707-77.019
		c-7.867-38.518-31.227-69.654-31.227-69.654s-40.736-11.573-60.274-33.335c0,0,1.609,7.443,0.373,9.297
		c0,0-20.348,0.002-30.085-5.525c-9.739-5.536-19.119-15.981-19.119-15.981l-37.6,8.801c0,0,20.979,17.527,28.056,29.458
		c7.076,11.928,9.205,28.746,5.343,35.682c-3.861,6.935-6.001,10.539-6.001,10.539s25.218,10.06,27.007,47.286
		c0,0,21.727,18.121,28.954,28.145c7.228,10.02,4.949,43.265,4.987,47.543C413.666,511.815,439.825,510.401,463.793,505.945"/>
	<path display="inline" fill="none" stroke="#000000" stroke-miterlimit="10" d="M463.793,505.945
		c14.211-2.642,48.006-8.185,50.166-9.364c0,0-2.839-38.497-10.707-77.019c-7.867-38.518-31.227-69.654-31.227-69.654
		s-40.736-11.573-60.274-33.335c0,0,1.609,7.443,0.373,9.297c0,0-20.348,0.002-30.085-5.525
		c-9.739-5.536-19.119-15.981-19.119-15.981l-37.6,8.801c0,0,20.979,17.527,28.056,29.458c7.076,11.928,9.205,28.746,5.343,35.682
		c-3.861,6.935-6.001,10.539-6.001,10.539s25.218,10.06,27.007,47.286c0,0,21.727,18.121,28.954,28.145
		c7.228,10.02,4.949,43.265,4.987,47.543C413.666,511.815,439.825,510.401,463.793,505.945z"/>
	<path display="inline" fill="#FFFFFF" d="M370.322,404.704c4.893,7.279,9.968,25.185,9.402,31.427l-3.376-3.502
		c0,0-25.596,33.846-47.759,70.992c-22.166,37.15-40.955,89.691-99.246,139.333c0,0-20.762,18.792-26.607,23.697
		c0,0,4.912,7.791-13.222,21.486c-18.138,13.696-25.505,26.745-34.762,20.884c-7.87-4.982,8.418-29.266,17.33-38.479
		c8.912-9.213,13.583-14.389,19.799-17.754c6.211-3.365,40.585-54.547,60.453-88.658c19.864-34.111,36.977-81.938,56.065-113.096
		c19.088-31.155,44.318-62.188,44.318-62.188S362.997,393.811,370.322,404.704"/>
	<path display="inline" fill="none" stroke="#000000" stroke-miterlimit="10" d="M370.322,404.704
		c4.893,7.279,9.968,25.185,9.402,31.427l-3.376-3.502c0,0-25.596,33.846-47.759,70.992c-22.166,37.15-40.955,89.691-99.246,139.333
		c0,0-20.762,18.792-26.607,23.697c0,0,4.912,7.791-13.222,21.486c-18.138,13.696-25.505,26.745-34.762,20.884
		c-7.87-4.982,8.418-29.266,17.33-38.479c8.912-9.213,13.583-14.389,19.799-17.754c6.211-3.365,40.585-54.547,60.453-88.658
		c19.864-34.111,36.977-81.938,56.065-113.096c19.088-31.155,44.318-62.188,44.318-62.188S362.997,393.811,370.322,404.704z"/>
	<path display="inline" fill="#FFFFFF" d="M439.271,337.354c22.664,10.706,32.754,12.557,32.754,12.557s-9.517-35.772-35.368-71.516
		c-25.854-35.741-84.317-91.658-104.447-108.047c-20.132-16.386-42.398-32.489-48.052-41.552
		c-5.655-9.061-45.97-45.375-56.009-45.075c-10.036,0.304-5.597,4.929-2.706,9.279c2.893,4.355,19.654,27.861,24.809,33.667
		c5.152,5.806,13.222,15.761,23.069,16.042c0,0,27.685,31.268,42.131,47.586c14.442,16.316,63.009,69.974,71.08,81.102
		c8.067,11.136,20.685,29.807,25.218,45.177C411.751,316.573,423.169,329.745,439.271,337.354"/>
	<path display="inline" fill="none" stroke="#000000" stroke-miterlimit="10" d="M439.271,337.354
		c22.664,10.706,32.754,12.557,32.754,12.557s-9.517-35.772-35.368-71.516c-25.854-35.741-84.317-91.658-104.447-108.047
		c-20.132-16.386-42.398-32.489-48.052-41.552c-5.655-9.061-45.97-45.375-56.009-45.075c-10.036,0.304-5.597,4.929-2.706,9.279
		c2.893,4.355,19.654,27.861,24.809,33.667c5.152,5.806,13.222,15.761,23.069,16.042c0,0,27.685,31.268,42.131,47.586
		c14.442,16.316,63.009,69.974,71.08,81.102c8.067,11.136,20.685,29.807,25.218,45.177
		C411.751,316.573,423.169,329.745,439.271,337.354z"/>
	<path display="inline" fill="none" stroke="#000000" stroke-miterlimit="10" d="M358.719,378.301
		c13.087,6.032,35.688,14.224,55.377-1.867c26.986-22.05-1.972-50.562-1.972-50.562"/>
	<path display="inline" fill="#FFFFFF" d="M331.37,319.836c-8.886-0.73-13.024-8.166-21.834-12.418
		c-13.986-6.751-15.661-31.041-4.862-45.013c14.257-18.448,82.122,27.154,75.648,39.076c-3.831,7.063-17.519,15.295-34.223,16.607
		C340.726,318.504,331.37,319.836,331.37,319.836"/>
	<path display="inline" fill="none" stroke="#000000" stroke-miterlimit="10" d="M331.37,319.836
		c-8.886-0.73-13.024-8.166-21.834-12.418c-13.986-6.751-15.661-31.041-4.862-45.013c14.257-18.448,82.122,27.154,75.648,39.076
		c-3.831,7.063-17.519,15.295-34.223,16.607C340.726,318.504,331.37,319.836,331.37,319.836z"/>
	<path display="inline" d="M315.107,261.176c11.613,5.775,14.536,24.688,8.965,30.589c-5.572,5.906-8.705,10.583-6.875,12.66
		c1.828,2.078,5.864,3.88,7.376,2.067c1.514-1.818,3.208-6.845,7.207-4.69c3.998,2.149,10.106,14.133,7.965,23.68
		c-2.143,9.544-15.152,16.116-29.594,12.359c-14.439-3.751-24.836-24.308-26.239-41.853c-0.673-8.459,1.641-17.25,5.836-23.469
		C296.669,262.269,303.712,255.514,315.107,261.176"/>
	<path display="inline" d="M292.63,316.784c5.33,6.695,13.149,12.545,11.39,25.027c-1.759,12.483-11.305,14.144-10.571,22.349
		c0.734,8.207,14.665,26.951,11.646,39.302c-3.019,12.347-12.4,8.282-15.957,21.78c-3.041,11.544,19.351,16.656,9.824,41.457
		c-4.569,11.901-86.951-10.022-80.95-26.081c6.001-16.054,21.025-18.618,23.203-27.959c2.177-9.341-9.73-16.709-5.966-29.079
		c5.278-17.34,24.786-13.62,28.629-26.599c3.163-10.678-3.489-14.602,0.643-27.074C268.658,317.438,292.63,316.784,292.63,316.784"
		/>
</g>
<g id="Halfmoon">
	<path stroke="#000000" stroke-width="5" stroke-miterlimit="10" d="M695.574,555.242c-18.31-1.458-62.861,5.495-45.855,52.686
		c10.793,29.957,22.674,75.729,4.75,98.458c-17.924,22.73,50.482,29.403,69.013-4.063c18.524-33.473,11.666-75.58-13.16-97.979
		C685.488,581.944,695.574,555.242,695.574,555.242"/>
	<polyline fill="#FFFFFF" stroke="#000000" stroke-width="5" stroke-miterlimit="10" points="678.906,432.104 644.232,438.915 
		653.854,385.301 	"/>
	<polyline fill="none" stroke="#000000" stroke-width="5" stroke-miterlimit="10" points="678.906,432.104 644.232,438.915 
		653.854,385.301 	"/>
	<path fill="#FFFFFF" stroke="#000000" stroke-width="5" stroke-miterlimit="10" d="M574.771,474.467
		c0,0-2.529,125.278,1.432,151.818c3.963,26.537,33.313,116.025,33.313,116.025c4.332,16.966,1.357,31.267,11.544,50.227
		c10.184,18.958,12.243,16.505,14.159,13.915c1.918-2.596,4.912-52.137-7.166-66.259c-3.979-4.648-4.024-5.616-5.307-8.61
		L604.492,619.46l20.887-138.985l-30.475-30.071L574.771,474.467"/>
	<path fill="none" stroke="#000000" stroke-width="5" stroke-miterlimit="10" d="M574.771,474.467c0,0-2.529,125.278,1.432,151.818
		c3.963,26.537,33.313,116.025,33.313,116.025c4.332,16.966,1.357,31.267,11.544,50.227c10.184,18.958,12.243,16.505,14.159,13.915
		c1.918-2.596,4.912-52.137-7.166-66.259c-3.979-4.648-4.024-5.616-5.307-8.61L604.492,619.46l20.887-138.985l-30.475-30.071
		L574.771,474.467"/>
	<path fill="#FFFFFF" stroke="#000000" stroke-width="5" stroke-miterlimit="10" d="M653.854,385.298l30.421-121.815l27.897-104.669
		c1.771-5.386,1.654-10.378,1.502-14.408c-0.815-21.938,11.111-47.031,21.744-62.972c1.238-1.86,4.131-1.064,4.223,1.163
		c0.457,10.797,8.354,17.733-8.141,64.275c0,0-13.367,95.29-19.945,120.073c-6.578,24.784-32.647,165.157-32.647,165.157"/>
	<path fill="none" stroke="#000000" stroke-width="5" stroke-miterlimit="10" d="M653.854,385.298l30.421-121.815l27.897-104.669
		c1.771-5.386,1.654-10.378,1.502-14.408c-0.815-21.938,11.111-47.031,21.744-62.972c1.238-1.86,4.131-1.064,4.223,1.163
		c0.457,10.797,8.354,17.733-8.141,64.275c0,0-13.367,95.29-19.945,120.073c-6.578,24.784-32.647,165.157-32.647,165.157"/>
	<path fill="#FFFFFF" stroke="#000000" stroke-width="5" stroke-miterlimit="10" d="M402.381,419.861
		c-41.601-24.319-59.975-54.325-100.703-80.094c-41.888-26.501-77.43-54.566-118.283-83.143
		c-14.584-10.209-30.294-22.694-48.724-31.832c-5.014-2.491-14.572-11.401-21.792-7.128c-15.716,9.307-30.627-25.48-39.213-37.665
		c-14.831-21.05-34.468-66.198,10.939-15.378c5.565,6.233,19.988,14.556,27.964,18.783c46.452,24.612,80.26,39.47,127.549,58.202
		c30.267,11.999,57.286,28.891,87.214,40.962c27.756,11.196,51.536,19.785,82.233,27.146c27.014,6.482,45.137,11.211,68.311,18.285
		c0,0-8.828,26.422-9.695,53.745c-1.444,45.509,5.677,65.17,5.677,65.17c0.69,2.426-7.33,6.449-7.121,9.289
		c1.703,23.062,4.221,53.623,1.856,72.595c-4.35,34.913-6.063,58.548-13.086,90.678c-10.768,49.266-20.397,95.604-16.526,145.719
		c0.561,7.254-0.361,15.054,7.221,24.38c7.555,9.293,43.772,13.234,62.764,20.061c4.465,1.602,2.435,8.671-2.307,8.766
		l-84.793,1.199c-7.271,0.147-13.275-5.602-13.486-12.874c-1.204-41.527,0.645-55.847-4.18-124.063
		c-2.252-31.86-1.728-34.908-0.928-63.188c0.659-23.309,0.086-52.702,1.096-75.847c1.026-23.596-10.814-90.578-2.23-124.282"/>
	<path fill="none" stroke="#000000" stroke-width="5" stroke-miterlimit="10" d="M402.381,419.861
		c-41.601-24.319-59.975-54.325-100.703-80.094c-41.888-26.501-77.43-54.566-118.283-83.143
		c-14.584-10.209-30.294-22.694-48.724-31.832c-5.014-2.491-14.572-11.401-21.792-7.128c-15.716,9.307-30.627-25.48-39.213-37.665
		c-14.831-21.05-34.468-66.198,10.939-15.378c5.565,6.233,19.988,14.556,27.964,18.783c46.452,24.612,80.26,39.47,127.549,58.202
		c30.267,11.999,57.286,28.891,87.214,40.962c27.756,11.196,51.536,19.785,82.233,27.146c27.014,6.482,45.137,11.211,68.311,18.285
		c0,0-8.828,26.422-9.695,53.745c-1.444,45.509,5.677,65.17,5.677,65.17c0.69,2.426-7.33,6.449-7.121,9.289
		c1.703,23.062,4.221,53.623,1.856,72.595c-4.35,34.913-6.063,58.548-13.086,90.678c-10.768,49.266-20.397,95.604-16.526,145.719
		c0.561,7.254-0.361,15.054,7.221,24.38c7.555,9.293,43.772,13.234,62.764,20.061c4.465,1.602,2.435,8.671-2.307,8.766
		l-84.793,1.199c-7.271,0.147-13.275-5.602-13.486-12.874c-1.204-41.527,0.645-55.847-4.18-124.063
		c-2.252-31.86-1.728-34.908-0.928-63.188c0.659-23.309,0.086-52.702,1.096-75.847c1.026-23.596-10.814-90.578-2.23-124.282"/>
	<path fill="#FFFFFF" stroke="#000000" stroke-width="5" stroke-miterlimit="10" d="M468.229,380.526
		c-2.067,31.527,2.019,54.777,5.63,66.39c0,0,52.575,2.966,100.913,27.554c0,0,24.982-10.907,47.326,25.479
		c0,0,17.738-25.327,63.15,14.767l20.648-2.477l-6.662-24.458c0,0-23.011-11.508-20.328-55.677c0,0-21.623-19.726-25.053-46.803
		c0,0-23.037-14.082-62.046-23.369c-39.008-9.288-88.241-23.589-113.93-33.929C477.879,328.003,470.34,348.349,468.229,380.526"/>
	<path fill="none" stroke="#000000" stroke-width="5" stroke-miterlimit="10" d="M468.229,380.526
		c-2.067,31.527,2.019,54.777,5.63,66.39c0,0,52.575,2.966,100.913,27.554c0,0,24.982-10.907,47.326,25.479
		c0,0,17.738-25.327,63.15,14.767l20.648-2.477l-6.662-24.458c0,0-23.011-11.508-20.328-55.677c0,0-21.623-19.726-25.053-46.803
		c0,0-23.037-14.082-62.046-23.369c-39.008-9.288-88.241-23.589-113.93-33.929C477.879,328.003,470.34,348.349,468.229,380.526z"/>
	<path fill="#FFFFFF" stroke="#000000" stroke-width="5" stroke-miterlimit="10" d="M682.291,518.726
		c0.068,8.97,7.129,13.771,10.693,22.966c5.659,14.605,29.606,18.413,44.252,8.825c19.338-12.663-20.849-84.657-33.142-79.216
		c-7.282,3.221-16.453,16.207-18.979,32.826C684.297,509.475,682.291,518.726,682.291,518.726"/>
	<path fill="none" stroke="#000000" stroke-width="5" stroke-miterlimit="10" d="M682.291,518.726
		c0.068,8.97,7.129,13.771,10.693,22.966c5.659,14.605,29.606,18.413,44.252,8.825c19.338-12.663-20.849-84.657-33.142-79.216
		c-7.282,3.221-16.453,16.207-18.979,32.826C684.297,509.475,682.291,518.726,682.291,518.726z"/>
	<path stroke="#000000" stroke-width="5" stroke-miterlimit="10" d="M740.803,537.358c-7.483-12.376-29.778-29.732-43.135-16.549
		c-15.012,14.823-13.902,0.09-14.438-4.038c-0.537-4.132,4.426-15.381,2.116-15.309c-2.309,0.067-19.233,23.265-11.205,42.718
		c8.023,19.446,19.822,24.014,32.404,24.172c12.58,0.152,28.373-7.903,34.383-19.067
		C746.939,538.123,740.803,537.358,740.803,537.358"/>
	<path fill="none" stroke="#000000" stroke-width="5" stroke-miterlimit="10" d="M678.906,443.043
		c-15.904-18.372-39.213-27.863-55.726-6.811c-18.414,23.478-7.215,38.807,8.5,56.731"/>
	<path fill="none" stroke="#000000" stroke-width="5" stroke-miterlimit="10" d="M152.896,203.881
		c-2.866,6.354-5.323,18.512-6.571,27.294"/>
	<path fill="none" stroke="#000000" stroke-width="5" stroke-miterlimit="10" d="M407.537,749.115
		c3.063,3.104,25.623,2.678,30.646,0"/>
</g>
</svg>
