<svg width="800" height="900" fill="none" xmlns="http://www.w3.org/2000/svg"><path d="M646.546 528.094c-16.115-1.283-55.327 4.839-40.359 46.396 9.5 26.381 19.957 66.688 4.181 86.704-15.776 20.016 44.432 25.893 60.742-3.578 16.304-29.477 10.268-66.557-11.583-86.281-21.857-19.727-12.981-43.241-12.981-43.241Z" fill="#000" stroke="#000" stroke-width="5" stroke-miterlimit="10"/><path d="m631.878 419.656-30.519 5.999 8.47-47.214" fill="#fff"/><path d="m631.878 419.656-30.519 5.999 8.47-47.214" stroke="#000" stroke-width="5" stroke-miterlimit="10"/><path d="m631.878 419.656-30.519 5.999 8.47-47.214" stroke="#000" stroke-width="5" stroke-miterlimit="10"/><path d="M540.219 456.962s-2.225 110.321 1.262 133.693c3.487 23.368 29.32 102.173 29.32 102.173 3.812 14.94 1.194 27.534 10.161 44.23 8.964 16.695 10.775 14.534 12.462 12.253 1.688-2.285 4.323-45.912-6.307-58.347-3.503-4.094-3.542-4.946-4.672-7.583l-16.066-98.737 18.384-122.392-26.823-26.481-17.721 21.191Z" fill="#fff" stroke="#000" stroke-width="5" stroke-miterlimit="10"/><path d="M540.219 456.962s-2.225 110.321 1.262 133.693c3.487 23.368 29.32 102.173 29.32 102.173 3.812 14.94 1.194 27.534 10.161 44.23 8.964 16.695 10.775 14.534 12.462 12.253 1.688-2.285 4.323-45.912-6.307-58.347-3.503-4.094-3.542-4.946-4.672-7.583l-16.066-98.737 18.384-122.392-26.823-26.481-17.721 21.191Z" stroke="#000" stroke-width="5" stroke-miterlimit="10"/><path d="m609.832 378.438 26.775-107.271 24.554-92.173c1.558-4.743 1.456-9.139 1.322-12.688-.718-19.319 9.779-41.416 19.138-55.454 1.089-1.638 3.635-.937 3.717 1.024.402 9.508 7.353 15.616-7.166 56.602 0 0-11.764 83.914-17.555 105.738-5.789 21.825-28.734 145.438-28.734 145.438" fill="#fff"/><path d="m609.832 378.438 26.775-107.271 24.554-92.173c1.558-4.743 1.456-9.139 1.322-12.688-.718-19.319 9.779-41.416 19.138-55.454 1.089-1.638 3.635-.937 3.717 1.024.402 9.508 7.353 15.616-7.166 56.602 0 0-11.764 83.914-17.555 105.738-5.789 21.825-28.734 145.438-28.734 145.438" stroke="#000" stroke-width="5" stroke-miterlimit="10"/><path d="m609.832 378.438 26.775-107.271 24.554-92.173c1.558-4.743 1.456-9.139 1.322-12.688-.718-19.319 9.779-41.416 19.138-55.454 1.089-1.638 3.635-.937 3.717 1.024.402 9.508 7.353 15.616-7.166 56.602 0 0-11.764 83.914-17.555 105.738-5.789 21.825-28.734 145.438-28.734 145.438" stroke="#000" stroke-width="5" stroke-miterlimit="10"/><path d="M388.49 408.875c-36.616-21.415-52.787-47.839-88.635-70.531-36.867-23.337-68.15-48.052-104.107-73.216-12.837-8.991-26.663-19.986-42.885-28.032-4.413-2.194-12.825-10.04-19.181-6.278-13.832 8.196-26.956-22.437-34.513-33.167-13.054-18.538-30.337-58.295 9.628-13.543 4.898 5.489 17.593 12.819 24.613 16.541 40.884 21.673 70.641 34.757 112.263 51.252 26.639 10.567 50.42 25.443 76.762 36.073 24.43 9.858 45.359 17.423 72.378 23.904 23.777 5.709 39.728 9.874 60.124 16.103 0 0-7.77 23.267-8.533 47.328-1.271 40.076 4.996 57.39 4.996 57.39.608 2.136-6.451 5.679-6.267 8.18 1.5 20.308 3.715 47.221 1.634 63.928-3.828 30.745-5.336 51.558-11.518 79.852-9.477 43.384-17.952 84.19-14.545 128.322.494 6.388-.319 13.256 6.355 21.469 6.65 8.184 38.526 11.654 55.242 17.666 3.93 1.411 2.144 7.636-2.031 7.72l-74.631 1.056c-6.399.129-11.683-4.933-11.869-11.337-1.06-36.57.567-49.18-3.679-109.251-1.982-28.057-1.522-30.741-.817-55.645.58-20.526.075-46.41.964-66.791.904-20.78-9.517-79.764-1.962-109.445" fill="#fff"/><path d="M388.49 408.875c-36.616-21.415-52.787-47.839-88.635-70.531-36.867-23.337-68.15-48.052-104.107-73.216-12.837-8.991-26.663-19.986-42.885-28.032-4.413-2.194-12.825-10.04-19.181-6.278-13.832 8.196-26.956-22.437-34.513-33.167-13.054-18.538-30.337-58.295 9.628-13.543 4.898 5.489 17.593 12.819 24.613 16.541 40.884 21.673 70.641 34.757 112.263 51.252 26.639 10.567 50.42 25.443 76.762 36.073 24.43 9.858 45.359 17.423 72.378 23.904 23.777 5.709 39.728 9.874 60.124 16.103 0 0-7.77 23.267-8.533 47.328-1.271 40.076 4.996 57.39 4.996 57.39.608 2.136-6.451 5.679-6.267 8.18 1.5 20.308 3.715 47.221 1.634 63.928-3.828 30.745-5.336 51.558-11.518 79.852-9.477 43.384-17.952 84.19-14.545 128.322.494 6.388-.319 13.256 6.355 21.469 6.65 8.184 38.526 11.654 55.242 17.666 3.93 1.411 2.144 7.636-2.031 7.72l-74.631 1.056c-6.399.129-11.683-4.933-11.869-11.337-1.06-36.57.567-49.18-3.679-109.251-1.982-28.057-1.522-30.741-.817-55.645.58-20.526.075-46.41.964-66.791.904-20.78-9.517-79.764-1.962-109.445" stroke="#000" stroke-width="5" stroke-miterlimit="10"/><path d="M388.49 408.875c-36.616-21.415-52.787-47.839-88.635-70.531-36.867-23.337-68.15-48.052-104.107-73.216-12.837-8.991-26.663-19.986-42.885-28.032-4.413-2.194-12.825-10.04-19.181-6.278-13.832 8.196-26.956-22.437-34.513-33.167-13.054-18.538-30.337-58.295 9.628-13.543 4.898 5.489 17.593 12.819 24.613 16.541 40.884 21.673 70.641 34.757 112.263 51.252 26.639 10.567 50.42 25.443 76.762 36.073 24.43 9.858 45.359 17.423 72.378 23.904 23.777 5.709 39.728 9.874 60.124 16.103 0 0-7.77 23.267-8.533 47.328-1.271 40.076 4.996 57.39 4.996 57.39.608 2.136-6.451 5.679-6.267 8.18 1.5 20.308 3.715 47.221 1.634 63.928-3.828 30.745-5.336 51.558-11.518 79.852-9.477 43.384-17.952 84.19-14.545 128.322.494 6.388-.319 13.256 6.355 21.469 6.65 8.184 38.526 11.654 55.242 17.666 3.93 1.411 2.144 7.636-2.031 7.72l-74.631 1.056c-6.399.129-11.683-4.933-11.869-11.337-1.06-36.57.567-49.18-3.679-109.251-1.982-28.057-1.522-30.741-.817-55.645.58-20.526.075-46.41.964-66.791.904-20.78-9.517-79.764-1.962-109.445" stroke="#000" stroke-width="5" stroke-miterlimit="10"/><path d="M446.448 374.236c-1.82 27.764 1.777 48.238 4.955 58.464 0 0 46.274 2.612 88.82 24.265 0 0 21.988-9.605 41.654 22.437 0 0 15.612-22.303 55.582 13.003l18.173-2.18-5.863-21.538s-20.253-10.135-17.893-49.031c0 0-19.031-17.37-22.05-41.215 0 0-20.276-12.401-54.611-20.579-34.333-8.179-77.666-20.772-100.275-29.878.001 0-6.634 17.917-8.492 46.252Z" fill="#fff" stroke="#000" stroke-width="5" stroke-miterlimit="10"/><path d="M446.448 374.236c-1.82 27.764 1.777 48.238 4.955 58.464 0 0 46.274 2.612 88.82 24.265 0 0 21.988-9.605 41.654 22.437 0 0 15.612-22.303 55.582 13.003l18.173-2.18-5.863-21.538s-20.253-10.135-17.893-49.031c0 0-19.031-17.37-22.05-41.215 0 0-20.276-12.401-54.611-20.579-34.333-8.179-77.666-20.772-100.275-29.878.001 0-6.634 17.917-8.492 46.252Z" stroke="#000" stroke-width="5" stroke-miterlimit="10"/><path d="M634.859 495.937c.06 7.899 6.275 12.128 9.412 20.224 4.98 12.862 26.058 16.216 38.949 7.772 17.02-11.151-18.351-74.55-29.171-69.759-6.409 2.837-14.481 14.272-16.704 28.908-.72 4.709-2.486 12.855-2.486 12.855Z" fill="#fff" stroke="#000" stroke-width="5" stroke-miterlimit="10"/><path d="M634.859 495.937c.06 7.899 6.275 12.128 9.412 20.224 4.98 12.862 26.058 16.216 38.949 7.772 17.02-11.151-18.351-74.55-29.171-69.759-6.409 2.837-14.481 14.272-16.704 28.908-.72 4.709-2.486 12.855-2.486 12.855Z" stroke="#000" stroke-width="5" stroke-miterlimit="10"/><path d="M686.354 512.345c-6.586-10.899-26.209-26.183-37.966-14.573-13.212 13.052-12.235.078-12.708-3.557-.473-3.638 3.896-13.544 1.863-13.48-2.032.058-16.928 20.487-9.862 37.618 7.062 17.123 17.446 21.146 28.52 21.286 11.072.133 24.973-6.96 30.263-16.791 5.291-9.829-.11-10.503-.11-10.503Z" fill="#000" stroke="#000" stroke-width="5" stroke-miterlimit="10"/><path d="M631.874 429.29c-13.998-16.179-34.514-24.537-49.048-5.998-16.206 20.675-6.351 34.174 7.482 49.958M168.905 218.682c-2.523 5.595-4.685 16.301-5.784 24.035M393.027 698.819c2.696 2.734 22.552 2.359 26.973 0" stroke="#000" stroke-width="5" stroke-miterlimit="10"/></svg>