<svg width="800" height="900" fill="none" xmlns="http://www.w3.org/2000/svg"><path d="M325.256 495.401s-6.643 54.517 14.246 124.505c4.33 14.511 11.488 27.892 19.232 40.909 1.32 2.217 1.009 4.482-3.924 5.711-11.846 2.959-50.347-8.879-91.81 5.92-41.463 14.8-53.309-2.96-53.309-2.96s-8.885-14.799-23.693 0c-9.357 9.352-10.586 18.958-23.693 20.722-.462.06-11.372 2.902-11.847 2.958-20.782 2.599-29.616 11.84-26.655 17.762 2.962 5.92 20.732 0 85.887-2.96 0 0 165.851 11.84 186.582 5.921 20.732-5.921 17.77-20.722 17.77-20.722 2.135-51.439.761-100.234-5.924-145.042l-82.862-52.724Z" fill="#fff" stroke="#000" stroke-width="5" stroke-miterlimit="10"/><path d="M325.256 495.401s-6.643 54.517 14.246 124.505c4.33 14.511 11.488 27.892 19.232 40.909 1.32 2.217 1.009 4.482-3.924 5.711-11.846 2.959-50.347-8.879-91.81 5.92-41.463 14.8-53.309-2.96-53.309-2.96s-8.885-14.799-23.693 0c-9.357 9.352-10.586 18.958-23.693 20.722-.462.06-11.372 2.902-11.847 2.958-20.782 2.599-29.616 11.84-26.655 17.762 2.962 5.92 20.732 0 85.887-2.96 0 0 165.851 11.84 186.582 5.921 20.732-5.921 17.77-20.722 17.77-20.722 2.135-51.439.761-100.234-5.924-145.042l-82.862-52.724Z" stroke="#000" stroke-width="5" stroke-miterlimit="10"/><path d="m519.8 413.077-40.599-92.878s-41.463-85.842-44.425-94.721c-2.961-8.88-37.19-21.389-37.19-21.389s-1.886-25.894 20.609-33.334c22.504-7.439 31.389 34.002 31.389 34.002s41.462 59.201 53.309 85.841c11.846 26.641 69.299 107.965 69.299 107.965L519.8 413.077Z" fill="#fff" stroke="#000" stroke-width="5" stroke-miterlimit="10"/><path d="m519.8 413.077-40.599-92.878s-41.463-85.842-44.425-94.721c-2.961-8.88-37.19-21.389-37.19-21.389s-1.886-25.894 20.609-33.334c22.504-7.439 31.389 34.002 31.389 34.002s41.462 59.201 53.309 85.841c11.846 26.641 69.299 107.965 69.299 107.965L519.8 413.077Z" stroke="#000" stroke-width="5" stroke-miterlimit="10"/><path d="M633.203 385.321s-8.883 20.72-17.77 32.56c-8.885 11.841-26.654 32.561-26.654 32.561l-8.885 35.52c-4.14 16.549-30.184 33.239-40.143 38.224a142.842 142.842 0 0 0-14.333 8.247c-15.9 10.432-57.739 33.451-117.297 33.451 0 0 32.578-29.601 26.654-82.882 0 0 37.015-15.116 65.443-50.44 9.19-11.423 20.174-21.344 33.053-28.352 11.665-6.351 25.141-11.178 34.776-7.05 20.732 8.879 32.643-12.867 26.688-21.232" fill="#fff"/><path d="M633.203 385.321s-8.883 20.72-17.77 32.56c-8.885 11.841-26.654 32.561-26.654 32.561l-8.885 35.52c-4.14 16.549-30.184 33.239-40.143 38.224a142.842 142.842 0 0 0-14.333 8.247c-15.9 10.432-57.739 33.451-117.297 33.451 0 0 32.578-29.601 26.654-82.882 0 0 37.015-15.116 65.443-50.44 9.19-11.423 20.174-21.344 33.053-28.352 11.665-6.351 25.141-11.178 34.776-7.05 20.732 8.879 32.643-12.867 26.688-21.232" stroke="#000" stroke-width="5" stroke-miterlimit="10"/><path d="M633.203 385.321s-8.883 20.72-17.77 32.56c-8.885 11.841-26.654 32.561-26.654 32.561l-8.885 35.52c-4.14 16.549-30.184 33.239-40.143 38.224a142.842 142.842 0 0 0-14.333 8.247c-15.9 10.432-57.739 33.451-117.297 33.451 0 0 32.578-29.601 26.654-82.882 0 0 37.015-15.116 65.443-50.44 9.19-11.423 20.174-21.344 33.053-28.352 11.665-6.351 25.141-11.178 34.776-7.05 20.732 8.879 32.643-12.867 26.688-21.232" stroke="#000" stroke-width="5" stroke-miterlimit="10" stroke-linejoin="bevel"/><path d="M590.647 377.405c-8.34-5.865-8.116-15.592-14.338-24.879-9.879-14.76 2.541-39.666 21.285-47.188 24.747-9.927 65.249 74.32 51.962 82.321-7.876 4.741-26.142 4.932-43.372-3.452-5.543-2.694-15.537-6.802-15.537-6.802Z" fill="#fff" stroke="#000" stroke-width="5" stroke-miterlimit="10"/><path d="M590.647 377.405c-8.34-5.865-8.116-15.592-14.338-24.879-9.879-14.76 2.541-39.666 21.285-47.188 24.747-9.927 65.249 74.32 51.962 82.321-7.876 4.741-26.142 4.932-43.372-3.452-5.543-2.694-15.537-6.802-15.537-6.802Z" stroke="#000" stroke-width="5" stroke-miterlimit="10"/><path d="M608.59 310.171c8.11 12.418.037 32.752-8.88 35.342-8.916 2.596-14.713 5.388-14.113 8.493.599 3.11 3.535 7.221 6.079 6.314 2.543-.917 7.124-4.891 9.822-.451 2.696 4.435 1.78 19.784-5.864 27.953-7.645 8.169-24.279 7.108-36.345-4.952-12.069-12.063-10.41-38.347-1.626-56.446 4.234-8.73 11.61-16.055 19.351-19.755 12.758-6.095 23.622-8.678 31.576 3.502Z" fill="#100200" stroke="#000" stroke-width="5" stroke-miterlimit="10"/><path d="M556.994 338.957c-2.105 9.551-1.665 20.706-14.023 28.138-12.358 7.429-20.708.145-27.468 6.707-6.763 6.561-13.376 32.427-26.518 38.642-13.145 6.21-16.295-5.044-30.846 1.521-12.448 5.614-.85 29.172-29.747 38.576-13.864 4.512-53.744-84.417-35.158-90.65 18.585-6.237 31.689 5.256 41.554.463 9.864-4.793 7.829-20.669 21.53-26.236 19.206-7.799 29.957 12.196 44.259 6.261 11.763-4.885 10.454-13.615 24.51-18.922 14.055-5.313 31.907 15.5 31.907 15.5Z" fill="#100200" stroke="#000" stroke-width="5" stroke-miterlimit="10"/><path d="M277.805 323.159s5.923 201.285 130.312 242.725c0 0 28.095-10.71 32.578-85.842 0 0-8.885 8.879-11.848-2.959-2.96-11.84-17.77-32.56-41.462-41.44-23.694-8.88-50.348-115.444-50.348-115.444s38.501-17.76 53.309-50.321c4.724-10.383 8.244-18.36 10.842-24.408 4.11-9.549 11.989-16.78 21.613-20.714 4.476-1.833 8.39-4.464 9.007-8.159 2.962-17.76-6.361-17.321 8.885-32.561 8.884-8.88 20.731-41.44 0-41.44-6.408 0-23.463 29.11-33.59 47.489-5.507 9.991-12.842 18.841-21.602 26.149-21.07 17.583-59.916 49.861-69.195 56.605-32.578 23.68-38.501 35.521-38.501 38.48v11.84Z" fill="#fff" stroke="#000" stroke-width="5" stroke-miterlimit="10"/><path d="M277.805 323.159s5.923 201.285 130.312 242.725c0 0 28.095-10.71 32.578-85.842 0 0-8.885 8.879-11.848-2.959-2.96-11.84-17.77-32.56-41.462-41.44-23.694-8.88-50.348-115.444-50.348-115.444s38.501-17.76 53.309-50.321c4.724-10.383 8.244-18.36 10.842-24.408 4.11-9.549 11.989-16.78 21.613-20.714 4.476-1.833 8.39-4.464 9.007-8.159 2.962-17.76-6.361-17.321 8.885-32.561 8.884-8.88 20.731-41.44 0-41.44-6.408 0-23.463 29.11-33.59 47.489-5.507 9.991-12.842 18.841-21.602 26.149-21.07 17.583-59.916 49.861-69.195 56.605-32.578 23.68-38.501 35.521-38.501 38.48v11.84Z" stroke="#000" stroke-width="5" stroke-miterlimit="10" stroke-linejoin="bevel"/><path d="M381.996 219.161s14.861 3.254 21.972 21.065Z" fill="#fff"/><path d="M381.996 219.161s14.861 3.254 21.972 21.065" stroke="#000" stroke-width="5" stroke-miterlimit="10"/><path d="M381.996 219.161s14.861 3.254 21.972 21.065" stroke="#000" stroke-width="5" stroke-miterlimit="10" stroke-linejoin="bevel"/><path d="M572.19 398.56s-3.474 17.815 4.743 28.201c8.252 10.432 28.977 17.931 6.726 44.147" fill="#fff"/><path d="M572.19 398.56s-3.474 17.815 4.743 28.201c8.252 10.432 28.977 17.931 6.726 44.147" stroke="#000" stroke-width="5" stroke-miterlimit="10"/><path d="M572.19 398.56s-3.474 17.815 4.743 28.201c8.252 10.432 28.977 17.931 6.726 44.147" stroke="#000" stroke-width="5" stroke-miterlimit="10"/><path d="M561.664 432.066c9.744-1.069 27.115.616 30.078 24.296 2.732 21.851 7.403 111.744 8.884 148.005 1.48 36.26-6.83 116.677-.612 127.965 6.216 11.283 16.826 5.871 30.885 8.115 14.062 2.245 41.457 8.347 44.418 12.975 2.961 4.622-9.959 3.862-12.586 3.802-2.627-.058-62.816.867-69.423-.977-6.604-1.85-14.195.237-19.429-28.174-5.234-28.407-6.473-80.962-11.755-123.707-5.28-42.739-19.491-131.286-19.153-144.701.336-13.417 3.577-25.934 18.693-27.599Z" fill="#fff" stroke="#000" stroke-width="5" stroke-miterlimit="10"/><path d="M561.664 432.066c9.744-1.069 27.115.616 30.078 24.296 2.732 21.851 7.403 111.744 8.884 148.005 1.48 36.26-6.83 116.677-.612 127.965 6.216 11.283 16.826 5.871 30.885 8.115 14.062 2.245 41.457 8.347 44.418 12.975 2.961 4.622-9.959 3.862-12.586 3.802-2.627-.058-62.816.867-69.423-.977-6.604-1.85-14.195.237-19.429-28.174-5.234-28.407-6.473-80.962-11.755-123.707-5.28-42.739-19.491-131.286-19.153-144.701.336-13.417 3.577-25.934 18.693-27.599Z" stroke="#000" stroke-width="5" stroke-miterlimit="10"/><path d="M397.583 204.088s21.805-2.214 20.61-33.333c-3.34-2.066-29.562 9.254-20.61 33.333Z" fill="#fff" stroke="#000" stroke-width="5" stroke-miterlimit="10"/><path d="M397.583 204.088s21.805-2.214 20.61-33.333c-3.34-2.066-29.562 9.254-20.61 33.333Z" stroke="#000" stroke-width="5" stroke-miterlimit="10"/><path d="M241.528 677.81s-13.226 3.797-7.723 31.78Z" fill="#fff"/><path d="M241.528 677.81s-13.226 3.797-7.723 31.78" stroke="#000" stroke-width="5" stroke-miterlimit="10"/><path d="M241.528 677.81s-13.226 3.797-7.723 31.78" stroke="#000" stroke-width="5" stroke-miterlimit="10"/></svg>