<svg xmlns="http://www.w3.org/2000/svg" width="800" height="900" xml:space="preserve"><g stroke="#000" stroke-width="5" stroke-miterlimit="10"><path fill="#FFF" d="M447.071 357.3s29.202 56.311 34.687 59.052c5.485 2.742 32.905 13.71 38.391 24.68 5.483 10.968-16.453 19.194-16.453 19.194s-35.647-19.194-41.133-41.132c-5.484-21.937-31.344-43.467-31.344-43.467l15.852-18.327z"/><path fill="none" d="M447.071 357.3s29.202 56.311 34.687 59.052c5.485 2.742 32.905 13.71 38.391 24.68 5.483 10.968-16.453 19.194-16.453 19.194s-35.647-19.194-41.133-41.132c-5.484-21.937-31.344-43.467-31.344-43.467l15.852-18.327z"/><path fill="#FFF" d="M344.653 199.725s-10.97-2.742-19.195 2.742c-8.227 5.484-10.969 24.679-10.969 43.874 0 19.195 30.164 55.614 30.164 55.614s32.905-58.356 0-102.23"/><path fill="none" d="M344.653 199.725s-10.97-2.742-19.195 2.742c-8.227 5.484-10.969 24.679-10.969 43.874 0 19.195 30.164 55.614 30.164 55.614s32.905-58.356 0-102.23z"/><path fill="#FFF" d="m397.594 415.34 60.328-21.937s-13.711-30.164-10.969-52.101c2.742-21.937 16.453-71.295 16.453-71.295s-13.711-13.711-13.711-35.648 5.483-35.647 5.483-35.647-27.421 0-38.39-16.453c-10.969-16.453 0-60.327 0-60.327h-38.391v5.484s2.741 27.421 0 46.616c-2.327 16.287-21.938 24.679-32.905 24.679 0 0 5.483 19.195 5.483 38.39s-14.549 33.918-14.549 33.918 14.549 53.83 14.549 70.283c0 16.453-13.71 52.101-13.71 52.101l30.164 30.164 30.165-8.227z"/><path fill="none" d="m397.594 415.34 60.328-21.937s-13.711-30.164-10.969-52.101c2.742-21.937 16.453-71.295 16.453-71.295s-13.711-13.711-13.711-35.648 5.483-35.647 5.483-35.647-27.421 0-38.39-16.453c-10.969-16.453 0-60.327 0-60.327h-38.391v5.484s2.741 27.421 0 46.616c-2.327 16.287-21.938 24.679-32.905 24.679 0 0 5.483 19.195 5.483 38.39s-14.549 33.918-14.549 33.918 14.549 53.83 14.549 70.283c0 16.453-13.71 52.101-13.71 52.101l30.164 30.164 30.165-8.227z"/><path fill="#FFF" d="M455.18 198.712c13.711 0 27.421 21.937 35.647 63.069 8.669 43.357 19.194 87.748 10.969 104.201s-98.717-60.327-101.46-71.295v-41.132c0-5.484 0-10.968 2.743-10.968 5.484 0 6.073 13.925 8.227 24.679 2.742 13.71 2.742 19.195 5.484 24.679 5.203 10.406 49.358 30.164 57.585 35.648l-10.969-57.584a42.415 42.415 0 0 1-19.792-39.491 42.25 42.25 0 0 1 3.5-13.66l8.066-18.146z"/><path fill="none" d="M455.18 198.712c13.711 0 27.421 21.937 35.647 63.069 8.669 43.357 19.194 87.748 10.969 104.201s-98.717-60.327-101.46-71.295v-41.132c0-5.484 0-10.968 2.743-10.968 5.484 0 6.073 13.925 8.227 24.679 2.742 13.71 2.742 19.195 5.484 24.679 5.203 10.406 49.358 30.164 57.585 35.648l-10.969-57.584a42.415 42.415 0 0 1-19.792-39.491 42.25 42.25 0 0 1 3.5-13.66l8.066-18.146z"/><path fill="#FFF" d="M355.621 646.69c-28.632 9.544-36.148-24.886-37.905-41.067a267.668 267.668 0 0 0-1.347-10.417c-8.304-56.208 20.897-201.803 20.897-201.803s34.413 7.937 61.625 8.213c24.613-.276 59.029-8.213 59.029-8.213s8.228 16.454 13.711 52.1c5.484 35.648 0 104.201-8.227 153.56-5.043 30.24-19.195 79.521-21.938 112.427-2.742 32.905-8.226 76.78-8.226 87.748 0 10.969 5.482 35.647 8.226 43.874 2.742 8.227-5.482 13.711-16.452 13.711-10.969 0-24.681 0-21.938-10.969 2.742-10.969 2.742-16.452 2.742-30.163 0-13.712-2.742-101.459-2.742-123.396s-2.743-95.875-2.743-93.231c.003-.001-20.033 39.401-44.712 47.626"/><path fill="none" d="M355.621 646.69c-28.632 9.544-36.148-24.886-37.905-41.067a267.668 267.668 0 0 0-1.347-10.417c-8.304-56.208 20.897-201.803 20.897-201.803s34.413 7.937 61.625 8.213c24.613-.276 59.029-8.213 59.029-8.213s8.228 16.454 13.711 52.1c5.484 35.648 0 104.201-8.227 153.56-5.043 30.24-19.195 79.521-21.938 112.427-2.742 32.905-8.226 76.78-8.226 87.748 0 10.969 5.482 35.647 8.226 43.874 2.742 8.227-5.482 13.711-16.452 13.711-10.969 0-24.681 0-21.938-10.969 2.742-10.969 2.742-16.452 2.742-30.163 0-13.712-2.742-101.459-2.742-123.396s-2.743-95.875-2.743-93.231c.003-.001-20.033 39.401-44.712 47.626zM356.853 196.683c16.06 12.998 40.738 12.998 40.738 12.998s24.9 1.425 42.617-12.998"/><path fill="none" d="M405.176 785.082c8.869 3.188 24.463 2.295 29.007 0"/><path fill="#FFF" d="M355.621 589.106s5.484-27.423 71.297-63.069c0 0 21.938-13.71 24.679-27.421 2.742-13.711 2.742-41.132 16.453-35.647a30.906 30.906 0 0 0 26.437-1.66c5.8-3.208 12.466-12.305 17.438-14.793 10.968-5.483 35.647-10.968 19.194 13.711-14.349 21.521-35.647 35.647-46.616 46.616-10.968 10.968-85.007 93.232-85.007 93.232"/><path fill="none" d="M355.621 589.106s5.484-27.423 71.297-63.069c0 0 21.938-13.71 24.679-27.421 2.742-13.711 2.742-41.132 16.453-35.647a30.906 30.906 0 0 0 26.437-1.66c5.8-3.208 12.466-12.305 17.438-14.793 10.968-5.483 35.647-10.968 19.194 13.711-14.349 21.521-35.647 35.647-46.616 46.616-10.968 10.968-85.007 93.232-85.007 93.232M400.336 542.032l-.844-48.9M400.336 542.032l-.844-48.9M336.426 271.02l-5.484-13.711M336.426 271.02l-5.484-13.711"/><path fill="#FFF" d="M365.861 73.919c-19.787 41.014 11.447 90.276 29.419 90.512 17.967.238 50.488-48.183 31.79-89.703-11.788-26.174-48.738-26.659-61.209-.809"/><path fill="none" d="M365.861 73.919c-19.787 41.014 11.447 90.276 29.419 90.512 17.967.238 50.488-48.183 31.79-89.703-11.788-26.174-48.738-26.659-61.209-.809z"/><path fill="#040004" d="M511.846 123.304c-15.776-8.666-11.776-19.773-25.771-30.881-14-11.11-31.336-3.607-38.66-21.554-7.254-17.781-30.889-27.933-51.489-27.686h-.063c-20.599-.247-44.233 9.905-51.484 27.686-7.321 17.947-24.663 10.444-38.658 21.554-13.997 11.108-9.999 22.215-25.774 30.881s-17.058 7.865-16.442 14.664c.91 10.034 36.786 6.065 63.688 6.751 5.271.137 24.48 5.474 29.616 6.679 10.506 2.461 23.999 2.11 24.277-1.655.447-5.998-1.479-20.269-5.57-27.574-4.097-7.305-12.549-4.946-12.549-15.663 0-9.999 4.108-6.108 13.545-14.999 8.325-7.838 16.659-16.918 19.386-24.291 2.724 7.372 11.058 16.453 19.381 24.291 9.438 8.891 13.547 5 13.547 14.999 0 10.717-8.454 8.357-12.551 15.663-4.093 7.305-6.016 21.576-5.57 27.574.281 3.765 13.777 4.116 24.28 1.655 5.136-1.205 24.342-6.542 29.62-6.679 26.9-.686 62.773 3.283 63.685-6.751.614-6.799-.669-5.999-16.444-14.664"/><path fill="none" d="M434.183 520.834s15.217 4.43 18.37 20.582"/></g></svg>