<svg width="800" height="900" viewBox="0 0 800 900" fill="none" xmlns="http://www.w3.org/2000/svg">
<path d="M630.936 532.424C616.614 531.284 581.766 536.722 595.068 573.635C603.511 597.067 612.804 632.87 598.784 650.649C584.764 668.428 638.271 673.648 652.766 647.471C667.255 621.288 661.891 588.352 642.472 570.832C623.047 553.31 630.936 532.424 630.936 532.424Z" fill="black" stroke="black" stroke-width="5" stroke-miterlimit="10"/>
<path d="M617.899 436.105L590.777 441.433L598.304 399.496" fill="white"/>
<path d="M617.899 436.105L590.777 441.433L598.304 399.496" stroke="black" stroke-width="5" stroke-miterlimit="10"/>
<path d="M617.899 436.105L590.777 441.433L598.304 399.496" stroke="black" stroke-width="5" stroke-miterlimit="10"/>
<path d="M536.442 469.241C536.442 469.241 534.464 567.233 537.563 587.993C540.662 608.75 563.62 678.748 563.62 678.748C567.008 692.018 564.681 703.205 572.65 718.035C580.616 732.864 582.226 730.945 583.725 728.919C585.225 726.889 587.567 688.138 578.12 677.092C575.007 673.456 574.972 672.699 573.968 670.357L559.69 582.654L576.028 473.94L552.19 450.419L536.442 469.241Z" fill="white" stroke="black" stroke-width="5" stroke-miterlimit="10"/>
<path d="M536.442 469.241C536.442 469.241 534.464 567.233 537.563 587.993C540.662 608.75 563.62 678.748 563.62 678.748C567.008 692.018 564.681 703.205 572.65 718.035C580.616 732.864 582.226 730.945 583.725 728.919C585.225 726.889 587.567 688.138 578.12 677.092C575.007 673.456 574.972 672.699 573.968 670.357L559.69 582.654L576.028 473.94L552.19 450.419L536.442 469.241Z" stroke="black" stroke-width="5" stroke-miterlimit="10"/>
<path d="M598.305 399.493L622.1 304.21L643.921 222.338C645.306 218.125 645.215 214.22 645.096 211.068C644.458 193.908 653.787 174.28 662.104 161.811C663.072 160.356 665.335 160.979 665.407 162.721C665.765 171.166 671.942 176.592 659.039 212.997C659.039 212.997 648.584 287.533 643.438 306.918C638.293 326.304 617.902 436.103 617.902 436.103" fill="white"/>
<path d="M598.305 399.493L622.1 304.21L643.921 222.338C645.306 218.125 645.215 214.22 645.096 211.068C644.458 193.908 653.787 174.28 662.104 161.811C663.072 160.356 665.335 160.979 665.407 162.721C665.765 171.166 671.942 176.592 659.039 212.997C659.039 212.997 648.584 287.533 643.438 306.918C638.293 326.304 617.902 436.103 617.902 436.103" stroke="black" stroke-width="5" stroke-miterlimit="10"/>
<path d="M598.305 399.493L622.1 304.21L643.921 222.338C645.306 218.125 645.215 214.22 645.096 211.068C644.458 193.908 653.787 174.28 662.104 161.811C663.072 160.356 665.335 160.979 665.407 162.721C665.765 171.166 671.942 176.592 659.039 212.997C659.039 212.997 648.584 287.533 643.438 306.918C638.293 326.304 617.902 436.103 617.902 436.103" stroke="black" stroke-width="5" stroke-miterlimit="10"/>
<path d="M401.601 426.528C369.061 407.506 354.689 384.035 322.831 363.879C290.067 343.15 262.266 321.197 230.311 298.845C218.903 290.859 206.615 281.093 192.199 273.946C188.277 271.997 180.801 265.028 175.153 268.37C162.86 275.65 151.197 248.44 144.481 238.909C132.88 222.443 117.52 187.129 153.037 226.88C157.39 231.755 168.672 238.266 174.911 241.572C211.245 260.823 237.69 272.445 274.679 287.097C298.354 296.483 319.488 309.696 342.898 319.138C364.609 327.895 383.209 334.614 407.221 340.371C428.351 345.442 442.527 349.141 460.653 354.674C460.653 354.674 453.748 375.341 453.07 396.713C451.94 432.31 457.51 447.689 457.51 447.689C458.05 449.587 451.777 452.734 451.94 454.955C453.273 472.994 455.242 496.899 453.392 511.739C449.99 539.048 448.65 557.535 443.156 582.667C434.734 621.203 427.202 657.448 430.23 696.648C430.669 702.322 429.947 708.423 435.878 715.718C441.788 722.987 470.116 726.07 484.972 731.41C488.464 732.663 486.877 738.192 483.167 738.267L416.842 739.205C411.155 739.32 406.459 734.823 406.294 729.135C405.352 696.652 406.798 685.451 403.024 632.093C401.263 607.172 401.672 604.788 402.298 582.667C402.814 564.435 402.365 541.444 403.155 523.34C403.958 504.883 394.697 452.49 401.411 426.126" fill="white"/>
<path d="M401.601 426.528C369.061 407.506 354.689 384.035 322.831 363.879C290.067 343.15 262.266 321.197 230.311 298.845C218.903 290.859 206.615 281.093 192.199 273.946C188.277 271.997 180.801 265.028 175.153 268.37C162.86 275.65 151.197 248.44 144.481 238.909C132.88 222.443 117.52 187.129 153.037 226.88C157.39 231.755 168.672 238.266 174.911 241.572C211.245 260.823 237.69 272.445 274.679 287.097C298.354 296.483 319.488 309.696 342.898 319.138C364.609 327.895 383.209 334.614 407.221 340.371C428.351 345.442 442.527 349.141 460.653 354.674C460.653 354.674 453.748 375.341 453.07 396.713C451.94 432.31 457.51 447.689 457.51 447.689C458.05 449.587 451.777 452.734 451.94 454.955C453.273 472.994 455.242 496.899 453.392 511.739C449.99 539.048 448.65 557.535 443.156 582.667C434.734 621.203 427.202 657.448 430.23 696.648C430.669 702.322 429.947 708.423 435.878 715.718C441.788 722.987 470.116 726.07 484.972 731.41C488.464 732.663 486.877 738.192 483.167 738.267L416.842 739.205C411.155 739.32 406.459 734.823 406.294 729.135C405.352 696.652 406.798 685.451 403.024 632.093C401.263 607.172 401.672 604.788 402.298 582.667C402.814 564.435 402.365 541.444 403.155 523.34C403.958 504.883 394.697 452.49 401.411 426.126" stroke="black" stroke-width="5" stroke-miterlimit="10"/>
<path d="M401.601 426.528C369.061 407.506 354.689 384.035 322.831 363.879C290.067 343.15 262.266 321.197 230.311 298.845C218.903 290.859 206.615 281.093 192.199 273.946C188.277 271.997 180.801 265.028 175.153 268.37C162.86 275.65 151.197 248.44 144.481 238.909C132.88 222.443 117.52 187.129 153.037 226.88C157.39 231.755 168.672 238.266 174.911 241.572C211.245 260.823 237.69 272.445 274.679 287.097C298.354 296.483 319.488 309.696 342.898 319.138C364.609 327.895 383.209 334.614 407.221 340.371C428.351 345.442 442.527 349.141 460.653 354.674C460.653 354.674 453.748 375.341 453.07 396.713C451.94 432.31 457.51 447.689 457.51 447.689C458.05 449.587 451.777 452.734 451.94 454.955C453.273 472.994 455.242 496.899 453.392 511.739C449.99 539.048 448.65 557.535 443.156 582.667C434.734 621.203 427.202 657.448 430.23 696.648C430.669 702.322 429.947 708.423 435.878 715.718C441.788 722.987 470.116 726.07 484.972 731.41C488.464 732.663 486.877 738.192 483.167 738.267L416.842 739.205C411.155 739.32 406.459 734.823 406.294 729.135C405.352 696.652 406.798 685.451 403.024 632.093C401.263 607.172 401.672 604.788 402.298 582.667C402.814 564.435 402.365 541.444 403.155 523.34C403.958 504.883 394.697 452.49 401.411 426.126" stroke="black" stroke-width="5" stroke-miterlimit="10"/>
<path d="M453.108 395.761C451.491 420.422 454.687 438.608 457.512 447.691C457.512 447.691 498.636 450.011 536.446 469.244C536.446 469.244 555.987 460.713 573.464 489.174C573.464 489.174 587.339 469.363 622.86 500.724L639.011 498.787L633.8 479.656C633.8 479.656 615.801 470.654 617.899 436.105C617.899 436.105 600.986 420.676 598.303 399.496C598.303 399.496 580.283 388.481 549.77 381.217C519.258 373.952 480.748 362.766 460.655 354.678C460.656 354.678 454.759 370.592 453.108 395.761Z" fill="white" stroke="black" stroke-width="5" stroke-miterlimit="10"/>
<path d="M453.108 395.761C451.491 420.422 454.687 438.608 457.512 447.691C457.512 447.691 498.636 450.011 536.446 469.244C536.446 469.244 555.987 460.713 573.464 489.174C573.464 489.174 587.339 469.363 622.86 500.724L639.011 498.787L633.8 479.656C633.8 479.656 615.801 470.654 617.899 436.105C617.899 436.105 600.986 420.676 598.303 399.496C598.303 399.496 580.283 388.481 549.77 381.217C519.258 373.952 480.748 362.766 460.655 354.678C460.656 354.678 454.759 370.592 453.108 395.761Z" stroke="black" stroke-width="5" stroke-miterlimit="10"/>
<path d="M620.547 503.861C620.6 510.877 626.123 514.633 628.911 521.825C633.337 533.249 652.069 536.228 663.525 528.728C678.651 518.823 647.217 462.509 637.601 466.765C631.905 469.285 624.732 479.442 622.756 492.442C622.116 496.625 620.547 503.861 620.547 503.861Z" fill="white" stroke="black" stroke-width="5" stroke-miterlimit="10"/>
<path d="M620.547 503.861C620.6 510.877 626.123 514.633 628.911 521.825C633.337 533.249 652.069 536.228 663.525 528.728C678.651 518.823 647.217 462.509 637.601 466.765C631.905 469.285 624.732 479.442 622.756 492.442C622.116 496.625 620.547 503.861 620.547 503.861Z" stroke="black" stroke-width="5" stroke-miterlimit="10"/>
<path d="M666.313 518.435C660.46 508.754 643.021 495.178 632.573 505.49C620.831 517.084 621.699 505.56 621.279 502.331C620.859 499.099 624.741 490.3 622.935 490.357C621.129 490.409 607.891 508.555 614.17 523.771C620.446 538.981 629.675 542.554 639.516 542.678C649.356 542.797 661.71 536.496 666.411 527.764C671.113 519.033 666.313 518.435 666.313 518.435Z" fill="black" stroke="black" stroke-width="5" stroke-miterlimit="10"/>
<path d="M617.898 444.662C605.458 430.291 587.225 422.867 574.309 439.334C559.906 457.699 568.665 469.689 580.958 483.709" stroke="black" stroke-width="5" stroke-miterlimit="10"/>
<path d="M206.456 257.59C204.214 262.56 202.293 272.07 201.316 278.939" stroke="black" stroke-width="5" stroke-miterlimit="10"/>
<path d="M405.633 684.07C408.029 686.498 425.675 686.165 429.604 684.07" stroke="black" stroke-width="5" stroke-miterlimit="10"/>
</svg>
