<?xml version="1.0" encoding="utf-8"?>
<!-- Generator: Adobe Illustrator 16.0.0, SVG Export Plug-In . SVG Version: 6.00 Build 0)  -->
<!DOCTYPE svg PUBLIC "-//W3C//DTD SVG 1.1//EN" "http://www.w3.org/Graphics/SVG/1.1/DTD/svg11.dtd">
<svg version="1.1" id="Layer_1" xmlns="http://www.w3.org/2000/svg" xmlns:xlink="http://www.w3.org/1999/xlink" x="0px" y="0px"
	 width="800px" height="900px" viewBox="0 0 800 900" enable-background="new 0 0 800 900" xml:space="preserve">
<g id="SCALE" display="none">
	<path display="inline" fill="#FFFFFF" d="M471.085,313.575c24.377,8.31,43.863,38.452,50.897,64.244
		c7.041,25.801,45.094,113.501,48.095,173.436c3,59.931,0.621,135.749,5.493,144.465c4.871,8.723,44.285,13.999,49.121,20.9
		c4.847,6.901-7.714,14.088-33.289,14.146c-25.575,0.063-36.162,0.583-41.04-15.901c-4.872-16.492-5.271-94.509-9.3-136.272
		c-4.019-41.771-40.597-132.156-46.279-145.04c-5.685-12.88-17.742-21.15-17.742-21.15l-38.617-47.213L471.085,313.575z"/>
	<path display="inline" fill="none" stroke="#000000" stroke-miterlimit="10" d="M471.085,313.575
		c24.377,8.31,43.863,38.452,50.897,64.244c7.041,25.801,45.094,113.501,48.095,173.436c3,59.931,0.621,135.749,5.493,144.465
		c4.871,8.723,44.285,13.999,49.121,20.9c4.847,6.901-7.714,14.088-33.289,14.146c-25.575,0.063-36.162,0.583-41.04-15.901
		c-4.872-16.492-5.271-94.509-9.3-136.272c-4.019-41.771-40.597-132.156-46.279-145.04c-5.685-12.88-17.742-21.15-17.742-21.15
		l-38.617-47.213L471.085,313.575z"/>
	<path display="inline" fill="#FFFFFF" d="M316.646,313.575c-24.38,8.31-43.867,38.452-50.904,64.244
		c-7.034,25.801-45.087,113.501-48.089,173.436c-3,59.931-0.626,135.749-5.498,144.465c-4.872,8.723-44.282,13.999-49.122,20.9
		c-4.84,6.901,7.713,14.088,33.289,14.146c25.576,0.063,36.169,0.583,41.041-15.901c4.876-16.492,5.278-94.509,9.299-136.272
		c4.02-41.771,40.596-132.156,46.28-145.04c5.684-12.88,17.67-21,17.67-21l38.696-47.364L316.646,313.575z"/>
	<path display="inline" fill="none" stroke="#000000" stroke-miterlimit="10" d="M316.646,313.575
		c-24.38,8.31-43.867,38.452-50.904,64.244c-7.034,25.801-45.087,113.501-48.089,173.436c-3,59.931-0.626,135.749-5.498,144.465
		c-4.872,8.723-44.282,13.999-49.122,20.9c-4.84,6.901,7.713,14.088,33.289,14.146c25.576,0.063,36.169,0.583,41.041-15.901
		c4.876-16.492,5.278-94.509,9.299-136.272c4.02-41.771,40.596-132.156,46.28-145.04c5.684-12.88,17.67-21,17.67-21l38.696-47.364
		L316.646,313.575z"/>
	<path display="inline" fill="#FFFFFF" d="M405.271,561.131c43.844-16.845,179.235-40.394,204-9.743
		c24.764,30.651,8.887,56.131-19.894,70.436c-28.782,14.305-99.667,34.709-157.92,27.2c-58.258-7.512-125.444-39.582-125.444-39.582
		l10.961-39.784L405.271,561.131z"/>
	<path display="inline" fill="none" stroke="#000000" stroke-miterlimit="10" d="M405.271,561.131
		c43.844-16.845,179.235-40.394,204-9.743c24.764,30.651,8.887,56.131-19.894,70.436c-28.782,14.305-99.667,34.709-157.92,27.2
		c-58.258-7.512-125.444-39.582-125.444-39.582l10.961-39.784L405.271,561.131z"/>
	<path display="inline" fill="#FFFFFF" d="M313.321,547.902l79.881,21.754l76.012-32.229c0,0-3.749-55.557,7.827-125.03
		l-3.104-14.646c-1.92-9.061-2.891-18.297-2.885-27.561l0.032-56.61c-23.312-9.647-61.339-16.131-77.22-16.131
		c-15.882,0-53.909,6.483-77.219,16.131l0.026,55.139c0.006,10.237-1.063,20.45-3.186,30.474l-2.875,13.357
		C317.81,479.18,313.321,547.902,313.321,547.902"/>
	<path display="inline" fill="none" stroke="#000000" stroke-miterlimit="10" d="M313.321,547.902l79.881,21.754l76.012-32.229
		c0,0-3.749-55.557,7.827-125.03l-3.104-14.646c-1.92-9.061-2.891-18.297-2.885-27.561l0.032-56.61
		c-23.312-9.647-61.339-16.131-77.22-16.131c-15.882,0-53.909,6.483-77.219,16.131l0.026,55.139
		c0.006,10.237-1.063,20.45-3.186,30.474l-2.875,13.357C317.81,479.18,313.321,547.902,313.321,547.902z"/>
	<path display="inline" fill="#FFFFFF" d="M438.421,262.62c-0.257,39.87-27.945,76.021-45.051,75.909
		c-17.106-0.107-44.32-36.616-44.061-76.489C349.57,222.176,438.681,222.756,438.421,262.62"/>
	<path display="inline" fill="none" stroke="#000000" stroke-miterlimit="10" d="M438.421,262.62
		c-0.257,39.87-27.945,76.021-45.051,75.909c-17.106-0.107-44.32-36.616-44.061-76.489
		C349.57,222.176,438.681,222.756,438.421,262.62z"/>
	<path display="inline" fill="none" stroke="#000000" stroke-miterlimit="10" d="M335.536,307.203
		c1.272,46.807,44.875,70.616,58.83,70.616c13.959,0,53.664-24.044,57.867-70.616"/>
	<path display="inline" fill="#FFFFFF" d="M532.186,641.208c-13.189,14.429-45.114,34.879-82.465,32.069
		c-37.349-2.812-50.734-10.193-58.715-10.193c-7.982,0-36.561,6.597-59.019,8.48c-22.453,1.878-57.409-3.756-117.47-51.949
		c-60.062-48.198-35.994-83.356-28.408-95.278c7.588-11.919,60.363-17.038,120.446,0c60.083,17.038,89.514,13.521,127.44,6.756
		c37.923-6.769,53.563-25.411,70.124-30.989c13.267-4.466,26.417,19.742,9.207,31.26c-5.657,3.787-12.816,5.159-21.652,9.331
		c-18.046,8.521-39.737,12.468-50.27,16.175c-15.693,5.527-73.008,24.522-105.078,36.702c0,0,25.009,11.541,64.142,26.562
		c39.663,15.225,62.657,17.999,83.354,19.486C504.526,641.109,532.186,641.208,532.186,641.208"/>
	<path display="inline" fill="none" stroke="#000000" stroke-miterlimit="10" d="M532.186,641.208
		c-13.189,14.429-45.114,34.879-82.465,32.069c-37.349-2.812-50.734-10.193-58.715-10.193c-7.982,0-36.561,6.597-59.019,8.48
		c-22.453,1.878-57.409-3.756-117.47-51.949c-60.062-48.198-35.994-83.356-28.408-95.278c7.588-11.919,60.363-17.038,120.446,0
		c60.083,17.038,89.514,13.521,127.44,6.756c37.923-6.769,53.563-25.411,70.124-30.989c13.267-4.466,26.417,19.742,9.207,31.26
		c-5.657,3.787-12.816,5.159-21.652,9.331c-18.046,8.521-39.737,12.468-50.27,16.175c-15.693,5.527-73.008,24.522-105.078,36.702
		c0,0,25.009,11.541,64.142,26.562c39.663,15.225,62.657,17.999,83.354,19.486C504.526,641.109,532.186,641.208,532.186,641.208z"/>
	<path display="inline" fill="none" stroke="#000000" stroke-miterlimit="10" d="M338.084,593.576c-49.797,6.937-99-7.024-99-7.024"
		/>
	<path display="inline" fill="#FFFFFF" d="M356.326,233.19c-23.433,48.573,13.561,106.925,34.842,107.204
		c21.281,0.278,59.8-57.07,37.653-106.246C414.862,203.149,371.096,202.572,356.326,233.19"/>
	<path display="inline" fill="none" stroke="#000000" stroke-miterlimit="10" d="M356.326,233.19
		c-23.433,48.573,13.561,106.925,34.842,107.204c21.281,0.278,59.8-57.07,37.653-106.246
		C414.862,203.149,371.096,202.572,356.326,233.19z"/>
	<path display="inline" d="M529.227,291.679c-18.687-10.257-13.947-23.42-30.525-36.575c-16.578-13.156-37.117-4.269-45.788-25.521
		c-8.592-21.063-36.582-33.09-60.978-32.798h-0.039h-0.035c-24.394-0.292-52.389,11.735-60.979,32.798
		c-8.676,21.253-29.21,12.365-45.787,25.521c-16.58,13.155-11.841,26.318-30.525,36.575c-18.684,10.263-20.205,9.314-19.474,17.37
		c1.078,11.885,43.565,7.184,75.429,7.999c6.244,0.155,28.99,6.482,35.074,7.903c12.445,2.918,28.428,2.506,28.759-1.956
		c0.525-7.108-1.749-24.003-6.6-32.655c-4.846-8.655-14.858-5.864-14.858-18.557c0-11.837,4.861-7.231,16.041-17.762
		c9.859-9.283,19.728-20.038,22.955-28.77c3.228,8.731,13.1,19.486,22.957,28.77c11.18,10.53,16.041,5.925,16.041,17.762
		c0,12.692-10.013,9.901-14.861,18.557c-4.846,8.652-7.123,25.547-6.598,32.655c0.33,4.462,16.314,4.874,28.758,1.956
		c6.083-1.421,28.83-7.748,35.074-7.903c31.867-0.815,74.354,3.886,75.434-7.999C549.43,300.993,547.907,301.941,529.227,291.679"/>
	<path display="inline" fill="none" stroke="#000000" stroke-miterlimit="10" d="M420.536,533.37
		c4.833,4.218,8.938,22.619,7.393,28.132"/>
</g>
<g id="Wide_Legged_Forward_Fold" display="none">
	<path display="inline" fill="#FFFFFF" d="M317.238,247.301c-15.426,18.965-67.721,99.962-100.268,147.332
		c-32.546,47.364-97.862,147.951-106.346,165.808c-8.488,17.854-25.202,47.191-27.154,55.881
		c-1.956,8.688-3.832,11.641,3.257,18.114c7.087,6.478,46.666,24.239,55.005,26.094c8.346,1.849,20.66,0.944,25.971-1.428
		c5.31-2.373,4.406-11.186-3.503-12.089c-7.91-0.904-39.936-15.571-42.507-29.141c-2.573-13.565,0.922-21.499,14.54-39.111
		c13.617-17.614,75.061-80.533,106.304-112.01c27.188-27.398,51.481-55.107,60.418-62.4c8.941-7.295,17.487-13.971,17.487-13.971
		s8.422-37.755,10.599-50.145c2.178-12.39,8.374-39.768,1.435-57.038c-6.938-17.271-13.729-25.882-14.471-30.171
		C317.262,248.736,317.238,247.301,317.238,247.301"/>
	<path display="inline" fill="none" stroke="#000000" stroke-miterlimit="10" d="M317.238,247.301
		c-15.426,18.965-67.721,99.962-100.268,147.332c-32.546,47.364-97.862,147.951-106.346,165.808
		c-8.488,17.854-25.202,47.191-27.154,55.881c-1.956,8.688-3.832,11.641,3.257,18.114c7.087,6.478,46.666,24.239,55.005,26.094
		c8.346,1.849,20.66,0.944,25.971-1.428c5.31-2.373,4.406-11.186-3.503-12.089c-7.91-0.904-39.936-15.571-42.507-29.141
		c-2.573-13.565,0.922-21.499,14.54-39.111c13.617-17.614,75.061-80.533,106.304-112.01c27.188-27.398,51.481-55.107,60.418-62.4
		c8.941-7.295,17.487-13.971,17.487-13.971s8.422-37.755,10.599-50.145c2.178-12.39,8.374-39.768,1.435-57.038
		c-6.938-17.271-13.729-25.882-14.471-30.171C317.262,248.736,317.238,247.301,317.238,247.301z"/>
	<path display="inline" fill="#FFFFFF" d="M482.762,247.301c15.426,18.965,67.722,99.962,100.269,147.332
		c32.546,47.364,97.862,147.951,106.348,165.808c8.486,17.854,25.2,47.191,27.152,55.881c1.955,8.688,3.831,11.641-3.256,18.114
		c-7.09,6.478-46.667,24.239-55.008,26.094c-8.347,1.849-20.659,0.944-25.972-1.428c-5.31-2.373-4.406-11.186,3.504-12.089
		c7.909-0.904,39.937-15.571,42.507-29.141c2.572-13.565-0.923-21.499-14.54-39.111c-13.617-17.614-75.061-80.533-106.305-112.01
		c-27.188-27.398-51.479-55.107-60.418-62.4c-8.938-7.295-17.486-13.971-17.486-13.971s-8.422-37.755-10.6-50.145
		s-8.373-39.768-1.435-57.038c6.938-17.271,13.729-25.882,14.472-30.171C482.738,248.736,482.762,247.301,482.762,247.301"/>
	<path display="inline" fill="none" stroke="#000000" stroke-miterlimit="10" d="M482.762,247.301
		c15.426,18.965,67.722,99.962,100.269,147.332c32.546,47.364,97.862,147.951,106.348,165.808
		c8.486,17.854,25.2,47.191,27.152,55.881c1.955,8.688,3.831,11.641-3.256,18.114c-7.09,6.478-46.667,24.239-55.008,26.094
		c-8.347,1.849-20.659,0.944-25.972-1.428c-5.31-2.373-4.406-11.186,3.504-12.089c7.909-0.904,39.937-15.571,42.507-29.141
		c2.572-13.565-0.923-21.499-14.54-39.111c-13.617-17.614-75.061-80.533-106.305-112.01c-27.188-27.398-51.479-55.107-60.418-62.4
		c-8.938-7.295-17.486-13.971-17.486-13.971s-8.422-37.755-10.6-50.145s-8.373-39.768-1.435-57.038
		c6.938-17.271,13.729-25.882,14.472-30.171C482.738,248.736,482.762,247.301,482.762,247.301z"/>
	<path display="inline" d="M422.214,549.136c0,8.263-5.933,14.955-13.249,14.955c-7.314,0-13.246-6.692-13.246-14.955
		c0-8.257,5.931-14.953,13.246-14.953C416.281,534.183,422.214,540.879,422.214,549.136"/>
	<path display="inline" fill="#FFFFFF" d="M484.314,412.589c-3.466-19.757-17.211-73.177-19.722-102.567
		c-2.511-29.396,14.031-46.467,17.681-58.155c3.646-11.696-9.071-23.223-22.969-29.682c-13.896-6.461-37.962-8.455-59.24,0
		c-21.28-8.455-45.347-6.461-59.242,0c-13.896,6.458-26.611,17.985-22.967,29.682c3.646,11.688,20.19,28.76,17.681,58.155
		c-2.512,29.39-16.256,82.811-19.722,102.567c0,0,21.073,14.857,21.696,38.07c0.625,23.215-2.714,39.082-2.714,39.082
		s24.23-1.31,33.141,18.758c14.574,32.822,3.218,59.427,3.218,59.427h28.91h28.913c0,0-11.362-26.604,3.211-59.427
		c8.911-20.066,33.146-18.758,33.146-18.758s-3.338-15.867-2.715-39.082C463.243,427.446,484.314,412.589,484.314,412.589"/>
	<path display="inline" fill="none" stroke="#000000" stroke-miterlimit="10" d="M484.314,412.589
		c-3.466-19.757-17.211-73.177-19.722-102.567c-2.511-29.396,14.031-46.467,17.681-58.155c3.646-11.696-9.071-23.223-22.969-29.682
		c-13.896-6.461-37.962-8.455-59.24,0c-21.28-8.455-45.347-6.461-59.242,0c-13.896,6.458-26.611,17.985-22.967,29.682
		c3.646,11.688,20.19,28.76,17.681,58.155c-2.512,29.39-16.256,82.811-19.722,102.567c0,0,21.073,14.857,21.696,38.07
		c0.625,23.215-2.714,39.082-2.714,39.082s24.23-1.31,33.141,18.758c14.574,32.822,3.218,59.427,3.218,59.427h28.91h28.913
		c0,0-11.362-26.604,3.211-59.427c8.911-20.066,33.146-18.758,33.146-18.758s-3.338-15.867-2.715-39.082
		C463.243,427.446,484.314,412.589,484.314,412.589z"/>
	<path display="inline" fill="#FFFFFF" d="M315.815,412.589c-38.182-9.39-123.823-43.896-145.965-38.504
		c-22.145,5.389-26.212,101.649-40.448,129.442c-14.235,27.793-22.792,36.969-23.02,46.19c-0.228,9.227-2.091,10.261,2.301,12.289
		c4.393,2.023,27.288-44.001,33.483-53.709c6.196-9.71,49.377-69.563,55.928-85.747c0,0,45.671,14.839,76.052,28.587
		c30.376,13.749,28.319,29.401,60.651,38.604c0,0,4.021-23.058,2.782-35.33c-1.237-12.275-3.009-22.439-10.238-30.341
		C320.112,416.169,315.815,412.589,315.815,412.589"/>
	<path display="inline" fill="none" stroke="#000000" stroke-miterlimit="10" d="M315.815,412.589
		c-38.182-9.39-123.823-43.896-145.965-38.504c-22.145,5.389-26.212,101.649-40.448,129.442
		c-14.235,27.793-22.792,36.969-23.02,46.19c-0.228,9.227-2.091,10.261,2.301,12.289c4.393,2.023,27.288-44.001,33.483-53.709
		c6.196-9.71,49.377-69.563,55.928-85.747c0,0,45.671,14.839,76.052,28.587c30.376,13.749,28.319,29.401,60.651,38.604
		c0,0,4.021-23.058,2.782-35.33c-1.237-12.275-3.009-22.439-10.238-30.341C320.112,416.169,315.815,412.589,315.815,412.589z"/>
	<path display="inline" fill="#FFFFFF" d="M483.618,412.589c38.181-9.39,123.823-43.896,145.966-38.504
		c22.145,5.389,26.212,101.649,40.447,129.442s22.793,36.969,23.021,46.19c0.229,9.227,2.092,10.261-2.301,12.289
		c-4.394,2.023-27.286-44.001-33.482-53.709c-6.194-9.71-49.377-69.563-55.929-85.747c0,0-45.671,14.839-76.051,28.587
		c-30.377,13.749-27.619,29.401-59.957,38.604c0,0-4.716-23.058-3.477-35.33c1.235-12.275,3.01-22.439,10.237-30.341
		C479.323,416.169,483.618,412.589,483.618,412.589"/>
	<path display="inline" fill="none" stroke="#000000" stroke-miterlimit="10" d="M483.618,412.589
		c38.181-9.39,123.823-43.896,145.966-38.504c22.145,5.389,26.212,101.649,40.447,129.442s22.793,36.969,23.021,46.19
		c0.229,9.227,2.092,10.261-2.301,12.289c-4.394,2.023-27.286-44.001-33.482-53.709c-6.194-9.71-49.377-69.563-55.929-85.747
		c0,0-45.671,14.839-76.051,28.587c-30.377,13.749-27.619,29.401-59.957,38.604c0,0-4.716-23.058-3.477-35.33
		c1.235-12.275,3.01-22.439,10.237-30.341C479.323,416.169,483.618,412.589,483.618,412.589z"/>
	<path display="inline" d="M434.943,579.01c0,21.745-15.615,39.37-34.876,39.37c-19.267,0-34.883-17.625-34.883-39.37
		c0-21.738,15.617-39.367,34.883-39.367C419.328,539.643,434.943,557.271,434.943,579.01"/>
	<path display="inline" d="M362.031,566.146C362.022,566.167,362.039,566.128,362.031,566.146
		C362,566.204,362.039,566.085,362.031,566.146c-0.963,4.58-1.92,9.605-1.505,14.378c1.039,23.645,11.277,77.083,47.436,95.404
		c15.638,7.923,44.41,6.495,74.358,7.032c34.292,0.62,74.358,1.386,91.553-3.158c6.907-1.822,7.807-5.981,6.866-11.501
		c-1.239-7.272-12.698-59.511-69.479-40.588c-17.629,5.873-37.004,8.483-65.668-55.563c-5.604-12.527-21.874-31.343-42.886-32.389
		C388.777,539.07,366.711,546.35,362.031,566.146"/>
	<path display="inline" fill="none" stroke="#000000" stroke-miterlimit="10" d="M348.808,491.846
		c5.115-7.439,27.729-25.093,52.2-25.095c21.086,0,39.65,14.161,48.879,25.095"/>
	<path display="inline" fill="none" stroke="#000000" stroke-miterlimit="10" d="M671.165,588.919
		c7.05,0.611,27.591-9.906,27.591-9.906"/>
	<path display="inline" fill="none" stroke="#000000" stroke-miterlimit="10" d="M128.819,588.942
		c-14.605,0.588-25.512-13.91-25.512-13.91"/>
</g>
<g id="Seated_Forward_Bend" display="none">
	<path display="inline" fill="#FFFFFF" d="M206.517,582.848c12.811-19.932,51.972-60.904,77.002-70.059
		c25.031-9.149,34.768-13.08,42.795-23.686c8.026-10.605-1.884-76.706,0-100.662c1.883-23.953,30.414-48.81,30.414-48.81
		l-22.047-33.55c0,0-23.169,21.936-58.697,48.144c-35.528,26.205-72.134,67.321-103.893,105.542
		c-31.758,38.22-80.972,93.009-80.972,93.009l25.526,47.756L206.517,582.848z"/>
	<path display="inline" fill="none" stroke="#000000" stroke-miterlimit="10" d="M206.517,582.848
		c12.811-19.932,51.972-60.904,77.002-70.059c25.031-9.149,34.768-13.08,42.795-23.686c8.026-10.605-1.884-76.706,0-100.662
		c1.883-23.953,30.414-48.81,30.414-48.81l-22.047-33.55c0,0-23.169,21.936-58.697,48.144
		c-35.528,26.205-72.134,67.321-103.893,105.542c-31.758,38.22-80.972,93.009-80.972,93.009l25.526,47.756L206.517,582.848z"/>
	<path display="inline" fill="#FFFFFF" d="M91.118,552.776c-13.501,17.206-22.569,40.587-20.769,63.635
		c5.249,67.017,85.17,74.508,125.733,74.508c27.619,0,123.478-9.871,165.352-1.838c56.972,10.932,252.782,1.078,344.624,3.548
		c11.867,0.309,24.142-11.23,22.351-22.978c-8.271-54.35,14.76-84.949-11.697-106.938c-4.75-3.947-14.244-4.854-15.832,1.121
		c-2.02,7.834,2.699,17.643,1.783,36.298c-0.529,10.803-10.269,21.488-19.031,35.215c-16.557,15.386-58.969,15.275-68.781,14.437
		c-35.95-3.021-76.645-5.961-107.08-13.188c-85.113-20.255-117.125-22.593-202.049-41.584
		c-66.701-14.918-128.45-7.796-159.718,2.642l60.513-14.804c0,0-45.526-4.991-63.091-10.85
		C125.865,566.149,91.118,552.776,91.118,552.776"/>
	<path display="inline" fill="none" stroke="#000000" stroke-miterlimit="10" d="M91.118,552.776
		c-13.501,17.206-22.569,40.587-20.769,63.635c5.249,67.017,85.17,74.508,125.733,74.508c27.619,0,123.478-9.871,165.352-1.838
		c56.972,10.932,252.782,1.078,344.624,3.548c11.867,0.309,24.142-11.23,22.351-22.978c-8.271-54.35,14.76-84.949-11.697-106.938
		c-4.75-3.947-14.244-4.854-15.832,1.121c-2.02,7.834,2.699,17.643,1.783,36.298c-0.529,10.803-10.269,21.488-19.031,35.215
		c-16.557,15.386-58.969,15.275-68.781,14.437c-35.95-3.021-76.645-5.961-107.08-13.188
		c-85.113-20.255-117.125-22.593-202.049-41.584c-66.701-14.918-128.45-7.796-159.718,2.642l60.513-14.804
		c0,0-45.526-4.991-63.091-10.85C125.865,566.149,91.118,552.776,91.118,552.776z"/>
	<path display="inline" fill="none" stroke="#000000" stroke-miterlimit="10" d="M326.086,393.637c0,0-19.691-21.88-49.961-6.999
		c-37.854,18.615-26.377,93.781,39.442,78.111"/>
	<path display="inline" fill="#FFFFFF" d="M295.862,450.256c0,0,147.759,120.896,178.569,137.484
		c30.804,16.586,147.189,55.815,147.189,55.815c21.106,8.726,33.717,23,61.469,27.17c27.758,4.17,26.805,0.097,25.594-3.927
		c-1.211-4.022-50.612-45.838-74.797-44.251c-7.961,0.521-9.01-0.187-13.133-1.187l-131.359-68.494L326.086,393.64"/>
	<path display="inline" fill="none" stroke="#000000" stroke-miterlimit="10" d="M295.862,450.256
		c0,0,147.759,120.896,178.569,137.484c30.804,16.586,147.189,55.815,147.189,55.815c21.106,8.726,33.717,23,61.469,27.17
		c27.758,4.17,26.805,0.097,25.594-3.927c-1.211-4.022-50.612-45.838-74.797-44.251c-7.961,0.521-9.01-0.187-13.133-1.187
		l-131.359-68.494L326.086,393.64"/>
	<path display="inline" d="M315.994,248.543c-7.55-21.366-37.95-68.172-83.475-25.627c-28.901,27.011-75.373,63.072-110.457,54.111
		c-35.078-8.957-8.281,71.494,39.414,75.818c47.689,4.324,92.499-24.265,105.667-63.356
		C280.313,250.391,315.994,248.543,315.994,248.543"/>
	<path display="inline" fill="#FFFFFF" d="M320.627,312.154c-6.088-10.822-0.907-21.448-2.958-34.944
		c-3.249-21.448,22.898-42.504,47.093-41.06c31.949,1.902,33.22,116.051,14.704,117.979c-10.963,1.145-30.917-8.147-45.398-26.375
		C329.413,321.894,320.627,312.154,320.627,312.154"/>
	<path display="inline" fill="none" stroke="#000000" stroke-miterlimit="10" d="M320.627,312.154
		c-6.088-10.822-0.907-21.448-2.958-34.944c-3.249-21.448,22.898-42.504,47.093-41.06c31.949,1.902,33.22,116.051,14.704,117.979
		c-10.963,1.145-30.917-8.147-45.398-26.375C329.413,321.894,320.627,312.154,320.627,312.154z"/>
	<path display="inline" d="M378.1,249.499c-0.473,20.021-15.313,56.214-40.432,49.572c-28.234-7.478-16.76,9.459-14.563,14.792
		c2.198,5.328,15.903,15.426,13.08,16.935c-2.822,1.501-41.764-13.061-45.511-41.953c-3.744-28.895,3.341-43.911,18.35-52.758
		c15.009-8.848,46.113-10.283,61.022-1.01C384.953,244.354,378.1,249.499,378.1,249.499"/>
	<path display="inline" fill="none" stroke="#000000" stroke-miterlimit="10" d="M271.558,357.561
		c-3.988,9.352,14.041,15.408,24.304,16.414c10.265,1.012,26.029,4.293,30.662,12.544"/>
	<path display="inline" fill="none" stroke="#000000" stroke-miterlimit="10" d="M629.916,649.976
		c4.84,8.628,8.674,30.18,7.465,42.413"/>
</g>
<g id="Dancer" display="none">
	<path display="inline" fill="#FFFFFF" d="M474.891,371.957c0,0,91.967-90.766,107.575-113.587
		c15.61-22.817,56.165-110.986,56.165-110.986c8.622-15.855,20.893-24.566,26.488-46.027c5.598-21.458,2.32-21.05-0.944-20.437
		c-3.264,0.613-40.247,35.934-41.026,55.067c-0.256,6.303-0.896,7.065-2.029,10.226l-64.801,97.482l-109.524,93.869"/>
	<path display="inline" fill="none" stroke="#000000" stroke-miterlimit="10" d="M474.891,371.957
		c0,0,91.967-90.766,107.575-113.587c15.61-22.817,56.165-110.986,56.165-110.986c8.622-15.855,20.893-24.566,26.488-46.027
		c5.598-21.458,2.32-21.05-0.944-20.437c-3.264,0.613-40.247,35.934-41.026,55.067c-0.256,6.303-0.896,7.065-2.029,10.226
		l-64.801,97.482l-109.524,93.869"/>
	<path display="inline" fill="#FFFFFF" d="M295.001,475.453c0,0,15.215,7.686,34.578,12.049c21.932,4.943,39.709,2.477,39.709,2.477
		c-2.444,23.699-9.76,49.104-13.788,76.291c-2.229,15.035-8.253,45.214-13.613,69.89c-8.398,38.684-15.251,125.721-7.441,144.063
		c5.315,12.49,29.76,20.601,55.721,24.492c27.433,4.111,13.243,13.814,6.126,13.957l-81.049,0.6
		c-17.166-0.129-16.528-18.633-15.04-35.436c3.521-39.736-6.97-81.531-9.358-121.434c-1.909-31.923,2.825-57.425,4.254-89.324
		C296.628,538.914,295.001,475.453,295.001,475.453"/>
	<path display="inline" fill="none" stroke="#000000" stroke-miterlimit="10" d="M295.001,475.453c0,0,15.215,7.686,34.578,12.049
		c21.932,4.943,39.709,2.477,39.709,2.477c-2.444,23.699-9.76,49.104-13.788,76.291c-2.229,15.035-8.253,45.214-13.613,69.89
		c-8.398,38.684-15.251,125.721-7.441,144.063c5.315,12.49,29.76,20.601,55.721,24.492c27.433,4.111,13.243,13.814,6.126,13.957
		l-81.049,0.6c-17.166-0.129-16.528-18.633-15.04-35.436c3.521-39.736-6.97-81.531-9.358-121.434
		c-1.909-31.923,2.825-57.425,4.254-89.324C296.628,538.914,295.001,475.453,295.001,475.453z"/>
	<path display="inline" fill="#FFFFFF" d="M487.782,409.742c-13.563,7.851-24.883,15.001-36.897,25.095
		c-13.046,10.961-23.829,24.693-39.141,32.327c-15.076,7.521-26.707,16.474-41.807,22.286l-10.894-87.715
		c10.333-2.386,36.885-13.336,50.899-60.899c8.297-28.163,19.126-46.405,46.862-60.011c38.89-19.068,48.157-44.644,48.324-77.739
		c3.739,9.573,6.919,18.618,9.556,28.854c2.637,10.238,10.681,5.974,12.981,16.452c-15.469,23.063-33.485,56.133-27.831,84.218
		C505.22,359.338,521.592,390.17,487.782,409.742"/>
	<path display="inline" fill="none" stroke="#000000" stroke-miterlimit="10" d="M487.782,409.742
		c-13.563,7.851-24.883,15.001-36.897,25.095c-13.046,10.961-23.829,24.693-39.141,32.327
		c-15.076,7.521-26.707,16.474-41.807,22.286l-10.894-87.715c10.333-2.386,36.885-13.336,50.899-60.899
		c8.297-28.163,19.126-46.405,46.862-60.011c38.89-19.068,48.157-44.644,48.324-77.739c3.739,9.573,6.919,18.618,9.556,28.854
		c2.637,10.238,10.681,5.974,12.981,16.452c-15.469,23.063-33.485,56.133-27.831,84.218
		C505.22,359.338,521.592,390.17,487.782,409.742z"/>
	<path display="inline" fill="none" stroke="#000000" stroke-miterlimit="10" d="M461.15,278.591c0,0,15.21,14.324,26.896,53.297
		c11.688,38.969,19.73,28.247,19.73,28.247"/>
	<path display="inline" fill="none" stroke="#000000" stroke-miterlimit="10" d="M411.746,328.835c0,0,28.941,27.146,56.408,8.569
		c17.891-12.101-11.348-56.577-11.348-56.577"/>
	<path display="inline" fill="#FFFFFF" d="M369.241,489.717c27.243-52.301-10.196-87.981-10.196-87.981
		c-0.949,0.153-1.739,0.227-2.35,0.264c-0.862,0.048-1.705-0.281-2.313-0.899c-16.833-17.04-29.427-20.71-51.195-19.804
		c-14.901,0.618-29.79-1.436-43.87-6.353c-44.072-15.388-76.71-28.679-76.723-28.684c5.704-5.503,12.659-18.149,18.793-34.222
		c7.62-19.96,9.477-33.446,13.253-62.374c2.04-15.614,1.134-29.661,17.072-46.271c2.582-2.689,3.407-6.674,2.016-10.131
		c-12.711-31.626,1.875-48.218-9.236-66.668c-1.787-2.971-6.345-2.258-7.228,1.097c-5.219,19.806-8.915,45.219-11.16,65.588
		c-0.439,3.958-1.403,7.821-2.922,11.501c-7.12,17.219-14.962,34.321-22.067,51.924c-16.078,32.611-36.786,62.474-46.666,84.126
		c-5.584,12.24-1.916,26.687,8.675,34.983c29.126,22.817,81.062,58.002,104.312,73.575c6.588,4.416,13.547,8.197,20.686,11.656
		c22.267,10.781,36.426,26.883,87.525,29.676c4,0.215,8.027,0.056,11.978-0.604C368.234,490.014,368.789,489.893,369.241,489.717"/>
	<path display="inline" fill="none" stroke="#000000" stroke-miterlimit="10" d="M369.241,489.717
		c27.243-52.301-10.196-87.981-10.196-87.981c-0.949,0.153-1.739,0.227-2.35,0.264c-0.862,0.048-1.705-0.281-2.313-0.899
		c-16.833-17.04-29.427-20.71-51.195-19.804c-14.901,0.618-29.79-1.436-43.87-6.353c-44.072-15.388-76.71-28.679-76.723-28.684
		c5.704-5.503,12.659-18.149,18.793-34.222c7.62-19.96,9.477-33.446,13.253-62.374c2.04-15.614,1.134-29.661,17.072-46.271
		c2.582-2.689,3.407-6.674,2.016-10.131c-12.711-31.626,1.875-48.218-9.236-66.668c-1.787-2.971-6.345-2.258-7.228,1.097
		c-5.219,19.806-8.915,45.219-11.16,65.588c-0.439,3.958-1.403,7.821-2.922,11.501c-7.12,17.219-14.962,34.321-22.067,51.924
		c-16.078,32.611-36.786,62.474-46.666,84.126c-5.584,12.24-1.916,26.687,8.675,34.983c29.126,22.817,81.062,58.002,104.312,73.575
		c6.588,4.416,13.547,8.197,20.686,11.656c22.267,10.781,36.426,26.883,87.525,29.676c4,0.215,8.027,0.056,11.978-0.604
		C368.234,490.014,368.789,489.893,369.241,489.717z"/>
	<path display="inline" fill="#FFFFFF" d="M483.376,241.319c-6.104-6.325-4.334-14.52-8.088-23.399
		c-5.962-14.096,8.598-33.172,25.684-36.492c22.559-4.386,43.137,73.534,30.587,78.147c-7.432,2.734-22.921-0.075-36.141-9.972
		C491.167,246.421,483.376,241.319,483.376,241.319"/>
	<path display="inline" fill="none" stroke="#000000" stroke-miterlimit="10" d="M483.376,241.319
		c-6.104-6.325-4.334-14.52-8.088-23.399c-5.962-14.096,8.598-33.172,25.684-36.492c22.559-4.386,43.137,73.534,30.587,78.147
		c-7.432,2.734-22.921-0.075-36.141-9.972C491.167,246.421,483.376,241.319,483.376,241.319z"/>
	<path display="inline" d="M509.495,187.308c4.843,11.833-5.296,27.734-13.263,28.481c-7.969,0.748-13.327,2.171-13.322,4.897
		c0,2.729,1.813,6.689,4.117,6.333c2.303-0.358,6.822-2.981,8.384,1.214c1.561,4.197-1.708,17.042-9.509,22.717
		c-7.792,5.67-21.702,2.071-29.95-10.101c-8.251-12.169-2.574-34.156,7.802-48.058c5.005-6.704,12.438-11.704,19.587-13.58
		C495.133,176.122,504.743,175.698,509.495,187.308"/>
	<path display="inline" d="M461.15,203.295c-3.338,7.746-4.777,17.264-16.441,21.543c-11.667,4.282-17.548-3.237-24.34,1.219
		c-6.788,4.456-16.589,25.281-28.721,28.409c-12.136,3.123-12.971-6.918-26.354-3.726c-11.443,2.729-5.461,24.563-31.444,27.829
		c-12.465,1.567-31.758-80.208-15.015-82.464c16.743-2.261,25.961,9.598,35.086,7.143c9.129-2.452,9.989-16.23,22.49-18.714
		c17.521-3.486,23.366,15.195,36.437,12.494c10.746-2.223,11.061-9.83,23.817-12.042C449.425,182.776,461.15,203.295,461.15,203.295
		"/>
	<path display="inline" fill="#FFFFFF" d="M412.254,329.292c-32.941-27.405-87.914-58.443-103.296-71.219
		c-21.269-17.663-84.449-91.329-84.449-91.329c-12.637-12.88-10.742-1.179-22.01-20.282c-11.267-19.103,1.797-22.664,5.104-22.968
		c3.306-0.304,22.676,9.862,28.667,28.048c1.976,5.986,2.8,6.544,4.755,9.271l89.054,75.979l120.804,48.749"/>
	<path display="inline" fill="none" stroke="#000000" stroke-miterlimit="10" d="M412.254,329.292
		c-32.941-27.405-87.914-58.443-103.296-71.219c-21.269-17.663-84.449-91.329-84.449-91.329
		c-12.637-12.88-10.742-1.179-22.01-20.282c-11.267-19.103,1.797-22.664,5.104-22.968c3.306-0.304,22.676,9.862,28.667,28.048
		c1.976,5.986,2.8,6.544,4.755,9.271l89.054,75.979l120.804,48.749"/>
</g>
<g id="Forearm_Stand" display="none">
	<path display="inline" fill="#FFFFFF" d="M386.835,692.83c2.327,9.777,12.771,18.581,12.771,18.581l-8.97,24.178l-25.012-19.94
		L386.835,692.83z"/>
	<path display="inline" fill="none" stroke="#000000" stroke-miterlimit="10" d="M386.835,692.83
		c2.327,9.777,12.771,18.581,12.771,18.581l-8.97,24.178l-25.012-19.94L386.835,692.83z"/>
	<path display="inline" fill="#FFFFFF" d="M330.568,546.014c12.027,2.059,33.556,5.732,33.556,5.732s2.883,31.597,12.497,53.411
		c9.616,21.813,15.994,72.184,16.917,79.044c0,0-9.312-22.983-29.015-21.979c-22.479,1.151-29.896,32.604-25.759,50.331
		c0,0-11.665-11.863-21.363-16.104c-9.699-4.237-18.924-20.195-17.9-30.924c1.027-10.731,8.152-41.32,6.554-54.136
		c-1.597-12.813-6.941-68.946-6.569-70.686L330.568,546.014z"/>
	<path display="inline" fill="none" stroke="#000000" stroke-miterlimit="10" d="M330.568,546.014
		c12.027,2.059,33.556,5.732,33.556,5.732s2.883,31.597,12.497,53.411c9.616,21.813,15.994,72.184,16.917,79.044
		c0,0-9.312-22.983-29.015-21.979c-22.479,1.151-29.896,32.604-25.759,50.331c0,0-11.665-11.863-21.363-16.104
		c-9.699-4.237-18.924-20.195-17.9-30.924c1.027-10.731,8.152-41.32,6.554-54.136c-1.597-12.813-6.941-68.946-6.569-70.686
		L330.568,546.014z"/>
	<path display="inline" fill="#FFFFFF" d="M396.298,704.423c5.796-6.438,13.977-5.386,22.44-9.746
		c13.446-6.933,33.194,5.654,37.637,21.965c5.867,21.539-69.296,47.833-74.696,36.029c-3.2-6.99-1.507-22.254,7.31-35.885
		C391.823,712.4,396.298,704.423,396.298,704.423"/>
	<path display="inline" fill="none" stroke="#000000" stroke-miterlimit="10" d="M396.298,704.423
		c5.796-6.438,13.977-5.386,22.44-9.746c13.446-6.933,33.194,5.654,37.637,21.965c5.867,21.539-69.296,47.833-74.696,36.029
		c-3.2-6.99-1.507-22.254,7.31-35.885C391.823,712.4,396.298,704.423,396.298,704.423z"/>
	<path display="inline" d="M450.525,728.435c-13.341,4.155-40.568,2.417-41.777-15.666c-1.357-20.327-9.991-8.969-13.023-6.327
		c-3.028,2.643-6.648,13.949-8.274,12.421c-1.623-1.531-0.682-30.517,17.581-39.433c18.259-8.915,29.765-7.583,38.958,0.362
		c9.19,7.946,17.078,28.187,14.27,40.104C455.453,731.82,450.525,728.435,450.525,728.435"/>
	<path display="inline" d="M441.072,686.207c-6.695-6.945-17.148-27.702,8.418-32.488c21.006-3.933,15.668-11.625,30.285-21.952
		c11.756-8.297,28.998,2.979,25.5,32.225c-3.183,26.622-18.422,20.146-35.697,16.841
		C452.305,677.53,441.072,686.207,441.072,686.207"/>
	<line display="inline" fill="none" x1="364.124" y1="551.746" x2="299.486" y2="540.704"/>
	
		<line display="inline" fill="none" stroke="#000000" stroke-miterlimit="10" x1="364.124" y1="551.746" x2="299.486" y2="540.704"/>
	<path display="inline" fill="#FFFFFF" d="M331.803,546.225c10.146,1.735,32.32,5.521,32.32,5.521s-1.202-15.603,2.108-20.85
		c3.313-5.25,17.767-26.528,19.451-44.355c1.687-17.833,1.026-32.449-9.135-55.561c-10.161-23.115-13.316-60.678-7.21-83.874
		c6.107-23.203,16.485-52.431,16.551-81.862c0.063-29.426-0.467-70.127,0.467-82.063c0.93-11.934,2.847-30.482,5.333-34.5
		s8.064,0.077,11.636-3.836c3.574-3.912,0.713-11.907-5.052-24.708c-5.77-12.802-17.402-42.99-20.364-50.893
		c-2.96-7.899-11.443-8.722-10.744-1.298c0.7,7.419,1.574,22.525,1.188,38.455c-0.385,15.925-1.511,48.189-4.153,62.955
		c-2.64,14.759-12.356,54.966-18.633,75.095c-6.273,20.126-31.273,88.691-34.208,104.384c-2.938,15.697-15.809,74.52-17.625,115.705
		c-1.813,41.183,5.753,76.167,5.753,76.167L331.803,546.225z"/>
	<path display="inline" fill="none" stroke="#000000" stroke-miterlimit="10" d="M331.803,546.225
		c10.146,1.735,32.32,5.521,32.32,5.521s-1.202-15.603,2.108-20.85c3.313-5.25,17.767-26.528,19.451-44.355
		c1.687-17.833,1.026-32.449-9.135-55.561c-10.161-23.115-13.316-60.678-7.21-83.874c6.107-23.203,16.485-52.431,16.551-81.862
		c0.063-29.426-0.467-70.127,0.467-82.063c0.93-11.934,2.847-30.482,5.333-34.5s8.064,0.077,11.636-3.836
		c3.574-3.912,0.713-11.907-5.052-24.708c-5.77-12.802-17.402-42.99-20.364-50.893c-2.96-7.899-11.443-8.722-10.744-1.298
		c0.7,7.419,1.574,22.525,1.188,38.455c-0.385,15.925-1.511,48.189-4.153,62.955c-2.64,14.759-12.356,54.966-18.633,75.095
		c-6.273,20.126-31.273,88.691-34.208,104.384c-2.938,15.697-15.809,74.52-17.625,115.705c-1.813,41.183,5.753,76.167,5.753,76.167
		L331.803,546.225z"/>
	<line display="inline" fill="none" x1="387.286" y1="171.246" x2="365.013" y2="162.787"/>
	
		<line display="inline" fill="none" stroke="#000000" stroke-miterlimit="10" x1="387.286" y1="171.246" x2="365.013" y2="162.787"/>
	<path display="inline" fill="#FFFFFF" d="M354.118,665.367c6.426-3.637,16.907-7.518,29.388,3.967c0,0,7.157,7.49,10.032,14.867
		c0,0,0.602,7.14-2.495,17.588c-3.094,10.449-25.956,94.971-25.191,100.373c0.768,5.4,81.336,13.623,94.516,14.522
		c13.182,0.906,14.955,1.849,24.022-3.973c4.535-2.911,14.673-6.779,18.949-4.16c4.277,2.622,3.469,11.886,2.174,16.419
		c-0.69,2.422,0.507,5.441-0.69,7.015c-3.592,4.729-12.121,5.052-17.248,4.639c-6.836-0.554-8.555-3.277-23.959-1.583
		c-15.402,1.698-65.438,2.354-94.516,2.074c-29.075-0.28-34.686-1.237-37.141-7.741c-2.457-6.505,6.258-72,8.036-87.702
		c1.78-15.703-0.346-20.883-1.229-29.116c-0.888-8.234-1.658-22.191,3.914-33.278S354.118,665.367,354.118,665.367"/>
	<path display="inline" fill="none" stroke="#000000" stroke-miterlimit="10" d="M354.118,665.367
		c6.426-3.637,16.907-7.518,29.388,3.967c0,0,7.157,7.49,10.032,14.867c0,0,0.602,7.14-2.495,17.588
		c-3.094,10.449-25.956,94.971-25.191,100.373c0.768,5.4,81.336,13.623,94.516,14.522c13.182,0.906,14.955,1.849,24.022-3.973
		c4.535-2.911,14.673-6.779,18.949-4.16c4.277,2.622,3.469,11.886,2.174,16.419c-0.69,2.422,0.507,5.441-0.69,7.015
		c-3.592,4.729-12.121,5.052-17.248,4.639c-6.836-0.554-8.555-3.277-23.959-1.583c-15.402,1.698-65.438,2.354-94.516,2.074
		c-29.075-0.28-34.686-1.237-37.141-7.741c-2.457-6.505,6.258-72,8.036-87.702c1.78-15.703-0.346-20.883-1.229-29.116
		c-0.888-8.234-1.658-22.191,3.914-33.278S354.118,665.367,354.118,665.367z"/>
</g>
<g id="Handstand">
	<path fill="#FFFFFF" stroke="#000000" stroke-width="5" stroke-miterlimit="10" d="M389.002,610.545
		c2.008,8.428,11.006,16.016,11.006,16.016l-7.729,20.845l-21.563-17.189L389.002,610.545z"/>
	<path fill="none" stroke="#000000" stroke-width="5" stroke-miterlimit="10" d="M389.002,610.545
		c2.008,8.428,11.006,16.016,11.006,16.016l-7.729,20.845l-21.563-17.189L389.002,610.545z"/>
	<line fill="none" stroke="#000000" stroke-width="5" stroke-miterlimit="10" x1="369.424" y1="488.93" x2="313.706" y2="479.411"/>
	<line fill="none" stroke="#000000" stroke-width="5" stroke-miterlimit="10" x1="369.424" y1="488.93" x2="313.706" y2="479.411"/>
	<path fill="#FFFFFF" stroke="#000000" stroke-width="5" stroke-miterlimit="10" d="M340.499,483.99
		c10.369,1.771,28.925,4.938,28.925,4.938s2.485,27.236,10.774,46.04c8.287,18.807,13.786,62.225,14.583,68.137
		c0,0-8.028-19.812-25.015-18.943c-19.376,0.99-25.771,28.102-22.204,43.383c0,0-10.055-10.225-18.413-13.879
		c-8.362-3.656-16.315-17.41-15.433-26.66c0.885-9.25,7.029-35.617,5.649-46.664c-1.376-11.047-5.983-59.431-5.663-60.929
		L340.499,483.99z"/>
	<path fill="none" stroke="#000000" stroke-width="5" stroke-miterlimit="10" d="M340.499,483.99
		c10.369,1.771,28.925,4.938,28.925,4.938s2.485,27.236,10.774,46.04c8.287,18.807,13.786,62.225,14.583,68.137
		c0,0-8.028-19.812-25.015-18.943c-19.376,0.99-25.771,28.102-22.204,43.383c0,0-10.055-10.225-18.413-13.879
		c-8.362-3.656-16.315-17.41-15.433-26.66c0.885-9.25,7.029-35.617,5.649-46.664c-1.376-11.047-5.983-59.431-5.663-60.929
		L340.499,483.99z"/>
	<path fill="#FFFFFF" stroke="#000000" stroke-width="5" stroke-miterlimit="10" d="M341.564,484.172
		c8.744,1.495,27.859,4.758,27.859,4.758s-1.038-13.446,1.819-17.974c2.854-4.524,15.313-22.867,16.767-38.235
		c1.452-15.37,0.883-27.971-7.875-47.892c-8.758-19.925-11.479-52.304-6.213-72.3c5.262-19.999,14.208-45.194,14.266-70.563
		c0.053-25.366-0.403-60.45,0.402-70.739c0.801-10.291,2.453-26.277,4.596-29.741c2.145-3.463,6.95,0.068,10.03-3.305
		c3.081-3.375,0.615-10.264-4.354-21.299c-4.974-11.037-15.001-37.058-17.555-43.87c-2.551-6.809-9.861-7.518-9.261-1.119
		c0.604,6.395,1.357,19.417,1.024,33.148c-0.333,13.727-1.306,41.539-3.581,54.266c-2.274,12.724-10.648,47.381-16.063,64.734
		c-5.409,17.347-26.956,76.45-29.484,89.979c-2.534,13.53-13.629,64.234-15.194,99.738c-1.563,35.5,4.959,65.655,4.959,65.655
		L341.564,484.172z"/>
	<path fill="none" stroke="#000000" stroke-width="5" stroke-miterlimit="10" d="M341.564,484.172
		c8.744,1.495,27.859,4.758,27.859,4.758s-1.038-13.446,1.819-17.974c2.854-4.524,15.313-22.867,16.767-38.235
		c1.452-15.37,0.883-27.971-7.875-47.892c-8.758-19.925-11.479-52.304-6.213-72.3c5.262-19.999,14.208-45.194,14.266-70.563
		c0.053-25.366-0.403-60.45,0.402-70.739c0.801-10.291,2.453-26.277,4.596-29.741c2.145-3.463,6.95,0.068,10.03-3.305
		c3.081-3.375,0.615-10.264-4.354-21.299c-4.974-11.037-15.001-37.058-17.555-43.87c-2.551-6.809-9.861-7.518-9.261-1.119
		c0.604,6.395,1.357,19.417,1.024,33.148c-0.333,13.727-1.306,41.539-3.581,54.266c-2.274,12.724-10.648,47.381-16.063,64.734
		c-5.409,17.347-26.956,76.45-29.484,89.979c-2.534,13.53-13.629,64.234-15.194,99.738c-1.563,35.5,4.959,65.655,4.959,65.655
		L341.564,484.172z"/>
	
		<line fill="none" stroke="#000000" stroke-width="5" stroke-miterlimit="10" x1="389.391" y1="160.936" x2="370.192" y2="153.644"/>
	
		<line fill="none" stroke="#000000" stroke-width="5" stroke-miterlimit="10" x1="389.391" y1="160.936" x2="370.192" y2="153.644"/>
	<path fill="#FFFFFF" stroke="#000000" stroke-width="5" stroke-miterlimit="10" d="M397.159,620.537
		c4.996-5.549,12.046-4.641,19.344-8.4c11.592-5.977,28.614,4.875,32.442,18.937c5.056,18.565-59.732,41.229-64.39,31.057
		c-2.758-6.027-1.3-19.184,6.302-30.936C393.302,627.416,397.159,620.537,397.159,620.537"/>
	<path fill="none" stroke="#000000" stroke-width="5" stroke-miterlimit="10" d="M397.159,620.537
		c4.996-5.549,12.046-4.641,19.344-8.4c11.592-5.977,28.614,4.875,32.442,18.937c5.056,18.565-59.732,41.229-64.39,31.057
		c-2.758-6.027-1.3-19.184,6.302-30.936C393.302,627.416,397.159,620.537,397.159,620.537z"/>
	<path stroke="#000000" stroke-width="5" stroke-miterlimit="10" d="M443.903,641.236c-11.499,3.58-34.972,2.082-36.012-13.504
		c-1.171-17.525-8.612-7.732-11.229-5.453c-2.612,2.272-5.731,12.022-7.131,10.703c-1.401-1.318-0.588-26.302,15.15-33.99
		c15.743-7.685,25.657-6.533,33.583,0.315c7.925,6.847,14.722,24.295,12.302,34.568
		C448.151,644.154,443.903,641.236,443.903,641.236"/>
	<path stroke="#000000" stroke-width="5" stroke-miterlimit="10" d="M435.753,604.836c-5.771-5.986-14.78-23.879,7.259-28.004
		c18.107-3.391,13.504-10.023,26.107-18.922c10.129-7.152,24.995,2.565,21.979,27.776c-2.745,22.947-15.881,17.361-30.771,14.515
		C445.439,597.357,435.753,604.836,435.753,604.836"/>
	<path fill="#FFFFFF" stroke="#000000" stroke-width="5" stroke-miterlimit="10" d="M358.086,587.627
		c8.838-6.641,28.653-4.723,36.242,14.416c0,0,1.315,7.018-2.594,15.43c-3.908,8.41-6.556,8.449-6.275,15.474
		c0.282,7.022,0.452,49.533-0.68,62.957c-1.133,13.42-3.268,33.938-2.862,51.071c0.404,17.134-2.006,67.222-0.584,70.812
		c1.423,3.584,10.081,3.25,13.208,3.697c3.127,0.442,21.26,4.145,26.011,7.58c4.752,3.438-1.78,3.567-6.317,3.426
		c-4.539-0.146-36.426-0.476-42.422-0.662c-6.002-0.189-5.546-8.152-5.957-14.35c-0.41-6.199-4.309-38.836-5.286-46.843
		c-0.977-8.01-6.384-57.35-7.227-82.114c-0.844-24.763-2.385-47.242-3.906-53.601c-1.521-6.354-3.214-9.018-2.49-22.033
		C347.669,599.869,358.086,587.627,358.086,587.627"/>
	<path fill="none" stroke="#000000" stroke-width="5" stroke-miterlimit="10" d="M358.086,587.627
		c8.838-6.641,28.653-4.723,36.242,14.416c0,0,1.315,7.018-2.594,15.43c-3.908,8.41-6.556,8.449-6.275,15.474
		c0.282,7.022,0.452,49.533-0.68,62.957c-1.133,13.42-3.268,33.938-2.862,51.071c0.404,17.134-2.006,67.222-0.584,70.812
		c1.423,3.584,10.081,3.25,13.208,3.697c3.127,0.442,21.26,4.145,26.011,7.58c4.752,3.438-1.78,3.567-6.317,3.426
		c-4.539-0.146-36.426-0.476-42.422-0.662c-6.002-0.189-5.546-8.152-5.957-14.35c-0.41-6.199-4.309-38.836-5.286-46.843
		c-0.977-8.01-6.384-57.35-7.227-82.114c-0.844-24.763-2.385-47.242-3.906-53.601c-1.521-6.354-3.214-9.018-2.49-22.033
		C347.669,599.869,358.086,587.627,358.086,587.627z"/>
</g>
</svg>
