<svg width="800" height="900" fill="none" xmlns="http://www.w3.org/2000/svg"><path d="M186.176 586.593c16.972-20.376 47.522-50.942 47.522-50.942s64.494 16.979 108.622-27.168c44.127-44.15 122.199 37.357 122.199 37.357l98.438 37.357s16.972 33.96 37.34 44.149c0 0-40.735 0-88.256-3.397s-162.932 0-186.694 0c-23.76 0-36.47-5.051-47.522-27.169-10.182-20.375-91.649-10.187-91.649-10.187Z" fill="#fff" stroke="#000" stroke-width="5" stroke-miterlimit="10"/><path d="M186.176 586.593c16.972-20.376 47.522-50.942 47.522-50.942s64.494 16.979 108.622-27.168c44.127-44.15 122.199 37.357 122.199 37.357l98.438 37.357s16.972 33.96 37.34 44.149c0 0-40.735 0-88.256-3.397s-162.932 0-186.694 0c-23.76 0-36.47-5.051-47.522-27.169-10.182-20.375-91.649-10.187-91.649-10.187Z" stroke="#000" stroke-width="5" stroke-miterlimit="10"/><path d="M600.295 627.348c27.155 3.396 95.044 6.791 112.016-30.566 16.972-37.357.298-83.891-40.735-95.091-37.338-10.189-105.227-13.586-132.383-13.586h-64.494s6.789-108.676 6.789-166.41c0-57.734-6.789-84.902-6.789-108.675 0-23.773 13.579-40.753-3.395-40.753s-88.256-6.792-98.439 0c-10.183 6.792-6.828 14.068 33.945 16.98 47.522 3.396 44.128 40.754 44.128 40.754s-54.313 237.727-57.707 275.084c-3.395 37.358 27.157 57.734 67.889 64.526 40.735 6.793 101.834 13.586 101.834 13.586a85.621 85.621 0 0 0 34.771 42.551l2.57 1.6Z" fill="#fff" stroke="#000" stroke-width="5" stroke-miterlimit="10"/><path d="M600.295 627.348c27.155 3.396 95.044 6.791 112.016-30.566 16.972-37.357.298-83.891-40.735-95.091-37.338-10.189-105.227-13.586-132.383-13.586h-64.494s6.789-108.676 6.789-166.41c0-57.734-6.789-84.902-6.789-108.675 0-23.773 13.579-40.753-3.395-40.753s-88.256-6.792-98.439 0c-10.183 6.792-6.828 14.068 33.945 16.98 47.522 3.396 44.128 40.754 44.128 40.754s-54.313 237.727-57.707 275.084c-3.395 37.358 27.157 57.734 67.889 64.526 40.735 6.793 101.834 13.586 101.834 13.586a85.621 85.621 0 0 0 34.771 42.551l2.57 1.6Z" stroke="#000" stroke-width="5" stroke-miterlimit="10"/><path d="M476.118 235.551c-14.994-2.149-21.783-2.149-31.966 1.247" stroke="#000" stroke-width="5" stroke-miterlimit="10"/><path d="M293.942 552.162c-2.545 4.934-10.905 16.808-11.442 22.055-1.279 12.38-1.966 28.309 12.299 38.79 14.26 10.471 38.946-.92 46.639-16.704 7.694-15.775 7.002-21.1 9.872-28.093 2.864-6.988 31.661-58.592 49.83-97.038 18.172-38.451 35.336-97.585 39.945-134.942 4.601-37.358 9.977-77.547 12.238-92.829 2.261-15.283 10.721-62.119 3.981-78.89-6.74-16.765-20.277-15.903-24.854 7.121-4.585 23.019-1.615 48.914-4.796 72.903-3.182 23.982-18.172 90.56-28.356 119.428-10.184 28.866-5.378 28.074-39.607 92.544-34.231 64.467-65.749 95.655-65.749 95.655Z" fill="#fff" stroke="#000" stroke-width="5" stroke-miterlimit="10"/><path d="M293.942 552.162c-2.545 4.934-10.905 16.808-11.442 22.055-1.279 12.38-1.966 28.309 12.299 38.79 14.26 10.471 38.946-.92 46.639-16.704 7.694-15.775 7.002-21.1 9.872-28.093 2.864-6.988 31.661-58.592 49.83-97.038 18.172-38.451 35.336-97.585 39.945-134.942 4.601-37.358 9.977-77.547 12.238-92.829 2.261-15.283 10.721-62.119 3.981-78.89-6.74-16.765-20.277-15.903-24.854 7.121-4.585 23.019-1.615 48.914-4.796 72.903-3.182 23.982-18.172 90.56-28.356 119.428-10.184 28.866-5.378 28.074-39.607 92.544-34.231 64.467-65.749 95.655-65.749 95.655Z" stroke="#000" stroke-width="5" stroke-miterlimit="10"/><path d="M209.269 574.795c-10.436 6.347-19.727 4.564-32.93 7.023-20.973 3.917-42.55-21.1-41.944-44.941.809-31.483 112.988-36.55 115.501-18.41 1.322 9.559-6.932 24.343-21.481 37.397-4.604 4.126-9.119 8.359-13.369 12.841l-5.777 6.09Z" fill="#fff" stroke="#000" stroke-width="5" stroke-miterlimit="10"/><path d="M209.269 574.795c-10.436 6.347-19.727 4.564-32.93 7.023-20.973 3.917-42.55-21.1-41.944-44.941.809-31.483 112.988-36.55 115.501-18.41 1.322 9.559-6.932 24.343-21.481 37.397-4.604 4.126-9.119 8.359-13.369 12.841l-5.777 6.09Z" stroke="#000" stroke-width="5" stroke-miterlimit="10"/><path d="M149.223 518.711c17.609-.048 32.658 21.152 29.479 31.716-3.178 10.563-4.137 18.144-.653 19.557 3.484 1.41 9.48 1.151 10.217-1.976.733-3.124-.265-10.262 5.894-10.079 6.169.183 20.874 11.025 24.072 23.925 3.203 12.902-8.602 28.797-28.421 33.016-19.816 4.228-44.94-14.426-57.307-34.891-5.967-9.869-8.5-21.955-7.177-32.064 2.167-16.661 6.605-29.154 23.896-29.204Z" fill="#000" stroke="#000" stroke-width="5" stroke-miterlimit="10"/><path d="M154.368 746.172c13.68-.464 29.767-6.075 29.181-28.885-.444-17.268-20.48-43.098-21.6-54.24-1.126-11.137 11.811-13.538 14.003-30.525 2.194-16.994-8.512-24.814-15.859-33.829 0 0-32.538 1.267-37.958 18.274-5.42 17.008 3.676 22.229-.454 36.787-5.015 17.704-31.565 12.951-38.46 36.591-4.916 16.863-1.502 31.132 8.556 39.416 16.763 13.804 38.117 17.247 62.591 16.411Z" fill="#000" stroke="#000" stroke-width="5" stroke-miterlimit="10"/><path d="M274.643 592.916c-1.913-24.998 16.253-49.721 30.932-61.136" stroke="#000" stroke-width="5" stroke-miterlimit="10"/></svg>