<svg xmlns="http://www.w3.org/2000/svg" width="800" height="900" xml:space="preserve"><g stroke="#000" stroke-width="5" stroke-miterlimit="10"><path fill="#FFF" d="M343.34 559.043c12.891 2.2 35.959 6.143 35.959 6.143s3.085 33.855 13.394 57.236c10.302 23.377 17.135 77.354 18.13 84.705 0 0-9.98-24.631-31.1-23.552-24.084 1.231-32.035 34.938-27.602 53.935 0 0-12.498-12.712-22.892-17.257-10.398-4.544-20.282-21.641-19.183-33.144 1.096-11.499 8.733-44.279 7.021-58.014-1.709-13.729-7.438-73.879-7.037-75.742l33.31 5.69z"/><path fill="none" d="M343.34 559.043c12.891 2.2 35.959 6.143 35.959 6.143s3.085 33.855 13.394 57.236c10.302 23.377 17.135 77.354 18.13 84.705 0 0-9.98-24.631-31.1-23.552-24.084 1.231-32.035 34.938-27.602 53.935 0 0-12.498-12.712-22.892-17.257-10.398-4.544-20.282-21.641-19.183-33.144 1.096-11.499 8.733-44.279 7.021-58.014-1.709-13.729-7.438-73.879-7.037-75.742l33.31 5.69zM379.299 565.186l-69.268-11.832M379.299 565.186l-69.268-11.832"/><path fill="#FFF" d="M344.664 559.269c10.871 1.859 34.635 5.917 34.635 5.917s-1.29-16.719 2.259-22.344c3.546-5.624 19.038-28.43 20.846-47.534 1.807-19.107 1.101-34.771-9.788-59.54-10.895-24.769-14.271-65.021-7.728-89.882 6.545-24.858 17.664-56.184 17.733-87.719.069-31.537-.497-75.15.5-87.943.999-12.791 3.051-32.669 5.718-36.975 2.664-4.305 8.638.085 12.467-4.108 3.832-4.195.768-12.759-5.415-26.478-6.18-13.718-18.647-46.07-21.819-54.538-3.172-8.465-12.267-9.346-11.519-1.393.749 7.952 1.691 24.14 1.277 41.209-.415 17.067-1.621 51.642-4.454 67.462-2.827 15.82-13.238 58.907-19.965 80.476-6.729 21.569-33.518 95.043-36.661 111.863-3.149 16.82-16.94 79.855-18.885 123.992-1.945 44.133 6.166 81.619 6.166 81.619l34.633 5.916z"/><path fill="none" d="M344.664 559.269c10.871 1.859 34.635 5.917 34.635 5.917s-1.29-16.719 2.259-22.344c3.546-5.624 19.038-28.43 20.846-47.534 1.807-19.107 1.101-34.771-9.788-59.54-10.895-24.769-14.271-65.021-7.728-89.882 6.545-24.858 17.664-56.184 17.733-87.719.069-31.537-.497-75.15.5-87.943.999-12.791 3.051-32.669 5.718-36.975 2.664-4.305 8.638.085 12.467-4.108 3.832-4.195.768-12.759-5.415-26.478-6.18-13.718-18.647-46.07-21.819-54.538-3.172-8.465-12.267-9.346-11.519-1.393.749 7.952 1.691 24.14 1.277 41.209-.415 17.067-1.621 51.642-4.454 67.462-2.827 15.82-13.238 58.907-19.965 80.476-6.729 21.569-33.518 95.043-36.661 111.863-3.149 16.82-16.94 79.855-18.885 123.992-1.945 44.133 6.166 81.619 6.166 81.619l34.633 5.916z"/><path fill="#FFF" d="M430.916 790.34c1.662 9.133-4.589 15.377-6.434 25.415-2.938 15.945-26.545 24.446-43.29 17.526-22.105-9.138 4.837-90.102 18.387-86.949 8.021 1.869 19.86 13.301 25.646 29.711 1.861 5.275 5.691 14.297 5.691 14.297"/><path fill="none" d="M430.916 790.34c1.662 9.133-4.589 15.377-6.434 25.415-2.938 15.945-26.545 24.446-43.29 17.526-22.105-9.138 4.837-90.102 18.387-86.949 8.021 1.869 19.86 13.301 25.646 29.711 1.861 5.275 5.691 14.297 5.691 14.297z"/><path d="M375.027 820.596c5.219-14.033 24.529-35.984 40.655-25.164 18.128 12.166 14.151-2.598 13.899-6.899-.258-4.302-7.475-14.78-5.113-15.153 2.359-.377 26.323 19.41 21.921 40.74-4.397 21.325-13.066 30.21-25.827 32.8-12.765 2.59-35.095-3.983-43.36-14.17-8.272-10.191-2.175-12.154-2.175-12.154"/><path fill="#FFF" d="M371.034 686.945c6.889-3.896 18.12-8.059 31.493 4.248 0 0 7.669 8.028 10.754 15.934 0 0 .642 7.652-2.674 18.849-3.318 11.198-54.877 89.475-54.062 95.26.822 5.791 77.319 14.599 91.446 15.565 14.123.969 16.024 1.979 25.741-4.26 9.721-6.236 23.767 3.095 22.638 13.138-1.13 10.048-11.897 13.079-19.225 12.483-7.324-.591-9.165-3.508-25.676-1.691-16.506 1.816-70.126 2.523-101.282 2.222-31.161-.3-37.171-1.326-39.804-8.294-2.631-6.974 3.188-39.022 13.533-71.843 5.091-16.149 28.889-64.825 34.859-76.704 5.974-11.884 12.259-14.907 12.259-14.907"/><path fill="none" d="M371.034 686.945c6.889-3.896 18.12-8.059 31.493 4.248 0 0 7.669 8.028 10.754 15.934 0 0 .642 7.652-2.674 18.849-3.318 11.198-54.877 89.475-54.062 95.26.822 5.791 77.319 14.599 91.446 15.565 14.123.969 16.024 1.979 25.741-4.26 9.721-6.236 23.767 3.095 22.638 13.138-1.13 10.048-11.897 13.079-19.225 12.483-7.324-.591-9.165-3.508-25.676-1.691-16.506 1.816-70.126 2.523-101.282 2.222-31.161-.3-37.171-1.326-39.804-8.294-2.631-6.974 3.188-39.022 13.533-71.843 5.091-16.149 28.889-64.825 34.859-76.704 5.974-11.884 12.259-14.907 12.259-14.907z"/><path fill="#FFF" d="M402.652 183.545c-9.13-5.536-27.317-8.926-27.317-8.926"/><path fill="none" d="M402.652 183.545c-9.13-5.536-27.317-8.926-27.317-8.926"/></g></svg>