<svg width="800" height="900" fill="none" xmlns="http://www.w3.org/2000/svg"><path d="m457.266 554.156 38.266 48.807s34.786 19.982 37.988 32.792c3.202 12.809-9.607 6.405-9.607 6.405l-64.048-60.845-2.599-27.159Z" fill="#fff" stroke="#000" stroke-width="5" stroke-miterlimit="10"/><path d="m457.266 554.156 38.266 48.807s34.786 19.982 37.988 32.792c3.202 12.809-9.607 6.405-9.607 6.405l-64.048-60.845-2.599-27.159Z" stroke="#000" stroke-width="5" stroke-miterlimit="10"/><path d="M460.195 581.905c-3.821-21.01-5.751-72.532-1-99.764 1.967-11.302 23.623-51.195 3.872-83.359-23.059-37.549-58.01-97.754-42.36-122.938 11.359-18.27-33.091-31.755-33.091-31.755s7.071 45.365-3.139 63.779c-10.204 18.414-36.328 39.498-36.073 78.996.25 39.492 9.056 73.117 10.391 103.54 1.332 30.422-10.117 83.055-14.217 94.117l51.238 54.44 64.379-57.056Z" fill="#fff" stroke="#000" stroke-width="5" stroke-miterlimit="10"/><path d="M460.195 581.905c-3.821-21.01-5.751-72.532-1-99.764 1.967-11.302 23.623-51.195 3.872-83.359-23.059-37.549-58.01-97.754-42.36-122.938 11.359-18.27-33.091-31.755-33.091-31.755s7.071 45.365-3.139 63.779c-10.204 18.414-36.328 39.498-36.073 78.996.25 39.492 9.056 73.117 10.391 103.54 1.332 30.422-10.117 83.055-14.217 94.117l51.238 54.44 64.379-57.056Z" stroke="#000" stroke-width="5" stroke-miterlimit="10"/><path d="M351.641 430.453c19.522 12.408 45.203 21.628 64.779 2.054 0 0 23.955-29.39 10.924-57.158-16.997-36.202-64.62-36.202-64.62-36.202" stroke="#000" stroke-width="5" stroke-miterlimit="10"/><path d="M368.621 330.39s47.952 6.032 61.952 32.987c5.215 10.032 16.482 19.389 22.886 16.187" stroke="#000" stroke-width="5" stroke-miterlimit="10"/><path d="M377.529 195.421c-5.509-20.433-30.485-66.179-75.904-29.8-28.831 23.096-74.671 53.368-106.695 42.529-32.03-10.835-12.793 65.98 31.304 73.398 44.099 7.418 87.853-16.012 102.896-51.478 15.043-35.465 48.399-34.649 48.399-34.649Z" fill="#100200" stroke="#000" stroke-width="5" stroke-miterlimit="10"/><path d="M387.019 267.362c-6.887-9.325-3.309-19.771-6.755-32.049-5.478-19.498 16.336-42.018 38.923-43.461 29.826-1.903 44.117 103.741 27.182 107.653-10.031 2.314-29.591-4.003-45.103-19.23-4.991-4.895-14.247-12.913-14.247-12.913Z" fill="#fff" stroke="#000" stroke-width="5" stroke-miterlimit="10"/><path d="M387.019 267.362c-6.887-9.325-3.309-19.771-6.755-32.049-5.478-19.498 16.336-42.018 38.923-43.461 29.826-1.903 44.117 103.741 27.182 107.653-10.031 2.314-29.591-4.003-45.103-19.23-4.991-4.895-14.247-12.913-14.247-12.913Z" stroke="#000" stroke-width="5" stroke-miterlimit="10"/><path d="M433.079 202.692c1.865 18.611-7.735 53.859-31.774 50.585-27.03-3.681-14.452 10.695-11.8 15.38 2.651 4.684 16.512 12.475 14.07 14.191-2.443 1.721-40.209-7.305-46.995-33.649-6.788-26.345-1.952-41.078 10.943-50.999 12.892-9.925 41.556-14.827 56.436-7.942 14.879 6.882 9.12 12.434 9.12 12.434Z" fill="#100200" stroke="#000" stroke-width="5" stroke-miterlimit="10"/><path d="M350.985 555.695c22.679-45.346 97.161 27.037 108.881 25.618 22.417 6.405 144.107 108.882 156.916 131.298 7.948 13.903 3.203 16.011 0 22.416-3.202 6.404-6.404 12.809-51.237 12.809-44.834 0-128.096-28.82-144.107-38.429-16.011-9.608-35.226-9.607-41.631-9.607-6.405 0-12.81 12.81-12.81 12.81s-6.405 12.81 0 19.215c6.405 6.404 3.202 6.404 3.202 6.404s-25.618 3.202-28.82-3.202c-3.202-6.405-3.202-9.607-3.202-19.215s6.405-12.81 6.405-22.416 0-16.011 3.202-22.416c3.202-6.405 16.011 0 16.011 0l35.227 9.607c-12.81-3.202-22.417-6.405-22.417-6.405-11.117-3.702-19.127-5.332-25.619-9.607 0 0-22.416-19.214-22.416-44.833s9.607-41.631 9.607-41.631 9.606-16.012 12.808-22.416Z" fill="#fff" stroke="#000" stroke-width="5" stroke-miterlimit="10"/><path d="M350.985 555.695c22.679-45.346 97.161 27.037 108.881 25.618 22.417 6.405 144.107 108.882 156.916 131.298 7.948 13.903 3.203 16.011 0 22.416-3.202 6.404-6.404 12.809-51.237 12.809-44.834 0-128.096-28.82-144.107-38.429-16.011-9.608-35.226-9.607-41.631-9.607-6.405 0-12.81 12.81-12.81 12.81s-6.405 12.81 0 19.215c6.405 6.404 3.202 6.404 3.202 6.404s-25.618 3.202-28.82-3.202c-3.202-6.405-3.202-9.607-3.202-19.215s6.405-12.81 6.405-22.416 0-16.011 3.202-22.416c3.202-6.405 16.011 0 16.011 0l35.227 9.607c-12.81-3.202-22.417-6.405-22.417-6.405-11.117-3.702-19.127-5.332-25.619-9.607 0 0-22.416-19.214-22.416-44.833s9.607-41.631 9.607-41.631 9.606-16.012 12.808-22.416Z" stroke="#000" stroke-width="5" stroke-miterlimit="10"/><path d="M552.734 728.624s-43.225-27.784-102.388-34.858a58.347 58.347 0 0 1-6.536-1.138c-10.703-2.555-44.353-10.696-47.474-12.773" stroke="#000" stroke-width="5" stroke-miterlimit="10"/><path d="M366.996 344.338s-11.502 2.555-15.356 18.888c-3.54 15.005-14.633 70.24 23.259 148.603 6.423 13.285 15.527 25.073 26.547 34.883 22.112 19.685 61.208 55.259 68.027 66.625 9.607 16.011 48.034 35.225 54.439 38.428 6.405 3.202 12.81-3.202 9.607-9.607-3.203-6.405-48.035-51.238-54.439-51.238-5.664 0-33.859-35.46-55.81-65.824-5.505-7.612-8.98-16.466-10.169-25.785-2.978-23.235-8.576-69.257-10.878-103.736" fill="#fff"/><path d="M366.996 344.338s-11.502 2.555-15.356 18.888c-3.54 15.005-14.633 70.24 23.259 148.603 6.423 13.285 15.527 25.073 26.547 34.883 22.112 19.685 61.208 55.259 68.027 66.625 9.607 16.011 48.034 35.225 54.439 38.428 6.405 3.202 12.81-3.202 9.607-9.607-3.203-6.405-48.035-51.238-54.439-51.238-5.664 0-33.859-35.46-55.81-65.824-5.505-7.612-8.98-16.466-10.169-25.785-2.978-23.235-8.576-69.257-10.878-103.736" stroke="#000" stroke-width="5" stroke-miterlimit="10"/><path d="M366.996 344.338c-6.674 3.171-10.726 9.338-12.854 15.867-1.933 6.681-3.183 13.967-3.999 21.06a194.676 194.676 0 0 0 .172 43.163c3.176 28.734 12.166 56.611 24.371 82.792 5.729 13.216 14.163 25.041 24.483 34.989 10.641 9.706 21.633 19.408 32.257 29.315 10.65 9.93 21.275 19.883 31.263 30.605 2.492 2.705 4.926 5.442 7.158 8.537l3.055 4.397c1.146 1.308 2.218 2.671 3.506 3.878 5.025 4.96 10.858 9.233 16.838 13.223 6 3.978 12.221 7.668 18.557 11.151a366.65 366.65 0 0 0 9.582 5.08c1.55.753 3.397 1.823 4.571 2.138 1.326.348 2.721.226 3.885-.437 2.414-1.309 3.346-4.448 2.031-6.99-.597-1.143-1.872-2.652-2.971-3.976a148.171 148.171 0 0 0-3.561-4.037c-4.863-5.326-9.949-10.502-15.096-15.596-5.154-5.088-10.408-10.083-15.787-14.907-2.696-2.405-5.422-4.769-8.218-6.996a68.833 68.833 0 0 0-4.242-3.156 23.52 23.52 0 0 0-2.12-1.254c-.238-.078-.748-.343-.732-.276a.152.152 0 0 1-.062-.037l-.602-.082a3.457 3.457 0 0 1-1.079-.318c-2.261-1.038-3.489-2.302-4.97-3.553a86.702 86.702 0 0 1-3.993-3.903c-2.564-2.652-4.998-5.388-7.399-8.149-4.792-5.53-9.387-11.19-13.923-16.898a932.856 932.856 0 0 1-26.245-35.002c-4.241-6.211-7.224-13.26-8.775-20.603-.8-3.715-1.094-7.36-1.579-10.946l-1.317-10.83c-3.426-28.899-6.618-57.826-8.576-86.904l-.106-1.595 3.184-.212.118 1.598c2.076 28.946 5.391 57.839 8.937 86.679l1.361 10.813c.504 3.616.822 7.232 1.578 10.624a53.944 53.944 0 0 0 8.288 19.242 965.822 965.822 0 0 0 26.225 34.682c4.501 5.685 9.066 11.321 13.793 16.788 2.359 2.727 4.756 5.432 7.241 8.006a83.153 83.153 0 0 0 3.797 3.725c1.251 1.116 2.74 2.383 3.817 2.836.134.069.245.111.211.081.029.003-.052.016.069.037l.607.084c.938.139 1.214.405 1.829.623.932.475 1.773.992 2.574 1.519a73.544 73.544 0 0 1 4.501 3.353c2.89 2.308 5.651 4.71 8.375 7.156 5.442 4.892 10.717 9.926 15.906 15.061 5.179 5.139 10.28 10.349 15.211 15.768a152.535 152.535 0 0 1 3.65 4.141c1.187 1.489 2.371 2.718 3.484 4.785.967 1.977 1.26 4.426.601 6.649-.612 2.245-2.227 4.114-4.215 5.252-2.007 1.146-4.503 1.364-6.674.776-2.312-.726-3.584-1.626-5.305-2.432a371.302 371.302 0 0 1-9.674-5.149c-6.398-3.533-12.696-7.274-18.807-11.335-6.09-4.088-12.053-8.447-17.385-13.714-1.353-1.283-2.549-2.783-3.787-4.215l-3.162-4.56c-2.017-2.802-4.409-5.523-6.846-8.166-9.816-10.574-20.417-20.543-31.016-30.453-10.633-9.942-21.435-19.499-32.262-29.406-10.598-10.228-19.339-22.567-25.16-36.052-12.294-26.476-21.362-54.709-24.539-83.88a197.628 197.628 0 0 1-.111-43.896c.441-3.646.967-7.28 1.637-10.892.729-3.611 1.363-7.177 2.642-10.811 1.264-3.577 3.288-6.948 5.974-9.663 2.711-2.653 6.139-4.692 9.81-5.192Z" fill="#100200" stroke="#000" stroke-miterlimit="10"/></svg>