<svg width="800" height="900" fill="none" xmlns="http://www.w3.org/2000/svg"><path d="M349.89 355.807c-15.166 4.802-41.063 10.35-57.713 55.458-16.644 45.1-43.686 96.161-63.292 125.739-19.608 29.576-33.672 107.976-57.72 129.787-24.044 21.81-75.757 17.473-72.15 32.447 3.608 14.971 51.024 3.605 68.542 3.605 14.43 0 19.525-14.569 28.86-25.237 25.251-28.84 62.341-111.319 67.646-128.998 5.521-18.385 66.14-107.353 79.131-120.5 12.988-13.146 30.187-47.529 30.187-47.529l-23.491-24.772Z" fill="#fff" stroke="#000" stroke-width="5" stroke-miterlimit="10"/><path d="M349.89 355.807c-15.166 4.802-41.063 10.35-57.713 55.458-16.644 45.1-43.686 96.161-63.292 125.739-19.608 29.576-33.672 107.976-57.72 129.787-24.044 21.81-75.757 17.473-72.15 32.447 3.608 14.971 51.024 3.605 68.542 3.605 14.43 0 19.525-14.569 28.86-25.237 25.251-28.84 62.341-111.319 67.646-128.998 5.521-18.385 66.14-107.353 79.131-120.5 12.988-13.146 30.187-47.529 30.187-47.529l-23.491-24.772Z" stroke="#000" stroke-width="5" stroke-miterlimit="10"/><path d="M494.645 428.125c-13.31-38.825-6.708-72.319-6.708-72.319s-15.331-4.074-33.115-17.921c-17.752-13.878-13.313-60.638-13.313-60.638s-.903.18-22.549.18c-21.645 0-22.798-.18-22.798-.18s4.654 46.759-13.096 60.638c-17.749 13.847-33.116 17.921-33.116 17.921s6.637 33.492-6.711 72.319c0 0 12.446 82.237-4.184 152.106 0 0 34.956 13.844 79.905 13.844s79.904-13.844 79.904-13.844c-16.661-69.869-4.219-152.106-4.219-152.106Z" fill="#fff" stroke="#000" stroke-width="5" stroke-miterlimit="10"/><path d="M494.645 428.125c-13.31-38.825-6.708-72.319-6.708-72.319s-15.331-4.074-33.115-17.921c-17.752-13.878-13.313-60.638-13.313-60.638s-.903.18-22.549.18c-21.645 0-22.798-.18-22.798-.18s4.654 46.759-13.096 60.638c-17.749 13.847-33.116 17.921-33.116 17.921s6.637 33.492-6.711 72.319c0 0 12.446 82.237-4.184 152.106 0 0 34.956 13.844 79.905 13.844s79.904-13.844 79.904-13.844c-16.661-69.869-4.219-152.106-4.219-152.106Z" stroke="#000" stroke-width="5" stroke-miterlimit="10"/><path d="M367.641 348.406s19.271 28.99 51.583 28.99c32.313 0 51.585-28.99 51.585-28.99" stroke="#000" stroke-width="5" stroke-miterlimit="10"/><path d="M449.252 263.635c7.47-11.371 2.604-23.37 5.857-37.971 5.16-23.191-21.856-48.16-48.417-48.396-35.077-.313-45.022 124.334-24.925 127.826 11.906 2.07 34.419-6.587 51.624-25.42 5.529-6.058 15.861-16.039 15.861-16.039Z" fill="#fff" stroke="#000" stroke-width="5" stroke-miterlimit="10"/><path d="M449.252 263.635c7.47-11.371 2.604-23.37 5.857-37.971 5.16-23.191-21.856-48.16-48.417-48.396-35.077-.313-45.022 124.334-24.925 127.826 11.906 2.07 34.419-6.587 51.624-25.42 5.529-6.058 15.861-16.039 15.861-16.039Z" stroke="#000" stroke-width="5" stroke-miterlimit="10"/><path d="M391.108 190.858c-.981 21.92 12.533 62.581 40.494 57.197 31.436-6.052 17.623 11.598 14.816 17.255-2.803 5.662-18.547 15.671-15.574 17.527 2.976 1.855 46.651-11.147 52.906-42.435 6.257-31.295-.358-48.234-16.106-59.024-15.748-10.795-49.652-14.688-66.649-5.669-16.997 9.019-9.887 15.149-9.887 15.149Z" fill="#100200" stroke="#000" stroke-width="5" stroke-miterlimit="10"/><path d="M467.905 196.442c-3.681-14.7-1.667-51.135 36.913-37.648 31.694 11.083 30.438-3.566 58.449-6.182 22.511-2.105 37.174 26.736 9.507 63.823-25.177 33.754-40.87 13.006-61.817-5.006-20.951-18.011-43.052-14.987-43.052-14.987Z" fill="#100200" stroke="#000" stroke-width="5" stroke-miterlimit="10"/><path d="m436.418 704.659 182.072-34.262s28.86-14.422 36.076-21.631c7.215-7.21-14.431-18.027-14.431-18.027l-137.083 18.027" fill="#fff"/><path d="m436.418 704.659 182.072-34.262s28.86-14.422 36.076-21.631c7.215-7.21-14.431-18.027-14.431-18.027l-137.083 18.027" stroke="#000" stroke-width="5" stroke-miterlimit="10"/><path d="m436.418 704.659 182.072-34.262s28.86-14.422 36.076-21.631c7.215-7.21-14.431-18.027-14.431-18.027l-137.083 18.027" stroke="#000" stroke-width="5" stroke-miterlimit="10"/><path d="M649.153 650.566s-12.842-3.675-21.498-14.928c-.866-1.116-1.697-2.267-2.455-3.531-2.305-3.893-4.111-8.509-4.907-13.987-.612-4.327-1.226-11.034-1.909-19.181-3.139-39.225-7.179-112.48-16.128-121.422-10.823-10.816-32.469-50.472-86.58 7.209-54.111 57.684-101.007 97.342-101.007 97.342l-75.758-3.605s-36.075 118.972 54.113 133.392c15.477 2.486 30.52-.795 44.842-7.898h.035c36.762-18.241 68.721-61.826 90.514-98.6 19.189-32.302 28.746-53.933 28.746-53.933-1.18 3.255 3.439 28.771 15.479 49.642 8.317 14.422 12.153 31.908 20.849 43.805a49.17 49.17 0 0 0 1.551 2.091s.112.105.327.323c1.371 1.549 6.887 8.257 6.887 17.703 0 10.815 57.72 10.815 68.542 7.21 10.822-3.606 7.217-14.42-21.643-21.632Z" fill="#fff" stroke="#000" stroke-width="5" stroke-miterlimit="10"/><path d="M649.153 650.566s-12.842-3.675-21.498-14.928c-.866-1.116-1.697-2.267-2.455-3.531-2.305-3.893-4.111-8.509-4.907-13.987-.612-4.327-1.226-11.034-1.909-19.181-3.139-39.225-7.179-112.48-16.128-121.422-10.823-10.816-32.469-50.472-86.58 7.209-54.111 57.684-101.007 97.342-101.007 97.342l-75.758-3.605s-36.075 118.972 54.113 133.392c15.477 2.486 30.52-.795 44.842-7.898h.035c36.762-18.241 68.721-61.826 90.514-98.6 19.189-32.302 28.746-53.933 28.746-53.933-1.18 3.255 3.439 28.771 15.479 49.642 8.317 14.422 12.153 31.908 20.849 43.805a49.17 49.17 0 0 0 1.551 2.091s.112.105.327.323c1.371 1.549 6.887 8.257 6.887 17.703 0 10.815 57.72 10.815 68.542 7.21 10.822-3.606 7.217-14.42-21.643-21.632Z" stroke="#000" stroke-width="5" stroke-miterlimit="10"/><path d="M437.902 703.959c36.762-18.241 68.722-61.826 90.515-98.6 12.443-1.443 27.845-3.028 44.227-4.293 14.969-1.116 30.734-1.982 45.742-2.125 33.911-.395 63.961 2.704 72.256 13.772 21.645 28.841 14.43 61.288-64.935 86.525-79.364 25.236-137.083 28.841-137.083 28.841s-3.606 0-10.822 10.815c-7.215 10.816-36.074 14.423-28.858-7.209 7.212-21.631 3.605-32.447 25.25-36.052 21.645-3.604 50.504-28.841 64.935-21.632 7.578 3.785 23.198-9.158 42.571-21.81 0 0 33.186-21.452 51.224-17.847" fill="#fff"/><path d="M437.902 703.959c36.762-18.241 68.722-61.826 90.515-98.6 12.443-1.443 27.845-3.028 44.227-4.293 14.969-1.116 30.734-1.982 45.742-2.125 33.911-.395 63.961 2.704 72.256 13.772 21.645 28.841 14.43 61.288-64.935 86.525-79.364 25.236-137.083 28.841-137.083 28.841s-3.606 0-10.822 10.815c-7.215 10.816-36.074 14.423-28.858-7.209 7.212-21.631 3.605-32.447 25.25-36.052 21.645-3.604 50.504-28.841 64.935-21.632 7.578 3.785 23.198-9.158 42.571-21.81 0 0 33.186-21.452 51.224-17.847" stroke="#000" stroke-width="5" stroke-miterlimit="10"/><path d="M437.902 703.959c36.762-18.241 68.722-61.826 90.515-98.6 12.443-1.443 27.845-3.028 44.227-4.293 14.969-1.116 30.734-1.982 45.742-2.125 33.911-.395 63.961 2.704 72.256 13.772 21.645 28.841 14.43 61.288-64.935 86.525-79.364 25.236-137.083 28.841-137.083 28.841s-3.606 0-10.822 10.815c-7.215 10.816-36.074 14.423-28.858-7.209 7.212-21.631 3.605-32.447 25.25-36.052 21.645-3.604 50.504-28.841 64.935-21.632 7.578 3.785 23.198-9.158 42.571-21.81 0 0 33.186-21.452 51.224-17.847" stroke="#000" stroke-width="5" stroke-miterlimit="10"/><path d="M654.565 299.059c-2.274 18.241-3.606 36.053-3.606 36.053s-10.824 155.024-25.254 191.076c-6.165 15.462-15.69 20.984-24.526 22.243-11.152 1.589-22.187-3.714-28.86-12.832-20.348-27.911-66.164-95.867-77.673-107.47-13.31-38.83-6.708-72.322-6.708-72.322 15.188 4.795 41.054 10.344 57.72 55.444 16.628 45.107 27.958 56.536 47.581 86.095 0 0 28.859-155.023 25.252-165.839-2.315-6.943-5.263-24.285-4.495-35.812.648-9.76 2.871-19.378 7.012-28.236 17.724-38.004 37.164 2.759 33.557 31.6Z" fill="#fff" stroke="#000" stroke-width="5" stroke-miterlimit="10"/><path d="M654.565 299.059c-2.274 18.241-3.606 36.053-3.606 36.053s-10.824 155.024-25.254 191.076c-6.165 15.462-15.69 20.984-24.526 22.243-11.152 1.589-22.187-3.714-28.86-12.832-20.348-27.911-66.164-95.867-77.673-107.47-13.31-38.83-6.708-72.322-6.708-72.322 15.188 4.795 41.054 10.344 57.72 55.444 16.628 45.107 27.958 56.536 47.581 86.095 0 0 28.859-155.023 25.252-165.839-2.315-6.943-5.263-24.285-4.495-35.812.648-9.76 2.871-19.378 7.012-28.236 17.724-38.004 37.164 2.759 33.557 31.6ZM412.867 583.871l-25.254 25.237" stroke="#000" stroke-width="5" stroke-miterlimit="10"/><path d="m412.867 583.871-25.254 25.237" stroke="#000" stroke-width="5" stroke-miterlimit="10" stroke-linecap="square"/><path d="M558.523 667.699s-8.846 27.989 7.525 47.79Z" fill="#fff"/><path d="M558.523 667.699s-8.846 27.989 7.525 47.79" stroke="#000" stroke-width="5" stroke-miterlimit="10"/><path d="M558.523 667.699s-8.846 27.989 7.525 47.79" stroke="#000" stroke-width="5" stroke-miterlimit="10"/></svg>