<svg width="800" height="900" fill="none" xmlns="http://www.w3.org/2000/svg"><path d="M144.872 647.672c2.53 5.061 7.086 8.604 11.641 11.032 8.283 4.421 17.898 5.517 27.134 3.825 6.773-1.243 15.952-3.832 27.197-9.102 15.746-7.389 52.597-49.271 78.868-80.715 18.951-22.684 24.746-41.335 29.129-70.568l12.652-88.581s44.284-41.128 9.489-63.273c0 0-31.631 6.327-41.119 18.982-18.691 24.926-25.305 139.201-28.467 148.691-2.702 8.098-37.635 69.165-57.656 94.777-4.716 6.04-13.775 16.391-21.421 15.952-11.981-.685-28.606-8.39-34.793-6.326-.002-.002-22.143 6.324-12.654 25.306Z" fill="#fff" stroke="#000" stroke-width="5" stroke-miterlimit="10"/><path d="M144.872 647.672c2.53 5.061 7.086 8.604 11.641 11.032 8.283 4.421 17.898 5.517 27.134 3.825 6.773-1.243 15.952-3.832 27.197-9.102 15.746-7.389 52.597-49.271 78.868-80.715 18.951-22.684 24.746-41.335 29.129-70.568l12.652-88.581s44.284-41.128 9.489-63.273c0 0-31.631 6.327-41.119 18.982-18.691 24.926-25.305 139.201-28.467 148.691-2.702 8.098-37.635 69.165-57.656 94.777-4.716 6.04-13.775 16.391-21.421 15.952-11.981-.685-28.606-8.39-34.793-6.326-.002-.002-22.143 6.324-12.654 25.306Z" stroke="#000" stroke-width="5" stroke-miterlimit="10"/><path d="M654.124 647.672c-2.529 5.061-7.085 8.604-11.638 11.032-8.284 4.421-17.9 5.517-27.136 3.825-6.774-1.243-15.952-3.832-27.199-9.102-15.744-7.389-52.598-49.271-78.865-80.715-18.951-22.684-24.743-41.335-29.129-70.568l-12.651-88.581s-44.284-41.128-9.49-63.273c0 0 31.63 6.327 41.12 18.982 18.691 24.926 25.305 139.201 28.468 148.691 2.7 8.098 37.637 69.165 57.658 94.777 4.714 6.04 13.772 16.391 21.419 15.952 11.978-.685 28.606-8.39 34.793-6.326-.001-.002 22.14 6.324 12.65 25.306Z" fill="#fff" stroke="#000" stroke-width="5" stroke-miterlimit="10"/><path d="M654.124 647.672c-2.529 5.061-7.085 8.604-11.638 11.032-8.284 4.421-17.9 5.517-27.136 3.825-6.774-1.243-15.952-3.832-27.199-9.102-15.744-7.389-52.598-49.271-78.865-80.715-18.951-22.684-24.743-41.335-29.129-70.568l-12.651-88.581s-44.284-41.128-9.49-63.273c0 0 31.63 6.327 41.12 18.982 18.691 24.926 25.305 139.201 28.468 148.691 2.7 8.098 37.637 69.165 57.658 94.777 4.714 6.04 13.772 16.391 21.419 15.952 11.978-.685 28.606-8.39 34.793-6.326-.001-.002 22.14 6.324 12.65 25.306Z" stroke="#000" stroke-width="5" stroke-miterlimit="10"/><path d="M492.569 606.545c-6.326-15.818-25.304-60.11-25.304-60.11l-61.862 11.249c-3.98.726-8.063.726-12.044 0l-61.864-11.249s-18.978 44.292-25.304 60.11c-6.326 15.819-136.012 44.291-132.849 91.746 3.164 47.454 66.425 44.292 98.055 37.964 25.275-5.058 87.44-42.067 126.522-60.111 39.08 18.044 104.17 55.053 129.443 60.111 31.631 6.326 94.892 9.49 98.056-37.964 3.163-47.455-126.522-75.927-132.849-91.746Z" fill="#fff" stroke="#000" stroke-width="5" stroke-miterlimit="10"/><path d="M492.569 606.545c-6.326-15.818-25.304-60.11-25.304-60.11l-61.862 11.249c-3.98.726-8.063.726-12.044 0l-61.864-11.249s-18.978 44.292-25.304 60.11c-6.326 15.819-136.012 44.291-132.849 91.746 3.164 47.454 66.425 44.292 98.055 37.964 25.275-5.058 87.44-42.067 126.522-60.111 39.08 18.044 104.17 55.053 129.443 60.111 31.631 6.326 94.892 9.49 98.056-37.964 3.163-47.455-126.522-75.927-132.849-91.746Z" stroke="#000" stroke-width="5" stroke-miterlimit="10"/><path d="M466.458 412.913c-11.68-34.064-5.872-63.446-5.872-63.446s-13.462-3.568-29.032-15.735c-15.569-12.166-11.681-53.211-11.681-53.211s-.809.167-19.783.167c-18.975 0-19.974-.167-19.974-.167s4.077 41.045-11.492 53.211c-15.572 12.167-29.028 15.735-29.028 15.735s5.804 29.381-5.873 63.446c0 0 12.368 72.205-2.231 133.522 0 0 29.186 12.123 68.598 12.123 39.41 0 67.414-12.123 67.414-12.123-14.598-61.317-1.046-133.522-1.046-133.522Z" fill="#fff" stroke="#000" stroke-width="5" stroke-miterlimit="10"/><path d="M466.458 412.913c-11.68-34.064-5.872-63.446-5.872-63.446s-13.462-3.568-29.032-15.735c-15.569-12.166-11.681-53.211-11.681-53.211s-.809.167-19.783.167c-18.975 0-19.974-.167-19.974-.167s4.077 41.045-11.492 53.211c-15.572 12.167-29.028 15.735-29.028 15.735s5.804 29.381-5.873 63.446c0 0 12.368 72.205-2.231 133.522 0 0 29.186 12.123 68.598 12.123 39.41 0 67.414-12.123 67.414-12.123-14.598-61.317-1.046-133.522-1.046-133.522Z" stroke="#000" stroke-width="5" stroke-miterlimit="10"/><path d="M365.444 195.657c-22.821 47.319 13.207 104.15 33.933 104.425 20.728.272 58.242-55.592 36.673-103.495-13.595-30.195-56.219-30.757-70.606-.93Z" fill="#fff" stroke="#000" stroke-width="5" stroke-miterlimit="10"/><path d="M365.444 195.657c-22.821 47.319 13.207 104.15 33.933 104.425 20.728.272 58.242-55.592 36.673-103.495-13.595-30.195-56.219-30.757-70.606-.93Z" stroke="#000" stroke-width="5" stroke-miterlimit="10"/><path d="M533.836 252.63c-18.194-9.995-13.579-22.813-29.727-35.628-16.144-12.815-36.146-4.162-44.593-24.868-8.372-20.514-35.634-32.23-59.391-31.942h-.073c-23.757-.288-51.023 11.428-59.388 31.942-8.448 20.706-28.45 12.052-44.593 24.868-16.148 12.815-11.533 25.633-29.73 35.628-18.197 9.998-19.678 9.074-18.966 16.921 1.05 11.574 42.429 6.995 73.466 7.789 6.079.154 28.235 6.315 34.161 7.702 12.117 2.84 27.682 2.438 28.004-1.906.516-6.923-1.704-23.387-6.426-31.812-4.72-8.428-14.472-5.71-14.472-18.074 0-11.533 4.735-7.044 15.626-17.301 9.6-9.047 19.213-19.52 22.354-28.028 3.141 8.508 12.755 18.982 22.354 28.028 10.892 10.256 15.627 5.768 15.627 17.301 0 12.364-9.75 9.645-14.472 18.074-4.723 8.425-6.938 24.889-6.424 31.812.322 4.344 15.887 4.746 28.003 1.906 5.925-1.387 28.079-7.548 34.164-7.702 31.031-.795 72.411 3.785 73.46-7.789.716-7.847-.764-6.923-18.964-16.921Z" fill="#100200" stroke="#000" stroke-width="5" stroke-miterlimit="10"/><path d="M355.102 342.973s16.897 25.439 45.229 25.439 45.23-25.439 45.23-25.439" stroke="#000" stroke-width="5" stroke-miterlimit="10"/><path d="M543.417 682.544s-17.966-20.11-82.24-28.543c16.513-5.552 42.67-14.434 53.771-18.596 34.795-13.092 22.141-13.092 22.141-13.092-9.489-5.24-53.771 4.745-82.24-3.111-28.467-7.856-34.794-.985-37.956 9.491-1.17 3.85-11.008 4.749-15.815 6.714-3.037-2.83-17.753-4.925-28.468-6.714-18.978-3.165-39.282-12.241-48.28-17.577-2.088-1.238-4.674-1.57-6.883-.575-3.037 1.366-4.935 4.962 4.554 14.388 4.998 4.974 14.424 11.786 24.988 18.778-59.37 7.54-94.575 25.744-94.575 25.744" fill="#fff"/><path d="M543.417 682.544s-17.966-20.11-82.24-28.543c16.513-5.552 42.67-14.434 53.771-18.596 34.795-13.092 22.141-13.092 22.141-13.092-9.489-5.24-53.771 4.745-82.24-3.111-28.467-7.856-34.794-.985-37.956 9.491-1.17 3.85-11.008 4.749-15.815 6.714-3.037-2.83-17.753-4.925-28.468-6.714-18.978-3.165-39.282-12.241-48.28-17.577-2.088-1.238-4.674-1.57-6.883-.575-3.037 1.366-4.935 4.962 4.554 14.388 4.998 4.974 14.424 11.786 24.988 18.778-59.37 7.54-94.575 25.744-94.575 25.744" stroke="#000" stroke-width="5" stroke-miterlimit="10"/><path d="M543.417 682.544s-17.966-20.11-82.24-28.543c16.513-5.552 42.67-14.434 53.771-18.596 34.795-13.092 22.141-13.092 22.141-13.092-9.489-5.24-53.771 4.745-82.24-3.111-28.467-7.856-34.794-.985-37.956 9.491-1.17 3.85-11.008 4.749-15.815 6.714-3.037-2.83-17.753-4.925-28.468-6.714-18.978-3.165-39.282-12.241-48.28-17.577-2.088-1.238-4.674-1.57-6.883-.575-3.037 1.366-4.935 4.962 4.554 14.388 4.998 4.974 14.424 11.786 24.988 18.778-59.37 7.54-94.575 25.744-94.575 25.744" stroke="#000" stroke-width="5" stroke-miterlimit="10"/><path d="M347.309 643.261c22.141 2.62 53.772-7.856 53.772-7.856s12.932 26.266 31.773 28.756" fill="#fff"/><path d="M347.309 643.261c22.141 2.62 53.772-7.856 53.772-7.856s12.932 26.266 31.773 28.756" stroke="#000" stroke-width="5" stroke-miterlimit="10"/><path d="M347.309 643.261c22.141 2.62 53.772-7.856 53.772-7.856s12.932 26.266 31.773 28.756" stroke="#000" stroke-width="5" stroke-miterlimit="10" stroke-linecap="square"/><path d="m395.035 677.489 75.631-26.653M395.035 677.489l75.631-26.653" stroke="#000" stroke-width="5" stroke-miterlimit="10"/></svg>