<svg xmlns="http://www.w3.org/2000/svg" width="800" height="900" xml:space="preserve"><g stroke="#000" stroke-width="5" stroke-miterlimit="10"><path fill="#FFF" d="M661.942 400.106s-33.034 9.175-49.244-.089c-16.211-9.263-55.579-39.367-122.736-27.789l-67.157 11.579s53.264 18.526 55.578 81.052c0 0 113.475 6.947 125.052 0 11.579-6.947 18.621-42.573 42.893-39.812 24.264 2.76 15.614-24.941 15.614-24.941"/><path fill="none" d="M661.942 400.106s-33.034 9.175-49.244-.089c-16.211-9.263-55.579-39.367-122.736-27.789l-67.157 11.579s53.264 18.526 55.578 81.052c0 0 113.475 6.947 125.052 0 11.579-6.947 18.621-42.573 42.893-39.812 24.264 2.76 15.614-24.941 15.614-24.941z"/><path fill="#FFF" d="M580.279 402.333s30.104-11.579 34.735 13.895c3.779 20.783-.147 83.192-1.726 105.468a7.742 7.742 0 0 0 7.427 8.289c19.752.769 71.55 7.314 90.403 12.453 1.54.421 5.351-.035 6.947 0 6.275.146 19.788-2.577 32.971.933 5.31 1.415 10.05 4.545 13.193 9.05.772 1.111 1.31 2.112 1.31 2.755 0 2.315-180.63 0-180.63 0l-4.63-152.843z"/><path fill="none" d="M580.279 402.333s30.104-11.579 34.735 13.895c3.779 20.783-.147 83.192-1.726 105.468a7.742 7.742 0 0 0 7.427 8.289c19.752.769 71.55 7.314 90.403 12.453 1.54.421 5.351-.035 6.947 0 6.275.146 19.788-2.577 32.971.933 5.31 1.415 10.05 4.545 13.193 9.05.772 1.111 1.31 2.112 1.31 2.755 0 2.315-180.63 0-180.63 0l-4.63-152.843z"/><path fill="#100200" d="M702.479 392.29c8.453-4.814 27.334-33.374 1.1-33.837-20.204-.356-12.303-11.417-23.059-29.862-7.313-12.538-28.91-5.372-33.851 23.927-4.496 26.663 12.095 24.731 29.752 26.455 17.654 1.723 26.058 13.317 26.058 13.317"/><path fill="#FFF" d="M669.753 402.083c7.356-4.023 14.492-.441 23.622-1.716 14.509-2.022 28.52 15.803 27.35 32.131-1.542 21.557-78.634 21.499-79.785 8.982-.683-7.413 5.75-20.814 18.175-30.446 3.994-3.099 10.638-8.951 10.638-8.951"/><path fill="none" d="M669.753 402.083c7.356-4.023 14.492-.441 23.622-1.716 14.509-2.022 28.52 15.803 27.35 32.131-1.542 21.557-78.634 21.499-79.785 8.982-.683-7.413 5.75-20.814 18.175-30.446 3.994-3.099 10.638-8.951 10.638-8.951z"/><path fill="#100200" d="M711.604 441.394c-13.521-.479-37.841-10.792-33.147-27.697 5.271-19.006-6.257-11.396-9.873-9.953-3.616 1.442-10.546 10.615-11.541 8.697-.99-1.921 9.157-28.098 28.694-30.395 19.539-2.295 29.625 2.607 35.479 12.813 5.854 10.207 6.571 31.22.189 41.213-6.385 9.991-9.801 5.322-9.801 5.322"/><path fill="#FFF" d="M584.289 477.099c1.126 15.233 3.75 30.58 5.758 45.533 2.97 22.122 3.013 30.169 26.127 31.385 30.238 1.594 44.21 6.622 41.685 11.579-1.423 2.784-8.466 6.662-11.578 6.947 0 0-86.646 15.46-85.685-9.263v-34.736c0-11.579-4.639-30.212-4.639-30.212-13.236-42.396-16.203-80.946-16.203-80.946-60.527 66.204-191.348 103.824-237.256 115.385a104.487 104.487 0 0 1-31.507 3.009c-47.695-2.731-192.458-11.098-211.759-13.026-23.158-2.314-27.79-4.632-23.158-9.263 4.631-4.632 46.315-2.316 50.947-18.526 4.631-16.21 20.842-20.842 30.105-9.263 9.263 11.578 27.789 9.263 27.789 9.263 25.741-7.354 92.348-8.869 118.708-9.182 7.124-.084 14.042-2.193 20.095-5.95 50.834-31.559 86.984-34.658 86.984-34.658-6.947-53.263 52.104-61.368 52.104-61.368 25.475 6.947 15.965 8.482 15.965 8.482l111.541-42.057c13.729-5.176 28.54 4.428 29.423 19.069l4.554 107.798z"/><path fill="none" d="M584.289 477.099c1.126 15.233 3.75 30.58 5.758 45.533 2.97 22.122 3.013 30.169 26.127 31.385 30.238 1.594 44.21 6.622 41.685 11.579-1.423 2.784-8.466 6.662-11.578 6.947 0 0-86.646 15.46-85.685-9.263v-34.736c0-11.579-4.639-30.212-4.639-30.212-13.236-42.396-16.203-80.946-16.203-80.946-60.527 66.204-191.348 103.824-237.256 115.385a104.487 104.487 0 0 1-31.507 3.009c-47.695-2.731-192.458-11.098-211.759-13.026-23.158-2.314-27.79-4.632-23.158-9.263 4.631-4.632 46.315-2.316 50.947-18.526 4.631-16.21 20.842-20.842 30.105-9.263 9.263 11.578 27.789 9.263 27.789 9.263 25.741-7.354 92.348-8.869 118.708-9.182 7.124-.084 14.042-2.193 20.095-5.95 50.834-31.559 86.984-34.658 86.984-34.658-6.947-53.263 52.104-61.368 52.104-61.368 25.475 6.947 15.965 8.482 15.965 8.482l111.541-42.057c13.729-5.176 28.54 4.428 29.423 19.069l4.554 107.798zM440.116 391.786l-13.838 7.074M440.116 391.786l-13.838 7.074"/><path fill="#FFF" d="M370.702 445.175s2.315 4.632 6.947 9.263"/><path fill="none" d="M370.702 445.175s2.315 4.632 6.947 9.263"/><path fill="#FFF" d="M150.982 493.492s-15.265 16.575-3.139 35.076"/><path fill="none" d="M150.982 493.492s-15.265 16.575-3.139 35.076"/><path fill="#FFF" d="M558.635 511.03s11.28 5.646 29.779 0"/><path fill="none" d="M558.635 511.03s11.28 5.646 29.779 0"/></g></svg>