<svg xmlns="http://www.w3.org/2000/svg" width="800" height="900" xml:space="preserve"><g stroke="#000" stroke-width="5" stroke-miterlimit="10"><path fill="#FFF" d="M456.205 372.67c8.129 35.906 16.662 88.259 10.393 135.271-6.229 46.716-11.305 61.031-13.097 104.784-1.387 33.872-14.977 110.881-16.862 137.302-1.865 26.176-.133 67.134 3.766 75.095 3.896 7.962 2.71 17.274-14.565 17.274-17.277 0-27.269-4.573-22.867-17.441 4.406-12.876 9.88-48.054 10.333-106.995.453-58.942-3.726-50.587-6.434-112.575-1.479-33.744-3.172-82.128-3.172-118.204 0-7.227-2.646-34.338-3.627-34.338-.979 0-3.542 27.17-3.542 34.449 0 39.143-1.733 84.349-3.21 118.093-2.709 61.988-6.889 53.633-6.437 112.575.451 58.941 5.929 94.119 10.331 106.995 4.405 12.868-5.587 17.441-22.864 17.441-17.274 0-18.461-9.313-14.565-17.274 3.896-7.961 5.63-48.919 3.764-75.095-1.884-26.422-15.474-103.43-16.863-137.302-1.792-43.753-9.575-57.789-13.095-104.784-3.724-49.727 2.262-99.365 10.395-135.271 0 0 25.292 9.671 56.109 9.671s56.109-9.671 56.109-9.671"/><path fill="none" d="M456.205 372.67c8.129 35.906 16.662 88.259 10.393 135.271-6.229 46.716-11.305 61.031-13.097 104.784-1.387 33.872-14.977 110.881-16.862 137.302-1.865 26.176-.133 67.134 3.766 75.095 3.896 7.962 2.71 17.274-14.565 17.274-17.277 0-27.269-4.573-22.867-17.441 4.406-12.876 9.88-48.054 10.333-106.995.453-58.942-3.726-50.587-6.434-112.575-1.479-33.744-3.172-82.128-3.172-118.204 0-7.227-2.646-34.338-3.627-34.338-.979 0-3.542 27.17-3.542 34.449 0 39.143-1.733 84.349-3.21 118.093-2.709 61.988-6.889 53.633-6.437 112.575.451 58.941 5.929 94.119 10.331 106.995 4.405 12.868-5.587 17.441-22.864 17.441-17.274 0-18.461-9.313-14.565-17.274 3.896-7.961 5.63-48.919 3.764-75.095-1.884-26.422-15.474-103.43-16.863-137.302-1.792-43.753-9.575-57.789-13.095-104.784-3.724-49.727 2.262-99.365 10.395-135.271 0 0 25.292 9.671 56.109 9.671s56.109-9.671 56.109-9.671z"/><path fill="#FFF" d="M461.658 264.909s-14.813-24.818-4.942-67.395c0 0-47.48-.805-43.643-52.969l2.284-24.953h-30.666l2.284 24.953c3.84 52.165-43.646 52.969-43.646 52.969 9.873 42.577-4.942 67.395-4.942 67.395 18.257 58.037 5.456 107.761 5.456 107.761s28.75 9.669 56.182 9.669c27.43 0 56.179-9.669 56.179-9.669s-12.805-49.724 5.454-107.761"/><path fill="none" d="M461.658 264.909s-14.813-24.818-4.942-67.395c0 0-47.48-.805-43.643-52.969l2.284-24.953h-30.666l2.284 24.953c3.84 52.165-43.646 52.969-43.646 52.969 9.873 42.577-4.942 67.395-4.942 67.395 18.257 58.037 5.456 107.761 5.456 107.761s28.75 9.669 56.182 9.669c27.43 0 56.179-9.669 56.179-9.669s-12.805-49.724 5.454-107.761z"/><path fill="#FFF" d="M343.275 197.513c-19.511 7.012-28.388 13.875-33.808 61.298-3.563 31.193-4.274 42.3-4.326 46.257-.033 2.515-.148 5.019-.405 7.524a56775.137 56775.137 0 0 1-5.21 50.329c-2.258 21.677-3.221 84.439-6.669 109.773-2.595 19.063-7.497 32.271.007 52.577 4.084 11.057 14.461-20.194 15.972-30.195.889-5.876 2.783-13.286 2.076-19.012-.76-6.172-4.153-10.558-3.813-13.84 1.184-11.518 12.303-65.656 15.465-93.66 3.159-28.002 11.221-91.354 15.771-103.656 4.553-12.303 7.887-21.111 8.308-38.729.42-17.61-3.368-28.666-3.368-28.666"/><path fill="none" d="M343.275 197.513c-19.511 7.012-28.388 13.875-33.808 61.298-3.563 31.193-4.274 42.3-4.326 46.257-.033 2.515-.148 5.019-.405 7.524a56775.137 56775.137 0 0 1-5.21 50.329c-2.258 21.677-3.221 84.439-6.669 109.773-2.595 19.063-7.497 32.271.007 52.577 4.084 11.057 14.461-20.194 15.972-30.195.889-5.876 2.783-13.286 2.076-19.012-.76-6.172-4.153-10.558-3.813-13.84 1.184-11.518 12.303-65.656 15.465-93.66 3.159-28.002 11.221-91.354 15.771-103.656 4.553-12.303 7.887-21.111 8.308-38.729.42-17.61-3.368-28.666-3.368-28.666z"/><path fill="#FFF" d="M456.725 197.513c19.51 7.012 28.387 13.875 33.808 61.298 3.564 31.193 4.274 42.3 4.326 46.257.033 2.515.146 5.019.403 7.524 1.075 10.425 3.501 33.905 5.209 50.329 2.263 21.677 3.22 84.439 6.671 109.773 2.594 19.063 7.499 32.271-.009 52.577-4.082 11.057-14.46-20.194-15.971-30.195-.891-5.876-2.783-13.286-2.076-19.012.762-6.172 4.153-10.558 3.813-13.84-1.183-11.518-12.302-65.656-15.462-93.66-3.162-28.002-11.221-91.354-15.775-103.656-4.551-12.303-7.881-21.111-8.309-38.729-.415-17.61 3.372-28.666 3.372-28.666"/><path fill="none" d="M456.725 197.513c19.51 7.012 28.387 13.875 33.808 61.298 3.564 31.193 4.274 42.3 4.326 46.257.033 2.515.146 5.019.403 7.524 1.075 10.425 3.501 33.905 5.209 50.329 2.263 21.677 3.22 84.439 6.671 109.773 2.594 19.063 7.499 32.271-.009 52.577-4.082 11.057-14.46-20.194-15.971-30.195-.891-5.876-2.783-13.286-2.076-19.012.762-6.172 4.153-10.558 3.813-13.84-1.183-11.518-12.302-65.656-15.462-93.66-3.162-28.002-11.221-91.354-15.775-103.656-4.551-12.303-7.881-21.111-8.309-38.729-.415-17.61 3.372-28.666 3.372-28.666zM443.268 194.83c-7.514 16.323-27.994 28.347-43.243 28.347-15.25 0-35.731-12.024-43.245-28.347"/><path fill="#FFF" d="M375.992 120.688c-4.286-8.483.039-16.428-1.068-26.823-1.752-16.505 18.958-31.714 37.407-29.787 24.363 2.549 21.438 89.871 7.217 90.711-8.422.498-23.363-7.285-33.813-21.716-3.36-4.641-9.743-12.385-9.743-12.385"/><path fill="none" d="M375.992 120.688c-4.286-8.483.039-16.428-1.068-26.823-1.752-16.505 18.958-31.714 37.407-29.787 24.363 2.549 21.438 89.871 7.217 90.711-8.422.498-23.363-7.285-33.813-21.716-3.36-4.641-9.743-12.385-9.743-12.385z"/><path d="M422.074 74.743c-1.046 15.295-13.629 42.46-32.607 36.518-21.333-6.677-13.139 6.664-11.64 10.814 1.501 4.15 11.636 12.342 9.425 13.394-2.209 1.056-29.412-12.587-31.288-34.803-1.875-22.217 7.023-32.245 18.799-38.496 11.777-6.251 30.563-6.326 41.645 1.275 11.08 7.598 5.666 11.298 5.666 11.298"/><path fill="none" d="M411.7 764.72c18.099 3.876 24.334-1.866 24.334-1.866M388.523 764.72c-18.102 3.876-24.335-1.866-24.335-1.866"/></g></svg>