<svg xmlns="http://www.w3.org/2000/svg" width="800" height="900" xml:space="preserve"><g stroke="#000" stroke-width="5" stroke-miterlimit="10"><path fill="#FFF" d="M570.559 575.979s79.244-12.171 106.884 6.257c27.639 18.426 6.908 55.276-39.155 59.884-46.065 4.605-142.801-6.91-142.801-6.91s55.71-70.095 75.072-59.231"/><path fill="none" d="M570.559 575.979s79.244-12.171 106.884 6.257c27.639 18.426 6.908 55.276-39.155 59.884-46.065 4.605-142.801-6.91-142.801-6.91s55.71-70.095 75.072-59.231z"/><path fill="#FFF" d="M595.962 348.512s-13.034 29.962 6.719 60.229c14.063 21.552 25.017 46.494 13.079 67.452-8.635 15.162-10.264 22.82-13.816 39.532-4.332 20.36-25.843 52.691-37.357 68.813l-45.075-33.401-17.112-8.057c2.57-9.813 20.729-29.942 24.984-46.532 4.141-16.154 1.622-31.839.407-48.406-2.47-33.828 5.974-52.583 29.31-86.596 7.83-11.413 14.879-26.854 14.39-41.792"/><path fill="none" d="M595.962 348.512s-13.034 29.962 6.719 60.229c14.063 21.552 25.017 46.494 13.079 67.452-8.635 15.162-10.264 22.82-13.816 39.532-4.332 20.36-25.843 52.691-37.357 68.813l-45.075-33.401-17.112-8.057c2.57-9.813 20.729-29.942 24.984-46.532 4.141-16.154 1.622-31.839.407-48.406-2.47-33.828 5.974-52.583 29.31-86.596 7.83-11.413 14.879-26.854 14.39-41.792"/><path fill="#FFF" d="M542.832 457.278c22.987 36.192 57.576 60.71 69.255 82.021 20.72 37.805 56.173 94.125 71.333 106.676 9.631 7.975 71.176 6.955 70.028 5.357-3.979-5.544-5.07-12.861-23.032-13.819 0 0-14.438.9-23.033-4.605-1.718-1.103-11.642-6.167-13.257-7.42-4.919-3.833-8.407-10.942-11.013-16.302-2.929-6.031-5.915-12.957-8.849-18.991-5.991-12.346-10.77-20.227-16.767-32.572-1.615-3.328-17.751-30.979-19.366-34.308L581.7 434.373"/><path fill="none" d="M542.832 457.278c22.987 36.192 57.576 60.71 69.255 82.021 20.72 37.805 56.173 94.125 71.333 106.676 9.631 7.975 71.176 6.955 70.028 5.357-3.979-5.544-5.07-12.861-23.032-13.819 0 0-14.438.9-23.033-4.605-1.718-1.103-11.642-6.167-13.257-7.42-4.919-3.833-8.407-10.942-11.013-16.302-2.929-6.031-5.915-12.957-8.849-18.991-5.991-12.346-10.77-20.227-16.767-32.572-1.615-3.328-17.751-30.979-19.366-34.308L581.7 434.373"/><path fill="#FFF" d="M571.848 316.508c-.342 2.479-.338 7.951-.338 7.951"/><path fill="none" d="M571.848 316.508c-.342 2.479-.338 7.951-.338 7.951M539.895 389.082c-.81 12.583 25.47 26.892 59.175 13.451"/><path fill="#100200" d="M566.8 262.935c-2.622-16.764-18.574-55.39-57.925-30.324-24.979 15.916-64.138 36.078-88.731 24.67-24.588-11.413-15.908 51.485 18.603 61.213 34.511 9.73 71.414-5.158 86.476-32.126 15.058-26.969 41.577-23.433 41.577-23.433"/><path fill="#FFF" d="M568.136 321.103c-4.683-8.032-.924-16.048-2.612-26.132-2.678-16.017 16.661-32.079 34.794-31.276 23.938 1.064 26.186 86.513 12.346 88.167-8.196.976-23.239-5.751-34.287-19.231-3.556-4.337-10.241-11.528-10.241-11.528"/><path fill="none" d="M568.136 321.103c-4.683-8.032-.924-16.048-2.612-26.132-2.678-16.017 16.661-32.079 34.794-31.276 23.938 1.064 26.186 86.513 12.346 88.167-8.196.976-23.239-5.751-34.287-19.231-3.556-4.337-10.241-11.528-10.241-11.528z"/><path fill="#100200" d="M610.451 273.54c-.128 14.998-10.825 42.264-29.706 37.572-21.224-5.275-12.442 7.274-10.737 11.239 1.709 3.965 12.083 11.373 9.986 12.528-2.096 1.161-31.415-9.303-34.549-30.889-3.129-21.588 2.002-32.913 13.136-39.708 11.139-6.793 34.411-8.219 45.679-1.444 11.263 6.772 6.191 10.702 6.191 10.702"/><path fill="#FFF" d="M509.307 531.563s-47.223 9.97-74.523 43.192c-6.55 7.972-15.346 13.779-25.396 16.104-28.069 6.49-82.357 18.4-95.855 16.712-18.426-2.304-80.613-16.122-140.498 4.605 0 0-23.033 6.91-39.155-6.909-16.122-13.818-16.123-4.605-36.852 9.214-20.729 13.818-64.49 23.031-46.064 34.548l94.433-4.605s126.496.917 147.408 4.605c39.155 6.909 179.653-6.909 202.685-13.819 23.032-6.909 69.098-50.671 69.098-50.671s-56.053-42.695-55.281-52.976"/><path fill="none" d="M509.307 531.563s-47.223 9.97-74.523 43.192c-6.55 7.972-15.346 13.779-25.396 16.104-28.069 6.49-82.357 18.4-95.855 16.712-18.426-2.304-80.613-16.122-140.498 4.605 0 0-23.033 6.91-39.155-6.909-16.122-13.818-16.123-4.605-36.852 9.214-20.729 13.818-64.49 23.031-46.064 34.548l94.433-4.605s126.496.917 147.408 4.605c39.155 6.909 179.653-6.909 202.685-13.819 23.032-6.909 69.098-50.671 69.098-50.671s-56.053-42.695-55.281-52.976z"/><path fill="#FFF" d="M155.08 613.71s-17.355 19.269-5.459 30.747"/><path fill="none" d="M155.08 613.71s-17.355 19.269-5.459 30.747M622.166 598.356s-22.657 3.029-46.065 16.122c-8.288 4.639-22.772 2.959-32.244 2.304-1.47-.1 1.535 4.862 0 4.605"/><path fill="#FFF" d="M554.116 619.972c-4.772-5.325-12.157-7.415-18.288-4.536-3.622 1.698-5.898 4.732-1.858 10.152 8.736 11.727 15.124 30.993 18.995 45.094 2.146 7.82 8.648 5.373 20.816-.566 9.794-4.783-6.972-35.98-19.665-50.144"/><path fill="none" d="M554.116 619.972c-4.772-5.325-12.157-7.415-18.288-4.536-3.622 1.698-5.898 4.732-1.858 10.152 8.736 11.727 15.124 30.993 18.995 45.094 2.146 7.82 8.648 5.373 20.816-.566 9.794-4.783-6.972-35.98-19.665-50.144z"/></g></svg>