<svg xmlns="http://www.w3.org/2000/svg" width="800" height="900" xml:space="preserve"><g stroke="#000" stroke-width="5" stroke-miterlimit="10"><path fill="#FFF" d="M458.079 439.467c-2.199-15.918-2.844-30.816-2.844-30.816s26.66-5.043 43.678-12.277c17.021-7.234 44.111-20.519 68.691-27.787 24.588-7.265 42.867-1.945 73.849-.972 30.98.972 54.101-5.349 58.645-7.919l-13.436 31.767s-19.211-.484-36.875 5.611c-17.663 6.095-44.743 30.362-53.14 44.806-8.393 14.443-11.36 21.747-21.729 25.406-10.374 3.663-20.665-3.862-34.688-4.747-14.021-.88-62.794 8.169-73.897 13.213-.001-.002-4.027-5.713-8.254-36.285"/><path fill="none" d="M458.079 439.467c-2.199-15.918-2.844-30.816-2.844-30.816s26.66-5.043 43.678-12.277c17.021-7.234 44.111-20.519 68.691-27.787 24.588-7.265 42.867-1.945 73.849-.972 30.98.972 54.101-5.349 58.645-7.919l-13.436 31.767s-19.211-.484-36.875 5.611c-17.663 6.095-44.743 30.362-53.14 44.806-8.393 14.443-11.36 21.747-21.729 25.406-10.374 3.663-20.665-3.862-34.688-4.747-14.021-.88-62.794 8.169-73.897 13.213-.001-.002-4.027-5.713-8.254-36.285z"/><path fill="#FFF" d="M696.93 354.619c5.392-6.641 13.513-6.015 21.641-10.746 12.917-7.514 33.027 3.903 38.232 19.769 6.873 20.949-65.936 50.677-71.858 39.307-3.51-6.738-2.611-21.874 5.396-35.769 2.573-4.468 6.589-12.561 6.589-12.561"/><path fill="none" d="M696.93 354.619c5.392-6.641 13.513-6.015 21.641-10.746 12.917-7.514 33.027 3.903 38.232 19.769 6.873 20.949-65.936 50.677-71.858 39.307-3.51-6.738-2.611-21.874 5.396-35.769 2.573-4.468 6.589-12.561 6.589-12.561z"/><path d="M751.628 375.568c-12.947 4.769-39.895 4.43-41.997-13.345-2.364-19.981-10.307-8.344-13.167-5.584-2.856 2.76-5.855 14.098-7.532 12.67-1.682-1.428-2.214-30.065 15.349-39.783 17.558-9.714 28.976-8.981 38.443-1.607 9.47 7.374 18.27 26.939 16.102 38.838-2.167 11.899-7.198 8.811-7.198 8.811"/><path d="M732.922 328.635c9.528-.182 31.319-7.39 16.793-28.58-11.935-17.413-2.832-19.056-5.843-36.479-2.422-14.003-22.339-18.159-40.312 4.721-16.354 20.822-1.184 26.932 13.189 36.681 14.378 9.751 16.173 23.657 16.173 23.657"/><path fill="#FFF" d="M455.235 408.65c.481 15.064 5.117 57.188 11.097 67.1 0 0-60.857 28.51-99.487 37.935-38.632 9.431-134.223 35.515-176.042 43.021-41.814 7.508-108.011 21.638-114.433 32.507-6.424 10.865 1.688 41.501 6.751 45.869 5.064 4.362 9.364 7.071 7.01 10.096-2.355 3.021-21.979 10.019-35.308-25.318-13.331-35.343-18.619-34.727-9.231-46.077 9.388-11.348 37.617-15.437 96.985-46.09 59.369-30.659 129.628-41.46 166.425-68.858 36.799-27.41 30.819-26.634 47.271-36.505 16.451-9.874 40.336-15.7 57.947-14.526 17.609 1.176 24.496 3.163 32.063 2.128 7.568-1.036 8.952-1.282 8.952-1.282"/><path fill="none" d="M455.235 408.65c.481 15.064 5.117 57.188 11.097 67.1 0 0-60.857 28.51-99.487 37.935-38.632 9.431-134.223 35.515-176.042 43.021-41.814 7.508-108.011 21.638-114.433 32.507-6.424 10.865 1.688 41.501 6.751 45.869 5.064 4.362 9.364 7.071 7.01 10.096-2.355 3.021-21.979 10.019-35.308-25.318-13.331-35.343-18.619-34.727-9.231-46.077 9.388-11.348 37.617-15.437 96.985-46.09 59.369-30.659 129.628-41.46 166.425-68.858 36.799-27.41 30.819-26.634 47.271-36.505 16.451-9.874 40.336-15.7 57.947-14.526 17.609 1.176 24.496 3.163 32.063 2.128 7.568-1.036 8.952-1.282 8.952-1.282z"/><path fill="#FFF" d="M577.669 421.79c-.721-19.248-5.171-48.906 19.431-49.499 24.603-.593 25 9.979 23.688 32.483-1.315 22.503-4.849 65.719-5.847 90.251-.996 24.526 8.292 80.648 10.268 101.202 1.979 20.546 1.532 19.41 2.498 24.672.961 5.266-.097 11.114 10.139 12.744 10.237 1.632 33.146 4.206 36.698 6.217 3.552 2.015.615 7.654-6.602 7.654-7.22 0-43.912 1.033-49.113-.306-5.203-1.338-9.555-2.075-14.232-29.307-4.68-27.237-15.677-62.759-19.134-84.114-3.46-21.354-6.764-76.884-7.236-90.501-.472-13.618-.558-21.496-.558-21.496"/><path fill="none" d="M577.669 421.79c-.721-19.248-5.171-48.906 19.431-49.499 24.603-.593 25 9.979 23.688 32.483-1.315 22.503-4.849 65.719-5.847 90.251-.996 24.526 8.292 80.648 10.268 101.202 1.979 20.546 1.532 19.41 2.498 24.672.961 5.266-.097 11.114 10.139 12.744 10.237 1.632 33.146 4.206 36.698 6.217 3.552 2.015.615 7.654-6.602 7.654-7.22 0-43.912 1.033-49.113-.306-5.203-1.338-9.555-2.075-14.232-29.307-4.68-27.237-15.677-62.759-19.134-84.114-3.46-21.354-6.764-76.884-7.236-90.501-.472-13.618-.558-21.496-.558-21.496z"/><path fill="#FFF" d="M98.188 548.966c.212 8.531 4.022 20.822 8.731 26.408"/><path fill="none" d="M98.188 548.966c.212 8.531 4.022 20.822 8.731 26.408M626.474 366.81c-4.386 9.525-3.199 29.681 3.913 41.537"/></g></svg>