<svg xmlns="http://www.w3.org/2000/svg" width="800" height="900" xml:space="preserve"><g stroke="#000" stroke-width="5" stroke-miterlimit="10"><path fill="#FFF" d="M377.596 500.578s12.187-11.159 26.102-.027c13.914 11.131 155.839 2.782 169.753 0 13.914-2.783 136.358 5.565 136.358 5.565s33.396-8.35 25.047-25.046c-8.35-16.697-16.697-27.828-25.047-25.045-8.349 2.781-8.349 13.914-8.349 13.914v11.131l-122.444-13.914-77.92-2.783-2.561-184.222c-.255-18.273-8.658-35.786-23.529-46.406-17.045-12.175-44.873-18.436-88.007 5.218-86.268 47.309-119.662 91.834-119.662 91.834s-50.091-2.783-105.749 44.525c-55.657 47.309-94.617 50.091-94.617 50.091s-11.131 0 8.349 30.612c19.48 30.61 13.914 47.308 19.48 50.091 5.566 2.783 58.44-2.783 58.44-2.783s2.783-25.045-25.046-19.479c-27.828 5.565-5.565-44.524 2.783-47.309 8.348-2.783 155.839-61.223 155.839-61.223s125.229-25.045 136.359-44.525c0 0-2.782 41.743-11.131 61.223s-19.479 30.611-13.915 50.091c5.565 19.479 5.566 27.829-16.697 25.045-22.262-2.783-3.836 33.422-3.836 33.422"/><path fill="none" d="M377.596 500.578s12.187-11.159 26.102-.027c13.914 11.131 155.839 2.782 169.753 0 13.914-2.783 136.358 5.565 136.358 5.565s33.396-8.35 25.047-25.046c-8.35-16.697-16.697-27.828-25.047-25.045-8.349 2.781-8.349 13.914-8.349 13.914v11.131l-122.444-13.914-77.92-2.783-2.561-184.222c-.255-18.273-8.658-35.786-23.529-46.406-17.045-12.175-44.873-18.436-88.007 5.218-86.268 47.309-119.662 91.834-119.662 91.834s-50.091-2.783-105.749 44.525c-55.657 47.309-94.617 50.091-94.617 50.091s-11.131 0 8.349 30.612c19.48 30.61 13.914 47.308 19.48 50.091 5.566 2.783 58.44-2.783 58.44-2.783s2.783-25.045-25.046-19.479c-27.828 5.565-5.565-44.524 2.783-47.309 8.348-2.783 155.839-61.223 155.839-61.223s125.229-25.045 136.359-44.525c0 0-2.782 41.743-11.131 61.223s-19.479 30.611-13.915 50.091c5.565 19.479 5.566 27.829-16.697 25.045-22.262-2.783-3.836 33.422-3.836 33.422z"/><path fill="none" d="M392.564 447.674s25.046-16.586 6.957 50.148"/><path fill="#FFF" d="M369.845 482.951c-8.805 4.59-17.118.049-27.937 1.273-17.185 1.948-33.186-19.928-31.318-39.5 2.467-25.842 93.464-23.208 94.449-8.136.581 8.927-7.414 24.81-22.367 35.965-4.807 3.588-12.827 10.398-12.827 10.398"/><path fill="none" d="M369.845 482.951c-8.805 4.59-17.118.049-27.937 1.273-17.185 1.948-33.186-19.928-31.318-39.5 2.467-25.842 93.464-23.208 94.449-8.136.581 8.927-7.414 24.81-22.367 35.965-4.807 3.588-12.827 10.398-12.827 10.398z"/><path fill="#100200" d="M319.689 437.371c14.364-1.459 28.35 14.61 26.61 23.482-1.735 8.867-1.913 15.13 1.043 16.002 2.957.866 7.827.171 8.175-2.436.349-2.612-1.043-8.349 4-8.696 5.044-.349 17.915 7.306 21.567 17.563 3.652 10.262-4.696 24.176-20.523 29.22-15.826 5.044-37.829-8.139-49.568-23.828-5.661-7.563-8.702-17.219-8.444-25.566.427-13.756 3.046-24.303 17.14-25.741"/><path fill="#100200" d="M340.734 507.638c7.718 5.58 17.856 9.509 19.711 23.425 1.855 13.913-7.885 18.55-4.638 27.133 3.245 8.579 23.799 24.505 24.261 38.651.465 14.146-10.812 12.598-10.58 28.137.197 13.288 25.741 12.058 22.958 41.509-1.334 14.129-96.239 15.306-94.617-3.71 1.625-19.016 16.966-26.261 16.504-36.931-.467-10.666-15.441-15.001-15.112-29.394.464-20.176 22.496-22.032 22.728-37.106.189-12.393-8.118-14.608-7.422-29.22.697-14.611 26.207-22.494 26.207-22.494"/><path fill="none" d="M500.968 455.15s-83.356-38.089-97.271 45.396"/><path fill="#FFF" d="M421.964 344.032s67.872-2.106 76.349-32.717"/><path fill="none" d="M421.964 344.032s67.872-2.106 76.349-32.717"/><path fill="#FFF" d="M423.176 330.794s11.132-19.48 13.914-27.829"/><path fill="none" d="M423.176 330.794s11.132-19.48 13.914-27.829M116.514 407.04s-.19 25.638 19.657 27.57"/></g></svg>