<svg xmlns="http://www.w3.org/2000/svg" width="800" height="900" xml:space="preserve"><g stroke="#000" stroke-width="5" stroke-miterlimit="10"><path fill="#FFF" d="M477.222 299.795c24.377 8.31 43.863 38.452 50.897 64.244 7.041 25.801 45.094 113.501 48.095 173.436 3 59.932.621 135.749 5.493 144.465 4.871 8.723 44.285 14 49.121 20.9 4.847 6.901-7.713 14.088-33.289 14.146-25.575.063-36.162.583-41.04-15.902-4.872-16.492-5.271-94.509-9.299-136.271-4.02-41.771-40.598-132.157-46.28-145.04-5.684-12.881-17.742-21.151-17.742-21.151l-38.617-47.213 32.661-51.614z"/><path fill="none" d="M477.222 299.795c24.377 8.31 43.863 38.452 50.897 64.244 7.041 25.801 45.094 113.501 48.095 173.436 3 59.932.621 135.749 5.493 144.465 4.871 8.723 44.285 14 49.121 20.9 4.847 6.901-7.713 14.088-33.289 14.146-25.575.063-36.162.583-41.04-15.902-4.872-16.492-5.271-94.509-9.299-136.271-4.02-41.771-40.598-132.157-46.28-145.04-5.684-12.881-17.742-21.151-17.742-21.151l-38.617-47.213 32.661-51.614z"/><path fill="#FFF" d="M322.783 299.795c-24.38 8.31-43.866 38.452-50.904 64.244-7.034 25.801-45.087 113.501-48.089 173.436-3 59.932-.626 135.749-5.498 144.465-4.872 8.723-44.282 14-49.122 20.9-4.84 6.901 7.713 14.088 33.289 14.146 25.576.063 36.169.583 41.041-15.902 4.876-16.492 5.278-94.509 9.299-136.271 4.02-41.771 40.596-132.157 46.28-145.04 5.684-12.881 17.67-21 17.67-21l38.697-47.364-32.663-51.614z"/><path fill="none" d="M322.783 299.795c-24.38 8.31-43.866 38.452-50.904 64.244-7.034 25.801-45.087 113.501-48.089 173.436-3 59.932-.626 135.749-5.498 144.465-4.872 8.723-44.282 14-49.122 20.9-4.84 6.901 7.713 14.088 33.289 14.146 25.576.063 36.169.583 41.041-15.902 4.876-16.492 5.278-94.509 9.299-136.271 4.02-41.771 40.596-132.157 46.28-145.04 5.684-12.881 17.67-21 17.67-21l38.697-47.364-32.663-51.614z"/><path fill="#FFF" d="M411.408 547.351c43.844-16.845 179.235-40.394 204-9.742 24.764 30.65 8.887 56.131-19.894 70.435-28.781 14.305-99.667 34.709-157.92 27.2-58.258-7.511-125.443-39.582-125.443-39.582l10.961-39.784 88.296-8.527z"/><path fill="none" d="M411.408 547.351c43.844-16.845 179.235-40.394 204-9.742 24.764 30.65 8.887 56.131-19.894 70.435-28.781 14.305-99.667 34.709-157.92 27.2-58.258-7.511-125.443-39.582-125.443-39.582l10.961-39.784 88.296-8.527z"/><path fill="#FFF" d="m319.458 534.122 79.881 21.754 76.012-32.229s-3.749-55.558 7.827-125.031l-3.104-14.646a132.605 132.605 0 0 1-2.885-27.561l.032-56.61c-23.312-9.647-61.339-16.131-77.22-16.131-15.882 0-53.909 6.483-77.219 16.131l.026 55.139a146.577 146.577 0 0 1-3.186 30.473l-2.875 13.357c7.2 66.631 2.711 135.354 2.711 135.354"/><path fill="none" d="m319.458 534.122 79.881 21.754 76.012-32.229s-3.749-55.558 7.827-125.031l-3.104-14.646a132.605 132.605 0 0 1-2.885-27.561l.032-56.61c-23.312-9.647-61.339-16.131-77.22-16.131-15.882 0-53.909 6.483-77.219 16.131l.026 55.139a146.577 146.577 0 0 1-3.186 30.473l-2.875 13.357c7.2 66.631 2.711 135.354 2.711 135.354z"/><path fill="#FFF" d="M444.558 248.84c-.257 39.87-27.944 76.021-45.051 75.909-17.105-.107-44.319-36.616-44.06-76.489.26-39.864 89.37-39.284 89.111.58"/><path fill="none" d="M444.558 248.84c-.257 39.87-27.944 76.021-45.051 75.909-17.105-.107-44.319-36.616-44.06-76.489.26-39.864 89.37-39.284 89.111.58z"/><path fill="none" d="M341.673 293.423c1.273 46.807 44.875 70.616 58.83 70.616 13.959 0 53.664-24.044 57.867-70.616"/><path fill="#FFF" d="M538.322 627.428c-13.19 14.43-45.115 34.879-82.465 32.069-37.35-2.812-50.735-10.193-58.716-10.193-7.982 0-36.561 6.598-59.019 8.48-22.453 1.878-57.409-3.755-117.47-51.949-60.062-48.198-35.994-83.356-28.408-95.278 7.588-11.919 60.363-17.038 120.446 0s89.513 13.521 127.439 6.756c37.923-6.769 53.563-25.41 70.124-30.988 13.268-4.467 26.417 19.742 9.207 31.259-5.657 3.787-12.815 5.16-21.652 9.331-18.046 8.521-39.736 12.468-50.27 16.175-15.693 5.528-73.007 24.523-105.078 36.702 0 0 25.009 11.541 64.142 26.562 39.663 15.226 62.657 17.999 83.354 19.486 20.707 1.489 48.366 1.588 48.366 1.588"/><path fill="none" d="M538.322 627.428c-13.19 14.43-45.115 34.879-82.465 32.069-37.35-2.812-50.735-10.193-58.716-10.193-7.982 0-36.561 6.598-59.019 8.48-22.453 1.878-57.409-3.755-117.47-51.949-60.062-48.198-35.994-83.356-28.408-95.278 7.588-11.919 60.363-17.038 120.446 0s89.513 13.521 127.439 6.756c37.923-6.769 53.563-25.41 70.124-30.988 13.268-4.467 26.417 19.742 9.207 31.259-5.657 3.787-12.815 5.16-21.652 9.331-18.046 8.521-39.736 12.468-50.27 16.175-15.693 5.528-73.007 24.523-105.078 36.702 0 0 25.009 11.541 64.142 26.562 39.663 15.226 62.657 17.999 83.354 19.486 20.707 1.489 48.366 1.588 48.366 1.588z"/><path fill="none" d="M344.221 579.796c-49.797 6.938-99-7.023-99-7.023"/><path fill="#FFF" d="M362.462 219.41c-23.432 48.573 13.562 106.925 34.842 107.204 21.281.278 59.8-57.07 37.653-106.246-13.958-30.999-57.724-31.576-72.495-.958"/><path fill="none" d="M362.462 219.41c-23.432 48.573 13.562 106.925 34.842 107.204 21.281.278 59.8-57.07 37.653-106.246-13.958-30.999-57.724-31.576-72.495-.958z"/><path d="M535.363 277.898c-18.688-10.257-13.948-23.42-30.526-36.575-16.578-13.156-37.117-4.269-45.788-25.521-8.592-21.063-36.582-33.09-60.977-32.798H397.997c-24.394-.292-52.388 11.735-60.979 32.798-8.676 21.253-29.21 12.365-45.787 25.521-16.58 13.155-11.841 26.318-30.525 36.575-18.684 10.263-20.205 9.314-19.474 17.37 1.078 11.885 43.565 7.184 75.429 7.999 6.245.155 28.991 6.482 35.075 7.903 12.444 2.918 28.427 2.506 28.758-1.956.525-7.108-1.749-24.003-6.6-32.655-4.846-8.655-14.858-5.864-14.858-18.557 0-11.837 4.862-7.231 16.041-17.762 9.86-9.283 19.728-20.038 22.955-28.771 3.228 8.731 13.1 19.486 22.957 28.771 11.18 10.53 16.042 5.925 16.042 17.762 0 12.692-10.014 9.901-14.862 18.557-4.846 8.652-7.123 25.547-6.597 32.655.33 4.462 16.313 4.874 28.757 1.956 6.083-1.421 28.83-7.748 35.075-7.903 31.867-.815 74.354 3.886 75.433-7.999.729-8.055-.793-7.107-19.474-17.37"/><path fill="none" d="M426.673 519.59c4.833 4.218 8.938 22.619 7.394 28.132"/></g></svg>