<?xml version="1.0" encoding="utf-8"?>
<!-- Generator: Adobe Illustrator 16.0.0, SVG Export Plug-In . SVG Version: 6.00 Build 0)  -->
<!DOCTYPE svg PUBLIC "-//W3C//DTD SVG 1.1//EN" "http://www.w3.org/Graphics/SVG/1.1/DTD/svg11.dtd">
<svg version="1.1" id="Layer_1" xmlns="http://www.w3.org/2000/svg" xmlns:xlink="http://www.w3.org/1999/xlink" x="0px" y="0px"
	 width="800px" height="900px" viewBox="0 0 800 900" enable-background="new 0 0 800 900" xml:space="preserve">
<g>
	<path fill="#FFFFFF" stroke="#000000" stroke-width="5" stroke-miterlimit="10" d="M477.222,299.795
		c24.377,8.31,43.863,38.452,50.897,64.244c7.041,25.801,45.094,113.501,48.095,173.436c3,59.932,0.621,135.749,5.493,144.465
		c4.871,8.723,44.285,14,49.121,20.9c4.847,6.901-7.713,14.088-33.289,14.146c-25.575,0.063-36.162,0.583-41.04-15.902
		c-4.872-16.492-5.271-94.509-9.299-136.271c-4.02-41.771-40.598-132.157-46.28-145.04c-5.684-12.881-17.742-21.151-17.742-21.151
		l-38.617-47.213L477.222,299.795z"/>
	<path fill="none" stroke="#000000" stroke-width="5" stroke-miterlimit="10" d="M477.222,299.795
		c24.377,8.31,43.863,38.452,50.897,64.244c7.041,25.801,45.094,113.501,48.095,173.436c3,59.932,0.621,135.749,5.493,144.465
		c4.871,8.723,44.285,14,49.121,20.9c4.847,6.901-7.713,14.088-33.289,14.146c-25.575,0.063-36.162,0.583-41.04-15.902
		c-4.872-16.492-5.271-94.509-9.299-136.271c-4.02-41.771-40.598-132.157-46.28-145.04c-5.684-12.881-17.742-21.151-17.742-21.151
		l-38.617-47.213L477.222,299.795z"/>
	<path fill="#FFFFFF" stroke="#000000" stroke-width="5" stroke-miterlimit="10" d="M322.783,299.795
		c-24.38,8.31-43.866,38.452-50.904,64.244c-7.034,25.801-45.087,113.501-48.089,173.436c-3,59.932-0.626,135.749-5.498,144.465
		c-4.872,8.723-44.282,14-49.122,20.9c-4.84,6.901,7.713,14.088,33.289,14.146c25.576,0.063,36.169,0.583,41.041-15.902
		c4.876-16.492,5.278-94.509,9.299-136.271c4.02-41.771,40.596-132.157,46.28-145.04c5.684-12.881,17.67-21,17.67-21l38.697-47.364
		L322.783,299.795z"/>
	<path fill="none" stroke="#000000" stroke-width="5" stroke-miterlimit="10" d="M322.783,299.795
		c-24.38,8.31-43.866,38.452-50.904,64.244c-7.034,25.801-45.087,113.501-48.089,173.436c-3,59.932-0.626,135.749-5.498,144.465
		c-4.872,8.723-44.282,14-49.122,20.9c-4.84,6.901,7.713,14.088,33.289,14.146c25.576,0.063,36.169,0.583,41.041-15.902
		c4.876-16.492,5.278-94.509,9.299-136.271c4.02-41.771,40.596-132.157,46.28-145.04c5.684-12.881,17.67-21,17.67-21l38.697-47.364
		L322.783,299.795z"/>
	<path fill="#FFFFFF" stroke="#000000" stroke-width="5" stroke-miterlimit="10" d="M411.408,547.351
		c43.844-16.845,179.235-40.394,204-9.742c24.764,30.65,8.887,56.131-19.894,70.435c-28.781,14.305-99.667,34.709-157.92,27.2
		c-58.258-7.511-125.443-39.582-125.443-39.582l10.961-39.784L411.408,547.351z"/>
	<path fill="none" stroke="#000000" stroke-width="5" stroke-miterlimit="10" d="M411.408,547.351
		c43.844-16.845,179.235-40.394,204-9.742c24.764,30.65,8.887,56.131-19.894,70.435c-28.781,14.305-99.667,34.709-157.92,27.2
		c-58.258-7.511-125.443-39.582-125.443-39.582l10.961-39.784L411.408,547.351z"/>
	<path fill="#FFFFFF" stroke="#000000" stroke-width="5" stroke-miterlimit="10" d="M319.458,534.122l79.881,21.754l76.012-32.229
		c0,0-3.749-55.558,7.827-125.031l-3.104-14.646c-1.919-9.061-2.891-18.297-2.885-27.561l0.032-56.61
		c-23.312-9.647-61.339-16.131-77.22-16.131c-15.882,0-53.909,6.483-77.219,16.131l0.026,55.139
		c0.007,10.237-1.063,20.45-3.186,30.473l-2.875,13.357C323.947,465.399,319.458,534.122,319.458,534.122"/>
	<path fill="none" stroke="#000000" stroke-width="5" stroke-miterlimit="10" d="M319.458,534.122l79.881,21.754l76.012-32.229
		c0,0-3.749-55.558,7.827-125.031l-3.104-14.646c-1.919-9.061-2.891-18.297-2.885-27.561l0.032-56.61
		c-23.312-9.647-61.339-16.131-77.22-16.131c-15.882,0-53.909,6.483-77.219,16.131l0.026,55.139
		c0.007,10.237-1.063,20.45-3.186,30.473l-2.875,13.357C323.947,465.399,319.458,534.122,319.458,534.122z"/>
	<path fill="#FFFFFF" stroke="#000000" stroke-width="5" stroke-miterlimit="10" d="M444.558,248.84
		c-0.257,39.87-27.944,76.021-45.051,75.909c-17.105-0.107-44.319-36.616-44.06-76.489
		C355.707,208.396,444.817,208.976,444.558,248.84"/>
	<path fill="none" stroke="#000000" stroke-width="5" stroke-miterlimit="10" d="M444.558,248.84
		c-0.257,39.87-27.944,76.021-45.051,75.909c-17.105-0.107-44.319-36.616-44.06-76.489
		C355.707,208.396,444.817,208.976,444.558,248.84z"/>
	<path fill="none" stroke="#000000" stroke-width="5" stroke-miterlimit="10" d="M341.673,293.423
		c1.273,46.807,44.875,70.616,58.83,70.616c13.959,0,53.664-24.044,57.867-70.616"/>
	<path fill="#FFFFFF" stroke="#000000" stroke-width="5" stroke-miterlimit="10" d="M538.322,627.428
		c-13.19,14.43-45.115,34.879-82.465,32.069c-37.35-2.812-50.735-10.193-58.716-10.193c-7.982,0-36.561,6.598-59.019,8.48
		c-22.453,1.878-57.409-3.755-117.47-51.949c-60.062-48.198-35.994-83.356-28.408-95.278c7.588-11.919,60.363-17.038,120.446,0
		c60.083,17.038,89.513,13.521,127.439,6.756c37.923-6.769,53.563-25.41,70.124-30.988c13.268-4.467,26.417,19.742,9.207,31.259
		c-5.657,3.787-12.815,5.16-21.652,9.331c-18.046,8.521-39.736,12.468-50.27,16.175c-15.693,5.528-73.007,24.523-105.078,36.702
		c0,0,25.009,11.541,64.142,26.562c39.663,15.226,62.657,17.999,83.354,19.486C510.663,627.329,538.322,627.428,538.322,627.428"/>
	<path fill="none" stroke="#000000" stroke-width="5" stroke-miterlimit="10" d="M538.322,627.428
		c-13.19,14.43-45.115,34.879-82.465,32.069c-37.35-2.812-50.735-10.193-58.716-10.193c-7.982,0-36.561,6.598-59.019,8.48
		c-22.453,1.878-57.409-3.755-117.47-51.949c-60.062-48.198-35.994-83.356-28.408-95.278c7.588-11.919,60.363-17.038,120.446,0
		c60.083,17.038,89.513,13.521,127.439,6.756c37.923-6.769,53.563-25.41,70.124-30.988c13.268-4.467,26.417,19.742,9.207,31.259
		c-5.657,3.787-12.815,5.16-21.652,9.331c-18.046,8.521-39.736,12.468-50.27,16.175c-15.693,5.528-73.007,24.523-105.078,36.702
		c0,0,25.009,11.541,64.142,26.562c39.663,15.226,62.657,17.999,83.354,19.486C510.663,627.329,538.322,627.428,538.322,627.428z"/>
	<path fill="none" stroke="#000000" stroke-width="5" stroke-miterlimit="10" d="M344.221,579.796c-49.797,6.938-99-7.023-99-7.023"
		/>
	<path fill="#FFFFFF" stroke="#000000" stroke-width="5" stroke-miterlimit="10" d="M362.462,219.41
		c-23.432,48.573,13.562,106.925,34.842,107.204c21.281,0.278,59.8-57.07,37.653-106.246
		C420.999,189.369,377.233,188.792,362.462,219.41"/>
	<path fill="none" stroke="#000000" stroke-width="5" stroke-miterlimit="10" d="M362.462,219.41
		c-23.432,48.573,13.562,106.925,34.842,107.204c21.281,0.278,59.8-57.07,37.653-106.246
		C420.999,189.369,377.233,188.792,362.462,219.41z"/>
	<path stroke="#000000" stroke-width="5" stroke-miterlimit="10" d="M535.363,277.898c-18.688-10.257-13.948-23.42-30.526-36.575
		c-16.578-13.156-37.117-4.269-45.788-25.521c-8.592-21.063-36.582-33.09-60.977-32.798h-0.04h-0.035
		c-24.394-0.292-52.388,11.735-60.979,32.798c-8.676,21.253-29.21,12.365-45.787,25.521c-16.58,13.155-11.841,26.318-30.525,36.575
		c-18.684,10.263-20.205,9.314-19.474,17.37c1.078,11.885,43.565,7.184,75.429,7.999c6.245,0.155,28.991,6.482,35.075,7.903
		c12.444,2.918,28.427,2.506,28.758-1.956c0.525-7.108-1.749-24.003-6.6-32.655c-4.846-8.655-14.858-5.864-14.858-18.557
		c0-11.837,4.862-7.231,16.041-17.762c9.86-9.283,19.728-20.038,22.955-28.771c3.228,8.731,13.1,19.486,22.957,28.771
		c11.18,10.53,16.042,5.925,16.042,17.762c0,12.692-10.014,9.901-14.862,18.557c-4.846,8.652-7.123,25.547-6.597,32.655
		c0.33,4.462,16.313,4.874,28.757,1.956c6.083-1.421,28.83-7.748,35.075-7.903c31.867-0.815,74.354,3.886,75.433-7.999
		C555.566,287.213,554.044,288.161,535.363,277.898"/>
	<path fill="none" stroke="#000000" stroke-width="5" stroke-miterlimit="10" d="M426.673,519.59
		c4.833,4.218,8.938,22.619,7.394,28.132"/>
</g>
</svg>
