<svg width="800" height="900" fill="none" xmlns="http://www.w3.org/2000/svg"><path d="M219.801 573.401c11.898-18.514 48.269-56.573 71.516-65.077 23.247-8.498 32.29-12.15 39.745-22.001 7.455-9.851-1.749-71.252 0-93.504 1.749-22.25 28.247-45.339 28.247-45.339l-20.476-31.165s-21.518 20.377-54.515 44.721c-32.996 24.341-66.994 62.534-96.49 98.037-29.495 35.502-75.203 86.395-75.203 86.395l23.707 44.36 83.469-16.427Z" fill="#fff" stroke="#000" stroke-width="5" stroke-miterlimit="10"/><path d="M219.801 573.401c11.898-18.514 48.269-56.573 71.516-65.077 23.247-8.498 32.29-12.15 39.745-22.001 7.455-9.851-1.749-71.252 0-93.504 1.749-22.25 28.247-45.339 28.247-45.339l-20.476-31.165s-21.518 20.377-54.515 44.721c-32.996 24.341-66.994 62.534-96.49 98.037-29.495 35.502-75.203 86.395-75.203 86.395l23.707 44.36 83.469-16.427Z" stroke="#000" stroke-width="5" stroke-miterlimit="10"/><path d="M112.625 545.468c-12.539 15.982-20.96 37.701-19.289 59.11 4.875 62.251 79.102 69.209 116.775 69.209 25.651 0 114.68-9.169 153.57-1.707 52.913 10.155 234.772 1.001 320.07 3.296 11.021.287 22.422-10.432 20.758-21.344-7.681-50.485 13.709-78.909-10.863-99.334-4.412-3.666-13.229-4.509-14.704 1.041-1.876 7.277 2.507 16.389 1.656 33.717-.491 10.035-9.537 19.96-17.675 32.711-15.378 14.292-54.768 14.189-63.881 13.41-33.388-2.806-71.184-5.537-99.45-12.25-79.049-18.814-108.78-20.986-187.653-38.627-61.949-13.857-119.298-7.241-148.338 2.454l56.201-13.751s-42.282-4.636-58.596-10.078c-16.309-5.435-48.581-17.857-48.581-17.857Z" fill="#fff" stroke="#000" stroke-width="5" stroke-miterlimit="10"/><path d="M112.625 545.468c-12.539 15.982-20.96 37.701-19.289 59.11 4.875 62.251 79.102 69.209 116.775 69.209 25.651 0 114.68-9.169 153.57-1.707 52.913 10.155 234.772 1.001 320.07 3.296 11.021.287 22.422-10.432 20.758-21.344-7.681-50.485 13.709-78.909-10.863-99.334-4.412-3.666-13.229-4.509-14.704 1.041-1.876 7.277 2.507 16.389 1.656 33.717-.491 10.035-9.537 19.96-17.675 32.711-15.378 14.292-54.768 14.189-63.881 13.41-33.388-2.806-71.184-5.537-99.45-12.25-79.049-18.814-108.78-20.986-187.653-38.627-61.949-13.857-119.298-7.241-148.338 2.454l56.201-13.751s-42.282-4.636-58.596-10.078c-16.309-5.435-48.581-17.857-48.581-17.857ZM330.852 397.646s-18.288-20.324-46.402-6.501c-35.157 17.291-24.497 87.112 36.632 72.556" stroke="#000" stroke-width="5" stroke-miterlimit="10"/><path d="M302.781 450.238s137.231 112.299 165.846 127.708c28.609 15.406 136.702 51.846 136.702 51.846 19.602 8.105 31.315 21.364 57.089 25.238 25.781 3.873 24.895.09 23.771-3.648-1.125-3.736-47.006-42.579-69.468-41.104-7.394.484-8.368-.174-12.197-1.103l-122-63.623-151.672-147.904" fill="#fff"/><path d="M302.781 450.238s137.231 112.299 165.846 127.708c28.609 15.406 136.702 51.846 136.702 51.846 19.602 8.105 31.315 21.364 57.089 25.238 25.781 3.873 24.895.09 23.771-3.648-1.125-3.736-47.006-42.579-69.468-41.104-7.394.484-8.368-.174-12.197-1.103l-122-63.623-151.672-147.904" stroke="#000" stroke-width="5" stroke-miterlimit="10"/><path d="M302.781 450.238s137.231 112.299 165.846 127.708c28.609 15.406 136.702 51.846 136.702 51.846 19.602 8.105 31.315 21.364 57.089 25.238 25.781 3.873 24.895.09 23.771-3.648-1.125-3.736-47.006-42.579-69.468-41.104-7.394.484-8.368-.174-12.197-1.103l-122-63.623-151.672-147.904" stroke="#000" stroke-width="5" stroke-miterlimit="10"/><path d="M321.481 262.869c-7.012-19.846-35.246-63.324-77.528-23.804-26.841 25.09-70.002 58.587-102.586 50.263-32.579-8.32-7.691 66.41 36.605 70.426 44.291 4.017 85.909-22.539 98.139-58.85 12.231-36.318 45.37-38.035 45.37-38.035Z" fill="#000" stroke="#000" stroke-width="5" stroke-miterlimit="10"/><path d="M325.784 321.957c-5.654-10.053-.843-19.923-2.747-32.46-3.018-19.922 21.266-39.481 43.737-38.14 29.673 1.767 30.853 107.799 13.656 109.59-10.181 1.063-28.714-7.568-42.163-24.5-4.323-5.443-12.483-14.49-12.483-14.49Z" fill="#fff" stroke="#000" stroke-width="5" stroke-miterlimit="10"/><path d="M325.784 321.957c-5.654-10.053-.843-19.923-2.747-32.46-3.018-19.922 21.266-39.481 43.737-38.14 29.673 1.767 30.853 107.799 13.656 109.59-10.181 1.063-28.714-7.568-42.163-24.5-4.323-5.443-12.483-14.49-12.483-14.49Z" stroke="#000" stroke-width="5" stroke-miterlimit="10"/><path d="M379.16 263.757c-.439 18.598-14.222 52.217-37.551 46.047-26.223-6.946-15.566 8.787-13.526 13.74 2.042 4.949 14.77 14.329 12.148 15.731-2.621 1.394-38.788-12.132-42.268-38.97-3.477-26.84 3.103-40.788 17.043-49.006 13.939-8.219 42.827-9.552 56.674-.938 13.845 8.617 7.48 13.396 7.48 13.396Z" fill="#000" stroke="#000" stroke-width="5" stroke-miterlimit="10"/><path d="M280.209 364.135c-3.703 8.687 13.041 14.312 22.573 15.247 9.533.94 24.174 3.987 28.477 11.652M613.035 635.756c4.495 8.014 8.056 28.034 6.933 39.397" stroke="#000" stroke-width="5" stroke-miterlimit="10"/></svg>