<svg width="800" height="900" fill="none" xmlns="http://www.w3.org/2000/svg"><path d="M545.278 625.791c-45.989 3.284-88.694 52.54-151.11 59.109-62.416 6.567-134.685-3.286-157.68-6.569-22.995-3.284-26.28 3.283-19.709 22.987 6.57 19.703 32.849 26.27 75.554 26.27 42.705 0 72.27-3.283 101.834-9.85" fill="#fff"/><path d="M545.278 625.791c-45.989 3.284-88.694 52.54-151.11 59.109-62.416 6.567-134.685-3.286-157.68-6.569-22.995-3.284-26.28 3.283-19.709 22.987 6.57 19.703 32.849 26.27 75.554 26.27 42.705 0 72.27-3.283 101.834-9.85" stroke="#000" stroke-width="5" stroke-miterlimit="10"/><path d="M545.278 625.791c-45.989 3.284-88.694 52.54-151.11 59.109-62.416 6.567-134.685-3.286-157.68-6.569-22.995-3.284-26.28 3.283-19.709 22.987 6.57 19.703 32.849 26.27 75.554 26.27 42.705 0 72.27-3.283 101.834-9.85" stroke="#000" stroke-width="5" stroke-miterlimit="10"/><path d="M404.825 682.695s3.921 20.959-3.673 35.828Z" fill="#fff"/><path d="M404.825 682.695s3.921 20.959-3.673 35.828" stroke="#000" stroke-width="5" stroke-miterlimit="10"/><path d="M404.825 682.695s3.921 20.959-3.673 35.828M334.109 726.298c2.429-6.54 5.714-32.808 2.429-39.377" stroke="#000" stroke-width="5" stroke-miterlimit="10"/><path d="M627.697 619.224c-29.565-22.988-137.969 0-137.969 0-19.711-16.419-21.79-57.085-21.79-57.085l-70.19-11.875-71.063 11.875s-1.207 40.666-20.917 57.085c0 0-108.405-22.988-137.969 0-29.565 22.985 9.855 59.106 42.705 68.958 32.85 9.85 137.968 29.553 187.244 29.553 49.276 0 154.394-19.704 187.245-29.553 32.849-9.852 72.27-45.973 42.704-68.958Z" fill="#fff" stroke="#000" stroke-width="5" stroke-miterlimit="10"/><path d="M627.697 619.224c-29.565-22.988-137.969 0-137.969 0-19.711-16.419-21.79-57.085-21.79-57.085l-70.19-11.875-71.063 11.875s-1.207 40.666-20.917 57.085c0 0-108.405-22.988-137.969 0-29.565 22.985 9.855 59.106 42.705 68.958 32.85 9.85 137.968 29.553 187.244 29.553 49.276 0 154.394-19.704 187.245-29.553 32.849-9.852 72.27-45.973 42.704-68.958Z" stroke="#000" stroke-width="5" stroke-miterlimit="10"/><path d="M246.639 625.791c45.99 3.284 88.695 52.54 151.109 59.109 62.416 6.567 134.686-3.286 157.68-6.569 22.994-3.284 26.28 3.283 19.709 22.987-6.57 19.703-32.849 26.27-75.554 26.27-42.706 0-71.609-7.962-101.835-9.85-52.559-3.285-151.243-16.061-187.244-29.553" fill="#fff"/><path d="M246.639 625.791c45.99 3.284 88.695 52.54 151.109 59.109 62.416 6.567 134.686-3.286 157.68-6.569 22.994-3.284 26.28 3.283 19.709 22.987-6.57 19.703-32.849 26.27-75.554 26.27-42.706 0-71.609-7.962-101.835-9.85-52.559-3.285-151.243-16.061-187.244-29.553" stroke="#000" stroke-width="5" stroke-miterlimit="10"/><path d="M246.639 625.791c45.99 3.284 88.695 52.54 151.109 59.109 62.416 6.567 134.686-3.286 157.68-6.569 22.994-3.284 26.28 3.283 19.709 22.987-6.57 19.703-32.849 26.27-75.554 26.27-42.706 0-71.609-7.962-101.835-9.85-52.559-3.285-151.243-16.061-187.244-29.553" stroke="#000" stroke-width="5" stroke-miterlimit="10"/><path d="M545.278 625.791c-45.989 3.284-88.694 52.54-151.11 59.109" stroke="#000" stroke-width="5" stroke-miterlimit="10"/><path d="M467.937 562.139s-29.411 13.847-70.342 13.847c-40.927 0-70.912-13.847-70.912-13.847s-.469-36.141 3.285-114.931c.937-19.693 2.679-35.371 4.693-47.719 3.506-21.555 14.096-41.277 29.818-56.446.144-.141.293-.282.44-.423 22.972-22.22 6.547-87.894 6.547-87.894s16.428 13.135 36.134 13.135c19.707 0 9.855 22.986 9.855 22.986s-2.095 8.485.77 22.188c3.124 14.923 5.863 34.94 16.861 45.51 10.637 10.23 32.187 36.103 36.135 45.973 6.57 16.419-3.286 52.54-6.571 65.675-3.284 13.135 3.287 91.946 3.287 91.946Z" fill="#fff" stroke="#000" stroke-width="5" stroke-miterlimit="10"/><path d="M467.937 562.139s-29.411 13.847-70.342 13.847c-40.927 0-70.912-13.847-70.912-13.847s-.469-36.141 3.285-114.931c.937-19.693 2.679-35.371 4.693-47.719 3.506-21.555 14.096-41.277 29.818-56.446.144-.141.293-.282.44-.423 22.972-22.22 6.547-87.894 6.547-87.894s16.428 13.135 36.134 13.135c19.707 0 9.855 22.986 9.855 22.986s-2.095 8.485.77 22.188c3.124 14.923 5.863 34.94 16.861 45.51 10.637 10.23 32.187 36.103 36.135 45.973 6.57 16.419-3.286 52.54-6.571 65.675-3.284 13.135 3.287 91.946 3.287 91.946Z" stroke="#000" stroke-width="5" stroke-miterlimit="10"/><path d="M372.22 260.957c-6.631-11.295-1.37-22.606-3.786-36.802-3.836-22.557 23.347-45.269 48.906-44.206 33.744 1.4 37.258 121.775 17.763 124.157-11.55 1.414-32.779-8.004-48.408-26.956-5.024-6.089-14.475-16.193-14.475-16.193Z" fill="#fff" stroke="#000" stroke-width="5" stroke-miterlimit="10"/><path d="M372.22 260.957c-6.631-11.295-1.37-22.606-3.786-36.802-3.836-22.557 23.347-45.269 48.906-44.206 33.744 1.4 37.258 121.775 17.763 124.157-11.55 1.414-32.779-8.004-48.408-26.956-5.024-6.089-14.475-16.193-14.475-16.193Z" stroke="#000" stroke-width="5" stroke-miterlimit="10"/><path d="M431.669 193.776c-.118 21.132-15.089 59.588-41.718 53.052-29.932-7.343-17.505 10.3-15.087 15.88 2.424 5.58 17.077 15.976 14.125 17.612-2.949 1.639-41.559-14.777-46.06-45.177-4.498-30.4 6.882-44.964 22.549-54.58 15.665-9.617 41.511-11.338 57.416-1.84 15.907 9.5 8.775 15.053 8.775 15.053Z" fill="#100200" stroke="#000" stroke-width="5" stroke-miterlimit="10"/><path d="M411.255 686.062c4.122 17.277-4.005 32.456-4.005 32.456" stroke="#000" stroke-width="5" stroke-miterlimit="10"/><path d="M379.242 427.504s95.602 113.19 101.835 121.499c19.709 26.272 101.834 52.54 108.404 55.824 6.57 3.285 22.995 36.122 42.617 50.517 19.628 14.396 6.657-14.396 1.998-29.553-4.658-15.159-100.46-86.639-116.885-103.059-14.03-14.025-71.221-123.917-87.585-155.641-4.578-8.873-11.744-16.29-20.82-20.449" fill="#fff"/><path d="M379.242 427.504s95.602 113.19 101.835 121.499c19.709 26.272 101.834 52.54 108.404 55.824 6.57 3.285 22.995 36.122 42.617 50.517 19.628 14.396 6.657-14.396 1.998-29.553-4.658-15.159-100.46-86.639-116.885-103.059-14.03-14.025-71.221-123.917-87.585-155.641-4.578-8.873-11.744-16.29-20.82-20.449" stroke="#000" stroke-width="5" stroke-miterlimit="10"/><path d="M379.242 427.504s95.602 113.19 101.835 121.499c19.709 26.272 101.834 52.54 108.404 55.824 6.57 3.285 22.995 36.122 42.617 50.517 19.628 14.396 6.657-14.396 1.998-29.553-4.658-15.159-100.46-86.639-116.885-103.059-14.03-14.025-71.221-123.917-87.585-155.641-4.578-8.873-11.744-16.29-20.82-20.449" stroke="#000" stroke-width="5" stroke-miterlimit="10"/></svg>