<svg xmlns="http://www.w3.org/2000/svg" width="800" height="900" xml:space="preserve"><g stroke="#000" stroke-width="5" stroke-miterlimit="10"><path fill="#FFF" d="M314.902 530.923s2.61 32.858 13.977 38.541 173.32 25.566 187.527 31.249c14.206 5.684 144.906 31.26 164.797 28.419 19.889-2.842 39.778-28.419 42.619-71.033 0 0 8.523-28.413 19.89 5.684 11.365 34.09-2.842 51.138 0 65.351 2.842 14.206 8.523 31.254 0 36.938-8.288 5.521-212.628 11.043-260.53-6.933-3.05-1.141-6.263-1.704-9.518-1.855-24.77-1.151-111.042-2.313-156.15-11.103-6.302-1.231-50.411-5.841-56.826-5.683-22.809.541-39.779 8.523-62.51-2.842-16.073-8.041-45.461-45.467-45.461-45.467s-2.841 31.261 0 39.783c2.842 8.524 14.207 31.256 8.524 39.778-5.683 8.524-102.288 14.207-102.288 14.207s-25.571-17.048 19.89-25.572c45.461-8.522 39.778-31.254 39.778-31.254S73.16 523.997 70.318 509.796c-2.841-14.212-2.841-48.303 14.207-53.985 17.048-5.682 42.619-8.522 59.668 22.731 17.048 31.254 53.984 59.667 53.984 59.667v-5.688l116.725-1.598z"/><path fill="none" d="M314.902 530.923s2.61 32.858 13.977 38.541 173.32 25.566 187.527 31.249c14.206 5.684 144.906 31.26 164.797 28.419 19.889-2.842 39.778-28.419 42.619-71.033 0 0 8.523-28.413 19.89 5.684 11.365 34.09-2.842 51.138 0 65.351 2.842 14.206 8.523 31.254 0 36.938-8.288 5.521-212.628 11.043-260.53-6.933-3.05-1.141-6.263-1.704-9.518-1.855-24.77-1.151-111.042-2.313-156.15-11.103-6.302-1.231-50.411-5.841-56.826-5.683-22.809.541-39.779 8.523-62.51-2.842-16.073-8.041-45.461-45.467-45.461-45.467s-2.841 31.261 0 39.783c2.842 8.524 14.207 31.256 8.524 39.778-5.683 8.524-102.288 14.207-102.288 14.207s-25.571-17.048 19.89-25.572c45.461-8.522 39.778-31.254 39.778-31.254S73.16 523.997 70.318 509.796c-2.841-14.212-2.841-48.303 14.207-53.985 17.048-5.682 42.619-8.522 59.668 22.731 17.048 31.254 53.984 59.667 53.984 59.667v-5.688l116.725-1.598z"/><path fill="#FFF" d="M152.717 592.188c-.969-15.775-1.365-31.771-5.142-47.202-3.413-13.946-10.802-25.649-17.764-38.027"/><path fill="none" d="M152.717 592.188c-.969-15.775-1.365-31.771-5.142-47.202-3.413-13.946-10.802-25.649-17.764-38.027"/><path fill="#FFF" d="M315.383 535.335c-37.759 10.327-77.107 10.089-117.205-2.813 5.397-46.993-.857-91.489-.857-91.489 10.517-30.603 6.54-56.26 6.54-56.26s10.853-3.948 24.831-14.859c13.979-10.94 10.316-47.789 10.316-47.789s.905.139 17.953.139 17.758-.139 17.758-.139-3.49 36.849 10.488 47.789c14.007 10.911 26.624 14.859 26.624 14.859s-5.744 25.658 4.745 56.26c0 0-7.051 46.568-1.193 94.302"/><path fill="none" d="M315.383 535.335c-37.759 10.327-77.107 10.089-117.205-2.813 5.397-46.993-.857-91.489-.857-91.489 10.517-30.603 6.54-56.26 6.54-56.26s10.853-3.948 24.831-14.859c13.979-10.94 10.316-47.789 10.316-47.789s.905.139 17.953.139 17.758-.139 17.758-.139-3.49 36.849 10.488 47.789c14.007 10.911 26.624 14.859 26.624 14.859s-5.744 25.658 4.745 56.26c0 0-7.051 46.568-1.193 94.302z"/><path fill="#FFF" d="M225.837 245.897c-20.503 42.498 11.858 93.54 30.48 93.786 18.618.244 52.317-49.928 32.941-92.95-12.214-27.118-50.499-27.623-63.421-.836"/><path fill="none" d="M225.837 245.897c-20.503 42.498 11.858 93.54 30.48 93.786 18.618.244 52.317-49.928 32.941-92.95-12.214-27.118-50.499-27.623-63.421-.836z"/><path fill="#040004" d="M377.099 297.066c-16.347-8.976-12.2-20.488-26.704-31.998-14.504-11.512-32.471-3.738-40.057-22.334-7.522-18.424-32.012-28.946-53.35-28.688v-.003l-.033.003-.033-.003v.003c-21.343-.258-45.833 10.264-53.35 28.688-7.586 18.596-25.553 10.822-40.059 22.334-14.501 11.509-10.358 23.022-26.701 31.998-16.347 8.979-17.678 8.147-17.037 15.197.943 10.395 38.113 6.282 65.991 6.992 5.464.143 25.364 5.672 30.686 6.921 10.886 2.547 24.87 2.188 25.159-1.715.46-6.216-1.532-21.002-5.777-28.568-4.24-7.569-12.997-5.128-12.997-16.232 0-10.361 4.251-6.327 14.035-15.539 8.626-8.125 17.259-17.531 20.083-25.172 2.825 7.642 11.454 17.048 20.078 25.172 9.786 9.212 14.04 5.178 14.04 15.539 0 11.104-8.76 8.663-13.002 16.232-4.24 7.566-6.232 22.353-5.771 28.568.288 3.901 14.272 4.262 25.158 1.715 5.322-1.249 25.222-6.778 30.686-6.921 27.875-.71 65.046 3.402 65.988-6.992.644-7.05-.688-6.218-17.033-15.197"/><path fill="#FFF" d="M216.541 378.205s15.181 22.848 40.631 22.848c25.449 0 40.627-22.848 40.627-22.848"/><path fill="none" d="M216.541 378.205s15.181 22.848 40.631 22.848c25.449 0 40.627-22.848 40.627-22.848"/><path fill="#FFF" d="M243.941 509.79c3.954.414 5.561-48.302 8.341-51.144l2.78-2.842s2.783-2.842 2.783 8.523v52.521c0 5.238-4.92 9.013-9.842 7.557 0 0-.921-.283-1.282-.408-38.424 1.801-75.056 1.44-108.455-2.842-8.344-5.683-11.124-8.523-5.563-34.097 5.563-25.57 41.715-85.238 47.275-93.763 5.561-8.523 23.852-8.523 23.852-8.523 5.561 2.841-2.886 54.026-8.523 56.826-5.645 2.804-34.065 56.826-34.065 56.826s.601 2.843 82.699 11.366"/><path fill="none" d="M243.941 509.79c3.954.414 5.561-48.302 8.341-51.144l2.78-2.842s2.783-2.842 2.783 8.523v52.521c0 5.238-4.92 9.013-9.842 7.557 0 0-.921-.283-1.282-.408-38.424 1.801-75.056 1.44-108.455-2.842-8.344-5.683-11.124-8.523-5.563-34.097 5.563-25.57 41.715-85.238 47.275-93.763 5.561-8.523 23.852-8.523 23.852-8.523 5.561 2.841-2.886 54.026-8.523 56.826-5.645 2.804-34.065 56.826-34.065 56.826s.601 2.843 82.699 11.366z"/><path fill="#FFF" d="M271.75 509.79c-3.957.414-5.563-48.302-8.347-51.144l-2.777-2.842s-2.783-2.842-2.783 8.523v52.521c0 5.238 4.92 9.013 9.84 7.557 0 0 .924-.283 1.287-.408 38.418 1.801 75.054 1.44 108.453-2.842 8.344-5.683 11.127-8.523 5.562-34.097-5.562-25.57-41.71-85.238-47.273-93.763-5.561-8.523-23.849-8.523-23.849-8.523-5.566 2.841.006 54.026 5.648 56.826 5.645 2.804 36.938 56.826 36.938 56.826s-.603 2.843-82.699 11.366"/><path fill="none" d="M271.75 509.79c-3.957.414-5.563-48.302-8.347-51.144l-2.777-2.842s-2.783-2.842-2.783 8.523v52.521c0 5.238 4.92 9.013 9.84 7.557 0 0 .924-.283 1.287-.408 38.418 1.801 75.054 1.44 108.453-2.842 8.344-5.683 11.127-8.523 5.562-34.097-5.562-25.57-41.71-85.238-47.273-93.763-5.561-8.523-23.849-8.523-23.849-8.523-5.566 2.841.006 54.026 5.648 56.826 5.645 2.804 36.938 56.826 36.938 56.826s-.603 2.843-82.699 11.366z"/><path fill="#FFF" d="M118.621 629.126s18.613 11.365 33.455 0"/><path fill="none" d="M118.621 629.126s18.613 11.365 33.455 0"/><path fill="#FFF" d="M675.065 629.31s13.739 15.095 2.833 41.555"/><path fill="none" d="M675.065 629.31s13.739 15.095 2.833 41.555"/></g></svg>