<svg width="800" height="900" fill="none" xmlns="http://www.w3.org/2000/svg"><path d="M357.404 493.234c.415 1.258-21.267 46.618-20.394 48.09 16.056 26.963 107.791 90.211 138.462 107.584 5.963 3.379 11.599 7.269 16.923 11.578 23.398 18.925 90.298 49.623 115.18 59.194 21.278 8.185 31.488 23.391 35.259 30.476 2.041 3.829 4.563 7.404 7.746 10.351 12.528 11.602 15.87-.807 15.87-6.533 0-6.544-.514-39.316-15.786-41.496l-.817-.123c-13.737-2.056-26.24-9.038-35.374-19.498-20.266-23.211-34.113-32.348-108.711-83.993" fill="#fff"/><path d="M357.404 493.234c.415 1.258-21.267 46.618-20.394 48.09 16.056 26.963 107.791 90.211 138.462 107.584 5.963 3.379 11.599 7.269 16.923 11.578 23.398 18.925 90.298 49.623 115.18 59.194 21.278 8.185 31.488 23.391 35.259 30.476 2.041 3.829 4.563 7.404 7.746 10.351 12.528 11.602 15.87-.807 15.87-6.533 0-6.544-.514-39.316-15.786-41.496l-.817-.123c-13.737-2.056-26.24-9.038-35.374-19.498-20.266-23.211-34.113-32.348-108.711-83.993" stroke="#000" stroke-width="5" stroke-miterlimit="10"/><path d="M357.404 493.234c.415 1.258-21.267 46.618-20.394 48.09 16.056 26.963 107.791 90.211 138.462 107.584 5.963 3.379 11.599 7.269 16.923 11.578 23.398 18.925 90.298 49.623 115.18 59.194 21.278 8.185 31.488 23.391 35.259 30.476 2.041 3.829 4.563 7.404 7.746 10.351 12.528 11.602 15.87-.807 15.87-6.533 0-6.544-.514-39.316-15.786-41.496l-.817-.123c-13.737-2.056-26.24-9.038-35.374-19.498-20.266-23.211-34.113-32.348-108.711-83.993" stroke="#000" stroke-width="5" stroke-miterlimit="10"/><path d="M337.01 540.162c.899 0 29.592-80.79 30.544-80.724 42.318 2.955 132.028 72.748 158.209 100.7 4.994 5.336 12.411 12.64 18.59 16.543 26.512 16.741 79.238 74.845 98.678 92.272 17.781 15.942 20.534 16.687 37.613 18.803.779.095 1.536.354 2.274.624 24.726 9.017 12.109 17.969 6.035 20.121-6.17 2.186-33.041 12.845-40.196-.823-4.856-9.272-5.228-12.308-8.418-15.056-1.374-1.181-9.251-5.563-10.942-6.215-45.625-17.491-123.634-77.541-123.634-77.541l-79.633-57.409" fill="#fff"/><path d="M337.01 540.162c.899 0 29.592-80.79 30.544-80.724 42.318 2.955 132.028 72.748 158.209 100.7 4.994 5.336 12.411 12.64 18.59 16.543 26.512 16.741 79.238 74.845 98.678 92.272 17.781 15.942 20.534 16.687 37.613 18.803.779.095 1.536.354 2.274.624 24.726 9.017 12.109 17.969 6.035 20.121-6.17 2.186-33.041 12.845-40.196-.823-4.856-9.272-5.228-12.308-8.418-15.056-1.374-1.181-9.251-5.563-10.942-6.215-45.625-17.491-123.634-77.541-123.634-77.541l-79.633-57.409" stroke="#000" stroke-width="5" stroke-miterlimit="10"/><path d="M337.01 540.162c.899 0 29.592-80.79 30.544-80.724 42.318 2.955 132.028 72.748 158.209 100.7 4.994 5.336 12.411 12.64 18.59 16.543 26.512 16.741 79.238 74.845 98.678 92.272 17.781 15.942 20.534 16.687 37.613 18.803.779.095 1.536.354 2.274.624 24.726 9.017 12.109 17.969 6.035 20.121-6.17 2.186-33.041 12.845-40.196-.823-4.856-9.272-5.228-12.308-8.418-15.056-1.374-1.181-9.251-5.563-10.942-6.215-45.625-17.491-123.634-77.541-123.634-77.541l-79.633-57.409" stroke="#000" stroke-width="5" stroke-miterlimit="10"/><path d="M293.378 439.803c-8.727-4.364-28.363-10.909-30.544-15.272-2.182-4.363 0-74.178-2.182-91.631-2.181-17.454-8.727-61.088-17.453-85.087-8.727-23.999-17.455-47.997-19.636-65.452-2.182-17.454 4.249-52.361-17.454-52.361-30.659 0 2.182 43.635 4.363 58.907 2.182 15.272 13.091 76.36 17.455 95.995 4.362 19.635 6.545 23.999 4.362 52.362-2.181 28.362-13.09 102.54-13.09 102.54l26.18 6.545 43.635 6.545 4.364-13.091Z" fill="#fff" stroke="#000" stroke-width="5" stroke-miterlimit="10"/><path d="M293.378 439.803c-8.727-4.364-28.363-10.909-30.544-15.272-2.182-4.363 0-74.178-2.182-91.631-2.181-17.454-8.727-61.088-17.453-85.087-8.727-23.999-17.455-47.997-19.636-65.452-2.182-17.454 4.249-52.361-17.454-52.361-30.659 0 2.182 43.635 4.363 58.907 2.182 15.272 13.091 76.36 17.455 95.995 4.362 19.635 6.545 23.999 4.362 52.362-2.181 28.362-13.09 102.54-13.09 102.54l26.18 6.545 43.635 6.545 4.364-13.091Z" stroke="#000" stroke-width="5" stroke-miterlimit="10"/><path d="M197.38 505.254c-2.181 17.454 4.363 50.179 6.546 69.815 2.181 19.635 6.545 39.271 6.545 58.907 0 19.635-6.545 102.541-10.908 109.086-4.364 6.544-10.909 6.544-21.817 10.907-10.91 4.365-19.636 4.365-23.999 8.729-4.364 4.363 0 4.363 6.545 4.363s39.271 4.363 47.998 0c8.726-4.363 13.09-21.817 21.817-65.451 8.727-43.635 13.09-102.542 13.09-126.54v-32.728l6.546-26.18-15.272-13.09-30.544-2.181-6.547 4.363Z" fill="#fff" stroke="#000" stroke-width="5" stroke-miterlimit="10"/><path d="M197.38 505.254c-2.181 17.454 4.363 50.179 6.546 69.815 2.181 19.635 6.545 39.271 6.545 58.907 0 19.635-6.545 102.541-10.908 109.086-4.364 6.544-10.909 6.544-21.817 10.907-10.91 4.365-19.636 4.365-23.999 8.729-4.364 4.363 0 4.363 6.545 4.363s39.271 4.363 47.998 0c8.726-4.363 13.09-21.817 21.817-65.451 8.727-43.635 13.09-102.542 13.09-126.54v-32.728l6.546-26.18-15.272-13.09-30.544-2.181-6.547 4.363Z" stroke="#000" stroke-width="5" stroke-miterlimit="10"/><path d="M367.554 459.439c-15.272-2.181 0 0-34.908-6.545-13.729-2.574-65.451-23.998-65.451-23.998s4.363 10.909-15.272 13.09c-19.516 2.169-30.545-13.09-30.545-13.09s-2.181 17.455-8.726 19.635c-6.546 2.182-43.635 8.727-54.544 4.363-10.908-4.363-13.09 34.908-13.09 34.908s47.997-10.909 54.543 0c0 0 2.182 2.182 0 8.727-2.181 6.545-2.181 8.727-2.181 8.727s19.635-4.363 32.726 4.364c13.091 8.728 13.091 26.18 13.091 30.544 0 0 14.818-3.184 34.907-2.181 43.635 2.181 26.181 0 58.907 2.181 21.908-21.797 24.667-47.357 30.543-80.725Z" fill="#fff" stroke="#000" stroke-width="5" stroke-miterlimit="10"/><path d="M367.554 459.439c-15.272-2.181 0 0-34.908-6.545-13.729-2.574-65.451-23.998-65.451-23.998s4.363 10.909-15.272 13.09c-19.516 2.169-30.545-13.09-30.545-13.09s-2.181 17.455-8.726 19.635c-6.546 2.182-43.635 8.727-54.544 4.363-10.908-4.363-13.09 34.908-13.09 34.908s47.997-10.909 54.543 0c0 0 2.182 2.182 0 8.727-2.181 6.545-2.181 8.727-2.181 8.727s19.635-4.363 32.726 4.364c13.091 8.728 13.091 26.18 13.091 30.544 0 0 14.818-3.184 34.907-2.181 43.635 2.181 26.181 0 58.907 2.181 21.908-21.797 24.667-47.357 30.543-80.725Z" stroke="#000" stroke-width="5" stroke-miterlimit="10"/><path d="M150.856 484.028c-7.742 1.567-13.159-3.655-21.731-5.061-13.617-2.239-21.234-22.192-15.62-36.556 7.417-18.961 76.759 2.65 74.295 14.233-1.461 6.86-10.998 17.116-24.867 22.306-4.46 1.67-12.077 5.078-12.077 5.078Z" fill="#fff" stroke="#000" stroke-width="5" stroke-miterlimit="10"/><path d="M150.856 484.028c-7.742 1.567-13.159-3.655-21.731-5.061-13.617-2.239-21.234-22.192-15.62-36.556 7.417-18.961 76.759 2.65 74.295 14.233-1.461 6.86-10.998 17.116-24.867 22.306-4.46 1.67-12.077 5.078-12.077 5.078Z" stroke="#000" stroke-width="5" stroke-miterlimit="10"/><path d="M124.2 436.96c12.032 4.212 31.023 20.288 22.078 34.189-10.061 15.624 2.439 12 6.097 11.715 3.657-.286 12.455-6.602 12.813-4.598.357 2.002-16.577 20.796-34.799 17.396-18.22-3.399-24.292-12.742-26.704-23.56-2.412-10.817 1.675-25.89 10.212-33.093 8.535-7.208 10.303-2.049 10.303-2.049Z" fill="#100200" stroke="#000" stroke-width="5" stroke-miterlimit="10"/><path d="M218.378 443.349c9.546 9.544 11.012 21.162 5.182 31.361-8.727 15.273-23.048 17.171-23.048 17.171" stroke="#000" stroke-width="5" stroke-miterlimit="10"/><path d="M602.35 717.606s16.282-5.356 15.994-20.723Z" fill="#fff"/><path d="M602.35 717.606s16.282-5.356 15.994-20.723" stroke="#000" stroke-width="5" stroke-miterlimit="10"/><path d="M602.35 717.606s16.282-5.356 15.994-20.723" stroke="#000" stroke-width="5" stroke-miterlimit="10"/><path d="M625.633 684.898s16.289-5.356 14.114-18.97Z" fill="#fff"/><path d="M625.633 684.898s16.289-5.356 14.114-18.97" stroke="#000" stroke-width="5" stroke-miterlimit="10"/><path d="M625.633 684.898s16.289-5.356 14.114-18.97" stroke="#000" stroke-width="5" stroke-miterlimit="10"/></svg>