<svg width="800" height="900" viewBox="0 0 800 900" fill="none" xmlns="http://www.w3.org/2000/svg">
<path d="M542.593 563.489C563.747 555.707 618.899 549.284 615.208 611.159C612.866 650.431 614.742 708.92 643.87 730.103C672.999 751.284 594.374 781.825 560.791 748.042C527.201 714.256 520.659 661.792 542.24 626.894C563.827 591.989 542.593 563.489 542.593 563.489Z" fill="black" stroke="black" stroke-width="5" stroke-miterlimit="10"/>
<path d="M511.317 440.348C514.728 457.405 518.139 477.872 511.317 494.928C504.494 511.985 466.971 532.452 446.504 518.807C426.037 505.162 422.625 501.751 419.214 491.518C415.803 481.285 405.57 447.173 405.57 447.173L436.271 416.472L490.85 413.061L511.317 440.348Z" fill="white" stroke="black" stroke-width="5" stroke-miterlimit="10"/>
<path d="M511.317 440.348C514.728 457.405 518.139 477.872 511.317 494.928C504.494 511.985 466.971 532.452 446.504 518.807C426.037 505.162 422.625 501.751 419.214 491.518C415.803 481.285 405.57 447.173 405.57 447.173L436.271 416.472L490.85 413.061L511.317 440.348Z" stroke="black" stroke-width="5" stroke-miterlimit="10"/>
<path d="M478.786 535.513C490.852 538.157 495.313 549.04 506.692 556.463C524.764 568.245 523.086 601.595 505.994 618.604C483.429 641.061 397.842 566.426 408.669 551.406C415.078 542.515 435.189 533.85 458.305 535.163C465.744 535.586 478.786 535.513 478.786 535.513Z" fill="white" stroke="black" stroke-width="5" stroke-miterlimit="10"/>
<path d="M478.786 535.513C490.852 538.157 495.313 549.04 506.692 556.463C524.764 568.245 523.086 601.595 505.994 618.604C483.429 641.061 397.842 566.426 408.669 551.406C415.078 542.515 435.189 533.85 458.305 535.163C465.744 535.586 478.786 535.513 478.786 535.513Z" stroke="black" stroke-width="5" stroke-miterlimit="10"/>
<path d="M487.253 619.664C472.695 606.059 455.652 571.081 477.219 556.83C501.463 540.821 481.293 538.125 475.879 536.223C470.462 534.327 453.893 537.818 454.646 534.727C455.399 531.632 491.476 515.424 515.405 531.772C539.33 548.122 542.128 565.318 538.76 582.32C535.388 599.317 520.037 618.308 503.282 623.234C486.533 628.158 487.253 619.664 487.253 619.664Z" fill="black" stroke="black" stroke-width="5" stroke-miterlimit="10"/>
<path d="M487.439 501.75C487.439 518.806 459.615 574.984 453.327 593.854C446.504 614.322 439.683 658.667 432.859 672.311C426.037 685.956 419.214 699.6 408.98 699.6C398.746 699.6 388.513 668.9 398.747 631.376C408.981 593.852 419.215 559.74 426.037 529.04C432.858 498.339 432.859 494.928 432.859 494.928" fill="white"/>
<path d="M487.439 501.75C487.439 518.806 459.615 574.984 453.327 593.854C446.504 614.322 439.683 658.667 432.859 672.311C426.037 685.956 419.214 699.6 408.98 699.6C398.746 699.6 388.513 668.9 398.747 631.376C408.981 593.852 419.215 559.74 426.037 529.04C432.858 498.339 432.859 494.928 432.859 494.928" stroke="black" stroke-width="5" stroke-miterlimit="10"/>
<path d="M487.439 501.75C487.439 518.806 459.615 574.984 453.327 593.854C446.504 614.322 439.683 658.667 432.859 672.311C426.037 685.956 419.214 699.6 408.98 699.6C398.746 699.6 388.513 668.9 398.747 631.376C408.981 593.852 419.215 559.74 426.037 529.04C432.858 498.339 432.859 494.928 432.859 494.928" stroke="black" stroke-width="5" stroke-miterlimit="10"/>
<path d="M446.506 631.377C449.918 638.2 443.094 668.9 436.274 672.312C429.45 675.723 422.629 665.489 422.629 655.256C422.629 645.022 429.451 634.788 436.274 631.377C443.095 627.967 446.506 631.377 446.506 631.377Z" fill="white" stroke="black" stroke-width="5" stroke-miterlimit="10"/>
<path d="M446.506 631.377C449.918 638.2 443.094 668.9 436.274 672.312C429.45 675.723 422.629 665.489 422.629 655.256C422.629 645.022 429.451 634.788 436.274 631.377C443.095 627.967 446.506 631.377 446.506 631.377Z" stroke="black" stroke-width="5" stroke-miterlimit="10"/>
<path d="M437.877 222.16C454.566 253.068 487.859 321.692 497.566 366.158C507.274 410.621 510.398 434.54 510.318 441.361C510.318 441.361 490.177 413.828 455.986 420.241C421.793 426.657 414.728 447.044 414.608 457.276C414.484 467.51 417.613 491.429 417.613 491.429C417.613 491.429 383.663 477.374 380.819 429.584C377.981 381.79 381.308 388.653 371.644 340.772C361.98 292.899 342.043 248.309 342.043 248.309L437.877 222.16Z" fill="white" stroke="black" stroke-width="5" stroke-miterlimit="10"/>
<path d="M437.877 222.16C454.566 253.068 487.859 321.692 497.566 366.158C507.274 410.621 510.398 434.54 510.318 441.361C510.318 441.361 490.177 413.828 455.986 420.241C421.793 426.657 414.728 447.044 414.608 457.276C414.484 467.51 417.613 491.429 417.613 491.429C417.613 491.429 383.663 477.374 380.819 429.584C377.981 381.79 381.308 388.653 371.644 340.772C361.98 292.899 342.043 248.309 342.043 248.309L437.877 222.16Z" stroke="black" stroke-width="5" stroke-miterlimit="10"/>
<path d="M361.225 269.788C361.225 269.788 371.458 266.376 391.926 256.143C412.394 245.91 436.272 222.03 436.272 222.03C432.859 215.208 402.159 160.629 371.459 143.572C340.758 126.516 279.356 143.572 267.746 177.265C252.14 222.553 272.234 315.941 270.814 348.442C269.429 380.318 270.215 420.804 269.312 452.907C268.209 491.856 267.489 496.054 270.591 539.936C277.23 633.891 274.686 653.615 276.344 710.809C276.63 720.825 284.902 728.744 294.919 728.541L411.703 726.888C418.236 726.76 421.034 717.021 414.885 714.816C388.727 705.415 338.838 699.986 328.437 687.186C317.99 674.344 319.263 663.597 318.49 653.607C313.16 584.583 326.425 520.759 341.256 452.905C350.923 408.656 353.295 376.099 359.281 328.012C361.107 313.331 362.249 293.304 361.223 273.196L361.225 269.788Z" fill="white" stroke="black" stroke-width="5" stroke-miterlimit="10"/>
<path d="M361.225 269.788C361.225 269.788 371.458 266.376 391.926 256.143C412.394 245.91 436.272 222.03 436.272 222.03C432.859 215.208 402.159 160.629 371.459 143.572C340.758 126.516 279.356 143.572 267.746 177.265C252.14 222.553 272.234 315.941 270.814 348.442C269.429 380.318 270.215 420.804 269.312 452.907C268.209 491.856 267.489 496.054 270.591 539.936C277.23 633.891 274.686 653.615 276.344 710.809C276.63 720.825 284.902 728.744 294.919 728.541L411.703 726.888C418.236 726.76 421.034 717.021 414.885 714.816C388.727 705.415 338.838 699.986 328.437 687.186C317.99 674.344 319.263 663.597 318.49 653.607C313.16 584.583 326.425 520.759 341.256 452.905C350.923 408.656 353.295 376.099 359.281 328.012C361.107 313.331 362.249 293.304 361.223 273.196L361.225 269.788Z" stroke="black" stroke-width="5" stroke-miterlimit="10"/>
<path d="M275.078 627.043C296.078 634.292 317.322 627.043 317.322 627.043" stroke="black" stroke-width="5" stroke-miterlimit="10"/>
</svg>
