<svg width="800" height="900" fill="none" xmlns="http://www.w3.org/2000/svg"><path d="M542.593 563.489c21.154-7.782 76.306-14.205 72.615 47.67-2.342 39.272-.466 97.761 28.662 118.944 29.129 21.181-49.496 51.722-83.079 17.939-33.59-33.786-40.132-86.25-18.551-121.148 21.587-34.905.353-63.405.353-63.405Z" fill="#000" stroke="#000" stroke-width="5" stroke-miterlimit="10"/><path d="M511.317 440.348c3.411 17.057 6.822 37.524 0 54.58-6.823 17.057-44.346 37.524-64.813 23.879-20.467-13.645-23.879-17.056-27.29-27.289-3.411-10.233-13.644-44.345-13.644-44.345l30.701-30.701 54.579-3.411 20.467 27.287Z" fill="#fff" stroke="#000" stroke-width="5" stroke-miterlimit="10"/><path d="M511.317 440.348c3.411 17.057 6.822 37.524 0 54.58-6.823 17.057-44.346 37.524-64.813 23.879-20.467-13.645-23.879-17.056-27.29-27.289-3.411-10.233-13.644-44.345-13.644-44.345l30.701-30.701 54.579-3.411 20.467 27.287Z" stroke="#000" stroke-width="5" stroke-miterlimit="10"/><path d="M478.786 535.513c12.066 2.644 16.527 13.527 27.906 20.95 18.072 11.782 16.394 45.132-.698 62.141-22.565 22.457-108.152-52.178-97.325-67.198 6.409-8.891 26.52-17.556 49.636-16.243 7.439.423 20.481.35 20.481.35Z" fill="#fff" stroke="#000" stroke-width="5" stroke-miterlimit="10"/><path d="M478.786 535.513c12.066 2.644 16.527 13.527 27.906 20.95 18.072 11.782 16.394 45.132-.698 62.141-22.565 22.457-108.152-52.178-97.325-67.198 6.409-8.891 26.52-17.556 49.636-16.243 7.439.423 20.481.35 20.481.35Z" stroke="#000" stroke-width="5" stroke-miterlimit="10"/><path d="M487.253 619.664c-14.558-13.605-31.601-48.583-10.034-62.834 24.244-16.009 4.074-18.705-1.34-20.607-5.417-1.896-21.986 1.595-21.233-1.496.753-3.095 36.83-19.303 60.759-2.955 23.925 16.35 26.723 33.546 23.355 50.548-3.372 16.997-18.723 35.988-35.478 40.914-16.749 4.924-16.029-3.57-16.029-3.57Z" fill="#000" stroke="#000" stroke-width="5" stroke-miterlimit="10"/><path d="M487.439 501.75c0 17.056-27.824 73.234-34.112 92.104-6.823 20.468-13.644 64.813-20.468 78.457-6.822 13.645-13.645 27.289-23.879 27.289-10.234 0-20.467-30.7-10.233-68.224 10.234-37.524 20.468-71.636 27.29-102.336 6.821-30.701 6.822-34.112 6.822-34.112" fill="#fff"/><path d="M487.439 501.75c0 17.056-27.824 73.234-34.112 92.104-6.823 20.468-13.644 64.813-20.468 78.457-6.822 13.645-13.645 27.289-23.879 27.289-10.234 0-20.467-30.7-10.233-68.224 10.234-37.524 20.468-71.636 27.29-102.336 6.821-30.701 6.822-34.112 6.822-34.112" stroke="#000" stroke-width="5" stroke-miterlimit="10"/><path d="M487.439 501.75c0 17.056-27.824 73.234-34.112 92.104-6.823 20.468-13.644 64.813-20.468 78.457-6.822 13.645-13.645 27.289-23.879 27.289-10.234 0-20.467-30.7-10.233-68.224 10.234-37.524 20.468-71.636 27.29-102.336 6.821-30.701 6.822-34.112 6.822-34.112" stroke="#000" stroke-width="5" stroke-miterlimit="10"/><path d="M446.506 631.377c3.412 6.823-3.412 37.523-10.232 40.935-6.824 3.411-13.645-6.823-13.645-17.056 0-10.234 6.822-20.468 13.645-23.879 6.821-3.41 10.232 0 10.232 0Z" fill="#fff" stroke="#000" stroke-width="5" stroke-miterlimit="10"/><path d="M446.506 631.377c3.412 6.823-3.412 37.523-10.232 40.935-6.824 3.411-13.645-6.823-13.645-17.056 0-10.234 6.822-20.468 13.645-23.879 6.821-3.41 10.232 0 10.232 0Z" stroke="#000" stroke-width="5" stroke-miterlimit="10"/><path d="M437.877 222.16c16.689 30.908 49.982 99.532 59.689 143.998 9.708 44.463 12.832 68.382 12.752 75.203 0 0-20.141-27.533-54.332-21.12-34.193 6.416-41.258 26.803-41.378 37.035-.124 10.234 3.005 34.153 3.005 34.153s-33.95-14.055-36.794-61.845c-2.838-47.794.489-40.931-9.175-88.812-9.664-47.873-29.601-92.463-29.601-92.463l95.834-26.149Z" fill="#fff" stroke="#000" stroke-width="5" stroke-miterlimit="10"/><path d="M437.877 222.16c16.689 30.908 49.982 99.532 59.689 143.998 9.708 44.463 12.832 68.382 12.752 75.203 0 0-20.141-27.533-54.332-21.12-34.193 6.416-41.258 26.803-41.378 37.035-.124 10.234 3.005 34.153 3.005 34.153s-33.95-14.055-36.794-61.845c-2.838-47.794.489-40.931-9.175-88.812-9.664-47.873-29.601-92.463-29.601-92.463l95.834-26.149Z" stroke="#000" stroke-width="5" stroke-miterlimit="10"/><path d="M361.225 269.788s10.233-3.412 30.701-13.645 44.346-34.113 44.346-34.113c-3.413-6.822-34.113-61.401-64.813-78.458-30.701-17.056-92.103 0-103.713 33.693-15.606 45.288 4.488 138.676 3.068 171.177-1.385 31.876-.599 72.362-1.502 104.465-1.103 38.949-1.823 43.147 1.279 87.029 6.639 93.955 4.095 113.679 5.753 170.873.286 10.016 8.558 17.935 18.575 17.732l116.784-1.653c6.533-.128 9.331-9.867 3.182-12.072-26.158-9.401-76.047-14.83-86.448-27.63-10.447-12.842-9.174-23.589-9.947-33.579-5.33-69.024 7.935-132.848 22.766-200.702 9.667-44.249 12.039-76.806 18.025-124.893 1.826-14.681 2.968-34.708 1.942-54.816l.002-3.408Z" fill="#fff" stroke="#000" stroke-width="5" stroke-miterlimit="10"/><path d="M361.225 269.788s10.233-3.412 30.701-13.645 44.346-34.113 44.346-34.113c-3.413-6.822-34.113-61.401-64.813-78.458-30.701-17.056-92.103 0-103.713 33.693-15.606 45.288 4.488 138.676 3.068 171.177-1.385 31.876-.599 72.362-1.502 104.465-1.103 38.949-1.823 43.147 1.279 87.029 6.639 93.955 4.095 113.679 5.753 170.873.286 10.016 8.558 17.935 18.575 17.732l116.784-1.653c6.533-.128 9.331-9.867 3.182-12.072-26.158-9.401-76.047-14.83-86.448-27.63-10.447-12.842-9.174-23.589-9.947-33.579-5.33-69.024 7.935-132.848 22.766-200.702 9.667-44.249 12.039-76.806 18.025-124.893 1.826-14.681 2.968-34.708 1.942-54.816l.002-3.408Z" stroke="#000" stroke-width="5" stroke-miterlimit="10"/><path d="M275.078 627.043c21 7.249 42.244 0 42.244 0" stroke="#000" stroke-width="5" stroke-miterlimit="10"/></svg>