<svg xmlns="http://www.w3.org/2000/svg" width="800" height="900" xml:space="preserve"><g stroke="#000" stroke-width="5" stroke-miterlimit="10"><path fill="#FFF" d="M329.918 326.622c-29.981 18.912-34.29 16.108-70.497 5.981-21.399-5.988-50.194 7.637-69.603 35.176-19.407 27.539-47.877 6.657-47.877 6.657l-40.71 41.354s34.234-8.483 51.494-3.38c0 0-1.189 8.986 3.399 20.756 4.589 11.771 11.787 27.592 11.787 27.592s1.664 22.853 11.779 45.354c10.117 22.503 5.097 18.526-1.639 28.006-6.738 9.479-16.262 26.896-5.647 32.354 10.615 5.46 12.444-12.929 22.117-21.675 9.676-8.748 7.499-20.078 5.998-28.313-1.495-8.235.895-17.971-.785-28.781-1.68-10.813-1.866-34.664-1.866-34.664s26.294-5.968 57.689-8.273c31.398-2.304 37.684-7.103 66.382-2.521 0 0-.404-29.521 2.573-61.35 2.979-31.831 5.406-54.273 5.406-54.273"/><path fill="none" d="M329.918 326.622c-29.981 18.912-34.29 16.108-70.497 5.981-21.399-5.988-50.194 7.637-69.603 35.176-19.407 27.539-47.877 6.657-47.877 6.657l-40.71 41.354s34.234-8.483 51.494-3.38c0 0-1.189 8.986 3.399 20.756 4.589 11.771 11.787 27.592 11.787 27.592s1.664 22.853 11.779 45.354c10.117 22.503 5.097 18.526-1.639 28.006-6.738 9.479-16.262 26.896-5.647 32.354 10.615 5.46 12.444-12.929 22.117-21.675 9.676-8.748 7.499-20.078 5.998-28.313-1.495-8.235.895-17.971-.785-28.781-1.68-10.813-1.866-34.664-1.866-34.664s26.294-5.968 57.689-8.273c31.398-2.304 37.684-7.103 66.382-2.521 0 0-.404-29.521 2.573-61.35 2.979-31.831 5.406-54.273 5.406-54.273z"/><path fill="#FFF" d="M347.645 430.985c-6.328 3.986-18.072 18.212-15.703 33.729 2.374 15.519 11.888 24.791 30.407 31.575 18.519 6.786 137.807 13.252 205.371 6.463 67.565-6.789 80.008-1.54 103.448 1.576 23.435 3.107 64.195 11.133 72.182 7.122 7.99-4.015 7.593-16.568-.799-21.75-8.393-5.184-63.301-14.427-73.164-22.832-9.857-8.405-321.742-35.883-321.742-35.883"/><path fill="none" d="M347.645 430.985c-6.328 3.986-18.072 18.212-15.703 33.729 2.374 15.519 11.888 24.791 30.407 31.575 18.519 6.786 137.807 13.252 205.371 6.463 67.565-6.789 80.008-1.54 103.448 1.576 23.435 3.107 64.195 11.133 72.182 7.122 7.99-4.015 7.593-16.568-.799-21.75-8.393-5.184-63.301-14.427-73.164-22.832-9.857-8.405-321.742-35.883-321.742-35.883z"/><path fill="#FFF" d="M324.046 386.625c2.397-30.262 5.875-60.003 5.875-60.003s15.771-11.067 39.013-15.421c23.248-4.354 69.55-3.667 80.988 32.843 11.441 36.51-7.453 54.098-13.687 59.853 0 0 69.031-1.947 142.606 20.813 73.576 22.763 58.743 7.43 81.978 11.499 23.231 4.066 40.919 9.313 61.677 11.152 20.763 1.834 37.541 14.572 32.921 26.74-4.616 12.163-84.657-3.65-90.8-4.97-6.147-1.315-35.666 1.449-110.476-.971-74.811-2.419-118.575-6.688-157.777-16.838-39.202-10.147-37.866-7.084-48.72-20.338 0 0-10.243 7.12-13.628 17.746 0 0-2.952-4.28-12.077-6.487 0 .001-.356-24.513 2.107-55.618"/><path fill="none" d="M324.046 386.625c2.397-30.262 5.875-60.003 5.875-60.003s15.771-11.067 39.013-15.421c23.248-4.354 69.55-3.667 80.988 32.843 11.441 36.51-7.453 54.098-13.687 59.853 0 0 69.031-1.947 142.606 20.813 73.576 22.763 58.743 7.43 81.978 11.499 23.231 4.066 40.919 9.313 61.677 11.152 20.763 1.834 37.541 14.572 32.921 26.74-4.616 12.163-84.657-3.65-90.8-4.97-6.147-1.315-35.666 1.449-110.476-.971-74.811-2.419-118.575-6.688-157.777-16.838-39.202-10.147-37.866-7.084-48.72-20.338 0 0-10.243 7.12-13.628 17.746 0 0-2.952-4.28-12.077-6.487 0 .001-.356-24.513 2.107-55.618zM156.879 400.526c-11.827 16.729 4.458 45.016 11.035 60.229"/><path fill="none" d="M569.863 468.611s6.128 17.45 0 33.929M584.151 426.333s3.229 30.711-1.359 42.692M329.918 326.622s-10.368 90.634-7.979 115.622M185.596 522.394c6.074-1.296 16.297 2.407 16.297 2.407M157.167 436.152c1.124-13.088 15.507-30.061 23.589-44.607s6.877-20.914 6.877-20.914"/><path fill="#FFF" d="M110.755 410.222c-8.181 4.267-15.906.048-25.96 1.186-15.97 1.812-30.843-18.518-29.105-36.707 2.291-24.018 86.857-21.568 87.774-7.562.541 8.294-6.89 23.054-20.786 33.423-4.47 3.334-11.923 9.66-11.923 9.66"/><path fill="none" d="M110.755 410.222c-8.181 4.267-15.906.048-25.96 1.186-15.97 1.812-30.843-18.518-29.105-36.707 2.291-24.018 86.857-21.568 87.774-7.562.541 8.294-6.89 23.054-20.786 33.423-4.47 3.334-11.923 9.66-11.923 9.66zM347.645 430.985c-6.705-17.296-8.167-23.084-1.938-54.942 6.226-31.86 9.458-37.838 9.458-37.838"/><path d="M64.143 367.865c13.353-1.358 26.349 13.577 24.733 21.823-1.616 8.241-1.78 14.061.97 14.871 2.746.807 7.271.159 7.595-2.263.323-2.428-.97-7.759 3.72-8.082 4.685-.323 16.646 6.789 20.041 16.323 3.395 9.536-4.364 22.467-19.071 27.154-14.711 4.688-35.159-7.563-46.069-22.146-5.261-7.031-8.087-16.002-7.847-23.76.395-12.787 2.829-22.587 15.928-23.92"/><path d="M83.701 433.167c7.175 5.188 16.596 8.84 18.32 21.771 1.723 12.932-7.329 17.237-4.311 25.217 3.018 7.971 22.122 22.771 22.551 35.914.429 13.146-10.052 11.711-9.835 26.153.185 12.349 23.922 11.204 21.336 38.573-1.243 13.131-89.441 14.225-87.931-3.447 1.508-17.669 15.765-24.406 15.335-34.321-.429-9.911-14.351-13.941-14.042-27.313.43-18.75 20.904-20.479 21.119-34.487.179-11.52-7.542-13.578-6.895-27.154.648-13.58 24.353-20.906 24.353-20.906"/><path fill="#FFF" d="M197.868 453.038c-.624-12.031-4.665-26.256-4.665-26.256"/><path fill="none" d="M197.868 453.038c-.624-12.031-4.665-26.256-4.665-26.256"/></g></svg>