<svg width="800" height="900" viewBox="0 0 800 900" fill="none" xmlns="http://www.w3.org/2000/svg">
<path d="M359.709 467.741C349.61 445.54 291.034 393.064 270.836 354.715C250.637 316.367 202.161 201.322 200.141 189.212C198.121 177.101 206.201 177.101 194.082 164.991C181.962 152.881 153.684 132.697 149.645 132.697C145.605 132.697 143.585 136.734 149.645 144.808C155.704 152.881 173.883 171.047 175.903 177.101C177.923 183.156 188.022 227.56 192.062 239.669C196.101 251.78 216.3 350.679 228.419 374.899C240.538 399.119 293.054 479.85 293.054 479.85L359.709 467.741Z" fill="white" stroke="black" stroke-width="5" stroke-miterlimit="10"/>
<path d="M359.709 467.741C349.61 445.54 291.034 393.064 270.836 354.715C250.637 316.367 202.161 201.322 200.141 189.212C198.121 177.101 206.201 177.101 194.082 164.991C181.962 152.881 153.684 132.697 149.645 132.697C145.605 132.697 143.585 136.734 149.645 144.808C155.704 152.881 173.883 171.047 175.903 177.101C177.923 183.156 188.022 227.56 192.062 239.669C196.101 251.78 216.3 350.679 228.419 374.899C240.538 399.119 293.054 479.85 293.054 479.85L359.709 467.741Z" stroke="black" stroke-width="5" stroke-miterlimit="10"/>
<path d="M358.605 491.902L387.642 471.088C387.642 471.088 412.233 502.601 428.042 522.859C443.854 543.116 470.943 570.87 483.24 586.626C495.537 602.383 510.623 644.924 519.404 656.176C528.185 667.431 533.455 674.184 533.455 674.184L506.901 674.968C506.901 674.968 498.364 661.71 462.034 659.253C425.704 656.795 417.167 643.538 410.887 628.524C404.606 613.511 408.347 599.738 391.03 575.226C373.711 550.714 365.424 535.454 359.908 530.704C354.387 525.953 352.633 523.703 352.633 523.703L358.605 491.902Z" fill="white" stroke="black" stroke-width="5" stroke-miterlimit="10"/>
<path d="M358.605 491.902L387.642 471.088C387.642 471.088 412.233 502.601 428.042 522.859C443.854 543.116 470.943 570.87 483.24 586.626C495.537 602.383 510.623 644.924 519.404 656.176C528.185 667.431 533.455 674.184 533.455 674.184L506.901 674.968C506.901 674.968 498.364 661.71 462.034 659.253C425.704 656.795 417.167 643.538 410.887 628.524C404.606 613.511 408.347 599.738 391.03 575.226C373.711 550.714 365.424 535.454 359.908 530.704C354.387 525.953 352.633 523.703 352.633 523.703L358.605 491.902Z" stroke="black" stroke-width="5" stroke-miterlimit="10"/>
<path d="M365.685 498.364C373.394 487.231 385.702 473.493 387.987 471.778C387.987 471.778 369.241 443.451 341.531 437.468C313.822 431.485 293.97 457.579 282.555 480.415C272.464 500.602 251.727 539.232 243.734 552.363C235.743 565.498 222.297 589.683 209.195 608.609C193.781 630.877 179.166 662.87 172.661 678.841C166.384 694.258 156.954 710.92 155.251 715.101C152.114 722.807 146.975 730.229 158.687 733.938C170.242 737.594 204.354 740.436 210.679 741.336C218.677 742.474 227.245 739.616 221.816 734.768C216.387 729.917 198.39 727.357 190.678 724.219C182.963 721.082 177.249 718.23 182.387 710.807C187.526 703.384 225.21 653.703 244.626 632.001C264.042 610.301 301.65 560.544 320.858 540.916C347.128 514.074 347.986 522.351 351.986 522.92C351.984 522.919 360.545 505.788 365.685 498.364Z" fill="white" stroke="black" stroke-width="5" stroke-miterlimit="10"/>
<path d="M365.685 498.364C373.394 487.231 385.702 473.493 387.987 471.778C387.987 471.778 369.241 443.451 341.531 437.468C313.822 431.485 293.97 457.579 282.555 480.415C272.464 500.602 251.727 539.232 243.734 552.363C235.743 565.498 222.297 589.683 209.195 608.609C193.781 630.877 179.166 662.87 172.661 678.841C166.384 694.258 156.954 710.92 155.251 715.101C152.114 722.807 146.975 730.229 158.687 733.938C170.242 737.594 204.354 740.436 210.679 741.336C218.677 742.474 227.245 739.616 221.816 734.768C216.387 729.917 198.39 727.357 190.678 724.219C182.963 721.082 177.249 718.23 182.387 710.807C187.526 703.384 225.21 653.703 244.626 632.001C264.042 610.301 301.65 560.544 320.858 540.916C347.128 514.074 347.986 522.351 351.986 522.92C351.984 522.919 360.545 505.788 365.685 498.364Z" stroke="black" stroke-width="5" stroke-miterlimit="10"/>
<path d="M171.887 680.707C175.52 687.401 195.751 692.869 195.751 692.869" stroke="black" stroke-width="5" stroke-miterlimit="10"/>
<path d="M501.149 619.843C492.537 610.146 475.49 599.905 461.727 612.439C447.962 624.974 452.309 647.57 465.572 659.535" stroke="black" stroke-width="5" stroke-miterlimit="10"/>
<path d="M537.642 665.088C543.553 670.562 542.462 678.15 546.404 686.077C552.669 698.672 540.694 716.855 525.462 720.764C505.348 725.924 481.908 655.708 492.963 650.847C499.507 647.965 513.682 649.746 526.242 658.124C530.281 660.82 537.642 665.088 537.642 665.088Z" fill="white" stroke="black" stroke-width="5" stroke-miterlimit="10"/>
<path d="M537.642 665.088C543.553 670.562 542.462 678.15 546.404 686.077C552.669 698.672 540.694 716.855 525.462 720.764C505.348 725.924 481.908 655.708 492.963 650.847C499.507 647.965 513.682 649.746 526.242 658.124C530.281 660.82 537.642 665.088 537.642 665.088Z" stroke="black" stroke-width="5" stroke-miterlimit="10"/>
<path d="M514.57 715.165C510.888 702.709 512.874 677.424 529.707 676.549C548.634 675.562 538.189 667.383 535.771 664.526C533.355 661.672 522.882 658.155 524.331 656.667C525.775 655.179 551.421 657.993 559.467 675.086C567.513 692.179 563.4 702.767 555.882 711.203C548.367 719.642 533.456 725.238 522.406 722.471C511.356 719.699 514.57 715.165 514.57 715.165Z" fill="black" stroke="black" stroke-width="5" stroke-miterlimit="10"/>
<path d="M490.458 621.553C499.024 629.757 498.878 643.666 509.99 661.253C522.577 681.18 545.966 704.456 545.966 704.456C548.065 706.925 552.994 708.918 555.801 710.698C559.284 712.902 562.772 715.102 566.255 717.305C573.224 721.711 580.187 726.12 587.115 730.577C600.305 739.065 602.813 743.062 616.633 750.506C616.633 750.506 623.489 752.651 636.429 754.345C646.13 755.619 662.45 756.82 660.666 760.401C660.034 761.661 623.797 767.074 608.151 760.401C591.222 753.183 588.307 750.295 571.793 742.236C559.64 736.309 543.984 730.451 533.416 722.053C495.788 692.153 477.392 658.735 470.012 642.269" fill="white"/>
<path d="M490.458 621.553C499.024 629.757 498.878 643.666 509.99 661.253C522.577 681.18 545.966 704.456 545.966 704.456C548.065 706.925 552.994 708.918 555.801 710.698C559.284 712.902 562.772 715.102 566.255 717.305C573.224 721.711 580.187 726.12 587.115 730.577C600.305 739.065 602.813 743.062 616.633 750.506C616.633 750.506 623.489 752.651 636.429 754.345C646.13 755.619 662.45 756.82 660.666 760.401C660.034 761.661 623.797 767.074 608.151 760.401C591.222 753.183 588.307 750.295 571.793 742.236C559.64 736.309 543.984 730.451 533.416 722.053C495.788 692.153 477.392 658.735 470.012 642.269" stroke="black" stroke-width="5" stroke-miterlimit="10"/>
<path d="M490.458 621.553C499.024 629.757 498.878 643.666 509.99 661.253C522.577 681.18 545.966 704.456 545.966 704.456C548.065 706.925 552.994 708.918 555.801 710.698C559.284 712.902 562.772 715.102 566.255 717.305C573.224 721.711 580.187 726.12 587.115 730.577C600.305 739.065 602.813 743.062 616.633 750.506C616.633 750.506 623.489 752.651 636.429 754.345C646.13 755.619 662.45 756.82 660.666 760.401C660.034 761.661 623.797 767.074 608.151 760.401C591.222 753.183 588.307 750.295 571.793 742.236C559.64 736.309 543.984 730.451 533.416 722.053C495.788 692.153 477.392 658.735 470.012 642.269" stroke="black" stroke-width="5" stroke-miterlimit="10"/>
<path d="M184.91 212.947C188.023 211.414 206.746 208.476 206.746 208.476" stroke="black" stroke-width="5" stroke-miterlimit="10"/>
</svg>
