<svg width="800" height="900" fill="none" xmlns="http://www.w3.org/2000/svg"><path d="M359.709 467.741c-10.099-22.201-68.675-74.677-88.873-113.026-20.199-38.348-68.675-153.393-70.695-165.503-2.02-12.111 6.06-12.111-6.059-24.221-12.12-12.11-40.398-32.294-44.437-32.294-4.04 0-6.06 4.037 0 12.111 6.059 8.073 24.238 26.239 26.258 32.293 2.02 6.055 12.119 50.459 16.159 62.568 4.039 12.111 24.238 111.01 36.357 135.23 12.119 24.22 64.635 104.951 64.635 104.951l66.655-12.109Z" fill="#fff" stroke="#000" stroke-width="5" stroke-miterlimit="10"/><path d="M359.709 467.741c-10.099-22.201-68.675-74.677-88.873-113.026-20.199-38.348-68.675-153.393-70.695-165.503-2.02-12.111 6.06-12.111-6.059-24.221-12.12-12.11-40.398-32.294-44.437-32.294-4.04 0-6.06 4.037 0 12.111 6.059 8.073 24.238 26.239 26.258 32.293 2.02 6.055 12.119 50.459 16.159 62.568 4.039 12.111 24.238 111.01 36.357 135.23 12.119 24.22 64.635 104.951 64.635 104.951l66.655-12.109Z" stroke="#000" stroke-width="5" stroke-miterlimit="10"/><path d="m358.605 491.902 29.037-20.814 40.4 51.771c15.812 20.257 42.901 48.011 55.198 63.767 12.297 15.757 27.383 58.298 36.164 69.55l14.051 18.008-26.554.784s-8.537-13.258-44.867-15.715c-36.33-2.458-44.867-15.715-51.147-30.729-6.281-15.013-2.54-28.786-19.857-53.298-17.319-24.512-25.606-39.772-31.122-44.522-5.521-4.751-7.275-7.001-7.275-7.001l5.972-31.801Z" fill="#fff" stroke="#000" stroke-width="5" stroke-miterlimit="10"/><path d="m358.605 491.902 29.037-20.814 40.4 51.771c15.812 20.257 42.901 48.011 55.198 63.767 12.297 15.757 27.383 58.298 36.164 69.55l14.051 18.008-26.554.784s-8.537-13.258-44.867-15.715c-36.33-2.458-44.867-15.715-51.147-30.729-6.281-15.013-2.54-28.786-19.857-53.298-17.319-24.512-25.606-39.772-31.122-44.522-5.521-4.751-7.275-7.001-7.275-7.001l5.972-31.801Z" stroke="#000" stroke-width="5" stroke-miterlimit="10"/><path d="M365.685 498.364c7.709-11.133 20.017-24.871 22.302-26.586 0 0-18.746-28.327-46.456-34.31-27.709-5.983-47.561 20.111-58.976 42.947-10.091 20.187-30.828 58.817-38.821 71.948-7.991 13.135-21.437 37.32-34.539 56.246-15.414 22.268-30.029 54.261-36.534 70.232-6.277 15.417-15.707 32.079-17.41 36.26-3.137 7.706-8.276 15.128 3.436 18.837 11.555 3.656 45.667 6.498 51.992 7.398 7.998 1.138 16.566-1.72 11.137-6.568-5.429-4.851-23.426-7.411-31.138-10.549-7.715-3.137-13.429-5.989-8.291-13.412 5.139-7.423 42.823-57.104 62.239-78.806 19.416-21.7 57.024-71.457 76.232-91.085 26.27-26.842 27.128-18.565 31.128-17.996-.002-.001 8.559-17.132 13.699-24.556Z" fill="#fff" stroke="#000" stroke-width="5" stroke-miterlimit="10"/><path d="M365.685 498.364c7.709-11.133 20.017-24.871 22.302-26.586 0 0-18.746-28.327-46.456-34.31-27.709-5.983-47.561 20.111-58.976 42.947-10.091 20.187-30.828 58.817-38.821 71.948-7.991 13.135-21.437 37.32-34.539 56.246-15.414 22.268-30.029 54.261-36.534 70.232-6.277 15.417-15.707 32.079-17.41 36.26-3.137 7.706-8.276 15.128 3.436 18.837 11.555 3.656 45.667 6.498 51.992 7.398 7.998 1.138 16.566-1.72 11.137-6.568-5.429-4.851-23.426-7.411-31.138-10.549-7.715-3.137-13.429-5.989-8.291-13.412 5.139-7.423 42.823-57.104 62.239-78.806 19.416-21.7 57.024-71.457 76.232-91.085 26.27-26.842 27.128-18.565 31.128-17.996-.002-.001 8.559-17.132 13.699-24.556Z" stroke="#000" stroke-width="5" stroke-miterlimit="10"/><path d="M171.887 680.707c3.633 6.694 23.864 12.162 23.864 12.162M501.149 619.843c-8.612-9.697-25.659-19.938-39.422-7.404-13.765 12.535-9.418 35.131 3.845 47.096" stroke="#000" stroke-width="5" stroke-miterlimit="10"/><path d="M537.642 665.088c5.911 5.474 4.82 13.062 8.762 20.989 6.265 12.595-5.71 30.778-20.942 34.687-20.114 5.16-43.554-65.056-32.499-69.917 6.544-2.882 20.719-1.101 33.279 7.277 4.039 2.696 11.4 6.964 11.4 6.964Z" fill="#fff" stroke="#000" stroke-width="5" stroke-miterlimit="10"/><path d="M537.642 665.088c5.911 5.474 4.82 13.062 8.762 20.989 6.265 12.595-5.71 30.778-20.942 34.687-20.114 5.16-43.554-65.056-32.499-69.917 6.544-2.882 20.719-1.101 33.279 7.277 4.039 2.696 11.4 6.964 11.4 6.964Z" stroke="#000" stroke-width="5" stroke-miterlimit="10"/><path d="M514.57 715.165c-3.682-12.456-1.696-37.741 15.137-38.616 18.927-.987 8.482-9.166 6.064-12.023-2.416-2.854-12.889-6.371-11.44-7.859 1.444-1.488 27.09 1.326 35.136 18.419 8.046 17.093 3.933 27.681-3.585 36.117-7.515 8.439-22.426 14.035-33.476 11.268-11.05-2.772-7.836-7.306-7.836-7.306Z" fill="#000" stroke="#000" stroke-width="5" stroke-miterlimit="10"/><path d="M490.458 621.553c8.566 8.204 8.42 22.113 19.532 39.7 12.587 19.927 35.976 43.203 35.976 43.203 2.099 2.469 7.028 4.462 9.835 6.242 3.483 2.204 6.971 4.404 10.454 6.607 6.969 4.406 13.932 8.815 20.86 13.272 13.19 8.488 15.698 12.485 29.518 19.929 0 0 6.856 2.145 19.796 3.839 9.701 1.274 26.021 2.475 24.237 6.056-.632 1.26-36.869 6.673-52.515 0-16.929-7.218-19.844-10.106-36.358-18.165-12.153-5.927-27.809-11.785-38.377-20.183-37.628-29.9-56.024-63.318-63.404-79.784" fill="#fff"/><path d="M490.458 621.553c8.566 8.204 8.42 22.113 19.532 39.7 12.587 19.927 35.976 43.203 35.976 43.203 2.099 2.469 7.028 4.462 9.835 6.242 3.483 2.204 6.971 4.404 10.454 6.607 6.969 4.406 13.932 8.815 20.86 13.272 13.19 8.488 15.698 12.485 29.518 19.929 0 0 6.856 2.145 19.796 3.839 9.701 1.274 26.021 2.475 24.237 6.056-.632 1.26-36.869 6.673-52.515 0-16.929-7.218-19.844-10.106-36.358-18.165-12.153-5.927-27.809-11.785-38.377-20.183-37.628-29.9-56.024-63.318-63.404-79.784" stroke="#000" stroke-width="5" stroke-miterlimit="10"/><path d="M490.458 621.553c8.566 8.204 8.42 22.113 19.532 39.7 12.587 19.927 35.976 43.203 35.976 43.203 2.099 2.469 7.028 4.462 9.835 6.242 3.483 2.204 6.971 4.404 10.454 6.607 6.969 4.406 13.932 8.815 20.86 13.272 13.19 8.488 15.698 12.485 29.518 19.929 0 0 6.856 2.145 19.796 3.839 9.701 1.274 26.021 2.475 24.237 6.056-.632 1.26-36.869 6.673-52.515 0-16.929-7.218-19.844-10.106-36.358-18.165-12.153-5.927-27.809-11.785-38.377-20.183-37.628-29.9-56.024-63.318-63.404-79.784M184.91 212.947c3.113-1.533 21.836-4.471 21.836-4.471" stroke="#000" stroke-width="5" stroke-miterlimit="10"/></svg>