<svg xmlns="http://www.w3.org/2000/svg" width="800" height="900" xml:space="preserve"><g stroke="#000" stroke-width="5" stroke-miterlimit="10"><path fill="#FFF" d="m459.392 416.458 57.628-20.956s-13.097-28.814-10.478-49.77 15.717-68.107 15.717-68.107-13.098-13.097-13.098-34.053c0-20.956 5.239-34.053 5.239-34.053s-26.195 0-36.674-15.717c-10.478-15.717 0-57.629 0-57.629h-36.673v5.239s2.619 26.195 0 44.532c-2.223 15.558-20.956 23.575-31.434 23.575 0 0 5.239 18.336 5.239 36.673 0 18.337-13.099 31.434-13.099 31.434s13.099 52.39 13.099 68.107c0 15.717-13.099 49.77-13.099 49.77l28.814 28.814 28.819-7.859z"/><path fill="none" d="m459.392 416.458 57.628-20.956s-13.097-28.814-10.478-49.77 15.717-68.107 15.717-68.107-13.098-13.097-13.098-34.053c0-20.956 5.239-34.053 5.239-34.053s-26.195 0-36.674-15.717c-10.478-15.717 0-57.629 0-57.629h-36.673v5.239s2.619 26.195 0 44.532c-2.223 15.558-20.956 23.575-31.434 23.575 0 0 5.239 18.336 5.239 36.673 0 18.337-13.099 31.434-13.099 31.434s13.099 52.39 13.099 68.107c0 15.717-13.099 49.77-13.099 49.77l28.814 28.814 28.819-7.859z"/><path fill="#FFF" d="M409.621 209.519c-13.097 0-26.195 20.956-34.053 60.248-8.283 41.421-18.336 83.824-10.479 99.541 7.858 15.717 94.301-57.628 96.92-68.106V261.91c0-5.239 0-10.478-2.619-10.478-5.238 0-5.805 13.302-7.857 23.576-2.62 13.097-2.62 18.336-5.239 23.575-4.971 9.943-47.151 28.814-55.008 34.053l10.477-55.009a40.509 40.509 0 0 0 18.904-37.722 40.325 40.325 0 0 0-3.344-13.051l-7.702-17.335z"/><path fill="none" d="M409.621 209.519c-13.097 0-26.195 20.956-34.053 60.248-8.283 41.421-18.336 83.824-10.479 99.541 7.858 15.717 94.301-57.628 96.92-68.106V261.91c0-5.239 0-10.478-2.619-10.478-5.238 0-5.805 13.302-7.857 23.576-2.62 13.097-2.62 18.336-5.239 23.575-4.971 9.943-47.151 28.814-55.008 34.053l10.477-55.009a40.509 40.509 0 0 0 18.904-37.722 40.325 40.325 0 0 0-3.344-13.051l-7.702-17.335z"/><path fill="#FFF" d="M514.4 209.519c13.098 0 26.194 20.956 34.054 60.248 8.28 41.421 18.336 83.824 10.478 99.541-7.857 15.717-94.302-57.628-96.921-68.106V261.91c0-5.239 0-10.478 2.619-10.478 5.239 0 5.806 13.302 7.858 23.576 2.62 13.097 2.62 18.336 5.238 23.575 4.972 9.943 47.151 28.814 55.011 34.053l-10.479-55.009a40.508 40.508 0 0 1-18.9-37.722 40.32 40.32 0 0 1 3.341-13.051l7.701-17.335z"/><path fill="none" d="M514.4 209.519c13.098 0 26.194 20.956 34.054 60.248 8.28 41.421 18.336 83.824 10.478 99.541-7.857 15.717-94.302-57.628-96.921-68.106V261.91c0-5.239 0-10.478 2.619-10.478 5.239 0 5.806 13.302 7.858 23.576 2.62 13.097 2.62 18.336 5.238 23.575 4.972 9.943 47.151 28.814 55.011 34.053l-10.479-55.009a40.508 40.508 0 0 1-18.9-37.722 40.32 40.32 0 0 1 3.341-13.051l7.701-17.335z"/><path fill="#FFF" d="M522.259 591.964c7.858-47.151 13.099-112.639 7.858-146.69-5.238-34.055-13.099-49.771-13.099-49.771s-32.874 7.585-56.385 7.846c-25.996-.261-58.872-7.846-58.872-7.846s-5.239 15.717-20.956 28.814c-18.982 15.82-75.965 36.673-104.779 62.867s-41.912 57.629-36.673 65.486c5.239 7.858 13.097 10.479 47.15 7.858 34.054-2.619 107.399-31.435 123.116-31.435s26.194 10.479 28.813 20.956c2.619 10.478 7.858 39.292 13.099 47.15 5.237 7.858 10.478 2.62 10.478-5.238 0-2.524 0-11.013-.087-21.882l.087 1.365s2.619 88.623 2.619 109.579 2.62 104.778 2.62 117.877c0 13.098 0 18.336-2.62 28.813-2.619 10.479 10.479 10.479 20.956 10.479 10.479 0 18.337-5.239 15.717-13.099-2.619-7.857-7.858-31.434-7.858-41.911 0-10.479 5.239-52.391 7.858-83.823 2.622-31.43 16.141-78.505 20.958-107.395"/><path fill="none" d="M522.259 591.964c7.858-47.151 13.099-112.639 7.858-146.69-5.238-34.055-13.099-49.771-13.099-49.771s-32.874 7.585-56.385 7.846c-25.996-.261-58.872-7.846-58.872-7.846s-5.239 15.717-20.956 28.814c-18.982 15.82-75.965 36.673-104.779 62.867s-41.912 57.629-36.673 65.486c5.239 7.858 13.097 10.479 47.15 7.858 34.054-2.619 107.399-31.435 123.116-31.435s26.194 10.479 28.813 20.956c2.619 10.478 7.858 39.292 13.099 47.15 5.237 7.858 10.478 2.62 10.478-5.238 0-2.524 0-11.013-.087-21.882l.087 1.365s2.619 88.623 2.619 109.579 2.62 104.778 2.62 117.877c0 13.098 0 18.336-2.62 28.813-2.619 10.479 10.479 10.479 20.956 10.479 10.479 0 18.337-5.239 15.717-13.099-2.619-7.857-7.858-31.434-7.858-41.911 0-10.479 5.239-52.391 7.858-83.823 2.622-31.43 16.141-78.505 20.958-107.395z"/><path fill="none" d="M296.983 518.618c15.717-13.099 47.151-18.337 75.965-18.337 28.813 0 52.389 0 62.868-2.619 10.478-2.62 19.483-4.925 23.078 0 5.734 7.857 3.115 13.098 3.115 34.054 0 20.955-.062 41.748-.062 41.748M420.473 207.58c15.342 12.417 38.916 12.417 38.916 12.417s23.79 1.363 40.709-12.417"/><path fill="#FFF" d="M438.003 134.761c-4.712-9.327.041-18.063-1.174-29.492-1.933-18.147 20.843-34.869 41.129-32.751 26.786 2.804 23.57 98.817 7.933 99.738-9.261.547-25.686-8.01-37.174-23.877-3.696-5.1-10.714-13.618-10.714-13.618"/><path fill="none" d="M438.003 134.761c-4.712-9.327.041-18.063-1.174-29.492-1.933-18.147 20.843-34.869 41.129-32.751 26.786 2.804 23.57 98.817 7.933 99.738-9.261.547-25.686-8.01-37.174-23.877-3.696-5.1-10.714-13.618-10.714-13.618z"/><path d="M488.669 84.244c-1.149 16.819-14.985 46.685-35.85 40.154-23.458-7.344-14.448 7.324-12.798 11.887 1.649 4.564 12.789 13.571 10.359 14.727-2.428 1.162-32.337-13.839-34.397-38.266-2.064-24.428 7.72-35.453 20.669-42.327 12.945-6.874 33.604-6.955 45.785 1.402 12.187 8.355 6.232 12.423 6.232 12.423"/><path fill="none" d="M466.636 769.661c8.47 3.047 23.368 2.197 27.707 0M411.575 499.944c3.285 5.579 4.571 24.029 0 29.21"/><path d="M465.753 130.123c-6.08-6.526-7.592-12.041-4.507-14.809 3.09-2.773 9.092-4.525 12.284-9.334 3.191-4.807-6.438-13.785-6.117-19.566.322-5.782 8.171-8.995 11.036-5.702 2.861 3.295 2.668-1.998-.172-5.932-2.604-3.607-15.222-21.12-40.188-8.419-20.168 10.261-28.799 21.9-25.826 45.071 2.976 23.179 19.177 29.83 8.293 48.01-13.461 22.491-34.835 9.411-51.782 39.809-6.479 11.614-.257 36.179 9.836 49.182 10.836 13.965 31.448 23.693 41.775 23.535 24.859-.371 26.976-10.046 26.976-10.046l-8.16-33.841s12.366-71.361 16.86-86.402c4.494-15.04 9.692-11.556 9.692-11.556"/></g></svg>