<svg xmlns="http://www.w3.org/2000/svg" width="800" height="900" xml:space="preserve"><g stroke="#000" stroke-width="5" stroke-miterlimit="10"><path fill="#FFF" d="M616.695 556.744c7.033 13.416 18.286 33.188 24.673 39.712 0 0 26.922-22.367 44.874-49.521 17.952-27.149 20.548-53.899 30.245-76.313 9.694-22.416 15.512-15.26 15.186-38.36-.328-23.1-30.91-42.393-41.766-62.367-10.848-19.972-11.945-24.684-7.468-53.407 4.476-28.723 9.41-34.108 9.41-34.108s-35.45-13.198-35.45-5.814c0 7.387-2.919 35.21-6.285 52.263-3.366 17.055-15.611 35.208-20.371 53.955-4.76 18.748-1.131 63.354-3.172 85.143-2.037 21.79-2.082 28.575-8.681 38.31-6.596 9.734-12.638 11.758-12.638 11.758s1.585 19.948 11.443 38.749"/><path fill="none" d="M616.695 556.744c7.033 13.416 18.286 33.188 24.673 39.712 0 0 26.922-22.367 44.874-49.521 17.952-27.149 20.548-53.899 30.245-76.313 9.694-22.416 15.512-15.26 15.186-38.36-.328-23.1-30.91-42.393-41.766-62.367-10.848-19.972-11.945-24.684-7.468-53.407 4.476-28.723 9.41-34.108 9.41-34.108s-35.45-13.198-35.45-5.814c0 7.387-2.919 35.21-6.285 52.263-3.366 17.055-15.611 35.208-20.371 53.955-4.76 18.748-1.131 63.354-3.172 85.143-2.037 21.79-2.082 28.575-8.681 38.31-6.596 9.734-12.638 11.758-12.638 11.758s1.585 19.948 11.443 38.749z"/><path fill="#FFF" d="M660.198 300.55c-8.978-3.43-11.022-12.364-18.854-19.408-12.442-11.194-6.871-36.823 8.501-48.033 20.296-14.799 76.792 52.785 66.511 63.17-6.091 6.151-22.72 10.553-40.396 6.888-5.685-1.178-15.762-2.617-15.762-2.617"/><path fill="none" d="M660.198 300.55c-8.978-3.43-11.022-12.364-18.854-19.408-12.442-11.194-6.871-36.823 8.501-48.033 20.296-14.799 76.792 52.785 66.511 63.17-6.091 6.151-22.72 10.553-40.396 6.888-5.685-1.178-15.762-2.617-15.762-2.617z"/><path d="M661.009 234.979c10.276 9.465 7.617 29.906.079 34.341-7.542 4.432-12.186 8.325-10.919 11.023 1.268 2.701 4.896 5.781 7.011 4.357 2.112-1.423 5.375-6.113 8.864-2.685 3.49 3.431 6.209 17.662 1.123 26.892-5.086 9.231-20.521 12.117-34.332 3.892-13.811-8.221-18.386-32.617-14.56-51.186 1.843-8.955 6.882-17.354 13.093-22.523 10.236-8.523 19.554-13.397 29.641-4.111"/><path d="M623.637 295.316c.913 9.172 4.576 19.033-4.31 29.308-8.883 10.272-18.492 6.198-22.624 14.055-4.13 7.859-2.466 32.962-12.413 42.376-9.947 9.417-16.063.257-27.166 10.398-9.498 8.674 7.789 26.377-15.325 43.267-11.085 8.1-72.85-59.865-58.037-70.896 14.811-11.027 29.905-4.573 37.331-11.754 7.427-7.184.953-20.809 11.587-29.805 14.907-12.613 30.391 2.148 41.454-7.359 9.099-7.818 5.368-15.254 16.396-24.126 11.024-8.873 33.107 4.536 33.107 4.536"/><path fill="none" d="M645.231 344.209s40.247 59.479 68.716 54.807"/><path fill="#FFF" d="M613.09 548.955c12.096 27.646 28.278 47.499 28.278 47.499s-40.599 28.551-81.289 43.027c-40.691 14.473-77.084 25.319-114.378 25.7-37.288.384-116.294-1.107-165.385-4.415-49.093-3.307-102.633-9.906-128.026-8.855-25.398 1.049-65.953 11.134-92.209 10.72-26.256-.412 6.759-20.923 10.673-22.657 3.913-1.735 45.041-12.179 53.198-15.919 8.156-3.742 9.992-8.625 19.088-7.864 9.096.756 14.322 7.381 34.003 4.979s108.198-12.269 140.783-15.313c32.584-3.048 82.813-3.462 129.573-20.979 46.763-17.521 54.577-41.805 97.567-57.374 0 0 10.116-3.677 29.191-3.568 19.072.113 31.095-5.944 31.095-5.944s1.436 16.326 7.838 30.963"/><path fill="none" d="M613.09 548.955c12.096 27.646 28.278 47.499 28.278 47.499s-40.599 28.551-81.289 43.027c-40.691 14.473-77.084 25.319-114.378 25.7-37.288.384-116.294-1.107-165.385-4.415-49.093-3.307-102.633-9.906-128.026-8.855-25.398 1.049-65.953 11.134-92.209 10.72-26.256-.412 6.759-20.923 10.673-22.657 3.913-1.735 45.041-12.179 53.198-15.919 8.156-3.742 9.992-8.625 19.088-7.864 9.096.756 14.322 7.381 34.003 4.979s108.198-12.269 140.783-15.313c32.584-3.048 82.813-3.462 129.573-20.979 46.763-17.521 54.577-41.805 97.567-57.374 0 0 10.116-3.677 29.191-3.568 19.072.113 31.095-5.944 31.095-5.944s1.436 16.326 7.838 30.963z"/><path fill="#FFF" d="M646.243 374.099c8.858-.975 27.419 10.523 26.252 30.522-1.168 19.996-10.604 79.039-9.257 112.023 1.347 32.985 12.218 120.327 17.871 130.597 5.649 10.267 15.299 5.342 28.08 7.382 12.785 2.042 37.692 7.594 40.386 11.804 2.692 4.204-9.055 3.514-11.443 3.459-2.388-.054-57.112.789-63.118-.892-6.006-1.684-12.905.219-17.665-25.627-4.76-25.841-20.604-70.074-25.406-108.953-4.806-38.883-3.001-123.007-2.692-135.211.3-12.204 3.248-23.591 16.992-25.104"/><path fill="none" d="M646.243 374.099c8.858-.975 27.419 10.523 26.252 30.522-1.168 19.996-10.604 79.039-9.257 112.023 1.347 32.985 12.218 120.327 17.871 130.597 5.649 10.267 15.299 5.342 28.08 7.382 12.785 2.042 37.692 7.594 40.386 11.804 2.692 4.204-9.055 3.514-11.443 3.459-2.388-.054-57.112.789-63.118-.892-6.006-1.684-12.905.219-17.665-25.627-4.76-25.841-20.604-70.074-25.406-108.953-4.806-38.883-3.001-123.007-2.692-135.211.3-12.204 3.248-23.591 16.992-25.104zM195.998 618.96c-2.968 8.758-3.61 34.523-3.61 34.523"/></g></svg>