<svg width="800" height="900" viewBox="0 0 800 900" fill="none" xmlns="http://www.w3.org/2000/svg">
<path d="M343.858 279.511C349.275 261.016 356.781 242.156 363.715 235.898C363.715 235.898 343.928 239.425 312.322 240.743C280.716 242.059 275.794 237.832 260.855 244.649C245.914 251.469 221.097 276.374 206.132 297.516C191.163 318.658 167.947 331.522 157.923 345.694C147.893 359.87 142.249 372.292 149.965 419.532C157.676 466.767 141.496 490.671 141.496 490.671L185.711 507.418C185.711 507.418 183.262 473.734 202.451 454.537C221.641 435.341 234.434 434.021 249.861 415.2C265.288 396.381 280.174 352.09 306.813 338.335C306.813 338.335 317.842 331.307 332.017 331.991C332.017 331.991 336.635 304.169 343.858 279.511Z" fill="white" stroke="black" stroke-width="5" stroke-miterlimit="10"/>
<path d="M343.858 279.511C349.275 261.016 356.781 242.156 363.715 235.898C363.715 235.898 343.928 239.425 312.322 240.743C280.716 242.059 275.794 237.832 260.855 244.649C245.914 251.469 221.097 276.374 206.132 297.516C191.163 318.658 167.947 331.522 157.923 345.694C147.893 359.87 142.249 372.292 149.965 419.532C157.676 466.767 141.496 490.671 141.496 490.671L185.711 507.418C185.711 507.418 183.262 473.734 202.451 454.537C221.641 435.341 234.434 434.021 249.861 415.2C265.288 396.381 280.174 352.09 306.813 338.335C306.813 338.335 317.842 331.307 332.017 331.991C332.017 331.991 336.635 304.169 343.858 279.511Z" stroke="black" stroke-width="5" stroke-miterlimit="10"/>
<path d="M171.218 483.773C179.907 490.357 179.452 500.728 185.825 510.881C195.946 527.015 182.262 553.122 162.279 560.427C135.894 570.079 94.9337 478.591 109.166 470.562C117.595 465.805 136.907 466.305 154.941 475.911C160.742 479.006 171.218 483.773 171.218 483.773Z" fill="white" stroke="black" stroke-width="5" stroke-miterlimit="10"/>
<path d="M171.218 483.773C179.907 490.357 179.452 500.728 185.825 510.881C195.946 527.015 182.262 553.122 162.279 560.427C135.894 570.079 94.9337 478.591 109.166 470.562C117.595 465.805 136.907 466.305 154.941 475.911C160.742 479.006 171.218 483.773 171.218 483.773Z" stroke="black" stroke-width="5" stroke-miterlimit="10"/>
<path d="M397.359 655.905C376.861 661.318 329.111 660.404 288.24 659.669C252.545 659.029 218.252 660.731 199.618 651.285C156.52 629.442 144.316 565.733 143.081 537.538C142.581 531.85 142.769 525.884 143.919 520.424C143.931 520.35 143.919 520.267 143.951 520.2C143.963 520.177 143.975 520.153 143.986 520.132C146.167 510.12 151.612 501.868 162.077 500.275C187.422 496.41 172.262 486.791 168.626 483.266C164.99 479.743 165.833 478.565 167.579 476.366C169.326 474.168 190.362 470.111 203.483 492.065C204.227 493.311 204.911 494.521 205.559 495.712C206.114 496.735 207.046 497.459 208.163 497.797C218.317 500.881 233.773 502.464 244.468 527.556C277.264 604.514 301.719 600.809 322.731 593.802C390.406 571.244 404.063 633.523 405.539 642.191C406.659 648.768 405.586 653.732 397.359 655.905Z" fill="#100200" stroke="black" stroke-width="5" stroke-miterlimit="10"/>
<path d="M343.867 279.479C353.216 253.647 356.249 241.592 365.329 235.896C365.329 235.896 385.697 233.087 434.736 265.144C483.772 297.2 586.624 358.065 614.466 398.771C614.466 398.771 617.641 400.203 617.921 410.934C618.197 421.667 614.508 481.26 608.652 527.351C602.794 573.436 602.427 602.332 607.941 617.136C613.461 631.941 660.482 644.05 669.795 645.868C679.109 647.686 691.901 650.686 693.406 652.878C694.912 655.066 691.284 661.388 687.117 662.977C682.947 664.562 594.274 664.323 585.871 663.63C577.464 662.932 566.372 656.736 568.592 638.694C570.821 620.651 570.068 604.592 569.061 585.772C568.057 566.952 553.825 512.813 554.986 482.375C556.144 451.936 559.532 429.691 559.532 429.691C559.532 429.691 510.066 422.707 467.165 401.452C424.258 380.197 432.354 377.516 390.59 378.481C348.824 379.444 344.209 341.358 339.552 335.652C339.552 335.652 335.898 331.991 332.012 331.991C332.012 331.992 339.805 290.702 343.867 279.479Z" fill="white" stroke="black" stroke-width="5" stroke-miterlimit="10"/>
<path d="M343.867 279.479C353.216 253.647 356.249 241.592 365.329 235.896C365.329 235.896 385.697 233.087 434.736 265.144C483.772 297.2 586.624 358.065 614.466 398.771C614.466 398.771 617.641 400.203 617.921 410.934C618.197 421.667 614.508 481.26 608.652 527.351C602.794 573.436 602.427 602.332 607.941 617.136C613.461 631.941 660.482 644.05 669.795 645.868C679.109 647.686 691.901 650.686 693.406 652.878C694.912 655.066 691.284 661.388 687.117 662.977C682.947 664.562 594.274 664.323 585.871 663.63C577.464 662.932 566.372 656.736 568.592 638.694C570.821 620.651 570.068 604.592 569.061 585.772C568.057 566.952 553.825 512.813 554.986 482.375C556.144 451.936 559.532 429.691 559.532 429.691C559.532 429.691 510.066 422.707 467.165 401.452C424.258 380.197 432.354 377.516 390.59 378.481C348.824 379.444 344.209 341.358 339.552 335.652C339.552 335.652 335.898 331.991 332.012 331.991C332.012 331.992 339.805 290.702 343.867 279.479Z" stroke="black" stroke-width="5" stroke-miterlimit="10"/>
<path d="M567.434 572.695C567.434 572.695 588.69 575.732 605.174 569.907Z" fill="white"/>
<path d="M567.434 572.695C567.434 572.695 588.69 575.732 605.174 569.907" stroke="black" stroke-width="5" stroke-miterlimit="10"/>
<path d="M567.434 572.695C567.434 572.695 588.69 575.732 605.174 569.907" stroke="black" stroke-width="5" stroke-miterlimit="10"/>
<path d="M332.016 331.99C332.016 331.99 343.909 254.786 365.327 235.896Z" fill="white"/>
<path d="M332.016 331.99C332.016 331.99 343.909 254.786 365.327 235.896" stroke="black" stroke-width="5" stroke-miterlimit="10"/>
<path d="M332.016 331.99C332.016 331.99 343.909 254.786 365.327 235.896" stroke="black" stroke-width="5" stroke-miterlimit="10"/>
<path d="M151.695 434.229C169.042 437.611 190.036 462.814 190.036 462.814" stroke="black" stroke-width="5" stroke-miterlimit="10"/>
<path d="M232.419 431.374L218.855 495L221.448 634.172C221.789 638.639 224.97 642.374 229.323 643.435C242.845 646.734 275.357 649.037 291.233 657.197C294.861 659.057 293.497 662.884 289.419 662.928L215.35 661.985C207.122 661.802 200.176 655.844 198.759 647.734C192.892 614.123 181.739 528.894 177.306 503.343C171.727 471.2 175.404 415.982 175.404 415.982" fill="white"/>
<path d="M232.419 431.374L218.855 495L221.448 634.172C221.789 638.639 224.97 642.374 229.323 643.435C242.845 646.734 275.357 649.037 291.233 657.197C294.861 659.057 293.497 662.884 289.419 662.928L215.35 661.985C207.122 661.802 200.176 655.844 198.759 647.734C192.892 614.123 181.739 528.894 177.306 503.343C171.727 471.2 175.404 415.982 175.404 415.982" stroke="black" stroke-width="5" stroke-miterlimit="10"/>
<path d="M232.419 431.374L218.855 495L221.448 634.172C221.789 638.639 224.97 642.374 229.323 643.435C242.845 646.734 275.357 649.037 291.233 657.197C294.861 659.057 293.497 662.884 289.419 662.928L215.35 661.985C207.122 661.802 200.176 655.844 198.759 647.734C192.892 614.123 181.739 528.894 177.306 503.343C171.727 471.2 175.404 415.982 175.404 415.982" stroke="black" stroke-width="5" stroke-miterlimit="10"/>
<path d="M198.758 647.733C201.886 644.237 215.566 637.63 222.926 638.77Z" fill="white"/>
<path d="M198.758 647.733C201.886 644.237 215.566 637.63 222.926 638.77" stroke="black" stroke-width="5" stroke-miterlimit="10"/>
<path d="M198.758 647.733C201.886 644.237 215.566 637.63 222.926 638.77" stroke="black" stroke-width="5" stroke-miterlimit="10"/>
</svg>
