<svg width="800" height="900" fill="none" xmlns="http://www.w3.org/2000/svg"><path d="M343.858 279.511c5.417-18.495 12.923-37.355 19.857-43.613 0 0-19.787 3.527-51.393 4.845-31.606 1.316-36.528-2.911-51.467 3.906-14.941 6.82-39.758 31.725-54.723 52.867-14.969 21.142-38.185 34.006-48.209 48.178-10.03 14.176-15.674 26.598-7.958 73.838 7.711 47.235-8.469 71.139-8.469 71.139l44.215 16.747s-2.449-33.684 16.74-52.881c19.19-19.196 31.983-20.516 47.41-39.337 15.427-18.819 30.313-63.11 56.952-76.865 0 0 11.029-7.028 25.204-6.344 0 0 4.618-27.822 11.841-52.48Z" fill="#fff" stroke="#000" stroke-width="5" stroke-miterlimit="10"/><path d="M343.858 279.511c5.417-18.495 12.923-37.355 19.857-43.613 0 0-19.787 3.527-51.393 4.845-31.606 1.316-36.528-2.911-51.467 3.906-14.941 6.82-39.758 31.725-54.723 52.867-14.969 21.142-38.185 34.006-48.209 48.178-10.03 14.176-15.674 26.598-7.958 73.838 7.711 47.235-8.469 71.139-8.469 71.139l44.215 16.747s-2.449-33.684 16.74-52.881c19.19-19.196 31.983-20.516 47.41-39.337 15.427-18.819 30.313-63.11 56.952-76.865 0 0 11.029-7.028 25.204-6.344 0 0 4.618-27.822 11.841-52.48Z" stroke="#000" stroke-width="5" stroke-miterlimit="10"/><path d="M171.218 483.773c8.689 6.584 8.234 16.955 14.607 27.108 10.121 16.134-3.563 42.241-23.546 49.546-26.385 9.652-67.345-81.836-53.113-89.865 8.429-4.757 27.741-4.257 45.775 5.349 5.801 3.095 16.277 7.862 16.277 7.862Z" fill="#fff" stroke="#000" stroke-width="5" stroke-miterlimit="10"/><path d="M171.218 483.773c8.689 6.584 8.234 16.955 14.607 27.108 10.121 16.134-3.563 42.241-23.546 49.546-26.385 9.652-67.345-81.836-53.113-89.865 8.429-4.757 27.741-4.257 45.775 5.349 5.801 3.095 16.277 7.862 16.277 7.862Z" stroke="#000" stroke-width="5" stroke-miterlimit="10"/><path d="M397.359 655.905c-20.498 5.413-68.248 4.499-109.119 3.764-35.695-.64-69.988 1.062-88.622-8.384-43.098-21.843-55.302-85.552-56.537-113.747-.5-5.688-.312-11.654.838-17.114.012-.074 0-.157.032-.224l.035-.068c2.181-10.012 7.626-18.264 18.091-19.857 25.345-3.865 10.185-13.484 6.549-17.009-3.636-3.523-2.793-4.701-1.047-6.9 1.747-2.198 22.783-6.255 35.904 15.699a104.391 104.391 0 0 1 2.076 3.647c.555 1.023 1.487 1.747 2.604 2.085 10.154 3.084 25.61 4.667 36.305 29.759 32.796 76.958 57.251 73.253 78.263 66.246 67.675-22.558 81.332 39.721 82.808 48.389 1.12 6.577.047 11.541-8.18 13.714Z" fill="#100200" stroke="#000" stroke-width="5" stroke-miterlimit="10"/><path d="M343.867 279.479c9.349-25.832 12.382-37.887 21.462-43.583 0 0 20.368-2.809 69.407 29.248 49.036 32.056 151.888 92.921 179.73 133.627 0 0 3.175 1.432 3.455 12.163.276 10.733-3.413 70.326-9.269 116.417-5.858 46.085-6.225 74.981-.711 89.785 5.52 14.805 52.541 26.914 61.854 28.732 9.314 1.818 22.106 4.818 23.611 7.01 1.506 2.188-2.122 8.51-6.289 10.099-4.17 1.585-92.843 1.346-101.246.653-8.407-.698-19.499-6.894-17.279-24.936 2.229-18.043 1.476-34.102.469-52.922-1.004-18.82-15.236-72.959-14.075-103.397 1.158-30.439 4.546-52.684 4.546-52.684s-49.466-6.984-92.367-28.239c-42.907-21.255-34.811-23.936-76.575-22.971-41.766.963-46.381-37.123-51.038-42.829 0 0-3.654-3.661-7.54-3.661 0 .001 7.793-41.289 11.855-52.512Z" fill="#fff" stroke="#000" stroke-width="5" stroke-miterlimit="10"/><path d="M343.867 279.479c9.349-25.832 12.382-37.887 21.462-43.583 0 0 20.368-2.809 69.407 29.248 49.036 32.056 151.888 92.921 179.73 133.627 0 0 3.175 1.432 3.455 12.163.276 10.733-3.413 70.326-9.269 116.417-5.858 46.085-6.225 74.981-.711 89.785 5.52 14.805 52.541 26.914 61.854 28.732 9.314 1.818 22.106 4.818 23.611 7.01 1.506 2.188-2.122 8.51-6.289 10.099-4.17 1.585-92.843 1.346-101.246.653-8.407-.698-19.499-6.894-17.279-24.936 2.229-18.043 1.476-34.102.469-52.922-1.004-18.82-15.236-72.959-14.075-103.397 1.158-30.439 4.546-52.684 4.546-52.684s-49.466-6.984-92.367-28.239c-42.907-21.255-34.811-23.936-76.575-22.971-41.766.963-46.381-37.123-51.038-42.829 0 0-3.654-3.661-7.54-3.661 0 .001 7.793-41.289 11.855-52.512Z" stroke="#000" stroke-width="5" stroke-miterlimit="10"/><path d="M567.434 572.695s21.256 3.037 37.74-2.788Z" fill="#fff"/><path d="M567.434 572.695s21.256 3.037 37.74-2.788" stroke="#000" stroke-width="5" stroke-miterlimit="10"/><path d="M567.434 572.695s21.256 3.037 37.74-2.788" stroke="#000" stroke-width="5" stroke-miterlimit="10"/><path d="M332.016 331.99s11.893-77.204 33.311-96.094Z" fill="#fff"/><path d="M332.016 331.99s11.893-77.204 33.311-96.094" stroke="#000" stroke-width="5" stroke-miterlimit="10"/><path d="M332.016 331.99s11.893-77.204 33.311-96.094M151.695 434.229c17.347 3.382 38.341 28.585 38.341 28.585" stroke="#000" stroke-width="5" stroke-miterlimit="10"/><path d="M232.419 431.374 218.855 495l2.593 139.172a10.35 10.35 0 0 0 7.875 9.263c13.522 3.299 46.034 5.602 61.91 13.762 3.628 1.86 2.264 5.687-1.814 5.731l-74.069-.943a17.216 17.216 0 0 1-16.591-14.251c-5.867-33.611-17.02-118.84-21.453-144.391-5.579-32.143-1.902-87.361-1.902-87.361" fill="#fff"/><path d="M232.419 431.374 218.855 495l2.593 139.172a10.35 10.35 0 0 0 7.875 9.263c13.522 3.299 46.034 5.602 61.91 13.762 3.628 1.86 2.264 5.687-1.814 5.731l-74.069-.943a17.216 17.216 0 0 1-16.591-14.251c-5.867-33.611-17.02-118.84-21.453-144.391-5.579-32.143-1.902-87.361-1.902-87.361" stroke="#000" stroke-width="5" stroke-miterlimit="10"/><path d="M232.419 431.374 218.855 495l2.593 139.172a10.35 10.35 0 0 0 7.875 9.263c13.522 3.299 46.034 5.602 61.91 13.762 3.628 1.86 2.264 5.687-1.814 5.731l-74.069-.943a17.216 17.216 0 0 1-16.591-14.251c-5.867-33.611-17.02-118.84-21.453-144.391-5.579-32.143-1.902-87.361-1.902-87.361" stroke="#000" stroke-width="5" stroke-miterlimit="10"/><path d="M198.758 647.733c3.128-3.496 16.808-10.103 24.168-8.963Z" fill="#fff"/><path d="M198.758 647.733c3.128-3.496 16.808-10.103 24.168-8.963" stroke="#000" stroke-width="5" stroke-miterlimit="10"/><path d="M198.758 647.733c3.128-3.496 16.808-10.103 24.168-8.963" stroke="#000" stroke-width="5" stroke-miterlimit="10"/></svg>