<svg xmlns="http://www.w3.org/2000/svg" width="800" height="900" xml:space="preserve"><g stroke="#000" stroke-width="5" stroke-miterlimit="10"><path fill="#FFF" d="M452.631 524.236c23.942-4.22 27.689-5.164 27.689-5.164s2.408 25.791 2.408 31.299c0 2.406 27.982 6.385 38.521 7.223 10.538.836 102.821 16.224 117.13 21.338 14.316 5.117 22.935 2.453 27.554 15.019 4.62 12.57-15.271 97.438-17.948 119.979-2.679 22.54-5.118 50.789.6 59.418 5.719 8.627 50.531 18.74 56.586 20.326 6.054 1.586 11.447 3.252 11.739 5.355.292 2.103-.638 6.303-9.753 7.162-9.115.862-77.715 1.709-81.042-.492-3.332-2.201-10.112-5.015-9.138-20.703.972-15.697.409-39.84-1.998-64.115-2.407-24.274-12.24-71.826.399-100.918 0 0-45.31 12.939-88.266 13.881-42.953.947-77.86-7.979-86.339-11.18 0 0-98.369 38.93-119.355 48.088-20.987 9.158-127.21 53.947-158.187 66.332-30.977 12.387-45.255 20.41-48.495 27.885-3.247 7.478-.983 21.65 4.756 26.552 5.739 4.9 10.453 4.899 13.162 7.006 2.708 2.106 2.941 5.819-5.816 5.819-8.761 0-26.216 1.853-36.732-13.315-10.517-15.176-8.243-21.129 0-29.588 8.241-8.459 9.724-16.314 26.187-32.449s122.205-80.592 164.196-99.17c41.992-18.576 80.137-59.998 101.119-74.635 19.228-13.414 26.622-9.035 28.892-16.854 1.354-4.672 2.407-9.631 2.407-9.631s25.822-2.013 39.724-4.468"/><path fill="none" d="M452.631 524.236c23.942-4.22 27.689-5.164 27.689-5.164s2.408 25.791 2.408 31.299c0 2.406 27.982 6.385 38.521 7.223 10.538.836 102.821 16.224 117.13 21.338 14.316 5.117 22.935 2.453 27.554 15.019 4.62 12.57-15.271 97.438-17.948 119.979-2.679 22.54-5.118 50.789.6 59.418 5.719 8.627 50.531 18.74 56.586 20.326 6.054 1.586 11.447 3.252 11.739 5.355.292 2.103-.638 6.303-9.753 7.162-9.115.862-77.715 1.709-81.042-.492-3.332-2.201-10.112-5.015-9.138-20.703.972-15.697.409-39.84-1.998-64.115-2.407-24.274-12.24-71.826.399-100.918 0 0-45.31 12.939-88.266 13.881-42.953.947-77.86-7.979-86.339-11.18 0 0-98.369 38.93-119.355 48.088-20.987 9.158-127.21 53.947-158.187 66.332-30.977 12.387-45.255 20.41-48.495 27.885-3.247 7.478-.983 21.65 4.756 26.552 5.739 4.9 10.453 4.899 13.162 7.006 2.708 2.106 2.941 5.819-5.816 5.819-8.761 0-26.216 1.853-36.732-13.315-10.517-15.176-8.243-21.129 0-29.588 8.241-8.459 9.724-16.314 26.187-32.449s122.205-80.592 164.196-99.17c41.992-18.576 80.137-59.998 101.119-74.635 19.228-13.414 26.622-9.035 28.892-16.854 1.354-4.672 2.407-9.631 2.407-9.631s25.822-2.013 39.724-4.468zM616.019 732.824h29.58M141.344 709.621l20.332 28.168M141.344 709.621l20.332 28.168"/><path fill="#FFF" d="M444.738 530.82c18.306-1.211 36.664-2.992 36.664-2.992s-.202-45.891 2.655-58.439c2.864-12.545 4.491-12.877 10.102-20.563 5.61-7.679 6.272-18.95.202-30.929-6.063-11.986-31.877-42.52-34.199-54.792-2.323-12.276-13.242-26.73-3.917-48.679l-31.299-24.076s-14.229 80.699-14.789 103.534c-.561 22.837 4.729 76.577 4.48 92.577-.244 16.002-2.731 43.625-2.731 43.625s22.033 1.449 32.832.734"/><path fill="none" d="M444.738 530.82c18.306-1.211 36.664-2.992 36.664-2.992s-.202-45.891 2.655-58.439c2.864-12.545 4.491-12.877 10.102-20.563 5.61-7.679 6.272-18.95.202-30.929-6.063-11.986-31.877-42.52-34.199-54.792-2.323-12.276-13.242-26.73-3.917-48.679l-31.299-24.076s-14.229 80.699-14.789 103.534c-.561 22.837 4.729 76.577 4.48 92.577-.244 16.002-2.731 43.625-2.731 43.625s22.033 1.449 32.832.734z"/><path fill="#FFF" d="M433.509 305.917c-4.684-4.354-5.104-9.29-8.229-15.596-4.952-10.013 6.398-22.952 17.836-27.96 11.436-5.008 33.325 52.175 24.543 56.024-5.203 2.276-18.115 1.989-27.261-5.763-5.262-4.457-6.889-6.705-6.889-6.705"/><path fill="none" d="M433.509 305.917c-4.684-4.354-5.104-9.29-8.229-15.596-4.952-10.013 6.398-22.952 17.836-27.96 11.436-5.008 33.325 52.175 24.543 56.024-5.203 2.276-18.115 1.989-27.261-5.763-5.262-4.457-6.889-6.705-6.889-6.705zM436.998 349.64s19.646 26.312 27.402 21.861"/><path d="M437.85 310.384c-5.589-5.998-6.979-11.067-4.143-13.611 2.84-2.548 8.355-4.159 11.29-8.579 2.935-4.418-5.916-12.67-5.622-17.984.297-5.313 7.51-8.267 10.145-5.241 2.631 3.028 2.451-1.836-.158-5.452-2.395-3.315-13.989-19.411-36.938-7.738-18.537 9.431-26.47 20.128-23.738 41.425 2.735 21.304 17.625 27.417 7.623 44.126-12.372 20.671-32.018 8.65-47.595 36.589-5.955 10.674-.235 33.253 9.041 45.204 9.959 12.835 28.905 21.776 38.397 21.631 22.849-.341 24.793-9.232 24.793-9.232l-7.5-31.104s11.364-65.588 15.496-79.413c4.131-13.823 8.909-10.621 8.909-10.621"/><path fill="#FFF" d="M420.735 368.729c-2.021 3.381-7.879 11.561-9.063 15.104-1.186 3.548-2.627 19.95 7.011 27.984 9.641 8.036 27.612 1.051 33.749-9.774 6.137-10.83 5.877-14.629 8.215-19.449 2.338-4.822 24.975-40.081 39.519-66.486 14.54-26.411 29.277-67.507 34.17-93.741 4.891-26.232 10.451-54.429 12.72-65.146 2.27-10.714 10.301-43.482 6.262-55.645-4.034-12.16-13.655-12.142-17.903 3.952-4.254 16.087-3.278 34.539-6.581 51.373-3.301 16.832-16.82 63.286-25.292 83.267-8.469 19.98-5.026 19.632-32.077 63.75-27.054 44.121-50.73 64.811-50.73 64.811"/><path fill="none" d="M420.735 368.729c-2.021 3.381-7.879 11.561-9.063 15.104-1.186 3.548-2.627 19.95 7.011 27.984 9.641 8.036 27.612 1.051 33.749-9.774 6.137-10.83 5.877-14.629 8.215-19.449 2.338-4.822 24.975-40.081 39.519-66.486 14.54-26.411 29.277-67.507 34.17-93.741 4.891-26.232 10.451-54.429 12.72-65.146 2.27-10.714 10.301-43.482 6.262-55.645-4.034-12.16-13.655-12.142-17.903 3.952-4.254 16.087-3.278 34.539-6.581 51.373-3.301 16.832-16.82 63.286-25.292 83.267-8.469 19.98-5.026 19.632-32.077 63.75-27.054 44.121-50.73 64.811-50.73 64.811z"/></g></svg>