<svg xmlns="http://www.w3.org/2000/svg" width="800" height="900" xml:space="preserve"><g stroke="#000" stroke-width="5" stroke-miterlimit="10"><path fill="#FFF" d="M748.91 470.388c-2.224-4.444-11.111-11.111-13.334 0-1.31 6.536-8.891 31.112-13.334 37.779-4.445 6.667-28.892 2.223-37.78 0-8.89-2.222-104.063-21.396-117.785-24.445-20.001-4.444-92.885-11.818-106.84-13.139a30.085 30.085 0 0 0-4.115-.115L400 472.609l-55.722-2.143a30.072 30.072 0 0 0-4.115.115c-13.957 1.319-86.839 8.693-106.84 13.139-13.723 3.049-108.896 22.225-117.785 24.445-8.889 2.223-33.335 6.667-37.78 0s-12.025-31.243-13.334-37.779c-2.223-11.111-11.112-4.444-13.334 0-2.222 4.444-6.667 51.114 0 71.115.964 2.887 135.071-.653 178.37-7.874 6.085-1.016 14.096-.973 17.197-1.016L400 530.391l153.343 2.224c3.101.043 11.111 0 17.195 1.016 43.299 7.221 177.41 10.761 178.372 7.874 6.667-20.003 2.223-66.673 0-71.117"/><path fill="none" d="M748.91 470.388c-2.224-4.444-11.111-11.111-13.334 0-1.31 6.536-8.891 31.112-13.334 37.779-4.445 6.667-28.892 2.223-37.78 0-8.89-2.222-104.063-21.396-117.785-24.445-20.001-4.444-92.885-11.818-106.84-13.139a30.085 30.085 0 0 0-4.115-.115L400 472.609l-55.722-2.143a30.072 30.072 0 0 0-4.115.115c-13.957 1.319-86.839 8.693-106.84 13.139-13.723 3.049-108.896 22.225-117.785 24.445-8.889 2.223-33.335 6.667-37.78 0s-12.025-31.243-13.334-37.779c-2.223-11.111-11.112-4.444-13.334 0-2.222 4.444-6.667 51.114 0 71.115.964 2.887 135.071-.653 178.37-7.874 6.085-1.016 14.096-.973 17.197-1.016L400 530.391l153.343 2.224c3.101.043 11.111 0 17.195 1.016 43.299 7.221 177.41 10.761 178.372 7.874 6.667-20.003 2.223-66.673 0-71.117z"/><path fill="#FFF" d="m456.686 444.751-2.197-48.269c-15.949-6.604-41.972-11.039-52.84-11.039-10.869 0-36.892 4.434-52.843 11.039l-2.195 48.269-4.444 31.457s19.806 19.232 59.483 19.232c39.677 0 59.481-19.232 59.481-19.232l-4.445-31.457z"/><path fill="none" d="m456.686 444.751-2.197-48.269c-15.949-6.604-41.972-11.039-52.84-11.039-10.869 0-36.892 4.434-52.843 11.039l-2.195 48.269-4.444 31.457s19.806 19.232 59.483 19.232c39.677 0 59.481-19.232 59.481-19.232l-4.445-31.457z"/><path fill="none" d="M361.736 392.121c.87 32.028 30.705 48.323 40.254 48.323 9.55 0 36.722-16.457 39.597-48.323"/><path fill="#FFF" d="M375.986 339.676c-16.494 34.186 9.542 75.25 24.52 75.448 14.98.197 42.088-40.164 26.5-74.775-9.823-21.816-40.625-22.22-51.02-.673"/><path fill="none" d="M375.986 339.676c-16.494 34.186 9.542 75.25 24.52 75.448 14.98.197 42.088-40.164 26.5-74.775-9.823-21.816-40.625-22.22-51.02-.673z"/><path fill="#100200" d="M497.671 380.841c-13.146-7.223-9.813-16.485-21.48-25.741-11.667-9.261-26.123-3.006-32.225-17.968-6.049-14.823-25.75-23.283-42.922-23.079H400.993c-17.167-.204-36.869 8.255-42.915 23.079-6.104 14.962-20.558 8.707-32.225 17.968-11.667 9.256-8.334 18.519-21.482 25.741-13.147 7.223-14.217 6.554-13.703 12.223.757 8.362 30.659 5.057 53.087 5.63 4.396.107 20.405 4.56 24.686 5.563 8.755 2.051 20.008 1.758 20.239-1.378.369-5-1.231-16.896-4.644-22.985s-10.461-4.123-10.461-13.056c0-8.334 3.425-5.091 11.294-12.5 6.936-6.537 13.881-14.103 16.153-20.251 2.271 6.148 9.218 13.714 16.153 20.251 7.869 7.409 11.294 4.167 11.294 12.5 0 8.933-7.049 6.967-10.461 13.056-3.411 6.09-5.013 17.985-4.645 22.985.233 3.136 11.484 3.429 20.24 1.378 4.281-1.005 20.291-5.456 24.685-5.563 22.428-.573 52.33 2.731 53.089-5.63.512-5.668-.556-5-13.706-12.223"/><path fill="#FFF" d="M351.108 399.271s-28.892 6.666-33.335 26.668c-3.112 14.007-.484 91.023-.057 115.115.041 2.463.273 4.9.525 7.354.258 2.539.087 6.706-2.691 10.873-4.444 6.667-15.557 8.89-20.001 17.778-4.445 8.891 28.892 8.891 28.892 8.891s6.667 0 11.11-8.891c4.445-8.89 0-8.89 4.445-8.89s8.364 6.667 13.334 6.667c6.667 0 0-4.444-4.445-11.111-4.444-6.667-8.89 0-8.89-13.334 0-13.335 8.89-111.118 8.89-111.118"/><path fill="none" d="M351.108 399.271s-28.892 6.666-33.335 26.668c-3.112 14.007-.484 91.023-.057 115.115.041 2.463.273 4.9.525 7.354.258 2.539.087 6.706-2.691 10.873-4.444 6.667-15.557 8.89-20.001 17.778-4.445 8.891 28.892 8.891 28.892 8.891s6.667 0 11.11-8.891c4.445-8.89 0-8.89 4.445-8.89s8.364 6.667 13.334 6.667c6.667 0 0-4.444-4.445-11.111-4.444-6.667-8.89 0-8.89-13.334 0-13.335 8.89-111.118 8.89-111.118"/><path fill="#FFF" d="M449.908 399.271s28.891 6.666 33.335 26.668c3.109 14.007.48 91.023.055 115.115-.044 2.463-.272 4.9-.524 7.354-.26 2.539-.086 6.706 2.692 10.873 4.444 6.667 15.558 8.89 20.001 17.778 4.444 8.89-28.891 8.891-28.891 8.891s-6.667 0-11.112-8.891c-4.444-8.89 0-8.89-4.444-8.89-4.443 0-8.365 6.667-13.334 6.667-6.667 0 0-4.444 4.444-11.111 4.445-6.667 8.89 0 8.89-13.334 0-13.335-8.89-111.118-8.89-111.118"/><path fill="none" d="M449.908 399.271s28.891 6.666 33.335 26.668c3.109 14.007.48 91.023.055 115.115-.044 2.463-.272 4.9-.524 7.354-.26 2.539-.086 6.706 2.692 10.873 4.444 6.667 15.558 8.89 20.001 17.778 4.444 8.89-28.891 8.891-28.891 8.891s-6.667 0-11.112-8.891c-4.444-8.89 0-8.89-4.444-8.89-4.443 0-8.365 6.667-13.334 6.667-6.667 0 0-4.444 4.444-11.111 4.445-6.667 8.89 0 8.89-13.334 0-13.335-8.89-111.118-8.89-111.118M98.59 511.169v31.341M696.685 511.169v30.851"/></g></svg>