<svg width="844" height="124" viewBox="0 0 844 124" fill="none" xmlns="http://www.w3.org/2000/svg">
<path d="M8 10.5C12.6626 17.0498 17.3472 23.5339 21.25 30.4722C24.3001 35.8946 28.7519 40.5038 31.5 46" stroke="white" stroke-width="16" stroke-linecap="round"/>
<path d="M58.5 8C53.1683 14.7858 48.639 22.3702 43.7778 29.5C40.4539 34.375 36.3272 38.99 34.3889 44.6111C31.642 52.5771 31.1047 60.8842 30.5278 69.25C30.1814 74.2728 29.3729 79.2459 29.0278 84.25C28.8358 87.0336 29.3795 89.8614 28.5 92.5" stroke="white" stroke-width="16" stroke-linecap="round"/>
<path d="M131 27C120.57 24.4327 112.241 28.8313 105.555 36.4722C101.031 41.643 99.551 52.4127 101 58.8889C103 67.8303 108.165 75.9997 117.5 78.7222C125.522 81.0619 134.001 80.995 141.333 76.4444C145.397 73.9216 147.628 71.468 149.888 67.3333C151.822 63.7959 154 59.3284 154 55.2222C154 50.595 154.321 45.8072 151.722 41.7222C149.777 38.6665 148.524 36.0243 146 33.5C143.718 31.2188 140.534 29.2138 137.5 28" stroke="white" stroke-width="16" stroke-linecap="round"/>
<path d="M357.5 33.5C353.774 30.6771 350.306 27.3876 345.611 26.3889C341.588 25.5329 338.03 27.1535 334.25 28.5278C327.142 31.1127 320.658 35.6749 316.445 42.0555C314.486 45.0214 314.418 50.5933 315.222 53.9444C316.514 59.3257 321.021 60.7882 325.445 63C332.629 66.592 339.53 64.8595 345.306 59.0833C349.478 54.9109 354.237 46.3843 354.5 40.3333C354.529 39.6651 355.23 34.9872 355.389 35.1111C357.365 36.6477 358.938 37.2999 359.5 40.25C361.07 48.4898 359.173 56.7592 361.722 64.9444C363.289 69.9753 363.688 78.5 370.5 78.5" stroke="white" stroke-width="16" stroke-linecap="round"/>
<path d="M253 33C247.38 29.6049 241.708 25 234.861 25C229.566 25 224.026 26.4744 220.167 30.3333C212.003 38.4974 207.403 55.4549 215.167 65.2222C220.135 71.4725 232.716 74.789 239.5 70C247.176 64.5817 248.864 53.9947 250.778 45.2778C251.333 42.748 252 39.8503 252 37.25C252 34.1859 252.455 37.5248 252.778 38.8611C254.44 45.7471 254.443 54.0451 254.5 61.1111C254.568 69.5765 254.556 79.0263 252 87.1667C248.395 98.6447 240.464 113.036 227.472 115.472C220.55 116.77 214.958 115.193 209.667 110.556C206.757 108.005 201.5 102.706 201.5 98.5" stroke="white" stroke-width="16" stroke-linecap="round"/>
<path d="M539.472 41.096C544.143 35.483 549.086 32.1512 556.35 30.9622C562.947 29.8823 569.914 31.1522 576.132 33.349C579.525 34.5476 582.705 36.5203 585.556 38.7014C590.12 42.1937 595.098 45.2108 599.547 48.8276C607.528 55.3155 615.999 61.5769 624.76 66.9823C636.865 74.4512 651.234 82.2262 665.835 82.6779C672.832 82.8944 680.532 81.2896 685.761 76.4214C689.307 73.1203 694.276 69.4384 695.616 64.4508C697.812 56.2828 697.671 46.0101 693.17 38.5568C689.225 32.0227 682.606 32.1049 675.762 30.2389C672.028 29.2207 667.27 29.9495 663.461 29.9495C657.205 29.9495 652.323 30.8723 646.269 32.0471C642.04 32.8677 637.158 34.2665 633.392 36.3869C629.741 38.443 625.28 39.2759 621.955 41.9924C620.302 43.3429 618.213 43.8341 616.488 45.0664C614.572 46.4349 612.655 48.0614 610.589 49.1892C607.297 50.9862 604.031 53.7317 600.986 55.9882C594.727 60.6249 587.897 64.111 581.455 68.4289C573.007 74.0923 563.332 78.7721 553.005 78.7721C547.244 78.7721 543.476 78.2873 538.798 74.8663C533.567 71.0414 532 65.7447 532 58.9538C532 53.469 535.976 46.844 538.798 41.9924" stroke="white" stroke-width="12" stroke-linecap="round"/>
<path d="M744.5 79.6969C749.311 72.5527 749.278 63.9485 750.528 55.6136C751.448 49.4812 753.164 43.3203 755.028 37.4191C755.87 34.752 757.021 31.6889 759.111 29.808C761.695 27.4825 767.794 38.1367 768.5 39.808C771.69 47.3637 775.752 54.4811 778.028 62.4469C778.572 64.351 779.617 66.588 780.611 68.308C780.805 68.6433 782.357 71.6177 782.389 71.5858C784.221 69.7539 785.193 65.2302 786.111 63.0302C787.485 59.7374 788.794 56.3869 790.389 53.1969C795.317 43.3414 802.249 34.3155 811.472 27.9747C814.596 25.8268 815.582 32.5784 815.889 34.8636C816.742 41.22 817.224 47.6519 818.111 53.9747C819.281 62.3088 821.186 69.3455 825.722 76.4747C828.042 80.12 831.446 80.6969 835.5 80.6969" stroke="white" stroke-width="16" stroke-linecap="round"/>
<path d="M436 90.6969C439.086 82.639 441.256 74.0777 442.389 65.5302C442.862 61.9583 443.973 58.6445 444.778 55.1413C445.553 51.7656 445.588 48.1798 446.111 44.7524C447.625 34.8288 448.5 24.9736 448.5 14.9469C448.5 10.3213 461.916 10.8109 464.278 11.308C469.468 12.4006 475.805 13.202 480.278 16.308C483.726 18.7029 484.5 22.6109 484.5 26.6691C484.5 30.9838 482.984 34.6038 481.25 38.4191C480.286 40.5394 477.112 42.2721 475.222 43.4747C472.473 45.224 468.931 46.3466 465.778 47.1691C461.419 48.3061 456.962 50.1969 452.389 50.1969C451.494 50.1969 449.878 50.2081 451.611 50.808C453.491 51.4589 455.561 52.6921 457.111 53.9191C462.212 57.9572 466.149 63.8986 470.083 68.9747C474.951 75.2561 480.992 82.334 487.5 86.9191C490.632 89.1259 493.844 91.1608 497.139 93.1135C498.315 93.8105 499.606 94.6969 501 94.6969" stroke="white" stroke-width="16" stroke-linecap="round"/>
</svg>
