<svg width="800" height="800" viewBox="0 0 800 800" fill="none" xmlns="http://www.w3.org/2000/svg">
<path d="M493.412 526.429C514.87 566.062 514.465 582 538.991 614.686C563.518 647.377 594.708 645.602 601.248 678.292C607.789 710.979 565.564 742.179 446.187 738.091C326.819 734.007 272.344 718.886 241.378 730.223C210.408 741.562 216.848 766.082 194.774 758.419C172.696 750.757 175.765 708.771 184.96 697.432C194.159 686.089 209.797 682.106 227.888 686.707C245.975 691.304 281.442 688.238 297.792 685.789C314.143 683.338 401.628 677.335 432.7 643.153C432.7 643.153 269.582 598.346 275.305 590.987C281.036 583.633 312.103 538.276 316.801 526.428L415.936 501.909L493.412 526.429Z" fill="white" stroke="black" stroke-width="5" stroke-miterlimit="10"/>
<path d="M493.412 526.429C514.87 566.062 514.465 582 538.991 614.686C563.518 647.377 594.708 645.602 601.248 678.292C607.789 710.979 565.564 742.179 446.187 738.091C326.819 734.007 272.344 718.886 241.378 730.223C210.408 741.562 216.848 766.082 194.774 758.419C172.696 750.757 175.765 708.771 184.96 697.432C194.159 686.089 209.797 682.106 227.888 686.707C245.975 691.304 281.442 688.238 297.792 685.789C314.143 683.338 401.628 677.335 432.7 643.153C432.7 643.153 269.582 598.346 275.305 590.987C281.036 583.633 312.103 538.276 316.801 526.428L415.936 501.909L493.412 526.429Z" stroke="black" stroke-width="5" stroke-miterlimit="10"/>
<path d="M271.099 688.507C237.393 669.241 168.124 632.753 189.726 578.914C209.912 528.609 274.602 572.782 354.749 592.713C436.052 612.932 475.473 617.854 523.606 612.644C571.747 607.434 595.814 598.757 605.625 609.482C615.437 620.206 614.401 663.437 597.745 670.325C581.099 677.209 570.059 647.787 540.628 645.032C511.196 642.27 438.855 647.985 409.353 659.958C354.75 682.109 271.099 688.507 271.099 688.507Z" fill="white" stroke="black" stroke-width="5" stroke-miterlimit="10"/>
<path d="M271.099 688.507C237.393 669.241 168.124 632.753 189.726 578.914C209.912 528.609 274.602 572.782 354.749 592.713C436.052 612.932 475.473 617.854 523.606 612.644C571.747 607.434 595.814 598.757 605.625 609.482C615.437 620.206 614.401 663.437 597.745 670.325C581.099 677.209 570.059 647.787 540.628 645.032C511.196 642.27 438.855 647.985 409.353 659.958C354.75 682.109 271.099 688.507 271.099 688.507Z" stroke="black" stroke-width="5" stroke-miterlimit="10"/>
<path d="M493.412 645.42C493.412 645.42 509.77 630.878 493.412 614.523Z" fill="white"/>
<path d="M493.412 645.42C493.412 645.42 509.77 630.878 493.412 614.523" stroke="black" stroke-width="5" stroke-miterlimit="10"/>
<path d="M493.412 645.42C493.412 645.42 509.77 630.878 493.412 614.523" stroke="black" stroke-width="5" stroke-miterlimit="10"/>
<path d="M244.649 647.173C268.564 662.704 346.644 674.572 391.103 666.489" stroke="black" stroke-width="5" stroke-miterlimit="10"/>
<path d="M242.961 504.133C237.249 496.125 236.65 485.514 241.525 476.968C261.414 442.087 309.19 370.658 321.391 358.308C335.741 343.778 354.75 305.776 354.75 305.776L328.791 278.398C312.032 283.713 283.415 289.842 265.016 339.688C247.751 386.488 214.273 434.001 192.309 466.692C188.432 472.462 186.271 479.233 186.43 486.187C186.866 505.518 198.522 543.352 270.817 582.267C270.817 582.267 278.79 594.221 290.749 606.173C302.709 618.128 342.55 646.775 334.59 614.523C326.628 582.267 278.79 554.373 278.79 554.373L242.961 504.133Z" fill="white" stroke="black" stroke-width="5" stroke-miterlimit="10"/>
<path d="M242.961 504.133C237.249 496.125 236.65 485.514 241.525 476.968C261.414 442.087 309.19 370.658 321.391 358.308C335.741 343.778 354.75 305.776 354.75 305.776L328.791 278.398C312.032 283.713 283.415 289.842 265.016 339.688C247.751 386.488 214.273 434.001 192.309 466.692C188.432 472.462 186.271 479.233 186.43 486.187C186.866 505.518 198.522 543.352 270.817 582.267C270.817 582.267 278.79 594.221 290.749 606.173C302.709 618.128 342.55 646.775 334.59 614.523C326.628 582.267 278.79 554.373 278.79 554.373L242.961 504.133Z" stroke="black" stroke-width="5" stroke-miterlimit="10"/>
<path d="M565.457 504.133C571.171 496.125 571.771 485.514 566.897 476.968C547.012 442.087 499.236 370.658 487.036 358.308C472.686 343.778 453.671 305.776 453.671 305.776L479.63 278.398C496.395 283.713 525.008 289.842 543.406 339.688C560.676 386.488 594.157 434.001 616.114 466.692C619.991 472.462 622.148 479.233 621.992 486.187C621.556 505.518 609.908 543.352 537.606 582.267C537.606 582.267 529.633 594.221 517.673 606.173C505.713 618.128 465.872 646.775 473.837 614.523C481.795 582.267 529.632 554.373 529.632 554.373L565.457 504.133Z" fill="white" stroke="black" stroke-width="5" stroke-miterlimit="10"/>
<path d="M565.457 504.133C571.171 496.125 571.771 485.514 566.897 476.968C547.012 442.087 499.236 370.658 487.036 358.308C472.686 343.778 453.671 305.776 453.671 305.776L479.63 278.398C496.395 283.713 525.008 289.842 543.406 339.688C560.676 386.488 594.157 434.001 616.114 466.692C619.991 472.462 622.148 479.233 621.992 486.187C621.556 505.518 609.908 543.352 537.606 582.267C537.606 582.267 529.633 594.221 517.673 606.173C505.713 618.128 465.872 646.775 473.837 614.523C481.795 582.267 529.632 554.373 529.632 554.373L565.457 504.133Z" stroke="black" stroke-width="5" stroke-miterlimit="10"/>
<path d="M488.748 358.308C474.032 315.403 481.351 278.398 481.351 278.398C481.351 278.398 464.385 273.904 444.762 258.58C425.143 243.259 430.039 191.561 430.039 191.561C430.039 191.561 429.02 191.771 405.108 191.771C381.19 191.771 379.929 191.561 379.929 191.561C379.929 191.561 385.071 243.26 365.448 258.58C345.827 273.902 328.869 278.398 328.869 278.398C328.869 278.398 336.178 315.403 321.458 358.308C321.458 358.308 335.197 449.2 316.802 526.429C316.802 526.429 355.434 541.753 405.108 541.753C454.775 541.753 493.41 526.429 493.41 526.429C475.013 449.2 488.748 358.308 488.748 358.308Z" fill="white" stroke="black" stroke-width="5" stroke-miterlimit="10"/>
<path d="M488.748 358.308C474.032 315.403 481.351 278.398 481.351 278.398C481.351 278.398 464.385 273.904 444.762 258.58C425.143 243.259 430.039 191.561 430.039 191.561C430.039 191.561 429.02 191.771 405.108 191.771C381.19 191.771 379.929 191.561 379.929 191.561C379.929 191.561 385.071 243.26 365.448 258.58C345.827 273.902 328.869 278.398 328.869 278.398C328.869 278.398 336.178 315.403 321.458 358.308C321.458 358.308 335.197 449.2 316.802 526.429C316.802 526.429 355.434 541.753 405.108 541.753C454.775 541.753 493.41 526.429 493.41 526.429C475.013 449.2 488.748 358.308 488.748 358.308Z" stroke="black" stroke-width="5" stroke-miterlimit="10"/>
<path d="M361.442 84.673C332.682 144.271 378.086 215.85 404.213 216.197C430.336 216.539 477.614 146.178 450.432 85.8449C433.295 47.815 379.576 47.1035 361.442 84.673Z" fill="white" stroke="black" stroke-width="5" stroke-miterlimit="10"/>
<path d="M361.442 84.673C332.682 144.271 378.086 215.85 404.213 216.197C430.336 216.539 477.614 146.178 450.432 85.8449C433.295 47.815 379.576 47.1035 361.442 84.673Z" stroke="black" stroke-width="5" stroke-miterlimit="10"/>
<path d="M573.672 156.431C550.741 143.839 556.559 127.698 536.205 111.558C515.859 95.4169 490.648 106.32 480.005 80.2418C469.453 54.4045 435.093 39.6446 405.156 40.0065H405.109H405.062C375.118 39.6446 340.754 54.4036 330.208 80.2418C319.564 106.32 294.36 95.4169 274.008 111.558C253.662 127.698 259.471 143.839 236.541 156.431C213.611 169.023 211.738 167.86 212.638 177.743C213.961 192.316 266.113 186.557 305.226 187.553C312.892 187.747 340.814 195.507 348.28 197.254C363.553 200.83 383.174 200.324 383.578 194.852C384.229 186.132 381.43 165.396 375.477 154.781C369.529 144.166 357.238 147.594 357.238 132.021C357.238 117.495 363.207 123.149 376.93 110.231C389.033 98.8412 401.148 85.6462 405.11 74.9333C409.073 85.6462 421.18 98.8412 433.28 110.231C447.007 123.15 452.979 117.496 452.979 132.021C452.979 147.594 440.683 144.165 434.735 154.781C428.786 165.396 425.991 186.133 426.637 194.852C427.041 200.323 446.662 200.829 461.932 197.254C469.399 195.507 497.321 187.747 504.991 187.553C544.1 186.557 596.251 192.316 597.575 177.743C598.47 167.86 596.61 169.023 573.672 156.431Z" fill="#100200" stroke="black" stroke-width="5" stroke-miterlimit="10"/>
<path d="M348.404 270.218C348.404 270.218 369.699 302.258 405.411 302.258C441.118 302.258 462.414 270.218 462.414 270.218" stroke="black" stroke-width="5" stroke-miterlimit="10"/>
<path d="M285.028 688.507C285.028 688.507 268.417 711.344 285.028 726.473Z" fill="white"/>
<path d="M285.028 688.507C285.028 688.507 268.417 711.344 285.028 726.473" stroke="black" stroke-width="5" stroke-miterlimit="10"/>
<path d="M285.028 688.507C285.028 688.507 268.417 711.344 285.028 726.473" stroke="black" stroke-width="5" stroke-miterlimit="10"/>
</svg>
