<svg width="800" height="800" fill="none" xmlns="http://www.w3.org/2000/svg"><path d="M493.412 526.429c21.458 39.633 21.053 55.571 45.579 88.257 24.527 32.691 55.717 30.916 62.257 63.606 6.541 32.687-35.684 63.887-155.061 59.799-119.368-4.084-173.843-19.205-204.809-7.868-30.97 11.339-24.53 35.859-46.604 28.196-22.078-7.662-19.009-49.648-9.814-60.987 9.199-11.343 24.837-15.326 42.928-10.725 18.087 4.597 53.554 1.531 69.904-.918 16.351-2.451 103.836-8.454 134.908-42.636 0 0-163.118-44.807-157.395-52.166 5.731-7.354 36.798-52.711 41.496-64.559l99.135-24.519 77.476 24.52Z" fill="#fff" stroke="#000" stroke-width="5" stroke-miterlimit="10"/><path d="M493.412 526.429c21.458 39.633 21.053 55.571 45.579 88.257 24.527 32.691 55.717 30.916 62.257 63.606 6.541 32.687-35.684 63.887-155.061 59.799-119.368-4.084-173.843-19.205-204.809-7.868-30.97 11.339-24.53 35.859-46.604 28.196-22.078-7.662-19.009-49.648-9.814-60.987 9.199-11.343 24.837-15.326 42.928-10.725 18.087 4.597 53.554 1.531 69.904-.918 16.351-2.451 103.836-8.454 134.908-42.636 0 0-163.118-44.807-157.395-52.166 5.731-7.354 36.798-52.711 41.496-64.559l99.135-24.519 77.476 24.52Z" stroke="#000" stroke-width="5" stroke-miterlimit="10"/><path d="M271.099 688.507c-33.706-19.266-102.975-55.754-81.373-109.593 20.186-50.305 84.876-6.132 165.023 13.799 81.303 20.219 120.724 25.141 168.857 19.931 48.141-5.21 72.208-13.887 82.019-3.162 9.812 10.724 8.776 53.955-7.88 60.843-16.646 6.884-27.686-22.538-57.117-25.293-29.432-2.762-101.773 2.953-131.275 14.926-54.603 22.151-138.254 28.549-138.254 28.549Z" fill="#fff" stroke="#000" stroke-width="5" stroke-miterlimit="10"/><path d="M271.099 688.507c-33.706-19.266-102.975-55.754-81.373-109.593 20.186-50.305 84.876-6.132 165.023 13.799 81.303 20.219 120.724 25.141 168.857 19.931 48.141-5.21 72.208-13.887 82.019-3.162 9.812 10.724 8.776 53.955-7.88 60.843-16.646 6.884-27.686-22.538-57.117-25.293-29.432-2.762-101.773 2.953-131.275 14.926-54.603 22.151-138.254 28.549-138.254 28.549Z" stroke="#000" stroke-width="5" stroke-miterlimit="10"/><path d="M493.412 645.42s16.358-14.542 0-30.897Z" fill="#fff"/><path d="M493.412 645.42s16.358-14.542 0-30.897" stroke="#000" stroke-width="5" stroke-miterlimit="10"/><path d="M493.412 645.42s16.358-14.542 0-30.897M244.649 647.173c23.915 15.531 101.995 27.399 146.454 19.316" stroke="#000" stroke-width="5" stroke-miterlimit="10"/><path d="M242.961 504.133c-5.712-8.008-6.311-18.619-1.436-27.165 19.889-34.881 67.665-106.31 79.866-118.66 14.35-14.53 33.359-52.532 33.359-52.532l-25.959-27.378c-16.759 5.315-45.376 11.444-63.775 61.29-17.265 46.8-50.743 94.313-72.707 127.004-3.877 5.77-6.038 12.541-5.879 19.495.436 19.331 12.092 57.165 84.387 96.08 0 0 7.973 11.954 19.932 23.906 11.96 11.955 51.801 40.602 43.841 8.35-7.962-32.256-55.8-60.15-55.8-60.15l-35.829-50.24Z" fill="#fff" stroke="#000" stroke-width="5" stroke-miterlimit="10"/><path d="M242.961 504.133c-5.712-8.008-6.311-18.619-1.436-27.165 19.889-34.881 67.665-106.31 79.866-118.66 14.35-14.53 33.359-52.532 33.359-52.532l-25.959-27.378c-16.759 5.315-45.376 11.444-63.775 61.29-17.265 46.8-50.743 94.313-72.707 127.004-3.877 5.77-6.038 12.541-5.879 19.495.436 19.331 12.092 57.165 84.387 96.08 0 0 7.973 11.954 19.932 23.906 11.96 11.955 51.801 40.602 43.841 8.35-7.962-32.256-55.8-60.15-55.8-60.15l-35.829-50.24Z" stroke="#000" stroke-width="5" stroke-miterlimit="10"/><path d="M565.457 504.133c5.714-8.008 6.314-18.619 1.44-27.165-19.885-34.881-67.661-106.31-79.861-118.66-14.35-14.53-33.365-52.532-33.365-52.532l25.959-27.378c16.765 5.315 45.378 11.444 63.776 61.29 17.27 46.8 50.751 94.313 72.708 127.004 3.877 5.77 6.034 12.541 5.878 19.495-.436 19.331-12.084 57.165-84.386 96.08 0 0-7.973 11.954-19.933 23.906-11.96 11.955-51.801 40.602-43.836 8.35 7.958-32.256 55.795-60.15 55.795-60.15l35.825-50.24Z" fill="#fff" stroke="#000" stroke-width="5" stroke-miterlimit="10"/><path d="M565.457 504.133c5.714-8.008 6.314-18.619 1.44-27.165-19.885-34.881-67.661-106.31-79.861-118.66-14.35-14.53-33.365-52.532-33.365-52.532l25.959-27.378c16.765 5.315 45.378 11.444 63.776 61.29 17.27 46.8 50.751 94.313 72.708 127.004 3.877 5.77 6.034 12.541 5.878 19.495-.436 19.331-12.084 57.165-84.386 96.08 0 0-7.973 11.954-19.933 23.906-11.96 11.955-51.801 40.602-43.836 8.35 7.958-32.256 55.795-60.15 55.795-60.15l35.825-50.24Z" stroke="#000" stroke-width="5" stroke-miterlimit="10"/><path d="M488.748 358.308c-14.716-42.905-7.397-79.91-7.397-79.91s-16.966-4.494-36.589-19.818c-19.619-15.321-14.723-67.019-14.723-67.019s-1.019.21-24.931.21c-23.918 0-25.179-.21-25.179-.21s5.142 51.699-14.481 67.019c-19.621 15.322-36.579 19.818-36.579 19.818s7.309 37.005-7.411 79.91c0 0 13.739 90.892-4.656 168.121 0 0 38.632 15.324 88.306 15.324 49.667 0 88.302-15.324 88.302-15.324-18.397-77.229-4.662-168.121-4.662-168.121Z" fill="#fff" stroke="#000" stroke-width="5" stroke-miterlimit="10"/><path d="M488.748 358.308c-14.716-42.905-7.397-79.91-7.397-79.91s-16.966-4.494-36.589-19.818c-19.619-15.321-14.723-67.019-14.723-67.019s-1.019.21-24.931.21c-23.918 0-25.179-.21-25.179-.21s5.142 51.699-14.481 67.019c-19.621 15.322-36.579 19.818-36.579 19.818s7.309 37.005-7.411 79.91c0 0 13.739 90.892-4.656 168.121 0 0 38.632 15.324 88.306 15.324 49.667 0 88.302-15.324 88.302-15.324-18.397-77.229-4.662-168.121-4.662-168.121Z" stroke="#000" stroke-width="5" stroke-miterlimit="10"/><path d="M361.442 84.673c-28.76 59.598 16.644 131.177 42.771 131.524 26.123.342 73.401-70.019 46.219-130.352-17.137-38.03-70.856-38.742-88.99-1.172Z" fill="#fff" stroke="#000" stroke-width="5" stroke-miterlimit="10"/><path d="M361.442 84.673c-28.76 59.598 16.644 131.177 42.771 131.524 26.123.342 73.401-70.019 46.219-130.352-17.137-38.03-70.856-38.742-88.99-1.172Z" stroke="#000" stroke-width="5" stroke-miterlimit="10"/><path d="M573.672 156.431c-22.931-12.592-17.113-28.733-37.467-44.873-20.346-16.141-45.557-5.238-56.2-31.316-10.552-25.838-44.912-40.597-74.849-40.236h-.094c-29.944-.361-64.308 14.398-74.854 40.236-10.644 26.078-35.848 15.175-56.2 31.316-20.346 16.14-14.537 32.281-37.467 44.873-22.93 12.592-24.803 11.429-23.903 21.312 1.323 14.573 53.475 8.814 92.588 9.81 7.666.194 35.588 7.954 43.054 9.701 15.273 3.576 34.894 3.07 35.298-2.402.651-8.72-2.148-29.456-8.101-40.071-5.948-10.615-18.239-7.187-18.239-22.76 0-14.526 5.969-8.872 19.692-21.79 12.103-11.39 24.218-24.585 28.18-35.298 3.963 10.713 16.07 23.908 28.17 35.298 13.727 12.919 19.699 7.265 19.699 21.79 0 15.573-12.296 12.144-18.244 22.76-5.949 10.615-8.744 31.352-8.098 40.071.404 5.471 20.025 5.977 35.295 2.402 7.467-1.747 35.389-9.507 43.059-9.701 39.109-.996 91.26 4.763 92.584-9.81.895-9.883-.965-8.72-23.903-21.312Z" fill="#100200" stroke="#000" stroke-width="5" stroke-miterlimit="10"/><path d="M348.404 270.218s21.295 32.04 57.007 32.04c35.707 0 57.003-32.04 57.003-32.04" stroke="#000" stroke-width="5" stroke-miterlimit="10"/><path d="M285.028 688.507s-16.611 22.837 0 37.966Z" fill="#fff"/><path d="M285.028 688.507s-16.611 22.837 0 37.966" stroke="#000" stroke-width="5" stroke-miterlimit="10"/><path d="M285.028 688.507s-16.611 22.837 0 37.966" stroke="#000" stroke-width="5" stroke-miterlimit="10"/></svg>